<?xml version="1.0" encoding="utf-8"?>
<!-- Generator: Adobe Illustrator 23.1.1, SVG Export Plug-In . SVG Version: 6.00 Build 0)  -->
<svg version="1.1" id="Layer_1" xmlns="http://www.w3.org/2000/svg" xmlns:xlink="http://www.w3.org/1999/xlink" x="0px" y="0px"
	 viewBox="0 0 85 85" style="enable-background:new 0 0 85 85;" xml:space="preserve">
<style type="text/css">
	.st0{fill:#19B7AB;}
	.st1{fill:#1E62BD;}
</style>
<title>Untitled</title>
<desc>Created with Sketch.</desc>
<rect x="70" y="34.6" class="st0" width="12.9" height="15.9"/>
<rect x="41" y="22" class="st1" width="22.3" height="40.9"/>
<g id="Page-1">
	<g id="api">
		<path id="Shape" d="M80.8,32.6h-8.5c-2.3,0-4.2,1.9-4.2,4.2v4.2h-2.8v-17c0-2.3-1.9-4.2-4.2-4.2h-7.1v-4.3c0-2.3-1.9-4.2-4.2-4.2
			H36.8V4.2c0-2.3-1.9-4.2-4.2-4.2H4.2C1.9,0,0,1.9,0,4.2v17c0,2.3,1.9,4.2,4.2,4.2h28.3c2.3,0,4.2-1.9,4.2-4.2v-7.1h12.8
			c0.8,0,1.4,0.6,1.4,1.4v4.3h-7.1c-2.3,0-4.2,1.9-4.2,4.2v17h-2.8V34c0-2.3-1.9-4.2-4.2-4.2H4.2C1.9,29.8,0,31.7,0,34v17
			c0,2.3,1.9,4.2,4.2,4.2h28.3c2.3,0,4.2-1.9,4.2-4.2v-7.1h2.8v17c0,2.3,1.9,4.2,4.2,4.2H51v4.2c0,0.8-0.6,1.4-1.4,1.4H36.8v-7.1
			c0-2.3-1.9-4.2-4.2-4.2H4.2c-2.3,0-4.2,1.9-4.2,4.2v17C0,83.1,1.9,85,4.2,85h28.3c2.3,0,4.2-1.9,4.2-4.2v-7.1h12.8
			c2.3,0,4.2-1.9,4.2-4.2v-4.2h7.1c2.3,0,4.2-1.9,4.2-4.2v-17H68v4.2c0,2.3,1.9,4.2,4.2,4.2h8.5c2.3,0,4.2-1.9,4.2-4.2V36.8
			C85,34.5,83.1,32.6,80.8,32.6z M34,21.2c0,0.8-0.6,1.4-1.4,1.4H4.2c-0.8,0-1.4-0.6-1.4-1.4v-17c0-0.8,0.6-1.4,1.4-1.4h28.3
			c0.8,0,1.4,0.6,1.4,1.4V21.2z M34,51c0,0.8-0.6,1.4-1.4,1.4H4.2c-0.8,0-1.4-0.6-1.4-1.4V34c0-0.8,0.6-1.4,1.4-1.4h28.3
			c0.8,0,1.4,0.6,1.4,1.4V51z M34,80.8c0,0.8-0.6,1.4-1.4,1.4H4.2c-0.8,0-1.4-0.6-1.4-1.4v-17c0-0.8,0.6-1.4,1.4-1.4h28.3
			c0.8,0,1.4,0.6,1.4,1.4V80.8z M62.3,60.9c0,0.8-0.6,1.4-1.4,1.4h-17c-0.8,0-1.4-0.6-1.4-1.4V24.1c0-0.8,0.6-1.4,1.4-1.4h17
			c0.8,0,1.4,0.6,1.4,1.4V60.9z M82.2,48.2c0,0.8-0.6,1.4-1.4,1.4h-8.5c-0.8,0-1.4-0.6-1.4-1.4V36.8c0-0.8,0.6-1.4,1.4-1.4h8.5
			c0.8,0,1.4,0.6,1.4,1.4V48.2z"/>
		<path id="Path" class="st1" d="M12,8.4c-0.5-0.6-1.3-0.6-1.8,0l-3.8,4.3c-0.5,0.6-0.5,1.5,0,2l3.8,4.3c0.5,0.5,1.3,0.5,1.8,0
			s0.5-1.4,0-2l-2.9-3.3l2.9-3.3C12.5,9.9,12.5,9,12,8.4z"/>
		<path class="st1" d="M26.3,8c-0.5-0.5-1.3-0.5-1.8,0s-0.5,1.4,0,2l2.9,3.3l-2.9,3.3c-0.3,0.4-0.5,0.9-0.3,1.4
			c0.1,0.5,0.5,0.9,0.9,1c0.4,0.1,0.9,0,1.2-0.4l3.8-4.3c0.5-0.6,0.5-1.5,0-2L26.3,8z"/>
		<path class="st0" d="M20.5,7.7c-0.8-0.2-1.7,0.2-2,0.9l-3.2,8.6c-0.2,0.5-0.1,1,0.3,1.4c0.4,0.4,1,0.6,1.5,0.5s1-0.5,1.2-0.9
			l3.2-8.6c0.1-0.4,0.1-0.8-0.1-1.1S20.9,7.8,20.5,7.7L20.5,7.7z"/>
		<path class="st1" d="M12.3,37.2c-0.5-0.6-1.3-0.6-1.8,0l-3.8,4.3c-0.5,0.6-0.5,1.5,0,2l3.8,4.3c0.5,0.5,1.3,0.5,1.8,0s0.5-1.4,0-2
			l-2.9-3.3l2.9-3.3C12.8,38.7,12.8,37.8,12.3,37.2z"/>
		<path class="st1" d="M26.3,37.2c-0.5-0.5-1.3-0.5-1.8,0s-0.5,1.4,0,2l2.9,3.3l-2.9,3.3c-0.3,0.4-0.5,0.9-0.3,1.4
			c0.1,0.5,0.5,0.9,0.9,1c0.4,0.1,0.9,0,1.2-0.4l3.8-4.3c0.5-0.6,0.5-1.5,0-2L26.3,37.2z"/>
		<path class="st0" d="M20.5,36.9c-0.8-0.2-1.7,0.2-2,0.9l-3.2,8.6c-0.2,0.5-0.1,1,0.3,1.4c0.4,0.4,1,0.6,1.5,0.5
			c0.6-0.1,1-0.5,1.2-0.9l3.2-8.6c0.1-0.4,0.1-0.8-0.1-1.1C21.2,37.2,20.9,37,20.5,36.9L20.5,36.9z"/>
		<path class="st1" d="M12,67.4c-0.5-0.6-1.3-0.6-1.8,0l-3.8,4.3c-0.5,0.6-0.5,1.5,0,2l3.8,4.3c0.5,0.5,1.3,0.5,1.8,0
			c0.5-0.6,0.5-1.4,0-2l-2.9-3.3l2.9-3.3C12.5,68.9,12.5,68,12,67.4z"/>
		<path class="st1" d="M26.3,67.6c-0.5-0.5-1.3-0.5-1.8,0c-0.5,0.6-0.5,1.4,0,2l2.9,3.3l-2.9,3.3c-0.3,0.4-0.5,0.9-0.3,1.4
			s0.5,0.9,0.9,1c0.4,0.1,0.9,0,1.2-0.4l3.8-4.3c0.5-0.6,0.5-1.5,0-2L26.3,67.6z"/>
		<path class="st0" d="M20.5,67.3c-0.8-0.2-1.7,0.2-2,0.9l-3.2,8.6c-0.3,0.7,0.2,1.6,1,1.8c0.8,0.2,1.7-0.2,2-0.9l3.2-8.6
			c0.1-0.4,0.1-0.8-0.1-1.1C21.2,67.7,20.9,67.4,20.5,67.3z"/>
	</g>
</g>
</svg>
