<?xml version="1.0" encoding="UTF-8"?>
<svg width="100px" height="100px" viewBox="0 0 100 100" version="1.1" xmlns="http://www.w3.org/2000/svg" xmlns:xlink="http://www.w3.org/1999/xlink">
    <!-- Generator: Sketch 57.1 (83088) - https://sketch.com -->
    <title>Scalable API Frameworks</title>
    <desc>Created with Sketch.</desc>
    <g id="Scalable-API-Frameworks" stroke="none" stroke-width="1" fill="none" fill-rule="evenodd">
        <g id="004-software-development" transform="translate(11.000000, 8.000000)" fill-rule="nonzero">
            <path d="M80.75,32.5833333 L72.25,32.5833333 C69.9027899,32.5833333 68,34.4861232 68,36.8333333 L68,41.0833333 L65.1666667,41.0833333 L65.1666667,24.0833333 C65.1666667,21.7361232 63.2638768,19.8333333 60.9166667,19.8333333 L53.8333333,19.8333333 L53.8333333,15.5833333 C53.8333333,13.2361231 51.9305435,11.3333333 49.5833333,11.3333333 L36.8333333,11.3333333 L36.8333333,4.25 C36.8333333,1.90278981 34.9305435,0 32.5833333,0 L4.25,0 C1.90278981,0 0,1.90278981 0,4.25 L0,21.25 C0,23.5972101 1.90278981,25.5 4.25,25.5 L32.5833333,25.5 C34.9305435,25.5 36.8333333,23.5972101 36.8333333,21.25 L36.8333333,14.1666667 L49.5833333,14.1666667 C50.3657367,14.1666667 51,14.80093 51,15.5833333 L51,19.8333333 L43.9166667,19.8333333 C41.5694566,19.8333333 39.6666667,21.7361232 39.6666667,24.0833333 L39.6666667,41.0833333 L36.8333333,41.0833333 L36.8333333,34 C36.8333333,31.6527899 34.9305435,29.75 32.5833333,29.75 L4.25,29.75 C1.90278981,29.75 0,31.6527899 0,34 L0,51 C0,53.3472101 1.90278981,55.25 4.25,55.25 L32.5833333,55.25 C34.9305435,55.25 36.8333333,53.3472101 36.8333333,51 L36.8333333,43.9166667 L39.6666667,43.9166667 L39.6666667,60.9166667 C39.6666667,63.2638768 41.5694566,65.1666667 43.9166667,65.1666667 L51,65.1666667 L51,69.4166667 C51,70.19907 50.3657367,70.8333333 49.5833333,70.8333333 L36.8333333,70.8333333 L36.8333333,63.75 C36.8333333,61.4027899 34.9305435,59.5 32.5833333,59.5 L4.25,59.5 C1.90278981,59.5 0,61.4027899 0,63.75 L0,80.75 C0,83.0972101 1.90278981,85 4.25,85 L32.5833333,85 C34.9305435,85 36.8333333,83.0972101 36.8333333,80.75 L36.8333333,73.6666667 L49.5833333,73.6666667 C51.9305435,73.6666667 53.8333333,71.7638768 53.8333333,69.4166667 L53.8333333,65.1666667 L60.9166667,65.1666667 C63.2638768,65.1666667 65.1666667,63.2638768 65.1666667,60.9166667 L65.1666667,43.9166667 L68,43.9166667 L68,48.1666667 C68,50.5138768 69.9027899,52.4166667 72.25,52.4166667 L80.75,52.4166667 C83.0972101,52.4166667 85,50.5138768 85,48.1666667 L85,36.8333333 C85,34.4861232 83.0972101,32.5833333 80.75,32.5833333 Z M34,21.25 C34,22.0324033 33.3657367,22.6666667 32.5833333,22.6666667 L4.25,22.6666667 C3.4675966,22.6666667 2.83333333,22.0324033 2.83333333,21.25 L2.83333333,4.25 C2.83333333,3.4675966 3.4675966,2.83333333 4.25,2.83333333 L32.5833333,2.83333333 C33.3657367,2.83333333 34,3.4675966 34,4.25 L34,21.25 Z M34,51 C34,51.7824033 33.3657367,52.4166667 32.5833333,52.4166667 L4.25,52.4166667 C3.4675966,52.4166667 2.83333333,51.7824033 2.83333333,51 L2.83333333,34 C2.83333333,33.2175967 3.4675966,32.5833333 4.25,32.5833333 L32.5833333,32.5833333 C33.3657367,32.5833333 34,33.2175967 34,34 L34,51 Z M34,80.75 C34,81.5324033 33.3657367,82.1666667 32.5833333,82.1666667 L4.25,82.1666667 C3.4675966,82.1666667 2.83333333,81.5324033 2.83333333,80.75 L2.83333333,63.75 C2.83333333,62.9675967 3.4675966,62.3333333 4.25,62.3333333 L32.5833333,62.3333333 C33.3657367,62.3333333 34,62.9675967 34,63.75 L34,80.75 Z M62.3333333,60.9166667 C62.3333333,61.69907 61.69907,62.3333333 60.9166667,62.3333333 L43.9166667,62.3333333 C43.1342633,62.3333333 42.5,61.69907 42.5,60.9166667 L42.5,24.0833333 C42.5,23.30093 43.1342633,22.6666667 43.9166667,22.6666667 L60.9166667,22.6666667 C61.69907,22.6666667 62.3333333,23.30093 62.3333333,24.0833333 L62.3333333,60.9166667 Z M82.1666667,48.1666667 C82.1666667,48.94907 81.5324033,49.5833333 80.75,49.5833333 L72.25,49.5833333 C71.4675967,49.5833333 70.8333333,48.94907 70.8333333,48.1666667 L70.8333333,36.8333333 C70.8333333,36.05093 71.4675967,35.4166667 72.25,35.4166667 L80.75,35.4166667 C81.5324033,35.4166667 82.1666667,36.05093 82.1666667,36.8333333 L82.1666667,48.1666667 Z" id="Shape" fill="#1E62BD"></path>
            <path d="M12.3150899,6.76181381 C11.8196374,6.20377351 11.0165087,6.20377351 10.5210561,6.76181381 L6.71476082,11.0502317 C6.21945784,11.6084405 6.21945784,12.5132971 6.71476082,13.071506 L10.5210561,17.3599239 C11.0188927,17.9016543 11.810229,17.8939068 12.2996346,17.3425109 C12.7890401,16.791115 12.7959166,15.8995445 12.3150899,15.3386496 L9.40581158,12.0608688 L12.3150899,8.7830881 C12.8103929,8.22487925 12.8103929,7.32002265 12.3150899,6.76181381 Z" id="Path" fill="#DC4556"></path>
            <path d="M26.2804301,8.01258213 C25.7838376,7.47169998 24.9944791,7.47943536 24.5062967,8.02996787 C24.0181142,8.5805004 24.011255,9.47067486 24.49088,10.0306915 L27.3928873,13.3033398 L24.49088,16.5759882 C24.1618804,16.9343303 24.0299346,17.4649809 24.145756,17.963984 C24.2615775,18.4629872 24.6071415,18.8526863 25.0496305,18.9833003 C25.4921194,19.1139143 25.9626716,18.9651165 26.2804301,18.5940975 L30.0772124,14.3123945 C30.5712775,13.7550597 30.5712775,12.8516199 30.0772124,12.2942852 L26.2804301,8.01258213 Z" id="Path" fill="#DC4556"></path>
            <path d="M20.4787055,7.68523675 C19.6488638,7.43678176 18.7523185,7.84038937 18.4751736,8.58718855 L15.3050283,17.1500221 C15.1260801,17.6343963 15.2477325,18.1679322 15.6241605,18.5496517 C16.0005883,18.9313713 16.5746034,19.1032823 17.1299795,19.0006276 C17.6853557,18.8979728 18.1377182,18.5363481 18.3166664,18.0519739 L21.4868117,9.48914035 C21.6190544,9.12956937 21.5871136,8.73741464 21.3980252,8.39906023 C21.2089369,8.06070583 20.8782129,7.80390888 20.4787055,7.68523675 L20.4787055,7.68523675 Z" id="Path" fill="#19B7AB"></path>
            <path d="M12.3150899,37.209575 C11.8196374,36.6515347 11.0165087,36.6515347 10.5210561,37.209575 L6.71476082,41.4979929 C6.21945784,42.0562018 6.21945784,42.9610582 6.71476082,43.5192672 L10.5210561,47.8076851 C11.0188927,48.3494154 11.810229,48.341668 12.2996346,47.7902721 C12.7890401,47.2388762 12.7959166,46.3473057 12.3150899,45.7864108 L9.40581158,42.50863 L12.3150899,39.2308493 C12.8103929,38.6726403 12.8103929,37.7677839 12.3150899,37.209575 Z" id="Path" fill="#DC4556"></path>
            <path d="M26.2804301,37.1916866 C25.7838376,36.6508045 24.9944791,36.6585398 24.5062967,37.2090723 C24.0181142,37.7596049 24.011255,38.6497793 24.49088,39.209796 L27.3928873,42.4824443 L24.49088,45.7550927 C24.1618804,46.1134348 24.0299346,46.6440854 24.145756,47.1430885 C24.2615775,47.6420917 24.6071415,48.0317907 25.0496305,48.1624048 C25.4921194,48.2930187 25.9626716,48.144221 26.2804301,47.773202 L30.0772124,43.491499 C30.5712775,42.9341641 30.5712775,42.0307245 30.0772124,41.4733896 L26.2804301,37.1916866 Z" id="Path" fill="#DC4556"></path>
            <path d="M20.4787055,36.8643412 C19.6488638,36.6158862 18.7523185,37.0194939 18.4751736,37.766293 L15.3050283,46.3291267 C15.1260801,46.8135009 15.2477325,47.3470367 15.6241605,47.7287562 C16.0005883,48.1104758 16.5746034,48.2823868 17.1299795,48.1797321 C17.6853557,48.0770774 18.1377182,47.7154527 18.3166664,47.2310785 L21.4868117,38.6682449 C21.6190544,38.3086739 21.5871136,37.9165191 21.3980252,37.5781647 C21.2089369,37.2398104 20.8782129,36.9830134 20.4787055,36.8643412 L20.4787055,36.8643412 Z" id="Path" fill="#19B7AB"></path>
            <path d="M12.3150899,66.3886794 C11.8196374,65.8306392 11.0165087,65.8306392 10.5210561,66.3886794 L6.71476082,70.6770973 C6.21945784,71.2353063 6.21945784,72.1401627 6.71476082,72.6983716 L10.5210561,76.9867895 C11.0188927,77.5285199 11.810229,77.5207725 12.2996346,76.9693766 C12.7890401,76.4179806 12.7959166,75.5264101 12.3150899,74.9655152 L9.40581158,71.6877345 L12.3150899,68.4099537 C12.8103929,67.8517448 12.8103929,66.9468884 12.3150899,66.3886794 Z" id="Path" fill="#DC4556"></path>
            <path d="M26.2804301,67.6394478 C25.7838376,67.0985657 24.9944791,67.106301 24.5062967,67.6568335 C24.0181142,68.2073661 24.011255,69.0975405 24.49088,69.6575572 L27.3928873,72.9302055 L24.49088,76.2028538 C24.1618804,76.561196 24.0299346,77.0918466 24.145756,77.5908497 C24.2615775,78.0898529 24.6071415,78.4795519 25.0496305,78.610166 C25.4921194,78.7407799 25.9626716,78.5919822 26.2804301,78.2209632 L30.0772124,73.9392602 C30.5712775,73.3819253 30.5712775,72.4784857 30.0772124,71.9211508 L26.2804301,67.6394478 Z" id="Path" fill="#DC4556"></path>
            <path d="M20.4787745,67.3121002 C19.6489855,67.0636528 18.7524971,67.467248 18.4753698,68.214024 L15.3054256,76.7765922 C15.0288131,77.5253467 15.4787098,78.3342346 16.3102979,78.583294 C17.141886,78.8323535 18.0402601,78.4272705 18.3168726,77.678516 L21.4868168,69.1159479 C21.6190511,68.7563881 21.5871124,68.3642454 21.398036,68.0259015 C21.2089596,67.6875576 20.8782566,67.4307687 20.4787745,67.3121002 Z" id="Path" fill="#19B7AB"></path>
        </g>
    </g>
</svg>