<?xml version="1.0" encoding="UTF-8"?>
<svg width="100px" height="100px" viewBox="0 0 100 100" version="1.1" xmlns="http://www.w3.org/2000/svg" xmlns:xlink="http://www.w3.org/1999/xlink">
    <!-- Generator: Sketch 57.1 (83088) - https://sketch.com -->
    <title>Continuous Cloud Deployment</title>
    <desc>Created with Sketch.</desc>
    <g id="Continuous-Cloud-Deployment" stroke="none" stroke-width="1" fill="none" fill-rule="evenodd">
        <g id="002-cloud" transform="translate(13.000000, 23.000000)" fill-rule="nonzero" stroke="#1E62BD" stroke-linejoin="round" stroke-width="2">
            <path d="M11.0182966,19.6161656 C8.77551872,11.5040631 13.1228771,2.90289124 21.1751218,-0.0180013652 C29.3096246,-2.96873246 38.2647278,0.950164726 41.6767408,8.7680061 C44.9039135,7.59432361 48.4916821,7.79889007 51.5810068,9.36626073 C54.6956173,10.9461455 56.990321,13.7509685 57.9330779,17.0810116 C58.6042052,16.9897924 59.2816929,16.9439773 59.9605925,16.9439773 C68.2661118,16.9439773 75,23.6721931 75,31.9719887 C75,40.2717843 68.2661119,47 59.9605925,47 L12.735521,46.9999987 C5.22681512,46.9879119 -0.885521668,40.9622276 -0.998434461,33.4596157 C-1.10409221,26.397669 4.14284872,20.4836673 11.0182966,19.6161656 Z" id="Path"></path>
        </g>
        <g id="Group" opacity="0.864002046" transform="translate(38.000000, 41.000000)" fill="#EE495C" fill-rule="nonzero">
            <path d="M10,0 C7.37311705,-0.00698045762 4.8524809,0.989544001 3,2.76746169 L6.3863109,6 C8.3824211,4.09559208 11.6175789,4.09559208 13.6136891,6 L17,2.76746169 C15.1475191,0.989544001 12.6268829,-0.00698045762 10,0 L10,0 Z" id="Path" opacity="0.576636905"></path>
            <path d="M9.960961,20 C5.93270455,20.0042333 2.29932122,17.5783195 0.757740427,13.8552458 C-0.783840367,10.132172 0.0705671936,5.84657776 2.921922,3 L6.32711836,6.40653375 C4.40012088,8.42740505 4.43771543,11.617495 6.41180181,13.5923567 C8.38588819,15.5672184 11.5747257,15.6048277 13.5948036,13.6770734 L17,17.0836072 C15.1348728,18.9537645 12.6016865,20.0033036 9.960961,20 L9.960961,20 Z" id="Path"></path>
        </g>
        <path d="" id="Path-3" stroke="#979797"></path>
        <path d="" id="Path-4" stroke="#979797"></path>
        <path d="" id="Path-5" stroke="#979797"></path>
    </g>
</svg>