<?xml version="1.0" encoding="utf-8"?>
<!-- Generator: Adobe Illustrator 23.1.1, SVG Export Plug-In . SVG Version: 6.00 Build 0)  -->
<svg version="1.1" id="Layer_1" xmlns="http://www.w3.org/2000/svg" xmlns:xlink="http://www.w3.org/1999/xlink" x="0px" y="0px"
	 viewBox="0 0 100 100" style="enable-background:new 0 0 100 100;" xml:space="preserve">
<style type="text/css">
	.st0{fill:none;stroke:#000000;stroke-width:3;stroke-linejoin:round;}
	.st1{opacity:0.864;}
	.st2{opacity:0.5766;fill:#EE495C;enable-background:new    ;}
	.st3{fill:#EE495C;}
</style>
<title>Continuous Cloud Deployment</title>
<desc>Created with Sketch.</desc>
<g id="Continuous-Cloud-Deployment">
	<g transform="translate(13.000000, 23.000000)">
		<path id="Path" class="st0" d="M11,19.6C8.8,11.5,13.1,2.9,21.2,0c8.1-3,17.1,1,20.5,8.8c3.2-1.2,6.8-1,9.9,0.6s5.4,4.4,6.4,7.7
			c0.7-0.1,1.3-0.1,2-0.1c8.3,0,15,6.7,15,15s-6.7,15-15,15H12.7C5.2,47-0.9,41-1,33.5C-1.1,26.4,4.1,20.5,11,19.6z"/>
	</g>
	<g id="Group" transform="translate(38.000000, 41.000000)" class="st1">
		<path class="st2" d="M10,0C7.4,0,4.9,1,3,2.8L6.4,6c2-1.9,5.2-1.9,7.2,0L17,2.8C15.1,1,12.6,0,10,0L10,0z"/>
		<path class="st3" d="M10,20c-4,0-7.7-2.4-9.2-6.1S0.1,5.8,2.9,3l3.4,3.4c-1.9,2-1.9,5.2,0.1,7.2s5.2,2,7.2,0.1l3.4,3.4
			C15.1,19,12.6,20,10,20L10,20z"/>
	</g>
	<path id="Path-3" class="st3" d="M0,0"/>
	<path id="Path-4" class="st3" d="M0,0"/>
	<path id="Path-5" class="st3" d="M0,0"/>
</g>
<circle cx="33.1" cy="42.6" r="1.5"/>
<circle cx="25.4" cy="40.2" r="1.5"/>
<circle cx="37.1" cy="34.9" r="1.5"/>
<circle cx="30.9" cy="35.7" r="1.5"/>
<circle cx="30.1" cy="29.3" r="1.5"/>
<circle cx="35.9" cy="28" r="1.5"/>
<circle cx="47.6" cy="31.2" r="1.5"/>
<circle cx="39.1" cy="23.5" r="1.5"/>
<circle cx="45.3" cy="25" r="1.5"/>
<circle cx="52.3" cy="34.9" r="1.5"/>
<circle cx="42.5" cy="32.7" r="1.5"/>
<circle cx="32.4" cy="51.5" r="1.5"/>
<circle cx="27.9" cy="47" r="1.5"/>
<circle cx="20.8" cy="46" r="1.5"/>
<circle cx="20.3" cy="51.5" r="1.5"/>
<circle cx="20.3" cy="57" r="1.5"/>
<circle cx="23.3" cy="61.7" r="1.5"/>
<circle cx="26.4" cy="54.9" r="1.5"/>
<circle cx="31.6" cy="57.2" r="1.5"/>
<circle cx="14.3" cy="56" r="1.5"/>
<circle cx="21.5" cy="67.4" r="1.5"/>
<circle cx="29.4" cy="63.4" r="1.5"/>
<circle cx="29.4" cy="69.3" r="1.5"/>
<circle cx="35.6" cy="63.4" r="1.5"/>
<circle cx="43.5" cy="65.9" r="1.5"/>
<circle cx="50.1" cy="65.9" r="1.5"/>
<circle cx="58.2" cy="65.9" r="1.5"/>
<circle cx="59.2" cy="60.2" r="1.5"/>
<circle cx="66.7" cy="37.2" r="1.5"/>
<circle cx="56.6" cy="37.9" r="1.5"/>
<circle cx="59.2" cy="32.7" r="1.5"/>
<circle cx="64.4" cy="48.5" r="1.5"/>
<circle cx="62.4" cy="42.1" r="1.5"/>
<circle cx="70.2" cy="44" r="1.5"/>
<circle cx="64.4" cy="56.4" r="1.5"/>
<circle cx="62.9" cy="68.1" r="1.5"/>
<circle cx="65.9" cy="62.2" r="1.5"/>
<circle cx="70.2" cy="65.9" r="1.5"/>
<circle cx="69.7" cy="54.3" r="1.5"/>
<circle cx="73.2" cy="48.5" r="1.5"/>
<circle cx="76.2" cy="43.1" r="1.5"/>
<circle cx="76.8" cy="54" r="1.5"/>
<circle cx="72.7" cy="60.2" r="1.5"/>
<circle cx="75.3" cy="68.9" r="1.5"/>
<circle cx="78.3" cy="59.2" r="1.5"/>
<circle cx="80.3" cy="64.4" r="1.5"/>
<circle cx="83.3" cy="58.7" r="1.5"/>
<circle cx="81.3" cy="50" r="1.5"/>
</svg>
