<?xml version="1.0" encoding="UTF-8"?>
<svg width="100px" height="100px" viewBox="0 0 100 100" version="1.1" xmlns="http://www.w3.org/2000/svg" xmlns:xlink="http://www.w3.org/1999/xlink">
    <!-- Generator: Sketch 57.1 (83088) - https://sketch.com -->
    <title>Reusable Component Library</title>
    <desc>Created with Sketch.</desc>
    <g id="Reusable-Component-Library" stroke="none" stroke-width="1" fill="none" fill-rule="evenodd">
        <g id="002-layers" transform="translate(7.000000, 8.000000)" fill="#000000" fill-rule="nonzero">
            <circle id="Oval" cx="69.5" cy="40.5" r="1.5"></circle>
            <circle id="Oval" cx="13.5" cy="40.5" r="1.5"></circle>
            <circle id="Oval" cx="18.5" cy="44.5" r="1.5"></circle>
            <circle id="Oval" cx="27.5" cy="44.5" r="1.5"></circle>
            <circle id="Oval" cx="23.5" cy="49.5" r="1.5"></circle>
            <circle id="Oval" cx="32.5" cy="49.5" r="1.5"></circle>
            <circle id="Oval" cx="37.5" cy="54.5" r="1.5"></circle>
            <circle id="Oval" cx="46.5" cy="54.5" r="1.5"></circle>
            <circle id="Oval" cx="51.5" cy="49.5" r="1.5"></circle>
            <circle id="Oval" cx="41.5" cy="58.5" r="1.5"></circle>
            <circle id="Oval" cx="55.5" cy="44.5" r="1.5"></circle>
            <circle id="Oval" cx="64.5" cy="44.5" r="1.5"></circle>
            <circle id="Oval" cx="60.5" cy="49.5" r="1.5"></circle>
            <path d="M70.4683008,50.1836926 L84.9984533,41.9269244 L70.0630527,33.4916981 L84.9984533,25.004165 L42.5,1 L0,25.004165 L14.9354005,33.4916981 L0,41.9269244 L14.9354005,50.4144575 L0,58.8496839 L42.5,83 L85,58.8496839 L70.0645995,50.4144575 L70.1744186,50.3513818 C70.282691,50.3113825 70.3724024,50.2467684 70.4683008,50.1836926 Z M42.5,4.53685672 L78.7495906,25.0118572 L66.9370746,31.7255774 L66.9370746,31.7255774 L42.5015467,45.6114707 L6.25040943,25.0118572 L42.5,4.53685672 Z M17.2137606,35.7424251 C17.4643338,36.2547232 17.9824944,36.6147164 18.59346,36.6147164 C19.011082,36.6147164 19.3853951,36.4470273 19.6638097,36.17934 L23.1625541,38.166995 C22.3427776,38.2054558 21.6869564,38.8669819 21.6869564,39.6915818 C21.6869564,40.5407966 22.3798996,41.2300144 23.2337046,41.2300144 C24.0875096,41.2300144 24.7804527,40.5407966 24.7804527,39.6915818 C24.7804527,39.4254329 24.6953816,39.1885143 24.576282,38.9700568 L40.5541908,48.0498865 C40.374768,48.300651 40.2479346,48.5914148 40.2479346,48.9221778 C40.2479346,49.7713927 40.9408778,50.4606105 41.7946828,50.4606105 C42.6484878,50.4606105 43.341431,49.7713927 43.341431,48.9221778 C43.341431,48.8437178 43.3089493,48.7775651 43.2965753,48.7021819 L58.8444881,39.8669631 C58.9357463,40.6300257 59.563726,41.228476 60.3556611,41.228476 C61.2094661,41.228476 61.9024093,40.5392582 61.9024093,39.6900433 C61.9024093,39.1900527 61.6471958,38.7654453 61.2744295,38.4854506 L64.680369,36.5501022 C64.7855479,36.5731787 64.8845398,36.613178 64.9959057,36.613178 C65.6826619,36.613178 66.2441315,36.1608788 66.4467555,35.5455057 L66.9417149,35.2639725 L78.7495906,41.9330782 L75.6823889,43.6761224 C75.4395494,43.1422863 74.9043746,42.7669087 74.2779416,42.7669087 C73.4241366,42.7669087 72.7311934,43.4561265 72.7311934,44.3053414 C72.7311934,44.6376428 72.8595735,44.9284066 73.0389963,45.1791711 L66.9370746,48.6467984 L66.9370746,48.6467984 L57.0564472,54.2620776 C57.1770936,54.0436202 57.2637115,53.8036247 57.2637115,53.5359374 C57.2637115,52.6867226 56.5707683,51.9975047 55.7169633,51.9975047 C54.8631583,51.9975047 54.1702151,52.6867226 54.1702151,53.5359374 C54.1702151,54.3620758 54.8291298,55.0236018 55.6504531,55.0605242 L52.150162,57.0497176 C51.8717473,56.7820304 51.4958875,56.6128028 51.0767187,56.6128028 C50.2229137,56.6128028 49.5299705,57.3020206 49.5299705,58.1512354 C49.5299705,58.2743101 49.5732795,58.3835388 49.6011209,58.4989212 L42.5015467,62.5326917 L33.968137,57.6835519 C33.7670597,57.0666404 33.2040434,56.6128028 32.5157404,56.6128028 C32.4028278,56.6128028 32.3022892,56.6543404 32.1971103,56.6774169 L28.7927175,54.7436071 C29.1654839,54.4620739 29.4222441,54.0390049 29.4222441,53.5374758 C29.4222441,52.688261 28.7293009,51.9990432 27.8754959,51.9990432 C27.0835608,51.9990432 26.4540343,52.6005703 26.3643229,53.363633 L10.8133166,44.5284141 C10.8241438,44.4530309 10.8581723,44.3853399 10.8581723,44.3068798 C10.8581723,43.457665 10.1652291,42.7684471 9.3114241,42.7684471 C8.94175128,42.7684471 8.61693416,42.9145982 8.35089347,43.1299788 L6.24886269,41.936155 L17.2137606,35.7424251 Z M78.7480438,58.857376 L42.4984533,79.4569895 L6.25040943,58.857376 L18.0567384,52.1882704 L42.5,66.0772406 L66.9417149,52.1882704 L78.7480438,58.857376 Z" id="Shape"></path>
        </g>
        <polygon id="Path-2" fill="#19B7AB" points="49.4992266 12.5368567 12.9111328 33.0741637 49.5 54 86.1789551 33.0741637"></polygon>
        <polygon id="Path-6" fill="#FFB226" points="24.8881398 60 13 66.603385 49.4992213 87.4569895 86 66.603385 74.1118602 60 49.4992213 73.7521016"></polygon>
    </g>
</svg>