<?xml version="1.0" encoding="UTF-8"?>
<svg width="100px" height="100px" viewBox="0 0 100 100" version="1.1" xmlns="http://www.w3.org/2000/svg" xmlns:xlink="http://www.w3.org/1999/xlink">
    <!-- Generator: Sketch 57.1 (83088) - https://sketch.com -->
    <title>Embeddable Interactive Visualizations</title>
    <desc>Created with Sketch.</desc>
    <g id="Embeddable-Interactive-Visualizations" stroke="none" stroke-width="1" fill="none" fill-rule="evenodd">
        <g id="009-touch" transform="translate(20.000000, 8.000000)" fill-rule="nonzero">
            <path d="M55,29.500328 C55,44.687781 43.1354979,57 28.499684,57 C13.8645021,57 2,44.687781 2,29.500328 C2,14.312219 13.8645021,2 28.499684,2 C43.1354979,2 55,14.312219 55,29.500328 Z" id="Path" fill="#FFFFFF"></path>
            <path d="M44,30.0003181 C44,38.2841422 37.2841423,45 28.999682,45 C20.7158577,45 14,38.2841422 14,30.0003181 C14,21.7158578 20.7158577,15 28.999682,15 C37.2841423,15 44,21.7158578 44,30.0003181 Z" id="Path" fill="#19B7AB"></path>
            <path d="M35,30.0003272 C35,33.3135599 32.3135597,36 28.9996729,36 C25.6864403,36 23,33.3135599 23,30.0003272 C23,26.6864401 25.6864403,24 28.9996729,24 C32.3135597,24 35,26.6864401 35,30.0003272 Z" id="Path" fill="#FFFFFF"></path>
            <path d="M51,7.5 C51,9.98529014 48.9848031,12 46.4996863,12 C44.0145696,12 42,9.98529014 42,7.5 C42,5.01471002 44.0145696,3 46.4996863,3 C48.9848031,3 51,5.01471002 51,7.5 L51,7.5 Z" id="Path" fill="#DC4556"></path>
            <path d="M16,49.5 C16,51.9852901 13.9852901,54 11.5,54 C9.01471002,54 7,51.9852901 7,49.5 C7,47.01471 9.01471002,45 11.5,45 C13.9852901,45 16,47.01471 16,49.5 Z" id="Path" fill="#FFB226"></path>
            <path d="M53.7859167,59.7957482 C51.45866,59.7957482 49.5718332,61.7984838 49.5718332,64.2687052 L49.5718332,60.7110716 C49.5718332,58.2408504 47.6850064,56.2381146 45.3577498,56.2381146 C43.0298549,56.2381146 41.1430281,58.2408504 41.1430281,60.7110716 C41.1430281,58.2408504 39.2562013,56.2381146 36.9289446,56.2381146 C34.601688,56.2381146 32.7148612,58.2408504 32.7148612,60.7110716 L32.7148612,36.4729568 C32.7148612,34.0027356 30.8280344,32 28.5001395,32 C26.1728829,32 24.2860561,34.0027356 24.2860561,36.4729568 L24.2860561,76.291894 L19.2013259,67.4360897 C17.9508883,65.2592326 15.2923518,64.5390339 13.212119,65.8134403 C11.2059293,67.0431309 10.4335813,69.7071214 11.4408252,71.9219195 L17.5398204,85 L58,85 L58,64.2687052 C58,61.7984838 56.1131732,59.7957482 53.7859167,59.7957482 L53.7859167,59.7957482 Z" id="Path" fill="#DFDFDF"></path>
            <path d="M15.1717365,54.130404 C17.6398753,51.6417626 17.6398753,47.5917364 15.1717365,45.1030949 C13.9757135,43.8977923 12.3862192,43.2334988 10.6952677,43.2334988 C9.71776786,43.2334988 8.77473718,43.4564601 7.9221074,43.8768077 C4.91546581,39.5395549 3.33182472,34.4639067 3.33182472,29.1252954 C3.33182472,15.4623587 13.9171807,4.14379438 27.4298336,3.35687218 C28.3488006,3.30309908 29.0498952,2.50896338 28.9972154,1.58301843 C28.9438855,0.656417413 28.1562923,-0.0485335987 27.2379756,0.00261626039 C11.9641317,0.892494073 0,13.6845702 0,29.1252954 C0,35.2855846 1.86720064,41.137007 5.40714229,46.1070765 C3.78968234,48.5832584 4.06023457,51.9539083 6.21879897,54.130404 C7.41482197,55.3357066 9.00431631,56 10.6952677,56 C12.3862192,56 13.9757135,55.3357066 15.1717365,54.130404 Z M8.57442447,47.478944 C9.15910349,46.8894083 9.92718561,46.5943124 10.6952677,46.5943124 C11.4626995,46.5943124 12.2307818,46.8894083 12.8154607,47.478944 C13.9848187,48.6573601 13.9848187,50.5761387 12.8154607,51.7545546 C11.6461028,52.9336265 9.7437825,52.9336265 8.57442447,51.7545546 C7.40571693,50.5761387 7.40571693,48.6580159 8.57442447,47.478944 Z" id="Shape" fill="#000000"></path>
            <path d="M54.0646641,57.4766671 C53.0160708,57.4766671 52.0303025,57.7510875 51.1747177,58.2322988 C50.4162848,55.8177888 48.1649507,54.062018 45.5127026,54.062018 C43.8345648,54.062018 42.3170514,54.7649766 41.2367218,55.8925717 C40.9368463,55.5804347 40.6032913,55.3014621 40.2425338,55.0602063 C44.0664341,53.3415017 47.5075558,50.788481 50.2919303,47.5546112 C54.8088479,42.3068075 57.2965853,35.5919595 57.2965853,28.647561 C57.2965853,22.5420305 55.4370971,16.7362818 51.9124248,11.8071178 C53.523204,9.35163986 53.2537693,6.00982274 51.103473,3.85087495 C48.6455288,1.38304168 44.6461073,1.38304168 42.1875155,3.85087495 C39.7295715,6.31870839 39.7295715,10.3348715 42.1875155,12.8027049 C43.4168115,14.0369467 45.030829,14.6540677 46.6454942,14.6540677 C47.5917541,14.6540677 48.5367187,14.4401239 49.405257,14.0161376 C52.4007751,18.3184263 53.9785228,23.3555377 53.9785228,28.647561 C53.9785228,40.6973509 45.831361,50.8827724 34.3434678,53.5658502 L34.3434678,44.599714 C40.9225973,42.1611435 45.4174937,35.7759904 45.4174937,28.647561 C45.4174937,19.2736958 37.8215073,11.6471477 28.4845582,11.6471477 C19.1482567,11.6471477 11.5522703,19.2730455 11.5522703,28.647561 C11.5522703,32.3470351 12.7161505,35.8650794 14.9169659,38.8199766 C16.8366882,41.397058 19.4928222,43.3986367 22.472796,44.5405381 L22.472796,69.0426446 L20.3885631,65.6097877 C18.6372375,62.7231704 14.9810862,61.7867593 12.0658803,63.4762009 C9.29316383,65.0837066 8.21153898,68.610855 9.61117456,71.5202323 L15.7997532,84.072693 C16.0892659,84.6599007 16.6773591,85 17.2881208,85 C17.5355345,85 17.7861866,84.9447258 18.0225896,84.8270241 C18.8438473,84.4186447 19.1799931,83.419156 18.7738979,82.5952444 L12.591796,70.0570899 C11.9512409,68.724655 12.4486589,67.1015425 13.7252354,66.3615175 C15.0445587,65.5967818 16.7628526,66.0370252 17.5556125,67.3434487 L22.7150283,75.8433302 C23.1023408,76.48061 23.8646596,76.781692 24.5803455,76.5801036 C25.2960315,76.3785152 25.7908587,75.7230274 25.7908587,74.9758493 L25.7908587,36.7572711 C25.7908587,35.3084351 26.9651017,34.1301178 28.4081321,34.1301178 C29.8511621,34.1301178 31.0254053,35.3084351 31.0254053,36.7572711 L31.0254053,43.3459636 C31.0247577,43.3576688 31.0254053,43.3693739 31.0254053,43.3817293 L31.0254053,68.3930095 C31.0254053,69.3131633 31.767646,70.0583906 32.6841127,70.0583906 C33.6005794,70.0583906 34.3434678,69.3131633 34.3434678,68.3930095 L34.3434678,60.0212342 C34.3434678,58.5723981 35.5170634,57.3934306 36.9600934,57.3934306 C38.4031237,57.3934306 39.5773668,58.5723981 39.5773668,60.0212342 L39.5773668,68.9990754 C39.5773668,69.9192294 40.3202553,70.6651069 41.2360742,70.6651069 C42.1525409,70.6651069 42.8954294,69.9192294 42.8954294,68.9990754 L42.8954294,60.0212342 C42.8954294,58.5723981 44.0696725,57.3934306 45.5127026,57.3934306 C46.9557328,57.3934306 48.1293282,58.5723981 48.1293282,60.0212342 L48.1293282,69.1115749 C48.1293282,70.0317289 48.8722166,70.7776062 49.7886833,70.7776062 C50.70515,70.7776062 51.4473907,70.0317289 51.4473907,69.1115749 L51.4473907,63.4358833 C51.4473907,61.9870472 52.621634,60.8080797 54.0646641,60.8080797 C55.5076943,60.8080797 56.6819374,61.9870472 56.6819374,63.4358833 L56.6819374,83.3333183 C56.6819374,84.2534723 57.4241783,85 58.3406448,85 C59.2571115,85 60,84.2534723 60,83.3333183 L60,63.4358833 C60,60.1499906 57.3373891,57.4766671 54.0646641,57.4766671 L54.0646641,57.4766671 Z M44.5340587,10.4473709 C43.3695307,9.27815765 43.3695307,7.37607266 44.5340587,6.20685929 C45.1163227,5.62225276 45.8805847,5.33027446 46.6454942,5.33027446 C47.4104038,5.33027446 48.1753135,5.62225276 48.7575774,6.20685929 C49.9214577,7.37607266 49.9214577,9.27815765 48.7575774,10.4473709 C47.5930495,11.615934 45.6979389,11.615934 44.5340587,10.4473709 Z M14.8703329,28.647561 C14.8703329,21.110102 20.9779517,14.9779098 28.4852058,14.9779098 C35.9918125,14.9779098 42.0994311,21.110102 42.0994311,28.647561 C42.0994311,33.955191 39.0015795,38.7510465 34.3434678,40.9886788 L34.3434678,36.7572711 C34.3434678,35.8221607 34.1271429,34.9364718 33.7424211,34.1476755 C35.2139492,32.7235502 36.0837829,30.7382287 36.0837829,28.647561 C36.0837829,24.4402139 32.6750451,21.0177614 28.4852058,21.0177614 C24.2947189,21.0177614 20.8859811,24.4402139 20.8859811,28.647561 C20.8859811,30.677102 21.7091819,32.6273081 23.1243618,34.0488321 C22.7091992,34.8616889 22.472796,35.7824931 22.472796,36.7572711 L22.472796,40.9184479 C17.8528975,38.6515528 14.8703329,33.950639 14.8703329,28.647561 Z M25.3977173,31.6245679 C24.6328075,30.8299189 24.2040437,29.7771069 24.2040437,28.647561 C24.2040437,26.2772703 26.1244137,24.3491739 28.4845582,24.3491739 C30.8453503,24.3491739 32.7657204,26.2772703 32.7657204,28.647561 C32.7657204,29.7933639 32.3019817,30.8845431 31.513108,31.681793 C30.6089473,31.1218972 29.5454573,30.7987052 28.4081321,30.7987052 C27.3096675,30.7987052 26.2811521,31.1004377 25.3977173,31.6245679 Z" id="Shape" fill="#000000"></path>
            <path d="M33.4997073,3 C33.8943978,3 34.2814757,2.83954707 34.5602187,2.56021859 C34.8395472,2.28147567 35,1.89439783 35,1.49970715 C35,1.10560217 34.8395472,0.718524331 34.5602187,0.439195853 C34.2814757,0.160452933 33.8943978,0 33.4997073,0 C33.1056022,0 32.7185243,0.160452933 32.4397814,0.439195853 C32.1604529,0.718524331 32,1.10560217 32,1.49970715 C32,1.89439783 32.1604529,2.28147567 32.4397814,2.56021859 C32.7185243,2.83954707 33.1056022,3 33.4997073,3 Z" id="Path" fill="#000000"></path>
        </g>
    </g>
</svg>