<?xml version="1.0" encoding="UTF-8"?>
<svg width="100px" height="100px" viewBox="0 0 100 100" version="1.1" xmlns="http://www.w3.org/2000/svg" xmlns:xlink="http://www.w3.org/1999/xlink">
    <!-- Generator: Sketch 57.1 (83088) - https://sketch.com -->
    <title>Rigorous Ethical Standards</title>
    <desc>Created with Sketch.</desc>
    <g id="Rigorous-Ethical-Standards" stroke="none" stroke-width="1" fill="none" fill-rule="evenodd">
        <g id="005-feedback" transform="translate(13.000000, 8.000000)" fill-rule="nonzero">
            <path d="M23.772193,63.8563668 C24.1627009,64.0310132 24.5878761,64.1219177 25.0183772,64.122807 C25.7186462,64.1210068 26.3951993,63.8780913 26.9260088,63.4378744 L34.1310088,57.4827269 C34.3940111,57.2668896 34.7278191,57.1477873 35.0732456,57.146538 L55.3508772,57.146538 C58.5483152,57.146538 61.1403509,54.648332 61.1403509,51.5666388 L61.1403509,26.4570922 C61.1403509,23.375399 58.5483152,20.877193 55.3508772,20.877193 L17.7192982,20.877193 C14.5218602,20.877193 11.9298246,23.375399 11.9298246,26.4570922 L11.9298246,51.5666388 C11.9298246,54.648332 14.5218602,57.146538 17.7192982,57.146538 L22.0614035,57.146538 L22.0614035,61.2756634 C22.0530751,62.3859698 22.7233434,63.3970606 23.772193,63.8563668 L23.772193,63.8563668 Z M17.7192982,54.3565884 C16.1205792,54.3565884 14.8245614,53.1074854 14.8245614,51.5666388 L14.8245614,26.4570922 C14.8245614,24.9162456 16.1205792,23.6671426 17.7192982,23.6671426 L55.3508772,23.6671426 C56.9495962,23.6671426 58.245614,24.9162456 58.245614,26.4570922 L58.245614,51.5666388 C58.245614,53.1074854 56.9495962,54.3565884 55.3508772,54.3565884 L35.0732456,54.3565884 C34.0362827,54.3566789 33.03359,54.7144385 32.2465351,55.3651552 L24.9561404,61.2770584 L24.9561404,57.146538 C24.9561404,55.6056914 23.6601225,54.3565884 22.0614035,54.3565884 L17.7192982,54.3565884 Z" id="Shape" fill="#19B7AB"></path>
            <path d="M26.7173241,9.47581763 L34.0056397,13.8119364 C34.9010232,14.3455661 36.0197149,14.3618878 36.9308033,13.8546147 C37.8245982,13.3744394 38.3796848,12.4519428 38.3774717,11.4504019 L38.3774717,8.56961433 C54.2514727,9.21704384 67.6534132,20.3774671 70.9178988,35.6675511 C74.1823846,50.9576351 66.4764618,66.4760215 52.207622,73.3467902 C51.4885465,73.6924922 51.1906066,74.5459713 51.5421545,75.2530891 C51.8937026,75.9602068 52.7616146,76.2531923 53.4806903,75.9074902 C68.9631512,68.4553795 77.3128767,51.6077977 73.7424763,35.024458 C70.172076,18.4411185 55.59545,6.36678754 38.3702384,5.72439204 L38.3702384,2.77816436 C38.3723689,1.77517532 37.8176011,0.851026449 36.92357,0.368261081 C36.0100399,-0.138083939 34.8899685,-0.121230634 33.9926197,0.412362026 L26.7173241,4.74136774 C25.8698657,5.23890936 25.3508772,6.13800215 25.3508772,7.10859268 C25.3508772,8.07918322 25.8698657,8.97827601 26.7173241,9.47581763 Z M35.4769015,2.85640797 L35.4899215,7.0474204 C35.4899215,7.07018218 35.4769015,7.08867613 35.4769015,7.11143791 C35.4769015,7.13419968 35.4899215,7.15411624 35.4899215,7.17830063 L35.5043882,11.3792713 L28.2146259,7.17687802 L35.4769015,2.85640797 Z" id="Shape" fill="#EE495C"></path>
            <path d="M22.300638,32.8070175 L50.7695375,32.8070175 C51.5556844,32.8070175 52.1929825,32.1393719 52.1929825,31.3157895 C52.1929825,30.492207 51.5556844,29.8245614 50.7695375,29.8245614 L22.300638,29.8245614 C21.5144911,29.8245614 20.877193,30.492207 20.877193,31.3157895 C20.877193,32.1393719 21.5144911,32.8070175 22.300638,32.8070175 Z" id="Path" fill="#000000"></path>
            <path d="M22.300638,40.2631579 L50.7695375,40.2631579 C51.5556844,40.2631579 52.1929825,39.5955123 52.1929825,38.7719298 C52.1929825,37.9483474 51.5556844,37.2807018 50.7695375,37.2807018 L22.300638,37.2807018 C21.5144911,37.2807018 20.877193,37.9483474 20.877193,38.7719298 C20.877193,39.5955123 21.5144911,40.2631579 22.300638,40.2631579 Z" id="Path" fill="#000000"></path>
            <path d="M38.8866397,46.2280702 C39.6468696,46.2280702 40.2631579,45.5604246 40.2631579,44.7368421 C40.2631579,43.9132597 39.6468696,43.245614 38.8866397,43.245614 L23.7449393,43.245614 C22.9847093,43.245614 22.3684211,43.9132597 22.3684211,44.7368421 C22.3684211,45.5604246 22.9847093,46.2280702 23.7449393,46.2280702 L38.8866397,46.2280702 Z" id="Path" fill="#000000"></path>
            <path d="M36.183101,79.2745043 L36.183101,82.2264492 C36.1808878,83.2279991 36.7359959,84.1505041 37.6298252,84.6306838 C38.5409486,85.1379615 39.6596834,85.1216396 40.5551014,84.588005 L47.8436975,80.2504244 C48.6912996,79.7536303 49.2105263,78.8549085 49.2105263,77.8846006 C49.2105263,76.9142928 48.6912996,76.015571 47.8436975,75.5187769 L40.5637817,71.1883093 C39.6652407,70.6546476 38.5440258,70.638338 37.6298252,71.1456306 C36.7353083,71.6272348 36.1802419,72.5513079 36.183101,73.5541331 L36.183101,76.4292562 C20.3096125,75.7806393 6.90863561,64.6205089 3.64417605,49.3313329 C0.379716481,34.0421569 8.08460293,18.5245087 22.3524183,11.6529164 C22.8175966,11.4292844 23.1261116,10.9786043 23.1617489,10.470643 C23.1973861,9.96268176 22.9547314,9.47461067 22.5251903,9.19028142 C22.0956493,8.90595217 21.5444793,8.86856114 21.0793011,9.09219317 C5.59873973,16.5444107 -2.75027866,33.3894885 0.818231991,49.971165 C4.38674264,66.5528416 18.9596134,78.627926 36.183101,79.2745043 Z M39.0591886,73.6195738 L46.3391044,77.8163147 L39.0765493,82.2264492 L39.0649755,77.9457735 C39.0649755,77.9258567 39.0765493,77.9087852 39.0765493,77.8874459 C39.0765493,77.8661065 39.0649755,77.849035 39.0649755,77.8276957 L39.051955,73.6195738 L39.0591886,73.6195738 Z" id="Shape" fill="#DC4556"></path>
        </g>
    </g>
</svg>