<?xml version="1.0" encoding="utf-8"?>
<!-- Generator: Adobe Illustrator 23.1.1, SVG Export Plug-In . SVG Version: 6.00 Build 0)  -->
<svg version="1.1" id="Layer_1" xmlns="http://www.w3.org/2000/svg" xmlns:xlink="http://www.w3.org/1999/xlink" x="0px" y="0px"
	 viewBox="0 0 100 100" style="enable-background:new 0 0 100 100;" xml:space="preserve">
<style type="text/css">
	.st0{fill:#1E62BD;}
	.st1{fill:#DC4556;}
	.st2{fill:#19B7AB;}
	.st3{fill:#FFFFFF;}
	.st4{fill:#721D7C;stroke:#721D7C;stroke-width:0.5;stroke-miterlimit:10;}
</style>
<title>Rigorous Ethical Standards</title>
<desc>Created with Sketch.</desc>
<polygon class="st0" points="40.1,15.3 49.7,21.3 49.7,9.3 "/>
<polygon class="st1" points="50.9,91.6 60.9,86.2 50.5,80.3 "/>
<g id="Rigorous-Ethical-Standards">
	<g transform="translate(13.000000, 8.000000)">
		<path id="Shape" class="st2" d="M22,62.8c0.4,0.2,0.8,0.3,1.2,0.3c0.7,0,1.3-0.2,1.8-0.7l6.8-5.7c0.2-0.2,0.6-0.3,0.9-0.3H52
			c3,0,5.5-2.4,5.5-5.3V27.3c0-2.9-2.5-5.3-5.5-5.3H16.3c-3,0-5.5,2.4-5.5,5.3v23.9c0,2.9,2.5,5.3,5.5,5.3h4.1v3.9
			C20.4,61.4,21,62.4,22,62.8L22,62.8z M16.3,53.8c-1.5,0-2.7-1.2-2.7-2.7V27.3c0-1.5,1.2-2.7,2.7-2.7H52c1.5,0,2.8,1.2,2.8,2.7
			v23.9c0,1.5-1.2,2.7-2.8,2.7H32.8c-1,0-1.9,0.3-2.7,1l-6.9,5.6v-3.9c0-1.5-1.2-2.7-2.8-2.7H16.3z"/>
		<path d="M26.7,9.5l7.3,4.3c0.9,0.5,2,0.5,2.9,0c0.9-0.5,1.4-1.4,1.4-2.4V8.6c15.9,0.6,29.3,11.8,32.5,27.1s-4.4,30.8-18.7,37.7
			c-0.7,0.3-1,1.2-0.7,1.9c0.4,0.7,1.2,1,1.9,0.7C69,68.5,77.3,51.6,73.7,35C70.2,18.4,55.6,6.4,38.4,5.7V2.8c0-1-0.6-1.9-1.4-2.4
			c-0.9-0.5-2-0.5-2.9,0l-7.3,4.3c-0.8,0.5-1.4,1.4-1.4,2.4S25.9,9,26.7,9.5z M35.5,2.9l0,4.2c0,0,0,0,0,0.1s0,0,0,0.1l0,4.2
			l-7.3-4.2L35.5,2.9z"/>
		<path id="Path" d="M19.4,31h31.2c0.9,0,1.6-0.5,1.6-1.1s-0.7-1.1-1.6-1.1H19.4c-0.9,0-1.6,0.5-1.6,1.1S18.5,31,19.4,31z"/>
		<path d="M19,42.3h26c0.7,0,1.3-0.5,1.3-1.1S45.7,40,44.9,40H19c-0.7,0-1.3,0.5-1.3,1.1S18.3,42.3,19,42.3z"/>
		<path d="M19.1,36.5h28.3c0.8,0,1.4-0.5,1.4-1.1s-0.6-1.1-1.4-1.1H19.1c-0.8,0-1.4,0.5-1.4,1.1S18.3,36.5,19.1,36.5z"/>
		<path d="M32.8,47.9c0.7,0,1.3-0.5,1.3-1.1s-0.6-1.1-1.3-1.1H18.9c-0.7,0-1.3,0.5-1.3,1.1s0.6,1.1,1.3,1.1H32.8z"/>
		<path d="M36.2,79.3v3c0,1,0.6,1.9,1.4,2.4c0.9,0.5,2,0.5,2.9,0l7.3-4.3c0.8-0.5,1.4-1.4,1.4-2.4c0-1-0.5-1.9-1.4-2.4l-7.3-4.3
			c-0.9-0.5-2-0.5-2.9,0c-0.9,0.5-1.4,1.4-1.4,2.4v2.9C20.3,75.8,6.9,64.6,3.6,49.3s4.4-30.8,18.7-37.7c0.5-0.2,0.8-0.7,0.8-1.2
			s-0.2-1-0.6-1.3c-0.4-0.3-1-0.3-1.4-0.1C5.6,16.5-2.8,33.4,0.8,50S19,78.6,36.2,79.3z M39.1,73.6l7.3,4.2l-7.3,4.4l0-4.3
			c0,0,0,0,0-0.1s0,0,0-0.1L39.1,73.6L39.1,73.6z"/>
	</g>
</g>
<rect x="46.7" y="43.5" class="st3" width="32.6" height="22.9"/>
<path id="Shape_1_" class="st4" d="M71.4,72c-0.3,0.1-0.6,0.2-0.9,0.2c-0.5,0-1-0.2-1.3-0.5l-5-4.1c-0.2-0.1-0.4-0.2-0.7-0.2h-14
	c-2.2,0-4-1.7-4-3.9V46.2c0-2.1,1.8-3.9,4-3.9h26c2.2,0,4,1.7,4,3.9v17.4c0,2.1-1.8,3.9-4,3.9h-3v2.9C72.5,71,72.1,71.7,71.4,72
	L71.4,72z M75.5,65.5c1.1,0,2-0.9,2-1.9V46.2c0-1.1-0.9-1.9-2-1.9h-26c-1.1,0-2,0.9-2,1.9v17.4c0,1.1,0.9,1.9,2,1.9h14
	c0.7,0,1.4,0.2,2,0.7l5,4.1v-2.9c0-1.1,0.9-1.9,2-1.9H75.5z"/>
<path id="Path_1_" d="M71.9,49.7H51.6c-0.6,0-1-0.5-1-1c0-0.6,0.5-1,1-1h20.3c0.6,0,1,0.5,1,1C72.9,49.3,72.4,49.7,71.9,49.7z"/>
<path d="M73.6,54.6H51.7c-0.6,0-1.1-0.5-1.1-1s0.5-1,1.1-1h21.8c0.6,0,1.1,0.5,1.1,1S74.2,54.6,73.6,54.6z"/>
<path d="M51.6,59.5c-0.5,0-1-0.5-1-1s0.4-1,1-1H62c0.5,0,1,0.5,1,1s-0.4,1-1,1H51.6z"/>
</svg>
