<?xml version="1.0" encoding="UTF-8"?>
<svg width="100px" height="100px" viewBox="0 0 100 100" version="1.1" xmlns="http://www.w3.org/2000/svg" xmlns:xlink="http://www.w3.org/1999/xlink">
    <!-- Generator: Sketch 57.1 (83088) - https://sketch.com -->
    <title>Exploratory Mapping Tools</title>
    <desc>Created with Sketch.</desc>
    <g id="Exploratory-Mapping-Tools" stroke="none" stroke-width="1" fill="none" fill-rule="evenodd">
        <g id="004-bar-chart" transform="translate(7.000000, 8.000000)">
            <path d="M79.3333333,0 L5.66666667,0 C2.53705308,0 0,2.49613287 0,5.57526882 L0,61.327957 C0,64.4070929 2.53705308,66.9032258 5.66666667,66.9032258 L25.5,66.9032258 L25.5,70.2762634 L16.2916667,75.4501129 C15.8524817,75.6995854 15.5823326,76.1610004 15.5833333,76.6599462 L15.5833333,80.8413978 C15.5833333,82.3809658 16.8518599,83.6290323 18.4166667,83.6290323 L66.5833333,83.6290323 C68.1481401,83.6290323 69.4166667,82.3809658 69.4166667,80.8413978 L69.4166667,76.6599462 C69.4176674,76.1610004 69.1475183,75.6995854 68.7083333,75.4501129 L59.5,70.2762634 L59.5,66.9032258 L79.3333333,66.9032258 C82.4629469,66.9032258 85,64.4070929 85,61.327957 L85,5.57526882 C85,2.49613287 82.4629469,0 79.3333333,0 Z M5.66666667,2.78763441 L79.3333333,2.78763441 C80.8981401,2.78763441 82.1666667,4.03570084 82.1666667,5.57526882 L82.1666667,52.9650538 L2.83333333,52.9650538 L2.83333333,5.57526882 C2.83333333,4.03570084 4.10185988,2.78763441 5.66666667,2.78763441 Z M57.7079167,72.4784946 L62.66625,75.266129 L22.33375,75.266129 L27.2920833,72.4784946 L57.7079167,72.4784946 Z M18.4166667,80.8413978 L18.4166667,78.0537634 L66.5833333,78.0537634 L66.5833333,80.8413978 L18.4166667,80.8413978 Z M56.6666667,69.6908602 L28.3333333,69.6908602 L28.3333333,66.9032258 L56.6666667,66.9032258 L56.6666667,69.6908602 Z M79.3333333,64.1155914 L5.66666667,64.1155914 C4.10185988,64.1155914 2.83333333,62.867525 2.83333333,61.327957 L2.83333333,55.7526882 L82.1666667,55.7526882 L82.1666667,61.327957 C82.1666667,62.867525 80.8981401,64.1155914 79.3333333,64.1155914 Z" id="Shape" fill="#000000" fill-rule="nonzero"></path>
            <path d="M45.2419355,58.9516129 L39.7580645,58.9516129 C39.0009,58.9516129 38.3870968,59.5654161 38.3870968,60.3225806 C38.3870968,61.0797452 39.0009,61.6935484 39.7580645,61.6935484 L45.2419355,61.6935484 C45.9991,61.6935484 46.6129032,61.0797452 46.6129032,60.3225806 C46.6129032,59.5654161 45.9991,58.9516129 45.2419355,58.9516129 Z" id="Path" fill="#000000" fill-rule="nonzero"></path>
            <rect id="Rectangle" fill="#F8F8F8" x="2.74193548" y="2.74193548" width="79.516129" height="50.7258065" rx="1"></rect>
            <rect id="Rectangle" fill="#000000" opacity="0.74625651" x="10.9677419" y="43.8709677" width="64.4354839" height="2.74193548" rx="1"></rect>
            <path d="M13.3387097,28.7903226 L14.0806452,28.7903226 C14.6329299,28.7903226 15.0806452,29.2380378 15.0806452,29.7903226 L15.0806452,42.5 L15.0806452,42.5 L12.3387097,42.5 L12.3387097,29.7903226 C12.3387097,29.2380378 12.7864249,28.7903226 13.3387097,28.7903226 Z" id="Rectangle" fill="#1E62BD"></path>
            <path d="M18.8225806,34.2741935 L19.5645161,34.2741935 C20.1168009,34.2741935 20.5645161,34.7219088 20.5645161,35.2741935 L20.5645161,42.5 L20.5645161,42.5 L17.8225806,42.5 L17.8225806,35.2741935 C17.8225806,34.7219088 18.2702959,34.2741935 18.8225806,34.2741935 Z" id="Rectangle" fill="#19B7AB"></path>
            <path d="M25.6774194,30.1612903 L26.4193548,30.1612903 C26.9716396,30.1612903 27.4193548,30.6090056 27.4193548,31.1612903 L27.4193548,42.5 L27.4193548,42.5 L24.6774194,42.5 L24.6774194,31.1612903 C24.6774194,30.6090056 25.1251346,30.1612903 25.6774194,30.1612903 Z" id="Rectangle" fill="#DC4556"></path>
            <path d="M33.9032258,24.6774194 L34.6451613,24.6774194 C35.197446,24.6774194 35.6451613,25.1251346 35.6451613,25.6774194 L35.6451613,42.5 L35.6451613,42.5 L32.9032258,42.5 L32.9032258,25.6774194 C32.9032258,25.1251346 33.3509411,24.6774194 33.9032258,24.6774194 Z" id="Rectangle" fill="#FFB226"></path>
            <path d="M39.3870968,19.1935484 L40.1290323,19.1935484 C40.681317,19.1935484 41.1290323,19.6412636 41.1290323,20.1935484 L41.1290323,42.5 L41.1290323,42.5 L38.3870968,42.5 L38.3870968,20.1935484 C38.3870968,19.6412636 38.834812,19.1935484 39.3870968,19.1935484 Z" id="Rectangle" fill="#721D7C"></path>
            <path d="M44.8709677,30.1612903 L45.6129032,30.1612903 C46.165188,30.1612903 46.6129032,30.6090056 46.6129032,31.1612903 L46.6129032,42.5 L46.6129032,42.5 L43.8709677,42.5 L43.8709677,31.1612903 C43.8709677,30.6090056 44.318683,30.1612903 44.8709677,30.1612903 Z" id="Rectangle" fill="#19B7AB"></path>
            <path d="M50.3548387,38.3870968 L51.0967742,38.3870968 C51.6490589,38.3870968 52.0967742,38.834812 52.0967742,39.3870968 L52.0967742,42.5 L52.0967742,42.5 L49.3548387,42.5 L49.3548387,39.3870968 C49.3548387,38.834812 49.802554,38.3870968 50.3548387,38.3870968 Z" id="Rectangle" fill="#DC4556"></path>
            <path d="M58.5806452,17.8225806 L59.3225806,17.8225806 C59.8748654,17.8225806 60.3225806,18.2702959 60.3225806,18.8225806 L60.3225806,42.5 L60.3225806,42.5 L57.5806452,42.5 L57.5806452,18.8225806 C57.5806452,18.2702959 58.0283604,17.8225806 58.5806452,17.8225806 Z" id="Rectangle" fill="#721D7C"></path>
            <path d="M64.0645161,34.2741935 L64.8064516,34.2741935 C65.3587364,34.2741935 65.8064516,34.7219088 65.8064516,35.2741935 L65.8064516,42.5 L65.8064516,42.5 L63.0645161,42.5 L63.0645161,35.2741935 C63.0645161,34.7219088 63.5122314,34.2741935 64.0645161,34.2741935 Z" id="Rectangle" fill="#1E62BD"></path>
            <path d="M70.9193548,21.9354839 L71.6612903,21.9354839 C72.2135751,21.9354839 72.6612903,22.3831991 72.6612903,22.9354839 L72.6612903,42.5 L72.6612903,42.5 L69.9193548,42.5 L69.9193548,22.9354839 C69.9193548,22.3831991 70.3670701,21.9354839 70.9193548,21.9354839 Z" id="Rectangle" fill="#FFB226"></path>
        </g>
    </g>
</svg>