<?xml version="1.0" encoding="utf-8"?>
<!-- Generator: Adobe Illustrator 23.1.1, SVG Export Plug-In . SVG Version: 6.00 Build 0)  -->
<svg version="1.1" id="Layer_1" xmlns="http://www.w3.org/2000/svg" xmlns:xlink="http://www.w3.org/1999/xlink" x="0px" y="0px"
	 viewBox="0 0 100 100" style="enable-background:new 0 0 100 100;" xml:space="preserve">
<style type="text/css">
	.st0{fill-rule:evenodd;clip-rule:evenodd;fill:#DFDFDF;}
	.st1{fill:#DFDFDF;}
	.st2{fill:#FFB226;}
	.st3{fill:#721D7C;}
	.st4{fill:#19B7AA;}
	.st5{fill:#DC4556;}
	.st6{fill:#1E62BD;}
	.st7{stroke:#000000;stroke-miterlimit:10;}
</style>
<title>Transparent Methodology</title>
<desc>Created with Sketch.</desc>
<g id="Transparent-Methodology">
	<circle class="st0" cx="41.6" cy="58.5" r="27.5"/>
	
		<rect x="60.9" y="57.4" transform="matrix(0.9059 -0.4235 0.4235 0.9059 -19.2799 33.2489)" class="st1" width="8.5" height="5.2"/>
	
		<rect x="38.2" y="41.6" transform="matrix(0.7071 -0.7071 0.7071 0.7071 -16.7609 47.5355)" class="st2" width="21.5" height="4.8"/>
	
		<rect x="36.4" y="36.6" transform="matrix(0.7071 -0.7071 0.7071 0.7071 -14.6066 42.9174)" class="st3" width="16.1" height="5.1"/>
	
		<rect x="52.7" y="52.8" transform="matrix(0.7071 -0.7071 0.7071 0.7071 -21.2734 59.3458)" class="st4" width="16.6" height="5.1"/>
	
		<rect x="41.7" y="45.1" transform="matrix(0.7071 -0.7071 0.7071 0.7071 -18.2107 51.0355)" class="st5" width="21.5" height="4.8"/>
	
		<rect x="46.2" y="49.3" transform="matrix(0.7071 -0.7071 0.7071 0.7071 -19.8527 55.4436)" class="st6" width="21.5" height="4.8"/>
	<path id="Path-11" class="st7" d="M91.5,31.6C91.5,31.6,91.5,31.6,91.5,31.6c-0.5-2.4-1.2-4.6-2.2-6.6c0-0.1-0.1-0.2-0.1-0.2
		c-0.9-1.9-2-3.6-3.3-5.2c0-0.1-0.1-0.2-0.2-0.2c0,0,0,0,0,0c-1.3-1.5-2.7-3-4.3-4.2c0,0,0,0,0,0c-0.1-0.1-0.1-0.1-0.2-0.2
		c-1.6-1.3-3.4-2.4-5.3-3.2c-0.1,0-0.1-0.1-0.2-0.1c-2.1-1-4.3-1.7-6.7-2.1c0,0-0.1,0-0.1,0C67.3,9.1,65.7,9,64,9
		c-1.3,0-2.6,0.1-3.8,0.3c0,0,0,0,0,0c-11.8,1.6-21.3,10.5-23.6,22c-3,0.6-6,1.7-8.6,3.2c-0.5,0.3-0.7,1-0.4,1.5
		c0.3,0.5,1,0.7,1.6,0.4c2.2-1.3,4.6-2.2,7.1-2.8c-0.1,1-0.2,2-0.2,3c0,1.7,0.1,3.3,0.4,4.9c0,0,0,0.1,0,0.1
		c0.4,2.3,1.1,4.5,2.1,6.6c0,0.1,0.1,0.2,0.1,0.2c0.9,1.9,2,3.6,3.3,5.3c0,0.1,0.1,0.2,0.2,0.2c0,0,0,0,0,0c1.3,1.6,2.7,3,4.3,4.2
		c0,0,0,0,0,0c0.1,0.1,0.1,0.1,0.2,0.2c1.6,1.3,3.4,2.4,5.3,3.3c0.1,0,0.2,0.1,0.2,0.1c2.1,1,4.3,1.7,6.6,2.1c0,0,0.1,0,0.1,0
		c1.7,0.3,3.4,0.5,5.1,0.5c1,0,2.1-0.1,3.1-0.2c-2.7,11.2-12.9,19.6-25,19.6c-14.2,0-25.7-11.4-25.7-25.4c0-7.1,2.9-13.6,8.1-18.5
		c0.5-0.4,0.5-1.1,0-1.6c-0.4-0.5-1.2-0.5-1.6,0c-2.7,2.6-4.9,5.6-6.4,9c-1.6,3.5-2.4,7.3-2.4,11.1C14,73.6,26.6,86,42,86
		c13.6,0,24.9-9.6,27.5-22.2C81.1,61.5,90.2,52,91.8,40.2c0,0,0,0,0,0c0.2-1.2,0.2-2.3,0.2-3.6C92,34.9,91.8,33.3,91.5,31.6z M85,22
		c0.8,1,1.4,2.1,2,3.3L67.1,45c-0.6-1.1-1.3-2.2-2.1-3.2L85,22z M83,19.7L62.7,40c-0.8-1-1.7-1.9-2.7-2.7L80.3,17
		C81.3,17.8,82.2,18.7,83,19.7z M79,16L58.4,36c-1.1-0.8-2.2-1.4-3.4-2.1L75.6,14C76.8,14.6,77.9,15.3,79,16z M68.9,12
		c1.4,0.3,2.8,0.7,4.1,1.2L53,33c-1.3-0.5-2.6-1-4-1.4L68.9,12z M60.5,11.2c1-0.1,2.1-0.2,3.2-0.2c0.8,0,1.6,0,2.3,0.1L46.1,31
		c-1.4-0.2-2.9-0.3-4.4-0.3c-0.2,0-0.5,0-0.7,0L60.5,11.2z M57,12L40,29C42.4,20.8,48.8,14.4,57,12z M38.1,39
		C38,38.2,38,37.5,38,36.7c0-1.1,0.1-2.1,0.2-3.1l0.4-0.4c1-0.1,2.1-0.2,3.1-0.2c0.8,0,1.5,0,2.3,0.1L38.1,39z M39,42l8.7-8
		c1.5,0.3,2.9,0.7,4.3,1.2L40.3,46C39.7,44.7,39.3,43.4,39,42z M43,52c-0.8-1.1-1.4-2.2-2-3.4L53.6,36c1.2,0.6,2.3,1.3,3.4,2L43,52z
		 M44,53.3L58.3,39c1,0.8,1.9,1.7,2.7,2.7L46.7,56C45.7,55.2,44.8,54.3,44,53.3z M49,56.9L62.9,43c0.8,1.1,1.5,2.2,2.1,3.4L52.4,59
		C51.2,58.4,50.1,57.7,49,56.9z M58.3,61c-1.5-0.3-2.9-0.7-4.3-1.2L65.7,49c0.5,1.3,1,2.6,1.3,3.9L58.3,61z M67.8,61.2l-0.6,0.6
		c-0.9,0.1-1.9,0.2-2.9,0.2c-0.8,0-1.6,0-2.4-0.1l5.9-5.9c0.1,0.8,0.1,1.6,0.1,2.4C68,59.4,67.9,60.3,67.8,61.2z M69.4,51
		c-0.4-1.4-0.8-2.7-1.4-4l19.8-20c0.5,1.3,0.9,2.7,1.2,4.1L69.4,51z M71,61l18-18C86.5,51.7,79.7,58.5,71,61z M89.8,39.5L70.4,59
		c0-0.2,0-0.3,0-0.5c0-1.5-0.1-3.1-0.4-4.5l19.9-20c0.1,0.8,0.1,1.6,0.1,2.5C90,37.5,89.9,38.5,89.8,39.5z M0,0L0,0z"/>
</g>
</svg>
