<?xml version="1.0" encoding="utf-8"?>
<!-- Generator: Adobe Illustrator 23.1.1, SVG Export Plug-In . SVG Version: 6.00 Build 0)  -->
<svg version="1.1" id="Layer_1" xmlns="http://www.w3.org/2000/svg" xmlns:xlink="http://www.w3.org/1999/xlink" x="0px" y="0px"
	 viewBox="0 0 100 100" style="enable-background:new 0 0 100 100;" xml:space="preserve">
<style type="text/css">
	.st0{fill-rule:evenodd;clip-rule:evenodd;fill:#EE495C;stroke:#000000;stroke-width:0.5;stroke-miterlimit:10;}
	.st1{fill-rule:evenodd;clip-rule:evenodd;fill:#19B7AB;stroke:#000000;stroke-width:0.5;stroke-miterlimit:10;}
	.st2{fill-rule:evenodd;clip-rule:evenodd;fill:#FFB226;stroke:#000000;stroke-width:0.5;stroke-miterlimit:10;}
	.st3{fill-rule:evenodd;clip-rule:evenodd;fill:#1E62BD;stroke:#000000;stroke-width:0.5;stroke-miterlimit:10;}
	.st4{stroke:#000000;stroke-width:0.5;stroke-miterlimit:10;}
</style>
<title>Connected Data Science Notebooks</title>
<desc>Created with Sketch.</desc>
<g id="Connected-Data-Science-Notebooks">
	<path id="Path-8" class="st0" d="M22,38.3l-0.2,8.5c0.7,4,7.1,6.4,19.2,7.2s20.6-0.7,25.8-4.7l1.6-2.2L68,38.3
		c-5.1,3.3-9.5,4.9-13.3,4.9c-2.6,0-10.7,1.4-20.1,0C31.8,42.8,27.6,41.1,22,38.3z"/>
	<path id="Path-8-Copy" class="st1" d="M21.8,62v8.8c0.5,3.9,6.8,6.3,18.9,7.2s20.8-0.8,26.2-5l1.6-2.2L68.2,62
		c-5.1,3.3-9.5,4.9-13.3,4.9c-2.6,0-10.7,1.4-20.1,0C32,66.5,27.6,64.8,21.8,62z"/>
	<path id="Path-9" class="st2" d="M70,49.2v9.9c5.1-1.4,7.7-3.3,8-5.6s0.3-5,0-8.1L70,49.2z"/>
	<path id="Path-10" class="st3" d="M35.1,25.6c5.8-2.4,11.2-3.6,16.3-3.6c7.6,0,19.2,0.1,21.6,2.2s8.5,4,3.3,8.1
		c-3.5,2.7-5.7,3.7-6.7,2.8c0.3-0.5,0.3-1.1,0-1.7s-0.7-1.6-1.5-2.8l-4.1-2.1l-9-2.8l-11.1-0.3L35.1,25.6z"/>
	<g transform="translate(20.000000, 20.000000)">
		<path id="Shape" class="st4" d="M35,0C23.8,0,14.4,2.6,11.2,6.5c-6.5,1.6-10.3,4.3-11.1,7C0.1,13.7,0,13.8,0,14v0.5V26v0.5V27v11
			v0.5V39v12c0,0.2,0,0.3,0.1,0.5C1.3,56.3,11.9,60,25,60c11.2,0,20.6-2.7,23.8-6.5c6.4-1.5,10.4-4.1,11.1-7C60,46.3,60,46.2,60,46
			V34v-0.5V22v-0.5v-12C60,4.9,51.2,0,35,0z M47.8,39.3c0,0.1-0.1,0.2-0.1,0.3c-0.1,0.1-0.1,0.2-0.2,0.4c-0.1,0.1-0.1,0.2-0.2,0.3
			c-0.1,0.1-0.2,0.3-0.4,0.4c-0.1,0.1-0.2,0.2-0.3,0.2c-0.2,0.1-0.3,0.3-0.5,0.4c-0.1,0.1-0.2,0.1-0.3,0.2c-0.2,0.2-0.5,0.3-0.7,0.5
			c-0.1,0-0.1,0.1-0.2,0.1c-0.3,0.2-0.6,0.3-0.9,0.5c0,0-0.1,0-0.1,0.1c-0.4,0.2-0.8,0.4-1.2,0.5c0,0,0,0,0,0
			c-2.3,0.9-5.2,1.7-8.6,2.2c0,0,0,0-0.1,0c-0.7,0.1-1.3,0.2-2,0.3c-0.1,0-0.2,0-0.3,0c-0.6,0.1-1.2,0.1-1.8,0.2c-0.3,0-0.6,0-0.9,0
			c-0.5,0-0.9,0.1-1.4,0.1c-0.8,0-1.6,0-2.4,0s-1.6,0-2.4,0c-0.5,0-1,0-1.4-0.1c-0.3,0-0.6,0-0.9,0c-0.6,0-1.2-0.1-1.8-0.2
			c-0.1,0-0.2,0-0.3,0c-0.7-0.1-1.4-0.2-2-0.3c0,0,0,0-0.1,0c-3.4-0.5-6.3-1.3-8.6-2.2c0,0,0,0,0,0C7,43,6.6,42.8,6.2,42.7
			c0,0-0.1,0-0.1-0.1c-0.3-0.2-0.6-0.3-0.9-0.5C5.1,42.1,5,42,4.9,42c-0.3-0.2-0.5-0.3-0.7-0.5c-0.1-0.1-0.2-0.1-0.3-0.2
			c-0.2-0.1-0.4-0.3-0.5-0.4c-0.1-0.1-0.2-0.2-0.3-0.2c-0.1-0.1-0.3-0.3-0.4-0.4c-0.1-0.1-0.2-0.2-0.2-0.3c-0.1-0.1-0.2-0.2-0.2-0.4
			c-0.1-0.1-0.1-0.2-0.1-0.3c0-0.1-0.1-0.2-0.1-0.4C2,38.8,2,38.7,2,38.5c0-0.1,0-0.2,0-0.3c0-0.2,0-0.3,0-0.4v-7.4
			c0,0,0.1,0.1,0.1,0.1c0.2,0.2,0.4,0.4,0.7,0.6C6.5,33.8,14.1,36,25,36c10.9,0,18.4-2.2,22.2-5c0.3-0.2,0.6-0.4,0.8-0.7l0,0v7.4
			c0,0.1-0.1,0.3,0,0.4c0,0.1,0,0.2,0,0.3c0,0.2,0,0.3-0.1,0.5C47.9,39.1,47.9,39.2,47.8,39.3z M2.6,18.8c0.3,0.2,0.6,0.5,1,0.7
			c0.1,0,0.2,0.1,0.2,0.1c0.3,0.2,0.6,0.4,0.9,0.5c0.1,0.1,0.2,0.1,0.4,0.2c0.4,0.2,0.7,0.4,1.2,0.5c0.1,0,0.1,0.1,0.2,0.1
			c0.5,0.2,1,0.4,1.5,0.6c0.1,0.1,0.3,0.1,0.4,0.1c0.4,0.1,0.8,0.3,1.3,0.4c0.2,0,0.3,0.1,0.5,0.1c0.6,0.2,1.2,0.3,1.8,0.5
			c0.1,0,0.2,0,0.3,0.1c0.6,0.1,1.1,0.2,1.7,0.3c0.2,0,0.4,0.1,0.6,0.1c0.6,0.1,1.2,0.2,1.8,0.3c0.2,0,0.3,0,0.5,0.1
			c0.7,0.1,1.5,0.2,2.3,0.2c0.2,0,0.4,0,0.6,0c0.6,0,1.3,0.1,1.9,0.1c0.2,0,0.5,0,0.7,0c0.9,0,1.7,0,2.7,0s1.8,0,2.6,0
			c0.2,0,0.5,0,0.7,0c0.7,0,1.3-0.1,1.9-0.1c0.2,0,0.4,0,0.6,0c0.8-0.1,1.6-0.1,2.3-0.2c0.2,0,0.3,0,0.5-0.1
			c0.6-0.1,1.2-0.2,1.8-0.3c0.2,0,0.4-0.1,0.6-0.1c0.6-0.1,1.2-0.2,1.7-0.3c0.1,0,0.2,0,0.3-0.1c0.6-0.1,1.2-0.3,1.8-0.5
			c0.2,0,0.3-0.1,0.5-0.1c0.4-0.1,0.9-0.3,1.3-0.4c0.1,0,0.3-0.1,0.4-0.1c0.5-0.2,1-0.4,1.5-0.6c0.1,0,0.1-0.1,0.2-0.1
			c0.4-0.2,0.8-0.4,1.2-0.5c0.1-0.1,0.2-0.1,0.4-0.2c0.3-0.2,0.6-0.4,0.9-0.5c0.1,0,0.2-0.1,0.2-0.1c0.4-0.2,0.7-0.5,1-0.7
			c0.1-0.1,0.1-0.1,0.2-0.2c0.1-0.1,0.3-0.2,0.4-0.3v7.4c0,0.1-0.1,0.3,0,0.4c0,0.1,0,0.2,0,0.3c0,0.2,0,0.3-0.1,0.5
			c0,0.1-0.1,0.2-0.1,0.4c0,0.1-0.1,0.2-0.1,0.3c-0.1,0.1-0.1,0.2-0.2,0.4c-0.1,0.1-0.1,0.2-0.2,0.3c-0.1,0.1-0.2,0.3-0.4,0.4
			c-0.1,0.1-0.2,0.2-0.3,0.2c-0.2,0.1-0.3,0.3-0.5,0.4c-0.1,0.1-0.2,0.1-0.3,0.2c-0.2,0.2-0.5,0.3-0.7,0.5c-0.1,0-0.1,0.1-0.2,0.1
			c-0.3,0.2-0.6,0.3-0.9,0.5c0,0-0.1,0-0.1,0.1c-0.4,0.2-0.8,0.4-1.2,0.5c0,0,0,0,0,0c-2.3,0.9-5.2,1.7-8.6,2.2c0,0,0,0-0.1,0
			c-0.7,0.1-1.3,0.2-2,0.3c-0.1,0-0.2,0-0.3,0c-0.6,0.1-1.2,0.1-1.8,0.2c-0.3,0-0.6,0-0.9,0c-0.5,0-0.9,0.1-1.4,0.1
			c-0.8,0-1.6,0-2.4,0s-1.6,0-2.4,0c-0.5,0-1,0-1.4-0.1c-0.3,0-0.6,0-0.9,0c-0.6,0-1.2-0.1-1.8-0.2c-0.1,0-0.2,0-0.3,0
			c-0.7-0.1-1.4-0.2-2-0.3c0,0,0,0-0.1,0c-3.4-0.5-6.3-1.3-8.6-2.2c0,0,0,0,0,0C7,31,6.6,30.8,6.2,30.7c0,0-0.1,0-0.1-0.1
			c-0.3-0.2-0.6-0.3-0.9-0.5C5.1,30.1,5,30,4.9,30c-0.3-0.2-0.5-0.3-0.7-0.5c-0.1-0.1-0.2-0.1-0.3-0.2c-0.2-0.1-0.4-0.3-0.5-0.4
			c-0.1-0.1-0.2-0.2-0.3-0.2c-0.1-0.1-0.3-0.3-0.4-0.4c-0.1-0.1-0.2-0.2-0.2-0.3c-0.1-0.1-0.2-0.2-0.2-0.4c-0.1-0.1-0.1-0.2-0.1-0.3
			c0-0.1-0.1-0.2-0.1-0.4C2,26.8,2,26.7,2,26.5c0-0.1,0-0.2,0-0.3c0-0.2,0-0.3,0-0.4v-7.4c0.1,0.1,0.3,0.2,0.4,0.3
			C2.5,18.7,2.5,18.7,2.6,18.8z M50,39.1L50,39.1v-0.6V38v-8.8c0,0,0.1,0,0.1,0c0.4-0.1,0.8-0.2,1.2-0.3c0,0,0,0,0,0
			c3-0.9,5.2-2.1,6.7-3.4v8.1c0,0.1,0,0.2,0,0.3c0,0.1,0,0.2-0.1,0.3c0,0,0,0.1,0,0.1c0,0.1-0.1,0.2-0.1,0.3c0,0,0,0,0,0
			c-0.8,1.6-3.5,3.2-7.3,4.4C50.3,39,50.2,39,50,39.1z M58,13.3v8.2c0,0.1,0,0.2,0,0.3c0,0.1,0,0.2-0.1,0.3c0,0,0,0.1,0,0.1
			c0,0.1-0.1,0.2-0.1,0.3c0,0,0,0,0,0c-0.8,1.6-3.5,3.2-7.3,4.4c-0.1,0-0.3,0.1-0.4,0.1V27v-0.5V26v-8.8c0.1,0,0.2,0,0.2-0.1
			c0.2-0.1,0.5-0.1,0.7-0.2c0.2-0.1,0.4-0.1,0.6-0.2c0.2-0.1,0.4-0.1,0.7-0.2c0.2-0.1,0.3-0.1,0.5-0.2c0.2-0.1,0.5-0.2,0.7-0.3
			c0.1-0.1,0.3-0.1,0.4-0.2c0.3-0.1,0.5-0.2,0.7-0.3c0.1,0,0.2-0.1,0.3-0.1c0.3-0.2,0.6-0.3,0.9-0.5c0,0,0.1,0,0.1-0.1
			c0.3-0.1,0.5-0.3,0.8-0.4c0.1-0.1,0.2-0.1,0.2-0.2c0.2-0.1,0.4-0.2,0.5-0.4c0.1-0.1,0.2-0.1,0.3-0.2C57.7,13.6,57.8,13.5,58,13.3
			C57.9,13.4,58,13.4,58,13.3z M35,2c13.6,0,23,4,23,7.5c0,0.1,0,0.3,0,0.4c0,0,0,0.1,0,0.1c0,0.1,0,0.2-0.1,0.3
			c0,0.1,0,0.1-0.1,0.2c0,0.1-0.1,0.2-0.1,0.2c0,0.1-0.1,0.1-0.1,0.2c-0.1,0.1-0.1,0.2-0.2,0.2c0,0.1-0.1,0.1-0.1,0.2
			c-0.1,0.1-0.1,0.2-0.2,0.2c-0.1,0.1-0.1,0.1-0.2,0.2c-0.1,0.1-0.2,0.1-0.2,0.2c-0.1,0.1-0.1,0.1-0.2,0.2c-0.1,0.1-0.2,0.1-0.3,0.2
			c-0.1,0.1-0.1,0.1-0.2,0.2c-0.1,0.1-0.2,0.1-0.3,0.2c-0.1,0.1-0.2,0.1-0.2,0.2c-0.1,0.1-0.2,0.1-0.4,0.2c-0.1,0-0.2,0.1-0.3,0.1
			c-0.1,0.1-0.3,0.1-0.4,0.2c-0.1,0-0.2,0.1-0.3,0.1c-0.2,0.1-0.3,0.1-0.5,0.2c-0.1,0-0.2,0.1-0.3,0.1c-0.2,0.1-0.4,0.2-0.7,0.3
			c0,0-0.1,0-0.1,0.1c-0.3,0.1-0.6,0.2-0.8,0.3c-0.1,0-0.2,0.1-0.2,0.1c-0.2,0.1-0.4,0.1-0.7,0.2c-0.1,0-0.2,0.1-0.4,0.1
			C50.3,15,50.2,15,50,15.1v-0.6V14c0-0.1,0-0.2-0.1-0.3c0,0,0-0.1,0-0.1c0,0,0,0,0,0c-0.3-1.2-1.1-2.3-2.4-3.3c0,0,0,0,0,0
			c-0.2-0.1-0.4-0.3-0.6-0.4C43.3,7.3,36.8,5.4,27.5,5c-0.8,0-1.7,0-2.5,0c-0.9,0-1.7,0-2.5,0c-2.5,0.1-4.8,0.3-6.9,0.6
			C19.4,3.6,26.3,2,35,2z M13.5,8.1C13.7,8,14,8,14.3,7.9c0.3-0.1,0.7-0.1,1-0.2c0.3,0,0.6-0.1,0.9-0.1c0.3,0,0.7-0.1,1-0.1
			c0.3,0,0.6-0.1,0.9-0.1c0.6-0.1,1.2-0.1,1.8-0.2c0.2,0,0.5,0,0.7,0c0.5,0,1-0.1,1.5-0.1c0.2,0,0.5,0,0.7,0c0.7,0,1.4,0,2.2,0
			c0.8,0,1.6,0,2.4,0c0.5,0,0.9,0,1.4,0.1c0.3,0,0.6,0,0.9,0.1c0.6,0,1.2,0.1,1.8,0.2c0.1,0,0.3,0,0.4,0c0.7,0.1,1.3,0.2,2,0.3
			c0,0,0.1,0,0.1,0c3.4,0.5,6.3,1.3,8.5,2.2c0,0,0.1,0,0.1,0c0.4,0.2,0.8,0.3,1.1,0.5c0.1,0,0.1,0.1,0.2,0.1
			c0.3,0.2,0.6,0.3,0.9,0.5c0.1,0,0.2,0.1,0.2,0.1c0.2,0.1,0.5,0.3,0.7,0.4c0.1,0.1,0.2,0.1,0.3,0.2c0.2,0.1,0.3,0.3,0.5,0.4
			c0.1,0.1,0.2,0.2,0.3,0.2c0.1,0.1,0.2,0.3,0.4,0.4c0.1,0.1,0.2,0.2,0.2,0.3c0.1,0.1,0.2,0.2,0.2,0.4c0.1,0.1,0.1,0.2,0.1,0.3
			c0,0.1,0.1,0.2,0.1,0.4c0,0.2,0.1,0.3,0.1,0.5C48,18,38.6,22,25,22S2,18,2,14.5C2,12.1,6.4,9.5,13.5,8.1z M25,58
			c-13,0-22.4-3.7-23-7.2c0,0,0-0.1,0-0.1v-8.4c0,0,0.1,0.1,0.1,0.1c0.2,0.2,0.4,0.4,0.7,0.6C6.5,45.8,14.1,48,25,48
			c10.9,0,18.4-2.2,22.2-5c0.3-0.2,0.6-0.4,0.8-0.7l0,0v8.4c0,0,0,0.1,0,0.1c0,0.2-0.1,0.4-0.2,0.6c0,0.1-0.1,0.2-0.1,0.2
			C45.8,54.9,37,58,25,58z M58,45.8c-0.3,1.9-3.3,3.9-8,5.3c0,0,0-0.1,0-0.1v-9.8c0,0,0.1,0,0.1,0c0.4-0.1,0.8-0.2,1.2-0.3
			c0,0,0,0,0,0c3-0.9,5.2-2.1,6.7-3.4v8.3C58,45.7,58,45.8,58,45.8z"/>
	</g>
	<path id="Path-7" class="st4" d="M0,0"/>
</g>
</svg>
