<?xml version="1.0" encoding="UTF-8"?>
<svg width="100px" height="100px" viewBox="0 0 100 100" version="1.1" xmlns="http://www.w3.org/2000/svg" xmlns:xlink="http://www.w3.org/1999/xlink">
    <!-- Generator: Sketch 57.1 (83088) - https://sketch.com -->
    <title>Connected Data Science Notebooks</title>
    <desc>Created with Sketch.</desc>
    <g id="Connected-Data-Science-Notebooks" stroke="none" stroke-width="1" fill="none" fill-rule="evenodd">
        <path d="M22,38.293 L21.7965088,46.7713623 C22.5200602,50.7318929 28.9088542,53.1414388 40.9628906,54 C53.0169271,54.8585612 61.6050618,53.2810872 66.7272949,49.2675781 L68.3684082,47.09 L68,38.293 C62.9106445,41.5723333 58.4625651,43.212 54.6557617,43.212 C52.027228,43.212 44.005483,44.654319 34.572,43.212 C31.7528905,42.7809763 27.5622238,41.1413096 22,38.293 Z" id="Path-8" fill="#EE495C"></path>
        <path d="M21.7965088,62 L21.7965088,70.797 C22.3385824,74.7404388 28.6366374,77.1414388 40.6906738,78 C52.7447103,78.8585612 61.4914144,77.1834206 66.9307861,72.9745781 L68.5718994,70.797 L68.2034912,62 C63.1141357,65.2793333 58.6660563,66.919 54.8592529,66.919 C52.2307192,66.919 44.2089742,68.361319 34.7754912,66.919 C31.9563817,66.4879763 27.6300542,64.8483096 21.7965088,62 Z" id="Path-8-Copy" fill="#19B7AB"></path>
        <path d="M69.996,49.172 L69.996,59.09 C75.0735365,57.6966667 77.7415365,55.8333333 78,53.5 C78.2584635,51.1666667 78.2584635,48.4526667 78,45.358 L69.996,49.172 Z" id="Path-9" fill="#FFB226"></path>
        <path d="M35.1297607,25.642 C40.8883057,23.2139851 46.3069661,21.9999776 51.3857422,21.9999776 C59.0039063,21.9999776 70.5454102,22.0983887 72.9399414,24.1645508 C75.3344727,26.2307129 81.4340391,28.162127 76.197,32.266 C72.7056406,35.0019154 70.4627279,35.942582 69.4682617,35.088 C69.723869,34.5419553 69.723869,33.9616219 69.4682617,33.347 C69.2126545,32.7323781 68.7232339,31.7962362 68,30.5385742 L63.8942871,28.4477962 L54.9431152,25.642 L43.800293,25.3178711 L35.1297607,25.642 Z" id="Path-10" fill="#1E62BD"></path>
        <g id="001-network" transform="translate(20.000000, 20.000000)" fill="#000000" fill-rule="nonzero">
            <path d="M35,0 C23.849,0 14.43,2.588 11.215,6.475 C4.669,8.077 0.884,10.775 0.146,13.51 C0.062,13.657 0,13.818 0,14 L0,14.5 L0,26 L0,26.5 L0,27 L0,38 L0,38.5 L0,39 L0,51 C0,51.162 0.043,51.315 0.117,51.451 C1.298,56.346 11.864,60 25,60 C36.24,60 45.579,57.32 48.786,53.482 C55.145,51.936 59.152,49.406 59.876,46.482 C59.955,46.34 60,46.175 60,46 L60,34 L60,33.5 L60,22 L60,21.5 L60,9.5 C60,4.895 51.238,0 35,0 Z M47.805,39.348 C47.765,39.447 47.716,39.546 47.662,39.645 C47.595,39.768 47.52,39.891 47.431,40.014 C47.365,40.107 47.29,40.199 47.212,40.291 C47.101,40.422 46.983,40.553 46.849,40.683 C46.768,40.762 46.679,40.84 46.589,40.919 C46.425,41.062 46.254,41.204 46.063,41.345 C45.981,41.406 45.893,41.465 45.806,41.525 C45.58,41.681 45.344,41.836 45.085,41.988 C45.017,42.029 44.944,42.068 44.873,42.108 C44.575,42.276 44.264,42.443 43.928,42.605 C43.885,42.626 43.84,42.646 43.796,42.666 C43.421,42.843 43.029,43.017 42.61,43.185 C42.598,43.19 42.586,43.194 42.574,43.199 C40.303,44.106 37.398,44.869 34.013,45.369 C33.996,45.371 33.979,45.373 33.962,45.376 C33.304,45.473 32.629,45.559 31.936,45.635 C31.823,45.647 31.704,45.655 31.59,45.667 C30.985,45.73 30.373,45.788 29.743,45.834 C29.455,45.855 29.153,45.865 28.86,45.883 C28.386,45.911 27.917,45.942 27.431,45.959 C26.637,45.984 25.827,46 25,46 C24.173,46 23.363,45.984 22.568,45.956 C22.082,45.939 21.613,45.907 21.139,45.88 C20.846,45.863 20.544,45.852 20.256,45.831 C19.626,45.785 19.014,45.727 18.409,45.664 C18.295,45.652 18.176,45.644 18.063,45.632 C17.37,45.556 16.695,45.469 16.037,45.373 C16.02,45.371 16.003,45.369 15.986,45.366 C12.601,44.866 9.696,44.103 7.425,43.196 C7.413,43.192 7.401,43.187 7.389,43.182 C6.97,43.014 6.577,42.84 6.203,42.663 C6.16,42.642 6.114,42.622 6.071,42.602 C5.735,42.44 5.424,42.274 5.126,42.105 C5.056,42.065 4.982,42.026 4.914,41.985 C4.655,41.833 4.419,41.678 4.193,41.522 C4.107,41.462 4.018,41.403 3.936,41.342 C3.745,41.201 3.574,41.059 3.41,40.916 C3.321,40.838 3.231,40.76 3.15,40.68 C3.016,40.55 2.898,40.42 2.787,40.288 C2.709,40.196 2.634,40.104 2.568,40.011 C2.48,39.888 2.405,39.765 2.337,39.642 C2.283,39.543 2.235,39.444 2.194,39.345 C2.145,39.224 2.106,39.103 2.078,38.982 C2.041,38.823 2,38.661 2,38.5 C2,38.387 2.013,38.274 2.031,38.162 C2.056,38.011 2.042,37.86 2,37.717 L2,30.293 C2.028,30.319 2.063,30.344 2.092,30.37 C2.31,30.562 2.532,30.753 2.782,30.937 C6.549,33.786 14.082,36 25,36 C35.872,36 43.386,33.804 47.169,30.972 C47.471,30.752 47.743,30.525 47.999,30.294 L48,30.293 L48,37.717 C47.958,37.86 47.944,38.011 47.969,38.162 C47.987,38.274 48,38.387 48,38.5 C48,38.661 47.959,38.823 47.921,38.985 C47.892,39.106 47.854,39.227 47.805,39.348 Z M2.601,18.797 C2.901,19.033 3.225,19.266 3.576,19.493 C3.649,19.54 3.731,19.586 3.807,19.633 C4.101,19.816 4.412,19.995 4.739,20.171 C4.86,20.236 4.981,20.3 5.106,20.364 C5.471,20.55 5.854,20.731 6.257,20.906 C6.323,20.935 6.383,20.965 6.45,20.993 C6.919,21.192 7.417,21.382 7.935,21.566 C8.078,21.617 8.228,21.665 8.375,21.715 C8.787,21.854 9.213,21.987 9.654,22.116 C9.813,22.162 9.969,22.21 10.132,22.254 C10.717,22.416 11.321,22.57 11.955,22.712 C12.042,22.732 12.136,22.748 12.224,22.767 C12.783,22.889 13.363,23.002 13.959,23.108 C14.161,23.144 14.366,23.178 14.572,23.212 C15.139,23.305 15.723,23.39 16.322,23.468 C16.476,23.488 16.623,23.511 16.779,23.53 C17.523,23.62 18.293,23.697 19.084,23.763 C19.279,23.779 19.482,23.791 19.68,23.805 C20.313,23.851 20.96,23.889 21.622,23.919 C21.863,23.93 22.103,23.941 22.349,23.95 C23.212,23.979 24.09,24 25,24 C25.91,24 26.788,23.979 27.65,23.95 C27.895,23.941 28.135,23.93 28.377,23.919 C29.039,23.889 29.686,23.851 30.319,23.805 C30.517,23.79 30.719,23.779 30.915,23.763 C31.706,23.698 32.476,23.62 33.22,23.53 C33.376,23.511 33.523,23.488 33.677,23.468 C34.276,23.39 34.859,23.305 35.427,23.212 C35.633,23.178 35.838,23.144 36.04,23.108 C36.636,23.002 37.216,22.889 37.775,22.767 C37.863,22.748 37.957,22.731 38.044,22.712 C38.678,22.57 39.282,22.415 39.867,22.254 C40.03,22.209 40.186,22.162 40.345,22.116 C40.786,21.987 41.212,21.854 41.624,21.715 C41.771,21.665 41.921,21.617 42.064,21.566 C42.582,21.382 43.081,21.192 43.549,20.993 C43.616,20.965 43.676,20.935 43.742,20.906 C44.145,20.73 44.528,20.55 44.893,20.364 C45.018,20.3 45.14,20.236 45.26,20.171 C45.587,19.996 45.898,19.817 46.192,19.633 C46.268,19.586 46.35,19.54 46.423,19.493 C46.774,19.266 47.098,19.034 47.398,18.797 C47.473,18.737 47.54,18.677 47.613,18.617 C47.743,18.509 47.88,18.402 48,18.293 L48,25.717 C47.958,25.86 47.944,26.011 47.969,26.162 C47.987,26.274 48,26.387 48,26.5 C48,26.661 47.959,26.823 47.921,26.985 C47.893,27.106 47.854,27.226 47.805,27.348 C47.765,27.447 47.716,27.546 47.662,27.645 C47.595,27.768 47.52,27.891 47.431,28.014 C47.365,28.107 47.29,28.199 47.212,28.291 C47.101,28.422 46.983,28.553 46.849,28.683 C46.768,28.762 46.679,28.84 46.589,28.919 C46.425,29.062 46.254,29.204 46.063,29.345 C45.981,29.406 45.893,29.465 45.806,29.525 C45.58,29.681 45.344,29.836 45.085,29.988 C45.017,30.029 44.944,30.068 44.873,30.108 C44.575,30.276 44.264,30.443 43.928,30.605 C43.885,30.626 43.84,30.646 43.796,30.666 C43.421,30.843 43.029,31.017 42.61,31.185 C42.598,31.19 42.586,31.194 42.574,31.199 C40.303,32.106 37.398,32.869 34.013,33.369 C33.996,33.371 33.979,33.373 33.962,33.376 C33.304,33.473 32.629,33.559 31.936,33.635 C31.823,33.647 31.704,33.655 31.59,33.667 C30.985,33.73 30.373,33.788 29.743,33.834 C29.455,33.855 29.153,33.865 28.86,33.883 C28.386,33.911 27.917,33.942 27.431,33.959 C26.637,33.984 25.827,34 25,34 C24.173,34 23.363,33.984 22.568,33.956 C22.082,33.939 21.613,33.907 21.139,33.88 C20.846,33.863 20.544,33.852 20.256,33.831 C19.626,33.785 19.014,33.727 18.409,33.664 C18.295,33.652 18.176,33.644 18.063,33.632 C17.37,33.556 16.695,33.469 16.037,33.373 C16.02,33.371 16.003,33.369 15.986,33.366 C12.601,32.866 9.696,32.103 7.425,31.196 C7.413,31.192 7.401,31.187 7.389,31.182 C6.97,31.014 6.577,30.84 6.203,30.663 C6.16,30.642 6.114,30.622 6.071,30.602 C5.735,30.44 5.424,30.274 5.126,30.105 C5.056,30.065 4.982,30.026 4.914,29.985 C4.655,29.833 4.419,29.678 4.193,29.522 C4.107,29.462 4.018,29.403 3.936,29.342 C3.745,29.201 3.574,29.059 3.41,28.916 C3.321,28.838 3.231,28.76 3.15,28.68 C3.016,28.55 2.898,28.42 2.787,28.288 C2.709,28.196 2.634,28.104 2.568,28.011 C2.48,27.888 2.405,27.765 2.337,27.642 C2.283,27.543 2.235,27.444 2.194,27.345 C2.145,27.224 2.106,27.103 2.078,26.982 C2.041,26.823 2,26.661 2,26.5 C2,26.387 2.013,26.274 2.031,26.162 C2.056,26.011 2.042,25.86 2,25.717 L2,18.293 C2.12,18.402 2.257,18.509 2.387,18.617 C2.459,18.677 2.526,18.737 2.601,18.797 Z M50,39.09 L50,39 L50,38.5 L50,38 L50,29.172 C50.043,29.16 50.083,29.147 50.126,29.135 C50.526,29.023 50.916,28.908 51.294,28.789 C51.298,28.788 51.303,28.786 51.307,28.785 C54.268,27.849 56.527,26.686 58,25.358 L58,33.5 C58,33.616 57.985,33.732 57.965,33.849 C57.949,33.945 57.922,34.041 57.893,34.137 C57.884,34.165 57.878,34.193 57.868,34.222 C57.832,34.327 57.787,34.432 57.735,34.537 C57.729,34.55 57.722,34.563 57.716,34.576 C56.888,36.191 54.251,37.778 50.446,38.955 C50.299,39 50.151,39.046 50,39.09 Z M58,13.347 L58,21.5 C58,21.616 57.985,21.732 57.965,21.849 C57.949,21.945 57.922,22.041 57.893,22.137 C57.884,22.165 57.878,22.193 57.868,22.222 C57.832,22.327 57.787,22.432 57.735,22.537 C57.729,22.55 57.722,22.563 57.716,22.576 C56.888,24.191 54.251,25.778 50.446,26.955 C50.299,27 50.151,27.046 50,27.09 L50,27 L50,26.5 L50,26 L50,17.172 C50.084,17.149 50.161,17.123 50.244,17.1 C50.474,17.035 50.698,16.967 50.921,16.9 C51.11,16.843 51.299,16.785 51.482,16.726 C51.71,16.652 51.93,16.576 52.149,16.499 C52.315,16.441 52.483,16.384 52.644,16.325 C52.875,16.24 53.096,16.151 53.317,16.063 C53.454,16.008 53.596,15.955 53.729,15.899 C53.985,15.791 54.229,15.68 54.471,15.567 C54.558,15.527 54.65,15.488 54.734,15.448 C55.058,15.292 55.369,15.132 55.665,14.969 C55.696,14.952 55.722,14.934 55.753,14.917 C56.014,14.771 56.266,14.622 56.504,14.47 C56.588,14.416 56.663,14.361 56.744,14.307 C56.92,14.19 57.094,14.072 57.256,13.951 C57.345,13.885 57.425,13.817 57.509,13.75 C57.65,13.638 57.791,13.526 57.92,13.412 C57.946,13.389 57.976,13.369 58,13.347 Z M35,2 C48.555,2 58,5.952 58,9.5 C58,9.633 57.986,9.766 57.96,9.899 C57.952,9.943 57.935,9.986 57.924,10.03 C57.901,10.12 57.879,10.209 57.845,10.299 C57.825,10.351 57.798,10.403 57.775,10.455 C57.738,10.536 57.702,10.617 57.656,10.698 C57.625,10.753 57.588,10.808 57.553,10.863 C57.503,10.941 57.453,11.019 57.396,11.096 C57.354,11.152 57.307,11.208 57.261,11.263 C57.198,11.339 57.134,11.415 57.064,11.49 C57.012,11.546 56.956,11.602 56.9,11.658 C56.825,11.732 56.747,11.807 56.664,11.881 C56.602,11.936 56.538,11.992 56.472,12.047 C56.384,12.12 56.292,12.193 56.197,12.266 C56.126,12.32 56.054,12.375 55.979,12.429 C55.878,12.502 55.771,12.574 55.663,12.646 C55.584,12.699 55.505,12.751 55.422,12.804 C55.306,12.877 55.185,12.949 55.062,13.02 C54.977,13.07 54.893,13.12 54.804,13.169 C54.672,13.242 54.532,13.315 54.392,13.388 C54.303,13.434 54.217,13.481 54.125,13.526 C53.972,13.602 53.81,13.676 53.649,13.751 C53.561,13.791 53.478,13.832 53.388,13.872 C53.175,13.966 52.954,14.059 52.729,14.15 C52.684,14.168 52.643,14.187 52.598,14.205 C52.324,14.314 52.04,14.421 51.748,14.526 C51.667,14.555 51.58,14.583 51.498,14.611 C51.284,14.685 51.07,14.759 50.847,14.831 C50.731,14.869 50.609,14.904 50.49,14.941 C50.329,14.991 50.168,15.04 50.003,15.088 L50.003,14.5 L50.003,14 C50.003,13.887 49.976,13.78 49.938,13.678 C49.924,13.638 49.911,13.6 49.892,13.563 C49.89,13.559 49.889,13.553 49.886,13.549 C49.602,12.372 48.764,11.27 47.49,10.27 C47.483,10.264 47.477,10.258 47.469,10.253 C47.287,10.11 47.084,9.973 46.884,9.835 C43.337,7.324 36.809,5.356 27.549,5.049 C26.71,5.018 25.861,5 25,5 C24.146,5 23.297,5.017 22.455,5.048 C19.957,5.131 17.668,5.339 15.571,5.642 C19.445,3.612 26.273,2 35,2 Z M13.493,8.061 C13.745,8.011 14.005,7.967 14.262,7.92 C14.594,7.859 14.928,7.8 15.271,7.745 C15.57,7.697 15.872,7.652 16.176,7.608 C16.513,7.56 16.857,7.515 17.204,7.472 C17.498,7.435 17.791,7.397 18.089,7.365 C18.688,7.3 19.298,7.243 19.922,7.195 C20.159,7.176 20.4,7.164 20.639,7.148 C21.123,7.116 21.611,7.088 22.109,7.067 C22.344,7.057 22.579,7.047 22.816,7.039 C23.534,7.017 24.258,7 25,7 C25.827,7 26.637,7.016 27.433,7.044 C27.913,7.061 28.376,7.092 28.844,7.119 C29.144,7.136 29.451,7.148 29.746,7.169 C30.367,7.214 30.97,7.272 31.567,7.333 C31.69,7.345 31.819,7.354 31.941,7.368 C32.618,7.442 33.277,7.527 33.921,7.621 C33.954,7.626 33.989,7.63 34.021,7.634 C37.39,8.132 40.282,8.89 42.547,9.791 C42.572,9.801 42.599,9.811 42.624,9.821 C43.03,9.984 43.41,10.153 43.773,10.324 C43.829,10.35 43.887,10.376 43.942,10.402 C44.267,10.559 44.567,10.72 44.856,10.882 C44.936,10.927 45.02,10.972 45.097,11.018 C45.346,11.165 45.574,11.314 45.793,11.465 C45.888,11.53 45.984,11.596 46.073,11.662 C46.257,11.798 46.422,11.935 46.58,12.073 C46.675,12.156 46.77,12.239 46.856,12.323 C46.985,12.449 47.1,12.575 47.207,12.702 C47.288,12.798 47.367,12.894 47.435,12.991 C47.521,13.11 47.594,13.23 47.66,13.35 C47.716,13.452 47.765,13.553 47.806,13.654 C47.854,13.773 47.892,13.893 47.92,14.012 C47.959,14.176 48,14.338 48,14.5 C48,18.048 38.555,22 25,22 C11.445,22 2,18.048 2,14.5 C2,12.08 6.399,9.475 13.493,8.061 Z M25,58 C11.964,58 2.599,54.297 2.032,50.838 C2.024,50.793 2.014,50.749 2,50.707 L2,42.293 C2.028,42.319 2.063,42.344 2.092,42.37 C2.31,42.562 2.532,42.753 2.782,42.937 C6.549,45.786 14.082,48 25,48 C35.872,48 43.386,45.804 47.169,42.972 C47.471,42.752 47.743,42.525 47.999,42.294 L48,42.293 L48,50.703 C47.986,50.747 47.976,50.792 47.968,50.838 C47.935,51.042 47.865,51.247 47.772,51.451 C47.736,51.53 47.68,51.609 47.635,51.688 C45.826,54.877 36.971,58 25,58 Z M57.968,45.838 C57.651,47.779 54.654,49.729 49.996,51.093 C49.999,51.063 50,51.031 50,51 L50,41.172 C50.043,41.16 50.083,41.147 50.126,41.135 C50.526,41.023 50.916,40.908 51.294,40.789 C51.298,40.788 51.303,40.786 51.307,40.785 C54.268,39.849 56.527,38.686 58,37.358 L58,45.704 C57.986,45.747 57.976,45.792 57.968,45.838 Z" id="Shape"></path>
        </g>
        <path d="" id="Path-7" stroke="#979797"></path>
    </g>
</svg>