<?xml version="1.0" encoding="UTF-8"?>
<svg width="100px" height="100px" viewBox="0 0 100 100" version="1.1" xmlns="http://www.w3.org/2000/svg" xmlns:xlink="http://www.w3.org/1999/xlink">
    <!-- Generator: Sketch 57.1 (83088) - https://sketch.com -->
    <title>Secure Identity and Access</title>
    <desc>Created with Sketch.</desc>
    <g id="Secure-Identity-and-Access" stroke="none" stroke-width="1" fill="none" fill-rule="evenodd">
        <g id="003-lock" transform="translate(50.310345, 50.500000) scale(-1, 1) translate(-50.310345, -50.500000) translate(21.000000, 8.000000)" fill-rule="nonzero">
            <path d="M29.3103448,43.9655172 C26.0774138,43.9655172 23.4482759,46.5946552 23.4482759,49.8275862 L23.4482759,58.6206897 C23.4482759,61.8536207 26.0774138,64.4827586 29.3103448,64.4827586 C32.5432759,64.4827586 35.1724138,61.8536207 35.1724138,58.6206897 L35.1724138,49.8275862 C35.1724138,46.5946552 32.5432759,43.9655172 29.3103448,43.9655172 Z M32.2413793,58.6206897 C32.2413793,60.2371552 30.9268103,61.5517241 29.3103448,61.5517241 C27.6938793,61.5517241 26.3793103,60.2371552 26.3793103,58.6206897 L26.3793103,49.8275862 C26.3793103,48.2111207 27.6938793,46.8965517 29.3103448,46.8965517 C30.9268103,46.8965517 32.2413793,48.2111207 32.2413793,49.8275862 L32.2413793,58.6206897 Z" id="Shape" fill="#EE495C"></path>
            <path d="M45.4310345,31.2360345 L45.4310345,14.9775862 C45.4310345,6.71939655 38.1987069,0 29.3103448,0 C20.4219828,0 13.1896552,6.71939655 13.1896552,14.9775862 C13.1896552,15.7880172 13.8447414,16.4431034 14.6551724,16.4431034 C15.4656034,16.4431034 16.1206897,15.7880172 16.1206897,14.9775862 C16.1206897,8.33586207 22.0369828,2.93103448 29.3103448,2.93103448 C36.5837069,2.93103448 42.5,8.33586207 42.5,14.9775862 L42.5,29.5418966 C42.2244828,29.4026724 41.9431034,29.279569 41.6646552,29.1491379 C41.0887069,28.8794828 40.5039655,28.6274138 39.9089655,28.3943966 C39.5264655,28.2449138 39.1425,28.1042241 38.7556034,27.9708621 C38.374569,27.840431 37.9964655,27.71 37.609569,27.5956897 C36.9691379,27.4051724 36.3213793,27.2425 35.6692241,27.0959483 C35.3863793,27.032931 35.102069,26.9728448 34.8162931,26.9171552 C34.0498276,26.7691379 33.2789655,26.6489655 32.5022414,26.5625 C32.3263793,26.5434483 32.1505172,26.5317241 31.9746552,26.5156034 C31.0880172,26.432069 30.2013793,26.3793103 29.3103448,26.3793103 C13.1486207,26.3793103 0,39.527931 0,55.6896552 C0,71.8513793 13.1486207,85 29.3103448,85 C45.472069,85 58.6206897,71.8513793 58.6206897,55.6896552 C58.6206897,45.4808621 53.3682759,36.4855172 45.4310345,31.2360345 Z M29.3103448,82.0689655 C14.7650862,82.0689655 2.93103448,70.2349138 2.93103448,55.6896552 C2.93103448,41.1443966 14.7650862,29.3103448 29.3103448,29.3103448 C30.1017241,29.3103448 30.8813793,29.3601724 31.6566379,29.4290517 C31.9072414,29.4525 32.1563793,29.4788793 32.4069828,29.5081897 C32.9594828,29.5726724 33.5046552,29.6606034 34.045431,29.7587931 C34.4206034,29.8276724 34.7943103,29.9024138 35.1665517,29.9874138 C35.6765517,30.1031897 36.1821552,30.2321552 36.680431,30.3772414 C37.0863793,30.4959483 37.487931,30.6307759 37.8880172,30.77 C38.1503448,30.8608621 38.4082759,30.9575862 38.6662069,31.0557759 C40.12,31.6126724 41.5283621,32.297069 42.8766379,33.1089655 C50.5383621,37.7297414 55.6896552,46.109569 55.6896552,55.6896552 C55.6896552,70.2349138 43.8556034,82.0689655 29.3103448,82.0689655 Z" id="Shape" fill="#1E62BD"></path>
        </g>
    </g>
</svg>