<?xml version="1.0" encoding="utf-8"?>
<!-- Generator: Adobe Illustrator 23.1.1, SVG Export Plug-In . SVG Version: 6.00 Build 0)  -->
<svg version="1.1" id="Layer_1" xmlns="http://www.w3.org/2000/svg" xmlns:xlink="http://www.w3.org/1999/xlink" x="0px" y="0px"
	 viewBox="0 0 100 100" style="enable-background:new 0 0 100 100;" xml:space="preserve">
<style type="text/css">
	.st0{fill:#FFB226;}
	.st1{fill:#FFFFFF;}
	.st2{fill:#231F20;}
	.st3{stroke:#000000;stroke-miterlimit:10;}
	.st4{fill:#DFDFDF;stroke:#000000;stroke-width:2;stroke-miterlimit:10;}
	.st5{fill:#FFFFFF;stroke:#000000;stroke-width:2;stroke-miterlimit:10;}
</style>
<ellipse class="st0" cx="50.5" cy="64" rx="28.2" ry="27.7"/>
<ellipse class="st1" cx="50.3" cy="62.3" rx="5.5" ry="9.4"/>
<title>Secure Identity and Access</title>
<desc>Created with Sketch.</desc>
<g id="Secure-Identity-and-Access">
	<g transform="translate(50.310345, 50.500000) scale(-1, 1) translate(-50.310345, -50.500000) translate(21.000000, 8.000000)">
		<path id="Shape" class="st2" d="M29.3,44c-3.2,0-5.9,2.6-5.9,5.9v8.8c0,3.2,2.6,5.9,5.9,5.9s5.9-2.6,5.9-5.9v-8.8
			C35.2,46.6,32.5,44,29.3,44z M32.2,58.6c0,1.6-1.3,2.9-2.9,2.9s-2.9-1.3-2.9-2.9v-8.8c0-1.6,1.3-2.9,2.9-2.9s2.9,1.3,2.9,2.9V58.6
			z"/>
		<path class="st3" d="M45.4,31.2V15c0-8.3-7.2-15-16.1-15S13.2,6.7,13.2,15c0,0.8,0.7,1.5,1.5,1.5s1.5-0.7,1.5-1.5
			c0-6.6,5.9-12,13.2-12s13.2,5.4,13.2,12v14.6c-0.3-0.1-0.6-0.3-0.8-0.4c-0.6-0.3-1.2-0.5-1.8-0.8c-0.4-0.1-0.8-0.3-1.2-0.4
			s-0.8-0.3-1.1-0.4c-0.6-0.2-1.3-0.4-1.9-0.5c-0.3-0.1-0.6-0.1-0.9-0.2c-0.8-0.1-1.5-0.3-2.3-0.4c-0.2,0-0.4,0-0.5,0
			c-0.9-0.1-1.8-0.1-2.7-0.1C13.1,26.4,0,39.5,0,55.7S13.1,85,29.3,85s29.3-13.1,29.3-29.3C58.6,45.5,53.4,36.5,45.4,31.2z
			 M29.3,82.1c-14.5,0-26.4-11.8-26.4-26.4s11.8-26.4,26.4-26.4c0.8,0,1.6,0,2.3,0.1c0.3,0,0.5,0,0.8,0.1c0.6,0.1,1.1,0.2,1.6,0.3
			c0.4,0.1,0.7,0.1,1.1,0.2c0.5,0.1,1,0.2,1.5,0.4c0.4,0.1,0.8,0.3,1.2,0.4c0.3,0.1,0.5,0.2,0.8,0.3c1.5,0.6,2.9,1.2,4.2,2.1
			c7.7,4.6,12.8,13,12.8,22.6C55.7,70.2,43.9,82.1,29.3,82.1z"/>
	</g>
	<circle class="st4" cx="65" cy="84.8" r="10.6"/>
</g>
<path class="st4" d="M74,75.7c-5.2-5.2-13.5-5.2-18.5-0.2c-1.7,1.7-2.8,3.8-3.3,6l-28.1-0.3c-0.8,0-1.5,0.7-1.5,1.5
	c0,0.4,0.2,0.8,0.5,1.1c0.3,0.3,0.7,0.5,1.1,0.5l3.9,0l0.1,7.2c0,0.4,0.2,0.8,0.5,1.1c0.3,0.3,0.7,0.5,1.1,0.5
	c0.8,0,1.5-0.7,1.5-1.5l-0.1-7.2l2.4,0l0.1,5c0,0.4,0.2,0.8,0.5,1.1c0.3,0.3,0.7,0.5,1.1,0.5c0.8,0,1.5-0.7,1.5-1.5l-0.1-5l2.4,0
	l0.1,7.2c0,0.4,0.2,0.8,0.5,1.1s0.7,0.5,1.1,0.5c0.8,0,1.5-0.7,1.5-1.5L42,84.5l9.9,0.1c0,3.4,1.4,6.8,4,9.4
	c5.2,5.2,13.5,5.2,18.5,0.2C79.4,89.1,79.2,80.8,74,75.7z M58,91.8c-4-3.9-4.1-10.3-0.3-14.1c3.8-3.9,10.2-3.8,14.1,0.2
	S76,88.1,72.2,92C68.4,95.8,62,95.8,58,91.8z"/>
<circle class="st5" cx="74.4" cy="84.8" r="2.5"/>
</svg>
