<svg width="1045" height="277" viewBox="0 0 1045 277" fill="none" xmlns="http://www.w3.org/2000/svg">
<circle cx="838.059" cy="103.351" r="101.351" fill="url(#paint0_radial)" stroke="#EE3F3A" stroke-width="4"/>
<circle cx="838.059" cy="95.4006" r="31.3002" fill="#F15566" stroke="#EE3F3A"/>
<circle cx="838.059" cy="103.351" r="67.9005" stroke="#EE3F3A" stroke-width="2"/>
<g filter="url(#filter0_d)">
<mask id="path-4-outside-1" maskUnits="userSpaceOnUse" x="4" y="14.0774" width="829" height="145" fill="black">
<rect fill="white" x="4" y="14.0774" width="829" height="145"/>
<path d="M88.0286 20.0774C87.7056 25.1373 87.4096 30.1433 87.1404 35.0955C86.8713 40.0478 86.5214 45.0538 86.0908 50.1137L51.8558 51.89L51.0484 62.0636H75.1097L73.3334 87.0939L49.1106 87.9013L48.3032 99.6898H82.5381C82.2151 105.611 81.8652 111.505 81.4884 117.372C81.1655 123.186 80.8694 129.026 80.6003 134.894L11 136.508L13.5838 20.0774H88.0286Z"/>
<path d="M181.854 130.49L147.145 134.969L142.947 119.154H126.992L123.493 134.969L87.8047 131.47L115.656 38.2607L154.563 36.3013L181.854 130.49ZM140.427 97.7412L135.109 73.3891L129.931 97.7412H140.427Z"/>
<path d="M268.203 69.0506C268.203 72.6894 267.876 76.0016 267.223 78.9873C266.617 81.9263 265.637 84.6321 264.284 87.1047C262.931 89.5772 261.182 91.8631 259.036 93.9624C256.89 96.0617 254.301 98.0677 251.268 99.9804L267.923 129.651L236.433 135.809L225.657 105.998L216.98 106.278L215.72 135.389H185.63C185.863 124.752 186.073 114.162 186.26 103.619C186.493 93.076 186.749 82.4862 187.029 71.8497C187.123 66.4847 187.216 61.1665 187.309 55.8949C187.403 50.6233 187.589 45.305 187.869 39.9401C191.135 38.7272 194.354 37.7242 197.526 36.9311C200.698 36.138 203.87 35.5316 207.043 35.1117C210.262 34.6452 213.504 34.3419 216.77 34.202C220.082 34.0154 223.464 33.9221 226.916 33.9221C232.235 33.9221 237.366 34.6685 242.311 36.1614C247.303 37.6075 251.711 39.8002 255.537 42.7392C259.362 45.6782 262.418 49.3404 264.704 53.7256C267.036 58.1108 268.203 63.2191 268.203 69.0506ZM236.853 71.2898C236.853 69.3305 236.573 67.5344 236.013 65.9016C235.5 64.2688 234.707 62.8693 233.634 61.703C232.608 60.49 231.301 59.557 229.715 58.9039C228.176 58.2041 226.356 57.8542 224.257 57.8542C223.324 57.8542 222.414 57.9242 221.528 58.0642C220.642 58.1575 219.779 58.3208 218.939 58.554L217.819 84.5855H219.499C221.505 84.5855 223.534 84.3289 225.587 83.8157C227.686 83.3026 229.552 82.5095 231.185 81.4365C232.864 80.3635 234.217 78.9873 235.244 77.3079C236.317 75.6284 236.853 73.6224 236.853 71.2898Z"/>
<path d="M350.073 37.8408L349.373 67.5111L328.52 68.3508L326.001 133.29L296.471 134.829L293.811 69.8903L272.958 71.0099L273.798 37.9808L350.073 37.8408Z"/>
<path d="M433.327 133.925L401.03 135.475L400.771 108.216H385.915L385.01 136.508H356.072L358.527 45.689L389.274 47.1101L387.336 93.4887H401.676L401.805 44.9139L431.26 45.689L433.327 133.925Z"/>
<path d="M536.433 84.4455C536.433 91.5365 535.103 98.301 532.444 104.739C529.832 111.177 525.89 116.822 520.618 121.673L530.275 133.15L504.663 149.664L498.645 133.15C496.872 133.523 495.076 133.803 493.257 133.989C491.484 134.176 489.688 134.269 487.869 134.269C483.39 134.269 479.098 133.709 474.993 132.59C470.888 131.47 467.039 129.907 463.447 127.901C459.854 125.849 456.589 123.376 453.65 120.484C450.711 117.591 448.168 114.372 446.022 110.827C443.923 107.281 442.29 103.456 441.124 99.3506C440.004 95.1987 439.445 90.8834 439.445 86.4049C439.445 81.973 439.981 77.6811 441.054 73.5291C442.174 69.3305 443.736 65.3884 445.742 61.703C447.795 58.0175 450.244 54.6586 453.09 51.6263C455.982 48.5473 459.201 45.9115 462.747 43.7189C466.292 41.4796 470.118 39.7535 474.223 38.5406C478.328 37.3276 482.644 36.7212 487.169 36.7212C494.4 36.7212 501.024 37.8175 507.042 40.0101C513.107 42.2027 518.309 45.3517 522.647 49.457C526.986 53.5623 530.368 58.5773 532.794 64.5021C535.22 70.3801 536.433 77.028 536.433 84.4455ZM502.424 86.4049C502.424 84.2589 502.097 82.1829 501.444 80.1769C500.838 78.1243 499.928 76.3282 498.715 74.7887C497.502 73.2025 495.986 71.943 494.167 71.0099C492.347 70.0769 490.248 69.6104 487.869 69.6104C485.536 69.6104 483.437 70.0302 481.571 70.87C479.705 71.663 478.095 72.7827 476.742 74.2289C475.436 75.6751 474.41 77.3778 473.663 79.3372C472.964 81.2966 472.614 83.4192 472.614 85.7051C472.614 87.8511 472.917 89.9737 473.523 92.073C474.176 94.1257 475.109 95.9917 476.322 97.6712C477.535 99.304 479.052 100.634 480.871 101.66C482.69 102.686 484.79 103.199 487.169 103.199C489.455 103.199 491.531 102.756 493.397 101.87C495.31 100.937 496.919 99.7005 498.225 98.161C499.578 96.6215 500.604 94.8488 501.304 92.8428C502.051 90.7901 502.424 88.6441 502.424 86.4049Z"/>
<path d="M616.283 69.169C616.283 72.1565 616.142 75.4467 615.859 79.0398C615.577 82.6328 615.112 86.347 614.466 90.1823C613.821 94.0176 612.973 97.9134 611.923 101.87C610.914 105.786 609.642 109.561 608.108 113.194C606.574 116.827 604.777 120.239 602.718 123.428C600.7 126.577 598.358 129.343 595.694 131.724C593.07 134.066 590.123 135.903 586.852 137.235C583.582 138.608 579.949 139.294 575.952 139.294C571.269 139.294 567.192 138.527 563.72 136.993C560.288 135.499 557.341 133.481 554.878 130.937C552.416 128.353 550.397 125.366 548.823 121.975C547.248 118.543 546.017 114.93 545.129 111.135C544.24 107.3 543.615 103.404 543.251 99.4475C542.928 95.4508 542.767 91.6155 542.767 87.9417C542.767 82.2897 543.049 76.6579 543.615 71.0463C544.18 65.3943 544.987 59.7625 546.037 54.1508L574.378 55.2409C573.288 61.5792 572.339 67.9579 571.531 74.3769C570.764 80.7556 570.381 87.1746 570.381 93.634C570.381 94.3204 570.401 95.3498 570.441 96.7225C570.522 98.0547 570.643 99.5686 570.805 101.264C570.966 102.919 571.188 104.635 571.471 106.412C571.794 108.148 572.218 109.742 572.743 111.196C573.267 112.649 573.893 113.84 574.62 114.768C575.387 115.697 576.275 116.161 577.284 116.161C578.455 116.161 579.505 115.616 580.433 114.526C581.362 113.396 582.169 111.902 582.856 110.045C583.582 108.188 584.208 106.048 584.733 103.626C585.258 101.204 585.702 98.6805 586.065 96.0563C586.429 93.4322 586.711 90.8081 586.913 88.1839C587.155 85.5598 587.337 83.1173 587.458 80.8565C587.62 78.5957 587.72 76.5973 587.761 74.8614C587.801 73.1254 587.821 71.8335 587.821 70.9857C587.821 67.8367 587.761 64.708 587.64 61.5994C587.559 58.4504 587.418 55.3216 587.216 52.213H615.557C616.041 57.7843 616.283 63.4363 616.283 69.169Z"/>
<path d="M695.853 131.301L665.816 135.176L662.183 121.49H648.376L645.348 135.176L614.464 132.148L638.566 51.4863L672.235 49.7907L695.853 131.301ZM660.003 102.96L655.401 81.886L650.919 102.96H660.003Z"/>
<path d="M771.066 55.5719L743.824 93.2142L766.771 133.23L740.545 137.865L723.363 113.448L722.459 138.995L698.947 139.9L700.755 53.3111L727.094 54.7806L725.059 80.3276L742.58 53.3111L771.066 55.5719Z"/>
<path d="M826.34 55.0067C826.114 58.5486 825.907 62.0529 825.719 65.5194C825.53 68.986 825.285 72.4902 824.984 76.0321L801.019 77.2756L800.454 84.3971H817.297L816.054 101.918L799.098 102.483L798.533 110.735H822.497C822.271 114.88 822.026 119.006 821.762 123.113C821.536 127.183 821.329 131.271 821.141 135.378L772.42 136.508L774.229 55.0067H826.34Z"/>
</mask>
<path d="M88.0286 20.0774C87.7056 25.1373 87.4096 30.1433 87.1404 35.0955C86.8713 40.0478 86.5214 45.0538 86.0908 50.1137L51.8558 51.89L51.0484 62.0636H75.1097L73.3334 87.0939L49.1106 87.9013L48.3032 99.6898H82.5381C82.2151 105.611 81.8652 111.505 81.4884 117.372C81.1655 123.186 80.8694 129.026 80.6003 134.894L11 136.508L13.5838 20.0774H88.0286Z" fill="#7E482C"/>
<path d="M181.854 130.49L147.145 134.969L142.947 119.154H126.992L123.493 134.969L87.8047 131.47L115.656 38.2607L154.563 36.3013L181.854 130.49ZM140.427 97.7412L135.109 73.3891L129.931 97.7412H140.427Z" fill="#7E482C"/>
<path d="M268.203 69.0506C268.203 72.6894 267.876 76.0016 267.223 78.9873C266.617 81.9263 265.637 84.6321 264.284 87.1047C262.931 89.5772 261.182 91.8631 259.036 93.9624C256.89 96.0617 254.301 98.0677 251.268 99.9804L267.923 129.651L236.433 135.809L225.657 105.998L216.98 106.278L215.72 135.389H185.63C185.863 124.752 186.073 114.162 186.26 103.619C186.493 93.076 186.749 82.4862 187.029 71.8497C187.123 66.4847 187.216 61.1665 187.309 55.8949C187.403 50.6233 187.589 45.305 187.869 39.9401C191.135 38.7272 194.354 37.7242 197.526 36.9311C200.698 36.138 203.87 35.5316 207.043 35.1117C210.262 34.6452 213.504 34.3419 216.77 34.202C220.082 34.0154 223.464 33.9221 226.916 33.9221C232.235 33.9221 237.366 34.6685 242.311 36.1614C247.303 37.6075 251.711 39.8002 255.537 42.7392C259.362 45.6782 262.418 49.3404 264.704 53.7256C267.036 58.1108 268.203 63.2191 268.203 69.0506ZM236.853 71.2898C236.853 69.3305 236.573 67.5344 236.013 65.9016C235.5 64.2688 234.707 62.8693 233.634 61.703C232.608 60.49 231.301 59.557 229.715 58.9039C228.176 58.2041 226.356 57.8542 224.257 57.8542C223.324 57.8542 222.414 57.9242 221.528 58.0642C220.642 58.1575 219.779 58.3208 218.939 58.554L217.819 84.5855H219.499C221.505 84.5855 223.534 84.3289 225.587 83.8157C227.686 83.3026 229.552 82.5095 231.185 81.4365C232.864 80.3635 234.217 78.9873 235.244 77.3079C236.317 75.6284 236.853 73.6224 236.853 71.2898Z" fill="#7E482C"/>
<path d="M350.073 37.8408L349.373 67.5111L328.52 68.3508L326.001 133.29L296.471 134.829L293.811 69.8903L272.958 71.0099L273.798 37.9808L350.073 37.8408Z" fill="#7E482C"/>
<path d="M433.327 133.925L401.03 135.475L400.771 108.216H385.915L385.01 136.508H356.072L358.527 45.689L389.274 47.1101L387.336 93.4887H401.676L401.805 44.9139L431.26 45.689L433.327 133.925Z" fill="#7E482C"/>
<path d="M536.433 84.4455C536.433 91.5365 535.103 98.301 532.444 104.739C529.832 111.177 525.89 116.822 520.618 121.673L530.275 133.15L504.663 149.664L498.645 133.15C496.872 133.523 495.076 133.803 493.257 133.989C491.484 134.176 489.688 134.269 487.869 134.269C483.39 134.269 479.098 133.709 474.993 132.59C470.888 131.47 467.039 129.907 463.447 127.901C459.854 125.849 456.589 123.376 453.65 120.484C450.711 117.591 448.168 114.372 446.022 110.827C443.923 107.281 442.29 103.456 441.124 99.3506C440.004 95.1987 439.445 90.8834 439.445 86.4049C439.445 81.973 439.981 77.6811 441.054 73.5291C442.174 69.3305 443.736 65.3884 445.742 61.703C447.795 58.0175 450.244 54.6586 453.09 51.6263C455.982 48.5473 459.201 45.9115 462.747 43.7189C466.292 41.4796 470.118 39.7535 474.223 38.5406C478.328 37.3276 482.644 36.7212 487.169 36.7212C494.4 36.7212 501.024 37.8175 507.042 40.0101C513.107 42.2027 518.309 45.3517 522.647 49.457C526.986 53.5623 530.368 58.5773 532.794 64.5021C535.22 70.3801 536.433 77.028 536.433 84.4455ZM502.424 86.4049C502.424 84.2589 502.097 82.1829 501.444 80.1769C500.838 78.1243 499.928 76.3282 498.715 74.7887C497.502 73.2025 495.986 71.943 494.167 71.0099C492.347 70.0769 490.248 69.6104 487.869 69.6104C485.536 69.6104 483.437 70.0302 481.571 70.87C479.705 71.663 478.095 72.7827 476.742 74.2289C475.436 75.6751 474.41 77.3778 473.663 79.3372C472.964 81.2966 472.614 83.4192 472.614 85.7051C472.614 87.8511 472.917 89.9737 473.523 92.073C474.176 94.1257 475.109 95.9917 476.322 97.6712C477.535 99.304 479.052 100.634 480.871 101.66C482.69 102.686 484.79 103.199 487.169 103.199C489.455 103.199 491.531 102.756 493.397 101.87C495.31 100.937 496.919 99.7005 498.225 98.161C499.578 96.6215 500.604 94.8488 501.304 92.8428C502.051 90.7901 502.424 88.6441 502.424 86.4049Z" fill="#7E482C"/>
<path d="M616.283 69.169C616.283 72.1565 616.142 75.4467 615.859 79.0398C615.577 82.6328 615.112 86.347 614.466 90.1823C613.821 94.0176 612.973 97.9134 611.923 101.87C610.914 105.786 609.642 109.561 608.108 113.194C606.574 116.827 604.777 120.239 602.718 123.428C600.7 126.577 598.358 129.343 595.694 131.724C593.07 134.066 590.123 135.903 586.852 137.235C583.582 138.608 579.949 139.294 575.952 139.294C571.269 139.294 567.192 138.527 563.72 136.993C560.288 135.499 557.341 133.481 554.878 130.937C552.416 128.353 550.397 125.366 548.823 121.975C547.248 118.543 546.017 114.93 545.129 111.135C544.24 107.3 543.615 103.404 543.251 99.4475C542.928 95.4508 542.767 91.6155 542.767 87.9417C542.767 82.2897 543.049 76.6579 543.615 71.0463C544.18 65.3943 544.987 59.7625 546.037 54.1508L574.378 55.2409C573.288 61.5792 572.339 67.9579 571.531 74.3769C570.764 80.7556 570.381 87.1746 570.381 93.634C570.381 94.3204 570.401 95.3498 570.441 96.7225C570.522 98.0547 570.643 99.5686 570.805 101.264C570.966 102.919 571.188 104.635 571.471 106.412C571.794 108.148 572.218 109.742 572.743 111.196C573.267 112.649 573.893 113.84 574.62 114.768C575.387 115.697 576.275 116.161 577.284 116.161C578.455 116.161 579.505 115.616 580.433 114.526C581.362 113.396 582.169 111.902 582.856 110.045C583.582 108.188 584.208 106.048 584.733 103.626C585.258 101.204 585.702 98.6805 586.065 96.0563C586.429 93.4322 586.711 90.8081 586.913 88.1839C587.155 85.5598 587.337 83.1173 587.458 80.8565C587.62 78.5957 587.72 76.5973 587.761 74.8614C587.801 73.1254 587.821 71.8335 587.821 70.9857C587.821 67.8367 587.761 64.708 587.64 61.5994C587.559 58.4504 587.418 55.3216 587.216 52.213H615.557C616.041 57.7843 616.283 63.4363 616.283 69.169Z" fill="#7E482C"/>
<path d="M695.853 131.301L665.816 135.176L662.183 121.49H648.376L645.348 135.176L614.464 132.148L638.566 51.4863L672.235 49.7907L695.853 131.301ZM660.003 102.96L655.401 81.886L650.919 102.96H660.003Z" fill="#7E482C"/>
<path d="M771.066 55.5719L743.824 93.2142L766.771 133.23L740.545 137.865L723.363 113.448L722.459 138.995L698.947 139.9L700.755 53.3111L727.094 54.7806L725.059 80.3276L742.58 53.3111L771.066 55.5719Z" fill="#7E482C"/>
<path d="M826.34 55.0067C826.114 58.5486 825.907 62.0529 825.719 65.5194C825.53 68.986 825.285 72.4902 824.984 76.0321L801.019 77.2756L800.454 84.3971H817.297L816.054 101.918L799.098 102.483L798.533 110.735H822.497C822.271 114.88 822.026 119.006 821.762 123.113C821.536 127.183 821.329 131.271 821.141 135.378L772.42 136.508L774.229 55.0067H826.34Z" fill="#7E482C"/>
<path d="M88.0286 20.0774C87.7056 25.1373 87.4096 30.1433 87.1404 35.0955C86.8713 40.0478 86.5214 45.0538 86.0908 50.1137L51.8558 51.89L51.0484 62.0636H75.1097L73.3334 87.0939L49.1106 87.9013L48.3032 99.6898H82.5381C82.2151 105.611 81.8652 111.505 81.4884 117.372C81.1655 123.186 80.8694 129.026 80.6003 134.894L11 136.508L13.5838 20.0774H88.0286Z" stroke="url(#paint1_linear)" stroke-width="12" mask="url(#path-4-outside-1)"/>
<path d="M181.854 130.49L147.145 134.969L142.947 119.154H126.992L123.493 134.969L87.8047 131.47L115.656 38.2607L154.563 36.3013L181.854 130.49ZM140.427 97.7412L135.109 73.3891L129.931 97.7412H140.427Z" stroke="url(#paint2_linear)" stroke-width="12" mask="url(#path-4-outside-1)"/>
<path d="M268.203 69.0506C268.203 72.6894 267.876 76.0016 267.223 78.9873C266.617 81.9263 265.637 84.6321 264.284 87.1047C262.931 89.5772 261.182 91.8631 259.036 93.9624C256.89 96.0617 254.301 98.0677 251.268 99.9804L267.923 129.651L236.433 135.809L225.657 105.998L216.98 106.278L215.72 135.389H185.63C185.863 124.752 186.073 114.162 186.26 103.619C186.493 93.076 186.749 82.4862 187.029 71.8497C187.123 66.4847 187.216 61.1665 187.309 55.8949C187.403 50.6233 187.589 45.305 187.869 39.9401C191.135 38.7272 194.354 37.7242 197.526 36.9311C200.698 36.138 203.87 35.5316 207.043 35.1117C210.262 34.6452 213.504 34.3419 216.77 34.202C220.082 34.0154 223.464 33.9221 226.916 33.9221C232.235 33.9221 237.366 34.6685 242.311 36.1614C247.303 37.6075 251.711 39.8002 255.537 42.7392C259.362 45.6782 262.418 49.3404 264.704 53.7256C267.036 58.1108 268.203 63.2191 268.203 69.0506ZM236.853 71.2898C236.853 69.3305 236.573 67.5344 236.013 65.9016C235.5 64.2688 234.707 62.8693 233.634 61.703C232.608 60.49 231.301 59.557 229.715 58.9039C228.176 58.2041 226.356 57.8542 224.257 57.8542C223.324 57.8542 222.414 57.9242 221.528 58.0642C220.642 58.1575 219.779 58.3208 218.939 58.554L217.819 84.5855H219.499C221.505 84.5855 223.534 84.3289 225.587 83.8157C227.686 83.3026 229.552 82.5095 231.185 81.4365C232.864 80.3635 234.217 78.9873 235.244 77.3079C236.317 75.6284 236.853 73.6224 236.853 71.2898Z" stroke="url(#paint3_linear)" stroke-width="12" mask="url(#path-4-outside-1)"/>
<path d="M350.073 37.8408L349.373 67.5111L328.52 68.3508L326.001 133.29L296.471 134.829L293.811 69.8903L272.958 71.0099L273.798 37.9808L350.073 37.8408Z" stroke="url(#paint4_linear)" stroke-width="12" mask="url(#path-4-outside-1)"/>
<path d="M433.327 133.925L401.03 135.475L400.771 108.216H385.915L385.01 136.508H356.072L358.527 45.689L389.274 47.1101L387.336 93.4887H401.676L401.805 44.9139L431.26 45.689L433.327 133.925Z" stroke="url(#paint5_linear)" stroke-width="12" mask="url(#path-4-outside-1)"/>
<path d="M536.433 84.4455C536.433 91.5365 535.103 98.301 532.444 104.739C529.832 111.177 525.89 116.822 520.618 121.673L530.275 133.15L504.663 149.664L498.645 133.15C496.872 133.523 495.076 133.803 493.257 133.989C491.484 134.176 489.688 134.269 487.869 134.269C483.39 134.269 479.098 133.709 474.993 132.59C470.888 131.47 467.039 129.907 463.447 127.901C459.854 125.849 456.589 123.376 453.65 120.484C450.711 117.591 448.168 114.372 446.022 110.827C443.923 107.281 442.29 103.456 441.124 99.3506C440.004 95.1987 439.445 90.8834 439.445 86.4049C439.445 81.973 439.981 77.6811 441.054 73.5291C442.174 69.3305 443.736 65.3884 445.742 61.703C447.795 58.0175 450.244 54.6586 453.09 51.6263C455.982 48.5473 459.201 45.9115 462.747 43.7189C466.292 41.4796 470.118 39.7535 474.223 38.5406C478.328 37.3276 482.644 36.7212 487.169 36.7212C494.4 36.7212 501.024 37.8175 507.042 40.0101C513.107 42.2027 518.309 45.3517 522.647 49.457C526.986 53.5623 530.368 58.5773 532.794 64.5021C535.22 70.3801 536.433 77.028 536.433 84.4455ZM502.424 86.4049C502.424 84.2589 502.097 82.1829 501.444 80.1769C500.838 78.1243 499.928 76.3282 498.715 74.7887C497.502 73.2025 495.986 71.943 494.167 71.0099C492.347 70.0769 490.248 69.6104 487.869 69.6104C485.536 69.6104 483.437 70.0302 481.571 70.87C479.705 71.663 478.095 72.7827 476.742 74.2289C475.436 75.6751 474.41 77.3778 473.663 79.3372C472.964 81.2966 472.614 83.4192 472.614 85.7051C472.614 87.8511 472.917 89.9737 473.523 92.073C474.176 94.1257 475.109 95.9917 476.322 97.6712C477.535 99.304 479.052 100.634 480.871 101.66C482.69 102.686 484.79 103.199 487.169 103.199C489.455 103.199 491.531 102.756 493.397 101.87C495.31 100.937 496.919 99.7005 498.225 98.161C499.578 96.6215 500.604 94.8488 501.304 92.8428C502.051 90.7901 502.424 88.6441 502.424 86.4049Z" stroke="url(#paint6_linear)" stroke-width="12" mask="url(#path-4-outside-1)"/>
<path d="M616.283 69.169C616.283 72.1565 616.142 75.4467 615.859 79.0398C615.577 82.6328 615.112 86.347 614.466 90.1823C613.821 94.0176 612.973 97.9134 611.923 101.87C610.914 105.786 609.642 109.561 608.108 113.194C606.574 116.827 604.777 120.239 602.718 123.428C600.7 126.577 598.358 129.343 595.694 131.724C593.07 134.066 590.123 135.903 586.852 137.235C583.582 138.608 579.949 139.294 575.952 139.294C571.269 139.294 567.192 138.527 563.72 136.993C560.288 135.499 557.341 133.481 554.878 130.937C552.416 128.353 550.397 125.366 548.823 121.975C547.248 118.543 546.017 114.93 545.129 111.135C544.24 107.3 543.615 103.404 543.251 99.4475C542.928 95.4508 542.767 91.6155 542.767 87.9417C542.767 82.2897 543.049 76.6579 543.615 71.0463C544.18 65.3943 544.987 59.7625 546.037 54.1508L574.378 55.2409C573.288 61.5792 572.339 67.9579 571.531 74.3769C570.764 80.7556 570.381 87.1746 570.381 93.634C570.381 94.3204 570.401 95.3498 570.441 96.7225C570.522 98.0547 570.643 99.5686 570.805 101.264C570.966 102.919 571.188 104.635 571.471 106.412C571.794 108.148 572.218 109.742 572.743 111.196C573.267 112.649 573.893 113.84 574.62 114.768C575.387 115.697 576.275 116.161 577.284 116.161C578.455 116.161 579.505 115.616 580.433 114.526C581.362 113.396 582.169 111.902 582.856 110.045C583.582 108.188 584.208 106.048 584.733 103.626C585.258 101.204 585.702 98.6805 586.065 96.0563C586.429 93.4322 586.711 90.8081 586.913 88.1839C587.155 85.5598 587.337 83.1173 587.458 80.8565C587.62 78.5957 587.72 76.5973 587.761 74.8614C587.801 73.1254 587.821 71.8335 587.821 70.9857C587.821 67.8367 587.761 64.708 587.64 61.5994C587.559 58.4504 587.418 55.3216 587.216 52.213H615.557C616.041 57.7843 616.283 63.4363 616.283 69.169Z" stroke="url(#paint7_linear)" stroke-width="12" mask="url(#path-4-outside-1)"/>
<path d="M695.853 131.301L665.816 135.176L662.183 121.49H648.376L645.348 135.176L614.464 132.148L638.566 51.4863L672.235 49.7907L695.853 131.301ZM660.003 102.96L655.401 81.886L650.919 102.96H660.003Z" stroke="url(#paint8_linear)" stroke-width="12" mask="url(#path-4-outside-1)"/>
<path d="M771.066 55.5719L743.824 93.2142L766.771 133.23L740.545 137.865L723.363 113.448L722.459 138.995L698.947 139.9L700.755 53.3111L727.094 54.7806L725.059 80.3276L742.58 53.3111L771.066 55.5719Z" stroke="url(#paint9_linear)" stroke-width="12" mask="url(#path-4-outside-1)"/>
<path d="M826.34 55.0067C826.114 58.5486 825.907 62.0529 825.719 65.5194C825.53 68.986 825.285 72.4902 824.984 76.0321L801.019 77.2756L800.454 84.3971H817.297L816.054 101.918L799.098 102.483L798.533 110.735H822.497C822.271 114.88 822.026 119.006 821.762 123.113C821.536 127.183 821.329 131.271 821.141 135.378L772.42 136.508L774.229 55.0067H826.34Z" stroke="url(#paint10_linear)" stroke-width="12" mask="url(#path-4-outside-1)"/>
</g>
<g filter="url(#filter1_d)">
<mask id="path-5-outside-2" maskUnits="userSpaceOnUse" x="535.381" y="95.9678" width="506" height="173" fill="black">
<rect fill="white" x="535.381" y="95.9678" width="506" height="173"/>
<path d="M634.841 251.354L600.321 257.3L596.088 225.248L580.114 227.216L582.891 257.756L551.777 261.591L542.381 163.617L575.629 161.07L579.691 211.193L595.109 209.293L588.64 155.659L620.413 152.59L634.841 251.354Z"/>
<path d="M697.711 141.935C697.97 146.321 698.246 150.659 698.54 154.947C698.833 159.235 699.063 163.578 699.229 167.976L669.97 173.133L670.354 181.97L691.05 179.419L692.176 201.137L671.426 204.4L671.981 214.625L701.428 210.996C701.778 216.124 702.102 221.231 702.4 226.317C702.739 231.352 703.103 236.407 703.493 241.482L643.797 250.25L633.677 149.827L697.711 141.935Z"/>
<path d="M788.476 164.451C788.921 168.062 789.002 171.39 788.719 174.433C788.476 177.424 787.835 180.229 786.795 182.849C785.754 185.468 784.298 187.951 782.425 190.297C780.552 192.643 778.227 194.951 775.452 197.22L795.61 224.63L765.11 234.594L750.769 206.325L742.191 207.665L744.501 236.711L714.637 240.391C713.568 229.806 712.481 219.27 711.376 208.783C710.318 198.29 709.277 187.749 708.254 177.158C707.691 171.822 707.133 166.532 706.58 161.289C706.028 156.045 705.563 150.744 705.185 145.385C708.277 143.782 711.349 142.393 714.401 141.218C717.452 140.042 720.527 139.053 723.624 138.248C726.761 137.391 729.942 136.693 733.166 136.155C736.431 135.565 739.776 135.058 743.202 134.636C748.481 133.986 753.665 134.099 758.756 134.976C763.887 135.8 768.53 137.437 772.687 139.886C776.843 142.335 780.323 145.596 783.129 149.669C785.98 153.736 787.762 158.663 788.476 164.451ZM757.635 170.508C757.396 168.563 756.898 166.815 756.143 165.263C755.434 163.705 754.475 162.413 753.268 161.387C752.101 160.308 750.69 159.542 749.036 159.088C747.423 158.582 745.574 158.457 743.491 158.714C742.565 158.828 741.67 159.009 740.808 159.256C739.939 159.457 739.103 159.725 738.298 160.059L740.371 186.032L742.038 185.826C744.029 185.581 746.011 185.078 747.986 184.318C750.007 183.552 751.762 182.536 753.251 181.272C754.786 180.001 755.961 178.47 756.774 176.678C757.634 174.88 757.921 172.823 757.635 170.508Z"/>
<path d="M883.26 170.96C883.78 175.173 883.796 179.308 883.308 183.363C882.815 187.372 881.854 191.204 880.424 194.859C879.041 198.507 877.206 201.93 874.921 205.126C872.676 208.27 870.036 211.063 866.999 213.505C864.009 215.942 860.664 217.976 856.964 219.607C853.258 221.192 849.252 222.25 844.946 222.78C840.779 223.294 836.731 223.252 832.803 222.655C828.921 222.052 825.22 221.004 821.699 219.511C818.172 217.972 814.9 216.025 811.883 213.67C808.908 211.264 806.268 208.534 803.964 205.48C801.702 202.375 799.804 198.99 798.271 195.324C796.784 191.653 795.787 187.757 795.279 183.636C794.783 179.608 794.784 175.612 795.283 171.65C795.776 167.641 796.714 163.812 798.097 160.163C799.527 156.508 801.362 153.086 803.601 149.896C805.84 146.705 808.428 143.872 811.366 141.394C814.35 138.911 817.647 136.86 821.254 135.24C824.862 133.621 828.749 132.554 832.916 132.04C839.63 131.213 845.87 131.501 851.637 132.906C857.45 134.305 862.541 136.709 866.909 140.119C871.318 143.477 874.927 147.78 877.736 153.027C880.586 158.222 882.427 164.2 883.26 170.96ZM852.646 176.566C852.401 174.575 851.863 172.691 851.033 170.913C850.243 169.083 849.205 167.519 847.916 166.22C846.623 164.876 845.088 163.866 843.313 163.192C841.578 162.466 839.646 162.234 837.516 162.496C835.34 162.764 833.444 163.398 831.828 164.396C830.211 165.394 828.864 166.665 827.785 168.208C826.747 169.699 826.018 171.411 825.598 173.343C825.172 175.228 825.085 177.19 825.336 179.227C825.575 181.171 826.093 183.082 826.888 184.958C827.683 186.834 828.734 188.491 830.039 189.928C831.344 191.366 832.867 192.47 834.607 193.243C836.394 194.01 838.375 194.259 840.551 193.991C842.728 193.723 844.621 193.067 846.231 192.022C847.882 190.925 849.221 189.585 850.248 188.002C851.27 186.372 851.987 184.568 852.402 182.589C852.816 180.611 852.897 178.603 852.646 176.566Z"/>
<path d="M950.438 110.788C950.696 115.175 950.972 119.512 951.266 123.8C951.559 128.088 951.789 132.431 951.955 136.829L922.696 141.987L923.08 150.823L943.776 148.272L944.902 169.991L924.152 173.253L924.707 183.478L954.154 179.849C954.504 184.977 954.828 190.084 955.126 195.17C955.465 200.205 955.829 205.26 956.22 210.336L896.523 219.103L886.403 118.68L950.438 110.788Z"/>
<path d="M1034.62 164.574C1035.4 170.917 1034.98 176.61 1033.34 181.653C1031.75 186.644 1029.22 190.95 1025.77 194.573C1022.36 198.189 1018.18 201.101 1013.24 203.309C1008.34 205.511 1002.95 206.974 997.068 207.699C994.799 207.978 992.261 207.985 989.455 207.72C986.696 207.449 983.873 207.045 980.986 206.508C978.094 205.924 975.289 205.283 972.57 204.584C969.893 203.833 967.501 203.117 965.396 202.436L964.925 173.445C969.152 175.322 973.727 176.591 978.65 177.253C983.614 177.864 988.411 177.884 993.041 177.313C993.92 177.205 994.982 177.05 996.227 176.85C997.466 176.603 998.621 176.249 999.692 175.788C1000.8 175.275 1001.71 174.623 1002.41 173.831C1003.11 173.04 1003.38 171.996 1003.22 170.699C1003.12 169.82 1002.75 169.113 1002.12 168.58C1001.48 168 1000.7 167.579 999.776 167.317C998.845 167.009 997.812 166.831 996.678 166.782C995.539 166.688 994.43 166.66 993.354 166.698C992.278 166.737 991.277 166.813 990.351 166.928C989.425 167.042 988.684 167.133 988.128 167.201C984.146 167.692 980.426 167.446 976.967 166.462C973.555 165.472 970.517 163.896 967.853 161.733C965.23 159.518 963.062 156.8 961.349 153.58C959.63 150.314 958.526 146.69 958.035 142.708C957.362 137.244 957.848 132.225 959.493 127.651C961.179 123.025 963.666 118.982 966.952 115.521C970.28 112.009 974.228 109.149 978.798 106.94C983.367 104.732 988.198 103.314 993.291 102.686C995.56 102.407 997.91 102.211 1000.34 102.1C1002.76 101.942 1005.18 101.926 1007.6 102.051C1010.06 102.171 1012.46 102.416 1014.81 102.784C1017.16 103.153 1019.41 103.698 1021.57 104.419L1022.4 132.942C1019.12 132.265 1015.7 131.793 1012.15 131.526C1008.63 131.208 1005.23 131.251 1001.94 131.656C1001.34 131.731 1000.55 131.851 999.585 132.017C998.659 132.131 997.672 132.323 996.625 132.593C995.617 132.811 994.596 133.102 993.559 133.465C992.523 133.827 991.614 134.268 990.831 134.788C990.044 135.261 989.435 135.853 989.006 136.564C988.576 137.275 988.439 138.067 988.594 138.941C988.765 139.954 989.239 140.742 990.013 141.305C990.828 141.815 991.814 142.187 992.971 142.421C994.168 142.602 995.447 142.68 996.807 142.653C998.213 142.621 999.59 142.545 1000.94 142.426C1002.28 142.261 1003.53 142.106 1004.69 141.964C1005.84 141.775 1006.79 141.681 1007.55 141.682C1011.28 141.457 1014.71 141.834 1017.84 142.811C1020.97 143.789 1023.69 145.263 1026 147.234C1028.35 149.2 1030.26 151.668 1031.7 154.639C1033.19 157.558 1034.16 160.87 1034.62 164.574Z"/>
</mask>
<path d="M634.841 251.354L600.321 257.3L596.088 225.248L580.114 227.216L582.891 257.756L551.777 261.591L542.381 163.617L575.629 161.07L579.691 211.193L595.109 209.293L588.64 155.659L620.413 152.59L634.841 251.354Z" fill="#7E482C"/>
<path d="M697.711 141.935C697.97 146.321 698.246 150.659 698.54 154.947C698.833 159.235 699.063 163.578 699.229 167.976L669.97 173.133L670.354 181.97L691.05 179.419L692.176 201.137L671.426 204.4L671.981 214.625L701.428 210.996C701.778 216.124 702.102 221.231 702.4 226.317C702.739 231.352 703.103 236.407 703.493 241.482L643.797 250.25L633.677 149.827L697.711 141.935Z" fill="#7E482C"/>
<path d="M788.476 164.451C788.921 168.062 789.002 171.39 788.719 174.433C788.476 177.424 787.835 180.229 786.795 182.849C785.754 185.468 784.298 187.951 782.425 190.297C780.552 192.643 778.227 194.951 775.452 197.22L795.61 224.63L765.11 234.594L750.769 206.325L742.191 207.665L744.501 236.711L714.637 240.391C713.568 229.806 712.481 219.27 711.376 208.783C710.318 198.29 709.277 187.749 708.254 177.158C707.691 171.822 707.133 166.532 706.58 161.289C706.028 156.045 705.563 150.744 705.185 145.385C708.277 143.782 711.349 142.393 714.401 141.218C717.452 140.042 720.527 139.053 723.624 138.248C726.761 137.391 729.942 136.693 733.166 136.155C736.431 135.565 739.776 135.058 743.202 134.636C748.481 133.986 753.665 134.099 758.756 134.976C763.887 135.8 768.53 137.437 772.687 139.886C776.843 142.335 780.323 145.596 783.129 149.669C785.98 153.736 787.762 158.663 788.476 164.451ZM757.635 170.508C757.396 168.563 756.898 166.815 756.143 165.263C755.434 163.705 754.475 162.413 753.268 161.387C752.101 160.308 750.69 159.542 749.036 159.088C747.423 158.582 745.574 158.457 743.491 158.714C742.565 158.828 741.67 159.009 740.808 159.256C739.939 159.457 739.103 159.725 738.298 160.059L740.371 186.032L742.038 185.826C744.029 185.581 746.011 185.078 747.986 184.318C750.007 183.552 751.762 182.536 753.251 181.272C754.786 180.001 755.961 178.47 756.774 176.678C757.634 174.88 757.921 172.823 757.635 170.508Z" fill="#7E482C"/>
<path d="M883.26 170.96C883.78 175.173 883.796 179.308 883.308 183.363C882.815 187.372 881.854 191.204 880.424 194.859C879.041 198.507 877.206 201.93 874.921 205.126C872.676 208.27 870.036 211.063 866.999 213.505C864.009 215.942 860.664 217.976 856.964 219.607C853.258 221.192 849.252 222.25 844.946 222.78C840.779 223.294 836.731 223.252 832.803 222.655C828.921 222.052 825.22 221.004 821.699 219.511C818.172 217.972 814.9 216.025 811.883 213.67C808.908 211.264 806.268 208.534 803.964 205.48C801.702 202.375 799.804 198.99 798.271 195.324C796.784 191.653 795.787 187.757 795.279 183.636C794.783 179.608 794.784 175.612 795.283 171.65C795.776 167.641 796.714 163.812 798.097 160.163C799.527 156.508 801.362 153.086 803.601 149.896C805.84 146.705 808.428 143.872 811.366 141.394C814.35 138.911 817.647 136.86 821.254 135.24C824.862 133.621 828.749 132.554 832.916 132.04C839.63 131.213 845.87 131.501 851.637 132.906C857.45 134.305 862.541 136.709 866.909 140.119C871.318 143.477 874.927 147.78 877.736 153.027C880.586 158.222 882.427 164.2 883.26 170.96ZM852.646 176.566C852.401 174.575 851.863 172.691 851.033 170.913C850.243 169.083 849.205 167.519 847.916 166.22C846.623 164.876 845.088 163.866 843.313 163.192C841.578 162.466 839.646 162.234 837.516 162.496C835.34 162.764 833.444 163.398 831.828 164.396C830.211 165.394 828.864 166.665 827.785 168.208C826.747 169.699 826.018 171.411 825.598 173.343C825.172 175.228 825.085 177.19 825.336 179.227C825.575 181.171 826.093 183.082 826.888 184.958C827.683 186.834 828.734 188.491 830.039 189.928C831.344 191.366 832.867 192.47 834.607 193.243C836.394 194.01 838.375 194.259 840.551 193.991C842.728 193.723 844.621 193.067 846.231 192.022C847.882 190.925 849.221 189.585 850.248 188.002C851.27 186.372 851.987 184.568 852.402 182.589C852.816 180.611 852.897 178.603 852.646 176.566Z" fill="#7E482C"/>
<path d="M950.438 110.788C950.696 115.175 950.972 119.512 951.266 123.8C951.559 128.088 951.789 132.431 951.955 136.829L922.696 141.987L923.08 150.823L943.776 148.272L944.902 169.991L924.152 173.253L924.707 183.478L954.154 179.849C954.504 184.977 954.828 190.084 955.126 195.17C955.465 200.205 955.829 205.26 956.22 210.336L896.523 219.103L886.403 118.68L950.438 110.788Z" fill="#7E482C"/>
<path d="M1034.62 164.574C1035.4 170.917 1034.98 176.61 1033.34 181.653C1031.75 186.644 1029.22 190.95 1025.77 194.573C1022.36 198.189 1018.18 201.101 1013.24 203.309C1008.34 205.511 1002.95 206.974 997.068 207.699C994.799 207.978 992.261 207.985 989.455 207.72C986.696 207.449 983.873 207.045 980.986 206.508C978.094 205.924 975.289 205.283 972.57 204.584C969.893 203.833 967.501 203.117 965.396 202.436L964.925 173.445C969.152 175.322 973.727 176.591 978.65 177.253C983.614 177.864 988.411 177.884 993.041 177.313C993.92 177.205 994.982 177.05 996.227 176.85C997.466 176.603 998.621 176.249 999.692 175.788C1000.8 175.275 1001.71 174.623 1002.41 173.831C1003.11 173.04 1003.38 171.996 1003.22 170.699C1003.12 169.82 1002.75 169.113 1002.12 168.58C1001.48 168 1000.7 167.579 999.776 167.317C998.845 167.009 997.812 166.831 996.678 166.782C995.539 166.688 994.43 166.66 993.354 166.698C992.278 166.737 991.277 166.813 990.351 166.928C989.425 167.042 988.684 167.133 988.128 167.201C984.146 167.692 980.426 167.446 976.967 166.462C973.555 165.472 970.517 163.896 967.853 161.733C965.23 159.518 963.062 156.8 961.349 153.58C959.63 150.314 958.526 146.69 958.035 142.708C957.362 137.244 957.848 132.225 959.493 127.651C961.179 123.025 963.666 118.982 966.952 115.521C970.28 112.009 974.228 109.149 978.798 106.94C983.367 104.732 988.198 103.314 993.291 102.686C995.56 102.407 997.91 102.211 1000.34 102.1C1002.76 101.942 1005.18 101.926 1007.6 102.051C1010.06 102.171 1012.46 102.416 1014.81 102.784C1017.16 103.153 1019.41 103.698 1021.57 104.419L1022.4 132.942C1019.12 132.265 1015.7 131.793 1012.15 131.526C1008.63 131.208 1005.23 131.251 1001.94 131.656C1001.34 131.731 1000.55 131.851 999.585 132.017C998.659 132.131 997.672 132.323 996.625 132.593C995.617 132.811 994.596 133.102 993.559 133.465C992.523 133.827 991.614 134.268 990.831 134.788C990.044 135.261 989.435 135.853 989.006 136.564C988.576 137.275 988.439 138.067 988.594 138.941C988.765 139.954 989.239 140.742 990.013 141.305C990.828 141.815 991.814 142.187 992.971 142.421C994.168 142.602 995.447 142.68 996.807 142.653C998.213 142.621 999.59 142.545 1000.94 142.426C1002.28 142.261 1003.53 142.106 1004.69 141.964C1005.84 141.775 1006.79 141.681 1007.55 141.682C1011.28 141.457 1014.71 141.834 1017.84 142.811C1020.97 143.789 1023.69 145.263 1026 147.234C1028.35 149.2 1030.26 151.668 1031.7 154.639C1033.19 157.558 1034.16 160.87 1034.62 164.574Z" fill="#7E482C"/>
<path d="M634.841 251.354L600.321 257.3L596.088 225.248L580.114 227.216L582.891 257.756L551.777 261.591L542.381 163.617L575.629 161.07L579.691 211.193L595.109 209.293L588.64 155.659L620.413 152.59L634.841 251.354Z" stroke="url(#paint11_linear)" stroke-width="12" mask="url(#path-5-outside-2)"/>
<path d="M697.711 141.935C697.97 146.321 698.246 150.659 698.54 154.947C698.833 159.235 699.063 163.578 699.229 167.976L669.97 173.133L670.354 181.97L691.05 179.419L692.176 201.137L671.426 204.4L671.981 214.625L701.428 210.996C701.778 216.124 702.102 221.231 702.4 226.317C702.739 231.352 703.103 236.407 703.493 241.482L643.797 250.25L633.677 149.827L697.711 141.935Z" stroke="url(#paint12_linear)" stroke-width="12" mask="url(#path-5-outside-2)"/>
<path d="M788.476 164.451C788.921 168.062 789.002 171.39 788.719 174.433C788.476 177.424 787.835 180.229 786.795 182.849C785.754 185.468 784.298 187.951 782.425 190.297C780.552 192.643 778.227 194.951 775.452 197.22L795.61 224.63L765.11 234.594L750.769 206.325L742.191 207.665L744.501 236.711L714.637 240.391C713.568 229.806 712.481 219.27 711.376 208.783C710.318 198.29 709.277 187.749 708.254 177.158C707.691 171.822 707.133 166.532 706.58 161.289C706.028 156.045 705.563 150.744 705.185 145.385C708.277 143.782 711.349 142.393 714.401 141.218C717.452 140.042 720.527 139.053 723.624 138.248C726.761 137.391 729.942 136.693 733.166 136.155C736.431 135.565 739.776 135.058 743.202 134.636C748.481 133.986 753.665 134.099 758.756 134.976C763.887 135.8 768.53 137.437 772.687 139.886C776.843 142.335 780.323 145.596 783.129 149.669C785.98 153.736 787.762 158.663 788.476 164.451ZM757.635 170.508C757.396 168.563 756.898 166.815 756.143 165.263C755.434 163.705 754.475 162.413 753.268 161.387C752.101 160.308 750.69 159.542 749.036 159.088C747.423 158.582 745.574 158.457 743.491 158.714C742.565 158.828 741.67 159.009 740.808 159.256C739.939 159.457 739.103 159.725 738.298 160.059L740.371 186.032L742.038 185.826C744.029 185.581 746.011 185.078 747.986 184.318C750.007 183.552 751.762 182.536 753.251 181.272C754.786 180.001 755.961 178.47 756.774 176.678C757.634 174.88 757.921 172.823 757.635 170.508Z" stroke="url(#paint13_linear)" stroke-width="12" mask="url(#path-5-outside-2)"/>
<path d="M883.26 170.96C883.78 175.173 883.796 179.308 883.308 183.363C882.815 187.372 881.854 191.204 880.424 194.859C879.041 198.507 877.206 201.93 874.921 205.126C872.676 208.27 870.036 211.063 866.999 213.505C864.009 215.942 860.664 217.976 856.964 219.607C853.258 221.192 849.252 222.25 844.946 222.78C840.779 223.294 836.731 223.252 832.803 222.655C828.921 222.052 825.22 221.004 821.699 219.511C818.172 217.972 814.9 216.025 811.883 213.67C808.908 211.264 806.268 208.534 803.964 205.48C801.702 202.375 799.804 198.99 798.271 195.324C796.784 191.653 795.787 187.757 795.279 183.636C794.783 179.608 794.784 175.612 795.283 171.65C795.776 167.641 796.714 163.812 798.097 160.163C799.527 156.508 801.362 153.086 803.601 149.896C805.84 146.705 808.428 143.872 811.366 141.394C814.35 138.911 817.647 136.86 821.254 135.24C824.862 133.621 828.749 132.554 832.916 132.04C839.63 131.213 845.87 131.501 851.637 132.906C857.45 134.305 862.541 136.709 866.909 140.119C871.318 143.477 874.927 147.78 877.736 153.027C880.586 158.222 882.427 164.2 883.26 170.96ZM852.646 176.566C852.401 174.575 851.863 172.691 851.033 170.913C850.243 169.083 849.205 167.519 847.916 166.22C846.623 164.876 845.088 163.866 843.313 163.192C841.578 162.466 839.646 162.234 837.516 162.496C835.34 162.764 833.444 163.398 831.828 164.396C830.211 165.394 828.864 166.665 827.785 168.208C826.747 169.699 826.018 171.411 825.598 173.343C825.172 175.228 825.085 177.19 825.336 179.227C825.575 181.171 826.093 183.082 826.888 184.958C827.683 186.834 828.734 188.491 830.039 189.928C831.344 191.366 832.867 192.47 834.607 193.243C836.394 194.01 838.375 194.259 840.551 193.991C842.728 193.723 844.621 193.067 846.231 192.022C847.882 190.925 849.221 189.585 850.248 188.002C851.27 186.372 851.987 184.568 852.402 182.589C852.816 180.611 852.897 178.603 852.646 176.566Z" stroke="url(#paint14_linear)" stroke-width="12" mask="url(#path-5-outside-2)"/>
<path d="M950.438 110.788C950.696 115.175 950.972 119.512 951.266 123.8C951.559 128.088 951.789 132.431 951.955 136.829L922.696 141.987L923.08 150.823L943.776 148.272L944.902 169.991L924.152 173.253L924.707 183.478L954.154 179.849C954.504 184.977 954.828 190.084 955.126 195.17C955.465 200.205 955.829 205.26 956.22 210.336L896.523 219.103L886.403 118.68L950.438 110.788Z" stroke="url(#paint15_linear)" stroke-width="12" mask="url(#path-5-outside-2)"/>
<path d="M1034.62 164.574C1035.4 170.917 1034.98 176.61 1033.34 181.653C1031.75 186.644 1029.22 190.95 1025.77 194.573C1022.36 198.189 1018.18 201.101 1013.24 203.309C1008.34 205.511 1002.95 206.974 997.068 207.699C994.799 207.978 992.261 207.985 989.455 207.72C986.696 207.449 983.873 207.045 980.986 206.508C978.094 205.924 975.289 205.283 972.57 204.584C969.893 203.833 967.501 203.117 965.396 202.436L964.925 173.445C969.152 175.322 973.727 176.591 978.65 177.253C983.614 177.864 988.411 177.884 993.041 177.313C993.92 177.205 994.982 177.05 996.227 176.85C997.466 176.603 998.621 176.249 999.692 175.788C1000.8 175.275 1001.71 174.623 1002.41 173.831C1003.11 173.04 1003.38 171.996 1003.22 170.699C1003.12 169.82 1002.75 169.113 1002.12 168.58C1001.48 168 1000.7 167.579 999.776 167.317C998.845 167.009 997.812 166.831 996.678 166.782C995.539 166.688 994.43 166.66 993.354 166.698C992.278 166.737 991.277 166.813 990.351 166.928C989.425 167.042 988.684 167.133 988.128 167.201C984.146 167.692 980.426 167.446 976.967 166.462C973.555 165.472 970.517 163.896 967.853 161.733C965.23 159.518 963.062 156.8 961.349 153.58C959.63 150.314 958.526 146.69 958.035 142.708C957.362 137.244 957.848 132.225 959.493 127.651C961.179 123.025 963.666 118.982 966.952 115.521C970.28 112.009 974.228 109.149 978.798 106.94C983.367 104.732 988.198 103.314 993.291 102.686C995.56 102.407 997.91 102.211 1000.34 102.1C1002.76 101.942 1005.18 101.926 1007.6 102.051C1010.06 102.171 1012.46 102.416 1014.81 102.784C1017.16 103.153 1019.41 103.698 1021.57 104.419L1022.4 132.942C1019.12 132.265 1015.7 131.793 1012.15 131.526C1008.63 131.208 1005.23 131.251 1001.94 131.656C1001.34 131.731 1000.55 131.851 999.585 132.017C998.659 132.131 997.672 132.323 996.625 132.593C995.617 132.811 994.596 133.102 993.559 133.465C992.523 133.827 991.614 134.268 990.831 134.788C990.044 135.261 989.435 135.853 989.006 136.564C988.576 137.275 988.439 138.067 988.594 138.941C988.765 139.954 989.239 140.742 990.013 141.305C990.828 141.815 991.814 142.187 992.971 142.421C994.168 142.602 995.447 142.68 996.807 142.653C998.213 142.621 999.59 142.545 1000.94 142.426C1002.28 142.261 1003.53 142.106 1004.69 141.964C1005.84 141.775 1006.79 141.681 1007.55 141.682C1011.28 141.457 1014.71 141.834 1017.84 142.811C1020.97 143.789 1023.69 145.263 1026 147.234C1028.35 149.2 1030.26 151.668 1031.7 154.639C1033.19 157.558 1034.16 160.87 1034.62 164.574Z" stroke="url(#paint16_linear)" stroke-width="12" mask="url(#path-5-outside-2)"/>
</g>
<defs>
<filter id="filter0_d" x="0.862183" y="14.0774" width="835.873" height="152.702" filterUnits="userSpaceOnUse" color-interpolation-filters="sRGB">
<feFlood flood-opacity="0" result="BackgroundImageFix"/>
<feColorMatrix in="SourceAlpha" type="matrix" values="0 0 0 0 0 0 0 0 0 0 0 0 0 0 0 0 0 0 127 0"/>
<feOffset dy="4"/>
<feGaussianBlur stdDeviation="2"/>
<feColorMatrix type="matrix" values="0 0 0 0 0 0 0 0 0 0 0 0 0 0 0 0 0 0 0.25 0"/>
<feBlend mode="normal" in2="BackgroundImageFix" result="effect1_dropShadow"/>
<feBlend mode="normal" in="SourceGraphic" in2="effect1_dropShadow" result="shape"/>
</filter>
<filter id="filter1_d" x="531.825" y="95.9678" width="513.175" height="180.332" filterUnits="userSpaceOnUse" color-interpolation-filters="sRGB">
<feFlood flood-opacity="0" result="BackgroundImageFix"/>
<feColorMatrix in="SourceAlpha" type="matrix" values="0 0 0 0 0 0 0 0 0 0 0 0 0 0 0 0 0 0 127 0"/>
<feOffset dy="4"/>
<feGaussianBlur stdDeviation="2"/>
<feColorMatrix type="matrix" values="0 0 0 0 0 0 0 0 0 0 0 0 0 0 0 0 0 0 0.25 0"/>
<feBlend mode="normal" in2="BackgroundImageFix" result="effect1_dropShadow"/>
<feBlend mode="normal" in="SourceGraphic" in2="effect1_dropShadow" result="shape"/>
</filter>
<radialGradient id="paint0_radial" cx="0" cy="0" r="1" gradientUnits="userSpaceOnUse" gradientTransform="translate(838.059 103.351) rotate(90) scale(139.126)">
<stop stop-color="#F15566"/>
<stop offset="0.510417" stop-color="#E37883" stop-opacity="0.6875"/>
<stop offset="1" stop-color="#C4C4C4" stop-opacity="0"/>
</radialGradient>
<linearGradient id="paint1_linear" x1="875.708" y1="163.816" x2="-41.0515" y2="198.563" gradientUnits="userSpaceOnUse">
<stop stop-color="#EE3F3A"/>
<stop offset="0.427083" stop-color="#C0D630"/>
<stop offset="1" stop-color="#11AE54"/>
</linearGradient>
<linearGradient id="paint2_linear" x1="875.708" y1="163.816" x2="-41.0515" y2="198.563" gradientUnits="userSpaceOnUse">
<stop stop-color="#EE3F3A"/>
<stop offset="0.427083" stop-color="#C0D630"/>
<stop offset="1" stop-color="#11AE54"/>
</linearGradient>
<linearGradient id="paint3_linear" x1="875.708" y1="163.816" x2="-41.0515" y2="198.563" gradientUnits="userSpaceOnUse">
<stop stop-color="#EE3F3A"/>
<stop offset="0.427083" stop-color="#C0D630"/>
<stop offset="1" stop-color="#11AE54"/>
</linearGradient>
<linearGradient id="paint4_linear" x1="875.708" y1="163.816" x2="-41.0515" y2="198.563" gradientUnits="userSpaceOnUse">
<stop stop-color="#EE3F3A"/>
<stop offset="0.427083" stop-color="#C0D630"/>
<stop offset="1" stop-color="#11AE54"/>
</linearGradient>
<linearGradient id="paint5_linear" x1="875.708" y1="163.816" x2="-41.0515" y2="198.563" gradientUnits="userSpaceOnUse">
<stop stop-color="#EE3F3A"/>
<stop offset="0.427083" stop-color="#C0D630"/>
<stop offset="1" stop-color="#11AE54"/>
</linearGradient>
<linearGradient id="paint6_linear" x1="875.708" y1="163.816" x2="-41.0515" y2="198.563" gradientUnits="userSpaceOnUse">
<stop stop-color="#EE3F3A"/>
<stop offset="0.427083" stop-color="#C0D630"/>
<stop offset="1" stop-color="#11AE54"/>
</linearGradient>
<linearGradient id="paint7_linear" x1="875.708" y1="163.816" x2="-41.0515" y2="198.563" gradientUnits="userSpaceOnUse">
<stop stop-color="#EE3F3A"/>
<stop offset="0.427083" stop-color="#C0D630"/>
<stop offset="1" stop-color="#11AE54"/>
</linearGradient>
<linearGradient id="paint8_linear" x1="875.708" y1="163.816" x2="-41.0515" y2="198.563" gradientUnits="userSpaceOnUse">
<stop stop-color="#EE3F3A"/>
<stop offset="0.427083" stop-color="#C0D630"/>
<stop offset="1" stop-color="#11AE54"/>
</linearGradient>
<linearGradient id="paint9_linear" x1="875.708" y1="163.816" x2="-41.0515" y2="198.563" gradientUnits="userSpaceOnUse">
<stop stop-color="#EE3F3A"/>
<stop offset="0.427083" stop-color="#C0D630"/>
<stop offset="1" stop-color="#11AE54"/>
</linearGradient>
<linearGradient id="paint10_linear" x1="875.708" y1="163.816" x2="-41.0515" y2="198.563" gradientUnits="userSpaceOnUse">
<stop stop-color="#EE3F3A"/>
<stop offset="0.427083" stop-color="#C0D630"/>
<stop offset="1" stop-color="#11AE54"/>
</linearGradient>
<linearGradient id="paint11_linear" x1="1046.55" y1="256.297" x2="531.242" y2="265.288" gradientUnits="userSpaceOnUse">
<stop stop-color="#BBD155"/>
<stop offset="0.4375" stop-color="#BBD155"/>
<stop offset="0.953125" stop-color="#64BB43"/>
</linearGradient>
<linearGradient id="paint12_linear" x1="1046.55" y1="256.297" x2="531.242" y2="265.288" gradientUnits="userSpaceOnUse">
<stop stop-color="#BBD155"/>
<stop offset="0.4375" stop-color="#BBD155"/>
<stop offset="0.953125" stop-color="#64BB43"/>
</linearGradient>
<linearGradient id="paint13_linear" x1="1046.55" y1="256.297" x2="531.242" y2="265.288" gradientUnits="userSpaceOnUse">
<stop stop-color="#BBD155"/>
<stop offset="0.4375" stop-color="#BBD155"/>
<stop offset="0.953125" stop-color="#64BB43"/>
</linearGradient>
<linearGradient id="paint14_linear" x1="1046.55" y1="256.297" x2="531.242" y2="265.288" gradientUnits="userSpaceOnUse">
<stop stop-color="#BBD155"/>
<stop offset="0.4375" stop-color="#BBD155"/>
<stop offset="0.953125" stop-color="#64BB43"/>
</linearGradient>
<linearGradient id="paint15_linear" x1="1046.55" y1="256.297" x2="531.242" y2="265.288" gradientUnits="userSpaceOnUse">
<stop stop-color="#BBD155"/>
<stop offset="0.4375" stop-color="#BBD155"/>
<stop offset="0.953125" stop-color="#64BB43"/>
</linearGradient>
<linearGradient id="paint16_linear" x1="1046.55" y1="256.297" x2="531.242" y2="265.288" gradientUnits="userSpaceOnUse">
<stop stop-color="#BBD155"/>
<stop offset="0.4375" stop-color="#BBD155"/>
<stop offset="0.953125" stop-color="#64BB43"/>
</linearGradient>
</defs>
</svg>
