<svg width="498" height="231" viewBox="0 0 498 231" fill="none" xmlns="http://www.w3.org/2000/svg">
<mask id="mask0" mask-type="alpha" maskUnits="userSpaceOnUse" x="0" y="0" width="498" height="231">
<rect x="0.110413" y="0.238525" width="497" height="230" fill="#C4C4C4"/>
</mask>
<g mask="url(#mask0)">
<g filter="url(#filter0_d)">
<path d="M40.3814 -26.9667C54.5802 -133.276 482.23 -26.7546 482.23 -26.7546C482.23 -26.7546 482.186 63.3979 482.159 121.163C482.085 274.859 40.3104 120.951 40.3104 120.951C40.3104 120.951 26.1826 79.3429 40.3814 -26.9667Z" fill="#828282"/>
<path d="M45.3374 -26.3048C46.8473 -37.6097 53.7859 -46.3855 65.8745 -53.1107C78.103 -59.9138 95.2302 -64.3685 115.996 -66.8173C157.473 -71.7085 211.777 -68.4226 266.021 -61.764C320.181 -55.1157 373.936 -45.1509 414.176 -36.8409C434.29 -32.6872 451.012 -28.9499 462.702 -26.2522C468.547 -24.9033 473.132 -23.8145 476.254 -23.0636C476.596 -22.9813 476.921 -22.903 477.228 -22.829L477.228 -22.7705L477.228 -22.6488L477.228 -22.5254L477.227 -22.4003L477.227 -22.2735L477.227 -22.145L477.227 -22.0148L477.227 -21.8829L477.227 -21.7494L477.227 -21.6142L477.227 -21.4773L477.227 -21.3388L477.227 -21.1986L477.227 -21.0568L477.227 -20.9133L477.227 -20.7682L477.227 -20.6215L477.227 -20.4732L477.226 -20.3232L477.226 -20.1716L477.226 -20.0184L477.226 -19.8636L477.226 -19.7072L477.226 -19.5492L477.226 -19.3896L477.226 -19.2285L477.226 -19.0657L477.226 -18.9014L477.226 -18.7355L477.226 -18.5681L477.226 -18.3991L477.225 -18.2286L477.225 -18.0565L477.225 -17.8829L477.225 -17.7078L477.225 -17.5311L477.225 -17.3529L477.225 -17.1732L477.225 -16.992L477.225 -16.8092L477.225 -16.625L477.225 -16.4393L477.225 -16.2521L477.224 -16.0634L477.224 -15.8732L477.224 -15.6816L477.224 -15.4885L477.224 -15.2939L477.224 -15.0979L477.224 -14.9004L477.224 -14.7015L477.224 -14.5012L477.224 -14.2994L477.224 -14.0962L477.223 -13.8915L477.223 -13.6855L477.223 -13.478L477.223 -13.2691L477.223 -13.0589L477.223 -12.8472L477.223 -12.6341L477.223 -12.4197L477.223 -12.2039L477.222 -11.9867L477.222 -11.7681L477.222 -11.5482L477.222 -11.3269L477.222 -11.1043L477.222 -10.8803L477.222 -10.655L477.222 -10.4283L477.222 -10.2003L477.222 -9.97104L477.221 -9.74042L477.221 -9.50848L477.221 -9.27523L477.221 -9.04069L477.221 -8.80484L477.221 -8.56771L477.221 -8.32929L477.221 -8.08959L477.221 -7.84861L477.22 -7.60637L477.22 -7.36287L477.22 -7.1181L477.22 -6.87208L477.22 -6.62481L477.22 -6.37631L477.22 -6.12657L477.22 -5.87559L477.219 -5.62339L477.219 -5.36998L477.219 -5.11534L477.219 -4.85949L477.219 -4.60245L477.219 -4.3442L477.219 -4.08477L477.219 -3.82415L477.218 -3.56234L477.218 -3.29936L477.218 -3.03521L477.218 -2.76989L477.218 -2.50341L477.218 -2.23579L477.218 -1.96701L477.218 -1.69709L477.217 -1.42603L477.217 -1.15384L477.217 -0.880521L477.217 -0.606076L477.217 -0.330525L477.217 -0.0538606L477.217 0.22391L477.217 0.50278L477.216 0.782748L477.216 1.0638L477.216 1.34593L477.216 1.62915L477.216 1.91342L477.216 2.19878L477.216 2.48519L477.215 2.77265L477.215 3.06118L477.215 3.35073L477.215 3.64134L477.215 3.93297L477.215 4.22563L477.215 4.51931L477.214 4.81402L477.214 5.10973L477.214 5.40645L477.214 5.70417L477.214 6.00289L477.214 6.30259L477.214 6.60328L477.213 6.90495L477.213 7.20759L477.213 7.5112L477.213 7.81578L477.213 8.1213L477.213 8.42778L477.213 8.73521L477.212 9.04357L477.212 9.35288L477.212 9.66311L477.212 9.97426L477.212 10.2863L477.212 10.5993L477.212 10.9132L477.211 11.228L477.211 11.5437L477.211 11.8603L477.211 12.1778L477.211 12.4961L477.211 12.8153L477.21 13.1354L477.21 13.4564L477.21 13.7782L477.21 14.1009L477.21 14.4244L477.21 14.7487L477.21 15.0739L477.209 15.4L477.209 15.7268L477.209 16.0545L477.209 16.383L477.209 16.7123L477.209 17.0424L477.208 17.3733L477.208 17.7049L477.208 18.0374L477.208 18.3707L477.208 18.7047L477.208 19.0395L477.207 19.3751L477.207 19.7114L477.207 20.0485L477.207 20.3863L477.207 20.7249L477.207 21.0642L477.206 21.4043L477.206 21.745L477.206 22.0865L477.206 22.4287L477.206 22.7717L477.206 23.1153L477.205 23.4596L477.205 23.8046L477.205 24.1503L477.205 24.4967L477.205 24.8438L477.205 25.1915L477.204 25.5399L477.204 25.889L477.204 26.2387L477.204 26.5891L477.204 26.9401L477.204 27.2917L477.203 27.644L477.203 27.997L477.203 28.3505L477.203 28.7047L477.203 29.0594L477.203 29.4148L477.202 29.7708L477.202 30.1273L477.202 30.4845L477.202 30.8423L477.202 31.2006L477.202 31.5595L477.201 31.9189L477.201 32.279L477.201 32.6396L477.201 33.0007L477.201 33.3624L477.201 33.7246L477.2 34.0874L477.2 34.4506L477.2 34.8145L477.2 35.1788L477.2 35.5436L477.2 35.909L477.199 36.2748L477.199 36.6412L477.199 37.008L477.199 37.3754L477.199 37.7432L477.198 38.1115L477.198 38.4802L477.198 38.8494L477.198 39.2191L477.198 39.5892L477.198 39.9598L477.197 40.3308L477.197 40.7023L477.197 41.0742L477.197 41.4465L477.197 41.8192L477.196 42.1923L477.196 42.5659L477.196 42.9398L477.196 43.3142L477.196 43.689L477.196 44.0641L477.195 44.4396L477.195 44.8155L477.195 45.1918L477.195 45.5684L477.195 45.9454L477.195 46.3227L477.194 46.7004L477.194 47.0785L477.194 47.4568L477.194 47.8355L477.194 48.2146L477.193 48.5939L477.193 48.9736L477.193 49.3536L477.193 49.7339L477.193 50.1144L477.193 50.4953L477.192 50.8765L477.192 51.2579L477.192 51.6397L477.192 52.0217L477.192 52.4039L477.191 52.7865L477.191 53.1692L477.191 53.5523L477.191 53.9356L477.191 54.3191L477.19 54.7028L477.19 55.0868L477.19 55.471L477.19 55.8554L477.19 56.2401L477.19 56.6249L477.189 57.0099L477.189 57.3952L477.189 57.7806L477.189 58.1662L477.189 58.552L477.188 58.938L477.188 59.3241L477.188 59.7104L477.188 60.0968L477.188 60.4834L477.188 60.8702L477.187 61.2571L477.187 61.6441L477.187 62.0313L477.187 62.4185L477.187 62.8059L477.186 63.1934L477.186 63.5811L477.186 63.9688L477.186 64.3566L477.186 64.7445L477.185 65.1325L477.185 65.5206L477.185 65.9087L477.185 66.2969L477.185 66.6852L477.185 67.0736L477.184 67.462L477.184 67.8504L477.184 68.2389L477.184 68.6274L477.184 69.0159L477.183 69.4045L477.183 69.7931L477.183 70.1817L477.183 70.5704L477.183 70.959L477.182 71.3476L477.182 71.7362L477.182 72.1248L477.182 72.5134L477.182 72.902L477.182 73.2905L477.181 73.679L477.181 74.0675L477.181 74.4559L477.181 74.8442L477.181 75.2325L477.18 75.6208L477.18 76.009L477.18 76.3971L477.18 76.7851L477.18 77.173L477.18 77.5609L477.179 77.9486L477.179 78.3363L477.179 78.7238L477.179 79.1113L477.179 79.4986L477.178 79.8858L477.178 80.2729L477.178 80.6598L477.178 81.0466L477.178 81.4333L477.177 81.8198L477.177 82.2061L477.177 82.5923L477.177 82.9783L477.177 83.3642L477.177 83.7498L477.176 84.1353L477.176 84.5206L477.176 84.9058L477.176 85.2907L477.176 85.6754L477.175 86.0599L477.175 86.4442L477.175 86.8282L477.175 87.2121L477.175 87.5957L477.175 87.979L477.174 88.3621L477.174 88.745L477.174 89.1276L477.174 89.51L477.174 89.8921L477.173 90.2739L477.173 90.6555L477.173 91.0367L477.173 91.4177L477.173 91.7984L477.172 92.1788L477.172 92.5589L477.172 92.9387L477.172 93.3182L477.172 93.6973L477.172 94.0761L477.171 94.4546L477.171 94.8328L477.171 95.2106L477.171 95.5881L477.171 95.9652L477.171 96.3419L477.17 96.7183L477.17 97.0944L477.17 97.47L477.17 97.8453L477.17 98.2202L477.169 98.5947L477.169 98.9688L477.169 99.3425L477.169 99.7158L477.169 100.089L477.169 100.461L477.168 100.833L477.168 101.205L477.168 101.576L477.168 101.947L477.168 102.317L477.167 102.687L477.167 103.056L477.167 103.425L477.167 103.794L477.167 104.162L477.167 104.529L477.166 104.896L477.166 105.263L477.166 105.629L477.166 105.994L477.166 106.359L477.166 106.724L477.165 107.088L477.165 107.451L477.165 107.814L477.165 108.177L477.165 108.538L477.164 108.9L477.164 109.261L477.164 109.621L477.164 109.98L477.164 110.34L477.164 110.698L477.163 111.056L477.163 111.413L477.163 111.77L477.163 112.126L477.163 112.482L477.163 112.837L477.162 113.191L477.162 113.545L477.162 113.898L477.162 114.251L477.162 114.603L477.162 114.954L477.161 115.304L477.161 115.654L477.161 116.004L477.161 116.352L477.161 116.7L477.161 117.048L477.16 117.394L477.16 117.74L477.16 118.085L477.16 118.43L477.16 118.774L477.16 119.117L477.159 119.46L477.159 119.801L477.159 120.142L477.159 120.483L477.159 120.822L477.159 121.161C477.15 139.008 470.806 152.008 459.873 161.507C448.747 171.173 432.49 177.531 412.234 181.044C371.696 188.075 317.176 183.38 262.066 173.768C207.089 164.179 152.057 149.797 110.733 137.796C90.0805 131.799 72.8722 126.403 60.8322 122.507C54.8125 120.56 50.0858 118.988 46.8676 117.904C45.9124 117.582 45.0901 117.303 44.4064 117.071C44.0908 115.839 43.6813 114.097 43.2294 111.817C42.168 106.463 40.8719 98.1412 40.0077 86.4886C38.2791 63.1825 38.278 26.551 45.3374 -26.3048Z" stroke="#6E54A4" stroke-width="10"/>
</g>
<g filter="url(#filter1_d)">
<path d="M21.5068 -3.86344C35.7056 -110.173 463.355 -3.65136 463.355 -3.65136C463.355 -3.65136 463.312 86.5011 463.284 144.267C463.21 297.962 21.4358 144.055 21.4358 144.055C21.4358 144.055 7.308 102.446 21.5068 -3.86344Z" fill="#BDBDBD"/>
<path d="M23.9848 -3.53247C25.6272 -15.8293 33.214 -25.1988 45.7845 -32.1921C58.4249 -39.2244 75.9234 -43.7316 96.8285 -46.1968C138.611 -51.1241 193.157 -47.8068 247.451 -41.1421C301.703 -34.4825 355.53 -24.5036 395.807 -16.1859C415.943 -12.0278 432.684 -8.28628 444.389 -5.58485C450.242 -4.23417 454.835 -3.14358 457.964 -2.39102C459.137 -2.10895 460.104 -1.87438 460.854 -1.6914L460.854 -1.64653L460.854 -1.55832L460.854 -1.46829L460.854 -1.37646L460.854 -1.28283L460.854 -1.1874L460.854 -1.09018L460.854 -0.991176L460.854 -0.890396L460.854 -0.787842L460.854 -0.683521L460.853 -0.577438L460.853 -0.4696L460.853 -0.360008L460.853 -0.248672L460.853 -0.135593L460.853 -0.0207823L460.853 0.0957605L460.853 0.214024L460.853 0.334007L460.853 0.455704L460.853 0.579105L460.853 0.704212L460.853 0.831013L460.853 0.959507L460.853 1.08968L460.853 1.22154L460.853 1.35508L460.852 1.49028L460.852 1.62714L460.852 1.76566L460.852 1.90584L460.852 2.04766L460.852 2.19113L460.852 2.33623L460.852 2.48296L460.852 2.63132L460.852 2.78129L460.852 2.93288L460.852 3.08608L460.852 3.24088L460.852 3.39729L460.851 3.55527L460.851 3.71485L460.851 3.87601L460.851 4.03875L460.851 4.20306L460.851 4.36893L460.851 4.53637L460.851 4.70535L460.851 4.87588L460.851 5.04796L460.851 5.22157L460.851 5.39672L460.851 5.57339L460.85 5.75159L460.85 5.9313L460.85 6.11252L460.85 6.29524L460.85 6.47947L460.85 6.66518L460.85 6.85239L460.85 7.04108L460.85 7.23125L460.85 7.42288L460.85 7.61599L460.849 7.81055L460.849 8.00657L460.849 8.20404L460.849 8.40296L460.849 8.60331L460.849 8.8051L460.849 9.00831L460.849 9.21295L460.849 9.41901L460.849 9.62647L460.848 9.83534L460.848 10.0456L460.848 10.2573L460.848 10.4703L460.848 10.6848L460.848 10.9006L460.848 11.1178L460.848 11.3364L460.848 11.5563L460.848 11.7776L460.847 12.0002L460.847 12.2242L460.847 12.4495L460.847 12.6761L460.847 12.9041L460.847 13.1334L460.847 13.3641L460.847 13.596L460.847 13.8292L460.846 14.0638L460.846 14.2996L460.846 14.5368L460.846 14.7752L460.846 15.0149L460.846 15.2559L460.846 15.4981L460.846 15.7416L460.846 15.9864L460.845 16.2324L460.845 16.4797L460.845 16.7282L460.845 16.9779L460.845 17.2289L460.845 17.4811L460.845 17.7345L460.845 17.9891L460.844 18.245L460.844 18.502L460.844 18.7603L460.844 19.0197L460.844 19.2803L460.844 19.5421L460.844 19.8051L460.844 20.0693L460.843 20.3346L460.843 20.6011L460.843 20.8687L460.843 21.1375L460.843 21.4074L460.843 21.6784L460.843 21.9506L460.843 22.224L460.842 22.4984L460.842 22.7739L460.842 23.0506L460.842 23.3284L460.842 23.6073L460.842 23.8872L460.842 24.1683L460.841 24.4504L460.841 24.7336L460.841 25.0179L460.841 25.3033L460.841 25.5897L460.841 25.8771L460.841 26.1656L460.841 26.4552L460.84 26.7458L460.84 27.0374L460.84 27.3301L460.84 27.6238L460.84 27.9185L460.84 28.2142L460.84 28.5109L460.839 28.8086L460.839 29.1074L460.839 29.4071L460.839 29.7078L460.839 30.0094L460.839 30.3121L460.839 30.6157L460.838 30.9202L460.838 31.2258L460.838 31.5323L460.838 31.8397L460.838 32.1481L460.838 32.4573L460.837 32.7676L460.837 33.0787L460.837 33.3908L460.837 33.7038L460.837 34.0177L460.837 34.3325L460.837 34.6482L460.836 34.9648L460.836 35.2822L460.836 35.6006L460.836 35.9198L460.836 36.2399L460.836 36.5609L460.835 36.8827L460.835 37.2053L460.835 37.5289L460.835 37.8532L460.835 38.1784L460.835 38.5044L460.835 38.8313L460.834 39.159L460.834 39.4874L460.834 39.8167L460.834 40.1468L460.834 40.4777L460.834 40.8094L460.833 41.1419L460.833 41.4752L460.833 41.8092L460.833 42.144L460.833 42.4796L460.833 42.8159L460.832 43.153L460.832 43.4908L460.832 43.8294L460.832 44.1687L460.832 44.5087L460.832 44.8495L460.832 45.191L460.831 45.5332L460.831 45.8761L460.831 46.2198L460.831 46.5641L460.831 46.9091L460.831 47.2548L460.83 47.6012L460.83 47.9483L460.83 48.296L460.83 48.6444L460.83 48.9935L460.83 49.3432L460.829 49.6936L460.829 50.0446L460.829 50.3962L460.829 50.7485L460.829 51.1014L460.829 51.455L460.828 51.8091L460.828 52.1639L460.828 52.5193L460.828 52.8752L460.828 53.2318L460.827 53.589L460.827 53.9467L460.827 54.3051L460.827 54.6639L460.827 55.0234L460.827 55.3834L460.826 55.744L460.826 56.1052L460.826 56.4669L460.826 56.8291L460.826 57.1918L460.826 57.5551L460.825 57.9189L460.825 58.2833L460.825 58.6481L460.825 59.0135L460.825 59.3793L460.825 59.7457L460.824 60.1125L460.824 60.4798L460.824 60.8476L460.824 61.2159L460.824 61.5847L460.823 61.9539L460.823 62.3236L460.823 62.6937L460.823 63.0643L460.823 63.4353L460.823 63.8067L460.822 64.1786L460.822 64.5509L460.822 64.9237L460.822 65.2968L460.822 65.6704L460.821 66.0443L460.821 66.4187L460.821 66.7934L460.821 67.1686L460.821 67.5441L460.821 67.92L460.82 68.2962L460.82 68.6729L460.82 69.0499L460.82 69.4272L460.82 69.8049L460.82 70.1829L460.819 70.5613L460.819 70.94L460.819 71.319L460.819 71.6984L460.819 72.0781L460.818 72.458L460.818 72.8383L460.818 73.2189L460.818 73.5998L460.818 73.981L460.818 74.3624L460.817 74.7441L460.817 75.1261L460.817 75.5084L460.817 75.8909L460.817 76.2737L460.816 76.6568L460.816 77.04L460.816 77.4236L460.816 77.8073L460.816 78.1913L460.815 78.5755L460.815 78.9599L460.815 79.3445L460.815 79.7294L460.815 80.1144L460.815 80.4996L460.814 80.8851L460.814 81.2707L460.814 81.6565L460.814 82.0424L460.814 82.4286L460.813 82.8149L460.813 83.2013L460.813 83.5879L460.813 83.9747L460.813 84.3616L460.813 84.7486L460.812 85.1357L460.812 85.523L460.812 85.9104L460.812 86.2979L460.812 86.6855L460.811 87.0733L460.811 87.4611L460.811 87.849L460.811 88.237L460.811 88.625L460.81 89.0132L460.81 89.4014L460.81 89.7897L460.81 90.178L460.81 90.5664L460.81 90.9549L460.809 91.3434L460.809 91.7319L460.809 92.1204L460.809 92.509L460.809 92.8976L460.808 93.2862L460.808 93.6748L460.808 94.0635L460.808 94.4521L460.808 94.8407L460.807 95.2293L460.807 95.6179L460.807 96.0065L460.807 96.395L460.807 96.7835L460.807 97.1719L460.806 97.5603L460.806 97.9487L460.806 98.337L460.806 98.7253L460.806 99.1134L460.805 99.5015L460.805 99.8896L460.805 100.277L460.805 100.665L460.805 101.053L460.805 101.441L460.804 101.828L460.804 102.216L460.804 102.603L460.804 102.99L460.804 103.377L460.803 103.764L460.803 104.151L460.803 104.538L460.803 104.924L460.803 105.311L460.802 105.697L460.802 106.083L460.802 106.469L460.802 106.854L460.802 107.24L460.802 107.625L460.801 108.01L460.801 108.395L460.801 108.78L460.801 109.164L460.801 109.549L460.8 109.933L460.8 110.317L460.8 110.7L460.8 111.083L460.8 111.467L460.8 111.849L460.799 112.232L460.799 112.614L460.799 112.997L460.799 113.378L460.799 113.76L460.798 114.141L460.798 114.522L460.798 114.903L460.798 115.283L460.798 115.663L460.798 116.043L460.797 116.423L460.797 116.802L460.797 117.181L460.797 117.559L460.797 117.937L460.796 118.315L460.796 118.693L460.796 119.07L460.796 119.446L460.796 119.823L460.796 120.199L460.795 120.574L460.795 120.95L460.795 121.325L460.795 121.699L460.795 122.073L460.794 122.447L460.794 122.82L460.794 123.193L460.794 123.566L460.794 123.938L460.794 124.309L460.793 124.68L460.793 125.051L460.793 125.421L460.793 125.791L460.793 126.161L460.792 126.53L460.792 126.898L460.792 127.266L460.792 127.633L460.792 128.001L460.792 128.367L460.791 128.733L460.791 129.099L460.791 129.464L460.791 129.828L460.791 130.192L460.791 130.556L460.79 130.919L460.79 131.281L460.79 131.643L460.79 132.004L460.79 132.365L460.789 132.725L460.789 133.085L460.789 133.444L460.789 133.803L460.789 134.16L460.789 134.518L460.788 134.875L460.788 135.231L460.788 135.586L460.788 135.941L460.788 136.296L460.788 136.65L460.787 137.003L460.787 137.355L460.787 137.707L460.787 138.058L460.787 138.409L460.787 138.759L460.786 139.108L460.786 139.457L460.786 139.805L460.786 140.152L460.786 140.499L460.786 140.845L460.785 141.19L460.785 141.535L460.785 141.878L460.785 142.222L460.785 142.564L460.785 142.906L460.784 143.247L460.784 143.587L460.784 143.927L460.784 144.266C460.775 162.795 454.148 176.498 442.638 186.498C431.031 196.581 414.271 203.058 393.787 206.611C352.804 213.718 297.93 208.956 242.762 199.334C187.66 189.723 132.532 175.314 91.1614 163.3C70.4806 157.295 53.248 151.891 41.188 147.989C35.1582 146.038 30.422 144.463 27.1951 143.376C25.5816 142.833 24.3455 142.412 23.5137 142.127C23.4962 142.121 23.4788 142.115 23.4617 142.109C23.4046 141.905 23.3412 141.674 23.2721 141.415C22.9277 140.123 22.4435 138.135 21.9025 135.406C20.8205 129.948 19.5113 121.526 18.6399 109.777C16.8971 86.2783 16.9054 49.4728 23.9848 -3.53247Z" stroke="#6E54A4" stroke-width="5"/>
</g>
<path opacity="0.5" d="M439.658 31.0766L414.733 -5.12862L431.079 24.7324L416.955 31.3041L442.335 67.2974L426.548 83.6866L459.912 114.673L435.661 79.4468L452.063 71.8151L427.812 36.5884L439.658 31.0766Z" fill="#4F4F4F"/>
<path opacity="0.5" d="M155.46 -12.342L128.067 -53.8983L145.865 -19.8222L129.605 -13.1573L157.523 28.184L139.102 45.7208L176.245 81.8541L149.592 41.4209L168.475 33.681L141.822 -6.75213L155.46 -12.342Z" fill="#4F4F4F"/>
<path opacity="0.5" d="M294.017 111.571L258.831 74.8782L281.447 105.946L259.469 116.172L295.364 152.535L270.118 174.32L318.533 203.424L284.297 167.723L309.82 155.848L275.585 120.147L294.017 111.571Z" fill="#4F4F4F"/>
<path opacity="0.5" d="M48.5774 71.3352L23.6525 35.1299L39.9989 64.9909L25.8748 71.5627L51.2552 107.556L35.468 123.945L68.8315 154.932L44.5803 119.705L60.9825 112.074L36.7313 76.8469L48.5774 71.3352Z" fill="#4F4F4F"/>
<circle cx="360.61" cy="107.27" r="35.5" fill="url(#paint0_radial)" stroke="#EE3F3A" stroke-width="4"/>
<circle cx="360.61" cy="104.385" r="11.0385" fill="#F15566" stroke="#EE3F3A"/>
<circle cx="360.61" cy="107.27" r="24" stroke="#EE3F3A" stroke-width="2"/>
<g filter="url(#filter2_d)">
<mask id="path-13-outside-1" maskUnits="userSpaceOnUse" x="53.5187" y="71.0544" width="310" height="63" fill="black">
<rect fill="white" x="53.5187" y="71.0544" width="310" height="63"/>
<path d="M88.4679 77.0544C88.3507 78.8904 88.2433 80.7068 88.1456 82.5037C88.048 84.3005 87.921 86.1169 87.7648 87.9529L75.3429 88.5974L75.0499 92.2888H83.7804L83.1359 101.371L74.3468 101.664L74.0538 105.941H86.4757C86.3585 108.09 86.2316 110.228 86.0948 112.357C85.9777 114.467 85.8702 116.586 85.7726 118.715L60.5187 119.301L61.4562 77.0544H88.4679Z"/>
<path d="M122.512 117.117L109.918 118.742L108.394 113.004H102.605L101.336 118.742L88.3866 117.472L98.4921 83.6521L112.609 82.9412L122.512 117.117ZM107.48 105.234L105.551 96.3982L103.672 105.234H107.48Z"/>
<path d="M153.843 94.824C153.843 96.1443 153.724 97.3461 153.487 98.4294C153.267 99.4958 152.912 100.478 152.421 101.375C151.93 102.272 151.295 103.101 150.516 103.863C149.738 104.625 148.798 105.353 147.698 106.047L153.741 116.812L142.315 119.047L138.405 108.23L135.257 108.332L134.8 118.894H123.882C123.966 115.035 124.043 111.192 124.11 107.367C124.195 103.541 124.288 99.699 124.39 95.8396C124.423 93.893 124.457 91.9633 124.491 90.0505C124.525 88.1378 124.593 86.2081 124.694 84.2615C125.879 83.8214 127.047 83.4574 128.198 83.1697C129.349 82.8819 130.5 82.6619 131.651 82.5095C132.819 82.3403 133.996 82.2302 135.181 82.1794C136.382 82.1117 137.61 82.0779 138.862 82.0779C140.792 82.0779 142.654 82.3487 144.448 82.8904C146.259 83.4151 147.859 84.2107 149.247 85.2771C150.635 86.3435 151.744 87.6723 152.573 89.2634C153.419 90.8546 153.843 92.7081 153.843 94.824ZM142.468 95.6365C142.468 94.9255 142.366 94.2738 142.163 93.6814C141.977 93.0889 141.689 92.5811 141.3 92.158C140.927 91.7179 140.453 91.3793 139.878 91.1423C139.319 90.8884 138.659 90.7615 137.897 90.7615C137.559 90.7615 137.229 90.7869 136.907 90.8376C136.586 90.8715 136.272 90.9307 135.968 91.0154L135.561 100.461H136.171C136.899 100.461 137.635 100.368 138.38 100.181C139.141 99.9952 139.819 99.7074 140.411 99.3181C141.02 98.9288 141.511 98.4294 141.884 97.8201C142.273 97.2107 142.468 96.4828 142.468 95.6365Z"/>
<path d="M183.549 83.4998L183.295 94.2654L175.728 94.5701L174.814 118.133L164.099 118.691L163.135 95.1287L155.568 95.5349L155.873 83.5505L183.549 83.4998Z"/>
<path d="M213.757 118.363L202.038 118.926L201.944 109.035H196.554L196.225 119.301H185.725L186.616 86.3474L197.772 86.863L197.069 103.691H202.272L202.319 86.0662L213.007 86.3474L213.757 118.363Z"/>
<path d="M251.168 100.41C251.168 102.983 250.685 105.437 249.721 107.773C248.773 110.109 247.342 112.157 245.43 113.918L248.933 118.082L239.64 124.074L237.457 118.082C236.814 118.217 236.162 118.319 235.502 118.386C234.859 118.454 234.207 118.488 233.547 118.488C231.922 118.488 230.364 118.285 228.875 117.879C227.385 117.472 225.989 116.905 224.685 116.177C223.382 115.433 222.197 114.536 221.131 113.486C220.064 112.437 219.142 111.269 218.363 109.982C217.601 108.696 217.009 107.308 216.586 105.818C216.18 104.312 215.976 102.746 215.976 101.121C215.976 99.5128 216.171 97.9555 216.56 96.449C216.967 94.9255 217.534 93.4952 218.262 92.158C219.006 90.8207 219.895 89.602 220.928 88.5017C221.977 87.3845 223.145 86.4281 224.431 85.6326C225.718 84.8201 227.106 84.1938 228.596 83.7537C230.085 83.3136 231.651 83.0935 233.293 83.0935C235.917 83.0935 238.32 83.4913 240.504 84.2869C242.704 85.0824 244.592 86.225 246.166 87.7146C247.74 89.2042 248.967 91.0238 249.848 93.1736C250.728 95.3064 251.168 97.7185 251.168 100.41ZM238.828 101.121C238.828 100.342 238.709 99.5889 238.473 98.8611C238.252 98.1163 237.922 97.4646 237.482 96.906C237.042 96.3305 236.492 95.8735 235.832 95.5349C235.172 95.1964 234.41 95.0271 233.547 95.0271C232.7 95.0271 231.939 95.1794 231.262 95.4841C230.584 95.7719 230 96.1781 229.51 96.7029C229.036 97.2276 228.663 97.8455 228.392 98.5564C228.139 99.2673 228.012 100.038 228.012 100.867C228.012 101.646 228.122 102.416 228.342 103.177C228.579 103.922 228.917 104.599 229.357 105.209C229.797 105.801 230.348 106.284 231.008 106.656C231.668 107.028 232.43 107.215 233.293 107.215C234.122 107.215 234.875 107.054 235.553 106.732C236.247 106.394 236.831 105.945 237.305 105.386C237.795 104.828 238.168 104.185 238.422 103.457C238.693 102.712 238.828 101.933 238.828 101.121Z"/>
<path d="M280.141 94.8669C280.141 95.9509 280.09 97.1448 279.987 98.4485C279.885 99.7522 279.716 101.1 279.482 102.491C279.247 103.883 278.94 105.297 278.559 106.732C278.193 108.153 277.731 109.523 277.175 110.841C276.618 112.159 275.966 113.397 275.219 114.554C274.487 115.697 273.637 116.7 272.67 117.565C271.718 118.414 270.649 119.081 269.462 119.564C268.276 120.062 266.957 120.311 265.507 120.311C263.808 120.311 262.328 120.033 261.069 119.476C259.824 118.934 258.754 118.202 257.861 117.279C256.967 116.342 256.235 115.258 255.663 114.027C255.092 112.782 254.645 111.471 254.323 110.094C254.001 108.702 253.774 107.289 253.642 105.853C253.525 104.403 253.466 103.011 253.466 101.678C253.466 99.6277 253.569 97.5842 253.774 95.5481C253.979 93.4973 254.272 91.4539 254.653 89.4177L264.936 89.8132C264.54 92.113 264.196 94.4275 263.903 96.7566C263.625 99.071 263.486 101.4 263.486 103.744C263.486 103.993 263.493 104.366 263.508 104.865C263.537 105.348 263.581 105.897 263.639 106.512C263.698 107.113 263.779 107.736 263.881 108.38C263.998 109.01 264.152 109.589 264.343 110.116C264.533 110.643 264.76 111.075 265.024 111.412C265.302 111.749 265.624 111.918 265.991 111.918C266.415 111.918 266.796 111.72 267.133 111.324C267.47 110.914 267.763 110.372 268.012 109.698C268.276 109.025 268.503 108.248 268.693 107.369C268.884 106.49 269.045 105.575 269.177 104.623C269.308 103.671 269.411 102.719 269.484 101.766C269.572 100.814 269.638 99.928 269.682 99.1077C269.741 98.2874 269.777 97.5623 269.792 96.9324C269.806 96.3025 269.814 95.8337 269.814 95.5261C269.814 94.3835 269.792 93.2483 269.748 92.1204C269.719 90.9778 269.667 89.8425 269.594 88.7146H279.877C280.053 90.7361 280.141 92.7869 280.141 94.8669Z"/>
<path d="M309.012 117.411L298.114 118.817L296.795 113.851H291.786L290.687 118.817L279.481 117.719L288.226 88.4509L300.443 87.8357L309.012 117.411ZM296.004 107.128L294.334 99.4812L292.708 107.128H296.004Z"/>
<path d="M336.303 89.9333L326.418 103.592L334.744 118.111L325.229 119.793L318.994 110.933L318.666 120.203L310.135 120.531L310.791 89.113L320.348 89.6462L319.609 98.9158L325.967 89.113L336.303 89.9333Z"/>
<path d="M356.359 89.7283C356.277 91.0134 356.201 92.2849 356.133 93.5427C356.065 94.8005 355.976 96.072 355.866 97.3572L347.171 97.8083L346.966 100.392H353.077L352.626 106.75L346.474 106.955L346.269 109.949H354.964C354.882 111.453 354.793 112.95 354.697 114.44C354.615 115.917 354.54 117.4 354.472 118.89L336.794 119.301L337.45 89.7283H356.359Z"/>
</mask>
<path d="M88.4679 77.0544C88.3507 78.8904 88.2433 80.7068 88.1456 82.5037C88.048 84.3005 87.921 86.1169 87.7648 87.9529L75.3429 88.5974L75.0499 92.2888H83.7804L83.1359 101.371L74.3468 101.664L74.0538 105.941H86.4757C86.3585 108.09 86.2316 110.228 86.0948 112.357C85.9777 114.467 85.8702 116.586 85.7726 118.715L60.5187 119.301L61.4562 77.0544H88.4679Z" fill="#7E482C"/>
<path d="M122.512 117.117L109.918 118.742L108.394 113.004H102.605L101.336 118.742L88.3866 117.472L98.4921 83.6521L112.609 82.9412L122.512 117.117ZM107.48 105.234L105.551 96.3982L103.672 105.234H107.48Z" fill="#7E482C"/>
<path d="M153.843 94.824C153.843 96.1443 153.724 97.3461 153.487 98.4294C153.267 99.4958 152.912 100.478 152.421 101.375C151.93 102.272 151.295 103.101 150.516 103.863C149.738 104.625 148.798 105.353 147.698 106.047L153.741 116.812L142.315 119.047L138.405 108.23L135.257 108.332L134.8 118.894H123.882C123.966 115.035 124.043 111.192 124.11 107.367C124.195 103.541 124.288 99.699 124.39 95.8396C124.423 93.893 124.457 91.9633 124.491 90.0505C124.525 88.1378 124.593 86.2081 124.694 84.2615C125.879 83.8214 127.047 83.4574 128.198 83.1697C129.349 82.8819 130.5 82.6619 131.651 82.5095C132.819 82.3403 133.996 82.2302 135.181 82.1794C136.382 82.1117 137.61 82.0779 138.862 82.0779C140.792 82.0779 142.654 82.3487 144.448 82.8904C146.259 83.4151 147.859 84.2107 149.247 85.2771C150.635 86.3435 151.744 87.6723 152.573 89.2634C153.419 90.8546 153.843 92.7081 153.843 94.824ZM142.468 95.6365C142.468 94.9255 142.366 94.2738 142.163 93.6814C141.977 93.0889 141.689 92.5811 141.3 92.158C140.927 91.7179 140.453 91.3793 139.878 91.1423C139.319 90.8884 138.659 90.7615 137.897 90.7615C137.559 90.7615 137.229 90.7869 136.907 90.8376C136.586 90.8715 136.272 90.9307 135.968 91.0154L135.561 100.461H136.171C136.899 100.461 137.635 100.368 138.38 100.181C139.141 99.9952 139.819 99.7074 140.411 99.3181C141.02 98.9288 141.511 98.4294 141.884 97.8201C142.273 97.2107 142.468 96.4828 142.468 95.6365Z" fill="#7E482C"/>
<path d="M183.549 83.4998L183.295 94.2654L175.728 94.5701L174.814 118.133L164.099 118.691L163.135 95.1287L155.568 95.5349L155.873 83.5505L183.549 83.4998Z" fill="#7E482C"/>
<path d="M213.757 118.363L202.038 118.926L201.944 109.035H196.554L196.225 119.301H185.725L186.616 86.3474L197.772 86.863L197.069 103.691H202.272L202.319 86.0662L213.007 86.3474L213.757 118.363Z" fill="#7E482C"/>
<path d="M251.168 100.41C251.168 102.983 250.685 105.437 249.721 107.773C248.773 110.109 247.342 112.157 245.43 113.918L248.933 118.082L239.64 124.074L237.457 118.082C236.814 118.217 236.162 118.319 235.502 118.386C234.859 118.454 234.207 118.488 233.547 118.488C231.922 118.488 230.364 118.285 228.875 117.879C227.385 117.472 225.989 116.905 224.685 116.177C223.382 115.433 222.197 114.536 221.131 113.486C220.064 112.437 219.142 111.269 218.363 109.982C217.601 108.696 217.009 107.308 216.586 105.818C216.18 104.312 215.976 102.746 215.976 101.121C215.976 99.5128 216.171 97.9555 216.56 96.449C216.967 94.9255 217.534 93.4952 218.262 92.158C219.006 90.8207 219.895 89.602 220.928 88.5017C221.977 87.3845 223.145 86.4281 224.431 85.6326C225.718 84.8201 227.106 84.1938 228.596 83.7537C230.085 83.3136 231.651 83.0935 233.293 83.0935C235.917 83.0935 238.32 83.4913 240.504 84.2869C242.704 85.0824 244.592 86.225 246.166 87.7146C247.74 89.2042 248.967 91.0238 249.848 93.1736C250.728 95.3064 251.168 97.7185 251.168 100.41ZM238.828 101.121C238.828 100.342 238.709 99.5889 238.473 98.8611C238.252 98.1163 237.922 97.4646 237.482 96.906C237.042 96.3305 236.492 95.8735 235.832 95.5349C235.172 95.1964 234.41 95.0271 233.547 95.0271C232.7 95.0271 231.939 95.1794 231.262 95.4841C230.584 95.7719 230 96.1781 229.51 96.7029C229.036 97.2276 228.663 97.8455 228.392 98.5564C228.139 99.2673 228.012 100.038 228.012 100.867C228.012 101.646 228.122 102.416 228.342 103.177C228.579 103.922 228.917 104.599 229.357 105.209C229.797 105.801 230.348 106.284 231.008 106.656C231.668 107.028 232.43 107.215 233.293 107.215C234.122 107.215 234.875 107.054 235.553 106.732C236.247 106.394 236.831 105.945 237.305 105.386C237.795 104.828 238.168 104.185 238.422 103.457C238.693 102.712 238.828 101.933 238.828 101.121Z" fill="#7E482C"/>
<path d="M280.141 94.8669C280.141 95.9509 280.09 97.1448 279.987 98.4485C279.885 99.7522 279.716 101.1 279.482 102.491C279.247 103.883 278.94 105.297 278.559 106.732C278.193 108.153 277.731 109.523 277.175 110.841C276.618 112.159 275.966 113.397 275.219 114.554C274.487 115.697 273.637 116.7 272.67 117.565C271.718 118.414 270.649 119.081 269.462 119.564C268.276 120.062 266.957 120.311 265.507 120.311C263.808 120.311 262.328 120.033 261.069 119.476C259.824 118.934 258.754 118.202 257.861 117.279C256.967 116.342 256.235 115.258 255.663 114.027C255.092 112.782 254.645 111.471 254.323 110.094C254.001 108.702 253.774 107.289 253.642 105.853C253.525 104.403 253.466 103.011 253.466 101.678C253.466 99.6277 253.569 97.5842 253.774 95.5481C253.979 93.4973 254.272 91.4539 254.653 89.4177L264.936 89.8132C264.54 92.113 264.196 94.4275 263.903 96.7566C263.625 99.071 263.486 101.4 263.486 103.744C263.486 103.993 263.493 104.366 263.508 104.865C263.537 105.348 263.581 105.897 263.639 106.512C263.698 107.113 263.779 107.736 263.881 108.38C263.998 109.01 264.152 109.589 264.343 110.116C264.533 110.643 264.76 111.075 265.024 111.412C265.302 111.749 265.624 111.918 265.991 111.918C266.415 111.918 266.796 111.72 267.133 111.324C267.47 110.914 267.763 110.372 268.012 109.698C268.276 109.025 268.503 108.248 268.693 107.369C268.884 106.49 269.045 105.575 269.177 104.623C269.308 103.671 269.411 102.719 269.484 101.766C269.572 100.814 269.638 99.928 269.682 99.1077C269.741 98.2874 269.777 97.5623 269.792 96.9324C269.806 96.3025 269.814 95.8337 269.814 95.5261C269.814 94.3835 269.792 93.2483 269.748 92.1204C269.719 90.9778 269.667 89.8425 269.594 88.7146H279.877C280.053 90.7361 280.141 92.7869 280.141 94.8669Z" fill="#7E482C"/>
<path d="M309.012 117.411L298.114 118.817L296.795 113.851H291.786L290.687 118.817L279.481 117.719L288.226 88.4509L300.443 87.8357L309.012 117.411ZM296.004 107.128L294.334 99.4812L292.708 107.128H296.004Z" fill="#7E482C"/>
<path d="M336.303 89.9333L326.418 103.592L334.744 118.111L325.229 119.793L318.994 110.933L318.666 120.203L310.135 120.531L310.791 89.113L320.348 89.6462L319.609 98.9158L325.967 89.113L336.303 89.9333Z" fill="#7E482C"/>
<path d="M356.359 89.7283C356.277 91.0134 356.201 92.2849 356.133 93.5427C356.065 94.8005 355.976 96.072 355.866 97.3572L347.171 97.8083L346.966 100.392H353.077L352.626 106.75L346.474 106.955L346.269 109.949H354.964C354.882 111.453 354.793 112.95 354.697 114.44C354.615 115.917 354.54 117.4 354.472 118.89L336.794 119.301L337.45 89.7283H356.359Z" fill="#7E482C"/>
<path d="M88.4679 77.0544C88.3507 78.8904 88.2433 80.7068 88.1456 82.5037C88.048 84.3005 87.921 86.1169 87.7648 87.9529L75.3429 88.5974L75.0499 92.2888H83.7804L83.1359 101.371L74.3468 101.664L74.0538 105.941H86.4757C86.3585 108.09 86.2316 110.228 86.0948 112.357C85.9777 114.467 85.8702 116.586 85.7726 118.715L60.5187 119.301L61.4562 77.0544H88.4679Z" stroke="url(#paint1_linear)" stroke-width="12" mask="url(#path-13-outside-1)"/>
<path d="M122.512 117.117L109.918 118.742L108.394 113.004H102.605L101.336 118.742L88.3866 117.472L98.4921 83.6521L112.609 82.9412L122.512 117.117ZM107.48 105.234L105.551 96.3982L103.672 105.234H107.48Z" stroke="url(#paint2_linear)" stroke-width="12" mask="url(#path-13-outside-1)"/>
<path d="M153.843 94.824C153.843 96.1443 153.724 97.3461 153.487 98.4294C153.267 99.4958 152.912 100.478 152.421 101.375C151.93 102.272 151.295 103.101 150.516 103.863C149.738 104.625 148.798 105.353 147.698 106.047L153.741 116.812L142.315 119.047L138.405 108.23L135.257 108.332L134.8 118.894H123.882C123.966 115.035 124.043 111.192 124.11 107.367C124.195 103.541 124.288 99.699 124.39 95.8396C124.423 93.893 124.457 91.9633 124.491 90.0505C124.525 88.1378 124.593 86.2081 124.694 84.2615C125.879 83.8214 127.047 83.4574 128.198 83.1697C129.349 82.8819 130.5 82.6619 131.651 82.5095C132.819 82.3403 133.996 82.2302 135.181 82.1794C136.382 82.1117 137.61 82.0779 138.862 82.0779C140.792 82.0779 142.654 82.3487 144.448 82.8904C146.259 83.4151 147.859 84.2107 149.247 85.2771C150.635 86.3435 151.744 87.6723 152.573 89.2634C153.419 90.8546 153.843 92.7081 153.843 94.824ZM142.468 95.6365C142.468 94.9255 142.366 94.2738 142.163 93.6814C141.977 93.0889 141.689 92.5811 141.3 92.158C140.927 91.7179 140.453 91.3793 139.878 91.1423C139.319 90.8884 138.659 90.7615 137.897 90.7615C137.559 90.7615 137.229 90.7869 136.907 90.8376C136.586 90.8715 136.272 90.9307 135.968 91.0154L135.561 100.461H136.171C136.899 100.461 137.635 100.368 138.38 100.181C139.141 99.9952 139.819 99.7074 140.411 99.3181C141.02 98.9288 141.511 98.4294 141.884 97.8201C142.273 97.2107 142.468 96.4828 142.468 95.6365Z" stroke="url(#paint3_linear)" stroke-width="12" mask="url(#path-13-outside-1)"/>
<path d="M183.549 83.4998L183.295 94.2654L175.728 94.5701L174.814 118.133L164.099 118.691L163.135 95.1287L155.568 95.5349L155.873 83.5505L183.549 83.4998Z" stroke="url(#paint4_linear)" stroke-width="12" mask="url(#path-13-outside-1)"/>
<path d="M213.757 118.363L202.038 118.926L201.944 109.035H196.554L196.225 119.301H185.725L186.616 86.3474L197.772 86.863L197.069 103.691H202.272L202.319 86.0662L213.007 86.3474L213.757 118.363Z" stroke="url(#paint5_linear)" stroke-width="12" mask="url(#path-13-outside-1)"/>
<path d="M251.168 100.41C251.168 102.983 250.685 105.437 249.721 107.773C248.773 110.109 247.342 112.157 245.43 113.918L248.933 118.082L239.64 124.074L237.457 118.082C236.814 118.217 236.162 118.319 235.502 118.386C234.859 118.454 234.207 118.488 233.547 118.488C231.922 118.488 230.364 118.285 228.875 117.879C227.385 117.472 225.989 116.905 224.685 116.177C223.382 115.433 222.197 114.536 221.131 113.486C220.064 112.437 219.142 111.269 218.363 109.982C217.601 108.696 217.009 107.308 216.586 105.818C216.18 104.312 215.976 102.746 215.976 101.121C215.976 99.5128 216.171 97.9555 216.56 96.449C216.967 94.9255 217.534 93.4952 218.262 92.158C219.006 90.8207 219.895 89.602 220.928 88.5017C221.977 87.3845 223.145 86.4281 224.431 85.6326C225.718 84.8201 227.106 84.1938 228.596 83.7537C230.085 83.3136 231.651 83.0935 233.293 83.0935C235.917 83.0935 238.32 83.4913 240.504 84.2869C242.704 85.0824 244.592 86.225 246.166 87.7146C247.74 89.2042 248.967 91.0238 249.848 93.1736C250.728 95.3064 251.168 97.7185 251.168 100.41ZM238.828 101.121C238.828 100.342 238.709 99.5889 238.473 98.8611C238.252 98.1163 237.922 97.4646 237.482 96.906C237.042 96.3305 236.492 95.8735 235.832 95.5349C235.172 95.1964 234.41 95.0271 233.547 95.0271C232.7 95.0271 231.939 95.1794 231.262 95.4841C230.584 95.7719 230 96.1781 229.51 96.7029C229.036 97.2276 228.663 97.8455 228.392 98.5564C228.139 99.2673 228.012 100.038 228.012 100.867C228.012 101.646 228.122 102.416 228.342 103.177C228.579 103.922 228.917 104.599 229.357 105.209C229.797 105.801 230.348 106.284 231.008 106.656C231.668 107.028 232.43 107.215 233.293 107.215C234.122 107.215 234.875 107.054 235.553 106.732C236.247 106.394 236.831 105.945 237.305 105.386C237.795 104.828 238.168 104.185 238.422 103.457C238.693 102.712 238.828 101.933 238.828 101.121Z" stroke="url(#paint6_linear)" stroke-width="12" mask="url(#path-13-outside-1)"/>
<path d="M280.141 94.8669C280.141 95.9509 280.09 97.1448 279.987 98.4485C279.885 99.7522 279.716 101.1 279.482 102.491C279.247 103.883 278.94 105.297 278.559 106.732C278.193 108.153 277.731 109.523 277.175 110.841C276.618 112.159 275.966 113.397 275.219 114.554C274.487 115.697 273.637 116.7 272.67 117.565C271.718 118.414 270.649 119.081 269.462 119.564C268.276 120.062 266.957 120.311 265.507 120.311C263.808 120.311 262.328 120.033 261.069 119.476C259.824 118.934 258.754 118.202 257.861 117.279C256.967 116.342 256.235 115.258 255.663 114.027C255.092 112.782 254.645 111.471 254.323 110.094C254.001 108.702 253.774 107.289 253.642 105.853C253.525 104.403 253.466 103.011 253.466 101.678C253.466 99.6277 253.569 97.5842 253.774 95.5481C253.979 93.4973 254.272 91.4539 254.653 89.4177L264.936 89.8132C264.54 92.113 264.196 94.4275 263.903 96.7566C263.625 99.071 263.486 101.4 263.486 103.744C263.486 103.993 263.493 104.366 263.508 104.865C263.537 105.348 263.581 105.897 263.639 106.512C263.698 107.113 263.779 107.736 263.881 108.38C263.998 109.01 264.152 109.589 264.343 110.116C264.533 110.643 264.76 111.075 265.024 111.412C265.302 111.749 265.624 111.918 265.991 111.918C266.415 111.918 266.796 111.72 267.133 111.324C267.47 110.914 267.763 110.372 268.012 109.698C268.276 109.025 268.503 108.248 268.693 107.369C268.884 106.49 269.045 105.575 269.177 104.623C269.308 103.671 269.411 102.719 269.484 101.766C269.572 100.814 269.638 99.928 269.682 99.1077C269.741 98.2874 269.777 97.5623 269.792 96.9324C269.806 96.3025 269.814 95.8337 269.814 95.5261C269.814 94.3835 269.792 93.2483 269.748 92.1204C269.719 90.9778 269.667 89.8425 269.594 88.7146H279.877C280.053 90.7361 280.141 92.7869 280.141 94.8669Z" stroke="url(#paint7_linear)" stroke-width="12" mask="url(#path-13-outside-1)"/>
<path d="M309.012 117.411L298.114 118.817L296.795 113.851H291.786L290.687 118.817L279.481 117.719L288.226 88.4509L300.443 87.8357L309.012 117.411ZM296.004 107.128L294.334 99.4812L292.708 107.128H296.004Z" stroke="url(#paint8_linear)" stroke-width="12" mask="url(#path-13-outside-1)"/>
<path d="M336.303 89.9333L326.418 103.592L334.744 118.111L325.229 119.793L318.994 110.933L318.666 120.203L310.135 120.531L310.791 89.113L320.348 89.6462L319.609 98.9158L325.967 89.113L336.303 89.9333Z" stroke="url(#paint9_linear)" stroke-width="12" mask="url(#path-13-outside-1)"/>
<path d="M356.359 89.7283C356.277 91.0134 356.201 92.2849 356.133 93.5427C356.065 94.8005 355.976 96.072 355.866 97.3572L347.171 97.8083L346.966 100.392H353.077L352.626 106.75L346.474 106.955L346.269 109.949H354.964C354.882 111.453 354.793 112.95 354.697 114.44C354.615 115.917 354.54 117.4 354.472 118.89L336.794 119.301L337.45 89.7283H356.359Z" stroke="url(#paint10_linear)" stroke-width="12" mask="url(#path-13-outside-1)"/>
</g>
<g filter="url(#filter3_d)">
<mask id="path-14-outside-2" maskUnits="userSpaceOnUse" x="246.326" y="106.936" width="192" height="71" fill="black">
<rect fill="white" x="246.326" y="106.936" width="192" height="71"/>
<path d="M286.874 167.14L274.349 169.297L272.813 157.667L267.017 158.382L268.025 169.463L256.735 170.854L253.326 135.305L265.39 134.381L266.864 152.568L272.458 151.878L270.111 132.418L281.639 131.304L286.874 167.14Z"/>
<path d="M309.686 127.438C309.78 129.029 309.88 130.603 309.987 132.159C310.093 133.715 310.177 135.291 310.237 136.887L299.621 138.758L299.76 141.964L307.269 141.039L307.678 148.919L300.149 150.103L300.35 153.813L311.035 152.496C311.162 154.357 311.28 156.21 311.388 158.055C311.511 159.882 311.643 161.716 311.784 163.558L290.124 166.739L286.452 130.301L309.686 127.438Z"/>
<path d="M342.62 135.608C342.781 136.918 342.81 138.125 342.708 139.229C342.62 140.315 342.387 141.333 342.01 142.283C341.632 143.233 341.104 144.134 340.424 144.986C339.744 145.837 338.901 146.674 337.894 147.497L345.208 157.443L334.142 161.058L328.938 150.801L325.825 151.287L326.664 161.826L315.828 163.162C315.44 159.321 315.045 155.498 314.645 151.693C314.261 147.886 313.883 144.061 313.512 140.218C313.307 138.282 313.105 136.363 312.905 134.46C312.704 132.558 312.535 130.634 312.398 128.69C313.52 128.108 314.635 127.604 315.742 127.178C316.849 126.751 317.965 126.392 319.089 126.1C320.227 125.789 321.381 125.536 322.551 125.341C323.735 125.126 324.949 124.943 326.193 124.79C328.108 124.553 329.989 124.595 331.836 124.913C333.698 125.212 335.383 125.806 336.891 126.694C338.399 127.583 339.662 128.766 340.679 130.244C341.714 131.72 342.361 133.508 342.62 135.608ZM331.429 137.805C331.342 137.1 331.162 136.465 330.888 135.902C330.631 135.337 330.283 134.868 329.845 134.496C329.421 134.105 328.909 133.826 328.309 133.662C327.724 133.478 327.053 133.433 326.297 133.526C325.961 133.567 325.637 133.633 325.324 133.723C325.009 133.796 324.705 133.893 324.413 134.014L325.165 143.438L325.77 143.364C326.492 143.274 327.212 143.092 327.928 142.816C328.661 142.538 329.298 142.17 329.839 141.711C330.396 141.25 330.822 140.694 331.117 140.044C331.429 139.391 331.533 138.645 331.429 137.805Z"/>
<path d="M377.011 137.969C377.2 139.498 377.206 140.998 377.029 142.47C376.85 143.924 376.501 145.315 375.982 146.641C375.48 147.965 374.815 149.206 373.985 150.366C373.171 151.507 372.213 152.52 371.111 153.407C370.026 154.291 368.813 155.029 367.47 155.62C366.125 156.196 364.672 156.579 363.109 156.772C361.597 156.958 360.129 156.943 358.703 156.726C357.295 156.508 355.952 156.128 354.674 155.586C353.395 155.027 352.207 154.321 351.113 153.466C350.033 152.593 349.075 151.603 348.24 150.495C347.418 149.368 346.73 148.14 346.174 146.81C345.634 145.478 345.272 144.064 345.088 142.569C344.908 141.107 344.908 139.657 345.089 138.22C345.268 136.765 345.609 135.376 346.111 134.052C346.629 132.726 347.295 131.484 348.108 130.326C348.92 129.169 349.859 128.141 350.925 127.242C352.008 126.341 353.204 125.596 354.513 125.009C355.822 124.421 357.233 124.034 358.745 123.848C361.181 123.547 363.445 123.652 365.537 124.162C367.646 124.669 369.493 125.542 371.079 126.779C372.678 127.997 373.988 129.559 375.007 131.462C376.041 133.348 376.709 135.516 377.011 137.969ZM365.903 140.003C365.814 139.281 365.619 138.597 365.318 137.952C365.031 137.288 364.655 136.721 364.187 136.25C363.718 135.762 363.161 135.395 362.517 135.151C361.887 134.887 361.186 134.803 360.413 134.898C359.624 134.996 358.936 135.225 358.349 135.588C357.763 135.95 357.274 136.411 356.883 136.971C356.506 137.512 356.241 138.133 356.089 138.834C355.934 139.518 355.903 140.23 355.994 140.969C356.081 141.674 356.269 142.368 356.557 143.048C356.846 143.729 357.227 144.33 357.7 144.852C358.174 145.373 358.727 145.774 359.358 146.055C360.006 146.333 360.725 146.423 361.515 146.326C362.304 146.229 362.991 145.991 363.576 145.612C364.175 145.214 364.661 144.727 365.033 144.153C365.404 143.561 365.664 142.907 365.815 142.189C365.965 141.471 365.994 140.743 365.903 140.003Z"/>
<path d="M401.386 116.136C401.48 117.728 401.58 119.302 401.687 120.858C401.793 122.414 401.876 123.99 401.937 125.585L391.32 127.457L391.46 130.663L398.969 129.737L399.378 137.618L391.849 138.801L392.05 142.512L402.735 141.195C402.862 143.055 402.979 144.908 403.087 146.754C403.21 148.581 403.342 150.415 403.484 152.256L381.824 155.438L378.152 119L401.386 116.136Z"/>
<path d="M431.931 135.652C432.215 137.954 432.06 140.019 431.467 141.849C430.889 143.66 429.973 145.223 428.719 146.537C427.482 147.849 425.967 148.906 424.172 149.707C422.395 150.506 420.439 151.037 418.305 151.3C417.482 151.401 416.562 151.404 415.543 151.307C414.542 151.209 413.518 151.062 412.471 150.868C411.421 150.656 410.403 150.423 409.417 150.169C408.445 149.897 407.578 149.637 406.814 149.39L406.643 138.871C408.177 139.552 409.837 140.012 411.623 140.253C413.424 140.474 415.164 140.482 416.844 140.274C417.164 140.235 417.549 140.179 418 140.106C418.45 140.017 418.869 139.889 419.258 139.721C419.661 139.535 419.99 139.298 420.245 139.011C420.499 138.724 420.597 138.345 420.54 137.875C420.5 137.556 420.366 137.299 420.138 137.106C419.907 136.895 419.624 136.743 419.288 136.648C418.95 136.536 418.576 136.471 418.164 136.453C417.751 136.419 417.349 136.409 416.958 136.423C416.568 136.437 416.204 136.465 415.868 136.506C415.532 136.548 415.263 136.581 415.062 136.606C413.617 136.784 412.267 136.694 411.012 136.337C409.774 135.978 408.672 135.406 407.705 134.621C406.754 133.818 405.967 132.832 405.345 131.663C404.722 130.478 404.321 129.163 404.143 127.718C403.898 125.736 404.075 123.915 404.672 122.255C405.284 120.576 406.186 119.109 407.378 117.854C408.586 116.579 410.018 115.542 411.676 114.74C413.334 113.939 415.087 113.424 416.935 113.197C417.758 113.095 418.611 113.024 419.493 112.984C420.373 112.927 421.25 112.921 422.126 112.966C423.018 113.01 423.89 113.099 424.742 113.232C425.595 113.366 426.412 113.564 427.195 113.825L427.498 124.175C426.308 123.929 425.067 123.758 423.776 123.661C422.5 123.546 421.266 123.561 420.073 123.708C419.854 123.735 419.57 123.779 419.219 123.839C418.883 123.881 418.525 123.95 418.145 124.048C417.779 124.127 417.409 124.233 417.032 124.364C416.656 124.496 416.327 124.656 416.043 124.845C415.757 125.016 415.536 125.231 415.38 125.489C415.224 125.747 415.175 126.035 415.231 126.352C415.293 126.719 415.465 127.005 415.746 127.209C416.042 127.394 416.399 127.529 416.819 127.614C417.253 127.68 417.717 127.708 418.211 127.698C418.721 127.687 419.221 127.659 419.71 127.616C420.197 127.556 420.651 127.5 421.071 127.448C421.489 127.38 421.834 127.346 422.107 127.346C423.462 127.265 424.706 127.401 425.842 127.756C426.977 128.11 427.964 128.645 428.802 129.361C429.658 130.074 430.348 130.97 430.873 132.048C431.413 133.107 431.766 134.308 431.931 135.652Z"/>
</mask>
<path d="M286.874 167.14L274.349 169.297L272.813 157.667L267.017 158.382L268.025 169.463L256.735 170.854L253.326 135.305L265.39 134.381L266.864 152.568L272.458 151.878L270.111 132.418L281.639 131.304L286.874 167.14Z" fill="#7E482C"/>
<path d="M309.686 127.438C309.78 129.029 309.88 130.603 309.987 132.159C310.093 133.715 310.177 135.291 310.237 136.887L299.621 138.758L299.76 141.964L307.269 141.039L307.678 148.919L300.149 150.103L300.35 153.813L311.035 152.496C311.162 154.357 311.28 156.21 311.388 158.055C311.511 159.882 311.643 161.716 311.784 163.558L290.124 166.739L286.452 130.301L309.686 127.438Z" fill="#7E482C"/>
<path d="M342.62 135.608C342.781 136.918 342.81 138.125 342.708 139.229C342.62 140.315 342.387 141.333 342.01 142.283C341.632 143.233 341.104 144.134 340.424 144.986C339.744 145.837 338.901 146.674 337.894 147.497L345.208 157.443L334.142 161.058L328.938 150.801L325.825 151.287L326.664 161.826L315.828 163.162C315.44 159.321 315.045 155.498 314.645 151.693C314.261 147.886 313.883 144.061 313.512 140.218C313.307 138.282 313.105 136.363 312.905 134.46C312.704 132.558 312.535 130.634 312.398 128.69C313.52 128.108 314.635 127.604 315.742 127.178C316.849 126.751 317.965 126.392 319.089 126.1C320.227 125.789 321.381 125.536 322.551 125.341C323.735 125.126 324.949 124.943 326.193 124.79C328.108 124.553 329.989 124.595 331.836 124.913C333.698 125.212 335.383 125.806 336.891 126.694C338.399 127.583 339.662 128.766 340.679 130.244C341.714 131.72 342.361 133.508 342.62 135.608ZM331.429 137.805C331.342 137.1 331.162 136.465 330.888 135.902C330.631 135.337 330.283 134.868 329.845 134.496C329.421 134.105 328.909 133.826 328.309 133.662C327.724 133.478 327.053 133.433 326.297 133.526C325.961 133.567 325.637 133.633 325.324 133.723C325.009 133.796 324.705 133.893 324.413 134.014L325.165 143.438L325.77 143.364C326.492 143.274 327.212 143.092 327.928 142.816C328.661 142.538 329.298 142.17 329.839 141.711C330.396 141.25 330.822 140.694 331.117 140.044C331.429 139.391 331.533 138.645 331.429 137.805Z" fill="#7E482C"/>
<path d="M377.011 137.969C377.2 139.498 377.206 140.998 377.029 142.47C376.85 143.924 376.501 145.315 375.982 146.641C375.48 147.965 374.815 149.206 373.985 150.366C373.171 151.507 372.213 152.52 371.111 153.407C370.026 154.291 368.813 155.029 367.47 155.62C366.125 156.196 364.672 156.579 363.109 156.772C361.597 156.958 360.129 156.943 358.703 156.726C357.295 156.508 355.952 156.128 354.674 155.586C353.395 155.027 352.207 154.321 351.113 153.466C350.033 152.593 349.075 151.603 348.24 150.495C347.418 149.368 346.73 148.14 346.174 146.81C345.634 145.478 345.272 144.064 345.088 142.569C344.908 141.107 344.908 139.657 345.089 138.22C345.268 136.765 345.609 135.376 346.111 134.052C346.629 132.726 347.295 131.484 348.108 130.326C348.92 129.169 349.859 128.141 350.925 127.242C352.008 126.341 353.204 125.596 354.513 125.009C355.822 124.421 357.233 124.034 358.745 123.848C361.181 123.547 363.445 123.652 365.537 124.162C367.646 124.669 369.493 125.542 371.079 126.779C372.678 127.997 373.988 129.559 375.007 131.462C376.041 133.348 376.709 135.516 377.011 137.969ZM365.903 140.003C365.814 139.281 365.619 138.597 365.318 137.952C365.031 137.288 364.655 136.721 364.187 136.25C363.718 135.762 363.161 135.395 362.517 135.151C361.887 134.887 361.186 134.803 360.413 134.898C359.624 134.996 358.936 135.225 358.349 135.588C357.763 135.95 357.274 136.411 356.883 136.971C356.506 137.512 356.241 138.133 356.089 138.834C355.934 139.518 355.903 140.23 355.994 140.969C356.081 141.674 356.269 142.368 356.557 143.048C356.846 143.729 357.227 144.33 357.7 144.852C358.174 145.373 358.727 145.774 359.358 146.055C360.006 146.333 360.725 146.423 361.515 146.326C362.304 146.229 362.991 145.991 363.576 145.612C364.175 145.214 364.661 144.727 365.033 144.153C365.404 143.561 365.664 142.907 365.815 142.189C365.965 141.471 365.994 140.743 365.903 140.003Z" fill="#7E482C"/>
<path d="M401.386 116.136C401.48 117.728 401.58 119.302 401.687 120.858C401.793 122.414 401.876 123.99 401.937 125.585L391.32 127.457L391.46 130.663L398.969 129.737L399.378 137.618L391.849 138.801L392.05 142.512L402.735 141.195C402.862 143.055 402.979 144.908 403.087 146.754C403.21 148.581 403.342 150.415 403.484 152.256L381.824 155.438L378.152 119L401.386 116.136Z" fill="#7E482C"/>
<path d="M431.931 135.652C432.215 137.954 432.06 140.019 431.467 141.849C430.889 143.66 429.973 145.223 428.719 146.537C427.482 147.849 425.967 148.906 424.172 149.707C422.395 150.506 420.439 151.037 418.305 151.3C417.482 151.401 416.562 151.404 415.543 151.307C414.542 151.209 413.518 151.062 412.471 150.868C411.421 150.656 410.403 150.423 409.417 150.169C408.445 149.897 407.578 149.637 406.814 149.39L406.643 138.871C408.177 139.552 409.837 140.012 411.623 140.253C413.424 140.474 415.164 140.482 416.844 140.274C417.164 140.235 417.549 140.179 418 140.106C418.45 140.017 418.869 139.889 419.258 139.721C419.661 139.535 419.99 139.298 420.245 139.011C420.499 138.724 420.597 138.345 420.54 137.875C420.5 137.556 420.366 137.299 420.138 137.106C419.907 136.895 419.624 136.743 419.288 136.648C418.95 136.536 418.576 136.471 418.164 136.453C417.751 136.419 417.349 136.409 416.958 136.423C416.568 136.437 416.204 136.465 415.868 136.506C415.532 136.548 415.263 136.581 415.062 136.606C413.617 136.784 412.267 136.694 411.012 136.337C409.774 135.978 408.672 135.406 407.705 134.621C406.754 133.818 405.967 132.832 405.345 131.663C404.722 130.478 404.321 129.163 404.143 127.718C403.898 125.736 404.075 123.915 404.672 122.255C405.284 120.576 406.186 119.109 407.378 117.854C408.586 116.579 410.018 115.542 411.676 114.74C413.334 113.939 415.087 113.424 416.935 113.197C417.758 113.095 418.611 113.024 419.493 112.984C420.373 112.927 421.25 112.921 422.126 112.966C423.018 113.01 423.89 113.099 424.742 113.232C425.595 113.366 426.412 113.564 427.195 113.825L427.498 124.175C426.308 123.929 425.067 123.758 423.776 123.661C422.5 123.546 421.266 123.561 420.073 123.708C419.854 123.735 419.57 123.779 419.219 123.839C418.883 123.881 418.525 123.95 418.145 124.048C417.779 124.127 417.409 124.233 417.032 124.364C416.656 124.496 416.327 124.656 416.043 124.845C415.757 125.016 415.536 125.231 415.38 125.489C415.224 125.747 415.175 126.035 415.231 126.352C415.293 126.719 415.465 127.005 415.746 127.209C416.042 127.394 416.399 127.529 416.819 127.614C417.253 127.68 417.717 127.708 418.211 127.698C418.721 127.687 419.221 127.659 419.71 127.616C420.197 127.556 420.651 127.5 421.071 127.448C421.489 127.38 421.834 127.346 422.107 127.346C423.462 127.265 424.706 127.401 425.842 127.756C426.977 128.11 427.964 128.645 428.802 129.361C429.658 130.074 430.348 130.97 430.873 132.048C431.413 133.107 431.766 134.308 431.931 135.652Z" fill="#7E482C"/>
<path d="M286.874 167.14L274.349 169.297L272.813 157.667L267.017 158.382L268.025 169.463L256.735 170.854L253.326 135.305L265.39 134.381L266.864 152.568L272.458 151.878L270.111 132.418L281.639 131.304L286.874 167.14Z" stroke="url(#paint11_linear)" stroke-width="12" mask="url(#path-14-outside-2)"/>
<path d="M309.686 127.438C309.78 129.029 309.88 130.603 309.987 132.159C310.093 133.715 310.177 135.291 310.237 136.887L299.621 138.758L299.76 141.964L307.269 141.039L307.678 148.919L300.149 150.103L300.35 153.813L311.035 152.496C311.162 154.357 311.28 156.21 311.388 158.055C311.511 159.882 311.643 161.716 311.784 163.558L290.124 166.739L286.452 130.301L309.686 127.438Z" stroke="url(#paint12_linear)" stroke-width="12" mask="url(#path-14-outside-2)"/>
<path d="M342.62 135.608C342.781 136.918 342.81 138.125 342.708 139.229C342.62 140.315 342.387 141.333 342.01 142.283C341.632 143.233 341.104 144.134 340.424 144.986C339.744 145.837 338.901 146.674 337.894 147.497L345.208 157.443L334.142 161.058L328.938 150.801L325.825 151.287L326.664 161.826L315.828 163.162C315.44 159.321 315.045 155.498 314.645 151.693C314.261 147.886 313.883 144.061 313.512 140.218C313.307 138.282 313.105 136.363 312.905 134.46C312.704 132.558 312.535 130.634 312.398 128.69C313.52 128.108 314.635 127.604 315.742 127.178C316.849 126.751 317.965 126.392 319.089 126.1C320.227 125.789 321.381 125.536 322.551 125.341C323.735 125.126 324.949 124.943 326.193 124.79C328.108 124.553 329.989 124.595 331.836 124.913C333.698 125.212 335.383 125.806 336.891 126.694C338.399 127.583 339.662 128.766 340.679 130.244C341.714 131.72 342.361 133.508 342.62 135.608ZM331.429 137.805C331.342 137.1 331.162 136.465 330.888 135.902C330.631 135.337 330.283 134.868 329.845 134.496C329.421 134.105 328.909 133.826 328.309 133.662C327.724 133.478 327.053 133.433 326.297 133.526C325.961 133.567 325.637 133.633 325.324 133.723C325.009 133.796 324.705 133.893 324.413 134.014L325.165 143.438L325.77 143.364C326.492 143.274 327.212 143.092 327.928 142.816C328.661 142.538 329.298 142.17 329.839 141.711C330.396 141.25 330.822 140.694 331.117 140.044C331.429 139.391 331.533 138.645 331.429 137.805Z" stroke="url(#paint13_linear)" stroke-width="12" mask="url(#path-14-outside-2)"/>
<path d="M377.011 137.969C377.2 139.498 377.206 140.998 377.029 142.47C376.85 143.924 376.501 145.315 375.982 146.641C375.48 147.965 374.815 149.206 373.985 150.366C373.171 151.507 372.213 152.52 371.111 153.407C370.026 154.291 368.813 155.029 367.47 155.62C366.125 156.196 364.672 156.579 363.109 156.772C361.597 156.958 360.129 156.943 358.703 156.726C357.295 156.508 355.952 156.128 354.674 155.586C353.395 155.027 352.207 154.321 351.113 153.466C350.033 152.593 349.075 151.603 348.24 150.495C347.418 149.368 346.73 148.14 346.174 146.81C345.634 145.478 345.272 144.064 345.088 142.569C344.908 141.107 344.908 139.657 345.089 138.22C345.268 136.765 345.609 135.376 346.111 134.052C346.629 132.726 347.295 131.484 348.108 130.326C348.92 129.169 349.859 128.141 350.925 127.242C352.008 126.341 353.204 125.596 354.513 125.009C355.822 124.421 357.233 124.034 358.745 123.848C361.181 123.547 363.445 123.652 365.537 124.162C367.646 124.669 369.493 125.542 371.079 126.779C372.678 127.997 373.988 129.559 375.007 131.462C376.041 133.348 376.709 135.516 377.011 137.969ZM365.903 140.003C365.814 139.281 365.619 138.597 365.318 137.952C365.031 137.288 364.655 136.721 364.187 136.25C363.718 135.762 363.161 135.395 362.517 135.151C361.887 134.887 361.186 134.803 360.413 134.898C359.624 134.996 358.936 135.225 358.349 135.588C357.763 135.95 357.274 136.411 356.883 136.971C356.506 137.512 356.241 138.133 356.089 138.834C355.934 139.518 355.903 140.23 355.994 140.969C356.081 141.674 356.269 142.368 356.557 143.048C356.846 143.729 357.227 144.33 357.7 144.852C358.174 145.373 358.727 145.774 359.358 146.055C360.006 146.333 360.725 146.423 361.515 146.326C362.304 146.229 362.991 145.991 363.576 145.612C364.175 145.214 364.661 144.727 365.033 144.153C365.404 143.561 365.664 142.907 365.815 142.189C365.965 141.471 365.994 140.743 365.903 140.003Z" stroke="url(#paint14_linear)" stroke-width="12" mask="url(#path-14-outside-2)"/>
<path d="M401.386 116.136C401.48 117.728 401.58 119.302 401.687 120.858C401.793 122.414 401.876 123.99 401.937 125.585L391.32 127.457L391.46 130.663L398.969 129.737L399.378 137.618L391.849 138.801L392.05 142.512L402.735 141.195C402.862 143.055 402.979 144.908 403.087 146.754C403.21 148.581 403.342 150.415 403.484 152.256L381.824 155.438L378.152 119L401.386 116.136Z" stroke="url(#paint15_linear)" stroke-width="12" mask="url(#path-14-outside-2)"/>
<path d="M431.931 135.652C432.215 137.954 432.06 140.019 431.467 141.849C430.889 143.66 429.973 145.223 428.719 146.537C427.482 147.849 425.967 148.906 424.172 149.707C422.395 150.506 420.439 151.037 418.305 151.3C417.482 151.401 416.562 151.404 415.543 151.307C414.542 151.209 413.518 151.062 412.471 150.868C411.421 150.656 410.403 150.423 409.417 150.169C408.445 149.897 407.578 149.637 406.814 149.39L406.643 138.871C408.177 139.552 409.837 140.012 411.623 140.253C413.424 140.474 415.164 140.482 416.844 140.274C417.164 140.235 417.549 140.179 418 140.106C418.45 140.017 418.869 139.889 419.258 139.721C419.661 139.535 419.99 139.298 420.245 139.011C420.499 138.724 420.597 138.345 420.54 137.875C420.5 137.556 420.366 137.299 420.138 137.106C419.907 136.895 419.624 136.743 419.288 136.648C418.95 136.536 418.576 136.471 418.164 136.453C417.751 136.419 417.349 136.409 416.958 136.423C416.568 136.437 416.204 136.465 415.868 136.506C415.532 136.548 415.263 136.581 415.062 136.606C413.617 136.784 412.267 136.694 411.012 136.337C409.774 135.978 408.672 135.406 407.705 134.621C406.754 133.818 405.967 132.832 405.345 131.663C404.722 130.478 404.321 129.163 404.143 127.718C403.898 125.736 404.075 123.915 404.672 122.255C405.284 120.576 406.186 119.109 407.378 117.854C408.586 116.579 410.018 115.542 411.676 114.74C413.334 113.939 415.087 113.424 416.935 113.197C417.758 113.095 418.611 113.024 419.493 112.984C420.373 112.927 421.25 112.921 422.126 112.966C423.018 113.01 423.89 113.099 424.742 113.232C425.595 113.366 426.412 113.564 427.195 113.825L427.498 124.175C426.308 123.929 425.067 123.758 423.776 123.661C422.5 123.546 421.266 123.561 420.073 123.708C419.854 123.735 419.57 123.779 419.219 123.839C418.883 123.881 418.525 123.95 418.145 124.048C417.779 124.127 417.409 124.233 417.032 124.364C416.656 124.496 416.327 124.656 416.043 124.845C415.757 125.016 415.536 125.231 415.38 125.489C415.224 125.747 415.175 126.035 415.231 126.352C415.293 126.719 415.465 127.005 415.746 127.209C416.042 127.394 416.399 127.529 416.819 127.614C417.253 127.68 417.717 127.708 418.211 127.698C418.721 127.687 419.221 127.659 419.71 127.616C420.197 127.556 420.651 127.5 421.071 127.448C421.489 127.38 421.834 127.346 422.107 127.346C423.462 127.265 424.706 127.401 425.842 127.756C426.977 128.11 427.964 128.645 428.802 129.361C429.658 130.074 430.348 130.97 430.873 132.048C431.413 133.107 431.766 134.308 431.931 135.652Z" stroke="url(#paint16_linear)" stroke-width="12" mask="url(#path-14-outside-2)"/>
</g>
</g>
<defs>
<filter id="filter0_d" x="28.9897" y="-75.2214" width="458.263" height="273.694" filterUnits="userSpaceOnUse" color-interpolation-filters="sRGB">
<feFlood flood-opacity="0" result="BackgroundImageFix"/>
<feColorMatrix in="SourceAlpha" type="matrix" values="0 0 0 0 0 0 0 0 0 0 0 0 0 0 0 0 0 0 127 0"/>
<feOffset dy="4"/>
<feGaussianBlur stdDeviation="2.5"/>
<feColorMatrix type="matrix" values="0 0 0 0 0 0 0 0 0 0 0 0 0 0 0 0 0 0 0.25 0"/>
<feBlend mode="normal" in2="BackgroundImageFix" result="effect1_dropShadow"/>
<feBlend mode="normal" in="SourceGraphic" in2="effect1_dropShadow" result="shape"/>
</filter>
<filter id="filter1_d" x="11.1151" y="-51.1182" width="456.263" height="271.694" filterUnits="userSpaceOnUse" color-interpolation-filters="sRGB">
<feFlood flood-opacity="0" result="BackgroundImageFix"/>
<feColorMatrix in="SourceAlpha" type="matrix" values="0 0 0 0 0 0 0 0 0 0 0 0 0 0 0 0 0 0 127 0"/>
<feOffset dy="4"/>
<feGaussianBlur stdDeviation="2"/>
<feColorMatrix type="matrix" values="0 0 0 0 0 0 0 0 0 0 0 0 0 0 0 0 0 0 0.25 0"/>
<feBlend mode="normal" in2="BackgroundImageFix" result="effect1_dropShadow"/>
<feBlend mode="normal" in="SourceGraphic" in2="effect1_dropShadow" result="shape"/>
</filter>
<filter id="filter2_d" x="50.3809" y="71.0544" width="316.373" height="70.1346" filterUnits="userSpaceOnUse" color-interpolation-filters="sRGB">
<feFlood flood-opacity="0" result="BackgroundImageFix"/>
<feColorMatrix in="SourceAlpha" type="matrix" values="0 0 0 0 0 0 0 0 0 0 0 0 0 0 0 0 0 0 127 0"/>
<feOffset dy="4"/>
<feGaussianBlur stdDeviation="2"/>
<feColorMatrix type="matrix" values="0 0 0 0 0 0 0 0 0 0 0 0 0 0 0 0 0 0 0.25 0"/>
<feBlend mode="normal" in2="BackgroundImageFix" result="effect1_dropShadow"/>
<feBlend mode="normal" in="SourceGraphic" in2="effect1_dropShadow" result="shape"/>
</filter>
<filter id="filter3_d" x="242.77" y="106.936" width="199.299" height="78.6269" filterUnits="userSpaceOnUse" color-interpolation-filters="sRGB">
<feFlood flood-opacity="0" result="BackgroundImageFix"/>
<feColorMatrix in="SourceAlpha" type="matrix" values="0 0 0 0 0 0 0 0 0 0 0 0 0 0 0 0 0 0 127 0"/>
<feOffset dy="4"/>
<feGaussianBlur stdDeviation="2"/>
<feColorMatrix type="matrix" values="0 0 0 0 0 0 0 0 0 0 0 0 0 0 0 0 0 0 0.25 0"/>
<feBlend mode="normal" in2="BackgroundImageFix" result="effect1_dropShadow"/>
<feBlend mode="normal" in="SourceGraphic" in2="effect1_dropShadow" result="shape"/>
</filter>
<radialGradient id="paint0_radial" cx="0" cy="0" r="1" gradientUnits="userSpaceOnUse" gradientTransform="translate(360.61 107.27) rotate(90) scale(50.4808)">
<stop stop-color="#F15566"/>
<stop offset="0.510417" stop-color="#E37883" stop-opacity="0.6875"/>
<stop offset="1" stop-color="#C4C4C4" stop-opacity="0"/>
</radialGradient>
<linearGradient id="paint1_linear" x1="374.271" y1="129.209" x2="41.6322" y2="141.816" gradientUnits="userSpaceOnUse">
<stop stop-color="#EE3F3A"/>
<stop offset="0.427083" stop-color="#C0D630"/>
<stop offset="1" stop-color="#11AE54"/>
</linearGradient>
<linearGradient id="paint2_linear" x1="374.271" y1="129.209" x2="41.6322" y2="141.816" gradientUnits="userSpaceOnUse">
<stop stop-color="#EE3F3A"/>
<stop offset="0.427083" stop-color="#C0D630"/>
<stop offset="1" stop-color="#11AE54"/>
</linearGradient>
<linearGradient id="paint3_linear" x1="374.271" y1="129.209" x2="41.6322" y2="141.816" gradientUnits="userSpaceOnUse">
<stop stop-color="#EE3F3A"/>
<stop offset="0.427083" stop-color="#C0D630"/>
<stop offset="1" stop-color="#11AE54"/>
</linearGradient>
<linearGradient id="paint4_linear" x1="374.271" y1="129.209" x2="41.6322" y2="141.816" gradientUnits="userSpaceOnUse">
<stop stop-color="#EE3F3A"/>
<stop offset="0.427083" stop-color="#C0D630"/>
<stop offset="1" stop-color="#11AE54"/>
</linearGradient>
<linearGradient id="paint5_linear" x1="374.271" y1="129.209" x2="41.6322" y2="141.816" gradientUnits="userSpaceOnUse">
<stop stop-color="#EE3F3A"/>
<stop offset="0.427083" stop-color="#C0D630"/>
<stop offset="1" stop-color="#11AE54"/>
</linearGradient>
<linearGradient id="paint6_linear" x1="374.271" y1="129.209" x2="41.6322" y2="141.816" gradientUnits="userSpaceOnUse">
<stop stop-color="#EE3F3A"/>
<stop offset="0.427083" stop-color="#C0D630"/>
<stop offset="1" stop-color="#11AE54"/>
</linearGradient>
<linearGradient id="paint7_linear" x1="374.271" y1="129.209" x2="41.6322" y2="141.816" gradientUnits="userSpaceOnUse">
<stop stop-color="#EE3F3A"/>
<stop offset="0.427083" stop-color="#C0D630"/>
<stop offset="1" stop-color="#11AE54"/>
</linearGradient>
<linearGradient id="paint8_linear" x1="374.271" y1="129.209" x2="41.6322" y2="141.816" gradientUnits="userSpaceOnUse">
<stop stop-color="#EE3F3A"/>
<stop offset="0.427083" stop-color="#C0D630"/>
<stop offset="1" stop-color="#11AE54"/>
</linearGradient>
<linearGradient id="paint9_linear" x1="374.271" y1="129.209" x2="41.6322" y2="141.816" gradientUnits="userSpaceOnUse">
<stop stop-color="#EE3F3A"/>
<stop offset="0.427083" stop-color="#C0D630"/>
<stop offset="1" stop-color="#11AE54"/>
</linearGradient>
<linearGradient id="paint10_linear" x1="374.271" y1="129.209" x2="41.6322" y2="141.816" gradientUnits="userSpaceOnUse">
<stop stop-color="#EE3F3A"/>
<stop offset="0.427083" stop-color="#C0D630"/>
<stop offset="1" stop-color="#11AE54"/>
</linearGradient>
<linearGradient id="paint11_linear" x1="436.261" y1="168.933" x2="249.284" y2="172.195" gradientUnits="userSpaceOnUse">
<stop stop-color="#BBD155"/>
<stop offset="0.4375" stop-color="#BBD155"/>
<stop offset="0.953125" stop-color="#64BB43"/>
</linearGradient>
<linearGradient id="paint12_linear" x1="436.261" y1="168.933" x2="249.284" y2="172.195" gradientUnits="userSpaceOnUse">
<stop stop-color="#BBD155"/>
<stop offset="0.4375" stop-color="#BBD155"/>
<stop offset="0.953125" stop-color="#64BB43"/>
</linearGradient>
<linearGradient id="paint13_linear" x1="436.261" y1="168.933" x2="249.284" y2="172.195" gradientUnits="userSpaceOnUse">
<stop stop-color="#BBD155"/>
<stop offset="0.4375" stop-color="#BBD155"/>
<stop offset="0.953125" stop-color="#64BB43"/>
</linearGradient>
<linearGradient id="paint14_linear" x1="436.261" y1="168.933" x2="249.284" y2="172.195" gradientUnits="userSpaceOnUse">
<stop stop-color="#BBD155"/>
<stop offset="0.4375" stop-color="#BBD155"/>
<stop offset="0.953125" stop-color="#64BB43"/>
</linearGradient>
<linearGradient id="paint15_linear" x1="436.261" y1="168.933" x2="249.284" y2="172.195" gradientUnits="userSpaceOnUse">
<stop stop-color="#BBD155"/>
<stop offset="0.4375" stop-color="#BBD155"/>
<stop offset="0.953125" stop-color="#64BB43"/>
</linearGradient>
<linearGradient id="paint16_linear" x1="436.261" y1="168.933" x2="249.284" y2="172.195" gradientUnits="userSpaceOnUse">
<stop stop-color="#BBD155"/>
<stop offset="0.4375" stop-color="#BBD155"/>
<stop offset="0.953125" stop-color="#64BB43"/>
</linearGradient>
</defs>
</svg>
