<?xml version="1.0" encoding="iso-8859-1"?>
<!-- Generator: Adobe Illustrator 19.0.0, SVG Export Plug-In . SVG Version: 6.00 Build 0)  -->
<svg version="1.1" id="Capa_1" xmlns="http://www.w3.org/2000/svg" xmlns:xlink="http://www.w3.org/1999/xlink" x="0px" y="0px"
	 viewBox="0 0 512 512" style="enable-background:new 0 0 512 512;" xml:space="preserve">
<g>
	<g>
		<path d="M426.667,0H281.6c-23.553,0.028-42.639,19.114-42.667,42.667c0.032,9.262,3.107,18.257,8.752,25.6H204.8
			c-80.081,0.089-144.977,64.986-145.067,145.067V391.68l-16.496,80.628c-1.648,7.916,0.313,16.154,5.35,22.479
			c4.33,5.436,10.883,8.625,17.833,8.679h37.825c6.95-0.054,13.503-3.243,17.833-8.679c5.033-6.322,6.994-14.555,5.35-22.467
			l-16.496-80.64V221.867c0.078-53.055,40.63-97.281,93.479-101.948c-21.236,16.082-33.723,41.176-33.745,67.814v315.733
			c0,4.713,3.821,8.533,8.533,8.533H384c4.713,0,8.533-3.82,8.533-8.533V187.733c-0.047-37.25-24.213-70.18-59.733-81.398V93.867
			c-0.039-11.233-7.411-21.122-18.164-24.369c2.73-3.317,4.943-7.027,6.564-11.006l61.8,65.129
			c9.956,10.015,26.145,10.065,36.163,0.113s10.076-26.14,0.128-36.163L384.816,51.2H460.8c4.713,0,8.533-3.82,8.533-8.533
			C469.306,19.114,450.219,0.028,426.667,0z M76.8,341.333h17.067V384H76.8V341.333z M108.854,484
			c-1.089,1.461-2.786,2.345-4.608,2.4H66.421c-1.822-0.055-3.519-0.939-4.608-2.4c-1.815-2.342-2.496-5.369-1.858-8.262
			l15.275-74.671h20.208l15.275,74.671v0.013C111.348,478.64,110.668,481.662,108.854,484z M93.867,221.867v102.4H76.8V213.333
			c0.08-70.659,57.341-127.92,128-128h25.6V102.4h-17.067C147.384,102.474,93.941,155.918,93.867,221.867z M375.467,494.933H187.733
			v-42.667h187.733V494.933z M375.467,435.2H187.733V204.8h187.733V435.2z M375.467,187.733H187.733
			c0.043-37.685,30.582-68.224,68.267-68.267h51.2C344.885,119.51,375.424,150.049,375.467,187.733z M315.733,93.867v8.533h-68.267
			V85.333H307.2C311.91,85.339,315.727,89.156,315.733,93.867z M407.104,99.517c1.619,1.587,2.528,3.76,2.521,6.027
			c-0.007,2.267-0.93,4.434-2.558,6.011c-3.337,3.044-8.424,3.112-11.842,0.158L337.812,51.2h23.491L407.104,99.517z
			 M315.733,34.133c-4.713,0-8.533,3.82-8.533,8.533c0,14.138-11.461,25.6-25.6,25.6c-14.138,0-25.6-11.461-25.6-25.6
			c0.015-14.132,11.468-25.585,25.6-25.6h145.067c10.845,0.012,20.51,6.846,24.137,17.067H315.733z"/>
	</g>
</g>
<g>
</g>
<g>
</g>
<g>
</g>
<g>
</g>
<g>
</g>
<g>
</g>
<g>
</g>
<g>
</g>
<g>
</g>
<g>
</g>
<g>
</g>
<g>
</g>
<g>
</g>
<g>
</g>
<g>
</g>
</svg>
