<svg width="483" height="201" viewBox="0 0 483 201" fill="none" xmlns="http://www.w3.org/2000/svg">
<path d="M287.081 75.7742C285.242 73.5757 283.245 71.4669 281.563 69.1561C279.073 65.7462 275.304 64.7142 271.423 66.6884C268.035 68.4158 266.532 72.252 268.147 76.0658C270.548 81.7416 275.147 85.533 279.992 89.0551C280.441 89.3692 280.89 89.7282 281.383 89.9301C283.357 90.8274 284.008 91.9267 283.38 94.3496C279.746 108.461 280.351 122.863 280.89 137.243C281.54 154.921 282.191 172.577 282.729 190.255C282.886 195.729 278.736 200.149 273.599 200.35C268.259 200.575 263.93 196.828 263.683 191.175C262.965 175.157 262.471 159.139 261.888 143.121C261.731 138.814 261.574 134.507 261.282 130.222C261.215 129.347 260.766 128.203 260.093 127.754C256.235 125.039 254.193 121.338 253.677 116.739C252.309 104.647 253.206 92.7792 257.267 81.2481C258.747 77.0529 260.385 72.8353 262.516 68.9543C264.535 65.2526 267.968 62.8746 272.051 61.551C280.441 58.8365 286.969 63.0765 287.822 71.8707C287.934 73.0373 287.844 74.2263 287.844 75.3928C287.575 75.505 287.328 75.6396 287.081 75.7742Z" fill="#068FB2"/>
<path d="M356.61 79.7918C346.829 79.7245 339.291 72.0296 339.426 62.2708C339.56 52.7812 347.412 45.0863 356.879 45.1761C366.212 45.2882 374.221 53.4094 374.131 62.6522C373.996 72.0072 365.988 79.8591 356.61 79.7918Z" fill="#64CAE5"/>
<path d="M318.243 83.163C314.923 79.7754 311.558 76.4328 308.282 73.0228C307.363 72.0581 306.376 70.9813 305.949 69.7923C304.155 64.8344 302.696 59.7419 300.857 54.8064C300.049 52.6751 300.161 50.8804 300.924 49.0857C301.216 48.3902 301.597 47.7172 302.091 46.9993C302.629 46.1917 303.078 45.3616 303.437 44.5091C304.648 41.66 304.873 38.5641 304.11 35.4234C303.728 33.853 304.199 33.1127 305.187 32.1704C308.978 28.6034 309.18 24.1166 305.77 20.5945C302.136 16.8704 297.537 16.7807 293.992 20.5496C292.915 21.6938 291.973 21.9181 290.47 21.5816C286.746 20.7515 283.134 21.1778 279.051 23.3314C279.118 23.3314 279.185 23.3539 279.23 23.3539C283.784 23.9596 287.666 24.498 291.502 25.014C291.502 26.0684 291.502 26.8536 291.502 27.8855C287.06 27.3696 282.753 27.0779 278.557 26.2703C276.875 25.9562 275.596 26.1581 274.564 26.8311C271.85 29.6803 270.077 33.4267 269.786 37.577C269.786 37.6443 269.786 37.6892 269.763 37.7565C269.763 37.8911 269.763 38.0257 269.741 38.1379C269.516 45.7206 274.407 52.9668 282.147 55.0307C282.977 55.255 283.717 55.5467 284.39 55.9056C285.848 56.6908 286.993 57.7677 288.159 59.1586C291.412 62.9723 294.979 66.5169 298.703 69.8596C302.921 73.6285 307.43 77.0609 311.849 80.6055C313.981 82.3105 316.179 83.9257 318.333 85.5858C318.625 85.2942 318.894 84.9801 319.185 84.6885C318.894 84.1501 318.647 83.5892 318.243 83.163ZM299.915 19.9439C303.369 20.0336 306.084 22.8379 306.061 26.3376C306.039 28.6034 304.715 30.6449 302.786 31.6993C301.844 32.2153 300.767 32.5294 299.645 32.507C296.392 32.4845 293.341 29.2989 293.454 26.0684C293.498 25.014 293.79 24.0269 294.284 23.152C295.428 21.2002 297.537 19.899 299.915 19.9439ZM300.61 67.8405C296.931 64.0267 293.274 60.213 289.348 56.13C289.662 55.9954 289.976 55.8832 290.268 55.771C292.511 54.8737 294.351 54.1333 296.168 53.4155C296.415 53.3257 296.662 53.2136 296.908 53.1238C298.411 57.9023 299.915 62.6358 301.395 67.3694C301.126 67.5265 300.857 67.6835 300.61 67.8405Z" fill="#068FB2"/>
<path d="M446.227 48.7051C436.446 48.6378 428.908 40.9429 429.043 31.1841C429.177 21.6945 437.029 13.9997 446.496 14.0894C455.829 14.2016 463.838 22.3227 463.748 31.5655C463.636 40.9205 455.627 48.7724 446.227 48.7051Z" fill="#068FB2"/>
<path d="M339.212 100.664C339.818 94.6961 339.324 97.2311 340.446 92.4078C340.962 88.953 345.269 87.0685 348.141 87.8089C351.349 88.6389 352.942 91.488 352.672 94.9877C352.403 98.5996 352.134 102.279 352.538 105.846C353.368 113.137 357.025 119.284 361.579 124.847C363.71 127.45 366.133 129.828 368.511 132.228C371.225 134.988 371.427 138.353 368.937 140.977C366.447 143.602 362.79 143.871 360.165 141.179C356.464 137.41 352.717 133.619 349.599 129.402C343.295 120.944 339.593 111.432 339.212 100.664Z" fill="#64CAE5"/>
<path d="M313.152 99.4217C306.354 98.5019 298.794 96.4829 291.458 93.5216C284.593 90.7622 278.379 86.9933 273.421 81.4296C271.985 79.8144 270.684 77.9972 269.63 76.0903C267.97 73.0842 268.979 69.8761 271.873 67.9916C274.588 66.2418 277.975 66.6905 279.86 69.5396C285.85 78.6029 295.115 82.2821 304.918 85.0415C308.418 86.0286 312.053 86.567 315.62 87.3522C318.985 88.0701 321.026 90.8519 320.667 94.1273C320.308 97.4924 317.84 99.5115 313.152 99.4217Z" fill="#068FB2"/>
<path d="M319.036 99.7953C322.401 96.6994 323.343 93.1997 320.786 88.4885C322.715 88.309 324.465 87.636 325.632 88.1969C326.372 88.5558 326.686 90.8665 326.372 92.078C325.677 94.6803 324.577 97.1929 323.433 99.6607C322.379 101.927 320.876 101.949 319.036 99.7953Z" fill="#068FB2"/>
<path d="M446.362 10.7261C451.903 10.7261 456.883 13.2163 460.226 17.1198C461.594 13.5977 462.918 10.1204 464.309 6.50852C450.781 -2.89135 438.869 -1.47801 427.966 6.71042C429.222 9.96336 430.591 13.2387 431.757 16.5814C431.892 16.9628 432.049 17.232 432.228 17.4115C435.593 13.3285 440.686 10.7261 446.362 10.7261Z" fill="#068FB2"/>
<path d="M348.188 155.519C342.49 155.519 336.769 155.519 331.026 155.519C330.959 155.519 330.891 155.519 330.824 155.519C325.081 155.519 319.338 155.519 313.662 155.519C312.518 170.011 311.419 184.302 310.274 198.705C312.899 198.705 315.322 198.705 317.902 198.705C318.418 193.006 318.912 187.465 319.45 181.677C323.286 181.677 327.077 181.744 330.846 181.744C330.891 181.744 330.914 181.744 330.959 181.744C331.003 181.744 331.026 181.744 331.071 181.744C334.84 181.744 338.631 181.677 342.467 181.677C342.983 187.465 343.499 193.006 344.015 198.705C346.595 198.705 348.996 198.705 351.643 198.705C350.431 184.302 349.31 170.011 348.188 155.519ZM319.652 177.639C320.056 173.018 320.437 168.351 320.863 163.483H340.964C341.39 168.351 341.772 173.018 342.176 177.639H319.652Z" fill="#64CAE5"/>
<path d="M380.04 162.035C378.739 155.372 376.294 149.27 371.493 144.245C370.304 142.988 369.362 142.562 367.769 143.46C364.785 145.164 361.846 144.559 359.356 142.517C357.517 141.014 355.946 139.175 354.264 137.47L354.107 137.268L345.896 126.365C345.223 125.333 344.55 124.278 343.989 123.179C339.188 113.577 336.317 103.617 338.829 92.781C339.973 87.8904 343.922 85.2432 348.319 86.2976C352.514 87.3071 354.825 91.4574 353.725 96.2134C352.783 100.252 353.299 104.178 354.847 108.081C355.587 105.636 356.485 103.235 357.001 100.745C357.562 98.0979 358.167 95.3385 358.055 92.6688C357.741 84.9964 351.863 80.375 344.438 81.8108C338.403 82.9774 333.939 86.5444 331.134 91.9061C324.247 105.03 321.129 119.074 321.353 133.903C321.51 143.617 326.311 149.405 335.958 150.594C339.951 151.087 344.011 151.02 348.005 151.536C356.844 152.702 361.577 157.458 362.811 166.252C363.776 173.072 362.811 179.78 361.42 186.443C360.321 191.625 362.901 196.404 367.612 197.615C372.48 198.849 377.304 196.067 378.493 190.863C380.646 181.395 381.925 171.771 380.04 162.035Z" fill="#64CAE5"/>
<path d="M432.12 50.7714L462.451 50.9509C466.938 50.9733 471.021 51.7585 472.95 55.819L482.036 74.8207C483.382 77.6474 483.158 82.1566 481.543 84.8487L472.906 99.1616C471.088 102.19 467.589 103.491 464.717 101.45C462.743 100.059 461.644 96.9407 462.855 94.8543L470.528 81.6855C471.447 80.0927 471.447 78.1185 470.505 76.5481L468.105 72.51C467.835 72.0613 467.162 72.2632 467.162 72.7792L466.646 83.7494C466.646 84.5795 466.377 85.3871 465.906 86.0377L460.006 96.1555H455.16L456.484 85.1179H447.779L448.901 96.3798H444.526L445.783 94.8992L444.369 81.2817H437.751L436.271 94.7646L437.258 96.4471H432.367L426.4 88.3709C425.906 87.7203 425.659 86.9127 425.659 86.105V73.1606C425.659 72.5549 424.852 72.3754 424.605 72.9362L421.128 79.9581C420.141 82.0893 421.262 84.6019 422.743 86.4191L429.608 95.5946C430.999 97.2996 431.246 100.485 429.675 102.056C427.858 103.873 424.224 104.411 422.631 102.415L411.167 87.8998C409.709 86.0602 407.869 82.0893 408.901 79.9581L419.67 57.4567C421.621 53.3513 427.589 50.749 432.12 50.7714Z" fill="#068FB2"/>
<path d="M467.445 81.2676C467.154 81.3349 466.862 81.4246 466.57 81.5144C466.57 82.1425 466.57 82.7707 466.57 83.3988L469.397 85.6871C468.746 84.2064 468.073 82.7482 467.445 81.2676Z" fill="#068FB2"/>
<path d="M459.996 99.1562H433.501C433.501 99.1562 433.748 101.803 430.607 104.451C429.104 105.729 427.242 106.156 425.739 106.268C425.739 133.166 425.739 160.042 425.739 186.941C425.739 187.905 425.716 188.87 425.806 189.835C426.21 194.95 431.28 198.898 436.26 198.023C441.218 197.148 444.09 193.648 444.09 188.444C444.09 166.077 444.09 143.733 444.09 121.366C444.09 120.738 444.045 120.11 444.112 119.504C444.247 118.27 444.853 117.193 445.997 117.216V117.238C446.042 117.238 446.086 117.238 446.131 117.238C446.176 117.238 446.221 117.238 446.266 117.238V117.216C447.41 117.193 448.016 118.27 448.15 119.504C448.218 120.11 448.173 120.738 448.173 121.366C448.173 143.733 448.173 166.077 448.173 188.444C448.173 193.648 451.044 197.148 456.002 198.023C460.983 198.898 466.053 194.95 466.457 189.835C466.524 188.87 466.524 187.905 466.524 186.941C466.524 159.661 466.524 132.359 466.524 105.079C462.463 104.316 459.996 99.1562 459.996 99.1562Z" fill="#068FB2"/>
<path d="M150.476 73.4101L140.246 43.0569C138.967 38.929 134.278 36.8426 130.33 38.772C126.83 40.4769 125.462 44.8067 127.122 48.3513L131.093 56.8538L125.731 50.3928C123.914 48.1943 121.199 46.8931 118.35 46.8482L95.6695 47.095C95.6695 47.095 95.2208 47.0725 94.4805 47.0725L90.5994 47.0052C86.292 46.9379 82.2315 48.957 79.6964 52.4343L78.9561 53.4438C78.4401 54.072 78.0363 54.6328 77.7223 55.1488L68.4346 66.4107L70.476 86.8481L81.222 74.6889L84.4076 189.663C84.43 194.89 88.6701 199.108 93.8972 199.108C99.1019 199.108 103.342 194.913 103.387 189.686L103.97 114.173C103.97 113.006 104.71 111.952 105.832 111.615C107.402 111.167 108.906 112.199 109.13 113.724L120.414 189.506C121.199 194.778 126 198.502 131.34 197.919C136.881 197.313 140.739 192.086 140.066 186.567L125.574 66.8145L134.817 78.3905C138.429 82.9221 146.886 81.9126 149.736 76.8874C150.453 75.6759 150.768 74.4645 150.476 73.4101Z" fill="#068FB2"/>
<path d="M75.9905 51.0676C80.8587 46.334 87.4319 43.6643 94.3415 43.7765L96.2485 43.7989C90.8867 43.2157 83.0124 37.6071 81.599 32.4922L60.354 43.1484C60.0175 54.4327 50.7747 63.4512 39.4006 63.4512C34.1959 63.4512 29.4175 61.5443 25.7607 58.4035L2.18255 79.8055C0.118621 81.6676 -0.554422 84.6289 0.477544 87.2088L12.7041 117.809C14.0053 121.062 17.5947 122.924 20.915 121.802C24.3698 120.635 26.1645 116.911 24.998 113.524L16.4506 91.045C16.0916 90.0803 16.3608 88.9811 17.1236 88.308L22.4853 83.5296C23.8538 82.2957 26.0299 82.9463 26.5459 84.7186L29.7315 111.819C30.0905 113.098 30.1129 114.444 29.754 115.722L26.0075 146.659L33.7248 149.732L23.966 153.322L24.7736 188.812C24.8858 193.726 28.7669 197.741 33.6799 198.01L33.9267 198.033C39.6474 198.325 44.381 193.703 44.2015 188.027C43.7977 175.621 43.192 156.104 43.0125 151.011C42.9901 150.181 43.0798 149.351 43.3266 148.543L50.5952 122.924C50.9093 121.802 52.5021 121.824 52.7937 122.946L61.1616 154.69C61.386 155.52 61.4757 156.35 61.4757 157.203L61.0943 188.902C61.027 193.905 65.1549 197.966 70.1577 197.831H70.382C75.4297 197.696 79.378 193.524 79.2659 188.521C78.9967 177.528 78.5704 160.007 78.4807 156.171C78.4583 155.655 78.4134 155.161 78.3236 154.668L69.7987 109.531C69.7539 109.284 69.7314 109.037 69.6866 108.768L68.0937 94.3428L66.3215 78.4146L65.3568 68.9026C65.0876 66.2105 65.8952 63.5409 67.5778 61.4545L75.9905 51.0676Z" fill="#64CAE5"/>
<path d="M99.8772 39.7462C109.678 39.7462 117.622 31.8014 117.622 22.0009C117.622 12.2005 109.678 4.25562 99.8772 4.25562C90.0767 4.25562 82.1318 12.2005 82.1318 22.0009C82.1318 31.8014 90.0767 39.7462 99.8772 39.7462Z" fill="#068FB2"/>
<path d="M39.6027 60.2938C49.4032 60.2938 57.348 52.349 57.348 42.5485C57.348 32.7481 49.4032 24.8032 39.6027 24.8032C29.8023 24.8032 21.8574 32.7481 21.8574 42.5485C21.8574 52.349 29.8023 60.2938 39.6027 60.2938Z" fill="#64CAE5"/>
</svg>
