<?xml version="1.0" encoding="UTF-8"?>
<svg width="50px" height="81px" viewBox="0 0 50 81" version="1.1" xmlns="http://www.w3.org/2000/svg" xmlns:xlink="http://www.w3.org/1999/xlink">
    <!-- Generator: Sketch 43.2 (39069) - http://www.bohemiancoding.com/sketch -->
    <title>arrow-right</title>
    <desc>Created with Sketch.</desc>
    <defs></defs>
    <g id="Desktop" stroke="none" stroke-width="1" fill="none" fill-rule="evenodd">
        <g id="desktop/h11/women" transform="translate(-1330.000000, -773.000000)" fill="#4A4A4A">
            <path d="M1393.74417,797.923638 L1356.60868,837.157526 C1356.1275,837.665834 1355.41018,838 1354.77307,838 C1354.13595,838 1353.41863,837.665834 1352.93745,837.157526 L1315.80197,797.923638 C1315.32079,797.41533 1315,796.66228 1315,795.989242 C1315,795.311497 1315.32079,794.558448 1315.80197,794.050139 L1319.78061,789.842474 C1320.26179,789.334166 1320.90336,789 1321.61622,789 C1322.25779,789 1322.97065,789.334166 1323.45183,789.842474 L1354.77307,822.929594 L1386.0943,789.842474 C1386.57548,789.334166 1387.28834,789 1387.92991,789 C1388.56703,789 1389.28434,789.334166 1389.76552,789.842474 L1393.74417,794.050139 C1394.22535,794.558448 1394.54613,795.311497 1394.54613,795.989242 C1394.54613,796.66228 1394.22535,797.41533 1393.74417,797.923638" id="arrow-right" transform="translate(1354.773066, 813.500000) scale(-1, -1) rotate(90.000000) translate(-1354.773066, -813.500000) "></path>
        </g>
    </g>
</svg>