<?xml version="1.0" encoding="UTF-8"?>
<svg width="278px" height="334px" viewBox="0 0 278 334" version="1.1" xmlns="http://www.w3.org/2000/svg" xmlns:xlink="http://www.w3.org/1999/xlink">
    <!-- Generator: Sketch 43.1 (39012) - http://www.bohemiancoding.com/sketch -->
    <title>East County</title>
    <desc>Created with Sketch.</desc>
    <defs></defs>
    <g id="Symbols" stroke="none" stroke-width="1" fill="none" fill-rule="evenodd">
        <g id="East-County" stroke="#FFFFFF" stroke-width="3" fill="#75568D">
            <path d="M277.537807,333.134951 L257.332442,332.624763 L237.127078,332.113494 L217.177148,332.113494 L197.483736,331.858401 L177.534889,331.347132 L157.329525,330.836944 L137.379595,330.070582 L117.430748,329.048045 L117.686184,322.151863 L117.686184,319.086414 L117.941619,318.064957 L117.941619,316.277139 L117.941619,314.234226 L118.198136,313.211689 L118.453572,309.891145 L118.453572,306.826776 L118.198136,304.272595 L118.453572,302.73987 L118.453572,300.440783 L118.453572,299.163151 L118.453572,298.141695 L118.709007,296.865145 L118.453572,295.587514 L118.453572,294.566058 L118.453572,293.544601 L118.709007,291.500608 L118.709007,289.967883 L121.011172,289.457695 L125.358984,289.712789 L128.172019,289.712789 L129.962231,289.967883 L130.986136,289.967883 L132.00896,289.967883 L133.287219,289.967883 L134.56656,289.967883 L137.891548,290.224058 L138.402419,291.245514 L139.68176,291.756783 L140.960019,291.756783 L142.494795,291.245514 L144.029572,291.500608 L144.029572,295.843689 L147.609995,295.587514 L147.609995,293.799695 L146.075219,291.500608 L147.099125,291.500608 L148.377384,291.500608 L149.400207,291.500608 L150.424113,291.500608 L151.446936,291.500608 L151.957807,293.544601 L153.749101,293.799695 L158.607784,293.799695 L158.607784,295.33242 L160.909948,295.33242 L163.467548,295.33242 L163.467548,296.60897 L163.467548,297.886601 L167.559925,298.141695 L168.582748,297.886601 L169.605572,297.886601 L170.628395,297.886601 L171.395784,296.60897 L172.93056,296.60897 L174.209901,296.60897 L177.790325,296.60897 L179.068584,297.120239 L181.115313,297.120239 L183.672913,296.60897 L184.695736,296.60897 L185.71856,296.60897 L186.997901,296.60897 L188.27616,296.865145 L188.27616,298.141695 L188.27616,299.163151 L189.043548,301.973507 L190.066372,301.973507 L190.066372,299.419326 L193.135925,299.163151 L195.438089,299.419326 L197.483736,299.419326 L198.251125,300.695876 L200.041336,300.695876 L201.831548,300.695876 L203.110889,300.695876 L206.435878,300.695876 L207.970654,300.695876 L208.226089,299.419326 L208.226089,297.631507 L208.226089,296.60897 L208.226089,293.799695 L208.226089,292.778239 L208.226089,291.756783 L208.481525,290.734245 L208.481525,289.712789 L208.481525,284.349333 L208.481525,283.326795 L208.738042,282.305339 L208.738042,278.729702 L208.738042,276.17552 L208.993478,273.365164 L208.993478,272.343708 L208.993478,270.555889 L208.993478,268.256802 L209.248913,262.382077 L205.668489,262.382077 L203.878278,262.382077 L203.878278,260.849352 L203.878278,259.827896 L203.878278,258.040077 L203.878278,256.762446 L204.645666,255.230802 L201.576113,255.230802 L199.530466,254.464439 L199.273948,253.441902 L199.273948,252.420446 L197.740254,252.165352 L196.460913,252.165352 L195.182654,252.165352 L194.158748,252.165352 L192.880489,252.165352 L190.83376,251.910258 L189.300066,251.910258 L181.882701,251.654083 L180.859878,251.654083 L180.859878,250.121359 L179.835972,250.121359 L179.580536,246.290627 L179.580536,243.225177 L179.580536,241.692452 L179.580536,240.159728 L179.580536,239.138271 L179.835972,237.861721 L179.835972,235.817728 L179.835972,234.796271 L179.835972,233.774815 L179.835972,231.986996 L179.835972,230.454271 L180.092489,227.90009 L176.255548,227.643915 L176.255548,226.112271 L176.255548,224.068278 L175.232725,222.791728 L175.48816,220.49264 L175.48816,218.959915 L174.209901,218.448647 L172.93056,217.682284 L171.140348,215.384278 L170.37296,214.617915 L169.350136,213.340284 L167.559925,211.297372 L167.559925,210.275915 L167.559925,209.253378 L167.559925,208.231922 L167.559925,206.189009 L167.559925,204.911378 L165.769713,204.911378 L165.25776,201.845928 L165.25776,200.569378 L165.25776,197.759022 L162.955595,197.759022 L163.212113,196.737566 L163.212113,195.461016 L162.189289,194.949747 L161.677336,193.928291 L160.14256,192.906834 L160.14256,189.841384 L159.631689,188.053566 L157.329525,187.287203 L157.58496,186.265747 L159.631689,185.499384 L160.909948,185.754478 L161.677336,184.476847 L161.421901,181.156304 L162.444725,180.90121 L162.955595,179.879753 L163.722984,178.347028 L164.234936,177.070478 L166.280584,175.792847 L168.327313,173.49376 L168.582748,172.21721 L164.490372,171.961035 L163.467548,171.961035 L160.654513,172.21721 L159.375172,172.21721 L158.352348,172.21721 L157.329525,172.21721 L156.306701,172.21721 L154.515407,171.961035 L153.492584,171.705941 L152.46976,171.450847 L151.446936,171.450847 L148.377384,170.939579 L145.819784,170.939579 L142.494795,170.939579 L141.471972,170.684485 L137.12416,170.684485 L131.753525,170.429391 L130.218748,170.429391 L128.683972,170.429391 L127.661148,170.429391 L127.661148,168.896666 L127.661148,167.874129 L127.661148,166.852672 L127.661148,165.831216 L127.661148,164.298491 L127.916584,163.277035 L127.916584,161.489216 L127.916584,160.211585 L128.939407,159.701397 L129.962231,159.956491 L130.986136,159.956491 L130.986136,158.935035 L130.986136,157.912498 L130.986136,156.891041 L130.218748,155.869585 L128.683972,155.869585 L127.661148,155.869585 L126.638325,155.869585 L125.614419,155.869585 L124.591595,155.869585 L123.568772,155.869585 L123.056819,153.06031 L123.056819,146.674317 L121.522042,146.419223 L120.499219,146.419223 L118.709007,146.419223 L116.66336,146.419223 L114.10576,146.163048 L107.711219,146.163048 L105.921007,145.907954 L103.618842,145.907954 L100.805807,145.907954 L97.4808188,145.65286 L94.1558306,145.65286 L83.6699953,145.141592 L79.8330541,145.141592 L76.7645835,145.141592 L75.4852424,145.141592 L66.7896188,144.886498 L64.2320188,144.886498 L56.3027012,144.631404 L54.7690071,144.631404 L51.9548894,144.375229 L50.9320659,144.375229 L49.9092424,144.631404 L48.8864188,144.886498 L47.8625129,145.141592 L44.2820894,146.419223 L43.0038306,146.92941 L43.0038306,145.65286 L44.0266541,144.886498 L44.0266541,143.865041 L44.0266541,142.842504 L43.0038306,142.332317 L41.4690541,142.332317 L39.9342776,142.842504 L39.1668894,141.821048 L39.4223247,140.799592 L39.1668894,139.521961 L39.4223247,138.500504 L39.4223247,137.479048 L39.4223247,135.946323 L39.4223247,132.114511 L39.4223247,130.582867 L39.6788424,128.793967 L39.4223247,127.772511 L39.6788424,125.729598 L39.6788424,124.708142 L39.6788424,123.685605 L39.6788424,122.664148 L39.1668894,121.131423 L39.4223247,119.854873 L39.4223247,118.832336 L39.4223247,117.81088 L39.4223247,116.534329 L39.4223247,115.511792 L39.4223247,114.490336 L39.6788424,110.40343 L42.4918776,110.914698 L44.7940424,111.425967 L45.8168659,111.681061 L45.8168659,110.659605 L45.8168659,109.12688 L45.8168659,107.849249 L46.0723012,105.806336 L46.0723012,104.018517 L47.3516424,104.273611 L47.6070776,102.229617 L47.6070776,100.441799 L46.0723012,100.441799 L46.3288188,98.1437922 L45.3049129,97.8876175 L44.2820894,97.6325236 L44.5386071,90.7363424 L41.9799247,88.9474427 L40.7016659,88.6923489 L39.9342776,87.6708926 L39.9342776,86.6494362 L40.1897129,85.626899 L40.1897129,84.3503489 L38.3995012,83.5839864 L36.3538541,83.5839864 L37.8886306,83.0727178 L38.3995012,79.7521741 L38.3995012,78.7307178 L38.6560188,77.7092615 L39.1668894,76.6878052 L39.6788424,74.6438117 L40.4462306,73.1110867 L38.6560188,69.5354492 L37.6321129,68.5139929 L35.8419012,66.7261741 L35.0745129,65.7036369 L34.5636424,64.6821806 L34.5636424,63.6607243 L34.5636424,62.1279994 L35.5864659,61.6178117 L36.6092894,61.3616369 L36.8647247,60.0850867 L35.8419012,60.3401806 L34.8190776,60.3401806 L34.0516894,57.5309055 L34.0516894,55.7430867 L25.1006306,55.2318181 L24.0767247,55.2318181 L16.6604424,53.9541871 L13.5908894,53.4439994 L4.63874824,51.9112744 L4.63874824,56.764543 L4.63874824,57.7859994 L6.17352471,57.5309055 L7.19634824,57.5309055 L8.47568941,57.5309055 L9.24307765,59.828912 L9.24307765,61.6178117 L8.73112471,77.9643553 L10.2659012,78.2205301 L10.2659012,79.4970803 L8.98764235,79.4970803 L8.73112471,81.284899 L8.98764235,82.3063553 L9.24307765,83.3288926 L8.98764235,84.3503489 L3.87244235,84.3503489 L3.87244235,85.3718052 L0.547454118,85.1167113 L1.31376,1.84802524 L1.31376,0.570394175 L4.38331294,1.84802524 L9.24307765,3.63584401 L12.8235012,6.70021294 L19.7289129,12.319844 L24.0767247,16.1516563 L25.3560659,17.1731126 L34.0516894,24.3254686 L37.8886306,27.6460123 L43.2592659,32.2431061 L46.8396894,35.0534621 L75.4852424,46.5467372 L83.6699953,45.0150932 L123.824207,37.8627372 L129.195925,36.8412809 L163.722984,19.7272939 L167.81536,17.6843812 L190.578325,15.1302 L202.855454,19.7272939 L204.901101,20.4936563 L225.361901,27.9011061 L244.032489,34.5421935 L254.007454,49.8672809 L257.077007,53.6990932 L263.215031,63.1494557 L271.399784,75.4101741 L276,84.3503489 L277.537807,333.134951 Z M17.9387012,328.026588 L19.2180424,328.026588 L17.9387012,328.026588 L14.8691482,328.026588 L15.1256659,328.026588 L17.9387012,328.026588 Z M7.70830118,325.983676 L7.70830118,327.516401 L6.68547765,327.516401 L6.68547765,325.983676 L6.68547765,324.962219 L7.70830118,325.217313 L7.70830118,325.983676 Z M14.6137129,325.727501 L14.6137129,327.771494 L13.3354541,327.771494 L12.0561129,327.771494 L12.0561129,325.727501 L10.7778541,325.727501 L9.24307765,325.727501 L9.24307765,323.17332 L11.5452424,323.429494 L14.6137129,323.429494 L14.6137129,325.727501 Z M40.1897129,311.935139 L48.3744659,312.190232 L48.3744659,312.701501 L48.3744659,312.956595 L48.3744659,313.978051 L48.1190306,319.342588 L53.4896659,319.342588 L55.5353129,319.342588 L58.0939953,319.342588 L60.6515953,319.342588 L61.6744188,319.342588 L62.9526776,319.342588 L64.2320188,319.342588 L67.8124424,319.086414 L69.8580894,319.086414 L70.6254776,319.086414 L71.1374306,319.086414 L71.1374306,319.852776 L70.8819953,322.406957 L70.8819953,322.663132 L70.6254776,323.939682 L70.3700424,325.727501 L70.3700424,326.23877 L70.1146071,327.771494 L70.1146071,328.026588 L70.1146071,328.282763 L70.1146071,328.537857 L70.1146071,328.792951 L70.1146071,329.048045 L57.8374776,329.304219 L37.8886306,329.048045 L38.1440659,322.406957 L38.1440659,319.086414 L35.8419012,318.83132 L35.8419012,315.255682 L36.0984188,315.255682 L36.0984188,313.722957 L36.0984188,312.701501 L38.3995012,312.701501 L38.3995012,312.190232 L39.4223247,312.190232 L40.1897129,312.190232 L40.1897129,311.935139 Z M114.361195,311.42387 L113.082936,311.42387 L113.082936,309.891145 L113.082936,309.124783 L114.616631,309.124783 L117.686184,309.124783 L117.941619,309.124783 L117.686184,309.891145 L117.686184,310.657507 L117.686184,311.42387 L116.406842,311.42387 L114.361195,311.42387 Z M115.639454,292.011876 L115.639454,292.522064 L115.639454,292.778239 L115.639454,293.288427 L115.384019,293.799695 L115.128584,294.821151 L115.384019,294.821151 L117.174231,295.077326 L118.198136,295.077326 L118.198136,295.33242 L118.198136,296.098783 L118.198136,296.353876 L118.198136,296.865145 L117.941619,297.120239 L117.430748,297.120239 L114.873148,297.120239 L114.10576,296.865145 L113.849242,296.865145 L113.849242,297.120239 L113.593807,297.375333 L113.338372,297.375333 L113.338372,297.631507 L113.593807,297.886601 L113.338372,298.141695 L113.338372,298.39787 L113.082936,299.419326 L112.315548,299.163151 L112.315548,299.419326 L112.315548,299.67442 L112.059031,299.929514 L112.059031,300.185689 L112.059031,300.440783 L111.803595,300.440783 L111.803595,300.695876 L111.54816,300.952051 L111.54816,301.207145 L111.291642,301.207145 L111.291642,301.462239 L111.036207,301.718414 L110.780772,301.973507 L110.524254,302.228601 L110.524254,302.483695 L110.268819,302.73987 L110.013384,302.994964 L109.757948,302.994964 L109.757948,303.250058 L109.501431,303.506232 L109.245995,303.761326 L108.99056,304.01642 L108.734042,304.272595 L108.734042,304.527689 L108.734042,304.782783 L108.99056,304.782783 L108.99056,305.038957 L108.99056,305.294051 L108.734042,305.294051 L108.734042,305.549145 L108.734042,305.804239 L107.200348,306.826776 L106.943831,307.08187 L106.943831,307.336964 L105.153619,307.336964 L104.898184,307.593139 L104.130795,308.359501 L103.87536,308.614595 L103.87536,308.869689 L102.340584,308.869689 L101.828631,309.124783 L100.805807,309.124783 L100.550372,309.124783 L99.5275482,309.124783 L97.7362541,309.124783 L97.7362541,308.359501 L97.7362541,308.103326 L97.7362541,307.593139 L97.9927718,303.250058 L97.9927718,302.73987 L97.9927718,299.419326 L97.9927718,299.163151 L105.153619,297.886601 L105.153619,292.26697 L97.9927718,292.522064 L97.9927718,294.054789 L97.9927718,292.522064 L98.2482071,289.457695 L105.409054,289.457695 L106.943831,289.457695 L108.223172,289.457695 L108.478607,289.457695 L108.734042,289.457695 L110.013384,289.457695 L110.268819,289.457695 L111.291642,289.457695 L112.315548,289.457695 L113.082936,289.457695 L113.593807,289.457695 L114.361195,289.457695 L115.128584,289.457695 L115.639454,290.99042 L115.639454,291.500608 L115.639454,292.011876 Z" id="Stroke-2"></path>
        </g>
    </g>
</svg>