<svg xmlns="http://www.w3.org/2000/svg" xmlns:xlink="http://www.w3.org/1999/xlink" version="1.1" x="0px" y="0px" viewBox="0 0 50.4 50.4" enable-background="new 0 0 50.4 50.4" xml:space="preserve"><circle cx="10.468" cy="31.443" r="1.082"></circle><circle cx="10.468" cy="42.26" r="1.082"></circle><circle cx="39.37" cy="31.443" r="1.082"></circle><circle cx="39.37" cy="42.26" r="1.082"></circle><path d="M46.531,34.424l-0.04-10.682l-7.109,2.609l0.01-6.502l3.714,3.392l3.346-3.661L24.985-0.012l-9.543,8.545V3.109h-5.098  v9.992l-7.017,6.285l3.307,3.693l3.709-3.325l0.005,6.293l-6.282-2.306L4.025,34.424l6.679,2.452l-6.679,2.452l0.041,10.685  l6.3-2.312l0.002,2.7h6.319v-5.021l6.076-2.23v7.246h16.582v0.003l0.004-3.006l7.142,2.621l0.04-10.685l-6.679-2.452L46.531,34.424z   M27.189,19.436h6.076v6.266h-6.076V19.436z M16.686,19.436h6.079v6.266h-6.079V19.436z M27.612,32.385l17.278-6.342l0.027,7.26  l-7.399,2.717L27.612,32.385z M5.639,40.449l7.399-2.717l9.904,3.636L5.666,47.71L5.639,40.449z M24.204,41.831l-0.093-0.033  L24.204,41.831L24.204,41.831z M44.918,40.449L44.89,47.71L5.639,33.302l0.027-7.26L44.918,40.449z"></path></svg>