<?xml version="1.0" encoding="UTF-8"?>
<svg width="174px" height="183px" viewBox="0 0 174 183" version="1.1" xmlns="http://www.w3.org/2000/svg" xmlns:xlink="http://www.w3.org/1999/xlink">
    <!-- Generator: Sketch 43.1 (39012) - http://www.bohemiancoding.com/sketch -->
    <title>SE</title>
    <desc>Created with Sketch.</desc>
    <defs></defs>
    <g id="Symbols" stroke="none" stroke-width="1" fill="none" fill-rule="evenodd">
        <g id="SE" stroke-width="3" stroke="#FFFFFF" fill="#75568D">
            <g id="Fill-21">
                <polygon points="6.37874397 2.81104163 6.63354823 2.81104163 7.14423644 2.81104163 7.9097289 2.81104163 9.69551809 3.06629589 11.7361115 3.06629589 13.5219007 3.06629589 15.8183781 3.32263174 17.6041673 3.32263174 18.6255437 3.32263174 19.6458404 3.32263174 21.6864339 3.32263174 23.4722231 3.577886 25.5138962 3.577886 27.5544897 3.577886 29.5950831 3.577886 30.1057713 3.577886 31.381952 3.577886 33.4225454 3.83314026 35.4631389 3.83314026 37.2500078 3.83314026 39.2906012 3.83314026 41.3311947 4.08947611 43.3728678 4.08947611 45.158657 4.08947611 49.2409236 4.34473037 53.0673062 4.34473037 57.1495728 4.59998463 61.2318394 4.59998463 63.783121 4.59998463 65.5689102 4.59998463 66.5892069 4.85523889 67.6105833 4.85523889 69.1404886 4.85523889 71.9476542 4.85523889 77.81571 5.11157474 78.3253185 5.11157474 78.5812024 5.11157474 78.8360067 5.11157474 79.0908109 5.11157474 79.3456152 5.11157474 79.6014991 5.11157474 80.1111077 5.11157474 80.3669916 5.11157474 80.6217959 5.11157474 80.8766001 4.85523889 81.1324841 4.85523889 81.3872883 4.85523889 81.6420926 4.85523889 81.8968969 4.85523889 82.1527808 4.85523889 82.4075851 4.59998463 82.9182733 4.59998463 83.1730775 4.59998463 83.4278818 4.34473037 83.6837657 4.34473037 84.4481785 4.08947611 84.7040624 4.08947611 84.9588667 4.08947611 85.4695549 3.83314026 85.9791634 3.83314026 86.2350474 3.577886 86.4898516 3.577886 86.7446559 3.577886 86.9994602 3.577886 87.5101484 3.577886 87.7649526 3.577886 88.786329 3.577886 89.5518215 3.577886 89.8066258 3.577886 90.5721182 3.577886 90.8269225 3.83314026 91.3376107 3.83314026 91.5924149 4.08947611 92.1031031 4.08947611 92.3579074 4.08947611 92.6127117 4.34473037 93.1233999 4.34473037 94.3985009 4.85523889 94.6543848 5.11157474 94.9091891 5.11157474 95.1639933 5.366829 95.4187976 5.366829 95.6746815 5.62208326 96.18429 5.62208326 96.18429 5.87841911 96.440174 5.87841911 96.6949783 5.87841911 96.9497825 5.87841911 97.2056665 5.87841911 97.4604707 5.87841911 97.9711589 5.62208326 98.2259632 5.62208326 98.7355717 5.366829 98.9914556 5.366829 99.2462599 5.11157474 99.5010642 5.11157474 99.7569481 5.11157474 100.011752 5.11157474 100.266557 5.11157474 100.522441 4.85523889 100.777245 4.85523889 101.032049 4.85523889 102.052346 5.11157474 102.563034 5.11157474 103.073722 5.11157474 103.328526 5.11157474 103.583331 5.11157474 103.838135 5.366829 104.094019 5.366829 104.348823 5.366829 104.603627 5.62208326 104.859511 5.62208326 105.114316 5.62208326 106.645301 5.62208326 107.410793 5.62208326 110.216879 5.87841911 113.533653 5.87841911 114.044341 5.87841911 116.339739 6.13367337 118.891021 6.13367337 120.932694 6.13367337 121.952991 6.13367337 122.973287 6.13367337 123.73878 6.13367337 125.01496 6.13367337 127.055554 6.38892763 128.841343 6.38892763 131.647429 6.38892763 134.198711 6.38892763 136.240384 6.64526348 136.495188 6.64526348 138.280977 6.13367337 139.04647 5.87841911 140.066766 5.87841911 141.088143 5.87841911 142.873932 6.13367337 144.659721 6.13367337 145.680018 6.13367337 146.44551 6.13367337 147.465807 6.13367337 148.741988 6.13367337 148.996792 6.13367337 151.037385 6.38892763 153.079059 6.38892763 154.864848 6.38892763 156.650637 6.38892763 156.905441 6.38892763 157.161325 6.64526348 158.181622 7.155772 158.947114 7.155772 160.987708 7.41210785 163.029381 7.41210785 165.324779 7.41210785 167.366452 7.66736211 169.407045 7.66736211 171.192834 7.66736211 174 7.66736211 174 12.5236826 173.744116 14.3126256 173.744116 16.1015686 173.744116 17.8905116 173.744116 19.9357904 173.744116 21.9799877 173.744116 24.024185 173.744116 26.0694638 174 27.8584068 174 29.9036857 174 31.1810386 174 31.6926287 174 33.4815717 174 35.2705147 174 35.7821048 174 37.0594577 174 37.5710478 174 38.8484007 174 39.615245 174 40.8936795 174 42.9378768 173.744116 45.4936642 173.744116 47.7941973 173.489312 57.5068382 173.489312 58.2736826 173.489312 61.3399785 173.234508 64.9189461 173.234508 66.9631433 173.234508 69.2636764 172.978624 70.5410293 172.978624 73.0978983 172.978624 74.8868413 172.978624 77.9531372 172.723819 79.4868259 172.723819 81.2757689 172.723819 83.3210478 172.723819 85.1099908 172.469015 86.8989338 172.469015 88.9442126 172.469015 90.7331556 172.469015 92.5220986 172.213131 94.5662959 172.213131 95.3331403 172.213131 97.6336734 171.958327 104.023683 171.958327 104.790527 171.958327 106.834724 171.703523 107.856823 171.703523 110.157356 171.703523 111.691045 171.448718 116.291029 171.448718 118.336308 171.448718 118.847898 171.448718 119.613661 171.192834 121.403686 171.192834 123.192629 171.192834 124.214727 171.192834 125.493162 170.93803 127.537359 170.93803 129.071048 170.93803 130.859991 170.93803 132.648934 170.93803 132.904188 170.683226 134.949467 170.683226 137.505254 170.683226 139.294197 170.683226 141.339476 170.683226 142.361575 170.427342 143.895263 170.427342 147.473149 170.427342 147.98474 170.427342 149.773683 170.427342 150.284191 170.427342 150.795781 170.427342 152.32947 170.427342 153.351569 170.427342 153.606823 170.172538 157.441045 170.172538 159.229988 170.172538 160.252086 170.172538 161.018931 170.172538 161.530521 170.172538 162.297365 169.917733 167.153686 169.917733 168.942629 169.917733 169.453137 169.917733 171.75367 169.917733 172.26526 169.661849 174.054203 169.661849 174.565794 169.661849 177.121581 149.762284 176.609991 129.606835 176.354737 109.451387 175.587892 89.8066258 175.331556 69.905981 174.565794 49.7505321 174.054203 48.2206268 174.054203 48.7302354 181.721566 37.7596163 181.466311 15.0528857 182.743664 13.5219007 183 13.5219007 182.743664 13.5219007 182.48841 13.2670965 182.48841 13.0122922 182.233156 13.2670965 182.233156 13.2670965 181.97682 13.0122922 181.466311 12.7574879 180.444213 12.7574879 180.187877 12.501604 179.932623 12.2467997 179.677368 12.2467997 179.421032 12.2467997 179.165778 12.2467997 178.910524 12.2467997 178.654188 12.2467997 178.398934 12.2467997 178.14368 11.9919955 177.376835 11.9919955 176.609991 11.9919955 176.098401 11.7361115 175.587892 11.4813073 175.076302 11.4813073 174.565794 11.226503 174.054203 10.9706191 173.542613 10.9706191 173.287359 10.7158148 173.287359 10.4610106 173.032105 10.2062063 172.775769 10.2062063 172.520515 9.95032235 172.010006 9.69551809 171.498416 9.69551809 170.986826 9.44071383 170.219982 9.18482989 169.709473 8.93002563 169.453137 8.93002563 169.197883 8.67522137 169.197883 8.41933742 168.942629 8.16453316 168.686293 7.9097289 168.175784 7.65492464 167.92053 7.3990407 167.664194 7.3990407 167.40894 7.14423644 167.153686 6.88943218 166.89735 6.88943218 166.642096 6.63354823 166.386841 6.37874397 166.130505 5.86805577 165.108407 5.61325151 164.853153 5.61325151 164.597898 5.35844725 164.341562 5.10256331 163.831054 5.10256331 163.574718 5.10256331 163.06421 5.10256331 162.807874 5.10256331 162.297365 4.84775905 162.042111 4.84775905 161.785775 4.84775905 161.530521 4.84775905 161.275267 4.84775905 161.018931 4.84775905 160.763676 4.84775905 160.508422 4.59295478 160.252086 4.59295478 159.996832 4.59295478 159.741578 4.33815052 159.485242 4.33815052 158.974733 4.33815052 158.719479 4.33815052 157.952635 4.33815052 156.929455 4.08226658 156.418946 4.08226658 155.652102 3.82746232 155.396847 3.82746232 154.885257 3.82746232 154.630003 3.82746232 154.373667 4.08226658 153.863159 4.33815052 153.351569 4.33815052 152.839978 4.33815052 152.584724 4.33815052 152.074216 4.08226658 151.81788 4.08226658 151.307371 4.08226658 151.051035 3.82746232 150.795781 3.82746232 150.540527 3.82746232 150.284191 4.08226658 150.028937 4.08226658 149.773683 4.08226658 149.262092 4.08226658 148.751584 4.08226658 147.98474 4.08226658 147.217895 4.08226658 146.194715 4.08226658 145.939461 4.08226658 145.428952 4.08226658 145.172616 4.33815052 144.662108 4.33815052 144.405772 4.59295478 144.150518 4.59295478 143.895263 5.10256331 143.128419 5.35844725 142.872083 5.61325151 142.361575 5.86805577 142.10632 6.12393971 141.59473 6.37874397 140.827886 6.63354823 140.316296 6.63354823 140.061042 6.63354823 139.805787 6.88943218 139.549452 6.88943218 139.038943 7.14423644 138.783689 7.14423644 138.527353 7.3990407 138.272099 7.3990407 138.016844 7.65492464 137.760509 7.9097289 137.760509 8.16453316 137.505254 8.41933742 137.25 8.67522137 137.25 8.67522137 136.993664 8.93002563 136.993664 9.18482989 136.993664 9.69551809 136.483156 10.2062063 136.22682 10.4610106 135.971566 10.9706191 135.971566 11.226503 135.971566 11.4813073 135.716311 11.7361115 135.461057 11.9919955 135.461057 12.2467997 135.461057 12.501604 135.204721 12.7574879 134.949467 13.0122922 134.694213 13.2670965 134.694213 13.5219007 134.437877 13.7777847 134.437877 14.5432771 133.927368 15.0528857 133.415778 16.0731824 132.39368 16.5838706 131.882089 16.8386748 131.371581 16.8386748 131.115245 17.0945588 131.115245 17.3493631 130.859991 17.6041673 130.604737 17.8600513 130.604737 18.1148555 130.348401 18.1148555 130.093146 18.3696598 129.837892 18.6255437 129.581556 18.880348 129.326302 18.880348 129.071048 19.1351522 128.815794 19.1351522 128.304203 19.3899565 128.048949 19.6458404 127.792613 19.9006447 127.537359 20.155449 127.025769 20.4113329 126.770515 20.4113329 126.51526 20.6661372 126.00367 20.9209414 125.493162 21.1768254 124.981572 21.1768254 124.469982 21.4316296 123.959473 21.4316296 123.447883 21.6864339 123.192629 21.6864339 122.936293 21.9412382 122.425784 22.1971221 122.17053 22.1971221 121.914194 22.4519264 121.65894 22.4519264 121.403686 22.4519264 121.14735 22.7067306 120.636841 22.7067306 120.380505 22.7067306 120.125251 22.7067306 119.613661 22.9626146 119.358407 23.2174188 118.847898 23.2174188 118.591562 23.4722231 118.336308 23.4722231 118.081054 23.4722231 117.569464 23.728107 117.569464 23.728107 117.057874 23.9829113 116.802619 23.9829113 116.547365 24.2377155 116.547365 24.2377155 116.291029 24.4925198 116.035775 24.4925198 115.780521 24.7484038 115.525267 25.003208 115.268931 25.2580123 114.758422 25.5138962 113.991578 26.0235047 113.224733 26.0235047 112.713143 26.2793887 112.202635 26.5341929 111.691045 26.5341929 111.43579 26.7889972 111.179455 26.7889972 110.9242 27.0438015 110.41261 27.2996854 110.157356 27.2996854 109.902102 27.2996854 109.390512 27.5544897 108.880003 27.5544897 108.623667 27.5544897 108.368413 27.5544897 107.856823 27.8092939 107.601569 27.8092939 107.346314 27.8092939 106.834724 27.8092939 106.323134 27.8092939 105.812626 27.8092939 105.557371 27.8092939 105.045781 28.0651779 104.278937 28.0651779 103.512092 28.0651779 102.745248 28.0651779 102.489994 28.0651779 102.23474 28.0651779 101.978404 28.0651779 101.723149 28.0651779 101.211559 28.0651779 100.956305 28.0651779 100.701051 27.8092939 100.189461 27.5544897 99.6789522 27.5544897 99.4226164 27.5544897 99.1673621 27.5544897 98.9121079 27.5544897 98.655772 27.5544897 98.4005177 27.5544897 98.1452635 27.2996854 97.8889276 27.2996854 97.6336734 27.0438015 97.6336734 26.7889972 97.1220833 26.2793887 96.6115747 25.003208 95.8447304 23.728107 95.077886 22.9626146 94.3110416 21.9412382 93.5441973 21.6864339 93.5441973 21.1768254 93.0336887 20.9209414 92.7773529 20.6661372 92.5220986 19.3899565 90.9884099 18.6255437 90.2215655 18.3696598 89.711057 18.1148555 89.711057 17.8600513 89.4547212 17.6041673 89.1994669 17.3493631 88.9442126 17.0945588 88.6878768 17.0945588 88.4326225 17.0945588 88.1773683 17.0945588 87.6657782 17.0945588 87.154188 17.0945588 86.8989338 16.5838706 85.8768351 16.5838706 85.365245 16.3290663 85.1099908 16.0731824 84.3431464 15.5635739 82.5542034 15.5635739 82.2989491 15.5635739 81.787359 15.3087696 81.2757689 15.3087696 81.0205147 15.3087696 80.5089246 15.3087696 79.7431618 15.0528857 78.7199816 14.7980814 77.4426287 14.7980814 76.9310386 14.7980814 76.6757843 14.7980814 76.42053 14.7980814 75.9089399 14.7980814 75.3973498 14.7980814 74.8868413 14.7980814 74.3752512 14.5432771 73.6084068 14.5432771 73.3531526 14.2873932 72.8415624 14.2873932 72.5863082 14.2873932 71.8194638 14.0325889 71.3078737 14.0325889 71.0526194 13.7777847 70.7973652 13.5219007 70.5410293 13.5219007 70.0305208 13.5219007 69.0084222 13.5219007 68.4968321 13.2670965 67.7299877 13.2670965 67.2183976 13.2670965 66.7078891 13.2670965 66.196299 13.2670965 65.6857904 13.0122922 64.407356 12.7574879 63.6405116 12.7574879 63.1300031 12.501604 62.618413 12.501604 62.3631587 12.2467997 62.1068229 12.2467997 61.8515686 11.9919955 61.5963143 11.7361115 61.3399785 11.4813073 61.3399785 11.4813073 61.0847242 11.226503 61.0847242 10.9706191 60.0626256 10.7158148 59.5510355 10.4610106 59.2957812 10.7158148 59.2957812 10.7158148 59.040527 10.7158148 58.7841911 10.7158148 58.5289369 10.4610106 58.5289369 10.2062063 58.2736826 9.95032235 58.2736826 9.69551809 58.2736826 9.44071383 58.5289369 9.18482989 58.2736826 9.18482989 58.0173467 8.93002563 57.5068382 8.16453316 55.9731495 8.16453316 55.7178952 8.16453316 55.4615594 8.16453316 54.9510509 8.16453316 54.4394607 7.9097289 53.9278706 7.9097289 53.6726164 7.65492464 53.1621079 7.65492464 52.905772 7.14423644 52.1389276 6.88943218 51.6284191 6.63354823 51.3720833 6.63354823 50.8615747 6.63354823 50.6052389 6.63354823 50.3499846 6.63354823 49.8394761 6.37874397 49.327886 6.12393971 48.5610416 5.86805577 48.0494515 5.86805577 47.7941973 5.61325151 47.538943 5.10256331 47.0273529 5.10256331 46.7720986 4.84775905 46.5168444 4.59295478 46.2605085 4.33815052 46.2605085 4.33815052 46.0052543 4.08226658 46.0052543 4.08226658 45.75 3.82746232 45.4936642 3.82746232 45.2384099 3.57265806 44.7268198 3.31677412 43.9599754 3.06196986 43.7047212 3.06196986 43.4494669 2.80716559 43.4494669 2.80716559 43.1942126 2.80716559 42.9378768 2.80716559 42.6826225 2.80716559 42.4273683 2.80716559 42.1710324 2.55128165 41.6605239 2.55128165 41.404188 2.55128165 40.8936795 2.29647739 40.3820894 2.29647739 40.1268351 2.04167313 39.8715809 2.04167313 39.3599908 1.78686887 38.5931464 1.78686887 38.3378921 1.53098493 38.0815563 1.53098493 37.5710478 1.53098493 37.3147119 1.53098493 37.0594577 1.27618067 36.8042034 1.27618067 36.5489491 1.0213764 36.037359 1.0213764 35.7821048 0.765492464 35.5257689 0.765492464 35.2705147 0.765492464 34.7589246 0.765492464 34.5036703 0.765492464 34.248416 0.765492464 33.9920802 0.765492464 33.4815717 0.765492464 33.2263174 0.765492464 32.9699816 0.510688202 32.459473 0.510688202 32.2031372 0.510688202 31.9478829 0.255883941 31.4362928 0 30.9257843 0 30.6694485 0 30.4141942 0 30.1589399 0 29.9036857 0 29.3920956 0 28.8805054 0 28.3699969 0 27.8584068 0 27.6031526 0 27.3478983 0.255883941 27.0915624 0.255883941 26.8363082 0.255883941 26.5810539 0.255883941 26.0694638 0.255883941 25.8142096 0.510688202 25.3026194 1.0213764 23.0020863 1.53098493 21.2131433 1.78686887 19.6794546 2.04167313 18.4021017 2.04167313 17.6352573 2.29647739 17.1236672 2.29647739 16.6131587 2.55128165 16.3568229 2.55128165 16.1015686 2.55128165 15.8463143 2.80716559 15.5899785 2.55128165 15.3347242 2.55128165 15.07947 2.80716559 15.07947 2.80716559 14.8231341 3.06196986 14.5678799 3.06196986 14.0562897 3.31677412 13.5457812 3.31677412 13.290527 3.57265806 13.290527 3.57265806 13.0341911 3.82746232 12.7789369 3.82746232 12.5236826 3.82746232 12.2673467 3.82746232 12.0120925 3.82746232 11.7568382 3.82746232 11.5005024 4.08226658 11.2452481 4.08226658 10.9899939 4.08226658 10.7347396 3.82746232 10.4784037 4.08226658 9.96789522 4.08226658 9.20105085 4.33815052 8.68946074 4.59295478 7.92261637 5.10256331 5.366829 5.10256331 4.59998463 5.10256331 3.83314026 5.35844725 3.577886 5.61325151 3.32263174 5.61325151 3.06629589 5.86805577 2.81104163 5.86805577 1.788943 6.12393971 1.02209863 6.37874397 0.510508523 6.37874397 0"></polygon>
            </g>
        </g>
    </g>
</svg>