<svg xmlns:dc="http://purl.org/dc/elements/1.1/" xmlns:cc="http://creativecommons.org/ns#" xmlns:rdf="http://www.w3.org/1999/02/22-rdf-syntax-ns#" xmlns:svg="http://www.w3.org/2000/svg" xmlns="http://www.w3.org/2000/svg" xmlns:sodipodi="http://sodipodi.sourceforge.net/DTD/sodipodi-0.dtd" xmlns:inkscape="http://www.inkscape.org/namespaces/inkscape" viewBox="0 0 457.53402 407.4545" version="1.1" x="0px" y="0px"><g transform="translate(-155.654,-351.3742)"><path style="" d="m 287.454,351.3767 c -28.418,0 -53.58,18.8959 -61.41,46.3607 l -31.634,109.55 c -22.121,4.7222 -38.756,24.2871 -38.756,47.8165 l 0,78.1574 c 0,18.9728 10.917,35.248 26.7,43.3674 -0.03,0.8714 -0.245,1.6371 -0.245,2.5048 l 0,35.2767 c 0,24.5237 19.854,44.4185 44.419,44.4185 l 23.302,0 c 24.523,0 44.419,-19.8536 44.419,-44.4185 l 0,-32.2021 179.698,0 0,32.2021 c 0,24.5237 19.934,44.4185 44.499,44.4185 l 23.22,0 c 24.524,0 44.501,-19.8536 44.501,-44.4185 l 0,-35.2767 c 0,-0.7875 -0.205,-1.4365 -0.245,-2.1839 16.114,-7.9953 27.266,-24.4695 27.266,-43.6908 l 0,-78.1574 c -0.03,-22.991 -16.042,-42.193 -37.541,-47.4126 L 543.85,397.7348 C 535.978,370.27 510.898,351.3742 482.521,351.3742 l -195.07,0 z m 10.842,26.6187 173.467,0 c 25.477,0 47.651,18.8998 54.776,46.1988 l 21.035,81.9601 -325.17,0 21.035,-81.9601 c 6.96,-27.299 29.38,-46.1988 54.857,-46.1988 z m -72.575,157.5287 c 16.239,0 29.37,13.1725 29.37,29.3696 0,16.1974 -13.131,29.3703 -29.37,29.3703 -16.198,0 -29.289,-13.1316 -29.289,-29.3703 0,-16.1971 13.091,-29.3696 29.289,-29.3696 z m 316.675,0 c 16.198,0 29.289,13.1725 29.289,29.3696 0.03,16.1974 -13.091,29.3703 -29.289,29.3703 -16.238,0 -29.369,-13.1316 -29.369,-29.3703 0,-16.1971 13.172,-29.3696 29.369,-29.3696 z m -238.841,82.2842 161.655,0 0,33.9004 -161.655,0 0,-33.9004 z" fill="#000000"></path></g></svg>