<?xml version="1.0" encoding="UTF-8"?>
<svg width="219px" height="394px" viewBox="0 0 219 394" version="1.1" xmlns="http://www.w3.org/2000/svg" xmlns:xlink="http://www.w3.org/1999/xlink">
    <!-- Generator: Sketch 43.1 (39012) - http://www.bohemiancoding.com/sketch -->
    <title>outer east portland</title>
    <desc>Created with Sketch.</desc>
    <defs></defs>
    <g id="Symbols" stroke="none" stroke-width="1" fill="none" fill-rule="evenodd">
        <g id="outer-east-portland" stroke-width="3" stroke="#FFFFFF" fill="#75568D">
            <g id="Group-2">
                <polygon id="Fill-25" points="50.9121542 9.70981322 70.100571 16.0979621 90.5676381 25.0400729 103.104042 30.6616006 114.872822 35.7716872 130.734149 40.6265938 170.134119 52.8914503 176.018509 54.6798724 205.44046 66.4332878 205.44046 67.7113501 204.41624 151.00814 204.160727 151.00814 203.905213 151.00814 203.905213 151.26332 203.905213 151.774761 203.905213 152.541382 201.602343 152.286202 197.764227 151.519581 187.27518 149.730077 187.019666 149.730077 183.18155 148.964538 179.60003 148.453096 176.274023 147.941655 176.274023 148.197916 176.274023 148.708276 176.274023 148.964538 176.274023 150.496699 176.274023 151.00814 176.274023 151.26332 175.5064 151.00814 175.5064 151.519581 175.5064 152.029941 175.5064 152.541382 175.5064 153.051742 175.5064 153.563183 175.5064 154.074624 175.5064 154.584984 175.5064 154.841245 175.5064 155.096425 175.5064 155.351605 175.5064 155.863046 175.5064 156.373406 175.5064 156.884847 175.5064 157.396289 175.5064 157.651468 175.5064 157.906648 175.5064 158.67327 175.5064 159.184711 175.250886 159.951332 175.250886 160.461692 175.250886 160.717953 175.250886 160.973133 175.250886 161.484574 175.250886 161.739754 175.250886 162.251195 175.250886 163.016735 175.250886 163.272996 175.250886 163.528176 175.250886 163.783356 175.250886 165.828039 175.250886 166.849841 168.086763 166.849841 167.83125 166.849841 167.575736 166.849841 167.063626 166.849841 167.063626 167.871642 167.063626 168.383083 167.063626 168.893443 167.063626 169.149704 167.31914 169.149704 167.31914 169.916325 167.063626 170.426685 167.063626 170.682946 167.063626 170.938126 167.063626 172.216188 167.31914 172.216188 167.31914 172.726548 167.31914 173.237989 167.31914 174.51497 167.31914 175.026412 167.063626 175.793033 167.063626 176.303393 167.31914 176.303393 167.31914 178.348076 167.063626 180.391678 167.063626 180.903119 167.063626 181.41456 167.063626 181.66974 167.063626 182.181181 167.063626 182.946721 167.063626 183.458162 166.808113 183.969604 166.808113 184.479964 167.063626 184.479964 167.063626 185.501765 166.808113 185.501765 166.808113 187.035007 166.808113 188.313069 166.808113 189.59005 166.808113 190.101491 166.552599 190.612932 166.552599 190.868112 166.552599 191.889913 166.552599 192.401355 166.552599 193.423156 166.552599 194.189777 166.552599 194.701218 165.784976 194.701218 165.272866 194.701218 165.017353 194.701218 165.017353 195.211578 165.017353 195.723019 165.272866 195.723019 166.296003 195.723019 166.552599 195.723019 166.296003 197 165.52838 197 165.017353 197 164.249729 196.74482 163.994216 196.74482 163.226593 196.74482 162.969996 197.511441 162.969996 198.022882 162.714483 198.533242 162.714483 199.044683 163.73762 199.044683 163.994216 199.044683 163.73762 199.811304 163.994216 199.811304 164.505243 199.811304 164.505243 200.577926 164.505243 201.344547 164.760756 201.344547 165.52838 201.599727 165.272866 202.110087 165.272866 202.621528 165.017353 202.876708 165.017353 203.388149 164.505243 203.388149 163.994216 203.388149 163.482106 203.132969 163.482106 203.89959 163.482106 204.666211 163.482106 205.431751 163.226593 206.198372 163.226593 206.964993 163.226593 207.731614 163.226593 208.498235 162.969996 209.264856 165.272866 209.520036 165.272866 210.286658 164.505243 210.286658 163.73762 210.286658 162.969996 210.286658 162.202373 210.286658 162.202373 210.798099 162.202373 211.30954 162.202373 211.56472 162.969996 211.8199 163.482106 211.8199 163.73762 211.8199 163.994216 211.8199 164.249729 211.8199 164.249729 212.07508 164.249729 212.331341 164.249729 213.097962 164.249729 213.608322 164.249729 213.864583 164.249729 214.119763 164.249729 214.374943 163.994216 214.374943 163.73762 214.374943 162.714483 214.374943 162.714483 215.396744 162.714483 215.908185 162.714483 216.163365 162.714483 216.674806 162.714483 217.186248 162.714483 218.208049 162.714483 219.22985 162.714483 219.996471 162.458969 221.018272 162.458969 222.040073 162.458969 223.318135 162.458969 224.084756 162.458969 224.339936 162.458969 224.851377 162.458969 225.106557 162.458969 225.361737 162.458969 225.873178 162.458969 226.894979 162.458969 227.917862 162.202373 228.173042 162.202373 228.683402 162.202373 229.706284 163.482106 229.706284 163.482106 230.472905 163.482106 230.983265 163.226593 231.749886 163.226593 232.005066 163.226593 232.516507 163.482106 232.516507 164.249729 232.516507 164.249729 233.283128 164.249729 233.538308 164.249729 233.794569 165.017353 233.794569 165.52838 233.794569 165.52838 234.049749 166.040489 234.049749 166.552599 234.049749 167.575736 234.049749 167.83125 234.049749 168.343359 234.049749 168.343359 234.304929 168.343359 234.561191 168.598873 234.561191 168.854386 234.561191 168.854386 234.049749 169.110983 234.049749 169.62201 234.049749 169.62201 233.794569 169.62201 233.538308 169.877523 233.538308 170.645146 233.794569 170.901743 233.794569 170.901743 234.304929 171.924879 234.304929 172.180393 234.304929 172.436989 234.304929 172.436989 233.794569 172.436989 233.283128 173.460126 233.283128 173.71564 233.283128 174.738776 233.283128 174.738776 233.538308 174.995373 233.538308 175.250886 233.538308 176.018509 233.538308 176.018509 233.283128 176.274023 233.283128 176.786133 233.283128 176.786133 233.538308 177.29716 233.538308 178.064783 233.538308 178.064783 233.794569 178.064783 234.304929 178.064783 235.07155 178.064783 235.582992 178.576893 235.582992 178.832406 235.582992 179.08792 235.582992 179.60003 235.582992 180.367653 235.838172 180.623166 235.838172 180.623166 235.582992 180.879763 235.582992 181.39079 235.582992 181.646303 235.838172 182.158413 235.838172 182.158413 234.304929 183.438146 234.304929 183.69366 234.304929 183.949173 234.304929 183.949173 234.049749 184.204687 234.049749 184.716796 234.049749 184.716796 234.304929 185.228906 234.304929 185.48442 234.304929 185.739933 234.304929 185.996529 234.304929 185.996529 234.561191 186.252043 234.561191 186.76307 234.561191 186.76307 235.07155 186.76307 235.32673 186.76307 235.582992 187.530693 235.582992 187.530693 234.049749 187.78729 234.049749 188.042803 234.049749 188.810426 234.049749 189.06594 234.049749 189.833563 234.049749 190.345673 234.049749 190.601187 234.049749 190.601187 234.561191 190.601187 234.816371 190.601187 235.07155 190.601187 235.32673 190.345673 235.582992 190.345673 236.093352 190.345673 236.349613 190.345673 236.604793 190.345673 236.859973 190.345673 237.116234 190.345673 237.371414 190.345673 237.882855 190.345673 238.138035 189.833563 238.138035 189.833563 238.648395 189.833563 238.904656 189.833563 239.159836 189.833563 239.415016 189.833563 240.181637 189.57805 240.437898 189.57805 240.948258 189.57805 241.203438 189.57805 241.459699 189.57805 241.714879 189.57805 241.970059 189.57805 242.22632 189.57805 242.4815 189.57805 242.73668 189.833563 242.73668 189.833563 243.503301 189.833563 244.014743 189.833563 244.269923 189.833563 244.526184 189.833563 244.781364 189.833563 245.036544 189.833563 245.291724 189.833563 245.547985 189.833563 245.803165 189.833563 246.058345 189.833563 246.314606 189.57805 246.824966 189.57805 247.336407 189.57805 247.591587 189.57805 247.847848 189.57805 248.103028 189.57805 248.358208 189.57805 248.613388 189.57805 248.869649 189.57805 249.124829 189.57805 249.63627 189.57805 249.89145 189.57805 250.14663 189.57805 250.402891 189.57805 250.913251 189.57805 251.169513 189.57805 251.424692 189.57805 251.679872 189.57805 251.935052 189.57805 252.191314 189.57805 252.957935 189.833563 252.957935 189.57805 253.724556 189.57805 254.234916 189.57805 254.491177 189.57805 254.746357 189.57805 255.001537 189.57805 255.256717 190.089077 255.256717 190.8567 255.256717 190.8567 255.512978 190.601187 256.023338 191.113296 256.023338 191.36881 256.023338 191.36881 256.279599 191.36881 256.789959 191.113296 256.789959 190.8567 256.789959 190.601187 257.55658 190.089077 257.55658 189.57805 257.55658 189.57805 258.323201 189.57805 258.834642 189.57805 259.089822 189.57805 259.601263 189.57805 259.856443 189.57805 260.367885 189.57805 260.623065 189.57805 261.389686 189.57805 261.900046 189.57805 262.156307 189.57805 262.922928 189.57805 263.433288 189.57805 263.689549 189.57805 263.944729 189.57805 264.455089 189.57805 264.71135 189.57805 265.22171 189.57805 265.988331 189.57805 266.244592 189.57805 266.754952 189.57805 267.521573 189.57805 267.776753 189.57805 268.288194 189.57805 268.543374 189.57805 268.799636 189.321453 269.309995 189.833563 269.309995 190.089077 269.309995 190.089077 269.566257 190.089077 270.076617 190.089077 270.588058 190.089077 270.843238 190.089077 271.098418 190.089077 271.354679 190.089077 272.1213 190.089077 272.63166 190.089077 273.143101 190.089077 273.398281 189.321453 273.398281 189.06594 274.676343 189.06594 274.931523 189.06594 275.186703 189.06594 275.442964 189.06594 275.698144 189.06594 276.209585 189.06594 276.719945 188.810426 276.719945 188.554913 276.719945 188.554913 276.976207 188.554913 277.741746 188.298317 277.741746 188.298317 278.508368 188.554913 278.508368 189.06594 278.508368 189.06594 279.019809 189.06594 279.274989 189.06594 279.78643 189.06594 280.04161 189.06594 280.297871 189.06594 280.808231 189.06594 281.063411 189.06594 281.574852 189.06594 282.086293 189.06594 282.341473 189.06594 283.108094 189.321453 283.108094 189.57805 283.108094 190.345673 283.108094 190.601187 283.108094 190.8567 283.108094 191.36881 283.108094 191.36881 283.363274 191.36881 283.619535 191.36881 283.874715 191.36881 284.129895 191.36881 284.385075 191.36881 284.896516 191.36881 285.151696 190.8567 285.151696 190.8567 285.407957 190.8567 285.663137 190.8567 285.918317 190.8567 286.174579 190.8567 286.429759 190.8567 286.684938 191.113296 286.684938 191.113296 287.19638 191.113296 287.70674 191.36881 287.70674 191.36881 288.218181 191.36881 288.473361 191.36881 288.729622 191.36881 289.239982 191.36881 289.496243 191.36881 289.751423 191.36881 290.006603 191.36881 290.262864 191.36881 290.518044 191.36881 290.773224 191.36881 291.028404 191.36881 291.284665 191.36881 291.539845 191.36881 291.795025 191.36881 292.306466 191.36881 292.561646 191.36881 293.328267 191.36881 293.584528 190.8567 293.584528 190.345673 293.584528 189.57805 293.328267 189.321453 293.328267 188.042803 293.328267 187.78729 293.328267 186.507557 293.328267 186.252043 293.328267 186.252043 293.584528 186.252043 298.438354 187.530693 298.438354 187.78729 298.438354 188.810426 298.438354 189.06594 298.438354 189.321453 298.438354 189.833563 298.438354 190.089077 298.438354 190.345673 298.438354 190.8567 298.438354 191.113296 298.438354 192.391947 298.438354 192.904056 298.694615 193.15957 298.694615 193.67168 298.694615 194.182707 298.694615 194.95033 298.694615 195.46244 298.694615 196.230063 298.694615 196.230063 299.204975 195.973467 299.971596 195.973467 300.993397 195.973467 301.249658 195.973467 301.760018 195.973467 302.016279 195.973467 303.549522 195.205844 303.549522 194.694816 303.549522 194.182707 303.549522 193.67168 303.549522 193.415083 303.549522 193.15957 303.549522 192.904056 303.549522 192.391947 303.549522 191.624323 303.549522 191.36881 303.549522 191.113296 303.549522 190.345673 303.549522 189.833563 303.549522 189.321453 303.549522 189.321453 306.359745 189.321453 307.636726 189.321453 307.892987 189.06594 307.892987 189.06594 308.148167 189.06594 308.403347 189.06594 308.914788 189.06594 309.426229 189.06594 309.681409 189.06594 310.19285 189.06594 311.214651 189.06594 312.747894 189.06594 313.003074 189.06594 313.258254 189.06594 313.514515 189.833563 313.514515 190.601187 313.514515 190.601187 313.769695 190.601187 314.280055 190.601187 314.536316 190.601187 314.791496 190.601187 315.302937 190.601187 315.558117 190.601187 316.069558 190.601187 316.579918 190.601187 317.091359 190.601187 317.601719 190.601187 319.391222 190.8567 319.391222 190.8567 321.179645 190.8567 323.478427 192.391947 323.478427 193.15957 323.478427 193.15957 323.989868 192.904056 327.822973 192.904056 328.333333 184.461283 328.078153 184.204687 328.078153 184.204687 329.611396 183.949173 332.67788 183.949173 333.18824 183.949173 334.210041 183.949173 337.276525 183.949173 338.043147 183.949173 338.298326 183.949173 338.554588 183.949173 338.809768 183.949173 340.086749 184.204687 340.086749 185.48442 340.086749 185.996529 340.086749 187.27518 340.086749 188.298317 340.34301 189.06594 340.34301 189.57805 340.34301 190.345673 340.34301 190.8567 340.34301 191.879837 340.34301 192.64746 340.34301 192.64746 341.876252 192.64746 343.153233 191.36881 343.153233 189.57805 343.153233 188.042803 343.153233 186.507557 342.898053 186.252043 345.197916 186.252043 346.986339 186.252043 352.096425 185.996529 352.863046 185.996529 353.373406 186.252043 353.373406 188.042803 353.373406 189.321453 353.373406 190.8567 353.373406 192.136433 353.373406 191.879837 353.629667 192.391947 353.884847 193.67168 353.884847 193.927193 353.884847 193.67168 356.951332 194.95033 356.951332 194.694816 363.338399 197.2532 363.338399 202.114453 363.338399 202.114453 365.894524 202.114453 366.149704 202.114453 368.193306 202.114453 368.704747 202.114453 371.00461 202.114453 371.771232 201.857857 373.303393 201.857857 376.114697 199.55607 376.625057 199.299473 376.881318 199.299473 377.391678 199.299473 378.158299 199.811583 378.158299 202.114453 378.158299 202.62548 378.158299 202.62548 379.946721 206.207 380.202983 206.207 380.969604 205.951487 382.758026 205.951487 384.035007 205.951487 387.101491 207.486733 387.101491 207.486733 393.48964 219 394 201.857857 393.233379 181.646303 392.978199 160.156099 392.723019 140.456656 391.701218 120.756129 391.189777 100.289062 390.678336 80.3341046 389.911715 60.3780645 390.167976 40.4231072 389.656535 20.4670671 388.379554 0 387.356671 0 384.801628 0 384.291268 0.255513534 382.502846 0.255513534 381.991405 0.255513534 379.691541 0.255513534 379.181181 0.255513534 377.391678 0.511027067 372.537853 0.511027067 371.771232 0.511027067 371.25979 0.511027067 370.493169 0.511027067 369.471368 0.511027067 367.682946 0.767623285 363.849841 0.767623285 363.594661 0.767623285 362.57286 0.767623285 361.039617 0.767623285 360.528176 0.767623285 360.016735 0.767623285 358.228313 0.767623285 357.717953 0.767623285 354.140027 1.02313682 352.607866 1.02313682 351.584984 1.02313682 349.541382 1.02313682 347.75296 1.02313682 345.197916 1.27865035 343.153233 1.27865035 342.898053 1.27865035 341.109631 1.27865035 339.321209 1.27865035 337.787967 1.53524657 335.743283 1.53524657 334.466302 1.53524657 333.44342 1.53524657 331.654998 1.7907601 329.866576 1.7907601 329.099954 1.7907601 328.589595 1.7907601 326.544911 2.04627364 321.946266 2.04627364 320.413024 2.04627364 318.11316 2.30286986 317.091359 2.30286986 315.046676 2.30286986 314.280055 2.55838339 307.892987 2.55838339 305.593124 2.55838339 304.826503 2.81389692 302.782901 2.81389692 300.993397 2.81389692 299.204975 2.81389692 297.161373 3.06941046 295.372951 3.06941046 293.584528 3.06941046 291.539845 3.06941046 289.751423 3.32600667 288.218181 3.32600667 285.151696 3.32600667 283.363274 3.32600667 280.808231 3.58152021 279.53125 3.58152021 277.231386 3.58152021 275.186703 3.83703374 271.609859 3.83703374 268.543374 3.83703374 267.776753 4.09362996 258.068021 4.09362996 255.768158 4.34914349 253.213115 4.34914349 251.169513 4.34914349 249.89145 4.34914349 249.124829 4.34914349 247.847848 4.34914349 247.336407 4.34914349 246.058345 4.34914349 245.547985 4.34914349 243.759563 4.34914349 241.970059 4.34914349 241.459699 4.34914349 240.181637 4.34914349 238.138035 4.09362996 236.349613 4.09362996 234.304929 4.09362996 232.261327 4.09362996 230.216644 4.09362996 228.173042 4.09362996 226.38462 4.09362996 224.596197 4.34914349 222.806694 4.34914349 217.952869 4.34914349 215.908185 4.60465703 213.097962 4.60465703 211.30954 4.60465703 207.987875 4.86125324 202.621528 4.86125324 199.555043 4.86125324 197.511441 5.11676678 195.467839 5.11676678 193.678336 5.11676678 193.423156 5.11676678 191.379554 5.11676678 190.356671 5.11676678 188.823429 5.11676678 188.568249 5.11676678 187.801628 5.37228031 187.035007 5.37228031 185.758026 5.37228031 184.224784 5.37228031 182.436361 5.62779385 180.647939 5.62779385 178.092896 5.62779385 176.048213 5.62779385 174.00461 5.88439006 172.981728 5.88439006 172.216188 5.88439006 170.171505 5.88439006 168.127903 6.1399036 163.016735 6.39541713 157.906648 6.65201335 153.051742 6.90752688 147.941655 6.90752688 146.153233 6.90752688 144.109631 6.90752688 142.321209 7.16304042 140.276525 7.16304042 140.021345 7.16304042 139.765084 7.16304042 139.509904 7.16304042 136.44342 7.16304042 136.18824 7.41963663 132.356216 7.67515017 128.011669 7.67515017 124.434825 7.67515017 122.901582 7.67515017 122.646402 7.67515017 122.391222 7.9306637 120.85798 7.9306637 120.346539 7.9306637 119.069558 7.9306637 117.791496 7.9306637 117.536316 7.9306637 115.491632 8.18725992 114.725011 8.44277345 114.469831 9.46591027 113.191769 9.7214238 112.936589 9.7214238 112.426229 9.7214238 112.169968 9.97802002 111.403347 9.97802002 109.104565 9.97802002 107.826503 10.2335336 103.226776 10.2335336 102.204975 10.2335336 97.6063296 10.4890471 93.2617828 11.0011568 71.7996356 10.7456433 71.2881944 11.0011568 69.4997722 11.0011568 69.2445923 11.0011568 68.9883311 11.0011568 68.4779712 11.2566704 68.2217099 11.5121839 67.4550888 11.7687801 67.1999089 12.0242937 66.689549 12.2798072 66.4332878 12.5364034 66.1781078 12.7919169 66.1781078 13.0474305 65.9229279 13.8150538 65.4114867 15.0947868 65.1563068 15.8624101 64.6448656 16.3734372 64.6448656 16.8855469 64.3896857 17.396574 63.8782445 17.9086837 63.1116234 18.1641973 62.8564434 20.2115536 59.5347791 20.9791769 58.2567168 21.2346904 57.7463569 21.4902039 57.2349157 21.2346904 -2.84217094e-14"></polygon>
            </g>
        </g>
    </g>
</svg>