<?xml version="1.0" encoding="UTF-8"?>
<svg width="197px" height="374px" viewBox="0 0 197 374" version="1.1" xmlns="http://www.w3.org/2000/svg" xmlns:xlink="http://www.w3.org/1999/xlink">
    <!-- Generator: Sketch 43.1 (39012) - http://www.bohemiancoding.com/sketch -->
    <title>N</title>
    <desc>Created with Sketch.</desc>
    <defs></defs>
    <g id="Symbols" stroke="none" stroke-width="1" fill="none" fill-rule="evenodd">
        <g id="N" stroke="#FFFFFF" stroke-width="2" fill="#75568D">
            <g id="Group-16" transform="translate(3.000000, 22.000000)">
                <path d="M0,0 L0,180.343019 L0.777939499,180.611115 L1.54293132,181.122443 L2.56256076,181.63269 L3.32755259,181.887813 L3.83790679,182.399141 L4.60181964,182.654264 L5.11217385,183.165592 L5.62252806,183.675838 L6.6421575,184.44229 L7.40607035,184.953617 L8.68141638,185.720068 L9.95676241,186.486519 L11.2310295,187.252971 L11.9960213,187.508094 L12.5063755,188.019422 L13.5260049,188.529668 L14.2899178,188.529668 L15.0559886,188.785873 L15.8209804,189.040996 L16.8406098,189.2972 L17.8602393,189.551243 L18.6252311,189.551243 L19.3902229,189.807447 L20.1552148,190.06257 L20.9202066,190.318775 L21.6851984,190.573898 L22.4491113,190.318775 L23.2141031,190.573898 L24.4894491,190.318775 L25.7647951,190.573898 L26.7844246,190.573898 L27.5494164,190.829022 L28.0597706,191.850596 L28.3133292,192.873251 L27.804054,193.638621 L27.2936998,194.15103 L27.0390622,195.172605 L26.528708,195.682851 L26.0194328,196.704426 L26.528708,197.215753 L27.2936998,197.470877 L28.0597706,197.726 L29.0794,198.238409 L30.0990295,198.492451 L30.6083047,199.003779 L31.3732965,199.259983 L32.6486426,198.748656 L33.4125554,199.259983 L33.9229096,199.77023 L34.6879015,200.025353 L35.7075309,200.536681 L36.2168061,201.048009 L36.9828769,201.558256 L37.7478687,202.324707 L38.5128606,202.836034 L39.2767734,203.601404 L39.53249,204.62406 L38.7674982,205.900758 L38.257144,206.412085 L39.2767734,207.43366 L40.0417652,207.944988 L40.5521195,208.455234 L41.3171113,208.711439 L41.8274655,208.201192 L42.5913783,207.944988 L43.1017325,208.455234 L43.6120867,208.966562 L44.3759996,209.476809 L44.6317162,210.499464 L46.1606209,211.265915 L45.396708,213.309064 L45.9070622,213.820392 L46.6709751,214.330638 L47.4359669,214.841966 L47.9463211,215.352213 L48.7113129,215.863541 L49.2205882,216.374868 L49.98558,216.629992 L50.4959342,217.396443 L51.259847,217.90777 L51.7712802,218.418017 L52.2805554,218.929345 L52.7909097,219.439592 L53.8105391,219.950919 L54.5755309,220.462247 L55.3394438,220.71737 L56.1044356,220.71737 L57.124065,221.228698 L58.1436945,221.738945 L58.9097653,221.995149 L59.6747571,222.250273 L60.4386699,222.250273 L61.2036618,222.250273 L61.9697326,222.250273 L62.7347244,222.250273 L63.4986372,222.250273 L64.7739833,221.738945 L66.3028879,220.973575 L67.0678798,220.71737 L67.578234,220.207124 L68.3432258,219.950919 L69.8732094,219.695796 L70.8928389,219.439592 L71.6578307,219.695796 L72.4228225,219.950919 L73.1867354,220.207124 L73.6981686,220.71737 L74.4620814,220.973575 L74.9713566,221.483821 L75.4817108,221.995149 L75.9920651,222.505396 L77.2663321,223.271847 L78.2870405,224.804749 L79.5613076,225.5712 L80.3262994,226.082528 L81.3459288,226.848979 L82.3655583,227.614349 L84.6605338,229.913702 L85.4255256,230.42503 L86.445155,231.446604 L87.9751387,232.468179 L91.2897436,235.023736 L92.0547354,235.277779 L92.5650896,235.789107 L93.3290025,236.045311 L93.8393567,236.811762 L94.3497109,237.322009 L95.3693403,238.08846 L96.1343321,238.854911 L96.899324,239.876485 L97.9189534,240.387813 L98.6839452,240.899141 L99.9582123,242.175838 L100.468566,242.687166 L99.9582123,243.963864 L99.448937,244.986519 L98.9385828,245.496766 L98.4293076,246.518341 L97.9189534,247.029668 L97.1539616,246.518341 L96.3889697,245.751889 L95.3693403,244.986519 L94.3497109,244.218987 L93.0743648,243.197413 L92.309373,242.687166 L91.5454602,241.920715 L90.2701141,240.899141 L88.7401305,239.621362 L87.9751387,239.111115 L86.9555092,238.343583 L85.6812422,237.322009 L82.8769915,234.512409 L73.442452,226.848979 L71.6578307,226.337651 L70.1278471,231.701728 L68.85358,231.191481 L68.0875092,230.936358 L67.3235964,230.680153 L66.3028879,230.680153 L65.7936127,231.191481 L65.7936127,232.468179 L65.0286209,234.001081 L64.5182667,235.533983 L74.2074438,243.197413 L75.4817108,244.218987 L75.9920651,243.452536 L76.5024193,244.218987 L77.2663321,244.730315 L77.7766863,245.240562 L78.2870405,245.751889 L79.0509534,246.263217 L79.5613076,246.774545 L80.0705828,247.284792 L80.582016,247.796119 L81.3459288,248.306366 L81.8562831,248.817694 L82.6212749,249.32794 L83.1305501,250.095473 L84.4058961,250.605719 L85.9358798,252.138621 L86.9555092,252.905073 L87.9751387,253.671524 L88.4854929,254.18177 L89.7608389,255.203345 L90.5247518,255.459549 L91.034027,255.970877 L91.8000978,256.226 L92.5650896,256.992451 L93.3290025,257.247575 L94.0939943,257.758902 L95.1136237,258.269149 L95.8786155,258.525353 L96.6446863,258.780477 L97.1539616,259.290723 L98.173591,259.802051 L98.9385828,260.568502 L99.9582123,261.334953 L100.977842,261.846281 L101.997471,262.612732 L103.01818,263.122979 L103.783171,263.378102 L104.548163,264.400758 L105.567793,264.912085 L106.587422,265.422332 L107.352414,265.93366 L108.372043,266.443906 L109.137035,266.700111 L110.156665,266.955234 L110.921656,267.210358 L111.941286,267.721685 L113.216632,267.976809 L113.981624,268.488136 L115.001253,268.999464 L115.767324,269.253506 L116.276599,269.764834 L117.550866,270.78749 L118.315858,271.297736 L119.08085,271.55286 L119.591204,272.064187 L120.100479,272.575515 L120.610834,273.085762 L121.375825,274.107336 L121.885101,275.128911 L122.651171,276.406689 L123.160447,277.939592 L123.670801,278.450919 L124.180076,279.727617 L124.69043,280.494068 L125.199706,281.005396 L125.71006,282.282094 L126.219335,283.048545 L126.729689,283.814996 L127.240043,285.091694 L127.494681,286.113268 L128.003956,286.625677 L128.51431,287.135923 L129.024665,288.157498 L129.788577,288.92503 L130.298932,289.435277 L130.809286,290.200647 L131.31964,290.968179 L131.828915,291.478426 L132.33927,292.501081 L133.104261,293.266451 L133.868174,294.032902 L134.378528,294.54423 L134.887804,295.054477 L135.399237,296.076051 L135.908512,296.843583 L136.418866,297.35383 L136.928142,297.865158 L137.438496,298.631609 L138.203488,299.141855 L138.713842,299.653183 L139.223117,300.16343 L139.988109,301.441209 L140.498463,301.952536 L141.007738,302.718987 L141.518092,303.485438 L142.027368,304.507013 L142.537722,305.273464 L143.302714,306.038834 L144.067706,307.061489 L145.851248,308.850596 L146.362681,308.339268 L146.871956,308.850596 L147.636948,309.615966 L148.146223,310.638621 L148.911215,311.148868 L149.676207,311.660196 L150.441199,312.170443 L150.951553,312.68177 L151.715466,313.192017 L152.990812,314.213591 L154.010441,314.980043 L155.285787,316.001617 L156.305417,316.257821 L156.814692,316.769149 L157.326125,317.790723 L157.8354,318.302051 L158.345755,318.813379 L158.85503,319.578749 L159.365384,320.601404 L159.620022,321.622979 L160.130376,322.644553 L160.639651,323.411004 L161.150005,324.432579 L161.659281,324.942825 L162.169635,325.454153 L162.67891,325.9644 L163.189264,326.731932 L163.444981,327.753506 L163.954256,328.776162 L164.719248,330.564187 L165.229602,331.074434 L165.994594,332.607336 L166.504948,333.373787 L167.014223,333.884034 L167.778136,334.905608 L168.544207,335.673141 L170.838103,338.738945 L171.604174,338.738945 L172.11345,339.249192 L172.878441,340.52697 L173.643433,341.037217 L174.661984,342.058791 L175.682692,343.080366 L176.447684,344.868391 L176.702321,346.402375 L176.702321,348.445523 L176.702321,349.723302 L176.956959,348.189319 L177.212676,343.33657 L177.468392,338.992987 L177.468392,334.905608 L177.721951,333.117583 L177.721951,331.585762 L177.468392,329.286409 L177.212676,328.00863 L176.956959,326.220604 L176.447684,325.19903 L176.193046,324.176374 L175.682692,323.1548 L175.173417,321.878102 L174.661984,321.111651 L175.173417,320.088996 L175.428054,317.024272 L175.428054,315.49137 L175.428054,312.936894 L175.682692,310.382417 L175.682692,308.594392 L175.682692,304.763217 L175.93733,302.20766 L175.93733,299.653183 L175.93733,297.098706 L176.193046,294.800434 L176.193046,292.756204 L176.193046,290.713056 L176.193046,288.668826 L176.193046,286.8808 L176.447684,284.837651 L176.447684,281.260519 L176.447684,277.684468 L176.447684,274.107336 L176.447684,270.78749 L176.702321,267.210358 L176.702321,264.655881 L176.702321,262.356528 L176.956959,260.313379 L176.956959,258.780477 L177.212676,255.459549 L176.702321,254.437975 L176.702321,252.649949 L176.702321,250.861924 L176.702321,249.32794 L176.956959,247.796119 L176.956959,244.986519 L176.956959,241.409387 L177.212676,238.08846 L177.212676,234.512409 L177.468392,230.936358 L177.468392,227.359226 L177.468392,224.804749 L177.721951,219.950919 L177.977668,217.651566 L177.977668,215.608417 L177.977668,212.28749 L177.977668,210.499464 L178.232305,208.711439 L178.232305,206.667209 L178.232305,204.62406 L178.232305,202.57983 L178.232305,200.791804 L178.488022,199.003779 L178.488022,196.704426 L175.93733,194.15103 L176.702321,188.785873 L176.956959,185.720068 L177.721951,182.654264 L178.74158,177.035064 L179.762289,172.436358 L180.016926,170.648332 L179.762289,168.604102 L178.997297,166.560954 L177.468392,161.962247 L175.682692,157.109498 L174.9177,155.831719 L174.661984,154.810145 L173.898071,153.78749 L173.133079,152.765915 L172.368087,151.999464 L192,102.441754 L168.798845,92.9892174 L165.229602,91.4573963 L161.150005,89.6693708 L149.930845,82.5161877 L137.693133,74.5976347 L134.634245,72.2982814 L128.768948,67.699575 L110.921656,52.1165111 L106.84206,48.7966645 L98.4293076,41.3872771 L90.5247518,34.4902984 L72.4228225,27.0819921 L45.1409914,15.5863069 L34.943618,7.92287721 L26.7844246,1.53614525 L24.7548765,0 L0,0 Z M176.956959,351 L176.956959,350.744877 L176.956959,349.977345 L176.956959,351 Z" id="Fill-13"></path>
            </g>
        </g>
    </g>
</svg>