<svg fill="#B36AE2" xmlns="http://www.w3.org/2000/svg" xmlns:xlink="http://www.w3.org/1999/xlink" version="1.1" x="0px" y="0px" viewBox="0 0 65 65" enable-background="new 0 0 65 65" xml:space="preserve"><path d="M54.808,30.372c-0.148-0.773-1.117-1.445-3.375-2.756c-0.345-0.2-0.659-0.382-0.9-0.532  c-0.281-0.182-0.595-1.458-0.803-2.303c-0.364-1.479-0.776-3.155-1.713-4.176C47.149,19.66,45.575,10.353,44.553,1.9  c-0.001-0.012-0.009-0.021-0.011-0.032c-0.01-0.058-0.032-0.11-0.055-0.164c-0.016-0.036-0.025-0.073-0.046-0.105  c-0.03-0.049-0.072-0.088-0.113-0.129c-0.027-0.027-0.051-0.057-0.082-0.079c-0.014-0.01-0.021-0.024-0.034-0.033  c-0.047-0.03-0.099-0.042-0.149-0.061c-0.022-0.009-0.042-0.021-0.066-0.027c-0.074-0.019-0.149-0.023-0.225-0.02  c-0.018,0.001-0.034-0.006-0.053-0.004c-0.003,0-0.005,0.002-0.008,0.003c-0.093,0.012-0.182,0.042-0.264,0.087  c-0.026,0.015-0.046,0.037-0.07,0.055c-0.044,0.031-0.091,0.058-0.128,0.1c-1.559,0.9-17.179,2.062-31.195,2.703  c-0.183,0.008-0.356,0.083-0.487,0.21C11.286,4.675,9.9,6.104,10.225,7.5c0.115,0.495,0.492,1.163,1.634,1.531l0.36,0.116  c2.438,0.781,2.438,0.861,2.438,1.841c0,1.342,0.085,12.753,0.458,23.733c0.781,23.044,2.025,23.666,2.769,24.038  c1.401,0.7,2.356,1.029,3.068,1.029c0.323,0,0.595-0.067,0.836-0.199c0.477-0.259,0.757-0.736,0.833-1.418  c0.046-0.419,0.642-0.958,1.159-1.051c0.2-0.033,0.227,0.018,0.236,0.037c0.003,0.005,0.008,0.008,0.011,0.014  c0.024,0.047,0.063,0.084,0.098,0.125c0.03,0.035,0.054,0.076,0.089,0.104c0.005,0.004,0.007,0.011,0.013,0.015  c0.033,0.025,0.072,0.034,0.108,0.054c0.045,0.024,0.088,0.053,0.137,0.067c0.047,0.015,0.095,0.015,0.143,0.02  c0.048,0.004,0.094,0.014,0.142,0.009c0.055-0.005,0.105-0.025,0.157-0.042c0.036-0.012,0.073-0.012,0.107-0.029  c0.005-0.003,0.008-0.008,0.014-0.011c0.044-0.023,0.081-0.062,0.12-0.094c0.038-0.031,0.08-0.058,0.11-0.095  c0.004-0.005,0.01-0.007,0.014-0.012c1.707-2.197,0.912-4.105,0.529-5.022c-0.03-0.072-0.067-0.16-0.096-0.235  c0.263-0.442,0.491-1.461-0.403-4.049c0.189,0.134,0.388,0.284,0.577,0.439c0.335,0.845,1.761,4.274,3.474,5.985  c1.333,1.332-0.623,4.173-0.643,4.201c-0.09,0.127-0.14,0.28-0.14,0.436v3.972c0,0.26,0.135,0.501,0.355,0.638  c0.121,0.074,0.257,0.112,0.395,0.112c0.115,0,0.229-0.026,0.335-0.079c0.409-0.204,2.478-1.272,3.06-2.257  c0.11-0.186,0.484-0.478,0.814-0.735c0.835-0.651,1.874-1.462,1.738-2.682c-0.057-0.517-0.188-0.919-0.306-1.273  c-0.189-0.579-0.285-0.869-0.035-1.432c0.227-0.51,0.398-0.967,0.212-1.404c-0.171-0.401-0.535-0.533-0.752-0.611  c-0.165-0.06-0.321-0.116-0.501-0.265c-0.193-0.234-0.135-1.317,0.108-2.389l17.61-1.639c0.241-0.022,0.457-0.16,0.579-0.369  c0.121-0.21,0.135-0.465,0.035-0.686c-1.757-3.903-0.934-10.213-0.925-10.276c0.019-0.14-0.002-0.282-0.061-0.411  c-0.733-1.612,1.142-3.593,2.382-4.904C54.489,31.431,54.925,30.97,54.808,30.372z M52.531,31.317  c-1.386,1.465-3.68,3.889-2.743,6.35c-0.128,1.085-0.613,6.075,0.692,9.926l-17.146,1.595c-0.308,0.029-0.567,0.244-0.652,0.541  c-0.293,1.029-0.858,3.521,0.241,4.438c0.252,0.21,0.489,0.338,0.683,0.423c-0.013,0.031-0.028,0.066-0.045,0.104  c-0.484,1.091-0.237,1.844-0.019,2.509c0.103,0.313,0.2,0.608,0.24,0.971c0.043,0.387-0.63,0.912-1.171,1.335  c-0.477,0.372-0.927,0.724-1.182,1.153c-0.153,0.26-0.711,0.677-1.354,1.072v-2.466c0.54-0.838,2.32-3.951,0.343-5.926  c-1.691-1.69-3.189-5.603-3.204-5.642c-0.044-0.118-0.118-0.222-0.213-0.304c-2.163-1.854-2.827-1.391-3.078-1.217  c-0.7,0.49-0.339,1.453-0.221,1.77c0.832,2.217,0.789,3.15,0.734,3.283c-0.483,0.482-0.223,1.106-0.015,1.606  c0.303,0.728,0.693,1.687,0.075,2.889c-0.292-0.107-0.62-0.146-0.981-0.082c-1.042,0.186-2.251,1.141-2.387,2.361  c-0.021,0.198-0.063,0.265-0.06,0.268c-0.074,0.031-0.521,0.134-2.447-0.821c-1.731-2.335-2.465-34.123-2.465-46.464  c0-2.154-1.163-2.527-3.481-3.27l-0.357-0.115c-0.214-0.069-0.581-0.218-0.633-0.442c-0.083-0.357,0.333-1.025,0.738-1.483  c12.198-0.562,26.442-1.454,30.754-2.677c0.538,4.305,2.234,16.983,3.733,18.618c0.678,0.739,1.041,2.217,1.361,3.521  c0.374,1.519,0.669,2.718,1.465,3.216c0.252,0.158,0.581,0.349,0.942,0.559c0.718,0.417,2.135,1.238,2.555,1.63  C53.069,30.749,52.778,31.056,52.531,31.317z"></path></svg>