<svg fill="#B36AE2" xmlns="http://www.w3.org/2000/svg" xmlns:xlink="http://www.w3.org/1999/xlink" version="1.1" x="0px" y="0px" viewBox="0 0 65 65" enable-background="new 0 0 65 65" xml:space="preserve"><path d="M5.395,31.683c0.114,0.168,0.292,0.283,0.492,0.318c0.043,0.007,0.086,0.011,0.129,0.011c0.157,0,0.312-0.049,0.441-0.143  l0.325-0.236c0.329-0.239,0.408-0.697,0.177-1.032l-0.281-0.409l-0.294-0.696c-0.118-0.277-0.39-0.458-0.691-0.458H5.397  c-0.414,0-0.75,0.336-0.75,0.75v0.56c0,0.15,0.045,0.296,0.129,0.421L5.395,31.683z"></path><path d="M10.496,24.968h0.437l0.189,0.158l0.459,1.021c0.11,0.244,0.341,0.411,0.608,0.438l0.855,0.087  c0.026,0.002,0.051,0.004,0.077,0.004c0.354,0,0.664-0.249,0.735-0.603l0.059-0.294c0.028-0.142,0.015-0.289-0.038-0.424  l-0.62-1.562c-0.092-0.233-0.295-0.404-0.54-0.457l-0.608-0.13l-0.19-0.19l-0.269-0.585c-0.11-0.241-0.339-0.405-0.602-0.433  c-0.267-0.033-0.522,0.084-0.68,0.296l-0.53,0.708c-0.109,0.146-0.162,0.325-0.148,0.506l0.058,0.766  C9.778,24.666,10.104,24.968,10.496,24.968z"></path><path d="M25.071,49.689c-0.088-0.209-0.266-0.367-0.484-0.43s-0.453-0.022-0.638,0.106l-0.501,0.352  c-0.172,0.121-0.285,0.308-0.313,0.516c-0.027,0.207,0.033,0.417,0.167,0.578l0.442,0.531c0.139,0.167,0.342,0.266,0.559,0.271  c0.006,0,0.012,0,0.018,0c0.21,0,0.411-0.088,0.553-0.244l0.295-0.322c0.198-0.216,0.251-0.526,0.138-0.797L25.071,49.689z"></path><path d="M63.929,51.997l-0.293-1.299c-0.054-0.24-0.223-0.438-0.45-0.53l-1.561-0.63l-1.157-0.416l-0.317-0.781  c-0.03-0.074-0.072-0.144-0.125-0.204l-0.631-0.735l-0.76-1.094l-1.004-1.768c-0.077-0.137-0.195-0.245-0.338-0.311l-0.896-0.415  l-0.209-0.455c-0.064-0.142-0.172-0.259-0.306-0.337l-0.27-0.155l-0.108-0.526c-0.039-0.191-0.152-0.36-0.314-0.47l-0.914-0.617  c-0.269-0.182-0.627-0.171-0.884,0.032l-0.414,0.325l-0.141,0.025c-0.158,0.029-0.303,0.107-0.413,0.226l-0.441,0.471  c-0.113,0.12-0.184,0.274-0.199,0.439l-0.043,0.43c-0.029-0.046-0.064-0.088-0.104-0.127l-1.856-1.806l-0.039-0.567  c-0.026-0.393-0.354-0.698-0.748-0.698h-0.768c-0.16,0-0.315,0.051-0.444,0.146l-0.221,0.162l-0.409-0.027l0.086-24.729  c0.001-0.264-0.138-0.509-0.363-0.646l-1.326-0.797c-0.036-0.021-0.073-0.04-0.111-0.055l-1.416-0.559  c-0.183-0.072-0.386-0.07-0.566,0.007l-0.474,0.205l-0.339,0.097l-1.272-0.636c-0.239-0.12-0.526-0.102-0.75,0.046l-0.027,0.018  l-1.44-0.961c-0.105-0.07-0.227-0.113-0.353-0.124l-1.868-0.158l-0.127-0.1l-0.063-0.765c-0.03-0.367-0.322-0.658-0.689-0.686  l-1.148-0.089c-0.022-0.001-0.041-0.001-0.066-0.002l-0.496-0.549c-0.042-0.046-0.089-0.086-0.141-0.121l-1.062-0.708  c-0.123-0.082-0.268-0.126-0.416-0.126h-0.324c-0.217,0-0.423,0.094-0.566,0.258l-0.584,0.671l-0.723,0.032L30.45,9.75  c-0.17-0.137-0.389-0.193-0.605-0.153l-0.324,0.06c-0.082,0.015-0.162,0.044-0.234,0.085l-0.993,0.563l-0.387,0.086l-0.211-0.132  c-0.247-0.154-0.562-0.151-0.806,0.007l-1.09,0.707c-0.139,0.09-0.244,0.223-0.299,0.379L25.235,12.1l-0.762,0.741l-0.814,0.039  l-0.397-0.133c-0.077-0.026-0.157-0.039-0.238-0.039h-0.943c-0.146,0-0.289,0.042-0.411,0.123l-0.855,0.56  c-0.332,0.217-0.437,0.655-0.24,0.999l1.505,2.533l0.17,0.83l-0.09,0.288c-0.055,0.176-0.043,0.367,0.034,0.535l0.114,0.251  c-0.055-0.02-0.112-0.034-0.171-0.041l-0.766-0.089c-0.066-0.008-0.134-0.006-0.2,0.004l-1.15,0.176  c-0.142,0.021-0.269,0.082-0.371,0.168l-2.607,0.149c-0.238,0.018-0.454,0.148-0.581,0.351l-0.147,0.236  c-0.14,0.224-0.152,0.505-0.032,0.74l0.56,1.09c0.045,0.087,0.106,0.164,0.18,0.228l0.27,0.23l-0.231,1.492  c-0.029,0.227,0.047,0.455,0.207,0.618l1.062,1.091c0.134,0.138,0.316,0.219,0.508,0.227l1.312,0.052l0.917,0.458  c0.046,0.023,0.095,0.041,0.145,0.054l0.56,0.147c0.122,0.032,0.25,0.033,0.373,0.002l0.646-0.162  c-0.05,0.183-0.092,0.407-0.121,0.686l-0.173,0.951l-0.201,0.114l-0.182-0.07c-0.04-0.023-0.082-0.044-0.125-0.06l-0.472-0.176  c-0.239-0.088-0.508-0.05-0.712,0.103l-0.583,0.437c-0.069-0.196-0.219-0.356-0.415-0.439l-0.767-0.324  c-0.199-0.083-0.423-0.078-0.617,0.015l-0.796,0.383c-0.147,0.071-0.268,0.188-0.342,0.333l-0.464,0.904l-1.956,1.332  c-0.156,0.111-0.263,0.277-0.301,0.464l-0.295,1.474c-0.029,0.144-0.015,0.294,0.041,0.43l0.325,0.796  c0.026,0.063,0.06,0.122,0.1,0.174l-0.056,0.021c-0.129,0.049-0.238,0.131-0.32,0.234c-0.059-0.035-0.122-0.063-0.189-0.08  l-1.128-0.304l-1.09-0.236c-0.227-0.051-0.462,0.01-0.64,0.158c-0.178,0.148-0.276,0.371-0.268,0.603l0.029,0.795  c0.007,0.182,0.079,0.354,0.204,0.487l1.002,1.063c0.13,0.138,0.308,0.222,0.498,0.233l0.914,0.059  c0.312,0.011,0.61-0.16,0.736-0.45l0.241-0.558l0.179,0.306l0.155,1.011c0.027,0.177,0.116,0.337,0.25,0.453l0.442,0.383  c0.137,0.118,0.311,0.184,0.491,0.184h1.579v0.398c0,0.017,0,0.033,0.001,0.05l-0.316,0.211c-0.278,0.185-0.4,0.531-0.3,0.851  l0.12,0.379l-0.068,0.353l-0.279,0.278c-0.204,0.203-0.273,0.505-0.179,0.777c0.094,0.271,0.335,0.465,0.621,0.499l0.767,0.09  c0.152,0.015,0.302-0.011,0.436-0.081l0.473-0.247l0.35-0.018c0.063,0.203,0.21,0.373,0.408,0.462l0.324,0.146  c0.067,0.03,0.138,0.05,0.208,0.06l0.199,0.771c0.077,0.296,0.325,0.516,0.627,0.556l0.442,0.059  c0.204,0.032,0.413-0.031,0.573-0.162c0.078-0.063,0.141-0.142,0.187-0.229c0.086,0.03,0.175,0.046,0.272,0.044l-0.879,1.714  l-0.907,0.34c-0.208,0.078-0.372,0.244-0.445,0.454l-0.156,0.444c-0.035,0.003-0.069,0.009-0.104,0.017l-1.345,0.26  c-0.033,0.006-0.066,0.014-0.098,0.024l-0.913,0.293c-0.133,0.042-0.251,0.121-0.342,0.228l-0.368,0.433l-0.033-0.026  c-0.119-0.097-0.265-0.154-0.417-0.166l-0.796-0.059c-0.122-0.007-0.246,0.012-0.358,0.063l-0.458,0.202l-0.777,0.161  c-0.144,0.03-0.275,0.102-0.378,0.205l-0.5,0.502l-0.981,0.354l-1.689-0.16c-0.122-0.011-0.247,0.008-0.36,0.056l-0.914,0.383  c-0.279,0.116-0.46,0.389-0.46,0.691v0.561c0,0.247,0.122,0.479,0.326,0.618l0.472,0.324c0.296,0.205,0.698,0.169,0.955-0.088  l0.15-0.15l0.235-0.061l0.532,0.224c0.059,0.024,0.121,0.042,0.184,0.051l0.62,0.09c0.151,0.019,0.306-0.004,0.444-0.072  l0.967-0.539h0.729c0.146,0,0.289-0.043,0.411-0.123l0.365-0.238c0.027,0.109,0.08,0.213,0.154,0.302l0.472,0.559  c0.087,0.104,0.197,0.178,0.316,0.222c0.104,0.166,0.276,0.289,0.482,0.336c0.101,0.022,0.203,0.023,0.299,0.004h0.567  c0.302,0,0.575-0.182,0.691-0.46l0.235-0.561c0.026-0.062,0.043-0.126,0.052-0.191c0.292-0.025,0.545-0.22,0.643-0.5l0.072-0.205  l0.288-0.018l0.647,0.238c0.367,0.135,0.779-0.036,0.942-0.394l0.091-0.2l0.346-0.345c0.155-0.155,0.235-0.371,0.218-0.59  c-0.001-0.021-0.004-0.04-0.007-0.061l0.519-0.225l1.487-0.309c0.068-0.015,0.134-0.038,0.196-0.07l1.691-0.903l0.318,1.678  c0.053,0.281,0.262,0.508,0.539,0.584l0.855,0.234c0.193,0.053,0.401,0.027,0.575-0.075l2.775-1.624  c0.178-0.104,0.304-0.278,0.35-0.479c0.045-0.201,0.006-0.412-0.108-0.583l-0.296-0.443l0.04-0.19l0.331-0.152  c0.188-0.087,0.332-0.248,0.398-0.445l0.147-0.443c0.126-0.381-0.07-0.792-0.44-0.936c0.034-0.255-0.066-0.515-0.273-0.682  c-0.253-0.203-0.606-0.22-0.876-0.047c-0.008-0.056-0.021-0.111-0.042-0.165l-0.235-0.619c-0.057-0.148-0.159-0.274-0.29-0.36  l0.292-0.245l0.996-0.355c-0.031,0.032-0.059,0.067-0.083,0.104c-0.116,0.174-0.154,0.388-0.105,0.591l0.148,0.617  c0.078,0.326,0.363,0.561,0.698,0.574l1.385,0.059c0.145,0.01,0.297-0.031,0.425-0.11l1.003-0.617  c0.066-0.041,0.126-0.092,0.177-0.151l0.463-0.542l0.414-0.279l0.378,0.252c0.186,0.124,0.414,0.155,0.621,0.096  c0.085,0.242,0.288,0.425,0.54,0.483l0.383,0.088c0.27,0.062,0.547-0.028,0.729-0.234l0.767-0.865  c0.201,0.056,0.42,0.028,0.601-0.086l0.7-0.438l0.358,0.051l1.786,1.068c0.259,0.154,0.585,0.139,0.827-0.038h1.204l1.616,0.676  l1.092,0.324c0.154,0.045,0.318,0.04,0.471-0.014c0.025,0.216,0.144,0.418,0.337,0.543l1.23,0.796l1.3,0.706l0.679,0.757  c0.038,0.042,0.08,0.079,0.125,0.111l0.982,0.694v0.373c0,0.247,0.121,0.478,0.324,0.617l0.325,0.224l0.322,0.587l0.157,0.963  c0.049,0.298,0.271,0.538,0.565,0.608l0.313,0.075l0.898,1.499c0.041,0.068,0.093,0.13,0.153,0.182l0.443,0.383  c0.139,0.12,0.313,0.183,0.49,0.183c0.001,0,0.002,0,0.003,0c0.074,0.107,0.176,0.194,0.297,0.251  c0.15,0.071,0.321,0.091,0.483,0.053c0.01,0.016,0.021,0.031,0.031,0.046l-0.033,0.036c-0.229,0.241-0.271,0.604-0.104,0.891  c0.118,0.205,0.366,0.572,0.733,0.755c0.061,0.025,0.149,0.049,0.232,0.063l0.003,0.006c0.188,0.329,0.53,0.911,0.661,1.064  c0.267,0.373,0.656,0.532,0.731,0.561c0.085,0.031,0.174,0.047,0.262,0.047c0.195,0,0.387-0.076,0.53-0.22l0.112-0.112  c0.181,0.059,0.375,0.052,0.551-0.028l0.326-0.148c0.281-0.128,0.455-0.415,0.438-0.723l-0.015-0.268l0.093,0.191  c0.072,0.148,0.191,0.27,0.34,0.344l0.473,0.236c0.315,0.159,0.706,0.073,0.926-0.209l0.529-0.678  c0.059-0.075,0.102-0.159,0.129-0.25l0.295-1.002c0.031-0.108,0.039-0.222,0.021-0.332L63.929,51.997z M19.836,48.179  c-0.052-0.008-0.107-0.01-0.16-0.008l-0.943,0.059c-0.042,0.003-0.084,0.009-0.124,0.019c-0.081-0.031-0.167-0.049-0.253-0.051  l0.09-0.105l0.662-0.212l0.793-0.142c-0.036,0.075-0.06,0.157-0.069,0.242C19.824,48.048,19.826,48.114,19.836,48.179z   M27.547,47.787l-0.101-0.027l-0.152-0.805l0.969-0.59c0.051,0.027,0.106,0.05,0.164,0.065l0.855,0.232  c0.012,0.003,0.024,0.007,0.037,0.009c0.002,0.005,0.005,0.009,0.008,0.013l0.03,0.046L27.547,47.787z M44.654,40.652  c-0.092-0.039-0.191-0.059-0.291-0.059h-1.621c-0.06,0-0.118,0.007-0.176,0.021l-1.531-0.916c-0.085-0.052-0.181-0.085-0.279-0.099  l-0.217-0.031l-0.625-1.342c-0.133-0.286-0.42-0.463-0.743-0.431l-1.061,0.09c-0.077,0.006-0.153,0.024-0.225,0.055l-1.061,0.441  c-0.308,0.128-0.494,0.443-0.457,0.774l0.122,1.111c-0.152,0.001-0.304,0.048-0.433,0.14l-0.328-0.218  c-0.254-0.168-0.583-0.167-0.835,0.004l-0.914,0.617c-0.056,0.037-0.106,0.082-0.15,0.134l-0.453,0.529l-0.202,0.124v-0.166  c0-0.28-0.156-0.532-0.394-0.66l0.585-0.994c0.068-0.115,0.104-0.247,0.104-0.381v-0.278l0.41-0.215  c0.135,0.116,0.309,0.183,0.49,0.183h0.797c0.26,0,0.501-0.135,0.638-0.355c0.137-0.222,0.149-0.497,0.033-0.729l-0.383-0.766  c-0.117-0.235-0.349-0.392-0.61-0.413l-1.091-0.088c-0.145-0.007-0.289,0.019-0.417,0.088l-1.475,0.795  c-0.102,0.055-0.19,0.133-0.257,0.228l-1.241,1.773c-0.023,0.033-0.043,0.067-0.06,0.104l-0.191,0.4l-0.947,0.338  c-0.084,0.029-0.162,0.074-0.23,0.132l-0.914,0.768c-0.132,0.111-0.223,0.265-0.254,0.436l-0.089,0.471  c-0.065,0.344,0.117,0.687,0.438,0.826l0.309,0.135l-0.393,0.466l-1.771,1.146l-2.817,1.51l-1.46,0.303  c-0.05,0.011-0.099,0.026-0.146,0.046l-0.24,0.104l0.099-0.282l0.85-0.318c0.175-0.065,0.319-0.193,0.404-0.359l1.179-2.3  l0.377-0.354c0.129-0.121,0.21-0.284,0.231-0.46l0.088-0.766c0.035-0.303-0.117-0.597-0.384-0.743  c-0.268-0.147-0.597-0.118-0.834,0.075l-0.32,0.26l-0.123,0.021l-0.007-0.03c-0.069-0.273-0.285-0.485-0.56-0.549l-0.383-0.088  c-0.221-0.05-0.449,0-0.625,0.137l-0.055-0.214c-0.067-0.261-0.27-0.466-0.53-0.536c-0.121-0.033-0.245-0.033-0.363-0.008  c-0.142-0.217-0.384-0.358-0.666-0.34l-1.179,0.059c-0.013,0.001-0.026,0.002-0.039,0.003l0.016-0.085  c0.02-0.103,0.018-0.208-0.005-0.31l0.031-0.005c0.218-0.033,0.411-0.161,0.526-0.35s0.142-0.418,0.072-0.628l-0.138-0.416v-1.176  c0-0.199-0.079-0.39-0.22-0.53l-0.295-0.295c-0.168-0.168-0.405-0.243-0.641-0.212c-0.235,0.035-0.439,0.18-0.551,0.39l-1.092,0.046  l-0.157-0.898c-0.014-0.094-0.046-0.184-0.094-0.266l-0.315-0.539c0.231-0.114,0.389-0.34,0.414-0.601l0.034-0.351l0.133-0.133  c0.162-0.161,0.241-0.387,0.215-0.614c-0.025-0.227-0.152-0.43-0.346-0.551l-0.236-0.148c-0.099-0.062-0.209-0.1-0.322-0.111  l0.188-0.937l1.042-0.744l0.766-0.471c0.117-0.072,0.211-0.174,0.274-0.296l0.444-0.866l0.264-0.127l0.056,0.023l0.035,0.279  c0.025,0.198,0.127,0.377,0.284,0.499s0.357,0.177,0.554,0.152l0.707-0.089c0.129-0.016,0.252-0.066,0.356-0.144l0.615-0.461  l0.258,0.15c0.117,0.07,0.251,0.107,0.387,0.107h0.471c0.129,0,0.257-0.034,0.369-0.097l0.678-0.384  c0.194-0.11,0.329-0.3,0.369-0.519l0.244-1.353c0.021-0.206,0.069-0.453,0.109-0.574c0.195-0.176,0.32-0.334,0.32-0.334  c0.19-0.241,0.217-0.578,0.063-0.843l-0.324-0.56c-0.175-0.302-0.533-0.442-0.87-0.341l-1.484,0.414l-0.299-0.079l-0.992-0.496  c-0.095-0.047-0.2-0.074-0.306-0.079l-1.174-0.046l-0.602-0.619l0.086-0.702l0.177-0.708c0.069-0.276-0.024-0.567-0.24-0.752  l-0.508-0.434l-0.086-0.169l1.08-0.081h0.308l0.075,0.075c0.141,0.141,0.332,0.22,0.53,0.22h0.177c0.215,0,0.42-0.092,0.563-0.254  c0.084-0.095,0.142-0.209,0.169-0.331l0.373-0.057l0.052,0.006c-0.004,0.01-0.008,0.021-0.011,0.031l-0.148,0.442  c-0.112,0.335,0.025,0.703,0.329,0.883l0.796,0.471c0.041,0.024,0.084,0.044,0.128,0.06l1.474,0.531  c0.203,0.074,0.429,0.055,0.618-0.05l0.531-0.295c0.355-0.198,0.489-0.643,0.3-1.003l-0.646-1.238l-0.126-0.403  c0.129-0.15,0.194-0.348,0.178-0.55c-0.021-0.249-0.164-0.471-0.382-0.593l-0.682-0.381l0.03-0.096  c0.038-0.121,0.044-0.25,0.019-0.375l-0.236-1.149c-0.018-0.086-0.05-0.168-0.097-0.243l-0.842-1.363l-0.357-0.626l0.078-0.051  h0.597l0.415,0.139c0.087,0.03,0.179,0.041,0.274,0.038l1.238-0.059c0.183-0.009,0.356-0.084,0.487-0.211l1.091-1.062  c0.083-0.081,0.146-0.179,0.184-0.287l0.239-0.673l0.476-0.309l0.067,0.042c0.167,0.104,0.368,0.141,0.561,0.096l0.796-0.177  c0.072-0.016,0.142-0.043,0.207-0.08l0.882-0.5c0.14,0.107,0.307,0.16,0.49,0.154l1.327-0.059c0.206-0.009,0.398-0.102,0.533-0.257  l0.481-0.553l0.64,0.427l0.177,0.195c-0.043,0.18-0.019,0.371,0.071,0.535l0.177,0.324c0.113,0.207,0.317,0.349,0.551,0.383  c0.239,0.034,0.47-0.045,0.637-0.211l0.229-0.228l0.168,0.013l0.038,0.454c0.017,0.208,0.119,0.399,0.283,0.528l0.561,0.441  c0.115,0.091,0.255,0.146,0.4,0.158l1.899,0.161l1.695,1.131c0.251,0.167,0.58,0.168,0.831,0l0.082-0.054l1.145,0.572  c0.167,0.084,0.362,0.101,0.541,0.05l0.704-0.208l0.276-0.116l1.074,0.424l0.907,0.545l-0.086,24.746  c-0.001,0.143,0.039,0.279,0.111,0.396L44.654,40.652z M22.871,20.618l0.233-0.326c0.033-0.046,0.06-0.095,0.081-0.145l0.126,0.403  c0.013,0.043,0.03,0.084,0.051,0.124l0.1,0.191l-0.441-0.159L22.871,20.618z M57.382,53.271l-0.071-0.017  c0.005-0.011,0.011-0.022,0.02-0.035l0.032,0.032l0.226-0.226c0.063-0.023,0.137-0.039,0.218-0.039L57.382,53.271z M62.42,53.563  l-0.138-0.284c-0.067-0.139-0.176-0.254-0.312-0.329l-1.299-0.75c-0.121-0.075-0.258-0.111-0.393-0.111  c-0.194,0-0.388,0.076-0.532,0.222l-0.234,0.236c-0.235,0.237-0.285,0.602-0.123,0.893l0.051,0.092l-0.003-0.002  c-0.174-0.108-0.38-0.137-0.575-0.09l-0.133-0.308l-0.325,0.141l0.033-0.036c0.279-0.295,0.272-0.758-0.015-1.045l-0.222-0.222  v-1.164c0-0.414-0.336-0.75-0.75-0.75h-0.236c-0.076,0-0.15,0.012-0.22,0.033l-0.071-0.436c-0.035-0.214-0.161-0.402-0.345-0.517  l-0.236-0.146c-0.238-0.147-0.539-0.148-0.777-0.008c-0.121,0.071-0.217,0.174-0.28,0.293l-0.108-0.182  c-0.104-0.173-0.272-0.297-0.469-0.344l-0.134-0.032l-0.098-0.598c-0.014-0.084-0.042-0.165-0.083-0.24l-0.471-0.855  c-0.057-0.103-0.136-0.19-0.231-0.256l-0.044-0.031l0.16-0.099c0.222-0.138,0.356-0.382,0.354-0.644  c-0.002-0.261-0.14-0.503-0.364-0.638l-0.146-0.088c-0.167-0.1-0.368-0.13-0.555-0.087l-0.44,0.102l-0.65-0.46l0.564-0.315  l0.113-0.039c0.277-0.096,0.474-0.344,0.502-0.636l0.065-0.66l0.097-0.104l0.081-0.015c0.12-0.022,0.233-0.073,0.33-0.149  l0.131-0.103l0.207,0.14l0.114,0.557c0.043,0.209,0.174,0.391,0.358,0.498l0.354,0.204l0.225,0.49  c0.074,0.163,0.204,0.293,0.367,0.368l0.93,0.431l0.92,1.614l0.842,1.21l0.599,0.703l0.397,0.979  c0.081,0.197,0.241,0.352,0.441,0.424l1.445,0.519l1.17,0.473l0.197,0.87l0.121,0.744L62.42,53.563z"></path><path d="M6.901,49.304c-0.181-0.162-0.429-0.228-0.665-0.175L5.44,49.307c-0.284,0.063-0.495,0.281-0.563,0.547  c-0.105-0.08-0.231-0.132-0.367-0.147l-0.766-0.088c-0.102-0.012-0.201-0.003-0.297,0.025l-1.002,0.295  c-0.074,0.021-0.144,0.055-0.207,0.098l-1.003,0.676c-0.209,0.141-0.333,0.378-0.331,0.63c0.003,0.252,0.132,0.486,0.344,0.623  l0.325,0.209c0.122,0.078,0.263,0.119,0.406,0.119c0.047,0,0.094-0.004,0.141-0.014l0.471-0.09c0.034-0.006,0.068-0.015,0.101-0.026  l1.073-0.365L4.7,52.071l0.797,0.148c0.105,0.021,0.213,0.016,0.318-0.01l1.296-0.322c0.191-0.047,0.356-0.168,0.459-0.336  l0.325-0.531c0.188-0.309,0.13-0.708-0.139-0.949L6.901,49.304z"></path></svg>