<svg fill="#B36AE2" xmlns="http://www.w3.org/2000/svg" xmlns:xlink="http://www.w3.org/1999/xlink" version="1.1" x="0px" y="0px" viewBox="0 0 65 65" enable-background="new 0 0 65 65" xml:space="preserve"><path d="M63.156,7.326V7.321c0.002-0.031-0.01-0.059-0.012-0.089c-0.004-0.07-0.005-0.14-0.026-0.204  c-0.011-0.03-0.032-0.053-0.046-0.081c-0.028-0.059-0.055-0.119-0.097-0.168c-0.023-0.027-0.057-0.043-0.084-0.067  c-0.046-0.039-0.087-0.083-0.142-0.11c-0.038-0.02-0.084-0.023-0.126-0.036c-0.052-0.016-0.1-0.04-0.155-0.044L14.158,2.624  c-0.03-0.001-0.057,0.01-0.086,0.011c-0.07,0.002-0.139,0.006-0.204,0.027c-0.014,0.004-0.025,0.013-0.038,0.018  c-0.075,0.029-0.145,0.064-0.206,0.116c-0.026,0.021-0.044,0.049-0.067,0.074c-0.04,0.043-0.08,0.084-0.109,0.136  c-0.024,0.043-0.035,0.093-0.051,0.142c-0.013,0.039-0.035,0.072-0.041,0.114l-1.072,7.235L9.018,8.381  c-0.404-1.702-1.1-1.718-1.337-1.724C6.733,6.62,6.393,7.957,6.223,8.667c-0.329,1.365-0.958,1.474-1.513,1.57  c-0.327,0.057-0.822,0.142-1.027,0.635c-0.223,0.536,0.133,1.044,0.325,1.318c0.9,1.287,2.281,2.745,2.816,3.294v2.436  c-1.068,0.357-2.912,1.122-3.295,2.248c-0.157,0.462-0.075,0.944,0.232,1.358c0.749,1.011,1.316,1.238,1.865,1.458  c0.316,0.126,0.615,0.246,1.032,0.559C7.6,24.251,7.6,24.72,7.6,25.43c0,0.406,0.176,0.782,0.346,1.146  c0.388,0.828,0.354,0.938-0.012,1.182l-1.393,0.929c-1.505,0.986-3.295,2.387-3.272,3.46c0.008,0.382,0.208,0.717,0.547,0.919  c0.009,0.005,0.017,0.01,0.025,0.015c-0.06,0.074-0.13,0.155-0.189,0.224c-0.173,0.2-0.372,0.431-0.57,0.708  c-0.818,1.135-1.933,4.48-0.637,5.519c0.501,0.402,1.363,0.502,2.455,0.629c1.076,0.126,2.415,0.281,2.938,0.732  c0.031,0.061,0.059,0.378-0.206,1.029c-0.552,1.361-1.725,2.743-2.212,3.031c-0.123-0.031-0.253-0.029-0.379,0.007  c-0.234,0.065-0.422,0.241-0.504,0.471c-0.531,1.498-1.692,5.12-1.001,6.389c0.167,0.308,0.437,0.519,0.758,0.595l39.309,9.32  c0.04,0.01,0.08,0.011,0.119,0.014c0.008,0.001,0.015,0.006,0.022,0.006l14.878,0.626c0.011,0.001,0.021,0.001,0.032,0.001  c0.099,0,0.193-0.02,0.28-0.055c0.031-0.013,0.056-0.037,0.085-0.055c0.052-0.029,0.104-0.056,0.147-0.096  c0.028-0.026,0.045-0.062,0.068-0.092c0.033-0.043,0.071-0.083,0.095-0.133c0.017-0.036,0.02-0.078,0.031-0.117  c0.015-0.05,0.036-0.098,0.04-0.151l3.754-54.348c0-0.001,0.001-0.002,0.001-0.003S63.156,7.328,63.156,7.326z M5.779,46.427  C6.254,46.27,6.795,45.83,7.4,45.11c1.105-1.314,2.829-4.121,1.437-5.333c-0.888-0.774-2.416-0.952-3.765-1.108  C4.479,38.6,3.58,38.495,3.409,38.386c-0.273-0.421,0.204-2.548,0.889-3.498c0.17-0.236,0.341-0.434,0.489-0.604  c0.368-0.427,0.749-0.868,0.653-1.457c-0.062-0.381-0.303-0.653-0.555-0.848c0.361-0.468,1.401-1.332,2.483-2.041l1.398-0.932  c1.504-1.002,0.852-2.396,0.539-3.065c-0.079-0.169-0.198-0.424-0.205-0.51c0-0.814,0-1.929-1.542-3.086  c-0.576-0.432-1.018-0.609-1.374-0.751c-0.451-0.181-0.723-0.29-1.236-0.94c0.105-0.364,1.481-1.072,2.831-1.458  c0.322-0.092,0.544-0.386,0.544-0.721v-3.295c0-0.199-0.079-0.39-0.22-0.53c-0.017-0.017-1.609-1.614-2.662-3.033  c0.721-0.195,1.751-0.717,2.212-2.491c0.058,0.142,0.157,0.264,0.288,0.348l4.505,2.917c0.214,0.138,0.483,0.158,0.717,0.054  c0.232-0.105,0.396-0.321,0.433-0.574l1.14-7.694l46.873,3.782L57.955,60.85l-14.076-0.593L4.822,50.996  C4.704,50.384,5.119,48.409,5.779,46.427z"></path></svg>