<svg fill="#B36AE2" xmlns="http://www.w3.org/2000/svg" xmlns:xlink="http://www.w3.org/1999/xlink" version="1.1" x="0px" y="0px" viewBox="0 0 65 65" enable-background="new 0 0 65 65" xml:space="preserve"><path d="M61.814,24.46c-0.443-0.484-0.863-0.942-0.863-1.337c0-1.64,0.752-4.098,0.76-4.123c0.122-0.395-0.1-0.814-0.494-0.938  c-0.11-0.034-2.753-0.833-6.839-0.222c-1.28,0.19-1.893,0.003-2.039-0.235c-0.184-0.297-0.001-1.15,0.698-2.147  c1.279-1.819,1.288-2.924,0.04-5.141c-0.363-0.647-0.791-0.995-1.307-1.063c-0.488-0.063-0.88,0.142-1.2,0.396  c0.123-0.951,0.461-2.43,0.829-3.691c0.066-0.227,0.021-0.473-0.12-0.662C51.137,5.111,50.915,5,50.68,5c-0.001,0-0.002,0-0.003,0  C3.236,5.2,2.501,5.93,2.225,6.206C0.951,7.473,3.09,22.772,4.029,25.047c0.086,0.208,0.281,0.68,0.677,0.892  c0.229,0.718,0.707,4.104,0.329,19.968c-0.01,0.434-0.017,0.705-0.017,0.771c0,0.467,0.287,0.889,0.788,1.159  c0.823,0.445,2.252,0.502,3.389-0.243c0.072-0.047,0.129-0.081,0.175-0.106c0.217,0.214,0.663,0.537,1.349,0.227  c0.296,0.086,0.998,1.104,1.494,2.34c0.382,0.947,1.677,0.921,2.802,0.689v8.507c0,0.414,0.336,0.75,0.75,0.75h25.551  c0.181,0,0.341-0.072,0.471-0.18c0.131,0.111,0.298,0.18,0.479,0.18c0.025,0,0.052-0.001,0.078-0.004  c0.092-0.01,2.263-0.251,3.398-1.9c1.149-1.671,1.223-3.94,0.909-5.508c-0.071-0.354,0.179-0.689,0.858-1.487  c0.8-0.938,1.895-2.223,2.612-4.452c0.637-1.975,1.357-1.786,2.939-1.367c0.806,0.212,1.718,0.452,2.658,0.298  c2.228-0.369,2.537-1.11,2.417-2.741c-0.021-0.275-0.044-0.592-0.044-0.96c0-1.708-0.989-2.61-1.862-3.406  c-0.345-0.314-0.701-0.64-0.989-0.987c-0.086-0.553,1.752-2.286,2.443-2.939c1.011-0.954,1.609-1.519,1.542-2.079  c0.137-0.146,0.378-0.363,0.581-0.547c0.71-0.642,1.782-1.611,2.756-3.043C63.971,26.811,62.673,25.396,61.814,24.46z   M61.325,28.032c-0.873,1.285-1.826,2.146-2.521,2.774c-0.633,0.572-1.197,1.082-1.143,1.657c-0.212,0.243-0.66,0.666-1.005,0.991  c-1.664,1.571-3.734,3.526-2.594,4.945c0.372,0.463,0.772,0.828,1.16,1.182c0.796,0.726,1.372,1.251,1.372,2.297  c0,0.41,0.025,0.764,0.048,1.069c0.069,0.947,0.069,0.947-1.167,1.151c-0.621,0.107-1.307-0.077-2.029-0.268  c-1.556-0.412-3.679-0.972-4.75,2.358c-0.626,1.944-1.568,3.05-2.326,3.938c-0.756,0.887-1.408,1.652-1.188,2.755  c0.254,1.267,0.21,3.078-0.675,4.362c-0.737,1.072-2.303,1.258-2.316,1.259c-0.154,0.016-0.284,0.089-0.395,0.182  c-0.131-0.111-0.295-0.186-0.479-0.186H16.516v-8.727c0-0.238-0.113-0.462-0.305-0.604c-0.191-0.143-0.438-0.185-0.667-0.113  c-0.767,0.237-1.663,0.37-1.993,0.304c-0.355-0.854-1.186-2.582-2.243-3.026c-0.321-0.135-0.649-0.152-1.004-0.04  c-0.516-0.506-1.116-0.491-1.932,0.046c-0.709,0.466-1.571,0.333-1.851,0.181c0.003-0.127,0.008-0.323,0.014-0.579  c0.474-19.858-0.357-20.709-0.757-21.118c-0.091-0.093-0.196-0.165-0.309-0.212c-1.046-1.786-2.426-14.9-2.124-17.256  C6.669,6.87,32.15,6.584,49.69,6.504c-0.511,1.918-0.902,4.01-0.447,4.765c0.23,0.383,0.556,0.474,0.729,0.494  c0.533,0.068,0.888-0.304,1.205-0.629c0.103-0.105,0.28-0.287,0.396-0.363c0.043,0.044,0.11,0.128,0.197,0.283  c1.021,1.814,0.92,2.291,0.039,3.542c-0.494,0.705-1.558,2.485-0.747,3.797c0.547,0.886,1.732,1.198,3.537,0.93  c2.539-0.38,4.476-0.166,5.459,0.012c-0.245,0.933-0.607,2.524-0.607,3.786c0,0.979,0.668,1.708,1.258,2.351  C61.623,26.47,62.031,26.995,61.325,28.032z"></path></svg>