<svg fill="#B36AE2" xmlns="http://www.w3.org/2000/svg" viewBox="0 0 83 96" x="0px" y="0px"><path fill-rule="evenodd" d="M2.72200222,8.16425694 L1.73097532,3.21172622 L1.71153616,1.03865647 C1.71153616,0.486371722 2.15925141,0.0386564721 2.71153616,0.0386564721 L31.6477692,0.0386564721 C32.0068041,0.0386564721 32.3326733,0.230365635 32.5097969,0.531682791 C32.6887582,0.227291091 33.0162131,0.0386564721 33.3717641,0.0386564721 L35.5603581,0.0386564721 C36.1126429,0.0386564721 36.5603581,0.486371722 36.5603581,1.03865647 L36.5603581,29.4313734 C36.5603581,29.6275554 36.502653,29.8194041 36.3944272,29.9830334 L35.7959628,30.8878671 L36.2391186,31.2304262 L78.2563078,70.0664508 C78.3743663,70.175571 78.4643762,70.3115462 78.5187079,70.4628509 L80.4099244,75.7295701 L82.3540761,76.8388521 C82.9401613,77.173257 83.0336128,77.9802246 82.5394666,78.4397265 L79.5595333,81.2107384 L79.5595333,84.531066 C79.5595333,84.8046418 79.447451,85.0662725 79.2493993,85.2550031 L78.2873188,86.1718044 L78.5386347,88.1950644 L80.0623641,90.3262362 C80.4311964,90.8421053 80.2328665,91.5665995 79.6527122,91.822684 L76.9473219,93.0168639 C76.8600443,93.0553889 76.7677029,93.0812263 76.6731054,93.0935905 L58.3773328,95.4849034 C57.8643292,95.5519545 57.3848836,95.2166358 57.2718781,94.7117612 L56.0168228,89.1045481 L50.0427957,83.8180048 L48.4969566,83.8180048 C48.0515743,83.8180048 47.6598751,83.5234549 47.5362508,83.0955736 L47.0061989,81.2609874 L42.0400856,80.0064189 C41.7814355,79.9410772 41.5596164,79.7750952 41.4239589,79.5453857 L40.3225949,77.6804415 L31.1621039,76.375925 C30.7148003,76.3122259 30.3657726,75.9565069 30.3105781,75.5080745 L29.658675,70.2116303 L20.2955962,59.4828057 C20.1834412,59.3542911 20.1060232,59.1992243 20.0707033,59.0323494 L19.4278015,55.9948492 C19.4008746,55.8676284 19.3990195,55.7363771 19.4223401,55.6084462 L19.9093091,52.9370594 L17.734015,52.2169385 C17.4406294,52.1198145 17.2086334,51.8924972 17.1055532,51.6011509 L14.9053442,45.3824694 C14.5937036,44.501647 15.5524795,43.7135982 16.3556202,44.1872953 L16.0369828,43.7776453 L12.9960563,42.666562 C12.741294,42.5734778 12.5352718,42.3808995 12.4252335,42.1329882 L10.6664537,38.1705374 L6.03501829,33.5416023 C5.87264191,33.3793136 5.77104924,33.1660971 5.74729961,32.937756 L5.08166353,26.5379887 L0.977815403,19.9118595 C0.921030835,19.8201744 0.879451266,19.7199074 0.854687759,19.6149435 L0.165326056,16.6929789 C0.115333241,16.4810767 0.135862426,16.2586481 0.223795606,16.0594759 L1.7560359,12.5888897 L2.72200222,8.16425694 Z M3.71153616,2.03865647 L3.71153616,2.91644039 L4.72417092,7.97695359 C4.75124259,8.1122408 4.75002632,8.25166636 4.72059861,8.3864607 L3.6885247,13.1139009 L2.18893014,16.5602989 L2.76385849,18.9972204 L6.90272509,25.6798908 C6.98219763,25.8082083 7.03159255,25.952851 7.04720694,26.1029758 L7.69985582,32.3778773 L12.2118916,36.8874773 C12.2988826,36.9744213 12.3690884,37.0766669 12.4189849,37.1890814 L14.0810689,40.933681 L16.9931481,41.9976865 C17.1694456,42.0621015 17.3240553,42.1748331 17.4392947,42.3229884 L21.195461,47.1520313 C21.8743459,48.0248266 20.843886,49.1911369 19.894095,48.6249625 L17.7143218,47.3255905 L18.8276227,50.4722297 L21.3633021,51.3116544 C21.836646,51.4683527 22.1222358,51.9497993 22.0328179,52.4403227 L21.425233,55.7733777 L21.9734952,58.363737 L31.3671603,69.1276095 C31.4985532,69.278168 31.5818255,69.464639 31.6062369,69.6629721 L32.2020669,74.5038449 L41.0802875,75.7681641 C41.3809796,75.8109847 41.6459139,75.9881432 41.8003607,76.2496686 L42.9341021,78.1694378 L48.0525259,79.4624838 C48.3971391,79.5495421 48.6696417,79.8129825 48.7683007,80.1544555 L49.2489363,81.8180048 L50.4217247,81.8180048 C50.6658737,81.8180048 50.901588,81.9073238 51.084427,82.0691219 L57.5846675,87.8213226 C57.7422676,87.9607863 57.8518523,88.1464157 57.897819,88.3517813 L59.0240324,93.3833668 L76.2712776,91.1290997 L77.720437,90.4894297 L76.7640781,89.1518136 C76.6672018,89.0163169 76.6057056,88.8587676 76.5851736,88.6934715 L76.2404927,85.918561 C76.2014431,85.6041858 76.3136636,85.2899013 76.5430005,85.0713578 L77.5595333,84.1026668 L77.5595333,80.77509 C77.5595333,80.4972675 77.6751109,80.2319672 77.8785637,80.0427784 L80.1811055,77.9016665 L79.0979967,77.283673 C78.8909836,77.1655567 78.7329645,76.977386 78.6524153,76.7530699 L76.7190736,71.3690393 L34.9509618,32.7576517 L33.840072,31.9038223 C33.4239935,31.5840246 33.3259002,30.9969975 33.6153992,30.5592965 L34.5603581,29.1305886 L34.5603581,2.03865647 L33.9770712,2.03865647 L33.2231212,3.47921474 C32.817189,4.2548219 31.6811429,4.17137733 31.3928953,3.34478146 L30.937428,2.03865647 L3.71153616,2.03865647 Z"></path></svg>