<svg fill="#B36AE2" xmlns="http://www.w3.org/2000/svg" xmlns:xlink="http://www.w3.org/1999/xlink" version="1.1" x="0px" y="0px" viewBox="0 0 65 65" enable-background="new 0 0 65 65" xml:space="preserve"><path d="M63.779,50.99l-1.487-37.353c-0.002-0.047-0.021-0.086-0.031-0.13c-0.011-0.048-0.015-0.099-0.034-0.144  c-0.019-0.041-0.049-0.073-0.074-0.11c-0.03-0.044-0.056-0.09-0.094-0.126c-0.017-0.016-0.039-0.024-0.057-0.039  c-0.06-0.047-0.12-0.09-0.191-0.117c-0.008-0.003-0.018-0.002-0.026-0.005c-0.076-0.026-0.155-0.049-0.241-0.049H4.627  c-0.04,0-0.074,0.017-0.111,0.022c-0.053,0.008-0.106,0.012-0.155,0.031c-0.043,0.017-0.078,0.043-0.116,0.066  c-0.043,0.026-0.088,0.049-0.125,0.084c-0.034,0.032-0.058,0.071-0.086,0.109c-0.029,0.04-0.06,0.076-0.082,0.121  c-0.021,0.044-0.028,0.093-0.04,0.142c-0.01,0.04-0.03,0.075-0.033,0.118L1.208,48.738c0,0,0,0.001,0,0.001c0,0.001,0,0.001,0,0.001  c-0.002,0.033,0.01,0.063,0.012,0.095c0.004,0.068,0.004,0.138,0.025,0.2c0.01,0.03,0.032,0.053,0.046,0.081  c0.029,0.059,0.054,0.119,0.097,0.169c0.018,0.02,0.043,0.031,0.063,0.05c0.05,0.047,0.1,0.096,0.163,0.128  c0.021,0.011,0.047,0.011,0.069,0.02c0.069,0.027,0.138,0.055,0.216,0.061c0.001,0,0.002,0,0.004,0  c20.252,1.479,40.817,2.333,61.127,2.538c0.004,0,0.007,0.002,0.011,0.002c0.011,0,0.021,0,0.031-0.001c0.001,0,0.001,0,0.002-0.001  c0.014,0.001,0.026,0.001,0.04,0.001c0.003,0,0.006,0,0.008,0c0.411,0,0.746-0.331,0.75-0.742  C63.874,51.212,63.835,51.097,63.779,50.99z M5.323,14.417h55.5l1.44,36.153c-19.774-0.216-39.782-1.047-59.501-2.472L5.323,14.417z  "></path></svg>