<svg fill="#B36AE2" xmlns="http://www.w3.org/2000/svg" xmlns:xlink="http://www.w3.org/1999/xlink" version="1.1" x="0px" y="0px" viewBox="0 0 65 65" enable-background="new 0 0 65 65" xml:space="preserve"><path d="M61.8,24.175l-1.65-9.067L56.872,2.824c-0.106-0.397-0.513-0.638-0.91-0.533l-8.776,2.244L2.552,14.159  c-0.399,0.086-0.656,0.475-0.578,0.875l1.229,6.355l3.056,14.873v16.763l-1.781,4.158c-0.107,0.25-0.07,0.538,0.096,0.754  l3.481,4.505c0.147,0.19,0.369,0.291,0.594,0.291c0.146,0,0.292-0.042,0.421-0.13l10.311-7.021l7.43-6.607l3.431-3.793L31.333,46  c0.236,0.178,0.556,0.2,0.814,0.056l5.428-3.018l10.536-2.229c0.063-0.013,0.123-0.034,0.18-0.063l14.333-7.166  c0.289-0.145,0.453-0.458,0.407-0.777L61.8,24.175z M47.708,39.361l-10.553,2.233c-0.073,0.016-0.144,0.042-0.209,0.078  l-5.102,2.836l-1.25-0.938c-0.309-0.233-0.747-0.191-1.006,0.097l-3.832,4.243l-7.296,6.49L8.81,60.965l-2.78-3.597l1.668-3.895  c0.04-0.093,0.061-0.193,0.061-0.295V36.186c0-0.051-0.005-0.102-0.015-0.151l-3.07-14.938L3.586,15.47l43.943-9.475l8.085-2.067  l3.072,11.508l1.633,8.979l1.151,8.064L47.708,39.361z"></path></svg>