<svg fill="#ffffff" xmlns="http://www.w3.org/2000/svg" viewBox="0 0 100 100"><path d="M38.145 99.64l.549-4.636 1.87-6.263-1.068-.503.208-1.761-.505-1.282.88.105-.815-.66.055-.464.936-.359.362-3.059-1.157-1.734-.143 1.205-.474.037.109-.928-.698-.458.067-.555.043-.371.088-.742.055-.464.077-.648-1.177-1.173.926.109 2.218 1.109 1.483.176.84-.746.154-1.298.705-1.984.362-3.06-.827-2.54-1.084-1.162-1.312-.814.797-.375.833.099.225-1.101-.63-2.613-1.852-1.816.064 1.042-.622.489-.567.027-.987-.398.077-.649.187-1.576-1.122-1.636-1.297-.154-1.913-4.456.143-1.205-.695-3.654.143-1.205-1.019-.121s-1.151-.606-1.439-.546c-.29.06-1.5-.835-1.5-.835l-2.316-.276-1.881-.786-1.499-.836-1.051-1.44-1.236-1.462-1.095-1.069.165-1.391-.658-1.582-.877-1.325-1.192-1.833-.773-1.407-.583-.633.088-.741.088-.742-1.1-1.822L49.192.104 93.55 56.396 38.145 99.64z"/></svg>
