<svg fill="#B36AE2" xmlns="http://www.w3.org/2000/svg" xmlns:xlink="http://www.w3.org/1999/xlink" version="1.1" x="0px" y="0px" viewBox="0 0 65 65" enable-background="new 0 0 65 65" xml:space="preserve"><path d="M51.646,58.42l-4.608-14.625c-0.065-0.209-0.22-0.379-0.422-0.465c-0.203-0.087-0.433-0.079-0.629,0.02l-1.613,0.808  l-6.65-4.436l-3.558-9.275l-3.808-7.212c-0.08-0.151-0.208-0.27-0.364-0.338l-4.382-1.905l-3.931-6.738l0.933-3.733l1.016-4.698  l0.202-2.203c0.021-0.231-0.066-0.459-0.236-0.618c-0.171-0.158-0.404-0.231-0.633-0.19L21.758,3.01  C21.667,3.025,21.58,3.057,21.5,3.104l-3.404,2.004c-0.037,0.022-0.073,0.047-0.105,0.075l-4.007,3.406  c-0.053,0.045-0.099,0.097-0.138,0.155l-0.401,0.601c-0.13,0.194-0.162,0.438-0.086,0.659l2.82,8.258l4.586,11.163l7.398,32.194  c0.079,0.342,0.383,0.582,0.73,0.582c0.015,0,0.03,0,0.045-0.001l10.108-0.611l12.021-2.204c0.211-0.038,0.396-0.166,0.507-0.351  C51.686,58.849,51.712,58.625,51.646,58.42z M38.865,60.101l-9.383,0.563l-7.27-31.636c-0.009-0.04-0.021-0.079-0.037-0.117  l-4.593-11.177l-2.684-7.864l0.137-0.205l3.878-3.297l3.228-1.9l0.11-0.019l-0.102,1.146l-0.996,4.584l-1.002,4.007  c-0.047,0.19-0.019,0.391,0.08,0.56l4.208,7.214c0.081,0.138,0.203,0.246,0.349,0.31l4.366,1.898l3.648,6.897l3.605,9.417  c0.056,0.145,0.154,0.27,0.284,0.355l7.212,4.81c0.224,0.149,0.511,0.167,0.752,0.047l1.216-0.608l4.089,12.977L38.865,60.101z"></path></svg>