<svg fill="#B36AE2" xmlns="http://www.w3.org/2000/svg" xmlns:xlink="http://www.w3.org/1999/xlink" version="1.1" x="0px" y="0px" viewBox="0 0 65 65" enable-background="new 0 0 65 65" xml:space="preserve"><path d="M58.083,24.255L24.547,1.38c-0.34-0.233-0.807-0.146-1.041,0.194L6.722,25.968c-0.223,0.324-0.158,0.765,0.149,1.011  l15.164,12.144l16.72,24.302c0.141,0.205,0.372,0.325,0.618,0.325c0.02,0,0.039-0.001,0.059-0.002  c0.267-0.021,0.502-0.183,0.617-0.424l18.287-38.125C58.497,24.865,58.389,24.464,58.083,24.255z M39.257,61.508L23.208,38.182  c-0.042-0.061-0.092-0.115-0.149-0.16L8.353,26.244L24.318,3.041l32.387,22.091L39.257,61.508z"></path></svg>