<svg fill="#B36AE2" xmlns="http://www.w3.org/2000/svg" xmlns:xlink="http://www.w3.org/1999/xlink" version="1.1" x="0px" y="0px" viewBox="0 0 65 65" enable-background="new 0 0 65 65" xml:space="preserve"><path d="M63.377,47.302c-0.181-0.1-0.392-0.115-0.583-0.057l-0.029-0.184l0.453-0.246c0.221-0.12,0.366-0.343,0.389-0.593  l0.115-1.301c0.009-0.103-0.003-0.205-0.035-0.302l-0.195-0.592l-0.197-4.586l-0.498-2.912c-0.014-0.083-0.042-0.162-0.082-0.235  l-1.744-3.176l-1.344-2.158l-0.996-2.029c-0.036-0.074-0.084-0.142-0.143-0.2l-1.001-1l-0.932-2.379l0.441-0.586  c0.201-0.238,0.234-0.575,0.084-0.847l-0.613-1.111c-0.038-0.07-0.088-0.134-0.146-0.188l-1.476-1.361l-1.792-2.055l-3.38-5.893  L48.29,9.689l-0.881-2.796c-0.094-0.297-0.361-0.505-0.673-0.523l-1.935-0.109L42.81,5.993c-0.255-0.033-0.5,0.06-0.666,0.25  L41.876,6.55c-0.176,0.202-0.23,0.482-0.145,0.735l0.524,1.54l-0.073,0.957l-0.182-0.044L41.963,9.21  c-0.028-0.392-0.354-0.695-0.748-0.695l-1.669,0.006l-1.977,0.264l-12.34,0.727l-2.846-0.104L22.006,9.03l-0.91-1.528  c-0.135-0.227-0.38-0.366-0.645-0.366l-2.317,0.002l-2.56,0.195L2.013,8.942c-0.347,0.041-0.62,0.317-0.657,0.665L1.24,10.679  c-0.024,0.226,0.055,0.45,0.215,0.61l0.613,0.613c0.032,0.032,0.067,0.062,0.105,0.087l0.801,0.552l0.102,2.842  c0.008,0.218,0.11,0.421,0.279,0.558c0.17,0.136,0.389,0.193,0.605,0.153l1.264-0.23c0.038-0.007,0.076-0.017,0.113-0.03  l2.209-0.772l2.242-0.188l1.547-0.21l2.697,0.638l2.926,1.409l0.529,0.496c0.071,0.067,0.155,0.119,0.247,0.154l0.93,0.353  l0.34,0.404l0.09,0.809c0.026,0.233,0.16,0.441,0.362,0.562c0.202,0.12,0.449,0.139,0.666,0.05l1.09-0.443h1.348  c0.122,0,0.242-0.03,0.35-0.087l1.378-0.728c0.063-0.033,0.122-0.076,0.173-0.125l1.179-1.146l0.855,0.056  c0.313,0.022,0.603-0.153,0.731-0.438l0.192-0.422c0.117-0.257,0.08-0.559-0.097-0.779l-0.028-0.035l0.819-0.164h0.739l0.949,0.49  c0.03,0.016,0.061,0.029,0.092,0.04l1.371,0.49l0.781,1.204c0.088,0.136,0.218,0.239,0.369,0.295l0.693,0.256l0.31,0.957  c0.063,0.197,0.207,0.359,0.393,0.447l1.1,0.518l0.496,0.806c0.095,0.153,0.241,0.268,0.412,0.322l2.4,0.649l0.354,0.842  c0.027,0.066,0.064,0.127,0.109,0.183l0.982,1.21v3.256l-0.54,1.689c-0.032,0.101-0.043,0.207-0.031,0.312l0.115,1.034  c0.004,0.038,0.011,0.076,0.021,0.113l0.498,1.839c0.01,0.038,0.023,0.075,0.04,0.111l0.689,1.532  c0.072,0.162,0.199,0.291,0.356,0.367l-0.083,0.095c-0.257,0.294-0.246,0.736,0.026,1.017l1.342,1.378l0.947,1.131l1.078,1.967  c0.016,0.03,0.035,0.06,0.056,0.087l1.055,1.419l0.77,1.832c0.1,0.236,0.313,0.406,0.566,0.448l0.689,0.116  c0.281,0.053,0.553-0.063,0.722-0.284l0.192-0.253l0.796,1.225l0.205,1.226c0.019,0.11,0.062,0.216,0.126,0.308l1.188,1.686  c0.146,0.207,0.379,0.315,0.637,0.318c0.252-0.008,0.483-0.142,0.615-0.356l0.066-0.109l0.851,0.065l1.084,0.692l1.143,1.75  l0.261,1.076l0.113,1.112c0.019,0.184,0.104,0.354,0.242,0.479l0.422,0.383c0.069,0.063,0.149,0.111,0.236,0.145l0.498,0.19  c0.086,0.033,0.177,0.05,0.268,0.05c0.098,0,0.196-0.02,0.288-0.058l0.92-0.383c0.098-0.041,0.187-0.102,0.259-0.18l0.367-0.392  l1.192-0.061c0.067-0.003,0.13-0.028,0.193-0.05l-0.17,0.282l-1.544,1.475l-1.25,0.7l-0.92,0.573  c-0.167,0.104-0.269,0.275-0.315,0.463c-0.092-0.066-0.193-0.122-0.309-0.143l-0.578-0.102l-0.429-0.167  c-0.233-0.091-0.496-0.059-0.7,0.084l-0.881,0.614c-0.079,0.055-0.146,0.125-0.199,0.206l-0.393,0.602L51.3,57.114  c-0.249,0.063-0.449,0.248-0.529,0.492c-0.081,0.244-0.031,0.512,0.132,0.711l0.346,0.422c0.146,0.179,0.361,0.274,0.58,0.274  c0.118,0,0.237-0.027,0.347-0.085l0.836-0.437l2.891-1.015c0.19-0.064,0.348-0.204,0.434-0.387c0.059-0.122,0.068-0.255,0.057-0.388  l0.214,0.196c0.144,0.132,0.325,0.198,0.508,0.198c0.162,0,0.324-0.052,0.46-0.157l3.072-2.419c0.028-0.022,0.054-0.046,0.078-0.072  l1.416-1.493c0.068-0.071,0.122-0.157,0.157-0.25l0.937-2.471l0.351-0.595c0.061-0.103,0.096-0.219,0.103-0.337l0.076-1.302  C63.779,47.714,63.629,47.441,63.377,47.302z M59.72,50.818l-1.342,0.068c-0.194,0.01-0.376,0.095-0.509,0.236l-0.464,0.494  l-0.495,0.206l-0.087-0.033l-0.106-0.096l-0.099-0.922l-0.309-1.302c-0.02-0.084-0.054-0.164-0.102-0.237l-1.301-1.993  c-0.058-0.089-0.135-0.165-0.225-0.222l-1.379-0.881c-0.104-0.066-0.223-0.106-0.346-0.116l-1.494-0.114  c-0.108-0.007-0.205,0.006-0.298,0.038l-0.542-0.77l-0.203-1.211c-0.017-0.102-0.055-0.198-0.11-0.284l-0.996-1.533  c-0.062-0.095-0.143-0.174-0.238-0.232l-0.689-0.421c-0.329-0.202-0.756-0.119-0.987,0.186l-0.24,0.316l-0.579-1.379  c-0.023-0.056-0.054-0.108-0.09-0.156l-1.078-1.451l-1.089-1.985c-0.023-0.043-0.051-0.084-0.082-0.121l-1.031-1.229l-0.896-0.923  l0.349-0.398c0.031-0.036,0.06-0.075,0.084-0.117l1.225-2.106c0.082-0.142,0.116-0.307,0.096-0.469l-0.076-0.613  c-0.039-0.315-0.271-0.571-0.582-0.64l-1.725-0.383c-0.139-0.03-0.288-0.02-0.426,0.03l-0.503,0.188l-0.156-1.058l0.527-1.648  c0.024-0.074,0.036-0.151,0.036-0.229v-3.64c0-0.172-0.06-0.339-0.168-0.473l-1.082-1.333l-0.457-1.089  c-0.091-0.218-0.28-0.38-0.51-0.438l-1.947-0.484l-0.463-0.146l-0.467-0.758c-0.076-0.124-0.188-0.223-0.318-0.285l-1.008-0.475  l-0.321-0.994c-0.071-0.219-0.238-0.393-0.454-0.473l-0.801-0.296l-0.783-1.208c-0.09-0.138-0.222-0.243-0.377-0.298l-1.563-0.559  l-1.066-0.551c-0.106-0.055-0.225-0.084-0.344-0.084h-0.996c-0.049,0-0.099,0.005-0.147,0.015l-1.532,0.307  c-0.322,0.064-0.564,0.33-0.599,0.656l-0.077,0.728c-0.003,0.026-0.004,0.051-0.004,0.077l-0.274-0.018  c-0.218-0.013-0.419,0.063-0.572,0.211l-1.34,1.304l-1.118,0.59h-1.309c-0.097,0-0.192,0.019-0.282,0.055l-0.308,0.125l-0.005-0.049  c-0.017-0.147-0.076-0.286-0.171-0.4l-0.612-0.728c-0.083-0.098-0.188-0.173-0.308-0.218l-0.974-0.37l-0.505-0.473  c-0.056-0.052-0.119-0.095-0.188-0.128l-3.103-1.494c-0.048-0.023-0.1-0.042-0.152-0.054l-2.912-0.689  c-0.09-0.021-0.183-0.026-0.274-0.013l-1.647,0.225l-2.298,0.192C7.262,13.58,7.2,13.593,7.14,13.614l-2.244,0.784l-0.354,0.064  l-0.084-2.352c-0.008-0.237-0.128-0.456-0.324-0.591l-1.055-0.727L2.77,10.482l0.013-0.122l12.937-1.536l2.472-0.189h1.834  l0.74,1.242c0.032,0.053,0.07,0.103,0.114,0.146l0.651,0.652c0.134,0.134,0.314,0.213,0.503,0.22l3.212,0.113l12.466-0.732  l1.933-0.262h0.873l0.027,0.377c0.023,0.325,0.254,0.597,0.57,0.674l1.57,0.383c0.211,0.051,0.439,0.008,0.618-0.122  c0.178-0.129,0.291-0.33,0.308-0.55l0.152-1.991c0.008-0.101-0.006-0.203-0.038-0.299l-0.307-0.899l1.239,0.166l1.476,0.085  l0.739,2.344l1.418,3.716c0.014,0.035,0.029,0.069,0.048,0.102l2.038,3.613l1.418,2.412c0.023,0.04,0.051,0.078,0.081,0.113  l1.894,2.165l1.442,1.336l0.306,0.553l-0.088,0.104c-0.039,0.046-0.072,0.096-0.099,0.15l-0.268,0.536  c-0.095,0.19-0.104,0.411-0.027,0.608l1.111,2.836c0.038,0.097,0.095,0.184,0.168,0.257l1.023,1.022l0.977,1.982l1.359,2.188  l1.664,3.031l0.467,2.692l0.191,4.597c0.003,0.069,0.016,0.139,0.037,0.204l0.18,0.544l-0.066,0.745l-0.564,0.307  c-0.278,0.152-0.432,0.463-0.383,0.776l0.088,0.554l-0.177,0.558c-0.033,0.104-0.043,0.212-0.029,0.319l0.134,1.02l0.093,0.35  l-0.682,0.806L59.72,50.818z"></path></svg>