<svg fill="#B36AE2" xmlns="http://www.w3.org/2000/svg" xmlns:xlink="http://www.w3.org/1999/xlink" version="1.1" x="0px" y="0px" viewBox="0 0 65 65" enable-background="new 0 0 65 65" xml:space="preserve"><path d="M61.345,38.558l-0.241-0.722c-0.067-0.203-0.219-0.368-0.416-0.452c-0.195-0.083-0.419-0.081-0.614,0.011l-0.678,0.318  l-1.16-0.642l-1.11-3.162c-0.042-0.118-0.112-0.225-0.205-0.309l-1.266-1.144c-0.091-0.083-0.201-0.142-0.32-0.171l-1.288-0.323  l-0.922-2.752l-1.626-3.614c-0.076-0.169-0.212-0.305-0.382-0.379l-2.359-1.036l-1.074-0.973l-0.781-1.506  c-0.042-0.08-0.098-0.152-0.164-0.212l-1.205-1.084c-0.041-0.037-0.085-0.068-0.133-0.095l-1.252-0.708l-1.294-1.687  c-0.043-0.056-0.094-0.106-0.15-0.148l-1.806-1.326c-0.055-0.04-0.113-0.072-0.177-0.096l-2.485-0.95l-0.196-0.669  c-0.028-0.096-0.076-0.187-0.141-0.264l-1.306-1.59l-0.318-0.848c-0.021-0.056-0.049-0.109-0.082-0.158l-1.928-2.832  c-0.145-0.211-0.388-0.344-0.644-0.327L31.923,8.76l-2.305-1.446l-0.639-0.73l-0.158-0.787l0.337-0.825l1.035-0.424  c0.371-0.152,0.557-0.569,0.422-0.947l-0.302-0.843c-0.123-0.344-0.475-0.547-0.835-0.486l-3.746,0.655L14.519,4.133L6.346,5.095  L4.359,5.276C3.985,5.31,3.694,5.615,3.677,5.99L3.617,7.376c-0.002,0.048,0,0.097,0.008,0.145l0.482,3.192  c0.01,0.065,0.028,0.128,0.055,0.189l2.082,4.757l2.296,9.651l0.998,2.798l0.919,4.279l1.145,3.735  c0.028,0.091,0.073,0.175,0.132,0.249l1.554,1.943l0.215,1.718c0.035,0.278,0.222,0.515,0.485,0.611l0.694,0.255l0.07,0.869  l-0.972,2.74c-0.015,0.043-0.026,0.086-0.033,0.13l-0.482,2.952c-0.021,0.125-0.009,0.253,0.034,0.373l0.931,2.614l0.22,3.037  l-0.476,1.162c-0.114,0.28-0.049,0.602,0.165,0.815l0.302,0.301c0.048,0.048,0.103,0.089,0.162,0.122l0.679,0.383l0.405,1.672  c0.017,0.07,0.044,0.138,0.081,0.2l1.506,2.59c0.042,0.072,0.097,0.138,0.16,0.192l0.844,0.724c0.128,0.11,0.291,0.174,0.459,0.18  l4.712,0.18l19.512-1.15l3.096-0.415h2.431l0.074,1.107c0.021,0.319,0.242,0.59,0.551,0.674l1.324,0.361  c0.064,0.018,0.131,0.026,0.197,0.026c0.153,0,0.304-0.047,0.432-0.137c0.183-0.129,0.299-0.332,0.316-0.556l0.182-2.349  c0.008-0.102-0.005-0.203-0.038-0.299L50.7,56.977l0.296-0.338l3.027,0.376l3.073,0.182c0.015,0.001,0.029,0.001,0.044,0.001  c0.008,0,0.016,0,0.02,0c0.415,0,0.75-0.336,0.75-0.75c0-0.093-0.017-0.182-0.047-0.263l-0.445-3.495l1.332-5.811l0.903-2.529  c0.045-0.126,0.056-0.262,0.03-0.394l-0.251-1.308l1.863-3.501C61.393,38.966,61.41,38.752,61.345,38.558z M57.984,42.178  c-0.08,0.151-0.106,0.325-0.074,0.494l0.262,1.367l-0.858,2.42l-1.387,6.024c-0.021,0.086-0.024,0.175-0.014,0.263l0.369,2.899  l-2.122-0.124l-3.374-0.42c-0.253-0.029-0.493,0.063-0.657,0.25l-0.843,0.963c-0.177,0.202-0.231,0.482-0.146,0.735l0.914,2.687  l-0.064,0.84l-0.055-0.806c-0.026-0.395-0.354-0.7-0.748-0.7l-3.23,0.007l-3.14,0.416l-19.385,1.145l-4.378-0.17l-0.55-0.471  l-1.387-2.386l-0.456-1.884c-0.049-0.202-0.18-0.375-0.361-0.477l-0.732-0.412l0.335-0.818c0.043-0.107,0.062-0.223,0.054-0.339  l-0.24-3.313c-0.005-0.066-0.019-0.133-0.042-0.197l-0.9-2.528l0.44-2.695l1.003-2.828c0.035-0.1,0.049-0.206,0.041-0.312  l-0.121-1.507c-0.023-0.291-0.214-0.542-0.489-0.644l-0.716-0.263l-0.185-1.476c-0.017-0.138-0.072-0.268-0.159-0.376l-1.597-1.996  l-1.086-3.536l-0.93-4.31l-1.001-2.814l-2.289-9.64c-0.01-0.043-0.024-0.086-0.042-0.127l-2.068-4.729L5.119,7.369L5.147,6.71  l9.54-1.087l11.255-1.212l1.968-0.343c-0.007,0.015-0.014,0.029-0.02,0.044l-0.542,1.325c-0.056,0.136-0.07,0.286-0.041,0.431  l0.241,1.205c0.026,0.129,0.084,0.249,0.171,0.347l0.843,0.963c0.048,0.055,0.104,0.103,0.166,0.141l2.591,1.626  c0.126,0.079,0.28,0.123,0.422,0.114l1.516-0.047l1.645,2.417l0.331,0.88c0.029,0.077,0.07,0.149,0.123,0.212l1.287,1.568  l0.259,0.879c0.066,0.224,0.233,0.405,0.452,0.489l2.737,1.047l1.638,1.203l1.322,1.723c0.062,0.08,0.138,0.147,0.226,0.196  l1.313,0.742l1.043,0.938l0.78,1.505c0.041,0.08,0.097,0.151,0.162,0.21l1.265,1.146c0.061,0.054,0.129,0.099,0.202,0.131  l2.207,0.969l1.479,3.281l1.024,3.072c0.081,0.243,0.281,0.428,0.529,0.49l1.505,0.377l0.985,0.892l1.142,3.252  c0.062,0.174,0.185,0.319,0.346,0.408l1.746,0.965c0.158,0.088,0.342,0.114,0.516,0.078L57.984,42.178z"></path></svg>