<svg fill="#B36AE2" xmlns="http://www.w3.org/2000/svg" xmlns:xlink="http://www.w3.org/1999/xlink" version="1.1" x="0px" y="0px" viewBox="0 0 65 65" enable-background="new 0 0 65 65" xml:space="preserve"><path d="M5.83,16.063c-0.122-0.326-0.451-0.528-0.799-0.48l-1.198,0.156c-0.242,0.031-0.453,0.178-0.567,0.394l-0.989,1.875  c-0.123,0.233-0.114,0.512,0.021,0.737s0.379,0.363,0.642,0.363h1.25c0.249,0,0.481-0.124,0.621-0.33l1.094-1.615  c0.136-0.201,0.167-0.456,0.081-0.684L5.83,16.063z"></path><path d="M13.783,13.696c-0.058-0.325-0.321-0.575-0.65-0.614l-2.188-0.26c-0.134-0.015-0.272,0.005-0.396,0.061L8.467,13.82  c-0.205,0.092-0.358,0.271-0.417,0.488l-0.521,1.927c-0.098,0.361,0.086,0.739,0.43,0.886l3.178,1.354  c0.093,0.04,0.193,0.06,0.294,0.06c0.035,0,0.071-0.002,0.106-0.007l1.094-0.156c0.263-0.038,0.487-0.212,0.588-0.458l0.834-2.031  c0.054-0.131,0.069-0.275,0.044-0.416L13.783,13.696z M11.994,16.947l-0.462,0.066l-2.384-1.016l0.258-0.955l1.57-0.706l1.428,0.17  l0.179,1.008L11.994,16.947z"></path><path d="M31.619,23.243l-1.334-0.828l-0.914-1.778l-1.094-1.875c-0.199-0.341-0.63-0.469-0.983-0.293l-3.021,1.51  c-0.171,0.085-0.302,0.233-0.368,0.412l-0.364,0.99c-0.083,0.226-0.053,0.478,0.081,0.678l1.927,2.865  c0.158,0.235,0.438,0.36,0.715,0.326l1.251-0.156c0.076-0.009,0.149-0.03,0.218-0.062l0.134-0.061l0.417,0.361  c0.137,0.118,0.311,0.183,0.491,0.183c0.013,0,0.027,0,0.04-0.001l1.928-0.104c0.236-0.013,0.453-0.136,0.584-0.333l0.521-0.781  c0.113-0.169,0.152-0.376,0.109-0.575C31.914,23.522,31.792,23.35,31.619,23.243z M29.038,24l-0.552-0.479  c-0.139-0.121-0.314-0.183-0.491-0.183c-0.105,0-0.211,0.022-0.311,0.067l-0.468,0.213l-0.68,0.085l-1.455-2.165l0.129-0.351  l2.127-1.063l0.72,1.232l0.989,1.928c0.063,0.121,0.156,0.223,0.272,0.295l0.601,0.373L29.038,24z"></path><path d="M62.469,43.877l-1.895-1.231l-0.9-2.084c-0.018-0.041-0.039-0.081-0.064-0.118l-0.833-1.25  c-0.06-0.09-0.138-0.165-0.229-0.222l-1.844-1.134l-5.731-2.709c-0.26-0.122-0.568-0.086-0.792,0.097l-0.834,0.677  c-0.186,0.15-0.288,0.381-0.276,0.62l0.053,1.042c0.009,0.17,0.075,0.333,0.188,0.46l0.498,0.561l-0.958,1.414l-0.997,0.434  c-0.293,0.127-0.474,0.426-0.449,0.745l0.104,1.354c0.016,0.198,0.108,0.382,0.26,0.512l0.922,0.79l0.719,2.559l-0.265,1.058  c-0.019,0.075-0.026,0.153-0.021,0.231l0.155,2.344c0.015,0.223,0.128,0.428,0.31,0.559l1.876,1.354  c0.104,0.075,0.227,0.123,0.355,0.137l0.938,0.104c0.027,0.003,0.056,0.005,0.083,0.005c0.228,0,0.444-0.104,0.588-0.284  l1.209-1.526l1.16-1.545l1.166-0.678l0.442,0.177c0.168,0.067,0.358,0.071,0.53,0.01l2.188-0.781  c0.081-0.028,0.157-0.071,0.224-0.126l2.031-1.666c0.128-0.105,0.218-0.249,0.255-0.41l0.157-0.678  C62.861,44.368,62.732,44.049,62.469,43.877z M59.496,46.188l-1.798,0.642l-0.518-0.207c-0.214-0.086-0.455-0.068-0.655,0.048  l-1.614,0.938c-0.087,0.051-0.162,0.118-0.223,0.198l-1.239,1.651l-0.939,1.186l-0.328-0.037l-1.431-1.031l-0.124-1.875l0.284-1.137  c0.031-0.126,0.029-0.259-0.006-0.385l-0.834-2.969c-0.04-0.143-0.121-0.27-0.233-0.366l-0.857-0.735l-0.04-0.513l0.708-0.308  c0.131-0.057,0.242-0.149,0.322-0.267l1.144-1.7l0.261-0.521c0.137-0.274,0.094-0.604-0.11-0.834l-0.658-0.74l-0.02-0.398  l0.172-0.141l5.229,2.467l1.632,1.008l0.704,1.058l0.964,2.23c0.059,0.135,0.156,0.251,0.279,0.331l1.599,1.038L59.496,46.188z"></path><path d="M47.861,32.676l1.875-0.938c0.255-0.127,0.415-0.387,0.415-0.671v-0.989c0-0.261-0.136-0.503-0.357-0.639l-2.291-1.406  c-0.065-0.04-0.137-0.07-0.211-0.088l-2.209-0.553l-2.372-1.211c-0.201-0.102-0.432-0.108-0.629-0.024l0.029-0.129  c0.049-0.21,0.005-0.431-0.121-0.606c-0.126-0.175-0.321-0.288-0.536-0.309l-3.178-0.313c-0.199-0.022-0.399,0.042-0.554,0.171  l-0.032,0.027l-2.092-0.444c-0.303-0.065-0.604,0.059-0.775,0.31l-0.677,0.989c-0.134,0.196-0.167,0.444-0.09,0.668  c0.078,0.225,0.257,0.399,0.483,0.47l2.509,0.79c-0.011,0.009-0.021,0.018-0.031,0.027c-0.153,0.142-0.241,0.342-0.241,0.551v0.624  c0,0.114,0.025,0.226,0.075,0.328l0.989,2.032c0.168,0.344,0.568,0.507,0.926,0.378l1.614-0.573  c0.252-0.089,0.437-0.306,0.486-0.568l0.156-0.833c0.024-0.132,0.013-0.268-0.031-0.392l2.189,2.847  c0.055,0.071,0.121,0.131,0.197,0.179l1.25,0.781c0.12,0.075,0.258,0.114,0.397,0.114c0.051,0,0.103-0.005,0.153-0.016l2.5-0.521  C47.743,32.726,47.804,32.705,47.861,32.676z M39.473,29.88l-0.576,0.205l-0.437-0.897l0.6,0.049l0.428,0.563L39.473,29.88z   M39.693,26.554l-1.428-0.098c0.037-0.021,0.072-0.046,0.105-0.074l0.071-0.059l1.41,0.139L39.693,26.554z M40.584,27.894  c-0.162,0.204-0.203,0.473-0.121,0.709l-0.413-0.542c-0.003-0.004-0.007-0.009-0.011-0.013c0.072-0.017,0.142-0.043,0.206-0.081  l0.518-0.299L40.584,27.894z M45.168,31.73l-0.88-0.55l-2.164-2.814l0.452-0.57l1.901,0.971c0.051,0.026,0.104,0.046,0.159,0.06  l2.18,0.545l1.835,1.126v0.106l-1.373,0.687L45.168,31.73z"></path></svg>