<svg fill="#B36AE2" xmlns="http://www.w3.org/2000/svg" xmlns:xlink="http://www.w3.org/1999/xlink" version="1.1" x="0px" y="0px" viewBox="0 0 65 65" enable-background="new 0 0 65 65" xml:space="preserve"><path d="M54.674,42.294c0-0.048-0.01-0.094-0.02-0.142c-0.011-0.052-0.021-0.103-0.041-0.15c-0.006-0.014-0.005-0.028-0.012-0.042  c-0.014-0.027-0.037-0.044-0.054-0.069c-0.03-0.045-0.061-0.088-0.1-0.126c-0.033-0.032-0.069-0.058-0.107-0.083  c-0.041-0.027-0.082-0.053-0.129-0.072c-0.046-0.019-0.093-0.028-0.143-0.038c-0.031-0.006-0.059-0.022-0.092-0.024  c-0.017-0.001-0.031,0.007-0.047,0.007c-0.05,0-0.098,0.011-0.146,0.021c-0.05,0.011-0.098,0.02-0.143,0.039  c-0.016,0.007-0.031,0.005-0.046,0.013c-0.8,0.398-2.236,0.883-2.785,0.637c-0.069-0.03-0.109-0.064-0.14-0.172  c-0.091-0.321-0.165-0.608-0.229-0.86c-0.236-0.928-0.394-1.541-0.98-1.793c-0.521-0.228-1.014,0.049-1.175,0.138  c-0.512,0.288-0.848,0.216-1.854-0.062c-0.155-0.087-0.393-0.643-0.506-0.909c-0.254-0.596-0.517-1.21-1.146-1.309  c-0.209-0.03-0.614-0.021-0.998,0.425c-0.296,0.344-0.438,0.736-0.564,1.082c-0.259,0.707-0.358,0.971-1.7,0.693  c-0.558-0.115-1.064-0.524-1.507-1.216c-0.881-1.376-1.148-3.304-1.093-3.809c0.826-1.187-0.749-2.628-1.278-3.113  c-1.185-1.083-1.449-2.004-1.507-2.344c-0.016-0.143,0.055-0.654,0.102-0.993c0.18-1.313,0.322-2.349-0.438-2.738  c-0.433-0.222-0.91-0.09-1.42,0.396c-0.275,0.262-0.476,0.528-0.623,0.783c-0.642-1.296-0.905-3.204-0.611-3.619  c0.125-0.177,0.334-0.337,0.536-0.492c0.378-0.289,0.848-0.649,0.896-1.273c0.046-0.599-0.338-1.075-0.631-1.382  c-0.709-0.74-0.795-1.644-0.858-2.304c-0.021-0.22-0.041-0.407-0.071-0.548c-0.103-0.49-1.136-1.95-3.07-4.339l0.72-8.162  c0.001-0.011-0.004-0.021-0.003-0.032c0.015-0.038,0.038-0.072,0.047-0.114c0.089-0.404-0.166-0.805-0.57-0.895  c-2.946-0.653-5.885-1.325-8.815-2.009c-0.096-0.022-0.19-0.022-0.281-0.008c-0.004,0-0.008-0.001-0.011,0  c-0.185,0.03-0.348,0.132-0.464,0.278c-0.005,0.006-0.013,0.01-0.018,0.017c-0.04,0.054-0.063,0.121-0.087,0.187  c-0.011,0.029-0.031,0.052-0.039,0.083l-0.001,0.003c0,0,0,0.001,0,0.001s0,0.001,0,0.001l-6.523,27.132  c-0.079,0.328,0.071,0.668,0.366,0.832c2.478,1.37,4.78,3.166,4.835,3.725c-0.132,0.441-1.158,0.988-1.907,1.389  c-1.203,0.642-2.338,1.248-2.558,2.302c-0.075,0.355-0.141,0.77-0.21,1.21c-0.191,1.212-0.43,2.72-0.991,3.467  c-0.228,0.304-0.414,0.459-0.593,0.609c-0.622,0.52-0.927,0.947-1.038,2.609c-0.047,0.716-0.236,1.399-0.403,2.003  c-0.256,0.926-0.477,1.726-0.051,2.349c0.193,0.281,0.481,0.467,0.858,0.554c0.185,1.045-0.771,5.104-1.853,8.49  c-0.006,0.018-0.001,0.035-0.006,0.054c-0.004,0.018-0.017,0.032-0.02,0.051c-0.005,0.033,0.004,0.063,0.003,0.097  c-0.002,0.05-0.003,0.099,0.005,0.147c0.008,0.049,0.023,0.092,0.04,0.137c0.017,0.045,0.034,0.088,0.059,0.129  c0.025,0.041,0.056,0.076,0.088,0.111c0.032,0.036,0.063,0.068,0.102,0.098c0.041,0.03,0.085,0.051,0.131,0.073  c0.029,0.014,0.052,0.036,0.083,0.046c0.021,0.007,0.043,0.005,0.065,0.011c0.014,0.003,0.025,0.012,0.04,0.015  c13.486,2.264,27.278,3.685,40.994,4.223c0.01,0.001,0.02,0.001,0.03,0.001c0.125,0,0.238-0.039,0.342-0.094  c0.097,0.055,0.202,0.095,0.32,0.102c0.016,0.001,0.031,0.001,0.047,0.001c0.394,0,0.724-0.307,0.748-0.704l1.255-20.68  C54.682,42.325,54.674,42.311,54.674,42.294z M13.43,49.084c-0.189-0.288-0.476-0.465-0.803-0.497  c-0.007-0.001-0.014-0.002-0.02-0.002c0.012-0.234,0.141-0.699,0.238-1.053c0.177-0.64,0.396-1.435,0.455-2.303  c0.08-1.204,0.195-1.301,0.503-1.558c0.21-0.177,0.499-0.418,0.832-0.86c0.785-1.046,1.043-2.686,1.272-4.133  c0.065-0.414,0.126-0.804,0.197-1.138c0.077-0.367,1.111-0.92,1.795-1.285c1.144-0.61,2.326-1.242,2.638-2.28  c0.501-1.669-2.739-3.866-5.047-5.188L21.708,2.92c2.47,0.574,4.945,1.139,7.427,1.693l-0.711,8.063  c-0.017,0.194,0.042,0.388,0.165,0.539c1.306,1.605,2.813,3.586,2.958,3.939c0.021,0.099,0.031,0.228,0.045,0.379  c0.074,0.779,0.198,2.084,1.268,3.2c0.089,0.093,0.143,0.162,0.176,0.21c-0.074,0.066-0.186,0.152-0.269,0.216  c-0.263,0.202-0.591,0.453-0.848,0.815c-0.927,1.308-0.039,4.618,1.009,6.004c0.452,0.597,0.725,0.957,1.265,0.817  c0.241-0.063,0.386-0.205,0.475-0.359c-0.039,0.35-0.051,0.611-0.015,0.821c0.104,0.62,0.501,1.86,1.974,3.207  c0.797,0.729,0.97,1.102,1.007,1.218c-0.623,0.916,0.292,3.657,0.302,3.686c0.696,2.024,1.86,3.302,3.277,3.596  c2.39,0.497,3.015-0.565,3.401-1.614c0.282,0.65,0.651,1.394,1.439,1.613c0.93,0.256,1.744,0.483,2.771,0.021  c0.053,0.177,0.111,0.405,0.165,0.617c0.067,0.264,0.145,0.563,0.239,0.899c0.149,0.526,0.488,0.919,0.979,1.136  c0.302,0.133,0.645,0.186,1.001,0.186c0.646,0,1.335-0.176,1.901-0.372l-1.139,18.767c-13.355-0.526-26.783-1.897-39.927-4.066  C13.021,54.981,14.244,50.323,13.43,49.084z"></path></svg>