<svg fill="#B36AE2" xmlns="http://www.w3.org/2000/svg" xmlns:xlink="http://www.w3.org/1999/xlink" version="1.1" x="0px" y="0px" viewBox="0 0 65 65" enable-background="new 0 0 65 65" xml:space="preserve"><path d="M50.06,40.936c-0.01-0.104-0.042-0.206-0.094-0.298l-0.813-1.446l-0.126-1.387l0.383-2.538  c0.01-0.062,0.012-0.123,0.005-0.185l-0.346-3.552l-0.546-7.852L47.83,16.1l-0.449-5.802c-0.003-0.034-0.008-0.068-0.016-0.102  l-0.519-1.824l-0.645-1.836c-0.032-0.092-0.083-0.177-0.147-0.25l-0.742-0.834l-0.62-1.076L44.506,1.82  c-0.015-0.204-0.112-0.392-0.27-0.522c-0.157-0.131-0.368-0.195-0.563-0.168L35.83,2.02l-8.587,0.494h-6.101  c-0.211,0-0.413,0.089-0.555,0.246c-0.142,0.156-0.212,0.365-0.192,0.575l0.099,1.042C20.521,4.655,20.7,4.895,20.958,5l0.908,0.371  l0.332,0.423l0.158,0.553c0.04,0.139,0.119,0.264,0.229,0.359l1.769,1.542l0.233,0.798l-0.291,1.37l-0.809,1.759  c-0.015,0.032-0.027,0.066-0.038,0.1l-0.329,1.111l-0.896,0.71l-3.346,0.888c-0.252,0.063-0.454,0.252-0.533,0.5L17.7,17.519  c-0.062,0.195-0.042,0.407,0.057,0.587l0.298,0.546c0.038,0.068,0.085,0.131,0.142,0.185l0.693,0.657l-0.066,1.439l-0.764,0.582  c-0.111,0.084-0.196,0.197-0.246,0.327l-0.248,0.644c-0.033,0.086-0.05,0.177-0.05,0.27v0.849l-0.379,0.126  c-0.092,0.031-0.177,0.079-0.251,0.142l-0.694,0.595c-0.103,0.088-0.18,0.203-0.223,0.332l-0.199,0.595  c-0.042,0.124-0.05,0.256-0.024,0.385l0.11,0.548l-0.442,0.359c-0.113,0.092-0.197,0.214-0.241,0.353l-0.446,1.389  c-0.03,0.093-0.042,0.19-0.034,0.287l0.149,1.934c0.004,0.06,0.016,0.119,0.035,0.176l1.14,3.472  c0.033,0.102,0.088,0.195,0.161,0.273l3.472,3.77c0.042,0.047,0.091,0.087,0.144,0.121l2.485,1.613v1.774  c0,0.133,0.035,0.263,0.102,0.378l0.347,0.595c0.122,0.209,0.338,0.347,0.58,0.369l3.127,0.284l0.707,0.367l-0.227,1.13l-1.09,3.082  l-0.397,1.487c-0.049,0.185-0.026,0.382,0.065,0.55l0.992,1.835c0.045,0.085,0.107,0.16,0.181,0.221l3.173,2.629  c0.102,0.085,0.225,0.141,0.355,0.163l1.978,0.329l0.971,2.236l0.821,1.396L33.62,59.97c-0.054,0.165-0.048,0.344,0.017,0.506  l0.746,1.885c0.028,0.07,0.066,0.136,0.114,0.195l0.842,1.041c0.144,0.178,0.359,0.278,0.583,0.278c0.046,0,0.092-0.004,0.138-0.013  l0.793-0.148c0.24-0.045,0.443-0.204,0.545-0.427l0.412-0.906l0.942-0.667l1.019-0.365l2.76,1.132  c0.18,0.073,0.382,0.074,0.562,0.003l0.248-0.099c0.285-0.114,0.473-0.39,0.473-0.697v-0.547c0-0.104-0.021-0.208-0.064-0.304  l-0.507-1.143l0.12-0.843l0.834-0.556l1.598-0.564c0.19-0.067,0.346-0.209,0.431-0.393s0.092-0.394,0.02-0.582l-0.472-1.208  l0.273-0.297c0.066-0.072,0.118-0.156,0.152-0.248l0.496-1.339c0.031-0.084,0.047-0.172,0.047-0.261l-0.003-1.924l0.179-2.192  l1.088-1.306c0.04-0.049,0.074-0.103,0.102-0.159l0.851-1.808l1.24-1.984c0.088-0.14,0.126-0.304,0.111-0.468L50.06,40.936z   M47.643,45.297l-0.852,1.798l-1.18,1.415c-0.099,0.119-0.159,0.266-0.171,0.42l-0.2,2.49v1.85l-0.397,1.074l-0.495,0.536  c-0.196,0.213-0.253,0.52-0.146,0.788l0.364,0.906l-0.959,0.339c-0.059,0.021-0.114,0.049-0.166,0.083l-1.191,0.793  c-0.178,0.118-0.297,0.307-0.326,0.519l-0.197,1.389c-0.021,0.139,0,0.281,0.057,0.409l0.242,0.547l-1.952-0.801  c-0.171-0.069-0.362-0.075-0.537-0.012l-1.387,0.496c-0.064,0.022-0.125,0.055-0.181,0.094l-1.191,0.844  c-0.108,0.077-0.194,0.181-0.249,0.302l-0.322,0.708l-0.471-0.582l-0.605-1.528l0.365-1.133c0.065-0.203,0.041-0.426-0.067-0.609  l-0.95-1.604l-1.091-2.529c-0.101-0.234-0.314-0.401-0.565-0.443l-2.181-0.363l-2.906-2.406l-0.781-1.445l0.303-1.142l1.09-3.076  c0.012-0.034,0.021-0.068,0.028-0.104l0.348-1.735c0.066-0.328-0.093-0.659-0.39-0.813l-1.339-0.694  c-0.086-0.045-0.181-0.072-0.277-0.081l-2.889-0.263l-0.05-2.064c0-0.254-0.128-0.491-0.342-0.629l-2.748-1.783l-3.298-3.581  l-1.061-3.231l-0.131-1.697l0.333-1.036l0.621-0.504c0.216-0.176,0.317-0.457,0.263-0.73l-0.16-0.796l0.07-0.209l0.425-0.365  l0.753-0.251c0.306-0.102,0.513-0.389,0.513-0.711v-1.25l0.122-0.316l0.873-0.665c0.177-0.134,0.285-0.34,0.295-0.562l0.099-2.132  c0.01-0.218-0.075-0.429-0.233-0.579l-0.856-0.812l-0.088-0.162l0.422-1.329l2.215-0.556l0.943-0.296  c0.087-0.027,0.169-0.071,0.241-0.127l1.19-0.943c0.121-0.096,0.209-0.227,0.253-0.375l0.381-1.287l0.821-1.787  c0.023-0.05,0.041-0.103,0.052-0.157l0.347-1.636c0.025-0.121,0.021-0.247-0.014-0.366l-0.347-1.19  c-0.041-0.138-0.119-0.261-0.228-0.355l-1.767-1.541L23.599,5.24c-0.027-0.093-0.071-0.18-0.131-0.256l-0.545-0.694  c-0.08-0.103-0.186-0.182-0.306-0.231l-0.108-0.044l4.778-0.001l8.671-0.499l7.109-0.805l0.143,1.949  c0.008,0.113,0.042,0.222,0.099,0.32l0.744,1.291c0.025,0.044,0.055,0.086,0.089,0.124l0.695,0.781l0.586,1.668l0.381,1.228  l0.086,0.396l0.446,5.761l0.692,7.572l0.547,7.856l0.338,3.479L47.53,37.67c-0.01,0.06-0.011,0.12-0.006,0.18l0.148,1.637  c0.01,0.105,0.041,0.208,0.094,0.301l0.814,1.447l0.209,2.218L47.643,45.297z"></path></svg>