<svg fill="#B36AE2" xmlns="http://www.w3.org/2000/svg" xmlns:xlink="http://www.w3.org/1999/xlink" version="1.1" x="0px" y="0px" viewBox="0 0 65 65" enable-background="new 0 0 65 65" xml:space="preserve"><path d="M48.672,44.681l-0.133-0.858c-0.021-0.132-0.075-0.255-0.159-0.358l-0.634-0.781l0.324-1.57  c0.017-0.078,0.02-0.158,0.011-0.237l-3.239-28.152L43.784,2.477c-0.043-0.41-0.395-0.713-0.819-0.669L30.817,2.996l-9.453,0.727  c-0.137,0.01-0.269,0.059-0.381,0.139l-1.717,1.243L18.01,6.24l-0.225,0.061l-0.708-0.472c-0.068-0.045-0.144-0.08-0.223-0.101  L14.871,5.2c-0.236-0.064-0.487-0.007-0.674,0.149c-0.187,0.156-0.286,0.394-0.266,0.637l1.653,19.889l0.597,8.35l0.453,4.601  l-0.515,3.411c-0.009,0.061-0.011,0.122-0.005,0.182l0.198,2.115c0.01,0.108,0.043,0.214,0.098,0.308l1.106,1.903l0.294,3.413  l-1.646,2.561c-0.019,0.029-0.036,0.06-0.05,0.091l-1.152,2.498l-1.465,1.848c-0.092,0.115-0.147,0.255-0.16,0.402l-0.267,3.17  v1.719c0,0.262,0.137,0.505,0.361,0.641c0.119,0.073,0.254,0.109,0.389,0.109c0.119,0,0.237-0.028,0.346-0.085l1.55-0.806  l3.609-0.636l2.522-0.286l0.799,0.899c0.063,0.071,0.14,0.13,0.225,0.173l0.793,0.396c0.18,0.09,0.388,0.103,0.578,0.039  c0.19-0.064,0.346-0.203,0.433-0.384l0.802-1.66l1.734-0.723l1.108,0.785l0.248,0.446c0.162,0.29,0.494,0.438,0.819,0.368  l0.595-0.133c0.361-0.081,0.609-0.412,0.585-0.78l-0.103-1.584l2.483-1.434l0.521,0.634c0.143,0.173,0.354,0.273,0.579,0.273h2.315  c0.317,0,0.601-0.2,0.707-0.499l0.329-0.926c0.035-0.101,0.049-0.207,0.04-0.313l-0.108-1.309l1.689-2.33l3.021-2.313  c0.164-0.126,0.269-0.313,0.29-0.519l0.269-2.581l1.523-0.19c0.079-0.01,0.155-0.032,0.228-0.065l2.38-1.123  c0.038-0.019,0.074-0.039,0.108-0.063l1.521-1.059C48.595,45.247,48.716,44.964,48.672,44.681z M46.033,45.202l-2.215,1.045  l-1.996,0.25c-0.347,0.043-0.617,0.319-0.653,0.667l-0.297,2.852l-2.852,2.184c-0.058,0.044-0.108,0.097-0.151,0.155l-1.917,2.645  c-0.105,0.146-0.155,0.324-0.14,0.503l0.118,1.425l-0.098,0.274h-1.432l-0.699-0.851c-0.234-0.283-0.636-0.357-0.955-0.173  l-3.438,1.983c-0.247,0.143-0.392,0.413-0.374,0.698l0.044,0.682l-1.242-0.88c-0.211-0.148-0.484-0.18-0.722-0.08l-2.38,0.991  c-0.169,0.07-0.307,0.201-0.387,0.366l-0.592,1.226l-0.949-1.067c-0.162-0.183-0.402-0.274-0.645-0.247l-2.954,0.337l-3.768,0.662  c-0.075,0.013-0.148,0.037-0.216,0.073l-0.559,0.29l-0.001-0.421l0.245-2.881l1.381-1.741c0.037-0.047,0.068-0.098,0.093-0.151  l1.168-2.532l1.756-2.731c0.09-0.139,0.13-0.305,0.116-0.47l-0.33-3.835c-0.009-0.11-0.043-0.217-0.099-0.313L17.79,44.23  l-0.174-1.859l0.515-3.413c0.009-0.062,0.011-0.124,0.005-0.186l-0.46-4.674l-0.596-8.338L15.514,6.923l0.835,0.223l0.889,0.592  c0.181,0.121,0.403,0.157,0.613,0.1l0.727-0.198c0.114-0.031,0.218-0.088,0.306-0.167l1.324-1.204l1.482-1.067l9.259-0.711  l11.42-1.117l0.982,9.513l3.227,28.041l-0.372,1.801c-0.046,0.22,0.01,0.449,0.152,0.624l0.73,0.9l0.03,0.195L46.033,45.202z"></path></svg>