<svg fill="#B36AE2" xmlns="http://www.w3.org/2000/svg" xmlns:xlink="http://www.w3.org/1999/xlink" version="1.1" x="0px" y="0px" viewBox="0 0 65 65" enable-background="new 0 0 65 65" xml:space="preserve"><path d="M61.157,23.854c0.109,0,0.217-0.024,0.315-0.07c0.087-0.04,2.13-1.007,2.446-2.859c0.113-0.665-0.07-1.305-0.533-1.854  c-1.311-1.554-4.654-2.071-5.721-2.082c-0.002,0-0.003-0.001-0.005-0.001L3.854,14.222c-0.403-0.018-0.712,0.263-0.769,0.637  c-0.004,0.023-0.017,0.042-0.018,0.066l0,0.007l0,0l0,0L1.05,47.838l0,0.001v0.001v0.003c-0.002,0.038,0.012,0.071,0.015,0.108  c0.005,0.063,0.005,0.127,0.025,0.185c0.016,0.045,0.046,0.08,0.07,0.12c0.025,0.043,0.042,0.091,0.075,0.128  c0.044,0.051,0.103,0.086,0.159,0.123c0.024,0.016,0.042,0.039,0.067,0.052c0.083,0.042,0.175,0.066,0.273,0.074  c0.005,0.001,0.009,0.004,0.014,0.004c0,0,0,0,0,0c0.001,0,0.002,0.001,0.003,0.001c0.006,0,0.012,0,0.018,0  c20.148,1.345,40.604,2.063,60.8,2.14c0.003,0,0.005,0.002,0.008,0.002s0.005-0.001,0.007-0.001c0.02,0,0.038,0,0.058,0  c0.001,0,0.002,0,0.003,0c0.413,0,0.748-0.334,0.75-0.747c0-0.109-0.025-0.213-0.067-0.307V29.298c0-0.002,0.001-0.003,0.001-0.005  c0-0.414-0.336-0.75-0.75-0.75c-2.139,0-3.945-1.074-3.945-2.345c0-0.085-0.022-0.163-0.049-0.239  C58.72,24.78,59.814,23.854,61.157,23.854z M61.827,29.992v19.281c-19.682-0.091-39.601-0.791-59.235-2.085l1.926-31.429  l53.065,2.728c0.013,0,0.024,0.001,0.038,0.001l0,0c0.96,0,3.768,0.544,4.617,1.552c0.229,0.271,0.228,0.481,0.201,0.634  c-0.138,0.805-1.016,1.436-1.471,1.686c-2.174,0.092-3.912,1.78-3.912,3.841c0,0.149,0.055,0.281,0.13,0.398  C57.44,28.379,59.331,29.756,61.827,29.992z"></path></svg>