<svg fill="#B36AE2" xmlns="http://www.w3.org/2000/svg" xmlns:xlink="http://www.w3.org/1999/xlink" version="1.1" x="0px" y="0px" viewBox="0 0 65 65" enable-background="new 0 0 65 65" xml:space="preserve"><path d="M63.604,30.977l-1.527-0.925l-1.114-1.201l-1.365-1.728L59.39,26.21c-0.048-0.211-0.186-0.391-0.376-0.494l-1.056-0.568  l-0.27-0.568l-0.093-2.832c-0.008-0.224-0.115-0.433-0.292-0.569l-1.355-1.035l-0.644-0.373l-0.176-0.804  c-0.085-0.387-0.451-0.639-0.847-0.581l-0.637,0.098c-0.096,0.015-0.188,0.048-0.271,0.098l-0.979,0.588  c-0.062,0.037-0.116,0.082-0.165,0.134l-0.724,0.781l-0.381-0.341c-0.1-0.09-0.222-0.15-0.354-0.177l-1.225-0.245  c-0.178-0.037-0.366-0.005-0.524,0.087l-1.001,0.583h-0.59l-0.658-0.731c-0.14-0.155-0.336-0.245-0.544-0.249l-2.245-0.04  l-0.696-1.741c-0.066-0.167-0.191-0.305-0.352-0.388l-1.421-0.735c-0.189-0.099-0.412-0.111-0.612-0.035l-0.916,0.349l-1.938,0.092  c-0.334,0.016-0.617,0.25-0.694,0.575L37.11,18.12c-0.054,0.225-0.001,0.462,0.144,0.643l0.46,0.575l0.054,0.375l-0.947,0.676  l-1.701,0.806l-1.166,0.18c-0.335,0.052-0.594,0.321-0.631,0.658l-0.208,1.878l-2.135,1.568c-0.066,0.048-0.123,0.107-0.17,0.173  l-1.274,1.813c-0.102,0.146-0.149,0.322-0.133,0.499l0.082,0.901l-0.185,0.473l-1.38-0.031l-0.424-0.424  c-0.238-0.238-0.605-0.287-0.898-0.123l-1.91,1.077c-0.25,0.141-0.398,0.412-0.38,0.699l0.06,0.995l-0.02,0.005l-0.11-0.192  c-0.054-0.095-0.129-0.177-0.218-0.24l-0.833-0.588c-0.209-0.148-0.48-0.178-0.715-0.082l-1.323,0.539  c-0.166,0.068-0.302,0.192-0.384,0.352l-0.555,1.079l-0.28-0.127l-0.579-0.662c-0.161-0.185-0.403-0.277-0.645-0.252l-1.864,0.204  l-2.744,0.49c-0.063,0.011-0.125,0.031-0.184,0.058L12.54,32.75c-0.183,0.085-0.324,0.24-0.391,0.431l-0.531,1.505l-0.37,0.369  c-0.213,0.213-0.278,0.532-0.165,0.812l0.435,1.072l-1.299,0.435c-0.074,0.024-0.145,0.061-0.208,0.107L9.08,38.167  c-0.154,0.113-0.259,0.281-0.293,0.47l-0.196,1.078c-0.029,0.159-0.005,0.324,0.067,0.469l0.509,1.018V41.5l-2.738-1.121  c-0.178-0.073-0.377-0.073-0.557-0.004l-1.126,0.44c-0.056,0.021-0.108,0.05-0.157,0.084l-0.979,0.686  c-0.111,0.078-0.2,0.185-0.255,0.31l-0.392,0.882c-0.107,0.242-0.08,0.522,0.074,0.738l0.573,0.809l-0.24,0.48  c-0.048,0.097-0.076,0.203-0.079,0.313l-0.036,1.185l-0.797,0.433c-0.041,0.021-0.079,0.047-0.114,0.076l-1.028,0.832  c-0.249,0.201-0.343,0.539-0.233,0.84c0.108,0.296,0.39,0.493,0.705,0.493c0.004,0,0.009,0,0.014,0l5.465-0.099l6.173-0.343  c0.391-0.021,0.699-0.34,0.708-0.73l0.031-1.279l1.453-0.003l14.885-1.565l22.093-2.106c0.119-0.012,0.233-0.052,0.334-0.116  l2.693-1.734l1.91-1.028c0.23-0.124,0.38-0.359,0.394-0.621l0.036-0.698l2.755-3.578l2.022-1.785l1.028-1.175  c0.146-0.167,0.211-0.39,0.177-0.608C63.922,31.285,63.793,31.092,63.604,30.977z M61.691,32.23l-2.009,1.764  c-0.036,0.032-0.069,0.067-0.1,0.106l-2.94,3.82c-0.093,0.12-0.146,0.266-0.154,0.418l-0.026,0.511l-1.589,0.857l-2.591,1.665  l-21.918,2.09L15.55,45.024h-2.106c-0.407,0-0.74,0.325-0.75,0.731l-0.032,1.318l-5.454,0.303L4.32,47.429l0.027-0.015  c0.235-0.127,0.384-0.369,0.392-0.637l0.044-1.451l0.367-0.734c0.124-0.247,0.101-0.543-0.059-0.769l-0.586-0.827l0.134-0.302  l0.735-0.515l0.764-0.299l2.71,1.11c0.148,0.061,0.311,0.074,0.464,0.033l0.784-0.194c0.335-0.082,0.57-0.383,0.57-0.728v-1.078  c0-0.116-0.027-0.231-0.079-0.335l-0.476-0.953l0.098-0.538l0.596-0.439l1.944-0.649c0.197-0.065,0.357-0.209,0.444-0.397  c0.087-0.188,0.092-0.403,0.014-0.595l-0.548-1.353l0.138-0.138c0.079-0.079,0.14-0.175,0.177-0.28l0.483-1.369l0.997-0.463  l2.597-0.465l1.424-0.154l0.429,0.49c0.07,0.081,0.157,0.145,0.254,0.189l1.078,0.489c0.365,0.166,0.794,0.016,0.977-0.34  l0.755-1.467l0.686-0.279l0.362,0.256l0.31,0.541c0.167,0.291,0.504,0.435,0.833,0.355l1.175-0.293  c0.351-0.087,0.589-0.412,0.567-0.773l-0.069-1.148l1.006-0.567l0.234,0.234c0.137,0.136,0.32,0.215,0.514,0.219l2.205,0.049  c0.315-0.004,0.601-0.183,0.715-0.477l0.441-1.126c0.042-0.108,0.059-0.226,0.049-0.341l-0.073-0.803l1.045-1.487l2.301-1.69  c0.169-0.124,0.278-0.313,0.301-0.521l0.182-1.634l0.707-0.109c0.071-0.011,0.142-0.032,0.207-0.063l1.86-0.881  c0.04-0.019,0.078-0.042,0.114-0.067l1.372-0.98c0.229-0.163,0.347-0.439,0.307-0.716l-0.146-1.029  c-0.019-0.132-0.072-0.258-0.156-0.363l-0.359-0.449l0.029-0.124l1.494-0.071c0.08-0.003,0.158-0.02,0.232-0.048l0.714-0.272  l0.875,0.452l0.777,1.945c0.112,0.28,0.381,0.466,0.683,0.472l2.417,0.043l0.664,0.737c0.143,0.158,0.345,0.249,0.558,0.249h1.127  c0.133,0,0.263-0.035,0.378-0.102l0.93-0.542l0.745,0.149l0.778,0.696c0.303,0.272,0.77,0.252,1.051-0.049l1.151-1.244l0.574-0.344  l0.078,0.357c0.045,0.206,0.174,0.383,0.356,0.489l0.848,0.484l0.993,0.765l0.087,2.634c0.004,0.103,0.028,0.204,0.072,0.296  l0.441,0.932c0.068,0.145,0.182,0.263,0.322,0.339l0.973,0.523l0.169,0.746c0.024,0.109,0.073,0.21,0.143,0.298l1.508,1.906  l1.225,1.323c0.048,0.051,0.103,0.096,0.162,0.132l0.856,0.519L61.691,32.23z"></path></svg>