<svg fill="#FFFFFF" xmlns="http://www.w3.org/2000/svg" xmlns:xlink="http://www.w3.org/1999/xlink" version="1.1" x="0px" y="0px" viewBox="0 0 100 100" style="enable-background:new 0 0 100 100;" xml:space="preserve"><path d="M5,26.84672c0,15.43552,0,30.87103,0,46.30655h89.80045c0.01566-10.8324,0.0313-21.6648,0.04695-32.49721  c0.05087-0.39911,0.10174-0.79823,0.1526-1.19734c-0.61432,0.13303-1.22864,0.26608-1.84296,0.39911  c-0.25826-0.33651-0.5165-0.67302-0.77476-1.00952c-0.39911-0.35216-0.79822-0.70432-1.19733-1.05647  c0.10956-0.42259,0.21912-0.84518,0.32867-1.26777c-0.26215,0-0.52432,0-0.78648,0c-0.68867-0.79823-1.37733-1.59645-2.066-2.39468  c0-0.19564,0-0.39128,0-0.58693c0.26608-0.03913,0.53215-0.07825,0.79823-0.11739c0.08217-0.46563,0.16434-0.93126,0.24651-1.3969  c0.24259-0.08608,0.4852-0.17216,0.72779-0.25825c0.01565-0.28172,0.0313-0.56345,0.04695-0.84518  c0.22695,0.09,0.4539,0.17999,0.68085,0.26999c0.10173-0.08217,0.20347-0.16434,0.3052-0.24651  c-0.01956-0.39911-0.03912-0.79823-0.05869-1.19734c-0.24651-0.4265-0.49302-0.85301-0.73952-1.27951  c-0.24261-0.01565-0.4852-0.0313-0.7278-0.04695c-0.20738,0.16825-0.41477,0.33651-0.62215,0.50476  c-0.30521-0.00783-0.6104-0.01565-0.91561-0.02348c-0.0313-0.16825-0.06261-0.33651-0.09391-0.50476  c-0.73729-0.51807-1.47459-1.03615-2.21188-1.55422H5z"></path></svg>