<svg fill="#B36AE2" xmlns="http://www.w3.org/2000/svg" viewBox="0 0 96 88" x="0px" y="0px"><path fill-rule="evenodd" d="M5.62165758,29.5287286 L0.570368556,24.2693271 C0.391494258,24.0830832 0.291600787,23.8348639 0.291600787,23.5766337 L0.291600787,1.01597433 C0.291600787,0.461721595 0.742391777,0.0131954137 1.29663749,0.0159870172 L54.1317496,0.282104883 C54.3878191,0.283394644 54.6336367,0.38286947 54.8185379,0.560027059 L56.6936348,2.35659494 C57.02588,2.67492568 57.0980195,3.17888746 56.8684215,3.57764312 L55.452202,6.03727077 L56.5714895,6.81310875 C56.9489465,7.07474433 57.0996636,7.55984939 56.9369255,7.98931795 L56.2055616,9.91939979 L58.3574294,12.5172977 C58.4221716,12.5954594 58.4746376,12.6830216 58.5130244,12.7769751 L59.8617463,16.0780347 C60.0581368,16.5587095 59.8539625,17.1097239 59.3917749,17.3463674 L57.0001167,18.5709144 L57.4503694,18.6774463 C58.1838368,18.850988 58.4689588,19.7427602 57.9722195,20.30963 L55.808269,22.7789782 L51.835742,27.2023831 L50.8326396,32.799417 C50.7002,33.5383938 49.8358876,33.8674539 49.2473416,33.4223746 L49.2473416,36.4096505 C49.2473416,36.9024688 48.8977193,37.293027 48.4571281,37.3880978 L48.7291795,37.8252659 C49.1437056,38.4913809 48.6647183,39.3536179 47.8801541,39.3536179 L46.947502,39.3536179 L46.947502,43.1564759 L80.7660879,43.1564759 C81.4613637,43.1564759 81.9444457,43.8484478 81.7048194,44.5011251 L79.2122914,51.2900981 L80.0553237,54.2441896 L82.0695076,55.87324 C82.2422923,56.0129864 82.3636061,56.206305 82.4142938,56.4226712 L83.9243889,62.8686777 C84.0947134,63.5957265 83.4370092,64.2461886 82.7118907,64.0678248 L77.9224252,62.8897178 C77.8142206,62.8631017 77.7112255,62.8185879 77.6176965,62.758016 L72.1075492,59.1894951 L68.8297316,61.9487546 L71.1378311,64.0536263 L76.4912729,64.0536263 C76.7593779,64.0536263 77.0162542,64.1612839 77.2042469,64.3524358 L80.6671643,67.8735467 L83.9655103,63.5136291 C84.3336462,63.0270088 85.047991,62.9806799 85.4758982,63.4156727 L90.6731677,68.6990018 C91.096815,69.129664 91.0447988,69.8347475 90.5625393,70.1985782 L85.3652698,74.1195508 C85.1917689,74.250445 84.9803473,74.3212513 84.7630092,74.3212513 L85.5096615,75.9180329 L90.5439875,79.1767569 L95.3278067,82.6157767 C95.8775045,83.0109466 95.8839103,83.8266819 95.3404863,84.2304359 L90.556667,87.7847249 C90.1903953,88.0568581 89.6863603,88.0465382 89.3315344,87.759641 L81.8626728,81.7206349 L78.482035,81.7206349 L72.6114956,85.9184767 C72.2143146,86.2024886 71.6701015,86.1581388 71.324146,85.813566 L69.6799265,84.1738045 L67.2106943,81.9699791 L63.7610138,84.1605604 L62.1031422,86.6079991 C61.822439,87.0223881 61.2786048,87.1654254 60.8303472,86.9427649 L55.6081766,84.3470074 L50.1407985,82.00586 C49.4371244,81.7045447 49.31908,80.7566398 49.9273613,80.2919442 L51.9482716,78.7480729 L47.9671134,77.5858748 C47.7217637,77.5142512 47.5131515,77.3514008 47.3841221,77.1307702 L45.5143434,73.9335887 L43.9007492,72.2926463 L40.7841879,70.5082131 L37.6317817,71.768449 L38.4664893,72.4069664 L43.4247365,73.7415756 C43.8613779,73.8591061 44.1648182,74.2550236 44.1648182,74.7072062 L44.1648182,76.6259414 C44.1648182,77.2955437 43.5195499,77.7759556 42.8780674,77.5839466 L36.7504937,75.7498371 L31.6965319,77.2201745 C31.484458,77.2818726 31.2579245,77.2716251 31.0522873,77.1910312 L18.9835068,72.4610015 L12.8412025,71.386498 L5.19588581,73.1982455 C4.80457847,73.2909755 4.3957932,73.1402819 4.15830294,72.8157535 L2.79774212,70.956559 C2.40553248,70.420608 2.63510036,69.6582723 3.25804216,69.4280214 L5.1512526,68.7282557 L4.85452651,65.5114359 C4.8326751,65.2745438 4.89599312,65.0376213 5.03311019,64.8432139 L7.14850944,61.8439574 L5.33368053,58.4156243 C5.20646287,58.1753017 5.18259645,57.8935351 5.26757963,57.6352384 L6.32644649,54.4290049 L9.36018493,47.3474725 L9.36018493,38.6051775 L7.07137019,34.3438147 L5.62165758,29.5287286 Z M35.0186048,72.28754 C34.4022719,71.8160704 34.5344363,70.8527786 35.2549758,70.5647288 L40.490494,68.4717282 C40.773958,68.3584079 41.0936583,68.3807744 41.3585822,68.5324605 L45.0140649,70.6254612 C45.0933914,70.6708808 45.1661158,70.7269623 45.2302064,70.7921392 L47.027713,72.6201111 C47.0663737,72.6594271 47.6936806,73.711904 48.9096337,75.7775418 L54.406941,77.3823412 C55.1939491,77.6120882 55.3852809,78.639212 54.7337831,79.1369227 L52.5020901,80.8418212 L56.4466749,82.5321422 L60.9374017,84.7627956 L62.2216579,82.866908 C62.2985067,82.7534598 62.397851,82.6570157 62.5135258,82.5835611 L66.7766164,79.8764562 C67.1541305,79.636731 67.644914,79.6767937 67.9785517,79.9745702 L71.0514895,82.7192186 L72.1362198,83.7996135 L77.5796238,79.907203 C77.7493058,79.7858686 77.9526839,79.7206349 78.1612839,79.7206349 L82.2163745,79.7206349 C82.4452287,79.7206349 82.6671589,79.799132 82.8451188,79.9430228 L89.9861799,85.7169833 L93.0496635,83.4408717 L89.4170457,80.828302 L84.2197762,77.4655234 C84.0805601,77.3754467 83.965928,77.2521654 83.886198,77.1067761 L82.0739382,73.802086 C81.7084765,73.1356596 82.1906926,72.3212513 82.9507495,72.3212513 L84.4292507,72.3203859 L88.447771,69.2886962 L84.8620183,65.6435684 L81.5635868,70.003599 C81.1954215,70.4902582 80.4810028,70.5365485 80.053114,70.1014692 L76.07217,66.0536263 L70.7503255,66.0536263 C70.5010202,66.0536263 70.2607055,65.960503 70.0764969,65.7925139 L66.6388496,62.6575511 C66.1922296,62.250256 66.2062602,61.5429004 66.6686802,61.1536364 L71.3858374,57.1827439 C71.7222876,56.8995209 72.2042854,56.8693549 72.573423,57.1084185 L78.5635911,60.987814 L81.6048671,61.7359035 L80.5452191,57.2126793 L78.5516675,55.6003162 C78.3916094,55.4708629 78.2754028,55.2951673 78.2189113,55.0972141 L77.1996746,51.52568 C77.1415784,51.3221036 77.1495888,51.1053418 77.2225524,50.9066087 L79.333677,45.1564759 L45.947502,45.1564759 C45.3952173,45.1564759 44.947502,44.7087606 44.947502,44.1564759 L44.947502,38.3536179 C44.947502,37.8013331 45.3952173,37.3536179 45.947502,37.3536179 L45.4656641,36.3663754 C44.9798149,35.5856491 45.7165228,34.6182777 46.5983168,34.8790889 L47.2473416,35.0710531 L47.2473416,31.2751731 C47.2473416,30.4249823 48.240984,29.9626244 48.8913766,30.5101771 L49.1691421,30.7440223 L49.9173022,26.5694955 C49.9501137,26.3864166 50.0333343,26.2161165 50.1576113,26.0777341 L54.3121636,21.4517555 L55.3729984,20.2411501 L53.8964653,19.8917955 C52.9915158,19.6776803 52.8432239,18.4523642 53.6709693,18.0285523 L57.6630666,15.9845685 L56.71951,13.6751699 L54.2941413,10.7470809 C54.064696,10.4700771 54.0016925,10.0911903 54.1291456,9.75483943 L54.7897256,8.01155747 L53.5570331,7.15711246 C53.1297631,6.86094882 53.0006911,6.28679452 53.2601011,5.83626265 L54.7442406,3.25867454 L53.7228616,2.28007078 L2.29160079,2.02102378 L2.29160079,23.1741934 L7.23250533,28.3186626 C7.34314981,28.4338656 7.42458785,28.5738973 7.47000252,28.7270359 L8.88188066,33.4879 L11.2411531,37.8804423 C11.3192904,38.02592 11.3601849,38.1884839 11.3601849,38.3536179 L11.3601849,47.5526554 C11.3601849,47.6880338 11.3326968,47.8220026 11.2793865,47.9464426 L8.19555513,55.1353247 L7.30040035,57.8560452 L9.20333196,61.4508102 C9.37952941,61.7836589 9.35378048,62.1872731 9.1367148,62.4950333 L6.87992671,65.6947538 L7.21325933,69.3084265 C7.25482313,69.7590214 6.98862333,70.181375 6.56418084,70.3382568 L5.19417073,70.844638 L5.3804072,71.0991285 L12.580245,69.3929483 C12.7123412,69.3616449 12.8494279,69.3575653 12.9831518,69.3809583 L19.4271467,70.5082379 L31.464926,75.2046351 L36.4751725,73.7470157 C36.6089534,73.7080951 36.7488056,73.697721 36.8857876,73.7158588 L35.0186048,72.28754 Z"></path></svg>