<svg fill="#B36AE2" xmlns="http://www.w3.org/2000/svg" xmlns:xlink="http://www.w3.org/1999/xlink" version="1.1" x="0px" y="0px" viewBox="0 0 65 65" enable-background="new 0 0 65 65" xml:space="preserve"><path d="M52.597,29.691l-1.423-2.29c-0.023-0.038-0.051-0.074-0.081-0.107l-1.177-1.299c-0.174-0.192-0.434-0.281-0.688-0.235  l-1.729,0.31c-0.228,0.041-0.424,0.184-0.531,0.389c-0.014,0.024-0.025,0.05-0.035,0.075L46.26,26l-0.109-2.626  c-0.003-0.089-0.023-0.177-0.058-0.26l-0.495-1.176c-0.117-0.278-0.39-0.459-0.691-0.459h-3.155L36.28,3.509  c-0.059-0.192-0.191-0.352-0.368-0.445l-1.245-0.651l-3.714-1.485c-0.057-0.023-0.118-0.039-0.179-0.047l-0.928-0.124  c-0.23-0.031-0.464,0.048-0.63,0.213l-1.072,1.072l-2.427,1.759c-0.194,0.141-0.31,0.367-0.31,0.607v0.29l-0.927-0.206L23.938,3.53  V3.046c0-0.371-0.271-0.686-0.637-0.741l-0.804-0.123c-0.037-0.006-0.075-0.009-0.113-0.009h-0.805  c-0.284,0-0.544,0.161-0.671,0.415l-1.299,2.6c-0.017,0.033-0.031,0.068-0.042,0.103l-1.784,5.476l-1.114,2.969  c-0.035,0.094-0.051,0.195-0.047,0.295l0.131,3.039l0.103,0.769l-0.409,1.377l-0.403,0.504c-0.106,0.133-0.164,0.298-0.164,0.468  v3.712c0,0.169,0.057,0.333,0.162,0.465l0.912,1.153l-0.76,2.027l-1.582,2.86c-0.044,0.079-0.073,0.166-0.086,0.255l-0.495,3.403  c-0.005,0.036-0.008,0.072-0.008,0.108v0.632c-0.09-0.022-0.184-0.028-0.275-0.015l-0.806,0.105  c-0.22,0.028-0.416,0.152-0.535,0.339s-0.15,0.417-0.084,0.628l7.215,23.08l0.117,1.464c0.025,0.314,0.244,0.58,0.548,0.663  l2.011,0.554l0.232,1.44c0.042,0.258,0.214,0.476,0.456,0.575l1.361,0.558c0.091,0.037,0.188,0.056,0.284,0.056  c0.125,0,0.25-0.031,0.362-0.094c0.199-0.109,0.337-0.304,0.376-0.527l0.692-3.993l0.109-2.401l0.684-0.594  c0.226-0.195,0.313-0.505,0.225-0.79l-0.494-1.583l1.136-1.319l0.419,0.393c0.21,0.197,0.514,0.254,0.782,0.153l0.805-0.31  c0.038-0.015,0.074-0.032,0.109-0.053l3.279-1.915c0.207-0.12,0.343-0.332,0.368-0.57l0.127-1.231l1.232-0.211  c0.213-0.036,0.399-0.162,0.513-0.346l0.99-1.608c0.09-0.146,0.127-0.316,0.105-0.486l-0.033-0.306l0.569,0.917  c0.142,0.228,0.387,0.354,0.639,0.354c0.118,0,0.238-0.028,0.35-0.087l1.054-0.558c0.306-0.162,0.461-0.511,0.377-0.846  l-0.273-1.092l0.395,0.041c0.386,0.044,0.744-0.225,0.815-0.609l0.274-1.479l0.184-0.222c0.017-0.02,0.021-0.044,0.035-0.064  l0.39,0.412c0.128,0.135,0.303,0.218,0.488,0.232c0,0,0.152,0.012,0.335,0.012c0.001,0,0.001,0,0.001,0  c0.162,0,0.347-0.011,0.489-0.038c0.58-0.11,0.786-0.524,0.786-0.842c0.003-0.133,0.052-0.575,0.087-0.871l0.343-0.307  c0.227-0.201,0.3-0.517,0.203-0.8h0.537c0.217,0,0.423-0.094,0.565-0.257l2.908-3.343l1.982-1.806l1.019-0.322  c0.205-0.064,0.372-0.213,0.459-0.409l1.298-2.909c0.043-0.096,0.065-0.2,0.065-0.306v-1.175  C52.71,29.947,52.671,29.81,52.597,29.691z M36.827,43.727l-0.708,0.708l-0.033-0.31l0.363-0.587  c0.095-0.152,0.131-0.334,0.104-0.509l0.028,0.049c0.158,0.283,0.48,0.435,0.802,0.368l0.213-0.043v0.146  C37.333,43.461,37.033,43.521,36.827,43.727z M37.381,45.295l0.036-0.037l0.143,0.112l0.09,0.358L37.381,45.295z M39.096,42.635  l-0.062,0.331l-0.139-0.609c-0.012-0.05-0.028-0.098-0.049-0.143l0.292,0.273C39.119,42.534,39.105,42.584,39.096,42.635z   M42.119,40.789c-0.137,0.121-0.224,0.289-0.246,0.471c-0.017,0.141-0.037,0.316-0.057,0.495l-0.295-0.312l0.414-0.649l0.293-0.103  L42.119,40.789z M51.21,31.102l-1.096,2.456l-0.854,0.27c-0.104,0.032-0.199,0.087-0.279,0.16l-2.165,1.979l-2.744,3.147h-0.153  c-0.069-0.177-0.147-0.45-0.194-0.69c-0.074-0.385-0.434-0.644-0.819-0.604l-1.111,0.124c-0.22,0.024-0.417,0.145-0.54,0.328  l-0.532,0.794l-1.349,0.843c-0.09,0.056-0.168,0.131-0.227,0.22l-0.618,0.928c-0.164,0.246-0.165,0.559-0.02,0.802  c-0.146-0.075-0.32-0.102-0.493-0.069l-0.395,0.08l-0.848-1.507c-0.1-0.179-0.269-0.308-0.466-0.359  c-0.202-0.051-0.409-0.019-0.582,0.089l-1.3,0.805c-0.188,0.115-0.313,0.308-0.347,0.524c-0.033,0.218,0.03,0.438,0.175,0.604  l0.692,0.799l0.056,0.203l-0.324,0.524c-0.087,0.14-0.125,0.304-0.108,0.467l0.188,1.94l0.091,0.729l-0.675,1.096l-1.459,0.249  c-0.332,0.057-0.585,0.327-0.62,0.662l-0.146,1.419l-2.898,1.693l-0.31,0.118l-0.647-0.605c-0.148-0.14-0.348-0.214-0.553-0.202  c-0.204,0.011-0.395,0.104-0.528,0.26l-1.918,2.228c-0.169,0.196-0.225,0.466-0.147,0.713l0.472,1.512l-0.557,0.483  c-0.156,0.135-0.249,0.327-0.258,0.532l-0.113,2.628l-0.521,2.98l-0.11-0.045l-0.242-1.501c-0.046-0.29-0.258-0.526-0.541-0.604  l-1.969-0.543l-0.082-1.023c-0.004-0.056-0.015-0.11-0.032-0.164l-6.943-22.211l0.528,0.141c0.224,0.058,0.465,0.011,0.65-0.13  c0.185-0.142,0.293-0.361,0.293-0.595v-1.553l0.468-3.215l1.542-2.789c0.018-0.032,0.033-0.065,0.046-0.1l0.928-2.476  c0.092-0.246,0.049-0.522-0.114-0.729l-1.013-1.281v-3.188l0.33-0.413c0.061-0.076,0.105-0.162,0.133-0.255l0.496-1.672  c0.03-0.102,0.038-0.208,0.024-0.313l-0.118-0.86l-0.119-2.818l1.071-2.857l1.778-5.454l1.067-2.135l0.395,0.017v0.038  c0,0.129,0.033,0.256,0.097,0.369l0.805,1.424c0.104,0.185,0.283,0.317,0.49,0.363L25.5,6.254c0.25,0.056,0.512-0.021,0.693-0.202  l0.495-0.496c0.141-0.141,0.219-0.331,0.219-0.53V4.791l2.165-1.569c0.032-0.023,0.062-0.049,0.09-0.077l0.852-0.852l0.468,0.063  l3.556,1.418l0.897,0.472l5.541,18.202c0.097,0.316,0.388,0.532,0.718,0.532h3.213l0.249,0.592l0.118,2.834  c0.009,0.218,0.112,0.421,0.283,0.557l1.795,1.423c0.133,0.105,0.297,0.162,0.466,0.162h0.495c0.308,0,0.583-0.188,0.697-0.473  l0.123-0.31c0.049-0.123,0.063-0.254,0.045-0.382l0.404-0.072l0.852,0.941l1.274,2.05V31.102z"></path></svg>