<svg fill="#B36AE2" xmlns="http://www.w3.org/2000/svg" xmlns:xlink="http://www.w3.org/1999/xlink" version="1.1" x="0px" y="0px" viewBox="0 0 65 65" enable-background="new 0 0 65 65" xml:space="preserve"><path d="M63.125,35.93c-0.172-0.161-0.411-0.229-0.641-0.191l-4.684,0.822l-3.763,0.195L51.3,24.644  c-0.01-0.042-0.022-0.084-0.039-0.124l-1.722-4.109l-1.137-3.484c-0.118-0.361-0.489-0.575-0.855-0.504l-16.824,3.259L2.238,25.438  c-0.403,0.082-0.666,0.473-0.588,0.877l1.515,7.88c0.052,0.274,0.253,0.496,0.52,0.576c0.267,0.081,0.557,0.007,0.752-0.193  l3.497-3.568l1.7-0.476c0.132-0.037,0.252-0.11,0.346-0.21l1.061-1.136c0.028-0.03,0.053-0.062,0.076-0.096l1.016-1.523l0.636,0.278  c0.112,0.049,0.232,0.068,0.358,0.061l1.969-0.151c0.151-0.011,0.295-0.069,0.414-0.164l1.95-1.575l1.404-1.054l1.104-0.315  l0.84,0.616c0.031,0.022,0.063,0.043,0.098,0.061l1.952,1.013l1.329,1.256l0.985,1.061c0.085,0.092,0.193,0.162,0.312,0.201  l3.003,1.001l-0.32,1.544c-0.076,0.365,0.128,0.73,0.479,0.857l4.396,1.591c0.3,0.109,0.637,0.016,0.839-0.234l1.157-1.433  l1.627,1.099l-1.199,1.886c-0.048,0.075-0.082,0.159-0.101,0.247l-0.498,2.353l-1.278,1.846c-0.087,0.125-0.134,0.274-0.134,0.427  v1.591c0,0.09,0.016,0.18,0.048,0.264l0.228,0.605c0.057,0.15,0.159,0.278,0.294,0.365l1.516,0.984  c0.055,0.036,0.114,0.064,0.177,0.085l2.575,0.835c0.081,0.024,0.16,0.032,0.249,0.036l3.131-0.074l2.227,0.719  c0.041,0.013,0.082,0.022,0.124,0.028l1.592,0.228c0.334,0.047,0.643-0.123,0.784-0.42l0.757-1.591  c0.116-0.246,0.091-0.536-0.067-0.758l-0.996-1.396v-0.86l1.306,1.707c0.122,0.158,0.302,0.263,0.5,0.288l1.376,0.176  c-0.08,0.189-0.08,0.404,0.004,0.595l0.786,1.79l0.14,1.248c0.012,0.104,0.044,0.202,0.096,0.292l0.832,1.44  c0.116,0.202,0.32,0.338,0.552,0.368c0.032,0.005,0.065,0.007,0.098,0.007c0.197,0,0.389-0.078,0.53-0.22  c0.902-0.902,0.902-1.252,0.902-1.439c0-0.096,0-0.32-0.563-2.567l-0.396-1.298l1.732,2.274c0.082,0.107,0.191,0.19,0.317,0.241  l0.757,0.304c0.179,0.071,0.375,0.071,0.553,0.002l5.606-2.197c0.184-0.071,0.331-0.213,0.411-0.392l1.288-2.879  c0.032-0.073,0.053-0.15,0.062-0.229l0.379-3.636C63.384,36.321,63.297,36.09,63.125,35.93z M16.537,24.833l-1.79,1.445  l-1.549,0.119l-1.041-0.455c-0.335-0.146-0.723-0.032-0.925,0.271l-1.33,1.995l-0.875,0.938l-1.691,0.474  c-0.126,0.035-0.242,0.104-0.333,0.197l-2.635,2.689l-1.104-5.745l14.646-2.959L16.537,24.833z M61.501,39.916l-1.114,2.49  l-5.044,1.977l-0.288-0.116l-2.3-3.018c-0.22-0.287-0.612-0.378-0.932-0.216l-1.007,0.503l-2.419-0.31l-1.603-2.096l0.174-1.969  l0.966-0.785c0.158-0.129,0.258-0.317,0.274-0.521c0.016-0.204-0.052-0.405-0.188-0.559l-1.211-1.363  c-0.16-0.181-0.398-0.278-0.636-0.248c-0.226,0.022-0.429,0.146-0.552,0.335l-0.022-0.271l1.123-0.535  c0.283-0.135,0.453-0.433,0.425-0.745l-0.379-4.166c-0.031-0.34-0.287-0.616-0.624-0.672l-0.89-0.148l-0.039-0.145l0.855-2.434  l1.027-1.096c0.215-0.229,0.265-0.568,0.124-0.849l-0.379-0.758c-0.103-0.206-0.294-0.353-0.52-0.399  c-0.222-0.049-0.459,0.012-0.635,0.161l-1.379,1.167l-1.44,0.986c-0.135,0.092-0.236,0.226-0.288,0.381  c-0.098,0.293-0.417,1.293-0.412,1.773c-0.049,0.2-0.496,0.812-0.938,1.284c-0.276,0.295-0.269,0.757,0.018,1.043l0.794,0.793  l0.113,1.197l-0.954,3.891c-0.036,0.148-0.026,0.304,0.027,0.446l1.591,4.168c0.044,0.114,0.115,0.217,0.207,0.297l1.563,1.366  v1.023c0,0.156,0.049,0.309,0.14,0.436l0.879,1.231l-0.33,0.694l-0.981-0.141l-2.287-0.738c-0.08-0.025-0.165-0.038-0.248-0.036  l-3.13,0.074l-2.36-0.765l-1.226-0.797l-0.093-0.247v-1.22l1.23-1.777c0.057-0.082,0.097-0.174,0.117-0.271l0.502-2.367l1.518-2.387  c0.218-0.342,0.124-0.796-0.213-1.024l-2.803-1.894c-0.321-0.217-0.759-0.153-1.004,0.15l-1.253,1.554l-3.282-1.188l0.323-1.561  c0.077-0.373-0.137-0.744-0.497-0.864l-3.455-1.151l-0.888-0.954l-1.439-1.363c-0.051-0.048-0.108-0.089-0.17-0.121l-1.994-1.035  l-1.041-0.763l10.408-2.103l16.169-3.132l0.951,2.912l1.718,4.105l2.863,12.665c0.08,0.356,0.384,0.608,0.771,0.584l4.483-0.238  l3.796-0.662L61.501,39.916z M44.291,36.085c0.02,0.237,0.15,0.45,0.353,0.575c0.201,0.124,0.451,0.147,0.673,0.059l0.196-0.078  c-0.004,0.024-0.008,0.049-0.01,0.073l-0.228,2.575c-0.002,0.024-0.003,0.048-0.003,0.071l-1.116-0.976l-1.44-3.775l0.929-3.787  c0.02-0.082,0.026-0.166,0.019-0.25l-0.151-1.592c-0.017-0.174-0.094-0.336-0.217-0.459l-0.488-0.488  c0.457-0.562,0.859-1.201,0.859-1.708c0-0.165,0.128-0.672,0.265-1.117l0.586-0.403l-0.793,2.256  c-0.05,0.144-0.056,0.299-0.016,0.446l0.228,0.834c0.077,0.283,0.312,0.494,0.601,0.542l0.792,0.132l0.279,3.069l-1.12,0.533  c-0.282,0.134-0.451,0.429-0.425,0.74L44.291,36.085z"></path></svg>