<svg fill="#B36AE2" xmlns="http://www.w3.org/2000/svg" xmlns:xlink="http://www.w3.org/1999/xlink" version="1.1" x="0px" y="0px" viewBox="0 0 65 65" enable-background="new 0 0 65 65" xml:space="preserve"><path d="M57.103,40.606l4.2-1.5c0.331-0.118,0.536-0.45,0.492-0.799l-0.301-2.4c-0.007-0.052-0.019-0.103-0.035-0.151l-1-2.901  c-0.027-0.08-0.068-0.155-0.121-0.221l-1.899-2.399c-0.075-0.095-0.173-0.171-0.283-0.22l-1.8-0.8  c-0.119-0.053-0.245-0.077-0.376-0.061l-2.101,0.199c-0.173,0.017-0.336,0.093-0.459,0.216l-0.5,0.5  c-0.267,0.266-0.294,0.689-0.064,0.987l1,1.301c0.225,0.292,0.624,0.376,0.948,0.205l1.075-0.574l1.522,1.161l0.604,2.037  l-1.384,1.384l-1.977,0.859l-3.052-0.424l-3.714-5.713c-0.021-0.031-0.043-0.061-0.067-0.088l-2.3-2.601  c-0.142-0.161-0.347-0.253-0.562-0.253h-1.8c-0.158,0-0.313,0.05-0.441,0.144l-0.494,0.36l-1.265-1.73l0.218-1.09l2.363-5.12  c0.109-0.236,0.088-0.511-0.055-0.727l-2.9-4.399c-0.208-0.315-0.616-0.426-0.954-0.262l-3.7,1.8  c-0.127,0.062-0.234,0.159-0.31,0.279l-1.641,2.645l-17.955,4.613l-13.8,2.5c-0.341,0.062-0.595,0.349-0.615,0.695L1.001,38.658  c-0.002,0.049,0,0.099,0.006,0.148l0.7,4.899c0.03,0.206,0.144,0.391,0.315,0.51c0.17,0.119,0.385,0.161,0.587,0.116l22.022-4.805  l10.839-2.71l1.644,1.314l3.297,4.162l2.899,4.699c0.196,0.317,0.596,0.44,0.934,0.296l2.1-0.899  c0.331-0.142,0.515-0.498,0.438-0.849l-0.441-2.03l0.562-1.052l1.856-0.96l0.515,1.994l-0.368,1.325l-2.152,1.346  c-0.22,0.137-0.353,0.377-0.353,0.636v1c0,0.287,0.164,0.55,0.423,0.675c0.26,0.126,0.566,0.093,0.792-0.086l0.799-0.631  c-0.013,0.066-0.017,0.135-0.012,0.203c0.017,0.203,0.115,0.391,0.273,0.52l1.1,0.899c0.137,0.112,0.305,0.17,0.475,0.17  c0.105,0,0.211-0.022,0.311-0.067l2.178-0.99l2.4-1c0.242-0.101,0.414-0.321,0.453-0.58c0.04-0.26-0.06-0.521-0.261-0.688  l-1.801-1.5c-0.135-0.112-0.305-0.174-0.48-0.174h-1.49l1.857-2.144L57.103,40.606z M51.788,46.05h0.99l0.641,0.534l-3.055,1.34  l-0.136-0.11L51.788,46.05z M52.384,41.309l-1.638,1.889l-0.77-2.984c-0.058-0.221-0.212-0.404-0.421-0.497  c-0.206-0.094-0.446-0.086-0.65,0.019l-2.899,1.5c-0.135,0.069-0.245,0.179-0.316,0.313l-0.802,1.5  c-0.083,0.157-0.108,0.339-0.07,0.513l0.368,1.695l-0.938,0.401l-2.609-4.221l-3.4-4.301c-0.035-0.045-0.075-0.085-0.119-0.121  l-2-1.6c-0.135-0.107-0.3-0.164-0.469-0.164c-0.061,0-0.122,0.008-0.182,0.022l-11.178,2.795L3.079,42.695l-0.576-4.027l0.563-9.936  l13.271-2.406l18.3-4.699c0.188-0.048,0.349-0.167,0.451-0.331l1.686-2.716l2.913-1.417l2.309,3.501l-2.226,4.821  c-0.025,0.054-0.043,0.11-0.055,0.167l-0.3,1.5c-0.041,0.206,0.006,0.42,0.13,0.589l1.9,2.601c0.242,0.333,0.712,0.407,1.047,0.164  l0.902-0.657h1.218l2.039,2.306l3.87,5.954c0.118,0.182,0.311,0.304,0.525,0.334l3.6,0.5c0.137,0.02,0.276-0.001,0.402-0.056  l2.301-1c0.087-0.037,0.165-0.091,0.231-0.157l1.8-1.8c0.194-0.194,0.267-0.479,0.188-0.743l-0.523-1.769l0.97,2.752l0.216,1.727  l-3.709,1.329l-3.9,1.899C52.531,41.17,52.45,41.232,52.384,41.309z"></path><path d="M63.938,46.801l-1-2.3c-0.108-0.249-0.343-0.421-0.613-0.447l-1-0.1c-0.355-0.042-0.691,0.188-0.794,0.534l-0.388,1.318  l-1.82,0.578c-0.136,0.043-0.257,0.125-0.349,0.235l-0.5,0.601c-0.188,0.226-0.228,0.542-0.099,0.807  c0.125,0.259,0.388,0.423,0.675,0.423c0.007,0,0.013,0,0.02,0l3.9-0.101c0.085-0.003,0.17-0.02,0.25-0.05l1.3-0.5  c0.19-0.073,0.343-0.222,0.422-0.41S64.02,46.988,63.938,46.801z M61.802,46.854l-0.463,0.012c0.059-0.074,0.104-0.16,0.131-0.253  l0.303-1.03l0.478,1.099L61.802,46.854z"></path></svg>