<svg fill="#B36AE2" xmlns="http://www.w3.org/2000/svg" xmlns:xlink="http://www.w3.org/1999/xlink" version="1.1" x="0px" y="0px" viewBox="0 0 65 65" enable-background="new 0 0 65 65" xml:space="preserve"><path d="M10,6.735l0.733,0.431c0.117,0.069,0.249,0.104,0.38,0.104c0.1,0,0.201-0.02,0.295-0.061l0.984-0.427l1.423-0.82  c0.057-0.033,0.109-0.073,0.156-0.12l2.199-2.199c0.292-0.292,0.293-0.767,0-1.06l-0.215-0.216  c-0.188-0.188-0.463-0.265-0.721-0.196l-0.992,0.259c-0.089,0.023-0.174,0.063-0.249,0.118L11.75,4.17l-0.851,0.31  c-0.121,0.044-0.229,0.119-0.313,0.216L9.811,5.601C9.666,5.769,9.604,5.993,9.64,6.212C9.677,6.431,9.808,6.623,10,6.735z"></path><path d="M61.276,47.064c-0.003-0.082-0.021-0.163-0.051-0.239l-1.351-3.448l-0.991-3.926c-0.024-0.097-0.068-0.188-0.128-0.267  l-1.035-1.377c-0.048-0.064-0.106-0.12-0.172-0.166l-1.12-0.777c-0.257-0.178-0.597-0.179-0.853-0.002l-0.638,0.438l-1.624,0.749  c-0.178,0.082-0.316,0.23-0.387,0.414l-0.784,2.063l-1.005,1.377l-0.017,0.009l-0.267-0.107c-0.211-0.124-0.434-0.275-0.577-0.389  c0.037-0.265,0.084-0.708,0.141-1.466l1.019-0.388c0.233-0.089,0.406-0.287,0.464-0.53l0.537-2.302l0.785-0.521  c0.216-0.144,0.343-0.389,0.335-0.647l-0.128-4.313c-0.005-0.146-0.051-0.287-0.135-0.406l-0.69-0.992  c-0.059-0.084-0.134-0.156-0.222-0.21l-0.144-0.088c0.115-0.019,0.225-0.064,0.32-0.134c0.168-0.122,0.277-0.307,0.303-0.512  l0.087-0.69c0.031-0.252-0.066-0.502-0.26-0.667l-1.004-0.849l-0.491-0.983c-0.127-0.254-0.387-0.415-0.671-0.415h-1l-1.742-0.581  l-2.297-1.42c-0.118-0.073-0.255-0.112-0.395-0.112h-1.165c-0.13,0-0.257,0.034-0.368,0.097l-1.212-0.897  c-0.246-0.182-0.579-0.197-0.842-0.034l-1.32,0.825l-1.25,0.992c-0.197,0.156-0.303,0.399-0.281,0.649l0.129,1.553  c0.01,0.124,0.05,0.24,0.114,0.34l-0.144,0.017c-0.191,0.022-0.367,0.117-0.49,0.265l-0.646,0.776  c-0.089,0.107-0.146,0.236-0.166,0.375l-0.01,0.069c-0.211-0.16-0.494-0.2-0.745-0.094l-0.821,0.345  c-0.22,0.093-0.383,0.285-0.438,0.518l-0.342,1.435l-0.807,0.329c-0.099,0.04-0.188,0.101-0.262,0.179l-0.776,0.82  c-0.097,0.103-0.164,0.23-0.191,0.369l-0.086,0.431c-0.042,0.209,0.007,0.425,0.134,0.596l0.05,0.067l-0.073,0.319l-0.526,0.113  c-0.345,0.075-0.591,0.381-0.591,0.733v0.475c0,0.08,0.013,0.16,0.039,0.237l0.284,0.854l-0.427,2.365l-0.662,1.656  c-0.047,0.118-0.064,0.247-0.048,0.374l0.26,2.025c0.01,0.073,0.03,0.146,0.061,0.214l0.094,0.207l-0.372,1.074  c-0.022,0.059-0.037,0.12-0.044,0.182l-0.129,1.164c-0.018,0.164,0.018,0.328,0.103,0.469l1.511,2.506l1.219,2.721l0.593,1.898  l-0.73,4.339l-0.992,2.15c-0.034,0.073-0.055,0.151-0.064,0.231l-0.1,0.897l-1.186,1.148c-0.227,0.22-0.292,0.559-0.163,0.847  c0.122,0.271,0.391,0.442,0.684,0.442c0.02,0,0.039-0.001,0.058-0.002l5.623-0.432l7.579-0.757c0.143,0.282,0.452,0.457,0.782,0.404  l9.436-1.378c0.322-0.045,0.579-0.295,0.634-0.616l0.114-0.789l0.768-1.352l0.763-0.648c0.175-0.149,0.272-0.37,0.263-0.601  l-0.072-1.871l0.316-0.316l0.281-0.077c0.313-0.085,0.535-0.359,0.553-0.683l0.077-1.397l0.147-0.295  c0.043,0.02,0.088,0.036,0.135,0.048l0.345,0.088c0.182,0.047,0.371,0.024,0.535-0.063l0.819-0.432  c0.257-0.135,0.412-0.406,0.399-0.696L61.276,47.064z M37.261,31.417l0.24-0.445l0.046,0.831l-0.286,0.167V31.417z M59.808,50.446  l-0.475-0.258c-0.179-0.097-0.388-0.115-0.583-0.057c-0.194,0.062-0.355,0.198-0.446,0.381l-0.646,1.293  c-0.046,0.091-0.072,0.191-0.078,0.294l-0.056,1.014c-0.107,0.037-0.205,0.098-0.286,0.179l-0.689,0.689  c-0.147,0.147-0.228,0.351-0.219,0.56l0.071,1.835l-0.586,0.498c-0.066,0.057-0.123,0.125-0.166,0.201l-0.905,1.594  c-0.048,0.084-0.079,0.177-0.091,0.272l-0.045,0.34l-8.218,1.198c-0.143-0.252-0.426-0.413-0.727-0.376l-8.22,0.82l-3.554,0.272  c0.071-0.103,0.117-0.222,0.131-0.348l0.117-1.045l0.982-2.132c0.028-0.061,0.048-0.125,0.06-0.191l0.775-4.61  c0.02-0.117,0.012-0.236-0.023-0.35l-0.678-2.152l-1.292-2.883l-1.422-2.369l0.09-0.819l0.452-1.32  c0.059-0.179,0.049-0.374-0.029-0.546l-0.168-0.372l-0.221-1.721l0.618-1.546c0.019-0.047,0.033-0.096,0.042-0.146l0.475-2.629  c0.022-0.123,0.013-0.251-0.026-0.37l-0.229-0.685l0.322-0.069c0.284-0.062,0.507-0.282,0.571-0.565l0.258-1.121  c0.05-0.215,0.002-0.44-0.13-0.617l-0.021-0.029l0.459-0.484l0.758-0.309v1.271c0,0.323,0.207,0.61,0.514,0.712l0.259,0.086  c0.206,0.068,0.43,0.045,0.614-0.064l1.551-0.906c0.243-0.142,0.386-0.407,0.371-0.688l-0.141-2.468l-0.106-0.569l0.082-0.573  l0.317-0.382l0.823-0.095c0.046-0.005,0.091-0.015,0.135-0.028l1.121-0.345c0.223-0.068,0.4-0.236,0.481-0.454  c0.082-0.218,0.058-0.461-0.065-0.659l-0.215-0.345c-0.104-0.167-0.271-0.288-0.463-0.333l-0.806-0.19l-0.054-0.641l0.865-0.69  l0.817-0.507l0.929,0.688c0.034,0.025,0.071,0.048,0.109,0.067l0.431,0.217c0.289,0.146,0.641,0.089,0.869-0.141l0.678-0.038  l2.189,1.354c0.05,0.031,0.103,0.056,0.157,0.074l1.94,0.647c0.076,0.025,0.156,0.039,0.237,0.039h0.658l0.354,0.707  c0.046,0.091,0.109,0.171,0.187,0.237l0.389,0.329c-0.031,0.023-0.062,0.049-0.09,0.078l-0.345,0.345  c-0.209,0.209-0.275,0.521-0.171,0.796l0.345,0.906c0.059,0.155,0.167,0.285,0.308,0.372l0.428,0.263l0.474,0.68l0.109,3.674  l-0.688,0.456c-0.16,0.106-0.272,0.27-0.315,0.456l-0.512,2.199l-1.095,0.417c-0.274,0.104-0.462,0.358-0.481,0.65  c-0.055,0.812-0.142,1.805-0.18,1.97c-0.198,0.596,0.199,1.115,1.374,1.791c0.03,0.018,0.062,0.033,0.095,0.047l0.646,0.26  c0.208,0.084,0.442,0.069,0.64-0.038l0.475-0.26c0.097-0.054,0.181-0.127,0.245-0.216l1.163-1.594  c0.04-0.055,0.071-0.113,0.096-0.176l0.711-1.87l1.404-0.647c0.038-0.018,0.075-0.038,0.11-0.063l0.264-0.182l0.595,0.413  l0.873,1.16l0.982,3.868l1.334,3.422l0.145,3.273C59.891,50.497,59.851,50.47,59.808,50.446z"></path><path d="M31.482,24.321l0.352-0.992l0.604-0.201l2.929-0.251c0.216-0.019,0.413-0.129,0.541-0.304l0.606-0.829l1.781-0.068  l2.406,0.539c0.054,0.012,0.109,0.018,0.164,0.018h0.775c0.11,0,0.219-0.024,0.318-0.071l1.198-0.561l0.791,0.068  c0.091,0.008,0.183-0.001,0.271-0.026l0.755-0.216l1.355,0.183l0.266,0.1c0.139,0.052,0.288,0.061,0.433,0.029l0.389-0.09  c0.103,0.063,0.22,0.101,0.346,0.109l1.38,0.085c0.188,0.014,0.403-0.059,0.554-0.197l0.561-0.516  c0.168-0.154,0.256-0.375,0.24-0.603c-0.034-0.509-0.12-1.003-0.474-1.248c-0.099-0.106-0.334-0.396-0.541-0.667  c-0.156-0.205-0.4-0.312-0.664-0.292l-1.664,0.175c-0.303,0.038-0.552,0.254-0.632,0.549l-0.067,0.251l-0.785-0.761v-2.701  c0-0.323-0.206-0.609-0.513-0.711l-0.646-0.216c-0.27-0.09-0.567-0.02-0.768,0.181l-0.331,0.331l-3.06,0.803l-0.72-0.199v-1.957  c0-0.376-0.278-0.694-0.651-0.744l-0.647-0.086c-0.149-0.02-0.299,0.005-0.434,0.073l-1.078,0.541l-1.815,0.767l-2.713,0.124  c-0.067,0.003-0.133,0.015-0.197,0.036L30.63,15.25c-0.1,0.032-0.192,0.085-0.271,0.156l-1.676,1.509l-0.452,0.282h-0.26  c-0.139,0-0.275,0.039-0.394,0.111l-0.269,0.166l-0.226-0.071l-0.578-0.47c-0.255-0.208-0.617-0.225-0.889-0.042l-0.476,0.317  l-1.143,0.058l-0.839-0.838l-0.591-1.223c-0.054-0.11-0.133-0.206-0.231-0.278l-0.647-0.475c-0.067-0.049-0.141-0.087-0.22-0.111  l-1.38-0.431c-0.072-0.022-0.148-0.034-0.224-0.034h-0.681l-0.34-0.341c-0.271-0.271-0.703-0.295-1.001-0.054l-0.158,0.127  l0.064-0.085c0.066-0.088,0.112-0.189,0.134-0.296l0.129-0.619l0.59-0.205c0.188-0.065,0.342-0.203,0.429-0.382l0.498-1.028  l1.266-0.342c0.25-0.068,0.448-0.26,0.522-0.508l0.129-0.431c0.08-0.264,0.007-0.551-0.188-0.746l-0.474-0.475  c-0.161-0.16-0.384-0.243-0.61-0.215l-2.027,0.215c-0.098,0.01-0.193,0.04-0.28,0.087l-1.897,1.035  c-0.063,0.034-0.12,0.077-0.171,0.127l-0.992,0.991c-0.028,0.028-0.054,0.059-0.078,0.092l-0.442,0.613L13.696,11.7  c-0.131,0.059-0.243,0.154-0.321,0.273l-0.82,1.25c-0.059,0.09-0.098,0.191-0.114,0.297l-0.026,0.169l-1.54,0.735  c-0.05,0.024-0.098,0.054-0.142,0.089L9.85,15.212l-2.396,0.399c-0.154,0.026-0.297,0.099-0.407,0.209L6.788,16.08  c-0.141,0.141-0.22,0.332-0.22,0.53l-1.117,0.734l-1.063,0.315c-0.08,0.024-0.155,0.061-0.222,0.109l-0.302,0.215  c-0.164,0.117-0.273,0.294-0.305,0.492s0.018,0.401,0.137,0.563l1.681,2.285c0.122,0.165,0.305,0.273,0.508,0.299l3.313,0.426  l3.365,0.909l1.207,0.475c0.036,0.015,0.074,0.026,0.112,0.034l5.159,1.146l0.567,0.766c0.089,0.121,0.212,0.212,0.354,0.262  l1.18,0.415l0.702,4.05c0.03,0.173,0.12,0.331,0.254,0.444l0.561,0.475c0.029,0.024,0.06,0.046,0.091,0.066l0.56,0.345  c0.12,0.073,0.256,0.111,0.394,0.111c0.072,0,0.145-0.01,0.216-0.032c0.206-0.062,0.375-0.208,0.464-0.403l1.38-2.976  c0.02-0.043,0.036-0.087,0.047-0.133l0.417-1.665l0.422-0.979c0.136,0.123,0.315,0.193,0.503,0.193h0.259  c0.123,0,0.244-0.03,0.353-0.088l1.433-0.765l0.253,0.271c0.075,0.08,0.167,0.143,0.268,0.183l0.215,0.086  c0.258,0.105,0.551,0.058,0.763-0.123l0.561-0.474C31.36,24.558,31.438,24.446,31.482,24.321z M48.546,19.852  c0.174,0.219,0.298,0.362,0.387,0.457l-0.018,0.017l-0.508-0.031l-0.101-0.421L48.546,19.852z M30.542,22.483l-0.375,1.057  L29.9,23.255c-0.231-0.247-0.6-0.308-0.9-0.149l-1.539,0.821l-0.164-0.239c-0.177-0.258-0.496-0.379-0.801-0.303l-0.345,0.087  c-0.226,0.057-0.413,0.216-0.505,0.43L24.826,25.8c-0.016,0.038-0.029,0.076-0.039,0.115l-0.414,1.655l-0.979,2.111l-0.119-0.101  l-0.73-4.215c-0.046-0.268-0.233-0.489-0.49-0.58l-1.378-0.485l-0.597-0.806c-0.107-0.146-0.264-0.247-0.44-0.286l-5.377-1.195  l-1.229-0.479l-3.493-0.948c-0.033-0.009-0.067-0.016-0.101-0.02l-3.045-0.392l-0.935-1.27l0.519-0.153  c0.067-0.02,0.131-0.049,0.19-0.087l1.552-0.992c0.216-0.138,0.346-0.376,0.346-0.632l2.219-0.381  c0.125-0.021,0.243-0.073,0.342-0.152l0.969-0.766l1.821-0.87c0.224-0.107,0.38-0.317,0.418-0.563l0.062-0.399l0.61-0.93  l0.575-0.256c0.121-0.054,0.225-0.139,0.302-0.246l0.525-0.728l0.873-0.872l1.542-0.841l-0.508,1.051l-0.698,0.242  c-0.249,0.086-0.434,0.297-0.488,0.555l-0.182,0.872l-0.935,1.247c-0.08,0.106-0.13,0.231-0.145,0.364l-0.129,1.12  c-0.033,0.287,0.102,0.567,0.346,0.721l0.345,0.217c0.307,0.193,0.71,0.138,0.954-0.131l0.392-0.432l0.982-0.792l0.083,0.084  c0.141,0.141,0.332,0.22,0.531,0.22h0.877l1.151,0.36l0.396,0.291l0.565,1.169c0.037,0.076,0.086,0.145,0.145,0.204l1.164,1.164  c0.15,0.15,0.357,0.229,0.568,0.219l1.681-0.086c0.135-0.007,0.265-0.05,0.377-0.125l0.188-0.125l0.261,0.212  c0.074,0.06,0.159,0.105,0.249,0.134l0.69,0.216c0.207,0.065,0.432,0.036,0.618-0.077l0.379-0.234h0.262  c0.141,0,0.278-0.04,0.397-0.114l0.69-0.431c0.037-0.023,0.072-0.05,0.104-0.079l1.605-1.445l1.218-0.395l2.746-0.125  c0.089-0.004,0.176-0.023,0.258-0.058l1.982-0.839l0.684-0.342v1.654c0,0.263,0.138,0.507,0.363,0.643l0.215,0.129  c0.059,0.035,0.121,0.062,0.188,0.081l1.251,0.345c0.128,0.035,0.263,0.036,0.391,0.002l3.449-0.905  c0.063-0.017,0.124-0.042,0.181-0.074v2.108c0,0.203,0.082,0.397,0.228,0.539l0.539,0.522c-0.077,0-0.149,0.008-0.223,0.029  l-0.773,0.221l-0.854-0.074c-0.131-0.011-0.263,0.012-0.383,0.068l-1.229,0.576h-0.525l-2.421-0.542  c-0.063-0.015-0.137-0.023-0.192-0.018l-2.241,0.086c-0.229,0.009-0.441,0.122-0.577,0.307l-0.619,0.846l-2.677,0.23  c-0.059,0.005-0.117,0.017-0.173,0.036l-1.035,0.345C30.792,22.095,30.619,22.265,30.542,22.483z"></path></svg>