<svg fill="#B36AE2" xmlns="http://www.w3.org/2000/svg" xmlns:xlink="http://www.w3.org/1999/xlink" version="1.1" x="0px" y="0px" viewBox="0 0 65 65" enable-background="new 0 0 65 65" xml:space="preserve"><path d="M60.159,14.344c-0.158-0.187-0.4-0.285-0.64-0.262l-2.081,0.189c-0.126,0.012-0.244,0.054-0.347,0.122l-0.405-0.697  c-0.14-0.24-0.406-0.392-0.674-0.373l-4.211,0.142c-0.161,0.005-0.316,0.063-0.443,0.164l-0.035,0.029l-0.371-0.835  c-0.142-0.318-0.486-0.496-0.826-0.433l-1.231,0.236c-0.148,0.028-0.284,0.101-0.39,0.207l-1.427,1.428l-0.491,0.246h-1.149  l-0.619-0.238v-0.479c0-0.37-0.271-0.685-0.636-0.741l-0.615-0.095c-0.161-0.024-0.327,0.004-0.469,0.081l-0.438-0.219l-0.173-0.999  c-0.037-0.215-0.167-0.404-0.354-0.516c-0.187-0.113-0.416-0.138-0.622-0.068l-0.709,0.236c-0.173,0.058-0.318,0.176-0.41,0.333  l-0.491-0.102l-2.376-1.077l-1.794-1.196C35.608,9.344,35.464,9.3,35.315,9.3h-1.117l-0.413-0.318  c-0.185-0.141-0.423-0.193-0.646-0.131L32.05,9.135c-0.129,0.034-0.248,0.101-0.342,0.196l-0.52,0.521  c-0.099,0.1-0.168,0.225-0.2,0.361l-0.933,0.034v-0.243c0-0.4-0.314-0.73-0.714-0.749l-2.395-0.115l-0.027-0.136  C26.849,8.653,26.541,8.4,26.184,8.4h-1.961l-0.39-0.389L23.188,5.4L22.81,2.797c-0.038-0.26-0.209-0.481-0.452-0.583l-0.9-0.378  c-0.042-0.018-0.086-0.032-0.131-0.042L20.24,1.557c-0.132-0.028-0.27-0.021-0.397,0.021l-0.284,0.095  c-0.297,0.099-0.501,0.372-0.512,0.684l-0.116,3.157L5.414,5.501c0,0,0,0,0,0c-0.24,0-0.466,0.115-0.607,0.309  S4.625,6.255,4.7,6.483l0.796,2.442l-0.257,1.673c-0.006,0.038-0.009,0.076-0.009,0.114v4.859c0,0.077,0.012,0.154,0.035,0.228  l0.757,2.38c0.016,0.05,0.038,0.099,0.064,0.145l0.81,1.415L7.13,24.32l0.867,6.444l0.835,3.388l0.183,2.914v2.223l-0.512,0.577  l-0.785,0.566c-0.195,0.142-0.311,0.367-0.311,0.608v0.709c0,0.122,0.03,0.242,0.087,0.351l0.425,0.805  c0.044,0.084,0.104,0.158,0.176,0.22l1.748,1.492l0.26,1.188V62.71c0,0.2,0.08,0.393,0.222,0.533  c0.141,0.139,0.33,0.217,0.528,0.217c0.002,0,0.005,0,0.007,0l28.547-0.283l10.031-0.332c0.206-0.007,0.399-0.098,0.536-0.251  c0.137-0.154,0.204-0.356,0.187-0.562l-0.237-2.838c-0.013-0.157-0.075-0.306-0.178-0.426l-0.852-0.994  c-0.048-0.056-0.104-0.104-0.165-0.144l-3.276-2.094l-1.617-2.38c-0.102-0.15-0.254-0.258-0.429-0.304l-1.348-0.357l-0.788-1.104  c-0.141-0.197-0.368-0.314-0.61-0.314h-1.186l-1.256-1.362l-0.216-2.978l0.043-1.679l0.635-1.271  c0.081-0.162,0.101-0.348,0.055-0.523l-0.331-1.277c-0.03-0.116-0.088-0.225-0.169-0.314l-1.023-1.133l0.812-2.249l2.373-1.758  c0.046-0.033,0.087-0.072,0.124-0.115l0.567-0.663c0.12-0.141,0.185-0.321,0.18-0.506l-0.097-3.716l0.078-1.169l1.015-1.17  l1.585-1.209l0.427-0.066c0.17-0.026,0.326-0.111,0.442-0.239l2.022-2.247l0.706-0.313c0.143-0.063,0.262-0.17,0.341-0.304  l1.067-1.811l1.075-1.614l1.297-1.087l2.183-0.91l4.36-1.943l1.846-0.852c0.203-0.094,0.354-0.274,0.411-0.492l0.284-1.089  C60.374,14.782,60.317,14.53,60.159,14.344z M52.817,18.016l-2.271,0.946c-0.07,0.029-0.136,0.069-0.193,0.118l-1.467,1.23  c-0.056,0.046-0.104,0.1-0.143,0.159l-1.156,1.738l-0.967,1.639l-0.633,0.281c-0.096,0.043-0.183,0.105-0.253,0.184l-1.951,2.167  l-0.351,0.054c-0.123,0.019-0.24,0.069-0.34,0.145l-1.799,1.372c-0.041,0.031-0.078,0.066-0.111,0.105l-1.229,1.419  c-0.107,0.124-0.171,0.278-0.182,0.441l-0.097,1.489l0.088,3.497l-0.325,0.38l-2.487,1.842c-0.119,0.088-0.209,0.209-0.259,0.348  l-1.041,2.886c-0.095,0.261-0.037,0.552,0.148,0.758l1.202,1.33l0.214,0.827l-0.583,1.168c-0.049,0.098-0.076,0.206-0.079,0.315  l-0.046,1.919l0.236,3.313c0.012,0.169,0.081,0.33,0.196,0.455l1.656,1.797c0.143,0.153,0.342,0.241,0.552,0.241h1.128l0.722,1.011  c0.102,0.143,0.249,0.245,0.419,0.289l1.338,0.354l1.546,2.275c0.057,0.085,0.131,0.156,0.216,0.211l3.313,2.117l0.621,0.726  l0.151,1.811l-9.226,0.306l-27.772,0.275V45.725c0-0.054-0.006-0.107-0.018-0.16l-0.332-1.515c-0.035-0.16-0.121-0.304-0.246-0.41  l-1.831-1.563l-0.271-0.513v-0.14l0.541-0.391c0.044-0.032,0.085-0.069,0.121-0.11l0.756-0.852c0.122-0.138,0.189-0.314,0.189-0.498  l-0.001-2.555l-0.189-3.028c-0.003-0.045-0.01-0.089-0.021-0.133l-0.836-3.374l-0.846-6.302l-0.236-4.698  c-0.006-0.118-0.04-0.232-0.098-0.335l-0.859-1.501L6.73,15.455V10.77l0.275-1.793C7.024,8.861,7.014,8.742,6.978,8.63L6.447,7.002  l13.207,0.013h0c0.403,0,0.735-0.319,0.75-0.723l0.115-3.139l0.422,0.092l0.446,0.188l0.33,2.254l0.709,2.886  c0.033,0.133,0.102,0.254,0.198,0.351l0.757,0.756c0.141,0.141,0.332,0.22,0.53,0.22h1.657l0.021,0.107  c0.067,0.337,0.356,0.586,0.7,0.602l2.266,0.108v0.278c0,0.414,0.336,0.75,0.75,0.75h2.271c0.349,0,0.652-0.241,0.731-0.581  l0.094-0.406l0.224-0.225l0.536-0.14l0.324,0.25c0.131,0.101,0.292,0.156,0.458,0.156h1.145l1.656,1.104  c0.034,0.022,0.069,0.042,0.106,0.059l2.508,1.136c0.051,0.023,0.104,0.04,0.157,0.051l1.136,0.236  c0.199,0.042,0.403-0.001,0.567-0.109l0.028,0.166c0.041,0.235,0.19,0.437,0.404,0.543l1.23,0.615  c0.139,0.069,0.293,0.093,0.437,0.072v0.108c0,0.31,0.191,0.588,0.48,0.7l1.229,0.474c0.086,0.033,0.178,0.05,0.27,0.05h1.467  c0.116,0,0.231-0.027,0.336-0.08l0.758-0.379c0.072-0.036,0.138-0.083,0.194-0.14l1.35-1.351l0.421-0.081l0.357,0.887  c0.111,0.29,0.39,0.48,0.7,0.48h0.474c0.17,0,0.335-0.058,0.469-0.164l0.278-0.223l3.514-0.118l0.626,1.078  c0.107,0.185,0.286,0.313,0.49,0.357L52.817,18.016z"></path></svg>