<svg fill="#B36AE2" xmlns="http://www.w3.org/2000/svg" xmlns:xlink="http://www.w3.org/1999/xlink" version="1.1" x="0px" y="0px" viewBox="0 0 65 65" enable-background="new 0 0 65 65" xml:space="preserve"><path d="M49.57,50.886L48.003,40.25l0.562-25.354l-0.113-9.369l0.113-3.547c0.007-0.211-0.076-0.415-0.228-0.563  c-0.151-0.146-0.356-0.225-0.569-0.21l-2.717,0.17L34.053,2.276L26.735,2.5c-0.387,0.012-0.701,0.316-0.726,0.703L25.924,4.56  l-1.171,0.544c-0.152,0.07-0.276,0.19-0.353,0.339l-1.464,2.872C22.847,8.49,22.83,8.693,22.888,8.88l0.252,0.807l0.03,0.712  l-1.126,0.428c-0.143,0.054-0.266,0.151-0.352,0.276l-1.972,2.871c-0.135,0.197-0.168,0.446-0.09,0.671l0.28,0.805l-1.29,1.075  c-0.137,0.114-0.228,0.272-0.259,0.447l-0.539,3.114l-0.337,1.069c-0.067,0.212-0.036,0.442,0.083,0.629l0.563,0.882l-0.387,0.362  c-0.249,0.232-0.31,0.603-0.149,0.902l0.768,1.435l0.144,2.006l-0.589,1.228c-0.025,0.052-0.043,0.106-0.056,0.163l-0.112,0.508  c-0.016,0.073-0.021,0.147-0.015,0.222l0.225,2.814c0.007,0.085,0.028,0.167,0.062,0.245l1.052,2.367l-0.045,0.775  c-0.014,0.232,0.081,0.457,0.256,0.61l0.957,0.831l-0.203,0.896l-0.105,0.035c-0.389,0.13-0.601,0.547-0.478,0.938l0.239,0.756  l-4.679,8.161c-0.053,0.092-0.085,0.194-0.096,0.3l-0.45,4.617c-0.01,0.105,0.002,0.211,0.035,0.311l0.281,0.844  c0.104,0.313,0.375,0.521,0.733,0.513l13.668-0.396l4.669-0.401l0.493-0.078l0.026,0.06l-0.534,3.79  c-0.032,0.233,0.046,0.468,0.213,0.635l1.734,1.735l1.183,3.44c0.077,0.225,0.257,0.399,0.483,0.471  c0.074,0.023,0.149,0.035,0.226,0.035c0.156,0,0.312-0.049,0.441-0.144l0.619-0.45c0.078-0.057,0.146-0.129,0.196-0.212l1.12-1.809  l0.416,0.185c0.158,0.07,0.337,0.084,0.507,0.037l3.676-1.027l0.896,0.128l0.729,0.389c0.108,0.058,0.229,0.088,0.353,0.088h2.928  c0.345,0,0.645-0.234,0.728-0.568l0.225-0.901c0.021-0.088,0.027-0.178,0.018-0.268L49.57,50.886z M48.975,59.479H46.82  l-0.681-0.362c-0.077-0.041-0.16-0.068-0.246-0.08l-1.182-0.169c-0.104-0.014-0.207-0.008-0.309,0.02l-3.568,0.997l-0.767-0.341  c-0.342-0.152-0.744-0.028-0.942,0.291l-1.13,1.823l-0.846-2.461c-0.037-0.107-0.098-0.205-0.179-0.286l-1.593-1.594l0.51-3.627  c0.02-0.136,0.001-0.273-0.053-0.399l-0.338-0.789c-0.135-0.315-0.467-0.499-0.807-0.446l-1.018,0.163l-4.573,0.393l-13.069,0.378  l-0.055-0.164l0.419-4.298l4.762-8.307c0.104-0.182,0.127-0.398,0.064-0.599l-0.124-0.393c0.155-0.105,0.267-0.267,0.309-0.454  l0.395-1.745c0.061-0.27-0.031-0.551-0.239-0.732l-1.017-0.884l0.034-0.589c0.007-0.119-0.015-0.239-0.063-0.349l-1.074-2.417  l-0.206-2.575l0.069-0.313l0.638-1.329c0.056-0.118,0.081-0.248,0.072-0.378l-0.169-2.364c-0.007-0.105-0.037-0.208-0.087-0.301  l-0.571-1.068l0.422-0.394c0.265-0.247,0.315-0.647,0.12-0.952l-0.712-1.115l0.257-0.829l0.515-2.939l1.478-1.231  c0.24-0.2,0.331-0.527,0.229-0.822l-0.326-0.937l1.624-2.365l1.414-0.537c0.302-0.115,0.497-0.41,0.483-0.733l-0.058-1.351  c-0.003-0.065-0.014-0.13-0.034-0.192l-0.19-0.608l1.208-2.369l1.341-0.623c0.25-0.116,0.416-0.358,0.433-0.633l0.07-1.121  l6.673-0.206l11.021-0.899l1.881-0.118l-0.088,2.756l0.113,9.376L46.502,40.28c-0.001,0.042,0.002,0.084,0.008,0.126l1.573,10.675  l0.941,8.196L48.975,59.479z"></path></svg>