<svg fill="#B36AE2" xmlns="http://www.w3.org/2000/svg" xmlns:xlink="http://www.w3.org/1999/xlink" version="1.1" x="0px" y="0px" viewBox="0 0 65 65" enable-background="new 0 0 65 65" xml:space="preserve"><path d="M64.118,47.872l-0.593-0.863c-0.159-0.231-0.435-0.357-0.711-0.319l-0.89,0.111l-0.788-0.938l-0.774-2.052l0.396-1.146  c0.074-0.214,0.047-0.45-0.073-0.643l-1.041-1.665l-0.945-2.416c-0.098-0.249-0.32-0.428-0.586-0.468l-2.274-0.346l-3.39-2.792  l-0.985-1.882l0.34-1.421l1.187-3.235c0.014-0.036,0.023-0.073,0.031-0.111l0.323-1.617c0.065-0.326-0.092-0.656-0.386-0.811  l-1.023-0.539c-0.089-0.046-0.186-0.075-0.285-0.083l-3.331-0.29l-0.297-0.512v-2.009c0-0.252-0.126-0.487-0.337-0.626l-2.781-1.837  l-3.706-4.014l-1.169-3.708l-0.243-2.043l0.334-1.147c0.07-0.241,0.016-0.5-0.145-0.692L38.63,6.153l-0.607-1.215  c-0.14-0.279-0.441-0.443-0.748-0.411l-4.119,0.429l-5.365,0.322L1.481,5.926C1.225,5.932,0.989,6.069,0.857,6.29  c-0.132,0.22-0.143,0.492-0.028,0.722l0.614,1.227L1.398,9.23C1.391,9.384,1.432,9.537,1.515,9.667l1.277,1.994l1.618,2.103  c0.022,0.029,0.046,0.056,0.073,0.082l1.671,1.617c0.125,0.122,0.29,0.195,0.464,0.208l1.175,0.091l0.29,0.227v0.862L7.364,17.49  c-0.119,0.105-0.201,0.246-0.235,0.401l-0.27,1.24c-0.043,0.197-0.004,0.402,0.106,0.571l1.173,1.782l1.293,1.617  c0.034,0.042,0.073,0.081,0.115,0.115l1.163,0.938l0.661,5.849l-0.428,21.647l0.27,3.072c0.034,0.388,0.358,0.685,0.747,0.685  c0.002,0,0.004,0,0.006,0l12.793-0.107l12.57-0.378l17.075-0.683l0.797,1.342l-0.291,1.129l-1.477,1.191  c-0.122,0.099-0.21,0.232-0.252,0.383l-0.271,0.971c-0.06,0.214-0.021,0.442,0.104,0.626c0.125,0.183,0.325,0.301,0.547,0.321  l2.804,0.27c0.023,0.003,0.047,0.004,0.071,0.004c0.065,0,0.131-0.009,0.194-0.025l2.211-0.594c0.246-0.066,0.442-0.253,0.52-0.496  l0.916-2.857c0.018-0.054,0.028-0.109,0.033-0.165l0.243-2.861l1.959-1.587l0.959-0.504c0.246-0.13,0.4-0.386,0.4-0.664v-1.406  l0.314-0.72C64.291,48.359,64.265,48.086,64.118,47.872z M62.436,48.86c-0.041,0.095-0.063,0.196-0.063,0.3v1.109l-0.624,0.328  c-0.043,0.023-0.084,0.051-0.122,0.081l-2.265,1.834c-0.159,0.129-0.259,0.316-0.275,0.52l-0.263,3.095l-0.766,2.388l-1.685,0.452  l-1.672-0.16l1.343-1.084c0.126-0.102,0.215-0.24,0.256-0.396l0.432-1.672c0.05-0.193,0.021-0.399-0.082-0.57l-1.186-1.994  c-0.141-0.237-0.38-0.397-0.675-0.366l-17.514,0.7L24.73,53.801l-12.085,0.102l-0.205-2.302l0.426-21.665l-0.701-6.254  c-0.022-0.196-0.12-0.376-0.274-0.5l-1.339-1.081l-1.201-1.496l-0.959-1.462l0.151-0.693l0.788-0.7  c0.16-0.142,0.252-0.346,0.252-0.561v-1.563c0-0.23-0.106-0.448-0.287-0.59l-0.755-0.593c-0.117-0.092-0.258-0.146-0.406-0.158  l-1.132-0.088l-1.438-1.391L4.019,10.8L2.907,9.06L2.95,8.111c0.006-0.127-0.021-0.255-0.078-0.369L2.699,7.396l25.156-0.62  l5.424-0.326l3.635-0.378l0.415,0.83c0.026,0.052,0.059,0.102,0.096,0.146l1.145,1.365l-0.265,0.909  c-0.028,0.097-0.037,0.198-0.025,0.299l0.27,2.265c0.006,0.046,0.016,0.092,0.03,0.137l1.24,3.936  c0.033,0.105,0.089,0.202,0.164,0.283l3.882,4.204c0.041,0.044,0.087,0.083,0.138,0.117l2.521,1.665v1.807  c0,0.132,0.035,0.261,0.101,0.375l0.593,1.024c0.123,0.212,0.341,0.351,0.585,0.372l3.569,0.31l0.394,0.208l-0.202,1.012  l-1.19,3.262l-0.431,1.778c-0.043,0.177-0.021,0.363,0.064,0.525l1.187,2.265c0.046,0.089,0.11,0.168,0.188,0.231l3.666,3.02  c0.104,0.086,0.23,0.142,0.364,0.162l2.051,0.313l0.813,2.077c0.017,0.043,0.038,0.085,0.063,0.124l0.888,1.421l-0.368,1.063  c-0.057,0.165-0.055,0.346,0.008,0.51l0.916,2.426c0.029,0.079,0.072,0.153,0.127,0.218l1.133,1.348  c0.164,0.195,0.426,0.293,0.667,0.262l0.842-0.105l0.099,0.144L62.436,48.86z"></path></svg>