<svg fill="#B36AE2" xmlns="http://www.w3.org/2000/svg" viewBox="0 0 96 55" x="0px" y="0px"><path fill-rule="evenodd" d="M41.1556393,52.5245749 C41.1950732,53.4590345 40.0445174,53.93137 39.4159893,53.2387502 L37.7180811,51.367704 L37.5567804,51.5630458 L37.5567804,51.7558658 C37.5567804,52.1815438 37.2873034,52.5605632 36.8852434,52.7003827 L34.5535302,53.5112539 C34.160813,53.6478243 33.7245627,53.5271398 33.4578718,53.2081505 L33.0797394,52.7558658 L30.9651009,52.7558658 L30.7523627,53.4197263 C30.6006332,53.893206 30.1240924,54.1832992 29.6338147,54.1006401 L27.2590608,53.7002654 L27.0872485,54.2828632 C26.9053013,54.8998277 26.1966144,55.1870359 25.6364768,54.8708147 L24.0680488,53.9853712 C23.8275318,53.8495892 23.6538839,53.620377 23.5882794,53.3520838 L22.8624736,50.3838611 L22.5270548,50.0892954 L22.1934761,50.0892954 C21.9710025,50.0892954 21.7548815,50.0151082 21.5793104,49.8784726 L20.2825463,48.8692848 C19.9398503,48.6025866 19.8084421,48.1452015 19.9573158,47.7372738 L20.2438465,46.9521535 L17.9285767,43.7542035 C17.8050709,43.5836118 17.7385775,43.3783814 17.7385775,43.1677746 L17.7385775,41.9492548 L17.0295511,40.7997159 L14.770589,42.4697717 C14.3657421,42.769076 13.8015089,42.7207252 13.453487,42.3569054 L12.0914742,40.9330664 C11.9134542,40.7469655 11.8140959,40.4993584 11.8140959,40.2418226 L11.8140959,38.2246832 C11.8140959,37.874407 11.997369,37.5496642 12.2972284,37.3686178 L12.9122269,36.9972995 L11.8959199,34.6418919 C11.797139,34.4129558 11.7874473,34.1553754 11.8687452,33.9196637 L13.3996182,29.4811173 L12.1300118,29.4811173 C11.7930528,29.4811173 11.4787511,29.311419 11.2939061,29.0296857 L10.924589,28.4667875 L9.19915837,27.0883347 C9.12533616,27.0293579 9.06024521,26.960216 9.00582735,26.8829717 L5.87311422,22.4361925 L2.91857005,20.638286 C2.62039906,20.4568423 2.43840904,20.1330601 2.43840904,19.7840218 L2.43840904,16.7997777 L0.176669167,13.5187952 C0.0616123635,13.3518886 0,13.1539547 0,12.9512335 L0,1 C0,0.44771525 0.44771525,0 1,0 L95,0 C95.5522847,0 96,0.44771525 96,1 L96,47.1243194 C96,47.6766042 95.5522847,48.1243194 95,48.1243194 L40.9699503,48.1243194 L41.1556393,52.5245749 Z M25.5916075,52.2838738 C25.7347582,51.7984642 26.2179828,51.4965179 26.7170178,51.5806534 L29.11212,51.9844588 L29.2831676,51.450696 C29.41583,51.0367164 29.8007491,50.7558658 30.2354656,50.7558658 L33.5471386,50.7558658 C33.8433584,50.7558658 34.1243346,50.8871939 34.314334,51.1144524 L34.5491346,51.3952977 L35.5702065,51.0402121 C35.5988629,50.8671192 35.6727504,50.7035882 35.7856856,50.566819 L36.9113261,49.2036211 C37.2992476,48.733832 38.0135365,48.7171551 38.4229602,49.1683283 L39.040966,49.849353 L38.9277499,47.1664815 C38.903767,46.5981595 39.3580329,46.1243194 39.9268607,46.1243194 L94,46.1243194 L94,2 L2,2 L2,12.639956 L4.26173987,15.9209385 C4.37679667,16.0878452 4.43840904,16.2857791 4.43840904,16.4885003 L4.43840904,19.2219463 L7.09059003,20.835858 C7.20786534,20.9072226 7.30919061,21.0019701 7.38825467,21.1141988 L10.5587958,25.6146736 L12.2974443,27.0036862 C12.3799307,27.0695848 12.4514609,27.1481303 12.5093774,27.2364043 L12.6699335,27.4811173 L14.8023308,27.4811173 C15.4892599,27.4811173 15.9716584,28.1577837 15.7476815,28.8071726 L13.8858125,34.2053943 L15.0942846,37.0061665 C15.2923515,37.4652094 15.1209668,37.9999964 14.6929761,38.2584048 L13.8140959,38.7890472 L13.8140959,39.8405483 L14.2898853,40.3379354 L16.7152013,38.5448938 C17.1858947,38.1969091 17.8535112,38.325825 18.160805,38.8240379 L19.5897007,41.1406957 C19.6870327,41.2984994 19.7385775,41.4802553 19.7385775,41.6656616 L19.7385775,42.8437809 L22.1753533,46.2095603 C22.3701361,46.4786027 22.4186212,46.8268019 22.3047487,47.138823 L22.0859157,47.7384455 L22.5367431,48.0892954 L22.9038238,48.0892954 C23.1466706,48.0892954 23.3812194,48.1776661 23.5636903,48.3379126 L24.4188981,49.0889586 C24.5729608,49.2242569 24.68171,49.4036432 24.7304124,49.6028141 L25.4336011,52.4595829 L25.5916075,52.2838738 Z"></path></svg>