<svg fill="#FFFFFF" xmlns="http://www.w3.org/2000/svg" xmlns:xlink="http://www.w3.org/1999/xlink" version="1.1" x="0px" y="0px" viewBox="0 0 100 100" enable-background="new 0 0 100 100" xml:space="preserve"><g><path d="M52.586,55.137l12.289,11.785c1.766,0.187,3.698-0.538,5.356-0.269c0.115-1.042,1.238-2.312,1.646-3.24   c0.604-1.376,1.153-2.175,2.282-3.269c2.275-2.206,5.263-4.314,8.436-3.813c0.33,0.052,0.823,0.053,1.127,0.214   c0.567,0.301,0.293,0.816,1.044,0.798c1.48-0.036,1.406-2.275,1.984-3.092c0.479-0.675,2.259-1.765,0.126-1.932   c-0.821-0.064-1.974,0.586-2.976,0.465c-0.838-2.163,1.979-1.842,1.955-3.465c-0.379-0.151-1.285-0.166-1.482-0.507   c-0.573-0.99,0.612-1.467,1.377-1.518c1.516-0.1,2.484,1.261,3.525,0.011c0.648-0.779,0.733-1.637,1.509-2.389   c0.697-0.677,0.96-0.734,1.098-1.845c0.06-0.482,0.062-1.217-0.104-1.653c-0.351-0.919-0.392-0.594-1.027-0.747   c-0.94-0.227-2.104-0.375-3.375-0.124c-1.345,0.265-2.421,0.567-3.753,0.269c-0.308-0.069-1.231,0.477-0.731-0.52   c0.455-0.904,1.923-0.581,2.646-0.747c1.446-0.333,2.384-1.334,3.608-1.655c1.254-0.329,1.564-0.666,1.204-2.122   c-0.139-0.562-0.45-1.978-0.85-2.351l-56.375-0.375c0.392,0.416-0.197,0.115-0.5,0.375c-0.366,0.313-0.399,0.048-0.715,0.625   c-0.362,0.662-0.032,1.361-0.438,1.975c0.053-0.079-0.896,0.409-0.877,0.397c-0.196,0.118-0.362,0.48-0.593,0.628   c-0.392,0.249-0.815-0.024-1.227,0.403c-0.173,0.18,0.046,0.651-0.116,0.881c-1.101,1.558-2.348-0.878-3.93,0.395   c-0.937,0.752-0.626,1.595-1.979,1.571c-0.854-0.015-1.02-0.386-1.625-0.891c-0.443,0.481-1.126,0.607-1.497,1   c-0.559,0.593-0.593,1.585-1.374,2.02c-0.648,0.36-1.672,0.086-2.406,0.462c-0.805,0.412-0.769,1.283-1.467,1.665   c-0.42,0.23-1.9,0.312-2.384,0.372c-0.648,0.08-1.142-0.01-1.845,0.198c-2.062,0.609-1.875,1.148-2.421,3.027   c-0.387,0.074-0.899,0.137-1.225,0.362c-0.846,0.588-0.213,0.44-0.629,1.29c-0.229,0.467-0.446,0.431-0.722,0.873   c-0.147,0.237-0.24,1.24-0.281,0.746L18,51.672c0.495,0.208,1.932-0.274,2.507-0.463c0.36-0.118,0.557-0.435,0.993-0.536   c0.395-0.093,0.859,0.1,1.25,0.002c1.143-0.284,1.466-0.924,2.757-0.878c1.379,0.05,2.752,0.148,4.12,0.278   c1.592,0.15,3.248-0.069,4.846,0.097c1.257,0.131,2.666,0.599,3.911,0.879c1.257,0.282,1.268,0.58,1.734,1.621   c0.344,0.766,1.032,1.584,0.9,2.465H52.586z"></path></g></svg>