<svg fill="#B36AE2" xmlns="http://www.w3.org/2000/svg" xmlns:xlink="http://www.w3.org/1999/xlink" version="1.1" x="0px" y="0px" viewBox="0 0 65 65" enable-background="new 0 0 65 65" xml:space="preserve"><path d="M63.36,47.059l-0.834-1.137l-0.973-1.459l0.031-0.736c0.006-0.131-0.022-0.261-0.083-0.377l-0.559-1.064l-0.772-2.114  l-0.164-2.747c-0.004-0.067-0.018-0.134-0.039-0.197l-0.569-1.666l-0.204-2.047c-0.011-0.114-0.049-0.224-0.109-0.322l-0.911-1.468  l-0.426-1.969l-1.175-3.315l-0.416-2.203c-0.071-0.375-0.4-0.647-0.793-0.609l-0.622,0.046l-0.184-0.417l-0.214-0.683  c-0.058-0.184-0.185-0.339-0.354-0.433l-1.236-0.683c-0.044-0.024-0.091-0.044-0.139-0.059l-1.977-0.618l-0.873-0.477  c-0.119-0.065-0.258-0.103-0.389-0.091l-1.159,0.047l-1.578,0.17c-0.043,0.004-0.085,0.013-0.126,0.024l-1.452,0.416l-2.226-1.521  l-0.898-0.817c-0.148-0.135-0.346-0.2-0.547-0.194l-4.479,0.256L19.22,17.572L4.04,16.634c-0.411-0.031-0.753,0.273-0.793,0.675  L1.413,35.945c-0.041,0.412,0.26,0.778,0.672,0.819l13.393,1.336l-0.549,8.272c-0.013,0.201,0.055,0.399,0.189,0.55  s0.323,0.24,0.524,0.249l9.266,0.428l17.325,0.512l18.688,0.256h1.92c0.008,0,0.015,0.001,0.02,0c0.415,0,0.75-0.336,0.75-0.75  C63.61,47.396,63.515,47.195,63.36,47.059z M42.267,46.611l-17.302-0.511l-8.489-0.392l0.547-8.233  c0.026-0.403-0.271-0.756-0.674-0.796l-13.37-1.333l1.69-17.171l14.461,0.893l17.782,1.025l4.25-0.238l0.704,0.641  c0.026,0.023,0.053,0.045,0.082,0.064l2.56,1.749c0.185,0.126,0.416,0.162,0.629,0.102l1.729-0.495l1.463-0.159l0.901-0.035  l0.757,0.413c0.043,0.023,0.089,0.042,0.136,0.057l1.975,0.617l0.908,0.501l0.577,1.45c0.127,0.292,0.429,0.471,0.743,0.449  l0.482-0.036l0.302,1.602c0.008,0.038,0.018,0.075,0.03,0.111l1.168,3.275l0.427,2.004c0.018,0.085,0.051,0.166,0.097,0.24  l0.889,1.43l0.195,1.959c0.006,0.058,0.018,0.113,0.036,0.168l0.564,1.652l0.164,2.755c0.005,0.072,0.02,0.145,0.045,0.213  l0.849,2.305l0.505,0.975l-0.033,0.78c-0.007,0.159,0.037,0.315,0.125,0.448l1.128,1.69l0.063,0.086L42.267,46.611z"></path></svg>