<svg fill="#B36AE2" xmlns="http://www.w3.org/2000/svg" xmlns:xlink="http://www.w3.org/1999/xlink" version="1.1" x="0px" y="0px" viewBox="0 0 65 65" enable-background="new 0 0 65 65" xml:space="preserve"><path d="M56.974,7.402c0.005-0.041-0.008-0.078-0.009-0.118c-0.003-0.055,0-0.11-0.014-0.162c-0.011-0.044-0.035-0.081-0.054-0.122  c-0.022-0.046-0.039-0.095-0.069-0.136c-0.028-0.037-0.065-0.063-0.1-0.095C56.692,6.737,56.66,6.7,56.617,6.674  c-0.042-0.025-0.09-0.036-0.137-0.053c-0.041-0.015-0.078-0.04-0.123-0.048c-0.007-0.001-0.014,0.001-0.021,0  c-0.006-0.001-0.011-0.005-0.018-0.006L11.705,1.193c-0.038-0.004-0.072,0.008-0.108,0.009c-0.059,0.001-0.117,0-0.172,0.015  c-0.036,0.009-0.066,0.029-0.101,0.043c-0.054,0.023-0.107,0.044-0.154,0.079c-0.036,0.026-0.062,0.062-0.093,0.095  c-0.034,0.037-0.071,0.069-0.097,0.113c-0.026,0.042-0.039,0.092-0.057,0.141c-0.014,0.039-0.038,0.072-0.045,0.113L8.033,17.103  c-0.004,0.023,0.003,0.045,0.001,0.069c-0.002,0.024-0.014,0.044-0.014,0.068c0,0.028,0.013,0.052,0.016,0.079  c0.005,0.051,0.014,0.099,0.03,0.147c0.015,0.046,0.033,0.087,0.056,0.129c0.023,0.042,0.049,0.081,0.08,0.118  s0.063,0.069,0.101,0.099c0.037,0.03,0.074,0.056,0.117,0.079c0.044,0.024,0.09,0.042,0.139,0.056  c0.026,0.008,0.047,0.025,0.075,0.03c0.046,0.009,0.092,0.012,0.136,0.013c0,0,0,0,0.001,0h0.796l-1.408,1.99  c-0.006,0.008-0.006,0.018-0.012,0.026c-0.03,0.045-0.045,0.095-0.064,0.146c-0.016,0.042-0.037,0.082-0.045,0.125  c-0.009,0.047-0.003,0.094-0.003,0.142c0,0.048-0.004,0.095,0.005,0.143c0.008,0.042,0.03,0.081,0.046,0.122  c0.02,0.051,0.037,0.102,0.068,0.147c0.005,0.008,0.006,0.018,0.012,0.025l31.214,42.65c0.005,0.007,0.014,0.009,0.019,0.016  c0.064,0.083,0.144,0.148,0.233,0.196c0.019,0.01,0.036,0.017,0.056,0.024c0.094,0.042,0.193,0.07,0.298,0.07c0,0,0,0,0.001,0l0,0  c0.094,0,0.187-0.024,0.276-0.06c0.011-0.005,0.023-0.003,0.034-0.008c0.028-0.013,0.05-0.035,0.077-0.05  c0.018-0.011,0.038-0.015,0.055-0.027c0.007-0.005,0.009-0.012,0.016-0.017c0.886-0.542,1.13-1.965,1.38-3.478  c0.055-0.334,0.109-0.662,0.169-0.964c0.296-1.479-0.049-2.073-0.684-2.998c-0.111-0.163-0.235-0.344-0.369-0.553  c-0.248-0.39-0.228-0.698-0.167-0.888c0.068-0.214,0.203-0.325,0.186-0.334c1.055,0,2.289-1.337,2.643-2.223  c0.376-0.941-0.537-1.537-1.204-1.972c-0.499-0.326-1.062-0.692-1.306-1.14c0.529-0.576,3.641-1.291,5.257-1.291  c0.827,0,1.592,1.505,1.832,2.234c0.108,0.325,0.409,0.548,0.769,0.513c0.343-0.025,0.625-0.28,0.684-0.619l7.336-42.5  c0.001-0.007-0.002-0.013-0.001-0.02C56.969,7.414,56.973,7.409,56.974,7.402z M48.525,47.537c-0.523-0.661-1.244-1.225-2.177-1.225  c-1.064,0-5.576,0.53-6.56,2.033c-0.259,0.396-0.3,0.846-0.116,1.267c0.392,0.9,1.231,1.447,1.905,1.888  c0.173,0.112,0.391,0.254,0.528,0.363c-0.295,0.495-0.917,1.034-1.147,1.074c-0.56,0-1.112,0.374-1.442,0.977  c-0.425,0.775-0.365,1.729,0.16,2.552c0.144,0.226,0.276,0.419,0.396,0.594c0.513,0.749,0.635,0.927,0.449,1.856  c-0.063,0.317-0.12,0.663-0.179,1.014c-0.078,0.474-0.211,1.274-0.377,1.837L9.694,20.406l1.934-2.732  c0.016-0.022,0.019-0.048,0.032-0.071c0.025-0.044,0.045-0.088,0.061-0.137c0.016-0.05,0.025-0.098,0.03-0.149  c0.003-0.026,0.015-0.048,0.015-0.075c0-0.021-0.01-0.039-0.012-0.06c-0.004-0.052-0.016-0.101-0.03-0.151  c-0.014-0.045-0.027-0.088-0.049-0.129c-0.022-0.042-0.049-0.079-0.079-0.116c-0.032-0.041-0.064-0.077-0.104-0.11  c-0.017-0.014-0.025-0.033-0.043-0.045c-0.022-0.016-0.048-0.019-0.071-0.031c-0.044-0.025-0.088-0.045-0.138-0.061  c-0.049-0.016-0.097-0.024-0.146-0.03c-0.027-0.003-0.05-0.016-0.078-0.016H9.673l2.551-13.724l43.132,5.197L48.525,47.537z"></path></svg>