<svg fill="#B36AE2" xmlns="http://www.w3.org/2000/svg" xmlns:xlink="http://www.w3.org/1999/xlink" version="1.1" x="0px" y="0px" viewBox="0 0 65 65" enable-background="new 0 0 65 65" xml:space="preserve"><path d="M46.316,36.359l-0.578-1.06L45.52,25.044c-0.002-0.105-0.026-0.208-0.071-0.303l-1.777-3.775  c-0.096-0.203-0.276-0.352-0.492-0.407c-0.217-0.055-0.446-0.012-0.628,0.12l-1.059,0.771l-1.831,0.204l2.614-2.366  c0.175-0.158,0.265-0.388,0.244-0.623l-0.437-4.895l0.537-2.897c0.011-0.059,0.015-0.119,0.012-0.178l-0.11-1.999  c-0.016-0.273-0.178-0.516-0.425-0.635L39.32,6.729c-0.035-0.017-0.072-0.031-0.11-0.042l-7.016-2.077l-6.218-2.776  c-0.312-0.139-0.676-0.05-0.89,0.214l-2.776,3.443c-0.107,0.133-0.166,0.299-0.166,0.471v3.23l-2,3.263  c-0.05,0.082-0.084,0.173-0.1,0.268l-0.223,1.332c-0.04,0.239,0.038,0.482,0.209,0.654l1.204,1.203l-0.169,2.452l-2.06,1.03  c-0.331,0.165-0.491,0.546-0.379,0.898l0.755,2.372l0.103,0.925c0.039,0.349,0.314,0.624,0.663,0.663l2.539,0.282l0.95,2.564  c0.055,0.148,0.154,0.274,0.285,0.362l6.441,4.329v0.616l-3.436,3.332c-0.033,0.032-0.063,0.067-0.09,0.104l-1.917,2.71l-1.772,2.92  l-2.796,1.347c-0.244,0.117-0.405,0.356-0.423,0.625l-0.107,1.592l-0.757,2.816c-0.048,0.177-0.029,0.365,0.053,0.529l1.11,2.222  c0.042,0.084,0.098,0.158,0.167,0.221l3.553,3.22c0.054,0.049,0.114,0.09,0.179,0.121l5.33,2.554  c0.067,0.032,0.139,0.054,0.213,0.065l3.883,0.582l0.105,0.789l-0.688,0.86c-0.124,0.155-0.182,0.354-0.16,0.552l0.334,2.998  c0.042,0.38,0.364,0.667,0.746,0.667h0.889c0.217,0,0.422-0.094,0.564-0.256l2.33-2.665c0.092-0.105,0.152-0.233,0.176-0.371  l0.861-5.169l2.907-4.307c0.021-0.031,0.039-0.063,0.055-0.097l3.441-7.218c0.027-0.057,0.047-0.115,0.059-0.176l1.223-6.107  C46.428,36.693,46.4,36.514,46.316,36.359z M43.719,42.588l-3.378,7.083l-2.967,4.396c-0.06,0.09-0.1,0.19-0.118,0.297l-0.854,5.12  l-1.856,2.123l-0.211-1.897l0.694-0.868c0.128-0.16,0.185-0.365,0.157-0.568l-0.223-1.665c-0.044-0.331-0.302-0.593-0.632-0.643  l-4.33-0.648l-5.13-2.458l-3.368-3.052l-0.92-1.841l0.702-2.612c0.013-0.047,0.021-0.095,0.024-0.144l0.083-1.229l2.604-1.254  c0.131-0.063,0.241-0.162,0.316-0.286l1.858-3.065l1.848-2.609l3.614-3.504c0.146-0.142,0.228-0.335,0.228-0.539V31.39  c0-0.25-0.125-0.483-0.332-0.623l-6.572-4.417l-1.026-2.771c-0.098-0.266-0.338-0.454-0.62-0.485l-2.402-0.267l-0.044-0.403  c-0.006-0.049-0.016-0.098-0.031-0.145l-0.583-1.831l1.87-0.935c0.237-0.119,0.395-0.354,0.413-0.619l0.222-3.22  c0.015-0.216-0.064-0.429-0.218-0.582l-1.172-1.171l0.135-0.807l2.034-3.319c0.072-0.118,0.11-0.253,0.11-0.392V6.226l2.248-2.788  l5.783,2.575l7.05,2.094l2.322,1.115l0.081,1.466l-0.539,2.91c-0.013,0.067-0.016,0.135-0.01,0.203l0.412,4.625l-3.278,2.97  c-0.151,0.138-0.24,0.332-0.245,0.537c-0.005,0.205,0.074,0.403,0.219,0.548l0.555,0.556c0.161,0.161,0.383,0.241,0.614,0.216  l2.999-0.333c0.13-0.015,0.253-0.063,0.358-0.139l0.486-0.354l1.323,2.81l0.219,10.279c0.003,0.12,0.034,0.238,0.092,0.344  l0.535,0.98L43.719,42.588z"></path></svg>