<svg fill="#B36AE2" xmlns="http://www.w3.org/2000/svg" xmlns:xlink="http://www.w3.org/1999/xlink" version="1.1" x="0px" y="0px" viewBox="0 0 65 65" enable-background="new 0 0 65 65" xml:space="preserve"><path d="M61.715,50.678c0.03-0.044,0.062-0.084,0.082-0.133c0.017-0.04,0.02-0.083,0.029-0.125c0.01-0.046,0.029-0.087,0.031-0.135  c0-0.011-0.005-0.02-0.005-0.029c0-0.009,0.004-0.017,0.004-0.025L60.099,6.122c-0.002-0.041-0.02-0.075-0.026-0.113  c-0.01-0.046-0.015-0.091-0.032-0.134c-0.021-0.057-0.055-0.104-0.089-0.153c-0.02-0.027-0.035-0.056-0.058-0.081  c-0.044-0.047-0.096-0.083-0.151-0.117c-0.027-0.018-0.052-0.037-0.082-0.051c-0.052-0.023-0.107-0.034-0.166-0.045  c-0.032-0.007-0.062-0.023-0.096-0.026L8.212,2.084c-0.03-0.002-0.059,0.01-0.088,0.012c-0.367,0.019-0.68,0.301-0.708,0.681  L3.145,60.355c-0.003,0.042,0.011,0.08,0.015,0.121c0.004,0.05,0.004,0.099,0.019,0.146c0.014,0.048,0.039,0.088,0.062,0.131  c0.022,0.042,0.04,0.085,0.069,0.122c0.031,0.039,0.07,0.067,0.108,0.1c0.035,0.029,0.067,0.062,0.108,0.085  c0.045,0.025,0.096,0.037,0.146,0.054c0.037,0.012,0.068,0.033,0.108,0.039l11.492,1.756c0.038,0.006,0.076,0.009,0.113,0.009h0  c0,0,0,0,0,0c0,0,0,0,0,0c0.097,0,0.189-0.021,0.276-0.056c0.03-0.013,0.054-0.032,0.082-0.048c0.053-0.03,0.104-0.06,0.148-0.101  c0.027-0.025,0.046-0.055,0.069-0.084c0.035-0.043,0.067-0.085,0.091-0.136c0.018-0.036,0.028-0.075,0.04-0.114  c0.01-0.033,0.029-0.063,0.034-0.099c0.003-0.02-0.004-0.037-0.002-0.057s0.011-0.036,0.011-0.057v-8.164l16.17,1.3  c0.02,0.001,0.039,0.002,0.059,0.002c0,0,0,0,0,0s0,0,0,0c0,0,0,0,0.001,0c0.001,0,0.002-0.001,0.003-0.001  c0.061,0,0.122-0.007,0.184-0.022c0.016-0.004,0.026-0.016,0.042-0.021c0.053-0.017,0.099-0.043,0.146-0.071  c0.036-0.021,0.072-0.038,0.103-0.064c0.04-0.033,0.07-0.074,0.103-0.115c0.025-0.033,0.054-0.063,0.074-0.099  c0.023-0.044,0.035-0.092,0.049-0.14c0.014-0.044,0.031-0.085,0.037-0.132c0.001-0.009,0.006-0.016,0.007-0.024  c0.003-0.043-0.011-0.082-0.015-0.124c-0.004-0.042,0.004-0.082-0.007-0.124l-1.111-4.3l29.102,0.943c0.009,0,0.017,0,0.024,0l0,0  c0.011,0,0.02,0,0.03-0.001c0.04-0.002,0.073-0.02,0.111-0.027c0.055-0.011,0.109-0.017,0.159-0.038  c0.042-0.019,0.075-0.048,0.112-0.073c0.042-0.028,0.085-0.053,0.121-0.089C61.672,50.751,61.69,50.713,61.715,50.678z   M60.326,49.484l-29.297-0.949c-0.026,0.001-0.049,0.013-0.074,0.017c-0.046,0.003-0.091-0.005-0.138,0.007  c-0.221,0.058-0.385,0.211-0.478,0.4c-0.014,0.026-0.019,0.055-0.029,0.083c-0.021,0.059-0.039,0.116-0.045,0.179  c-0.001,0.015-0.009,0.025-0.01,0.04c-0.001,0.037,0.014,0.069,0.018,0.105s-0.003,0.07,0.006,0.106l1.098,4.25l-15.931-1.281  c-0.01,0-0.019,0.004-0.029,0.004c-0.011,0-0.02-0.006-0.031-0.006c-0.074,0-0.141,0.022-0.208,0.042  c-0.009,0.003-0.02,0.003-0.028,0.006c-0.086,0.028-0.161,0.072-0.23,0.128c-0.007,0.006-0.015,0.009-0.021,0.015  c-0.053,0.046-0.093,0.101-0.131,0.159c-0.018,0.027-0.039,0.05-0.053,0.078c-0.023,0.049-0.033,0.102-0.045,0.155  c-0.009,0.036-0.028,0.067-0.031,0.106c-0.001,0.011,0.004,0.02,0.004,0.03c0,0.011-0.006,0.02-0.006,0.03v8.104l-9.943-1.52  L8.857,3.63l49.771,3.227L60.326,49.484z"></path></svg>