<svg fill="#FFFFFF" xmlns="http://www.w3.org/2000/svg" xmlns:xlink="http://www.w3.org/1999/xlink" version="1.1" x="0px" y="0px" viewBox="5 0 90 100" enable-background="new 5 0 90 100" xml:space="preserve"><path d="M94.266,0H5.736C5.731,33.305,5.729,66.609,5.724,99.915v0.084c4.061,0.002,8.121,0.001,12.182-0.004  c-0.001-2.565-0.003-5.134-0.005-7.7c8.288,0.023,16.576,0.047,24.864,0.069l0.163,0.06l0.194,0.194l-0.872-0.907l-0.194-0.128  h0.004l-0.205-0.035l-0.167-0.094l-0.136-0.147l-0.104-0.203l0.111-0.125l-0.361-0.524L41.09,90.15l-0.042-0.393l-0.076-0.365  l-0.31-0.621l-0.011-0.289c17.556-0.012,35.111-0.018,52.666-0.023c0.123-26.344,0.235-52.688,0.354-79.031L93.66,9.101l0.615-0.01  C94.271,6.061,94.27,3.03,94.266,0z"></path></svg>