<svg fill="#B36AE2" xmlns="http://www.w3.org/2000/svg" xmlns:xlink="http://www.w3.org/1999/xlink" version="1.1" x="0px" y="0px" viewBox="0 0 65 65" enable-background="new 0 0 65 65" xml:space="preserve"><path d="M63.865,28.869l-0.159-1.741c-0.009-0.091-0.033-0.18-0.074-0.262l-1.067-2.178c-0.125-0.254-0.378-0.41-0.649-0.419  c-0.037-0.096-0.094-0.183-0.167-0.256l-0.876-0.875l-1.336-2.407l-0.792-1.9c-0.139-0.333-0.493-0.519-0.85-0.445l-22.713,4.86  l-15.177,2.208l-1.678-0.039c-0.428,0.001-0.755,0.316-0.767,0.729l-0.037,1.293l-0.119,0.427l-0.842,0.808  c-0.069,0.066-0.125,0.146-0.165,0.233l-0.487,1.083l-0.485-0.056c-0.087-0.011-0.173-0.005-0.257,0.015l-0.672,0.158  c-0.185,0.043-0.347,0.156-0.452,0.314l-0.706,1.058l-0.198-0.016l-0.075-0.107c-0.125-0.177-0.319-0.292-0.535-0.315  c-0.217-0.025-0.43,0.048-0.589,0.195l-1.623,1.504c-0.112,0.104-0.19,0.24-0.223,0.39l-0.203,0.924l-1.431,0.748  c-0.046,0.024-0.089,0.053-0.129,0.086l-1.687,1.388l-1.43,0.55c-0.047,0.019-0.093,0.041-0.135,0.068l-1.544,0.989  c-0.175,0.112-0.296,0.292-0.333,0.496l-0.19,1.035l-0.606,0.157c-0.097,0.024-0.188,0.069-0.267,0.13l-0.673,0.515  c-0.181,0.138-0.289,0.351-0.294,0.577l-0.04,1.622c-0.005,0.216,0.083,0.423,0.241,0.569c0.159,0.146,0.373,0.22,0.586,0.195  l5.363-0.563l2.572-0.475c0.048-0.009,0.095-0.022,0.141-0.04l2.745-1.092l3.529-1.727l2.735-0.335l6.339-0.19l0.77,0.604  l0.558,1.049c0.146,0.275,0.446,0.43,0.756,0.392l6.429-0.814l0.98,0.254l4.889,2.963l3.997,3.254  c0.136,0.11,0.304,0.168,0.474,0.168c0.07,0,0.142-0.01,0.212-0.03l1.954-0.575l1.793-0.19c0.324-0.035,0.59-0.275,0.655-0.595  l0.182-0.891L49.75,41.9l1.212-1.676l2.423-1.977l1.899-0.877l0.745-0.166l0.207,0.095c0.098,0.044,0.203,0.067,0.311,0.067h0.515  c0.255,0,0.492-0.129,0.63-0.343l1.261-1.958l0.752-1.425c0.109-0.207,0.114-0.447,0.022-0.654l0.29,0.052  c0.256,0.044,0.512-0.043,0.686-0.231l0.371-0.412l1.024-0.877l1.244-0.55c0.258-0.114,0.43-0.361,0.446-0.642l0.079-1.346  C63.869,28.944,63.868,28.907,63.865,28.869z M56.666,35.848l-0.244-0.111c-0.148-0.068-0.316-0.085-0.474-0.05l-1.068,0.237  c-0.052,0.012-0.103,0.029-0.151,0.052l-2.059,0.95c-0.057,0.026-0.11,0.06-0.159,0.1l-2.572,2.099  c-0.051,0.041-0.096,0.089-0.134,0.142l-1.346,1.86c-0.051,0.069-0.088,0.146-0.112,0.229l-0.769,2.632L47.492,44.4l-1.315,0.14  c-0.045,0.005-0.089,0.014-0.133,0.026l-1.641,0.482l-3.73-3.037c-0.027-0.021-0.056-0.041-0.085-0.06l-5.027-3.047  c-0.063-0.038-0.13-0.066-0.201-0.085l-1.227-0.317c-0.062-0.016-0.124-0.023-0.188-0.023c-0.031,0-0.063,0.002-0.094,0.006  l-6.059,0.768l-0.39-0.732c-0.049-0.092-0.117-0.173-0.199-0.237l-1.108-0.87c-0.138-0.108-0.308-0.16-0.486-0.16l-6.679,0.204  l-2.929,0.355c-0.083,0.01-0.164,0.033-0.239,0.07l-3.589,1.759L9.55,40.684l-2.441,0.452l-4.457,0.465l0.01-0.409l0.267-0.205  l0.923-0.239c0.282-0.073,0.497-0.303,0.549-0.59l0.217-1.185L5.825,38.2l1.473-0.566c0.075-0.029,0.145-0.07,0.208-0.121  l1.721-1.415l1.672-0.874c0.197-0.104,0.338-0.288,0.385-0.504l0.228-1.037l0.89-0.825c0.083,0.041,0.174,0.066,0.268,0.073  l0.989,0.079c0.286,0.021,0.534-0.106,0.684-0.332l0.786-1.179l0.257-0.06l0.9,0.103c0.323,0.039,0.636-0.139,0.77-0.438l0.652-1.45  l0.885-0.85c0.097-0.093,0.167-0.21,0.203-0.34l0.198-0.713c0.016-0.059,0.025-0.119,0.027-0.18l0.019-0.639l0.996,0.023  c0.043-0.001,0.084-0.001,0.125-0.008l15.289-2.227l22.153-4.739l0.587,1.4l1.424,2.574c0.034,0.062,0.076,0.118,0.126,0.168  l0.666,0.665c-0.293,0.041-0.536,0.25-0.618,0.535c-0.085,0.295,0.019,0.612,0.26,0.8l-0.059,0.829l-0.647,0.322  c-0.188,0.094-0.329,0.264-0.387,0.466l-0.222,0.78l-0.374,0.833l-1.008,0.437l-1.127-0.144l-0.467-0.38  c-0.247-0.202-0.598-0.224-0.87-0.055c-0.271,0.169-0.406,0.492-0.335,0.805l0.1,0.432v0.311c0,0.414,0.336,0.75,0.75,0.75h0.215  l-0.615,2.041c-0.068,0.228-0.025,0.474,0.116,0.664c0.141,0.19,0.364,0.303,0.602,0.303h1.141l0.056,0.146  c0.056,0.149,0.156,0.274,0.285,0.36L56.666,35.848z M61.902,29.439l-0.171,0.068c-0.07,0.028-0.136,0.066-0.194,0.114l-1.315,1.071  l-1.028,0.99c-0.203,0.195-0.279,0.488-0.197,0.758c0.011,0.035,0.023,0.068,0.039,0.101c-0.089,0-0.178,0.017-0.264,0.05  l-0.515,0.198c-0.098,0.038-0.187,0.095-0.261,0.169l-0.19,0.191c-0.123-0.085-0.271-0.134-0.428-0.134h-0.651l0.46-1.526  c0.021-0.067,0.031-0.135,0.032-0.203l0.146,0.019c0.135,0.017,0.27-0.002,0.392-0.056l1.464-0.634  c0.172-0.075,0.31-0.21,0.387-0.381l0.516-1.148c0.015-0.033,0.027-0.067,0.037-0.102l0.146-0.514l0.734-0.366  c0.237-0.119,0.395-0.354,0.413-0.618l0.056-0.789l0.209,0.319l0.212,2.158L61.902,29.439z"></path></svg>