<svg fill="#B36AE2" xmlns="http://www.w3.org/2000/svg" xmlns:xlink="http://www.w3.org/1999/xlink" version="1.1" x="0px" y="0px" viewBox="0 0 65 65" enable-background="new 0 0 65 65" xml:space="preserve"><path d="M62.87,40.189c-0.224-0.137-0.5-0.148-0.731-0.031c-0.434,0.219-0.994,0.388-1.262,0.376  c-0.054-0.942,0.652-5.188,1.403-8.941c0.064-0.322-0.088-0.648-0.376-0.806c-0.289-0.157-0.646-0.11-0.882,0.12  c-0.055,0.054-0.136,0.118-0.216,0.172c-0.127-0.41-0.343-0.804-0.553-1.187c-0.166-0.303-0.444-0.81-0.432-0.934  c0.084-0.051,2.062-1.263,1.954-2.487c-0.037-0.421-0.311-0.77-0.731-0.932c-0.104-0.042-0.388-0.353-0.573-0.874  c-0.161-0.449-0.137-0.746-0.102-0.812c0.103-0.171,0.628-0.505,0.91-0.685c0.662-0.421,1.186-0.754,1.141-1.371  c-0.012-0.158-0.091-0.55-0.566-0.763C61.79,21,61.592,20.782,61.528,20.39c-0.056-0.339,0.003-0.856,0.478-1.43  c0.212-0.13,0.363-0.352,0.367-0.62c0.006-0.414-0.325-0.754-0.739-0.76c-18.122-0.249-36.461-1.077-54.508-2.463  c-0.067-0.008-0.129,0.008-0.192,0.019c-0.021,0.004-0.043,0-0.063,0.006c-0.081,0.021-0.152,0.06-0.22,0.106  c-0.012,0.008-0.026,0.012-0.038,0.021C6.56,15.311,6.52,15.362,6.48,15.416c-0.021,0.026-0.044,0.049-0.061,0.078  c-0.026,0.046-0.038,0.098-0.053,0.15c-0.012,0.038-0.034,0.071-0.04,0.112L1.781,46.92c-0.001,0.009,0.002,0.018,0.001,0.026  c-0.001,0.008-0.006,0.015-0.007,0.023c-0.003,0.043,0.011,0.081,0.015,0.122c0.004,0.051,0.004,0.102,0.018,0.148  c0.014,0.048,0.04,0.087,0.063,0.13s0.04,0.086,0.07,0.124c0.03,0.037,0.068,0.063,0.104,0.095c0.037,0.031,0.07,0.065,0.114,0.09  c0.043,0.024,0.092,0.034,0.14,0.05c0.04,0.013,0.074,0.036,0.117,0.042c0.013,0.002,0.026,0.002,0.039,0.003  c0.004,0,0.007,0.003,0.011,0.003c18.044,1.415,35.646,2.109,53.609,2.109c2.13,0,4.268-0.01,6.409-0.029  c0.05-0.001,0.094-0.021,0.142-0.03c0.049-0.01,0.102-0.012,0.146-0.03c0.045-0.02,0.08-0.054,0.119-0.081  c0.04-0.027,0.085-0.047,0.118-0.081c0.035-0.035,0.056-0.082,0.084-0.124c0.025-0.038,0.058-0.071,0.075-0.114  c0.021-0.048,0.021-0.103,0.031-0.154c0.009-0.045,0.027-0.087,0.027-0.135v-8.278C63.227,40.567,63.092,40.326,62.87,40.189z   M3.382,46.339L7.71,16.66c17.391,1.322,35.041,2.122,52.508,2.39c-0.267,0.702-0.227,1.318-0.149,1.696  c0.085,0.416,0.262,0.799,0.495,1.102c-0.031,0.02-0.061,0.039-0.088,0.056c-0.52,0.33-1.107,0.705-1.393,1.18  c-0.411,0.687-0.201,1.575-0.04,2.044c0.198,0.573,0.578,1.244,1.103,1.617c-0.198,0.249-0.586,0.62-1.101,0.932  c-1.29,0.781-0.52,2.185-0.106,2.939c0.194,0.354,0.396,0.721,0.46,1c0.166,0.723,0.617,0.957,0.872,1.032  c0.089,0.026,0.178,0.041,0.266,0.046c-0.562,2.917-1.354,7.427-1.094,8.342c0.113,0.395,0.379,0.7,0.748,0.861  c0.466,0.204,1.037,0.146,1.536,0.016v6.447C42.095,48.518,22.993,47.856,3.382,46.339z"></path></svg>