<svg fill="#B36AE2" xmlns="http://www.w3.org/2000/svg" xmlns:xlink="http://www.w3.org/1999/xlink" version="1.1" x="0px" y="0px" viewBox="0 0 65 65" enable-background="new 0 0 65 65" xml:space="preserve"><path d="M62.845,47.441l-1.99-0.758c-0.292-0.111-0.626-0.028-0.833,0.21l-0.562,0.653l-1.295,1.204l-3.457,1.708l-0.781-0.068  l-0.661-0.248c-0.206-0.077-0.432-0.063-0.622,0.044l-0.521,0.284c-0.077,0.041-0.146,0.097-0.204,0.161l-0.492,0.563l-0.187-0.335  c-0.019-0.033-0.04-0.064-0.063-0.095l-0.71-0.914l0.321-0.673c0.048-0.101,0.073-0.211,0.073-0.323v-3.839  c0-0.051-0.005-0.102-0.016-0.15l-1.035-5.128l-0.37-2.485l0.282-5.132v-2.748c0-0.065-0.009-0.129-0.025-0.192l-1.279-4.835  c-0.057-0.216-0.208-0.396-0.411-0.489l-1.172-0.54l0.252-0.9c0.045-0.159,0.036-0.328-0.025-0.481l-0.379-0.948  c-0.014-0.033-0.029-0.066-0.047-0.097l-1.083-1.875l0.405-1.699c0.022-0.096,0.026-0.195,0.011-0.293l-0.381-2.371  c-0.008-0.048-0.02-0.095-0.036-0.141l-1.109-3.006l-0.321-2.244c-0.03-0.216-0.154-0.408-0.338-0.525  c-0.183-0.117-0.408-0.149-0.618-0.087l-3.529,1.05l-1.996,0.665l-1.37-0.085c-0.074-0.005-0.147,0.001-0.22,0.019l-2.609,0.616  c-0.034,0.008-0.066,0.018-0.099,0.031l-1.468,0.569c-0.064,0.025-0.124,0.058-0.179,0.099l-1.138,0.854  c-0.042,0.031-0.08,0.067-0.114,0.106l-1.037,1.189l-1.305,1.79l-1.411,2.194l-0.683,1.319L25.8,19.343l-2.704,2.563  c-0.164,0.155-0.249,0.376-0.232,0.602l0.094,1.232c0.011,0.139,0.06,0.271,0.142,0.384l0.38,0.522  c0.078,0.107,0.182,0.191,0.303,0.245l0.853,0.378c0.091,0.041,0.19,0.063,0.291,0.064l-0.319,0.61  c-0.08,0.152-0.104,0.327-0.071,0.496l0.143,0.711c0.021,0.104,0.063,0.202,0.125,0.288l0.549,0.77l-0.037,0.427l-0.389,0.225  h-0.794c-0.221,0-0.431,0.098-0.574,0.267l-0.758,0.9c-0.03,0.036-0.057,0.074-0.08,0.115l-0.789,1.402l-0.714,0.612L18.99,32.37  c-0.076,0.007-0.15,0.026-0.22,0.056l-1.233,0.521c-0.036,0.015-0.07,0.033-0.103,0.053l-0.77,0.477l-0.315-0.04l-0.751-0.513  c-0.131-0.09-0.28-0.141-0.447-0.13l-3.078,0.103l-1.517,0.237c-0.04,0.006-0.078,0.016-0.116,0.028l-3.992,1.331  c-0.053,0.019-0.105,0.043-0.153,0.072l-1.375,0.853c-0.291,0.181-0.423,0.534-0.321,0.861L5.5,39.171  c0.088,0.284,0.337,0.489,0.633,0.521l0.415,0.046l0.411,0.979l-0.205,0.187c-0.032,0.028-0.061,0.061-0.087,0.094L5.67,42.277  c-0.055,0.071-0.097,0.151-0.124,0.237l-0.179,0.573l-0.701,0.664l-0.786,0.48c-0.099,0.061-0.183,0.144-0.245,0.242l-0.413,0.66  L1.973,46.12c-0.206,0.153-0.318,0.402-0.298,0.658l0.237,3.081c0.016,0.213,0.122,0.408,0.292,0.538  c0.17,0.129,0.386,0.182,0.596,0.142l14.995-2.848l17.805-3.756l0.852,0.851c0.113,0.113,0.26,0.188,0.418,0.211l1.12,0.17  l0.844,2.374c0.05,0.14,0.14,0.261,0.258,0.35l0.949,0.711c0.106,0.08,0.233,0.13,0.367,0.145l1.096,0.122l0.13,0.087  c0.038,0.026,0.079,0.048,0.121,0.066l2.923,1.261l3.022,0.929l0.989,0.495l0.051,0.618l-0.218,1.181  c-0.012,0.064-0.016,0.131-0.011,0.196l0.143,1.802c0.022,0.284,0.204,0.53,0.469,0.637l0.473,0.189  c0.09,0.036,0.185,0.054,0.279,0.054c0.066,0,0.134-0.009,0.199-0.026l1.931-0.532l2.786-0.913l1.232-0.475  c0.063-0.025,0.124-0.059,0.179-0.1l5.214-3.884c0.035-0.026,0.068-0.056,0.099-0.088l1.611-1.708  c0.172-0.183,0.241-0.438,0.186-0.683C63.253,47.73,63.079,47.531,62.845,47.441z M49.361,48.685l-0.448,0.937  c-0.075,0.156-0.092,0.331-0.054,0.494l-0.545-0.273c-0.037-0.019-0.076-0.034-0.115-0.046l-3.005-0.919l-2.782-1.205l-0.226-0.151  c-0.101-0.067-0.216-0.11-0.337-0.123l-1.075-0.119l-0.604-0.453l-0.918-2.583c-0.093-0.261-0.321-0.449-0.595-0.49l-1.321-0.201  l-0.964-0.963c-0.18-0.18-0.438-0.258-0.686-0.203l-18.188,3.836L3.343,48.908l-0.141-1.835l1.081-0.872  c0.059-0.05,0.109-0.108,0.15-0.174l0.38-0.607l0.703-0.43c0.044-0.027,0.086-0.059,0.125-0.095l0.9-0.853  c0.093-0.089,0.162-0.199,0.2-0.321l0.196-0.63l0.873-1.121l0.473-0.431c0.195-0.177,0.282-0.442,0.231-0.7l-0.094-0.474  c-0.01-0.05-0.025-0.098-0.044-0.145l-0.617-1.47c-0.105-0.251-0.338-0.426-0.608-0.455l-0.366-0.041l-0.583-1.87l0.809-0.501  l3.835-1.278l1.365-0.219l2.742-0.087l0.699,0.477c0.098,0.067,0.211,0.11,0.329,0.125l0.758,0.096  c0.169,0.021,0.342-0.016,0.488-0.106l0.947-0.586l1.073-0.454l2.351-0.226c0.154-0.015,0.299-0.076,0.417-0.177l0.995-0.854  c0.066-0.057,0.123-0.125,0.166-0.202l0.819-1.456l0.488-0.58h0.646c0.132,0,0.261-0.035,0.375-0.101l0.901-0.521  c0.212-0.123,0.351-0.341,0.372-0.585l0.094-1.092c0.016-0.178-0.033-0.355-0.137-0.5l-0.617-0.864l-0.059-0.293l0.398-0.761  c0.056-0.107,0.085-0.227,0.085-0.348v-0.711c0-0.414-0.336-0.75-0.75-0.75h-0.695l-0.523-0.232l-0.137-0.188l-0.051-0.665  l2.491-2.361c0.031-0.029,0.059-0.062,0.085-0.096l0.284-0.38c0.024-0.033,0.046-0.068,0.065-0.104l0.675-1.313l1.351-2.097  l1.239-1.703l0.943-1.079l0.993-0.744l1.323-0.513l2.451-0.579l1.404,0.088c0.096,0.009,0.192-0.007,0.284-0.037l2.111-0.704  l2.673-0.794l0.209,1.462c0.007,0.053,0.021,0.104,0.038,0.154l1.112,3.012l0.345,2.151l-0.439,1.845  c-0.045,0.187-0.016,0.383,0.08,0.549l1.205,2.087l0.265,0.662l-0.356,1.272c-0.1,0.355,0.073,0.73,0.408,0.884l1.433,0.659  l1.164,4.399l0.001,2.609l-0.285,5.167c-0.003,0.051,0,0.102,0.007,0.151l0.387,2.594l1.029,5.101V48.685z M60.467,49.288  l-5.081,3.785l-1.1,0.425l-2.716,0.89l-1.469,0.404l-0.073-0.923c0.068,0.007,0.136-0.002,0.204-0.019l0.615-0.142  c0.12-0.027,0.23-0.083,0.323-0.164l0.782-0.686l1.002-1.135l0.104-0.058l0.437,0.164c0.063,0.024,0.131,0.039,0.198,0.045  l1.092,0.096c0.136,0.014,0.274-0.014,0.397-0.074l3.744-1.85c0.065-0.032,0.126-0.074,0.179-0.124l1.431-1.337l0.273-0.314  l0.452,0.172L60.467,49.288z"></path></svg>