<svg fill="#B36AE2" xmlns="http://www.w3.org/2000/svg" xmlns:xlink="http://www.w3.org/1999/xlink" version="1.1" x="0px" y="0px" viewBox="0 0 65 65" enable-background="new 0 0 65 65" xml:space="preserve"><path d="M59.809,23.749c0.194-0.18,0.28-0.449,0.225-0.708l-0.438-2.034l-3.175-18.9c-0.041-0.245-0.199-0.453-0.425-0.557  c-0.224-0.104-0.486-0.091-0.699,0.037l-7.452,4.428c-0.063,0.038-0.121,0.084-0.171,0.139l-2.482,2.702l-2.809,2.739l-2.111,0.529  l-2.141,0.369c-0.066,0.012-0.131,0.032-0.192,0.061l-3.943,1.863l-1.088,0.104l-2.264-2.064c-0.16-0.146-0.372-0.216-0.591-0.191  l-3.594,0.414l-3.323-1.939c-0.147-0.087-0.319-0.123-0.491-0.096l-17.054,2.51c-0.399,0.059-0.68,0.423-0.636,0.824l1.254,11.449  l3.545,30.343c0.046,0.393,0.387,0.689,0.783,0.662l2.879-0.146c0.071-0.004,0.141-0.018,0.208-0.041l1.399-0.485l2.122,1.06  l1.149,2.837c0.113,0.278,0.381,0.463,0.681,0.469l3.661,0.068l1.111,1.234c0.143,0.158,0.345,0.248,0.558,0.248h1.255  c0.133,0,0.263-0.035,0.378-0.102l1.54-0.898l1.813,0.292l0.946,0.821c0.31,0.269,0.776,0.239,1.049-0.064l1.255-1.396l1.482-0.902  l0.926-0.154l0.289,1.301c0.044,0.196,0.165,0.367,0.336,0.474l1.119,0.693l1.92,1.479c0.082,0.063,0.177,0.109,0.277,0.134  l0.59,0.146c0.06,0.015,0.12,0.022,0.181,0.022c0.013,0,0.025,0,0.038-0.001l1.478-0.074c0.103-0.005,0.204-0.031,0.297-0.078  l0.885-0.441c0.254-0.127,0.415-0.387,0.415-0.671V61.04l1.001-0.882c0.158-0.139,0.25-0.337,0.255-0.547l0.072-3.456l0.718-2.743  l0.744-0.51l0.244,0.172l0.683,0.75c0.094,0.104,0.214,0.179,0.348,0.217l0.517,0.148c0.263,0.075,0.546,0.004,0.738-0.191  l0.296-0.297c0.2-0.201,0.27-0.498,0.18-0.767l-0.626-1.877v-1.244l0.678-0.864l1.798-2.595l0.664-0.768l1.187,0.268  c0.206,0.048,0.425,0.003,0.601-0.12l1.552-1.105c0.043-0.031,0.084-0.067,0.12-0.107l2.214-2.438  c0.033-0.037,0.063-0.077,0.089-0.12l1.625-2.73c0.064-0.108,0.101-0.23,0.104-0.356l0.145-3.941l0.373-3.764v-3.396  c0-0.09-0.017-0.179-0.048-0.263l-0.751-2.003l0.623-0.935L59.809,23.749z M57.831,23.533c-0.044,0.041-0.082,0.086-0.115,0.135  l-0.886,1.328c-0.134,0.201-0.163,0.454-0.078,0.679l0.838,2.236l0.004,3.186l-0.372,3.737l-0.141,3.797l-1.488,2.501l-2.109,2.321  l-1.213,0.864l-1.297-0.293c-0.269-0.063-0.551,0.032-0.732,0.24l-1.008,1.171l-1.82,2.623l-0.812,1.033  c-0.104,0.132-0.16,0.295-0.16,0.463v1.625c0,0.081,0.013,0.161,0.039,0.237l0.129,0.388l-0.611-0.429  c-0.256-0.18-0.597-0.18-0.854-0.005l-1.403,0.961c-0.148,0.103-0.256,0.255-0.302,0.429l-0.812,3.1  c-0.015,0.058-0.023,0.116-0.024,0.175l-0.067,3.216l-1.008,0.888c-0.162,0.142-0.255,0.347-0.255,0.563v1.089l-0.329,0.164  l-1.21,0.061l-0.33-0.082l-1.856-1.425l-0.913-0.569l-0.375-1.688c-0.087-0.389-0.47-0.64-0.855-0.577l-1.771,0.295  c-0.095,0.017-0.186,0.05-0.267,0.1l-1.699,1.035c-0.062,0.038-0.119,0.085-0.167,0.139l-0.836,0.93l-0.551-0.479  c-0.105-0.092-0.234-0.151-0.372-0.174l-2.288-0.369c-0.173-0.028-0.347,0.005-0.498,0.093l-1.597,0.931h-0.718l-1.105-1.229  c-0.139-0.154-0.336-0.244-0.543-0.248l-3.491-0.064l-1.07-2.641c-0.069-0.17-0.197-0.308-0.36-0.39l-2.658-1.328  c-0.181-0.091-0.391-0.104-0.582-0.037l-1.596,0.555l-2.07,0.104L7.7,25.257L6.524,14.532l16.077-2.366l3.322,1.935  c0.139,0.08,0.298,0.114,0.461,0.096l3.5-0.403l2.258,2.059c0.156,0.143,0.363,0.214,0.577,0.192l1.55-0.148  c0.086-0.008,0.171-0.031,0.249-0.068l3.97-1.876l2.094-0.363l2.362-0.59c0.129-0.032,0.247-0.098,0.342-0.19l2.981-2.91  l2.436-2.649l6.422-3.813l2.999,17.852l0.354,1.649L57.831,23.533z"></path></svg>