<svg fill="#B36AE2" xmlns="http://www.w3.org/2000/svg" xmlns:xlink="http://www.w3.org/1999/xlink" version="1.1" x="0px" y="0px" viewBox="0 0 65 65" enable-background="new 0 0 65 65" xml:space="preserve"><path d="M63.837,50.63c-0.336-1.005-0.714-8.477-0.481-9.516c0.177-0.792-0.569-7.984-0.898-11.039  c-0.024-0.223-0.146-0.423-0.333-0.546c-0.625-0.412-0.806-2.755-0.576-4.771v-8.76c0.029-0.081,0.051-0.166,0.051-0.257  c-0.002-0.413-0.337-0.747-0.75-0.747c-0.001,0-0.002,0-0.003,0c-19.341,0.072-38.916-0.468-58.2-1.609  c-0.051-0.004-0.095,0.012-0.143,0.018c-0.04,0.005-0.081,0.003-0.12,0.015c-0.071,0.021-0.132,0.056-0.192,0.096  c-0.019,0.012-0.04,0.02-0.057,0.034c-0.053,0.042-0.093,0.095-0.132,0.151c-0.019,0.025-0.04,0.046-0.055,0.074  c-0.026,0.05-0.039,0.105-0.054,0.161c-0.01,0.036-0.03,0.066-0.035,0.104l-0.726,5.601c0,0.001,0,0.001,0,0.002s0,0.001,0,0.002  v0.001c-0.003,0.027,0.006,0.052,0.005,0.079c-0.001,0.074-0.003,0.148,0.016,0.217c0.015,0.054,0.047,0.099,0.073,0.146  c0.019,0.037,0.03,0.078,0.055,0.111c0.026,0.034,0.064,0.056,0.095,0.084c0.04,0.037,0.074,0.079,0.121,0.106  c0.019,0.011,0.042,0.012,0.062,0.021c0.068,0.033,0.138,0.064,0.218,0.075c7.522,1,15.187,1.536,22.797,1.617l-0.604,19.833  c-0.001,0.035,0.013,0.065,0.017,0.1c0.005,0.052,0.009,0.103,0.026,0.152c0.015,0.047,0.039,0.087,0.063,0.13  c0.023,0.041,0.044,0.081,0.075,0.118c0.034,0.041,0.075,0.072,0.118,0.104c0.026,0.021,0.044,0.049,0.074,0.066  c1.283,0.747,1.585,1.446,2.435,3.753c0.207,0.562,0.834,2.258,2.034,2.1c0.432-0.061,1.175-0.425,1.301-2.18  c0.083-1.162,0.287-1.349,0.779-1.797c0.12-0.109,0.248-0.227,0.383-0.362c0.048-0.048,0.086-0.081,0.117-0.105  c0.145,0.18,0.482,0.77,0.878,2.619c0.302,1.407,0.62,2.251,1.354,2.397c0.719,0.146,1.16-0.491,1.515-1.002  c0.168-0.241,0.355-0.513,0.526-0.662c0.057,0.168,0.113,0.392,0.152,0.547c0.034,0.137,0.068,0.273,0.105,0.401  c0.212,0.744,0.68,1.163,1.389,1.245c0.554,0.063,1.243-0.088,2.174-0.354c0.478-0.136,0.794-0.245,1.014-0.321  c0.002-0.001,0.003-0.001,0.005-0.002c0.037,0.041,0.08,0.085,0.128,0.133c0.098,0.098,0.269,0.338,0.434,0.57  c0.6,0.843,1.345,1.892,2.363,1.926c0.361,0.018,0.857-0.095,1.326-0.669c0.583-0.712,0.932-0.897,1.373-1.133  c0.333-0.177,0.71-0.378,1.176-0.786c0.03-0.026,0.057-0.048,0.079-0.065c0.065,0.083,0.144,0.195,0.207,0.287  c0.177,0.255,0.397,0.572,0.699,0.874c0.146,0.147,0.602,0.593,1.208,0.486c0.687-0.124,0.982-0.772,1.431-1.755  c0.184-0.402,0.402-0.883,0.688-1.42c0.045-0.086,0.126-0.192,0.357-0.262c1.155-0.34,3.803,0.722,5.386,1.557  c0.661,1.419,3.699,2.453,5.569,2.968c0.066,0.019,0.133,0.027,0.199,0.027c0.203,0,0.4-0.083,0.544-0.234  C63.859,51.183,63.924,50.893,63.837,50.63z M58.727,48.038c-0.022-0.248-0.166-0.469-0.384-0.589  c-0.462-0.255-4.583-2.475-6.8-1.821c-0.565,0.168-0.999,0.513-1.256,0.997c-0.301,0.567-0.532,1.075-0.726,1.499  c-0.107,0.234-0.229,0.504-0.334,0.703c-0.152-0.173-0.282-0.36-0.408-0.542c-0.298-0.429-0.635-0.914-1.24-0.988  c-0.602-0.084-1.104,0.353-1.266,0.494c-0.336,0.294-0.594,0.432-0.893,0.591c-0.495,0.264-1.056,0.563-1.828,1.507  c-0.07,0.086-0.119,0.117-0.114,0.12c-0.291-0.028-0.945-0.949-1.192-1.296c-0.22-0.309-0.409-0.575-0.596-0.762  c-0.081-0.081-0.141-0.148-0.188-0.201c-0.513-0.575-0.906-0.491-1.496-0.287c-0.202,0.07-0.495,0.172-0.936,0.298  c-1.232,0.352-1.566,0.337-1.641,0.303c0,0-0.031-0.036-0.068-0.164c-0.032-0.113-0.062-0.233-0.092-0.354  c-0.175-0.694-0.373-1.482-1.085-1.735c-0.435-0.152-0.892-0.047-1.374,0.314c-0.361,0.271-0.635,0.654-0.876,1.001  c-0.058-0.197-0.125-0.46-0.2-0.81c-0.523-2.443-1.09-3.544-1.956-3.8c-0.527-0.155-1.053,0.026-1.567,0.54  c-0.118,0.118-0.229,0.219-0.333,0.313c-0.709,0.646-1.148,1.157-1.265,2.8c-0.014,0.197-0.038,0.358-0.065,0.486  c-0.101-0.176-0.226-0.437-0.366-0.817c-0.817-2.217-1.289-3.331-2.703-4.282l0.604-19.814c0.065-0.11,0.113-0.232,0.114-0.369  c0.002-0.414-0.332-0.752-0.746-0.754c-7.583-0.045-15.227-0.568-22.736-1.536l0.539-4.164C21.194,15.965,39.379,16.5,57.382,16.5  c0.889,0,1.777-0.002,2.666-0.005l0.005,8.176c-0.09,0.769-0.438,4.462,0.944,5.862c0.491,4.59,0.962,9.673,0.894,10.254  c-0.239,1.076-0.026,6.376,0.291,9.008C60.396,49.195,58.869,48.433,58.727,48.038z"></path></svg>