<svg fill="#B36AE2" xmlns="http://www.w3.org/2000/svg" viewBox="0 0 96 71" x="0px" y="0px"><path fill-rule="evenodd" d="M48.9147147,70.2868491 C48.7413418,70.6140196 48.4013794,70.8186135 48.031111,70.8186135 L5.27356639,70.8186135 C5.01332205,70.8186135 4.76332924,70.7171597 4.57668542,70.5358003 L2.29454922,68.3182786 C2.14152352,68.1695856 2.04006972,67.9758447 2.00501686,67.7653744 L1.27415628,63.3770157 C1.24845747,63.2227104 1.25931747,63.0645282 1.30586342,62.915183 L1.92491875,60.9289096 L0.248157267,57.1410071 C0.159005862,56.9396089 0.138837695,56.7144119 0.190783802,56.5003773 L2.01964137,48.9648966 C2.04965401,48.8412349 2.10299317,48.7244378 2.17679595,48.6207742 L3.51872596,46.7358964 L5.10712053,34.2621867 L5.9018974,24.8225192 L6.72549798,17.4203611 L6.72609344,14.6751815 L6.47135089,7.37032477 C6.4651551,7.19265773 6.50643401,7.01655068 6.59093583,6.86014286 L7.37289238,5.41278797 L5.95540968,1.49464181 C5.60946369,0.538392424 6.74566421,-0.263849154 7.53102015,0.382144315 L9.85982575,2.29770023 L13.0436509,0.306593391 C13.5168216,0.0106809398 14.1406324,0.159333285 14.4295001,0.636837371 L15.4357597,2.3002042 L17.0664503,1.69120364 C17.4034608,1.56534312 17.782103,1.63020192 18.0580116,1.86105124 L21.4833195,4.72696476 C21.6851875,4.89586521 21.812326,5.13754297 21.8371578,5.39957619 L22.324638,10.5436327 L25.6062323,11.9899347 L29.1692966,11.5339724 L32.2796773,10.2932483 L35.908309,9.41466437 C36.0899931,9.37121284 36.2802159,9.37952117 36.4574197,9.43864778 L39.5656508,10.475754 L41.6368386,10.475754 L46.8483058,8.92644225 C47.1305812,8.8425249 47.4354944,8.88729288 47.6817349,9.04880799 L48.9059091,9.85177373 L54.8692206,7.57419846 C54.9831438,7.53068762 55.1040648,7.50838162 55.2260144,7.50838162 L56.9095249,7.50838162 L58.1021691,6.55452233 C58.2286944,6.45332925 58.3779121,6.38439327 58.5369822,6.35364622 L61.9869327,5.68679682 C62.0937594,5.66614802 62.20324,5.66307162 62.3110577,5.67768894 L63.769275,5.87538583 L65.2989002,4.70078569 C65.4735941,4.56663816 65.6876901,4.49391924 65.907948,4.49391924 L89.139508,4.49391924 C89.4814652,4.49391924 89.7997131,4.66865322 89.9832554,4.95717868 L91.747739,7.73091788 L94.3521752,8.98383426 C94.5739611,9.09052882 94.7486117,9.27526463 94.8427006,9.50268496 L95.8236894,11.8738145 C95.934197,12.1409203 95.9237161,12.4427779 95.7949485,12.7015758 L93.2421987,17.8321073 L91.2612546,25.192974 C91.1870418,25.4687364 90.9984711,25.6996139 90.7430829,25.8274 L88.5580465,26.9207054 L87.1148005,31.4479314 L87.1148005,33.0897883 L89.4208526,33.7658936 C89.8035667,33.8781005 90.0830151,34.2069882 90.1319516,34.6027983 L90.5238275,37.7723838 C90.5413528,37.914133 90.52831,38.0579918 90.4855769,38.1942778 L89.3752804,41.7352733 L89.3752804,69.8186135 C89.3752804,70.3708983 88.9275651,70.8186135 88.3752804,70.8186135 L50.3681451,70.8186135 C50.12136,70.8186135 49.8832908,70.7273595 49.699734,70.5624056 L49.0690373,69.995628 L48.9147147,70.2868491 Z M5.67939351,68.8186135 L47.4292977,68.8186135 L47.9014108,67.9276926 C48.2059926,67.3529189 48.9695976,67.2173427 49.4534256,67.6521362 L50.751454,68.8186135 L87.3752804,68.8186135 L87.3752804,41.5821707 C87.3752804,41.4806936 87.3907263,41.3798076 87.4210874,41.2829789 L88.5123472,37.802696 L88.2276822,35.5002581 L85.833456,34.7983012 C85.4074619,34.6734051 85.1148005,34.2826201 85.1148005,33.8386944 L85.1148005,31.2923913 C85.1148005,31.1893176 85.1307363,31.0868635 85.162043,30.9886593 L86.7806348,25.9114025 C86.8625434,25.6544686 87.044752,25.4415076 87.2859209,25.3208362 L89.4466397,24.2396983 L91.33683,17.2160585 L93.8016728,12.2179872 L93.1407322,10.6204401 L90.6236104,9.40952815 C90.4555636,9.32868587 90.3134696,9.20246511 90.2133777,9.04512219 L88.5904581,6.49391924 L66.2476035,6.49391924 L64.6568842,7.71543355 C64.4453737,7.8778526 64.1777507,7.94906138 63.9134912,7.91323456 L62.2051778,7.68163105 L59.1587226,8.27048786 L57.8848253,9.28933222 C57.7075287,9.43113139 57.4872591,9.50838162 57.2602325,9.50838162 L55.4104818,9.50838162 L49.1418083,11.9025842 C48.8418214,12.0171586 48.505062,11.9806984 48.2365484,11.8045738 L46.973105,10.9758506 L42.0672993,12.4342925 C41.9748094,12.4617888 41.8788269,12.475754 41.7823364,12.475754 L39.4032202,12.475754 C39.2956381,12.475754 39.1887609,12.4583939 39.0867098,12.424343 L36.0955266,11.4262915 L32.9533257,12.1777796 L29.7925254,13.438616 C29.7403843,13.459415 28.3376427,13.64956 25.5843005,14.0090509 C25.4038567,14.0321421 25.2205321,14.0055741 25.0540672,13.9322078 L20.9811518,12.1371456 C20.6496496,11.9910422 20.4230891,11.6770752 20.3889114,11.3164206 L19.8848363,5.99724993 L17.2209648,3.76842104 L15.359018,4.46378693 C14.908668,4.63197542 14.4023715,4.45591556 14.1535408,4.04459357 L13.2436024,2.54044755 L10.3103711,4.37483755 C9.94600117,4.60270793 9.47678493,4.57229172 9.14488348,4.29928663 L9.40602677,5.15372355 C9.50299912,5.42177045 9.48097189,5.71846127 9.34547966,5.9692493 L8.47957665,7.57198408 L8.72548593,14.6403297 L8.72548593,17.4759308 L7.89224183,25.0169624 L7.0955966,34.4722964 L5.4709945,47.2375603 C5.45017985,47.4011108 5.38925048,47.5569777 5.29363016,47.6912862 L3.91778622,49.6237997 L2.21446638,56.6420246 L3.90584554,60.4629492 C4.00389622,60.6844515 4.01821305,60.9340145 3.94613638,61.1652766 L3.28606916,63.2831389 L3.92388236,67.1128065 L5.67939351,68.8186135 Z"></path></svg>