<svg fill="#B36AE2" xmlns="http://www.w3.org/2000/svg" xmlns:xlink="http://www.w3.org/1999/xlink" version="1.1" x="0px" y="0px" viewBox="0 0 65 65" enable-background="new 0 0 65 65" xml:space="preserve"><path d="M63.534,35.157l-3.413-2.256l-0.468-1.301c-0.098-0.271-0.341-0.461-0.627-0.492l-1.163-0.124l-0.468-1.663l0.883-0.405  c0.241-0.11,0.406-0.34,0.434-0.604l0.122-1.166c0.023-0.225-0.056-0.449-0.216-0.608l-0.545-0.545l0.068-0.641l1.077-1.758  c0.072-0.118,0.11-0.254,0.11-0.392v-1.636l1.428-1.756c0.241-0.296,0.159-0.79-0.109-1.062c-0.115-0.117-0.266-0.193-0.429-0.217  l-1.517-0.216l-1.146-0.907l-1.155-3.233c-0.095-0.265-0.33-0.455-0.609-0.491l-1.648-0.213l-1.231-1.23  c-0.18-0.179-0.436-0.255-0.686-0.204l-22.631,4.784l-19.75,3.832l-0.347-3.417c-0.029-0.286-0.219-0.53-0.488-0.628  c-0.27-0.099-0.572-0.035-0.779,0.165l-3.388,3.269l-0.655,0.252c-0.044,0.017-0.086,0.038-0.125,0.063l-2.578,1.596  c-0.259,0.16-0.395,0.46-0.345,0.761L3.787,38.65l3.13,13.745c0.079,0.346,0.387,0.583,0.731,0.583c0.044,0,0.088-0.004,0.133-0.012  l2.352-0.425l6.989-0.867l23.743-4.784l13.745-2.64c0.131-0.024,0.252-0.084,0.353-0.172l0.935-0.817l1.127-0.697l0.731-0.158  c0.05-0.011,0.099-0.027,0.146-0.048l1.656-0.734c0.141-0.063,0.258-0.166,0.338-0.297l1.021-1.686l0.878-1.287l1.848-1.787  c0.146-0.142,0.229-0.336,0.229-0.539v-0.245C63.87,35.531,63.744,35.297,63.534,35.157z M60.696,37.33  c-0.036,0.035-0.069,0.074-0.098,0.116l-0.943,1.384l-0.921,1.519l-1.37,0.607l-0.783,0.169c-0.084,0.019-0.164,0.051-0.236,0.096  l-1.289,0.798c-0.035,0.021-0.068,0.046-0.1,0.073l-0.828,0.725l-13.553,2.603l-23.693,4.776L9.908,51.06l-1.688,0.304L5.258,38.36  L2.702,22.963l2.09-1.294l0.731-0.281c0.094-0.036,0.18-0.091,0.252-0.161l2.386-2.303l0.274,2.697  c0.021,0.21,0.13,0.401,0.299,0.526s0.382,0.175,0.59,0.134l20.568-3.991l22.246-4.702l1.124,1.124  c0.117,0.117,0.27,0.192,0.434,0.213l1.446,0.188l1.073,3.003c0.047,0.132,0.131,0.249,0.24,0.335l1.473,1.166  c0.104,0.083,0.229,0.136,0.36,0.155l0.506,0.072l-0.799,0.982c-0.108,0.134-0.168,0.301-0.168,0.473v1.691l-1.056,1.722  c-0.059,0.095-0.095,0.202-0.106,0.313l-0.123,1.166c-0.023,0.225,0.056,0.449,0.216,0.609l0.545,0.545l-0.04,0.385l-1.084,0.497  c-0.339,0.155-0.512,0.536-0.407,0.893l0.595,2.01l0.123,0.675c0.061,0.327,0.328,0.576,0.659,0.611l1.25,0.133l0.394,1.093  c0.055,0.152,0.157,0.282,0.292,0.372l2.992,1.978L60.696,37.33z"></path></svg>