<svg fill="#B36AE2" xmlns="http://www.w3.org/2000/svg" xmlns:xlink="http://www.w3.org/1999/xlink" version="1.1" x="0px" y="0px" viewBox="0 0 65 65" enable-background="new 0 0 65 65" xml:space="preserve"><path d="M58.713,39.732L47.979,22.871L34.997,6.455c-0.028-0.037-0.062-0.071-0.097-0.102l-5.727-4.962  c-0.188-0.163-0.443-0.222-0.682-0.158L6.729,6.959C6.536,7.01,6.372,7.135,6.271,7.308s-0.127,0.377-0.076,0.57l6.098,22.847  l3.048,16.774l2.29,15.651c0.033,0.227,0.168,0.426,0.366,0.54c0.116,0.067,0.246,0.102,0.376,0.102  c0.093,0,0.186-0.018,0.274-0.052l10.692-4.198c0.069-0.027,0.134-0.064,0.192-0.11l9.161-7.256  c0.069-0.055,0.128-0.121,0.174-0.196l3.94-6.444l4.47,0.688c0.153,0.024,0.31-0.002,0.45-0.07l10.689-5.347  c0.189-0.095,0.33-0.267,0.387-0.471C58.859,40.13,58.827,39.911,58.713,39.732z M47.269,44.704l-4.727-0.728  c-0.297-0.045-0.596,0.092-0.754,0.35l-4.132,6.757l-8.968,7.104l-9.709,3.813l-2.158-14.742l-3.066-16.859L7.838,8.218L28.49,2.784  l5.374,4.656l12.894,16.298l10.243,16.097L47.269,44.704z"></path></svg>