<svg fill="#FFFFFF" xmlns="http://www.w3.org/2000/svg" xmlns:xlink="http://www.w3.org/1999/xlink" version="1.1" x="0px" y="0px" viewBox="0 0 100 100" style="enable-background:new 0 0 100 100;" xml:space="preserve"><path d="M87.6,72.6C87.6,72.6,87.6,72.6,87.6,72.6L87,71.7l0.2-0.3c0,0,0-0.1,0-0.1l-1.2-1.2l1.2-3.5c0,0,0-0.1,0-0.1c0,0,0,0,0,0  l0.4-1.6c0,0,0,0,0,0l-0.3-1.2c0,0,0-0.1-0.1-0.1l-0.8-0.1l0.1-0.3c0,0,0-0.1,0-0.1l-0.2-0.3l0.3-0.1c0,0,0.1,0,0.1-0.1l0-1.1  c0,0,0,0,0-0.1l-0.7-0.8l-0.1-0.8l1.4-0.1c0,0,0,0,0.1,0c0,0,0,0,0-0.1l-1.2-24.3c0,0,0,0,0,0l-0.8-1c0,0,0,0,0,0L83.7,34L82,31.7  l0.2-0.8l1.6-1.3c0,0,0,0,0,0l0.7-1.3c0,0,0,0,0,0l0.1-1.4c0,0,0,0,0-0.1c0,0,0,0-0.1,0l-4,0.2l-66.7,0.4c0,0-0.1,0-0.1,0.1  l-1.2,39.8c0,0,0,0,0,0.1c0,0,0,0,0.1,0l54.8,0.2c0,0,0,0,0,0l1.1,1.1c0,0,0,0,0,0l3.7,1.7c0,0,0,0,0,0l0.8-0.1c0,0,0,0,0.1,0  l0.7-1.1l5.8-0.3l1.2,1.1c0,0,0,0,0,0l4.3,1.3l0.9,1.9c0,0,0,0,0.1,0l1.4,0.1c0,0,0,0,0,0c0,0,0,0,0.1,0c0,0,0,0,0-0.1L87.6,72.6z"></path></svg>