<svg fill="#B36AE2" xmlns="http://www.w3.org/2000/svg" xmlns:xlink="http://www.w3.org/1999/xlink" version="1.1" x="0px" y="0px" viewBox="0 0 65 65" enable-background="new 0 0 65 65" xml:space="preserve"><path d="M63.006,22.591l-6.877-5.651c-0.03-0.024-0.062-0.046-0.095-0.066l-8.512-5.039c-0.053-0.031-0.109-0.056-0.169-0.074  l-1.839-0.544c-0.098-0.029-0.198-0.036-0.302-0.025l-8.619,1.027l-2.589,0.45l-0.974-1.893c-0.046-0.091-0.111-0.171-0.189-0.235  l-1.566-1.293c-0.141-0.117-0.316-0.188-0.5-0.171L19.537,9.421l-4.834,0.613c-0.082,0.01-0.161,0.034-0.235,0.07L8.24,13.151  L3.882,14.99c-0.377,0.159-0.557,0.59-0.405,0.97l0.285,0.711l-1.207,0.581c-0.174,0.083-0.309,0.231-0.377,0.412l-0.409,1.09  c-0.044,0.118-0.058,0.245-0.041,0.37l0.136,0.953c0.023,0.161,0.098,0.31,0.212,0.424l0.817,0.817  c0.038,0.038,0.08,0.072,0.125,0.101l2.656,1.702c0.127,0.082,0.271,0.13,0.427,0.118l1.912-0.056l2.292,3.256l0.306,0.917  c0.029,0.087,0.074,0.168,0.132,0.239l1.468,1.787l0.229,0.803c0.064,0.227,0.231,0.409,0.451,0.494l2.899,1.12l2.012,1.51  l1.434,1.891c0.062,0.082,0.14,0.149,0.229,0.2l1.507,0.851l1.452,1.211l0.746,1.617c0.04,0.087,0.096,0.164,0.166,0.23l1.294,1.226  c0.064,0.061,0.139,0.109,0.22,0.145l2.595,1.112l1.89,4.082l1.021,3.132c0.084,0.258,0.3,0.45,0.565,0.503l1.496,0.3l1.407,1.294  l1.233,3.633c0.064,0.191,0.205,0.349,0.388,0.436l1.43,0.681c0.102,0.049,0.212,0.073,0.322,0.073c0.097,0,0.193-0.019,0.284-0.056  l1.498-0.613c0.051-0.021,0.099-0.047,0.145-0.079l1.565-1.089c0.042-0.029,0.081-0.063,0.117-0.101l3.405-3.609  c0.186-0.197,0.251-0.479,0.17-0.738l-0.398-1.272l1.027-0.071c0.173-0.012,0.337-0.084,0.463-0.203l2.371-2.238l0.99-0.495  c0.115-0.058,0.214-0.144,0.286-0.251l1.526-2.256l1.788-1.787c0.046-0.045,0.085-0.097,0.117-0.152l1.271-2.179l1.328-0.332  c0.231-0.058,0.422-0.223,0.512-0.444l0.644-1.577l0.837-0.418c0.235-0.117,0.392-0.35,0.413-0.611l0.33-4.168l1.666-3.91  l3.51-3.577c0.147-0.15,0.225-0.355,0.214-0.565C63.267,22.921,63.168,22.725,63.006,22.591z M58.385,26.323  c-0.065,0.067-0.118,0.146-0.155,0.231l-1.77,4.153c-0.031,0.075-0.051,0.154-0.058,0.235l-0.306,3.868l-0.711,0.354  c-0.163,0.081-0.291,0.219-0.359,0.388L54.42,37.04l-1.266,0.316c-0.195,0.049-0.363,0.175-0.465,0.35l-1.381,2.367l-1.771,1.77  c-0.034,0.033-0.064,0.07-0.091,0.11l-1.456,2.152l-0.914,0.457c-0.066,0.033-0.127,0.075-0.18,0.126l-2.256,2.13l-1.707,0.118  c-0.229,0.016-0.438,0.136-0.567,0.325c-0.13,0.189-0.165,0.428-0.097,0.646l0.551,1.76l-3.051,3.233l-1.434,0.997l-1.115,0.457  l-0.844-0.402l-1.193-3.514c-0.04-0.119-0.109-0.226-0.202-0.311l-1.702-1.566c-0.101-0.093-0.226-0.156-0.36-0.184l-1.273-0.255  l-0.917-2.797l-2.043-4.426c-0.078-0.168-0.215-0.302-0.386-0.375l-2.736-1.173l-1.092-1.034l-0.757-1.64  c-0.047-0.101-0.115-0.19-0.201-0.262l-1.634-1.362c-0.035-0.029-0.072-0.055-0.112-0.077l-1.431-0.809l-1.404-1.851  c-0.042-0.056-0.092-0.105-0.147-0.147l-2.179-1.635c-0.055-0.041-0.116-0.075-0.18-0.1l-2.647-1.022l-0.169-0.594  c-0.028-0.099-0.077-0.191-0.142-0.271l-1.479-1.799l-0.296-0.89c-0.023-0.069-0.056-0.135-0.098-0.194l-2.587-3.677  c-0.145-0.206-0.397-0.345-0.635-0.318L6.29,21.734L3.898,20.2l-0.583-0.583l-0.074-0.516l0.236-0.628l1.567-0.754  c0.355-0.171,0.518-0.588,0.371-0.955l-0.272-0.678l3.718-1.57l6.153-3.009l4.64-0.592l10.885-0.332l1.229,1.015l1.155,2.246  c0.149,0.291,0.469,0.453,0.796,0.396l3.093-0.539l8.426-1.002l1.602,0.474l8.382,4.962l6.199,5.095L58.385,26.323z"></path></svg>