<svg fill="#B36AE2" xmlns="http://www.w3.org/2000/svg" xmlns:xlink="http://www.w3.org/1999/xlink" version="1.1" x="0px" y="0px" viewBox="0 0 65 65" enable-background="new 0 0 65 65" xml:space="preserve"><path d="M62.672,51.053c0.039-0.112,0.108-0.282,0.176-0.448c0.086-0.213,0.19-0.47,0.311-0.79c0.734-1.961,0.77-6.261,0.544-7.948  c-0.126-0.946-0.874-1.81-1.681-2.483h0.938c0.414,0,0.75-0.336,0.75-0.75V22.771c0-0.414-0.336-0.75-0.75-0.75  c-0.082,0-0.096-0.016-0.107-0.031c-0.17-0.204-0.187-0.891-0.096-1.379c0.008-0.045,0.013-0.093,0.013-0.139v-6.338  c0-0.001-0.001-0.002-0.001-0.003s0.001-0.002,0.001-0.003c-0.001-0.058-0.021-0.109-0.034-0.163  c-0.01-0.041-0.01-0.086-0.026-0.124c-0.105-0.251-0.345-0.422-0.627-0.443c-0.021-0.002-0.04-0.013-0.063-0.013  c-0.001,0-0.002,0-0.003,0c-0.002,0-0.003,0-0.004,0c-18.534,0.171-36.545-0.456-55.063-1.909c-0.053-0.006-0.102,0.01-0.153,0.015  c-0.01-0.001-0.018-0.008-0.028-0.01c-0.414-0.059-0.791,0.224-0.851,0.634L1.184,44.569c-0.001,0.012,0.003,0.021,0.002,0.033  c-0.001,0.011-0.008,0.02-0.008,0.031c-0.002,0.04,0.012,0.075,0.016,0.114c0.005,0.051,0.006,0.102,0.021,0.149  c0.015,0.046,0.039,0.086,0.062,0.128c0.023,0.043,0.042,0.086,0.072,0.123s0.068,0.064,0.105,0.096s0.07,0.063,0.113,0.086  c0.044,0.024,0.093,0.036,0.142,0.051c0.037,0.012,0.069,0.033,0.108,0.039c0.018,0.002,0.035,0.002,0.053,0.004  c0.004,0,0.008,0.003,0.012,0.003l17.53,1.023c0.707,0.17,1.274,0.211,1.689,0.238c0.22,0.015,0.49,0.04,0.526,0.029  c0.478,0.799,1.43,0.836,2.747,0.888c0.319,0.013,0.675,0.026,1.068,0.052c1.374,0.086,2.913,0.448,3.504,0.598l1.337,1.852  c1.631,2.258,7.026,3.421,8.981,3.421c0.103,0,0.196-0.004,0.28-0.01c1.548-0.121,4.305-2.753,5.31-3.764  c1.624-0.361,8.86,1.186,12.802,2.027c5.187,1.109,5.188,1.107,5.506,0.443c0.15-0.313,0.036-0.737-0.232-0.956  C62.859,51.212,62.749,51.122,62.672,51.053z M61.754,49.288c-0.114,0.304-0.214,0.549-0.296,0.751  c-0.155,0.382-0.259,0.683-0.295,0.941c-0.855-0.167-2.036-0.419-3.193-0.666c-6.835-1.461-12.189-2.527-13.782-1.924  c-0.102,0.039-0.192,0.099-0.269,0.176c-1.589,1.617-3.757,3.398-4.491,3.455c-1.32,0.122-6.67-1.052-7.929-2.794l-1.494-2.069  c-0.1-0.138-0.243-0.237-0.407-0.283c-0.088-0.024-2.167-0.597-4.062-0.715c-0.406-0.026-0.773-0.04-1.103-0.054  c-0.615-0.023-1.381-0.054-1.519-0.159c-0.4-0.667-1.067-0.712-1.712-0.755c-0.396-0.026-0.89-0.06-1.506-0.216  c-0.024-0.006-0.047,0-0.071-0.003c-0.024-0.004-0.044-0.017-0.069-0.019l-16.77-0.979l4.517-30.972  c16.43,1.277,32.469,1.906,48.832,1.906c1.706,0,3.419-0.01,5.134-0.023v5.519c-0.069,0.41-0.23,1.745,0.427,2.541  c0.145,0.175,0.319,0.307,0.514,0.403v14.534h-2.697c-0.348,0-0.65,0.239-0.729,0.577c-0.08,0.339,0.083,0.688,0.394,0.844  c0.935,0.467,2.906,1.756,3.04,2.761C62.443,43.768,62.324,47.766,61.754,49.288z"></path></svg>