<svg fill="#B36AE2" xmlns="http://www.w3.org/2000/svg" xmlns:xlink="http://www.w3.org/1999/xlink" version="1.1" x="0px" y="0px" viewBox="0 0 65 65" enable-background="new 0 0 65 65" xml:space="preserve"><path d="M62.917,21.451l-0.541-0.125c-0.221-0.051-0.456,0-0.634,0.143l-0.805,0.637l-2.999,0.083l-4.249,0.62l-22.477,2.164  l-12.589,1.37l-1.456,0.041c-0.398,0.011-0.719,0.332-0.729,0.73l-0.024,0.934l-4.939,0.291l-5.118,0.083  c-0.144,0.002-0.284,0.046-0.404,0.126L5.83,28.631c-0.189,0.126-0.311,0.331-0.331,0.557l-0.201,2.249l-1.23,3.9L3.55,37.209  l-0.11,0.69L2.12,38.677c-0.305,0.18-0.442,0.548-0.331,0.884l0.437,1.31l-0.275,1.372l-0.115,0.077  c-0.279,0.186-0.4,0.534-0.298,0.854c0.1,0.311,0.389,0.521,0.714,0.521c0.008,0,0.017,0,0.025,0l4.938-0.167l15.66-1.126  l15.162-1.415l7.531-0.874c0.366-0.043,0.647-0.346,0.662-0.715l0.069-1.67l0.433-0.368l0.851-0.17  c0.307-0.061,0.543-0.305,0.594-0.613l0.193-1.167l1.488-0.946l1.514-0.599c0.075-0.029,0.145-0.07,0.206-0.122l1.728-1.446  l1.676-0.878c0.188-0.099,0.326-0.272,0.379-0.478l0.277-1.077l1.338-1.243c0.118,0.138,0.283,0.229,0.465,0.255l0.582,0.083  c0.285,0.039,0.569-0.086,0.729-0.327l0.781-1.172l0.572-0.213l0.623,0.124c0.347,0.07,0.688-0.111,0.831-0.431l0.603-1.354  l0.883-0.81c0.108-0.099,0.185-0.228,0.221-0.369l0.168-0.666c0.013-0.053,0.021-0.107,0.022-0.161l0.041-1.373  C63.509,21.847,63.266,21.531,62.917,21.451z M61.96,23.451l-0.093,0.369l-0.833,0.763c-0.076,0.069-0.137,0.154-0.179,0.248  l-0.422,0.95l-0.245-0.049c-0.136-0.026-0.279-0.016-0.408,0.033l-0.998,0.373c-0.147,0.055-0.274,0.155-0.361,0.287l-0.555,0.833  l-0.027-0.04c-0.191-0.289-0.557-0.407-0.88-0.29l-0.457,0.166c-0.095,0.034-0.181,0.087-0.255,0.155l-1.791,1.663  c-0.104,0.098-0.18,0.224-0.216,0.363l-0.249,0.967l-1.452,0.761c-0.048,0.025-0.093,0.055-0.134,0.089l-1.696,1.42l-1.467,0.581  c-0.045,0.017-0.087,0.039-0.127,0.064l-1.832,1.164c-0.18,0.114-0.303,0.3-0.338,0.511l-0.163,0.986l-0.532,0.106  c-0.125,0.024-0.242,0.081-0.339,0.163l-0.832,0.706c-0.16,0.136-0.256,0.332-0.264,0.542l-0.056,1.358l-6.877,0.798l-15.131,1.412  L7.137,42.028L3.5,42.151l0.237-1.182c0.026-0.128,0.018-0.261-0.024-0.385l-0.308-0.924l1.101-0.648  c0.192-0.114,0.325-0.308,0.36-0.528l0.147-0.955l0.493-1.765l1.248-3.954c0.016-0.052,0.027-0.105,0.032-0.159l0.155-1.739  l4.592-0.075l5.659-0.333c0.389-0.023,0.696-0.34,0.706-0.729l0.023-0.914l0.806-0.024l12.64-1.373l22.504-2.167l4.196-0.617  l3.16-0.083c0.162-0.004,0.318-0.061,0.445-0.161l0.295-0.233L61.96,23.451z"></path></svg>