<svg fill="#B36AE2" xmlns="http://www.w3.org/2000/svg" xmlns:xlink="http://www.w3.org/1999/xlink" version="1.1" x="0px" y="0px" viewBox="0 0 65 65" enable-background="new 0 0 65 65" xml:space="preserve"><path d="M60.464,38.242c0.009-0.375,0.02-0.841-0.105-1.41l-0.132-0.624c-0.17-0.82-0.316-1.523-0.69-1.885  c0.144-0.063,0.388-0.125,0.547-0.165c0.493-0.122,1.053-0.262,1.284-0.794c0.094-0.217,0.155-0.566-0.083-0.996  c-0.322-0.584-0.662-0.759-1.073-0.842c-0.089-0.018-0.107-0.021-0.161-0.068c-0.303-0.627-0.665-5.057-0.84-8.978  c0-0.011-0.007-0.02-0.008-0.03c-0.006-0.065-0.026-0.125-0.048-0.186c-0.012-0.03-0.016-0.062-0.031-0.09  c-0.03-0.061-0.075-0.111-0.121-0.161c-0.021-0.023-0.036-0.049-0.06-0.069c-0.03-0.026-0.067-0.042-0.103-0.063  c-0.055-0.035-0.107-0.067-0.168-0.085c-0.005-0.001-0.008-0.005-0.012-0.006c-1.279-0.352-2.617-0.938-2.867-1.253  c-0.043-0.213-0.179-0.398-0.371-0.505c-0.515-0.285-3.162-1.68-4.69-1.226c-0.44,0.131-0.78,0.402-0.982,0.784  c-0.201,0.38-0.356,0.72-0.486,1.004c-0.013,0.028-0.025,0.057-0.039,0.085c-0.004-0.006-0.008-0.012-0.012-0.018  c-0.216-0.311-0.485-0.698-0.998-0.761c-0.534-0.066-0.907,0.277-1.034,0.389c-0.2,0.175-0.352,0.255-0.543,0.357  c-0.326,0.174-0.694,0.371-1.21,0.968c-0.174-0.164-0.407-0.493-0.533-0.67c-0.162-0.227-0.309-0.423-0.424-0.538l-0.113-0.123  c-0.44-0.494-0.833-0.41-1.263-0.261c-0.132,0.045-0.32,0.111-0.604,0.192c-0.459,0.131-0.703,0.179-0.834,0.192l-0.04-0.152  c-0.118-0.47-0.279-1.113-0.879-1.325c-0.257-0.091-0.659-0.12-1.145,0.243c-0.114,0.086-0.217,0.186-0.309,0.29  c-0.001-0.004-0.002-0.009-0.003-0.013c-0.373-1.742-0.785-2.5-1.47-2.702c-0.304-0.09-0.776-0.091-1.288,0.421  c-0.075,0.075-0.146,0.139-0.212,0.199c-0.398,0.363-0.691,0.683-0.836,1.394c-0.468-1.249-0.8-1.943-1.642-2.542l0.394-12.889  c0.046-0.097,0.076-0.202,0.077-0.315c0.003-0.414-0.331-0.752-0.745-0.754c-5.168-0.031-10.379-0.391-15.49-1.071  c-0.407-0.054-0.787,0.233-0.842,0.645c-0.005,0.038,0.007,0.072,0.007,0.108c-0.002,0.016-0.011,0.029-0.012,0.045L15.3,33.414  L4.324,33.068c-0.211-0.017-0.402,0.071-0.547,0.213c-0.146,0.143-0.228,0.338-0.226,0.542c0.02,2.424,0.099,2.903,1.042,3.514  c0.338,0.221,0.721,0.318,1.091,0.413c0.456,0.116,0.927,0.236,1.384,0.594c0.289,0.225,0.315,0.298,0.341,0.369  c0.141,0.393,0.339,0.659,1.032,1.027c0.348,0.185,0.702,0.438,1.076,0.707c0.697,0.5,1.487,1.066,2.477,1.343  c1.894,0.527,3.407,1.328,3.68,1.948c0.122,0.276,0.177,0.463,0.222,0.617c0.185,0.631,0.354,0.951,1.511,2.08  c0.633,0.617,0.858,1.415,1.077,2.188c0.26,0.92,0.528,1.871,1.516,2.24l0.312,0.116c0.808,0.301,2.7,1.005,2.979,1.326  c0.375,0.726,1.438,1.169,2.116,1.083c0.47-0.06,0.823-0.36,0.921-0.785c0.063-0.269,0.038-0.573,0.009-0.927  c-0.043-0.525-0.096-1.18,0.154-1.613c0.219-0.381,0.422-0.883,0.637-1.414c0.186-0.459,0.485-1.199,0.676-1.456  c0.367-0.022,0.849,0.099,1.398,0.233l0.215,0.053c0.384,0.095,0.689,0.043,0.923-0.054c0.284,0.227,0.621,0.276,0.883,0.286  c0.275,0.279,0.704,0.304,0.942,0.317c0.128,0.007,0.366,0.021,0.416,0.048c0.01,0.017,0.032,0.094,0.025,0.252  c-0.012,0.266-0.031,0.496-0.048,0.7c-0.093,1.12-0.092,1.757,0.96,2.876c0.476,0.506,0.771,1.394,1.032,2.178  c0.267,0.802,0.498,1.494,0.934,1.92c0.715,0.696,1.383,1.461,2.166,2.479c0.339,0.441,0.41,0.708,0.474,0.943  c0.086,0.32,0.216,0.804,0.899,1.09c0.316,0.133,0.402,0.211,0.573,0.366c0.129,0.117,0.273,0.247,0.499,0.407  c0.574,0.405,1.001,0.216,1.223,0c0.008-0.002,0.212-0.059,0.928,0.116l0.354,0.087c1.729,0.427,2.52,0.62,3.777-0.055  c0.218-0.117,0.438-0.252,0.656-0.385c0.265-0.162,0.679-0.415,0.909-0.491c0.321,0.921,0.965,1.506,1.436,1.935  c0.141,0.128,0.333,0.303,0.377,0.375c0.333,0.54,1.474,0.935,2.378,0.935c0.331,0,0.63-0.053,0.847-0.17  c0.444-0.24,0.748-0.789,0.427-1.475c-0.462-0.991-0.548-1.237-0.928-2.629c-0.131-0.479-0.146-0.781-0.157-1.023  c-0.027-0.567-0.12-1.062-0.989-1.378c-0.147-0.054-0.438-0.469-0.594-0.69c-0.355-0.508-0.847-1.192-1.565-1.067  c-0.074-0.051-0.163-0.138-0.25-0.239c0.071,0.022,0.14,0.048,0.201,0.074c0.15,0.065,0.316,0.079,0.476,0.04  c0.407-0.099,1.377-0.411,1.582-1.163c0.063-0.234,0.101-0.693-0.361-1.143c-0.161-0.158-0.303-0.433-0.439-0.698  c-0.285-0.554-0.704-1.366-1.635-1.414c0.662-0.188,1.37-0.345,2.017-0.487c1.752-0.386,2.81-0.619,3.101-1.364  c0.123-0.316,0.075-0.668-0.131-0.964c-0.061-0.087-0.06-0.21,0.001-0.367c0.119-0.306,0.387-0.509,0.451-0.526l0.235,0.004  c0.891,0.023,2.114,0.051,2.576-0.764c0.166-0.293,0.276-0.778-0.137-1.433c-0.366-0.58-0.826-0.907-1.163-1.146  c-0.122-0.087-0.289-0.205-0.313-0.205h-0.001c0-0.001,0.003-0.099,0.141-0.35c0.036-0.067,0.085-0.155,0.141-0.256  c0.036,0.419,0.244,0.921,1.083,1.103c1.008,0.214,1.547-0.647,1.911-1.219c0.183-0.287,0.41-0.645,0.587-0.721  c0.181-0.078,0.391-0.136,0.593-0.193c0.616-0.175,1.313-0.373,1.503-1.05c0.185-0.661-0.318-1.201-0.483-1.379  C60.444,39.072,60.45,38.813,60.464,38.242z M59.427,40.499c-0.267,0.075-0.541,0.156-0.779,0.259  c-0.6,0.26-0.948,0.808-1.257,1.292c-0.056,0.087-0.128,0.2-0.199,0.3c0.012-0.237,0.006-0.53-0.065-0.87  c-0.133-0.627-0.434-0.979-0.893-1.047c-0.829-0.121-1.331,0.799-2.028,2.074c-0.811,1.481,0.085,2.118,0.62,2.498  c0.246,0.175,0.479,0.341,0.673,0.593c-0.338,0.045-0.842,0.033-1.044,0.028l-0.271-0.005c-0.753,0-1.415,0.621-1.737,1.237  c-0.276,0.528-0.333,1.074-0.174,1.559c-0.438,0.153-1.223,0.326-1.834,0.461c-0.934,0.206-1.99,0.439-2.918,0.765  c-0.49,0.173-1.794,0.63-1.574,1.622c0.274,1.241,2.648,1.068,2.716,1.064c0.095,0.041,0.283,0.406,0.384,0.602  c0.128,0.249,0.268,0.521,0.459,0.776c-0.019,0.007-0.038,0.014-0.057,0.021c-0.394-0.134-1.104-0.311-1.717-0.111  c-0.457,0.148-0.836,0.656-0.588,1.418c0.234,0.721,1.135,1.911,2.062,1.857c0.091,0.105,0.215,0.282,0.304,0.409  c0.336,0.479,0.717,1.022,1.308,1.239c0.002,0,0.003,0.001,0.004,0.001c0.001,0.013,0.001,0.025,0.002,0.039  c0.014,0.282,0.033,0.71,0.208,1.348c0.33,1.209,0.466,1.642,0.783,2.357c-0.315-0.055-0.675-0.167-0.825-0.268  c-0.152-0.223-0.362-0.413-0.602-0.631c-0.394-0.357-0.84-0.764-1.033-1.332c-0.205-0.596-0.575-0.839-0.851-0.938  c-0.742-0.268-1.511,0.201-2.253,0.656c-0.195,0.119-0.392,0.24-0.584,0.344c-0.729,0.391-1.027,0.332-2.709-0.08L42.6,59.948  c-0.933-0.227-1.471-0.206-1.851-0.047c-0.054-0.046-0.101-0.089-0.146-0.129c-0.221-0.201-0.448-0.408-0.989-0.589  c-0.019-0.042-0.028-0.091-0.043-0.146c-0.079-0.296-0.212-0.792-0.733-1.47c-0.829-1.078-1.541-1.892-2.309-2.64  c-0.175-0.171-0.387-0.808-0.558-1.319c-0.31-0.931-0.66-1.985-1.362-2.731c-0.645-0.686-0.631-0.844-0.559-1.725  c0.019-0.222,0.039-0.47,0.052-0.757c0.053-1.165-0.57-1.792-1.854-1.865c-0.003,0-0.006,0-0.009-0.001  c-0.167-0.18-0.44-0.316-0.885-0.316c-0.024,0-0.048,0.001-0.074,0.001c-0.096-0.165-0.291-0.424-0.639-0.492  c-0.419-0.076-0.697,0.164-0.872,0.3l-0.212-0.052c-0.744-0.183-1.448-0.355-2.127-0.244c-0.793,0.13-1.192,1.114-1.696,2.36  c-0.187,0.461-0.379,0.937-0.546,1.227c-0.479,0.831-0.404,1.812-0.351,2.467c-0.1-0.052-0.185-0.111-0.215-0.16  c-0.344-0.672-1.447-1.174-3.79-2.046l-0.309-0.115c-0.263-0.099-0.399-0.537-0.599-1.244c-0.246-0.872-0.552-1.957-1.473-2.854  c-0.979-0.955-1.021-1.094-1.119-1.429c-0.059-0.199-0.13-0.44-0.288-0.799c-0.652-1.481-3.193-2.384-4.65-2.789  c-0.734-0.205-1.352-0.647-2.005-1.116c-0.398-0.286-0.81-0.581-1.246-0.813c-0.266-0.142-0.33-0.205-0.324-0.211  c-0.101-0.28-0.248-0.591-0.83-1.044c-0.705-0.551-1.417-0.732-1.936-0.865c-0.275-0.069-0.512-0.13-0.645-0.217  c-0.247-0.159-0.321-0.208-0.349-1.487l10.92,0.345c0.001,0,0.001,0,0.002,0c0.007,0,0.015,0,0.021,0  c0.299,0,0.56-0.178,0.679-0.437c0.005-0.01,0.004-0.022,0.008-0.032c0.031-0.074,0.056-0.151,0.061-0.235l1.924-31.459  c4.639,0.586,9.351,0.912,14.037,0.972l-0.392,12.854c-0.001,0.035,0.013,0.064,0.017,0.098c0.005,0.053,0.01,0.104,0.026,0.155  c0.015,0.045,0.038,0.085,0.061,0.126c0.023,0.042,0.045,0.084,0.077,0.122c0.033,0.04,0.074,0.07,0.115,0.102  c0.027,0.021,0.045,0.05,0.076,0.068c0.743,0.434,0.921,0.779,1.499,2.35c0.154,0.419,0.621,1.693,1.619,1.552  c0.36-0.051,0.981-0.336,1.079-1.675c0.047-0.667,0.129-0.741,0.432-1.018c0.03-0.027,0.062-0.056,0.097-0.088  c0.099,0.228,0.238,0.64,0.396,1.375c0.185,0.86,0.407,1.644,1.093,1.781c0.644,0.131,1.013-0.41,1.261-0.767  c0.008-0.012,0.017-0.024,0.025-0.037l0.04,0.151c0.225,0.788,0.806,0.968,1.133,1.006c0.411,0.049,0.893-0.058,1.536-0.242  c0.226-0.064,0.398-0.12,0.532-0.166c0.068,0.076,0.146,0.193,0.237,0.322c0.429,0.601,0.961,1.35,1.759,1.377  c0.293,0.01,0.706-0.077,1.082-0.535c0.354-0.432,0.554-0.538,0.831-0.686c0.175-0.093,0.383-0.204,0.662-0.417  c0.118,0.17,0.265,0.376,0.466,0.577c0.324,0.325,0.673,0.458,1.024,0.393c0.585-0.105,0.826-0.635,1.133-1.306  c0.119-0.262,0.262-0.575,0.531-0.972c0.637-0.192,2.255,0.434,3.302,0.975c0.465,0.829,1.907,1.446,3.276,1.864  c0.264,5.606,0.645,8.735,1.131,9.289c0.179,0.202,0.345,0.336,0.497,0.424c-0.317,0.092-0.652,0.224-0.919,0.461  c-0.57,0.509-0.792,1.123-0.593,1.643c0.117,0.308,0.362,0.528,0.672,0.618c0.073,0.225,0.159,0.644,0.232,0.994l0.136,0.642  c0.087,0.393,0.079,0.713,0.071,1.053c-0.016,0.648-0.033,1.381,0.698,2.223C59.581,40.455,59.497,40.479,59.427,40.499z"></path></svg>