<svg fill="#B36AE2" xmlns="http://www.w3.org/2000/svg" xmlns:xlink="http://www.w3.org/1999/xlink" version="1.1" x="0px" y="0px" viewBox="0 0 65 65" enable-background="new 0 0 65 65" xml:space="preserve"><path d="M59.69,62.664c0.01-0.042,0.028-0.08,0.03-0.124c0.001-0.012-0.005-0.021-0.005-0.033c0-0.011,0.005-0.021,0.005-0.031  l-1.758-44.109c-0.001-0.031-0.016-0.056-0.021-0.085c-0.009-0.052-0.019-0.102-0.037-0.15c-0.016-0.042-0.036-0.078-0.06-0.115  c-0.028-0.048-0.059-0.091-0.097-0.131c-0.025-0.025-0.051-0.046-0.079-0.068c-0.05-0.039-0.101-0.072-0.159-0.098  c-0.032-0.014-0.064-0.022-0.099-0.032c-0.038-0.011-0.071-0.031-0.111-0.036l-18.095-2.105l1.276-9.577  c0-0.002-0.001-0.004,0-0.006c0-0.003,0.002-0.005,0.002-0.008c0.006-0.053-0.008-0.101-0.013-0.152  c-0.005-0.046,0-0.094-0.012-0.138c-0.014-0.048-0.043-0.088-0.065-0.132c-0.021-0.042-0.036-0.087-0.064-0.124  c-0.03-0.039-0.073-0.065-0.11-0.098c-0.035-0.031-0.065-0.067-0.106-0.091c-0.043-0.025-0.095-0.034-0.144-0.05  c-0.044-0.015-0.084-0.039-0.132-0.045c-0.002,0-0.005,0.001-0.007,0s-0.004-0.001-0.006-0.002L10.45,1.75  c-0.022-0.002-0.042,0.006-0.064,0.005c-0.011-0.001-0.02-0.007-0.03-0.008C9.943,1.716,9.582,2.025,9.551,2.439L5.28,60.017  c0,0.004,0.002,0.008,0.001,0.012c0,0.003-0.002,0.006-0.002,0.01c-0.002,0.045,0.014,0.084,0.02,0.127  c0.007,0.054,0.007,0.108,0.024,0.157c0.015,0.043,0.044,0.077,0.066,0.116c0.026,0.045,0.046,0.092,0.08,0.131  c0.029,0.033,0.069,0.054,0.104,0.081c0.041,0.033,0.077,0.069,0.124,0.093c0.041,0.021,0.089,0.024,0.134,0.037  c0.047,0.014,0.091,0.036,0.142,0.04c0.007,0,0.013,0,0.02,0.001c0,0,0,0,0.001,0l52.944,2.434c0.011,0.001,0.021,0.001,0.033,0.001  l0,0h0.001h0.001l0,0c0.01,0,0.02,0,0.029-0.001c0.036-0.001,0.066-0.019,0.102-0.024c0.058-0.011,0.116-0.018,0.169-0.041  c0.039-0.018,0.069-0.045,0.104-0.068c0.045-0.029,0.09-0.055,0.127-0.093c0.029-0.03,0.049-0.067,0.073-0.103  c0.03-0.043,0.062-0.083,0.082-0.132C59.676,62.753,59.681,62.708,59.69,62.664z M10.99,3.321l27.905,3.207l-1.276,9.576  c0,0.002,0.001,0.003,0,0.005c0,0.002-0.002,0.004-0.002,0.007c-0.007,0.057,0.008,0.109,0.014,0.164  c0.005,0.042-0.001,0.086,0.011,0.126c0.015,0.052,0.046,0.096,0.071,0.144c0.02,0.038,0.032,0.079,0.059,0.113  c0.032,0.042,0.077,0.071,0.118,0.105c0.033,0.027,0.06,0.062,0.098,0.083c0.045,0.027,0.1,0.036,0.151,0.053  c0.042,0.014,0.079,0.037,0.125,0.043c0.003,0,0.006,0,0.009,0c0.001,0,0.002,0.001,0.003,0.001l18.215,2.119l1.7,42.653  L6.833,59.358L10.99,3.321z"></path></svg>