<svg fill="#B36AE2" xmlns="http://www.w3.org/2000/svg" xmlns:xlink="http://www.w3.org/1999/xlink" version="1.1" x="0px" y="0px" viewBox="0 0 65 65" enable-background="new 0 0 65 65" xml:space="preserve"><path d="M48.801,11.388L46.818,8.57l-0.321-6.204c-0.012-0.225-0.124-0.433-0.306-0.566s-0.416-0.177-0.632-0.121L16.624,9.208  c-0.369,0.096-0.607,0.454-0.554,0.832l0.775,5.434c0.008,0.053,0.021,0.104,0.039,0.154l2.635,7.134l0.853,5.648L19.3,32.586  c-0.048,0.188-0.021,0.388,0.075,0.557l2.745,4.83l0.888,2.271l-0.711,2.645c-0.095,0.354,0.08,0.726,0.414,0.877l3.336,1.518  l3.098,11.535v5.776c0,0.223,0.099,0.434,0.27,0.576c0.136,0.113,0.306,0.174,0.48,0.174c0.045,0,0.09-0.004,0.135-0.012  l12.75-2.328c0.268-0.05,0.488-0.24,0.576-0.498c0.087-0.259,0.027-0.544-0.156-0.745l-0.819-0.899l0.534-1.695  c0.02-0.062,0.031-0.126,0.034-0.19l0.223-4.768c0.008-0.168-0.041-0.334-0.139-0.471l-0.958-1.343l0.208-4.92l0.89-10.375v-9.424  c0-0.138-0.038-0.273-0.11-0.391l-1.108-1.815v-1.052l2.628-1.034c0.123-0.048,0.23-0.127,0.313-0.231l3.881-4.877  c0.105-0.132,0.163-0.297,0.163-0.467v-3.991C48.938,11.665,48.89,11.514,48.801,11.388z M47.438,15.548l-3.593,4.515l-2.916,1.147  c-0.287,0.113-0.476,0.39-0.476,0.698v1.773c0,0.138,0.038,0.273,0.11,0.391l1.108,1.815l0.003,9.148l-0.889,10.343l-0.221,5.21  c-0.008,0.167,0.041,0.332,0.139,0.468l0.956,1.342l-0.205,4.41l-0.635,2.014c-0.081,0.255-0.02,0.533,0.16,0.73l0.199,0.219  l-10.535,1.924V56.72c0-0.065-0.009-0.131-0.026-0.194l-3.216-11.973c-0.058-0.217-0.209-0.396-0.414-0.488l-3.079-1.4l0.61-2.27  c0.042-0.154,0.033-0.318-0.026-0.468l-0.998-2.551c-0.013-0.033-0.028-0.065-0.046-0.097l-2.622-4.614l1.034-4.031  c0.025-0.098,0.03-0.199,0.015-0.298l-0.887-5.875c-0.008-0.051-0.021-0.1-0.038-0.148l-2.633-7.131l-0.67-4.691l27.397-7.128  l0.284,5.501c0.008,0.141,0.055,0.277,0.136,0.393l1.971,2.8V15.548z"></path></svg>