<svg fill="#B36AE2" xmlns="http://www.w3.org/2000/svg" xmlns:xlink="http://www.w3.org/1999/xlink" version="1.1" x="0px" y="0px" viewBox="0 0 65 65" enable-background="new 0 0 65 65" xml:space="preserve"><path d="M60.035,36.178c-0.175-0.293-0.524-0.431-0.854-0.335l-1.242,0.364c0.028-0.107,0.032-0.223,0.01-0.337l-0.228-1.135  c-0.029-0.146-0.101-0.278-0.205-0.383l-0.618-0.618l-0.025-0.356c-0.017-0.234-0.142-0.447-0.338-0.575l-0.035-0.023  c0.261-0.088,0.462-0.317,0.503-0.604l0.091-0.635c0.041-0.286-0.086-0.57-0.326-0.73l-0.1-0.066l0.091-0.345  c0.075-0.289-0.027-0.595-0.262-0.78l-0.317-0.25l0.147-1.73c0.016-0.183-0.036-0.366-0.147-0.513l-0.408-0.544  c-0.121-0.163-0.305-0.269-0.506-0.294l-1.208-0.151l-0.819-0.781c-0.105-0.101-0.238-0.169-0.382-0.195l-2.169-0.399l-2.941-1.038  l-0.573-0.373l-0.125-0.599l0.12-0.408l0.455-0.455c0.097-0.097,0.165-0.219,0.197-0.353l0.364-1.498  c0.055-0.222,0.004-0.458-0.137-0.638l-0.636-0.817c-0.087-0.112-0.204-0.197-0.338-0.245l-3.29-1.187l0.14-0.679  c0.076-0.367-0.131-0.734-0.484-0.858l-1.544-0.545c-0.224-0.079-0.47-0.049-0.665,0.083c-0.196,0.131-0.32,0.346-0.334,0.582  l-0.072,1.253l-2.038-0.957l-1.635-0.635c-0.229-0.088-0.485-0.061-0.688,0.076s-0.327,0.363-0.333,0.607l-0.042,1.946l-0.733,1.761  l-0.426,0.812l-1.144,0.899c-0.12,0.094-0.208,0.223-0.253,0.369l-0.232,0.753l-0.924,0.185c-0.294,0.059-0.525,0.288-0.587,0.582  l-0.653,3.111l-0.909,0.046l-0.363-0.291L29.43,25.58c-0.179-0.277-0.519-0.404-0.836-0.313l-0.317,0.091  c-0.293,0.084-0.507,0.338-0.539,0.642l-0.218,2.048l-0.762,2.212l-2.179,4.766c-0.108,0.236-0.086,0.512,0.059,0.729l0.22,0.329  l-0.053,0.718L24,37.721l-0.282-0.07c-0.211-0.055-0.44-0.009-0.619,0.118L21.943,38.6l-0.738-0.216  c-0.378-0.109-0.77,0.087-0.91,0.449l-0.636,1.647L18.21,40.89l-0.828-0.415c-0.254-0.126-0.559-0.101-0.786,0.071l-0.821,0.616  l-0.911,0.336l-1.261-0.299l-1.474-1.761c-0.141-0.168-0.347-0.266-0.566-0.269c-0.231-0.01-0.428,0.091-0.572,0.255l-0.937,1.074  l-1.861,1.679c-0.032,0.029-0.062,0.061-0.089,0.095l-2.587,3.313c-0.103,0.132-0.159,0.295-0.159,0.462v0.515l-1.513,0.849  l-1.86,1.18c-0.292,0.186-0.419,0.547-0.309,0.875c0.104,0.306,0.392,0.509,0.71,0.509c0.022,0,0.045-0.001,0.067-0.003l3.088-0.277  l4.623-0.719l3.26-0.044c0.161-0.002,0.316-0.056,0.444-0.153l0.889-0.676l0.775,0.103l2.178,0.045  c0.04-0.001,0.082-0.002,0.123-0.008l17.57-2.55l25.825-5.583c0.236-0.052,0.434-0.213,0.529-0.435  c0.097-0.222,0.08-0.476-0.044-0.684L60.035,36.178z M35.139,44.217L17.68,46.749l-2.029-0.037l-0.999-0.137  c-0.196-0.028-0.397,0.026-0.556,0.146l-0.938,0.714l-3.066,0.041c-0.035,0.001-0.07,0.004-0.105,0.009l-4.443,0.692l0.932-0.522  c0.236-0.133,0.383-0.383,0.383-0.654v-0.695l2.388-3.059l1.874-1.696l0.421-0.479l1.073,1.281c0.104,0.124,0.245,0.211,0.402,0.248  l1.724,0.408c0.144,0.033,0.293,0.025,0.433-0.026l1.226-0.453c0.068-0.024,0.132-0.06,0.19-0.104l0.537-0.403l0.673,0.338  c0.167,0.083,0.359,0.101,0.54,0.051l2.088-0.59c0.228-0.064,0.411-0.231,0.496-0.451l0.522-1.354l0.428,0.125  c0.222,0.066,0.461,0.024,0.648-0.11l1.171-0.842l0.389,0.097c0.271,0.069,0.56-0.021,0.746-0.233l1.271-1.452  c0.107-0.123,0.171-0.276,0.184-0.438l0.091-1.226c0.012-0.167-0.031-0.333-0.125-0.473l-0.131-0.196l2.032-4.451l0.817-2.36  c0.019-0.054,0.031-0.109,0.037-0.166l0.08-0.746l0.431,0.345c0.144,0.114,0.324,0.171,0.506,0.163l1.77-0.09  c0.34-0.018,0.626-0.262,0.696-0.595l0.67-3.192L34.031,24c0.271-0.054,0.489-0.251,0.57-0.515l0.294-0.956l1.086-0.854  c0.083-0.065,0.151-0.147,0.2-0.241l0.528-1.012l0.816-1.952c0.036-0.087,0.056-0.18,0.058-0.273l0.021-1.018l3.584,1.635  c0.227,0.107,0.489,0.093,0.703-0.034s0.351-0.353,0.365-0.602l0.01-0.168c0.086,0.149,0.223,0.269,0.396,0.331l3.697,1.333  l0.28,0.36l-0.229,0.942l-0.441,0.441c-0.088,0.088-0.152,0.198-0.188,0.317l-0.228,0.771c-0.034,0.119-0.04,0.245-0.015,0.366  l0.228,1.089c0.041,0.195,0.158,0.367,0.325,0.475L47,25.027c0.049,0.032,0.101,0.058,0.155,0.078l3.096,1.092  c0.035,0.012,0.071,0.022,0.108,0.029l2.005,0.369l0.836,0.797c0.116,0.111,0.265,0.182,0.424,0.202l1.138,0.143l0.046,0.061  l-0.157,1.848c-0.021,0.251,0.085,0.497,0.283,0.653l0.248,0.196L55.08,30.88c-0.035,0.133-0.032,0.269,0.004,0.395l-0.022-0.001  c-0.205-0.007-0.416,0.075-0.564,0.226c-0.148,0.152-0.225,0.359-0.211,0.571l0.046,0.726c0.015,0.236,0.14,0.451,0.338,0.581  l0.732,0.479l0.019,0.264c0.013,0.181,0.09,0.35,0.218,0.478l0.656,0.656l0.073,0.367l-0.691,0.372  c-0.212,0.114-0.356,0.323-0.389,0.563c-0.031,0.239,0.055,0.479,0.231,0.645l0.727,0.682c0.193,0.183,0.468,0.249,0.724,0.173  l2.075-0.608l0.847,1.418L35.139,44.217z"></path><path d="M63.058,24.112c-0.207-0.152-0.479-0.188-0.717-0.095l-2.677,1.044c-0.303,0.118-0.495,0.418-0.477,0.742l0.039,0.671  l-0.284,1.342l-0.706,1.852c-0.025,0.068-0.041,0.139-0.047,0.211l-0.182,2.451c-0.007,0.098,0.005,0.195,0.035,0.288l0.681,2.088  c0.078,0.238,0.27,0.423,0.512,0.49c0.066,0.019,0.134,0.027,0.201,0.027c0.178,0,0.353-0.063,0.49-0.183l0.999-0.862  c0.098-0.084,0.172-0.192,0.216-0.313l0.816-2.27c0.041-0.116,0.054-0.241,0.036-0.363l-0.215-1.456l0.156-1.783l1.184-1.552  c0.089-0.116,0.143-0.256,0.152-0.402l0.09-1.271C63.38,24.513,63.265,24.265,63.058,24.112z M59.799,33.167l-0.284-0.872  l0.163-2.195l0.688-1.803c0.014-0.036,0.024-0.074,0.032-0.112l0.025-0.12l-0.146,1.669c-0.005,0.058-0.004,0.117,0.005,0.175  l0.2,1.357L59.799,33.167z M60.611,27.257c-0.009,0.01-0.017,0.021-0.023,0.032l0.127-0.602c0.015-0.065,0.02-0.132,0.016-0.199  l-0.014-0.228l0.932-0.363L60.611,27.257z"></path></svg>