<svg fill="#B36AE2" xmlns="http://www.w3.org/2000/svg" viewBox="0 0 96 64" x="0px" y="0px"><path fill-rule="evenodd" d="M11.9726869,51.7400539 C11.7721404,51.8400754 11.5438089,51.8698335 11.3243254,51.8245538 L8.76661229,51.2968942 C8.30198926,51.2010419 7.96865883,50.7919256 7.96865883,50.3175183 L7.96865883,41.9984716 L6.39404196,33.5547839 L5.43531226,32.0508786 C5.36634471,31.9426931 5.31883987,31.8222468 5.29538888,31.6961092 L4.37077761,26.7228374 L1.50866404,22.540756 C1.43327568,22.4305996 1.38070419,22.3064647 1.35404883,22.1756697 L0.374645838,17.3698433 L0.0920733165,10.9173211 C0.0623387003,10.2064799 0.76346006,9.69283306 1.43226363,9.93548746 L14.6413671,14.7279963 L17.9503253,13.9917894 L19.5140658,11.7512667 L18.2580224,8.26309356 C18.1156484,7.86770507 18.2356673,7.42548755 18.5584005,7.15633022 L20.8080826,5.28011063 L17.797413,1.86508309 C17.2238565,1.21449321 17.693815,0.192149207 18.5610501,0.203872747 L93.8447891,1.22158047 C94.3917523,1.22897448 94.831272,1.6744759 94.831272,2.22148911 L94.831272,48.7435387 L95.8391345,51.8270884 C95.8719176,51.9273881 95.8886191,52.0322444 95.8886191,52.1377657 L95.8886191,55.3487066 C95.8886191,55.9009913 95.4409038,56.3487066 94.8886191,56.3487066 L70.9246342,56.3487066 L68.3006692,57.6161874 C68.1620656,57.6831386 68.0098771,57.7171893 67.8559577,57.7156875 L63.2674048,57.670916 L62.4108349,58.265809 C62.3271915,58.3238999 62.2351653,58.3688734 62.1379404,58.3991736 L56.6693512,60.1034586 L53.2392939,61.6266702 C52.9226226,61.7672969 52.5557219,61.7339746 52.2695667,61.5385987 L50.8110267,60.5427632 L44.5802268,62.7662044 C44.2676645,62.8777412 43.9201295,62.826948 43.652562,62.6306236 L42.0420151,61.4489045 L35.9355532,61.4489045 L30.6116102,63.8116888 C30.4165884,63.8982402 30.1989958,63.9201452 29.9906358,63.8742023 L25.1230742,62.8009165 C24.7429449,62.7170989 24.4459981,62.4203133 24.3619741,62.0402295 L22.794889,54.9514912 L20.4234994,52.9990594 L18.6039032,53.6129524 C18.1355327,53.7709706 17.6219806,53.5630719 17.3954347,53.1237342 L16.5341395,51.4534344 L14.7807321,51.8236108 C14.4282621,51.8980236 14.0630099,51.7771064 13.8245696,51.5070719 L13.4011913,51.0275944 L11.9726869,51.7400539 Z M11.3896222,49.7959079 L13.1960062,48.8949828 C13.6013981,48.6927956 14.092071,48.7883862 14.3919186,49.1279648 L14.9379401,49.7463362 L16.8669571,49.3390855 C17.3075369,49.246071 17.7559427,49.4589937 17.9623152,49.8592095 L18.7790545,51.4431025 L20.3105489,50.9264088 C20.6379189,50.8159612 20.9991113,50.882325 21.2658391,51.1019295 L24.3324593,53.6267643 C24.5050293,53.768846 24.6250189,53.9646509 24.67327,54.1829155 L26.1770458,60.9852726 L30.1005326,61.8503921 L35.3179694,59.5348757 C35.4456938,59.4781911 35.5838806,59.4489045 35.7236185,59.4489045 L42.3695312,59.4489045 C42.5823144,59.4489045 42.7895505,59.5167777 42.9611069,59.6426551 L44.4078558,60.7041894 L50.6183473,58.4879952 C50.9196148,58.3804888 51.2541321,58.4235937 51.5183051,58.6039609 L52.9369852,59.5725816 L55.9106139,58.2520596 L61.3961763,56.5354689 L62.38819,55.8465093 C62.5584062,55.7282931 62.7611462,55.6658811 62.9683768,55.6679031 L67.6414735,55.7134995 L70.2608103,54.4482542 C70.3964473,54.3827361 70.5451331,54.3487066 70.6957651,54.3487066 L93.8886191,54.3487066 L93.8886191,52.2970453 L92.8807566,49.2134956 C92.8479735,49.1131959 92.831272,49.0083396 92.831272,48.9028183 L92.831272,3.20806219 L20.7890416,2.23417413 L22.988014,4.72848677 C23.3603438,5.15082356 23.3107653,5.79715188 22.8783774,6.15776046 L20.3768612,8.24400794 L21.5710859,11.5605036 C21.681028,11.8658252 21.6359778,12.2055115 21.4502508,12.4716206 L19.3675595,15.4556946 C19.2242525,15.6610244 19.0091294,15.8051206 18.7647117,15.8595008 L14.7913457,16.7435312 C14.6056205,16.784853 14.4119612,16.7723324 14.233103,16.7074394 L2.15268225,12.3244377 L2.35029659,17.0486424 L3.27337913,21.5781103 L6.14056461,25.7676027 C6.21922955,25.8825468 6.27301478,26.0126568 6.29847386,26.1495953 L7.22618983,31.1395667 L8.18476632,32.6432317 C8.25363452,32.7512613 8.30110273,32.871518 8.32458913,32.997461 L9.95171136,41.7227021 L9.96865883,41.9060262 L9.96865883,49.5027612 L11.3896222,49.7959079 Z"></path></svg>