<svg fill="#B36AE2" xmlns="http://www.w3.org/2000/svg" xmlns:xlink="http://www.w3.org/1999/xlink" version="1.1" x="0px" y="0px" viewBox="0 0 65 65" enable-background="new 0 0 65 65" xml:space="preserve"><path d="M63.586,17.182l-2.348-2.347c-0.063-0.063-0.136-0.114-0.216-0.151l-1.96-0.903l-0.948-0.731  c-0.198-0.153-0.458-0.195-0.695-0.117l-1.175,0.392c-0.081,0.027-0.157,0.068-0.225,0.121l-3.416,2.674l-2.069,0.134l-0.739-0.202  c-0.312-0.084-0.637,0.037-0.816,0.301l-1.129,1.654l-1.065,0.998l-1.869,0.576c-0.121,0.037-0.23,0.104-0.318,0.196l-3.539,3.662  l-1.602-8.138c-0.076-0.384-0.441-0.642-0.823-0.6l-8.813,1.025l-2.653,0.493L23.959,1.821c-0.058-0.258-0.247-0.467-0.499-0.55  c-0.252-0.082-0.527-0.025-0.728,0.148l-0.626,0.548c-0.046,0.041-0.087,0.087-0.123,0.138l-0.704,1.017  c-0.139,0.201-0.171,0.456-0.087,0.685l0.815,2.223l0.004,3.623l-0.395,3.806l-0.15,4.192l-1.743,2.978l-2.315,2.539l-1.684,1.167  l-1.235-0.309c-0.267-0.066-0.547,0.018-0.733,0.219l-0.938,1.017c-0.026,0.028-0.049,0.058-0.071,0.089l-2.427,3.6  c-0.083,0.124-0.128,0.27-0.128,0.419v1.252c0,0.078,0.012,0.156,0.036,0.23l0.654,2.028l-0.275,0.326l-0.66-0.193l-0.642-0.705  c-0.032-0.035-0.066-0.066-0.104-0.095L8.89,31.979c-0.25-0.188-0.59-0.201-0.853-0.033l-0.861,0.547  c-0.162,0.103-0.279,0.265-0.325,0.451l-0.704,2.817c-0.014,0.055-0.021,0.11-0.022,0.167l-0.072,3.74L4.97,40.624  c-0.162,0.143-0.254,0.348-0.254,0.563v1.279l-0.881,0.489l-1.564,0.131l-0.09-0.03c-0.233-0.077-0.49-0.034-0.686,0.111  c-0.197,0.147-0.309,0.382-0.3,0.628l0.157,4.382c0.003,0.099,0.027,0.197,0.069,0.287l0.47,1.017  c0.063,0.136,0.164,0.249,0.292,0.326l1.915,1.163l0.323,1.486c0.024,0.11,0.073,0.215,0.143,0.304l2.329,2.961l1.956,1.957  c0.04,0.04,0.083,0.075,0.131,0.104l2.64,1.66l2.898,3.432c0.102,0.12,0.238,0.205,0.391,0.243l2.504,0.626  c0.06,0.015,0.121,0.022,0.182,0.022c0.074,0,0.147-0.011,0.218-0.032l1.8-0.548c0.085-0.026,0.165-0.066,0.235-0.12l1.578-1.198  l1.535,0.797c0.165,0.085,0.355,0.106,0.537,0.06l2.974-0.782c0.237-0.063,0.429-0.237,0.513-0.467l1.168-3.18l1.521,0.435  c0.225,0.065,0.465,0.02,0.653-0.118l2.142-1.589l0.907,0.227c0.271,0.071,0.56-0.022,0.744-0.232l1.722-1.956  c0.112-0.127,0.178-0.288,0.187-0.458l0.078-1.564c0.008-0.156-0.033-0.311-0.118-0.442l-0.482-0.751l3.767-8.296l1.409-3.991  c0.021-0.058,0.033-0.116,0.039-0.177l0.338-3.453l0.665-0.15l0.658,1.099c0.038,0.063,0.085,0.12,0.14,0.169l0.862,0.784  c0.15,0.137,0.339,0.199,0.558,0.192l2.189-0.156c0.334-0.023,0.611-0.267,0.681-0.594l1.225-5.837l1.841-0.307  c0.271-0.045,0.495-0.234,0.585-0.493l0.56-1.603l2.107-1.744c0.087-0.072,0.157-0.164,0.204-0.267l2.033-4.461  c0.043-0.094,0.065-0.195,0.067-0.298l0.061-3.555l2.698,1.01l4.225,2.034c0.22,0.106,0.48,0.098,0.694-0.023  s0.354-0.338,0.378-0.583l0.315-3.365C63.823,17.56,63.744,17.339,63.586,17.182z M22.808,3.551l0.172,0.771l-0.245-0.667  L22.808,3.551z M62.094,19.934l-3.314-1.594l-3.755-1.409c-0.229-0.085-0.484-0.055-0.686,0.082s-0.324,0.364-0.328,0.607  l-0.076,4.46l-1.897,4.162l-2.136,1.767c-0.105,0.087-0.185,0.201-0.229,0.331l-0.481,1.38l-1.908,0.318  c-0.305,0.051-0.548,0.283-0.611,0.586l-1.214,5.784l-1.305,0.094l-0.543-0.493l-0.88-1.47c-0.166-0.277-0.488-0.419-0.81-0.346  l-1.723,0.391c-0.315,0.071-0.549,0.337-0.58,0.658l-0.382,3.901l-1.354,3.844l-3.911,8.607c-0.105,0.232-0.086,0.502,0.052,0.716  l0.573,0.893l-0.054,1.063l-1.247,1.417l-0.808-0.202c-0.219-0.054-0.449-0.009-0.628,0.125l-2.129,1.579l-1.835-0.523  c-0.379-0.113-0.774,0.094-0.91,0.462L25.71,60.59l-2.315,0.609l-1.699-0.883c-0.256-0.133-0.568-0.105-0.799,0.068l-1.849,1.404  l-1.473,0.448l-2.068-0.517l-2.817-3.336c-0.05-0.059-0.108-0.109-0.173-0.15l-2.667-1.678l-1.836-1.829L5.85,51.97l-0.355-1.633  c-0.044-0.201-0.168-0.375-0.344-0.481l-1.995-1.212l-0.311-0.672l-0.123-3.419l1.396-0.116c0.106-0.009,0.209-0.04,0.302-0.092  l1.408-0.782c0.238-0.132,0.386-0.383,0.386-0.655v-1.382l1.076-0.95c0.158-0.14,0.25-0.338,0.254-0.548l0.076-3.984l0.611-2.444  l0.139-0.089l0.608,0.669c0.093,0.102,0.211,0.176,0.343,0.215l1.33,0.391c0.287,0.085,0.593-0.009,0.784-0.235l0.859-1.018  c0.167-0.198,0.221-0.468,0.141-0.714l-0.746-2.313V29.6l2.267-3.362l0.598-0.648l1.134,0.284c0.208,0.053,0.432,0.012,0.609-0.111  l2.033-1.41c0.046-0.032,0.089-0.069,0.127-0.111l2.426-2.66c0.035-0.039,0.066-0.081,0.093-0.126l1.878-3.209  c0.063-0.107,0.098-0.228,0.102-0.352l0.154-4.331l0.396-3.833V6.696l2.351,10.553c0.088,0.395,0.477,0.648,0.869,0.574l3.314-0.618  l8.075-0.938l1.744,8.867c0.055,0.274,0.256,0.495,0.524,0.574c0.265,0.079,0.556,0.003,0.751-0.198l4.403-4.555l1.851-0.57  c0.109-0.034,0.209-0.091,0.292-0.169l1.252-1.173c0.04-0.038,0.076-0.08,0.106-0.125l0.874-1.28l0.344,0.094  c0.08,0.022,0.163,0.028,0.246,0.025l2.426-0.157c0.15-0.01,0.295-0.065,0.413-0.158l3.497-2.737l0.673-0.224l0.699,0.539  c0.045,0.034,0.093,0.063,0.144,0.087l1.915,0.883l2.004,2.003L62.094,19.934z"></path></svg>