<svg fill="#B36AE2" xmlns="http://www.w3.org/2000/svg" xmlns:xlink="http://www.w3.org/1999/xlink" version="1.1" x="0px" y="0px" viewBox="0 0 65 65" enable-background="new 0 0 65 65" xml:space="preserve"><path d="M62.086,22.715l-0.189-0.632c-0.067-0.224-0.235-0.404-0.454-0.486c-0.22-0.082-0.465-0.058-0.662,0.066l-0.506,0.316  c-0.091,0.056-0.168,0.131-0.227,0.22l-4.31,6.434l-1.141,1.08c-0.087,0.083-0.153,0.185-0.192,0.298l-0.41,1.176l-0.688,0.368  c-0.123,0.066-0.226,0.165-0.296,0.286l-0.328,0.568l-0.019-0.169l0.733-1.36l1.261-2.821l1.016-0.903  c0.075-0.066,0.136-0.147,0.179-0.237l0.695-1.453c0.167-0.349,0.041-0.768-0.291-0.967l-0.89-0.534l-0.76-0.663l-1.027-6.178  c-0.046-0.274-0.239-0.5-0.503-0.588l-2.039-0.68l-0.867-1.248c-0.109-0.157-0.274-0.266-0.461-0.306l-7.699-1.627l-1.576-0.667  c-0.031-0.013-0.064-0.024-0.098-0.033l-5.265-1.408l-4.875-0.713L27.856,6.75c-0.153-0.203-0.397-0.32-0.654-0.296  c-0.254,0.019-0.481,0.165-0.603,0.389l-0.034,0.062l-0.103-0.188c-0.095-0.174-0.255-0.303-0.445-0.36l-1.706-0.506  C24.2,5.817,24.08,5.81,23.965,5.833L23.27,5.959c-0.081,0.015-0.158,0.042-0.23,0.082l-0.401,0.223l0.063-0.201l1.105-1.804  l0.632-0.633c0.151-0.151,0.231-0.36,0.218-0.574c-0.012-0.214-0.116-0.412-0.284-0.545l-1.2-0.947  c-0.208-0.163-0.486-0.207-0.732-0.112l-1.326,0.506c-0.051,0.019-0.099,0.044-0.144,0.073l-1.778,1.165l-4.545,1.965l-1.617,0.334  l-1.527-0.263l-0.495-0.346c-0.316-0.221-0.749-0.166-0.999,0.126L8.496,6.777C8.392,6.899,8.329,7.052,8.317,7.212l-0.128,1.84  l0.119,4.832l-0.77,0.914l-3.211,2.347c-0.126,0.092-0.22,0.221-0.269,0.368l-1.137,3.411c-0.085,0.255-0.027,0.536,0.152,0.737  l1.456,1.63l0.395,1.578l-0.83,1.713c-0.046,0.096-0.072,0.201-0.074,0.307l-0.061,2.478l0.316,4.105  c0.012,0.162,0.077,0.315,0.184,0.437l1.832,2.085c0.143,0.162,0.348,0.255,0.563,0.255h1.657l1.165,1.482  c0.096,0.123,0.229,0.213,0.378,0.257l1.897,0.557l2.249,3.196c0.056,0.079,0.126,0.146,0.208,0.199l4.327,2.782l1.101,1.311  l0.358,4.062c0.003,0.037,0.009,0.074,0.018,0.11l0.505,2.084c0.031,0.128,0.096,0.246,0.187,0.341l1.216,1.273l0.133,0.373  l-1.045,1.516c-0.098,0.143-0.144,0.315-0.13,0.488l0.189,2.273c0.01,0.118,0.048,0.232,0.11,0.333l1.453,2.338  c0.073,0.118,0.178,0.214,0.302,0.275l1.642,0.82c0.073,0.036,0.151,0.061,0.232,0.072l1.428,0.197l0.27,0.578  c0.123,0.264,0.388,0.433,0.68,0.433h8.022c0.015,0,0.028,0,0.043-0.001l11.095-0.637l10.044-1.137  c0.36-0.041,0.641-0.333,0.664-0.695l0.126-1.895c0.007-0.103-0.007-0.205-0.041-0.301l-0.98-2.756l-0.369-3.762  c-0.008-0.083-0.029-0.164-0.064-0.239l-0.573-1.251l0.55-1.712l0.48-1.739l0.899-1.56c0.088-0.153,0.12-0.332,0.089-0.506  l-0.729-4.25l0.23-0.831l1.105-1.396c0.093-0.118,0.148-0.261,0.16-0.41l0.127-1.705c0.012-0.157-0.026-0.314-0.109-0.448  l-0.345-0.562l0.32-1.393l0.3-1.915l1.67-3.529l1.832-4.295c0.031-0.073,0.051-0.15,0.058-0.229l0.127-1.453  C62.123,22.901,62.113,22.806,62.086,22.715z M58.73,28.357l-1.705,3.601c-0.031,0.065-0.052,0.134-0.063,0.205l-0.306,1.969  l-0.379,1.641c-0.045,0.192-0.012,0.395,0.092,0.562l0.379,0.616l-0.092,1.233L55.6,39.519c-0.063,0.079-0.107,0.169-0.135,0.265  l-0.316,1.137c-0.029,0.105-0.035,0.216-0.018,0.324l0.712,4.16l-0.811,1.406c-0.032,0.056-0.057,0.114-0.073,0.176l-0.497,1.802  l-0.631,1.959c-0.058,0.178-0.046,0.372,0.032,0.542l0.643,1.401l0.366,3.729c0.006,0.061,0.019,0.12,0.039,0.178l0.959,2.696  l-0.074,1.114l-9.38,1.063l-11.032,0.632h-7.523l-0.24-0.515c-0.107-0.23-0.325-0.391-0.577-0.426l-1.71-0.236l-1.342-0.671  l-1.246-2.004l-0.152-1.826l1.111-1.611c0.137-0.198,0.17-0.45,0.089-0.678l-0.315-0.885c-0.036-0.1-0.091-0.189-0.164-0.266  l-1.187-1.243l-0.445-1.834l-0.375-4.241c-0.014-0.153-0.074-0.298-0.173-0.416l-1.326-1.578c-0.048-0.058-0.105-0.107-0.168-0.148  l-4.299-2.765l-2.315-3.29c-0.098-0.139-0.239-0.24-0.402-0.288l-1.918-0.563l-1.241-1.58c-0.142-0.182-0.36-0.287-0.59-0.287H7.194  l-1.442-1.642L5.457,29.33l0.059-2.239l0.877-1.813c0.076-0.158,0.095-0.338,0.052-0.509L5.94,22.748  c-0.029-0.118-0.087-0.227-0.168-0.317l-1.29-1.444l0.923-2.771l3.091-2.259c0.049-0.035,0.093-0.077,0.131-0.123l1.011-1.2  c0.118-0.14,0.181-0.318,0.176-0.501L9.688,9.087l0.108-1.521l0.913-1.065l0.075,0.052c0.09,0.063,0.194,0.105,0.302,0.125  l1.832,0.316c0.092,0.016,0.187,0.014,0.279-0.005l1.831-0.378c0.05-0.01,0.099-0.026,0.146-0.046l4.675-2.021  c0.039-0.017,0.077-0.038,0.113-0.061l1.765-1.155l0.853-0.325l0.204,0.161l-0.099,0.099C22.642,3.303,22.605,3.35,22.575,3.4  l-1.2,1.958c-0.032,0.052-0.057,0.107-0.076,0.166l-0.379,1.2c-0.104,0.331,0.032,0.691,0.33,0.869l0.632,0.379  c0.229,0.138,0.516,0.143,0.75,0.013l1.028-0.572l0.397-0.072l1.237,0.367l0.231,0.423c0.108,0.199,0.301,0.338,0.524,0.378  l0.694,0.126c0.201,0.036,0.402-0.011,0.563-0.123l1.879,2.49c0.119,0.158,0.295,0.262,0.49,0.291l5.094,0.739l5.129,1.377  l1.595,0.675c0.044,0.019,0.09,0.033,0.137,0.043l7.479,1.581l0.84,1.208c0.093,0.133,0.226,0.232,0.379,0.283l1.847,0.616  l0.998,5.998c0.029,0.171,0.116,0.328,0.247,0.442l1.012,0.884c0.033,0.029,0.069,0.055,0.107,0.078l0.362,0.217l-0.336,0.701  l-1.023,0.91c-0.08,0.071-0.144,0.158-0.187,0.254l-1.302,2.917l-0.82,1.517c-0.072,0.134-0.103,0.288-0.085,0.439l0.126,1.137  c0.036,0.325,0.277,0.589,0.598,0.653l0.947,0.189c0.319,0.062,0.636-0.081,0.797-0.36l0.587-1.014l0.759-0.405  c0.166-0.089,0.293-0.237,0.354-0.415l0.446-1.281l1.067-1.011c0.04-0.038,0.075-0.08,0.105-0.125l3.544-5.284L58.73,28.357z"></path></svg>