<svg fill="#B36AE2" xmlns="http://www.w3.org/2000/svg" xmlns:xlink="http://www.w3.org/1999/xlink" version="1.1" x="0px" y="0px" viewBox="0 0 65 65" enable-background="new 0 0 65 65" xml:space="preserve"><path d="M63.418,53.061c0.007-0.044,0.024-0.084,0.023-0.13c0-0.001-0.001-0.002-0.001-0.003c0-0.002,0.001-0.003,0.001-0.005  l-1.268-37.806c0.045-0.094,0.075-0.196,0.077-0.307c0.009-0.414-0.32-0.757-0.734-0.766c-17.938-0.37-36.09-1.317-53.953-2.815  C7.53,11.229,7.5,11.241,7.468,11.243C7.4,11.246,7.335,11.25,7.273,11.27c-0.002,0-0.003,0.002-0.005,0.002  c-0.091,0.03-0.173,0.076-0.246,0.136c-0.003,0.003-0.006,0.007-0.009,0.011c-0.065,0.057-0.122,0.122-0.165,0.199  c-0.019,0.033-0.025,0.073-0.039,0.109c-0.017,0.047-0.042,0.089-0.05,0.141L1.566,47.477c-0.006,0.044,0.006,0.085,0.007,0.128  c0.001,0.051-0.003,0.102,0.008,0.15c0.011,0.047,0.035,0.087,0.054,0.13c0.02,0.045,0.035,0.091,0.063,0.13  c0.028,0.04,0.066,0.069,0.102,0.103c0.034,0.033,0.064,0.069,0.104,0.096c0.042,0.026,0.091,0.04,0.139,0.059  c0.04,0.015,0.074,0.04,0.117,0.049c18.216,3.66,35.973,5.453,54.087,5.453c2.147,0,4.303-0.025,6.461-0.075  c0.003,0,0.005,0,0.008,0c0.054-0.002,0.102-0.023,0.151-0.036c0.045-0.011,0.094-0.014,0.135-0.032  c0.044-0.021,0.078-0.055,0.117-0.083s0.083-0.049,0.116-0.084s0.052-0.08,0.077-0.121c0.026-0.041,0.059-0.076,0.076-0.122  C63.409,53.171,63.41,53.114,63.418,53.061z M3.155,46.98l4.987-34.202c17.402,1.444,35.069,2.366,52.543,2.744l1.23,36.683  C42.157,52.611,22.919,50.901,3.155,46.98z"></path></svg>