<?xml version="1.0" encoding="utf-8"?>
<!-- Generator: Adobe Illustrator 23.1.1, SVG Export Plug-In . SVG Version: 6.00 Build 0)  -->
<svg version="1.1" id="Layer_1" xmlns="http://www.w3.org/2000/svg" xmlns:xlink="http://www.w3.org/1999/xlink" x="0px" y="0px"
	 viewBox="0 0 444 444" style="enable-background:new 0 0 444 444;" xml:space="preserve">
<style type="text/css">
	.st0{fill:#C0D630;}
	.st1{fill:#0FA84C;}
	.st2{fill:#5E54A4;}
	.st3{fill:#FFFFFF;}
</style>
<g>
	<circle class="st0" cx="222" cy="222" r="221.6"/>
</g>
<path class="st1" d="M73.9,220.2l-53.3,67.4L186,431.9l211.7-321.3L320.4,38c0,0-130.6,304.4-141.8,304.4
	C167.4,342.5,73.9,220.2,73.9,220.2z"/>
<g>
	<circle class="st2" cx="123.9" cy="123.5" r="123.5"/>
	<path class="st3" d="M85.2,169l-14.5,18.3l6.6,5.2l14.5-18.3l3.3,28.4l8.4-1l-4.2-36.8l26.1-33l15.4,39.1l-14.7,34.1l7.8,3.3
		l11.4-26.3l8.5,21.7l7.9-3.1l-8.6-21.7l26.3,11.4l3.3-7.7l-34-14.8l-15.5-39.1L175,135l22.1,29.8l6.8-5.1l-17.1-23l23.1,3.5
		l1.3-8.4l-23.1-3.4l23-17.1l-5.1-6.8l-29.8,22.1l-41.6-6.2l26.1-32.9l36.8-4.3l-0.9-8.4L168.2,78l14.5-18.3l-6.6-5.2l-14.5,18.3
		l-3.3-28.4l-8.4,1l4.2,36.8l-26.1,33L112.4,76L127.2,42l-7.8-3.3L108,64.9l-8.5-21.7l-7.9,3.1l8.6,21.7L73.9,56.6l-3.3,7.7l34,14.8
		l15.5,39.1l-41.6-6.1L56.4,82.3l-6.8,5.1l17.1,23l-23.1-3.5l-1.3,8.4l23.1,3.4l-23,17.1l5.1,6.8l29.8-22.1l41.6,6.2l-26.1,32.9
		l-36.8,4.3l0.9,8.4L85.2,169z"/>
</g>
</svg>
