<?xml version="1.0" encoding="utf-8"?>
<!-- Generator: Adobe Illustrator 23.1.1, SVG Export Plug-In . SVG Version: 6.00 Build 0)  -->
<svg version="1.1" id="Layer_1" xmlns="http://www.w3.org/2000/svg" xmlns:xlink="http://www.w3.org/1999/xlink" x="0px" y="0px"
	 viewBox="0 0 444 444" style="enable-background:new 0 0 444 444;" xml:space="preserve">
<style type="text/css">
	.st0{fill:#C0D630;}
	.st1{fill:#0FA84C;}
	.st2{fill:#F78F1E;}
	.st3{fill:#DF1C4D;}
	.st4{fill:#5E54A4;}
	.st5{fill:#FFFFFF;}
	.st6{fill:#1D2959;}
	.st7{fill:#00B6CF;}
</style>
<g>
	<circle class="st0" cx="222" cy="222" r="221.6"/>
</g>
<path class="st1" d="M73.9,220.2l-53.3,67.4L186,431.9l211.7-321.3L320.4,38c0,0-130.6,304.4-141.8,304.4
	C167.4,342.5,73.9,220.2,73.9,220.2z"/>
<g>
	<circle class="st2" cx="111.7" cy="111.2" r="110.8"/>
	
		<ellipse transform="matrix(0.5404 -0.8414 0.8414 0.5404 -53.4368 183.7295)" class="st3" cx="141.5" cy="140.8" rx="6.9" ry="28.4"/>
	<path class="st4" d="M55.8,46c40.6-26,83.2-15,119.2-4.3c14.3,4.2,16,23.8,2.6,30.4l-14.2,7.1c0,0,7.3,14.6,11.1,23.2l-30.3,14.8
		c-10.2,5-11,19.2-1.4,25.2l34.4,21.9c-6.9,15.2-22.3,28.1-51.9,34C25.6,217.8,3.7,79.4,55.8,46z"/>
	
		<ellipse transform="matrix(0.7466 -0.6652 0.6652 0.7466 -15.9796 100.8475)" class="st5" cx="124.4" cy="71.4" rx="20.2" ry="12.2"/>
	<circle class="st6" cx="124.4" cy="71.4" r="3.8"/>
	<path class="st4" d="M140.3,53.9l-36.2,32.3L92.7,73.4l36.2-32.3L140.3,53.9z"/>
	<path class="st3" d="M133.6,178.4c-3.6-3.9-3.4-9.9,0.5-13.6l15.7-14.4c3.9-3.6,10.1-3.4,13.8,0.5s3.4,9.9-0.5,13.6l-15.7,14.4
		C143.3,182.5,137.2,182.2,133.6,178.4z"/>
	<ellipse class="st7" cx="183.5" cy="128.2" rx="20.8" ry="22.2"/>
	<path class="st7" d="M210.6,95.4l-6.4,33.7l-24.1-22.8L210.6,95.4z"/>
</g>
</svg>
