<?xml version="1.0" encoding="utf-8"?>
<!-- Generator: Adobe Illustrator 23.1.1, SVG Export Plug-In . SVG Version: 6.00 Build 0)  -->
<svg version="1.1" id="Layer_1" xmlns="http://www.w3.org/2000/svg" xmlns:xlink="http://www.w3.org/1999/xlink" x="0px" y="0px"
	 viewBox="0 0 444 444" style="enable-background:new 0 0 444 444;" xml:space="preserve">
<style type="text/css">
	.st0{fill:#C0D630;}
	.st1{fill:#0FA84C;}
	.st2{fill:#F78F1E;}
	.st3{fill:#4C4D4D;}
	.st4{fill:#00B6CF;}
	.st5{fill:#FFFFFF;}
	.st6{fill:#1D2959;}
	.st7{fill:#FFFFFF;stroke:#FFFFFF;stroke-width:4;stroke-linecap:round;stroke-miterlimit:10;}
</style>
<g>
	<circle class="st0" cx="222" cy="222" r="221.6"/>
</g>
<path class="st1" d="M73.9,220.2l-53.3,67.4L186,431.9l211.7-321.3L320.4,38c0,0-130.6,304.4-141.8,304.4
	C167.4,342.5,73.9,220.2,73.9,220.2z"/>
<g>
	<circle class="st2" cx="111.2" cy="111.2" r="110.8"/>
	<path class="st3" d="M139.3,113c0.2-0.7,0.4-1.3,0.5-2.1c1.4-7.6-3.7-14.9-11.3-16.2c-3.2-0.6-6.3-0.1-9.2,1.4
		c-2.9-6.8-9.1-11.8-16.5-13.2c-8.7-1.6-17.4,2.2-22.3,9.3c-3.9-5.7-10-9.6-17-10.8c-14.3-2.6-28,6.9-30.6,21.2
		c-0.2,0.7-0.2,1.4-0.3,2.2c-0.1,0-0.2-0.1-0.3-0.1c-9.9-1.8-19.2,4.8-21,14.6c-1.8,9.9,4.8,19.2,14.6,21.1c2,0.4,3.9,0.4,5.8,0.1
		c4.5,10.8,14.3,18.8,25.9,20.9c7.8,1.4,15.8,0.1,22.8-3.8c3.9,3.1,8.6,5.2,13.5,6.1c10.7,1.9,21.5-1.9,28.6-10.2
		c2.3,1.4,4.8,2.4,7.6,2.9c12.1,2.1,23.6-5.9,25.8-17.9C157.8,126.9,150.5,115.8,139.3,113L139.3,113z M137.1,114.2
		c0.1,0.1,0.3,0.1,0.5,0.1C137.4,114.2,137.2,114.2,137.1,114.2L137.1,114.2z"/>
	<path class="st4" d="M181.6,58.6c-36.2-29.9-118.4,6.8-118.4,6.8l36.8,18.3c0,0-5.5,11.1-8.4,17.6l22.9,11.2
		c7.7,3.8,8.3,14.6,1.1,19.1l-26.1,16.6c5.3,11.6,16.9,21.4,39.3,25.8C204.4,188.8,217.8,88.4,181.6,58.6L181.6,58.6z"/>
	
		<ellipse transform="matrix(0.6652 -0.7466 0.7466 0.6652 -14.788 122.8103)" class="st5" cx="129.6" cy="77.9" rx="9.3" ry="15.3"/>
	<circle class="st6" cx="129.6" cy="77.8" r="2.9"/>
	<path class="st4" d="M138.6,49.8l27.5,24.5l-8.6,9.7L130,59.5L138.6,49.8z"/>
	<path class="st7" d="M99.3,115.7l-25.2-9.8 M74.7,140.8l24.1-15.8 M94,120.7l-28.5,0.4"/>
</g>
</svg>
