<?xml version="1.0" encoding="utf-8"?>
<!-- Generator: Adobe Illustrator 23.1.1, SVG Export Plug-In . SVG Version: 6.00 Build 0)  -->
<svg version="1.1" id="Layer_1" xmlns="http://www.w3.org/2000/svg" xmlns:xlink="http://www.w3.org/1999/xlink" x="0px" y="0px"
	 viewBox="0 0 444 444" style="enable-background:new 0 0 444 444;" xml:space="preserve">
<style type="text/css">
	.st0{fill:#C0D630;}
	.st1{fill:#0FA84C;}
	.st2{fill:#DF1C4D;}
	.st3{fill-rule:evenodd;clip-rule:evenodd;fill:#FDB615;}
</style>
<g>
	<circle class="st0" cx="222" cy="222" r="221.6"/>
</g>
<path class="st1" d="M73.9,220.2l-53.3,67.4L186,431.9l211.7-321.3L320.4,38c0,0-130.6,304.4-141.8,304.4
	C167.4,342.5,73.9,220.2,73.9,220.2z"/>
<g>
	<circle class="st2" cx="111.2" cy="111.2" r="110.8"/>
	<path class="st3" d="M61.4,143.8c-46,62.2,105.3,17,32.9-6.2C87.4,119.2,63.2,122.3,61.4,143.8z M48.2,140.9
		c4.1-0.8,6.6-5.6,5.6-10.6c-1-5.1-5.1-8.6-9.1-7.9c-4.1,0.8-6.6,5.6-5.6,10.6C40,138.2,44.1,141.7,48.2,140.9z M63,123.2
		c4.8-0.9,7.6-7.2,6.2-14.1c-1.3-6.9-6.2-11.7-11-10.8s-7.6,7.2-6.2,14.1C53.3,119.3,58.2,124.1,63,123.2z M87.8,118.5
		c4.8-0.9,7.6-7.2,6.2-14.1c-1.3-6.9-6.2-11.7-11-10.8s-7.6,7.2-6.2,14.1C78.2,114.5,83.1,119.4,87.8,118.5z M104.8,110.9
		c-4.1,0.8-6.6,5.6-5.6,10.6c1,5.1,5.1,8.6,9.1,7.9c4.1-0.8,6.6-5.6,5.6-10.6C112.9,113.6,108.8,110.1,104.8,110.9z"/>
	<path class="st3" d="M135.7,87.3c-46.1,62.2,105.3,17,32.9-6.2C161.8,62.6,137.6,65.7,135.7,87.3L135.7,87.3z M122.3,84.7
		c4.1-0.8,6.6-5.6,5.6-10.6c-1-5.1-5.1-8.6-9.1-7.9c-4.1,0.8-6.6,5.6-5.6,10.6C114.2,82,118.3,85.5,122.3,84.7z M137.1,67
		c4.8-0.9,7.6-7.2,6.2-14.1c-1.3-6.8-6.2-11.7-11-10.8c-4.8,0.9-7.6,7.2-6.2,14.1S132.3,67.9,137.1,67z M162,62.3
		c4.8-0.9,7.6-7.2,6.2-14.1c-1.3-6.8-6.2-11.7-11-10.8c-4.8,0.9-7.6,7.2-6.2,14.1C152.3,58.3,157.2,63.2,162,62.3z M178.9,54.7
		c-4.1,0.8-6.6,5.6-5.6,10.6c1,5.1,5.1,8.6,9.1,7.9c4.1-0.8,6.6-5.6,5.6-10.7C187.1,57.4,183,53.9,178.9,54.7z"/>
</g>
</svg>
