<?xml version="1.0" encoding="utf-8"?>
<!-- Generator: Adobe Illustrator 23.1.1, SVG Export Plug-In . SVG Version: 6.00 Build 0)  -->
<svg version="1.1" id="Layer_1" xmlns="http://www.w3.org/2000/svg" xmlns:xlink="http://www.w3.org/1999/xlink" x="0px" y="0px"
	 viewBox="0 0 444 444" style="enable-background:new 0 0 444 444;" xml:space="preserve">
<style type="text/css">
	.st0{fill:#C0D630;}
	.st1{fill:#0FA84C;}
	.st2{fill:#F6C5D1;}
	.st3{fill:#DE1C4D;}
	.st4{fill:#010101;}
	.st5{fill:#FCB515;}
</style>
<g>
	<circle class="st0" cx="222" cy="222" r="221.6"/>
</g>
<path class="st1" d="M73.9,220.2l-53.3,67.4L186,431.9l211.7-321.3L320.4,38c0,0-130.6,304.4-141.8,304.4
	C167.4,342.5,73.9,220.2,73.9,220.2z"/>
<g>
	<path class="st2" d="M113.5,0.2C113.5,0.3,113.5,0.3,113.5,0.2c-1.6,0.1-3.2,0.1-4.8,0.1c0,0,0,0,0-0.1
		C110.3,0.2,111.9,0.2,113.5,0.2z"/>
	<path class="st2" d="M0.3,113.5L0.3,113.5L0.3,113.5c-0.1-1.6-0.1-3.2-0.1-4.8c0,0,0,0,0.1,0C0.3,110.3,0.3,111.9,0.3,113.5z"/>
	<path class="st2" d="M221.9,108.7c0.1,0,0.1,0,0.1,0c0,1.6,0,3.2,0,4.8h-0.1h-0.1C221.9,111.9,221.9,110.3,221.9,108.7z"/>
	<path class="st2" d="M108.7,222c0-0.1,0-0.1,0-0.1c1.6,0,3.2,0,4.8,0c0,0.1,0,0.1,0,0.1C111.9,222,110.3,222,108.7,222z"/>
	<path class="st3" d="M0.3,113.5c0-1.6,0-3.2,0-4.8c0.2-10.5,1.8-20.8,5.1-30.8c6.3-19.8,17.2-36.6,32.8-50.3
		c13.7-12,29.5-20.1,47.3-24.4c5.9-1.4,11.9-2.3,18-2.7c1.7-0.1,3.4-0.2,5.1-0.2c1.6,0,3.2,0,4.8,0c10.5,0.2,20.8,1.9,30.8,5.1
		c19.8,6.3,36.5,17.2,50.2,32.8c3.2,3.7,6.2,7.5,8.9,11.6c0.1,0.2,0.2,0.3,0.3,0.5c-0.1,0.1-0.3,0.2-0.4,0.2
		c-5.4,3.3-10.8,6.7-16.2,10c-10.6,6.6-21.3,13.1-31.9,19.6c-0.1-3.2-0.2-6.3-0.2-9.5c-0.6,0-1.1,0-1.5,0c1.6-0.2,3.4-0.4,5-0.6
		c1.4-0.2,2.9-0.2,4.1-1.1c5.1-3,8.2-7.2,8.9-13.2c0.5-4.4-0.4-8.5-2.7-12.3c-4.2-6.9-10.6-10.5-18.4-11.4c-1.5-0.2-2.9,0.8-3.2,2.2
		c-0.7,2.7,1.1,5.2,3.9,5.5c3.3,0.3,6.2,1.5,8.6,3.8c4.1,4.1,5.1,9,3.6,14.6c-0.1,0.3-0.2,0.5-0.6,0.5c-1.1,0.3-2.2,0.7-3.2,1
		c-3.1,1.2-6.4,1.2-9.6,0.9c-3.2-0.3-6.4-1-9.6-1.8c-4.4-1.1-8.7-2.6-12.6-5.2c-4.2-2.8-7.4-6.3-9.3-10.9c-0.7-1.8-1.2-3.5-0.8-5.4
		c0.7-2.7,2.4-4.3,5.1-5c2.1-0.6,4.2-0.7,6.4-0.7c0.6,0,1.2,0,1.9-0.2c1.6-0.5,2.6-2,2.6-4s-1.6-3.5-3.6-3.5c-1.3,0-2.6,0.1-3.9,0.2
		c-3.3,0.4-6.6,1.2-9.5,2.9c-4.3,2.5-6.6,6.1-6.6,11.1c0.1,4.3,1.4,8.3,3.8,12c2.9,4.7,7,8.1,11.7,10.9c0.2,0.1,0.4,0.1,0.4,0.3
		c-1.1,0.2-2.1,0.2-3.2,0.2c-2.3,0-4.6-0.3-6.9-0.7c-3.2-0.6-6.2-1.6-8.7-3.7c-2.4-2-3.9-4.5-4.1-7.8c-0.1-0.7,0-1.4-0.2-2.1
		c-0.6-2-2.6-2.9-4.2-2.7c-2.1,0.2-3.3,1.6-3.4,3.6c0,2.8,0.6,5.5,1.9,8.1c2.7,5.2,6.9,8.7,12.3,10.7c3.1,1.2,6.2,1.8,9.4,2.2
		c2.8,0.3,5.6,0.3,8.3-0.2c0.6-0.1,1.2-0.2,1.9-0.3c0,0.1,0,0.2-0.1,0.2c-1.9,2.9-4,5.7-6.7,7.8c-2.8,2.2-6.1,3.6-9.8,3.3
		c-1.5-0.1-3-0.4-4.4-0.8c-1.3-0.3-2.5-0.1-3.4,0.9c-1.8,2-1.2,5.4,1.6,6.4c3.2,1.1,6.4,1.4,9.8,0.9c6.7-1,12.1-4.3,16.4-9.4
		c1.8-2.1,3.1-4.4,4.4-6.8c0.2-0.4,0.4-0.6,0.9-0.6c1.9,0.2,3.8,0.2,5.7,0.2c0.1,0,0.3-0.1,0.5,0.2c-0.1,1.2-0.1,2.4-0.1,3.7
		c-0.1,2.8-0.1,5.7-0.3,8.5c-0.1,1.3,0,2.6-0.2,3.9c-0.1,0.1-0.3,0.2-0.4,0.2c-16.1,9.7-32.2,19.3-48.4,28.8
		c-0.2,0.2-0.4,0.3-0.8,0.3c0.1-0.2,0.3-0.3,0.4-0.6c4.4-4.3,6.1-9.7,5-15.8c-1.1-6.2-4.4-10.8-9.5-14.2c-3.3-2.2-7.1-3.6-11.1-4
		c-2.1-0.2-3.6,0.9-3.8,2.9c-0.2,2.7,1.4,4.6,4.2,4.9c3.2,0.3,6,1.5,8.3,3.7c4.2,4.1,5.1,9.1,3.7,14.7c-0.1,0.3-0.3,0.4-0.6,0.6
		c-1.1,0.3-2.2,0.7-3.2,1.1c-2.9,1.1-6.1,1.2-9.2,0.9c-3.5-0.3-7-1-10.4-1.9c-4.4-1.1-8.6-2.7-12.3-5.2c-4.2-2.8-7.4-6.3-9.3-11.1
		c-0.7-1.7-1.2-3.5-0.7-5.3c0.7-2.8,2.6-4.3,5.3-5.1c2-0.6,4-0.6,6-0.7c0.8,0,1.5-0.1,2.3-0.3c1.5-0.7,2.5-2.6,2-4.3
		c-0.4-1.9-1.7-3.1-3.5-3.1c-1.7,0-3.4,0.2-5,0.4c-3.2,0.5-6.2,1.4-8.9,3.1c-3.9,2.4-6,5.9-6,10.6c0,3.4,0.8,6.6,2.3,9.7
		c2.6,5.4,6.7,9.3,11.7,12.6c0.6,0.3,1.2,0.8,1.9,1.2c-0.7,0.1-1.2,0.2-1.8,0.2c-2.2,0.1-4.5,0-6.7-0.3c-2.8-0.4-5.7-1.1-8.2-2.5
		c-4-2.3-6.4-5.7-6.4-10.4c0-1.6-1-2.8-2.5-3.4c-2.4-0.8-4.6,0.4-5,2.8c-0.1,0.9,0,1.8,0,2.7c0.4,4.2,2.2,7.8,5.1,10.8
		c2.7,2.9,6.1,4.9,9.8,6.2c2.9,1,5.9,1.6,9,1.9c2.7,0.3,5.3,0.3,8-0.2c0.6-0.1,1.2-0.2,1.9-0.4c0,0.2,0,0.2-0.1,0.2
		c-1.8,2.8-3.7,5.3-6.2,7.4c-2.8,2.3-5.9,3.7-9.5,3.7c-1.7,0-3.3-0.4-4.9-0.8c-1-0.3-2.1-0.2-3,0.4c-1.2,0.9-1.7,2.2-1.5,3.6
		c0.2,1.6,1.1,2.8,2.7,3.2c4,1.3,8.1,1.4,12.1,0.4c6.3-1.6,11.2-5.2,15-10.5c1.2-1.8,2.3-3.6,3.4-5.4c0.1-0.2,0.2-0.4,0.6-0.3
		c1.9,0.2,3.9,0.2,5.9,0.2c0.2,0,0.3-0.1,0.5,0.1c0,0.2,0.1,0.3,0,0.5c-0.1,2.7-0.2,5.2-0.2,7.9c0,0.1-0.1,0.2-0.1,0.3
		c-0.2,0.1-0.3,0.1-0.4,0.2c-15.8,9.1-31.5,18.2-47.5,27.2c-3.4,1.9-6.8,3.9-10.2,5.8c-1.8-3.2-3.3-6.6-4.8-10.1
		c-3.5-8.5-5.9-17.2-7.2-26.2C0.8,122.6,0.4,118,0.3,113.5z"/>
	<path class="st3" d="M113.5,221.9c-1.6,0-3.2,0-4.8,0c-10.6-0.2-20.8-1.9-30.8-5.1c-7.6-2.4-14.9-5.6-21.8-9.6
		c-0.2-0.1-0.2-0.1-0.4-0.2c1-0.7,2-1.4,3-2.1c3.3-2.3,6.8-4.6,10.1-6.9c0.2,0.4,0.3,0,0.4-0.1c2.9-2.1,5.8-4.1,8.7-6.1
		c1.2-0.9,2.3-1.8,3.7-2.5c0.1-0.1,0.2-0.1,0.1-0.2l0,0c0.1,0,0.2,0,0.2-0.1l0,0c0.1,0,0.2-0.1,0.2-0.1l0,0c0.1,0,0.2,0,0.2-0.1l0,0
		c0.2,0,0.3-0.1,0.3-0.2l0,0c0.2-0.1,0.3-0.1,0.2-0.2l0,0c0.3,0.1,0.6-0.2,0.8-0.4c21.9-14.9,43.9-29.9,65.8-44.8
		c3.9-2.6,7.9-5.2,11.6-8c8.9-6.6,17.6-13.3,26.4-20c10.8-8.2,21.6-16.3,32.4-24.4c1.1,5.9,1.7,11.9,1.9,17.9c0,1.6,0,3.2,0,4.8
		c-0.2,10.5-1.9,20.8-5.1,30.8c-5,15.8-13.1,29.9-24.4,42c-14.4,15.6-31.9,26.2-52.4,31.8c-6.1,1.6-12.3,2.8-18.5,3.4
		C118.9,221.6,116.2,221.8,113.5,221.9z"/>
	<path class="st4" d="M68.8,198.1c-3.3,2.3-6.8,4.6-10.1,6.9c-1,0.7-2,1.4-3,2.1c-2.5-1.4-5-2.9-7.3-4.6
		c-14.6-10.1-26.2-23-34.7-38.6c-0.1-0.2-0.2-0.4-0.3-0.6c3.4-1.9,6.8-3.9,10.2-5.8c15.9-9,31.6-18.1,47.5-27.2
		c0.2-0.1,0.3-0.1,0.4-0.2c0,0.2,0,0.4,0,0.6c-0.2,6.9-0.5,13.9-0.8,20.9c-0.2,4.4-0.3,8.7-0.5,13.1c-0.2,7-0.6,14-0.8,20.9
		C69.1,189.6,69,193.9,68.8,198.1z"/>
	<path class="st4" d="M220,90.8c-10.8,8.1-21.6,16.3-32.4,24.4c-8.8,6.7-17.5,13.4-26.4,20c-3.8,2.8-7.8,5.4-11.6,8
		c-22,14.9-43.9,29.9-65.8,44.8c-0.2,0.1-0.4,0.4-0.8,0.4c0.2-0.2,0.5-0.4,0.8-0.6c0.4-0.2,0.7-0.6,0.6-1.1c-0.1-0.6,0-1.1-0.1-1.7
		c-0.3-12.2-0.6-24.5-0.8-36.7c-0.1-4.5-0.2-9-0.3-13.5c-0.1-3.9-0.2-7.7-0.2-11.5c1.9-1.2,3.9-2.3,5.9-3.5c0.7-0.3,1.2-0.6,1.9-0.8
		c1.1-0.6,1.9-1.3,2.9-1.9c0.1-0.1,0.2-0.1,0.2-0.2l0,0c0.3,0.1,0.5-0.2,0.8-0.3c16.2-9.5,32.3-19.1,48.4-28.8
		c0.1-0.1,0.3-0.2,0.4-0.2c0,0.2,0,0.4,0,0.6c-0.1,3.4-0.2,6.8-0.4,10.2c-0.1,4.6-0.4,9.2-0.5,13.8c-0.2,6.9-0.6,13.9-0.8,20.9
		c-0.1,3.8-0.3,7.5-0.4,11.2c-0.1,1.4,0,2.6,0,3.9c-0.1,0,0.1,0,0.1-0.1c4.9-3.6,9.9-7.1,14.9-10.6c0.2-0.1,0.3-0.4,0.3-0.6
		c-0.1-1-0.1-2-0.1-3c-0.2-10.9-0.5-21.8-0.8-32.6c-0.1-4.2-0.2-8.5-0.3-12.7c-0.1-2.8-0.1-5.7-0.1-8.4c10.7-6.4,21.4-13,31.9-19.6
		c5.4-3.3,10.8-6.7,16.2-10c0.1-0.1,0.3-0.2,0.4-0.2c1.9,2.8,3.6,5.7,5.1,8.6c5.2,9.8,8.9,20.2,11,31.1
		C219.9,90.3,220,90.5,220,90.8z"/>
	<path class="st5" d="M82.8,123.2c0.1,3.8,0.2,7.7,0.2,11.5c0.1,4.5,0.2,9,0.3,13.5c0.3,12.2,0.6,24.5,0.8,36.7
		c0,0.6-0.1,1.1,0.1,1.7c0.1,0.6-0.2,0.9-0.6,1.1c-0.2,0.1-0.6,0.3-0.8,0.6l0,0c-0.1,0.1-0.3,0.1-0.2,0.2l0,0
		c-0.2-0.1-0.3,0.1-0.3,0.2l0,0c-0.1-0.1-0.2,0-0.2,0.1l0,0c-0.1,0-0.2,0.1-0.2,0.1l0,0c-0.1,0-0.2,0.1-0.2,0.1l0,0
		c-0.1,0-0.2,0.1-0.1,0.2c-1.3,0.7-2.5,1.6-3.7,2.5c-2.9,2.1-5.8,4.1-8.7,6.1c-0.1,0.1-0.2,0.4-0.4,0.1c0.2-4.2,0.3-8.4,0.5-12.6
		c0.2-7,0.6-14,0.8-20.9c0.2-4.4,0.3-8.7,0.5-13.1c0.2-6.9,0.5-13.9,0.8-20.9c0-0.2,0-0.4,0-0.6c0.1-0.1,0.1-0.2,0.1-0.3
		c0.1-2.7,0.2-5.3,0.2-7.9c0-0.2,0-0.3,0-0.5c-0.2-0.2-0.3-0.1-0.5-0.1c-2,0.1-3.9,0-5.9-0.2c-0.3-0.1-0.4,0.2-0.6,0.3
		c-1.1,1.8-2.1,3.7-3.4,5.4c-3.8,5.3-8.8,8.9-15,10.5c-4.1,1.1-8.1,0.9-12.1-0.4c-1.5-0.5-2.5-1.6-2.7-3.2c-0.1-1.4,0.3-2.8,1.5-3.6
		c0.9-0.7,2-0.8,3-0.4c1.6,0.5,3.2,0.8,4.9,0.8c3.7,0,6.7-1.4,9.5-3.7c2.5-2.1,4.5-4.7,6.2-7.4c0-0.1,0-0.1,0.1-0.2
		c-0.7,0.2-1.2,0.3-1.9,0.4c-2.7,0.4-5.3,0.4-8,0.2c-3-0.3-6-0.9-9-1.9c-3.8-1.2-7.1-3.2-9.8-6.2c-2.9-3.1-4.6-6.7-5.1-10.8
		c-0.1-0.9-0.2-1.8,0-2.7c0.4-2.3,2.7-3.5,5-2.8c1.6,0.5,2.5,1.8,2.5,3.4c0,4.8,2.3,8.2,6.4,10.4c2.5,1.4,5.3,2.1,8.2,2.5
		c2.2,0.3,4.5,0.4,6.7,0.3c0.5,0,1-0.1,1.8-0.2c-0.8-0.4-1.3-0.8-1.9-1.2c-5-3.2-9.1-7.2-11.7-12.6c-1.5-3.1-2.3-6.2-2.3-9.7
		c0-4.7,2-8.2,6-10.6c2.7-1.7,5.7-2.6,8.9-3.1c1.7-0.2,3.3-0.4,5-0.4c1.8,0,3.2,1.2,3.5,3.1c0.4,1.8-0.5,3.7-2,4.3
		c-0.8,0.3-1.5,0.3-2.3,0.3c-2,0.1-4.1,0.1-6,0.7c-2.7,0.7-4.6,2.3-5.3,5.1c-0.5,1.8,0,3.6,0.7,5.3c1.9,4.7,5.1,8.2,9.3,11.1
		c3.8,2.5,8,4.1,12.3,5.2c3.4,0.9,6.9,1.6,10.4,1.9c3.1,0.3,6.2,0.2,9.2-0.9c1.1-0.4,2.2-0.7,3.2-1.1c0.3-0.1,0.5-0.2,0.6-0.6
		c1.4-5.6,0.6-10.6-3.7-14.7c-2.3-2.2-5.2-3.4-8.3-3.7c-2.8-0.3-4.5-2.2-4.2-4.9c0.2-2,1.7-3.2,3.8-2.9c4,0.5,7.7,1.8,11.1,4
		c5.1,3.4,8.4,8.1,9.5,14.2c1.1,6.1-0.6,11.4-5,15.8c-0.2,0.2-0.4,0.3-0.4,0.6l0,0c-0.1,0-0.2,0.1-0.2,0.2c-1,0.7-1.8,1.4-2.9,1.9
		c-0.6,0.3-1.2,0.6-1.9,0.8c-2.5,0.3-5,0.6-7.5,0.8c0.5,0.2,1,0,1.6,0.2C82.8,121.6,82.8,122.4,82.8,123.2z"/>
	<path class="st5" d="M155.1,80.1c0.1,2.8,0.1,5.7,0.1,8.4c0.1,4.2,0.2,8.5,0.3,12.7c0.2,10.8,0.5,21.8,0.8,32.6c0,1,0.1,2,0.1,3
		c0,0.2-0.1,0.4-0.3,0.6c-4.9,3.5-9.9,7.1-14.9,10.6c-0.1,0.1-0.1,0.1-0.1,0.1c0-1.3-0.1-2.6,0-3.9c0.1-3.8,0.3-7.5,0.4-11.2
		c0.2-7,0.6-14,0.8-20.9c0.2-4.6,0.4-9.2,0.5-13.8c0.1-3.4,0.2-6.8,0.4-10.2c0-0.2,0-0.4,0-0.6c0.2-1.3,0.1-2.6,0.2-3.9
		c0.1-2.8,0.2-5.7,0.3-8.5c0.1-1.2,0.1-2.4,0.1-3.7c-0.1-0.2-0.3-0.2-0.5-0.2c-1.9,0-3.8,0.1-5.7-0.2c-0.5-0.1-0.8,0.2-0.9,0.6
		c-1.3,2.4-2.7,4.7-4.4,6.8c-4.3,5.2-9.7,8.4-16.4,9.4c-3.3,0.5-6.6,0.2-9.8-0.9c-2.8-1-3.3-4.4-1.6-6.4c0.9-1.1,2.1-1.3,3.4-0.9
		c1.4,0.4,2.9,0.8,4.4,0.8c3.7,0.2,6.9-1.1,9.8-3.3c2.8-2.2,4.8-4.9,6.7-7.8c0-0.1,0-0.1,0.1-0.2c-0.6,0.2-1.3,0.2-1.9,0.3
		c-2.8,0.5-5.6,0.4-8.3,0.2c-3.2-0.3-6.4-1.1-9.4-2.2c-5.4-2.1-9.7-5.5-12.3-10.7c-1.3-2.5-1.9-5.2-1.9-8.1c0-2,1.2-3.4,3.4-3.6
		c1.7-0.2,3.7,0.7,4.2,2.7c0.2,0.7,0.1,1.4,0.2,2.1c0.2,3.2,1.7,5.8,4.1,7.8c2.6,2.1,5.6,3.2,8.7,3.7c2.3,0.4,4.6,0.7,6.9,0.7
		c1.1,0,2.1-0.1,3.2-0.2c-0.1-0.2-0.3-0.2-0.4-0.3c-4.7-2.8-8.8-6.2-11.7-10.9c-2.3-3.7-3.7-7.6-3.8-12c-0.1-5,2.2-8.7,6.6-11.1
		c2.9-1.7,6.2-2.5,9.5-2.9c1.3-0.1,2.6-0.2,3.9-0.2c2.1,0,3.5,1.5,3.6,3.5s-0.9,3.5-2.6,4c-0.6,0.2-1.2,0.2-1.9,0.2
		c-2.2,0-4.3,0.1-6.4,0.7c-2.6,0.8-4.4,2.3-5.1,5c-0.4,1.9,0.1,3.7,0.8,5.4c1.9,4.6,5.2,8.2,9.3,10.9c3.9,2.5,8.2,4,12.6,5.2
		c3.2,0.8,6.4,1.5,9.6,1.8s6.4,0.3,9.6-0.9c1.1-0.4,2.1-0.7,3.2-1c0.3-0.1,0.4-0.2,0.6-0.5c1.5-5.5,0.6-10.5-3.6-14.6
		c-2.4-2.3-5.4-3.5-8.6-3.8c-2.8-0.2-4.6-2.8-3.9-5.5c0.4-1.5,1.8-2.5,3.2-2.2c7.9,1,14.2,4.5,18.4,11.4c2.3,3.7,3.2,7.9,2.7,12.3
		c-0.7,6-3.9,10.2-8.9,13.2c-1.3,0.8-2.7,0.8-4.1,1.1c-1.6,0.2-3.4,0.3-5,0.6c0.5,0,0.9,0,1.5,0C154.9,73.9,155,77,155.1,80.1z"/>
	<path class="st4" d="M82.3,188.8c0.1-0.2,0.2-0.3,0.3-0.2C82.6,188.7,82.4,188.8,82.3,188.8z"/>
	<path class="st4" d="M82.6,188.6c-0.1-0.2,0.2-0.2,0.2-0.2C82.9,188.5,82.8,188.6,82.6,188.6z"/>
	<path class="st4" d="M81.6,189.4c-0.1-0.1,0-0.1,0.1-0.2C81.7,189.3,81.6,189.3,81.6,189.4z"/>
	<path class="st4" d="M82,189c0.1-0.1,0.2-0.1,0.2-0.1C82.2,189,82.1,189,82,189z"/>
	<path class="st4" d="M81.7,189.2c0.1-0.1,0.2-0.1,0.2-0.1C81.9,189.2,81.8,189.2,81.7,189.2z"/>
	<path class="st4" d="M81.9,189.1c0-0.1,0.1-0.1,0.2-0.1C82.1,189,82,189.1,81.9,189.1z"/>
	<path class="st3" d="M82.8,123.2c0-0.8,0-1.7,0-2.4c-0.6-0.2-1.1-0.1-1.6-0.2c2.5-0.3,5-0.6,7.5-0.8
		C86.7,120.9,84.8,122,82.8,123.2z"/>
	<path class="st3" d="M93.5,116.9c0-0.1,0.1-0.2,0.2-0.2C93.7,116.8,93.6,116.9,93.5,116.9z"/>
</g>
</svg>
