<?xml version="1.0" encoding="utf-8"?>
<!-- Generator: Adobe Illustrator 23.1.1, SVG Export Plug-In . SVG Version: 6.00 Build 0)  -->
<svg version="1.1" id="Layer_1" xmlns="http://www.w3.org/2000/svg" xmlns:xlink="http://www.w3.org/1999/xlink" x="0px" y="0px"
	 viewBox="0 0 444 444" style="enable-background:new 0 0 444 444;" xml:space="preserve">
<style type="text/css">
	.st0{fill:#C0D630;}
	.st1{fill:#0FA84C;}
	.st2{fill:#DF1C4D;}
	.st3{fill:#B1E1EB;}
	.st4{clip-path:url(#SVGID_2_);fill:#FFFFFF;}
</style>
<g>
	<circle class="st0" cx="222" cy="222" r="221.6"/>
</g>
<path class="st1" d="M73.9,220.2l-53.3,67.4L186,431.9l211.7-321.3L320.4,38c0,0-130.6,304.4-141.8,304.4
	C167.4,342.5,73.9,220.2,73.9,220.2z"/>
<g>
	<circle class="st2" cx="111.2" cy="111.2" r="110.8"/>
	<path class="st3" d="M158.6,29.3c0,0-22.9,13.2-28.6,16.8c-4.2,2.6-8.1,5.5-11.4,8.6c-9.6,9-13.3,18.4-14.7,24.6
		c-0.9,4.1-1.2,7.6-1.4,10.3c-0.1,0.5-0.1,0.9-0.1,1.4c0,0.1,0,0.3-0.1,0.4l-49.6,34l-0.2-0.1c-2.3-0.6-4.8-0.1-6.8,1.1
		c0,0-5.8,3.5-9.8,6.1c-4.2,2.8-1.3,13.6,4.3,23.2c6.2,10.6,15.8,19.9,20.6,16.9l9.9-6.1c2-1.2,3.4-3.3,4-5.6l0.1-0.2l52.4-29.4
		c1.1,0.4,2.6,1.1,3.5,1.4c4.9,1.9,11.4,4,19.8,3.8c9.4-0.2,19.2-3.5,29.2-9.6c0.6-0.4,1.1-0.9,1.3-1.6l6.6-24.8l-22.1,1.4
		l19.9-16.6l-13.6-6.5l3.3-8.3l-12-2.4l12.7-17.8l-15.4-1L158.6,29.3L158.6,29.3z M55.2,148.4c5.4,8.9,7.5,17.7,4.6,19.4
		s-9.7-4.1-15.2-13.1c-5.4-9-7.5-17.7-4.6-19.4S49.7,139.4,55.2,148.4z M174,122.4c0.6,1,0.2,2.3-0.8,2.9
		c-7.9,4.4-15.4,6.8-22.6,6.9c-6.9,0.2-12.1-1.5-16.5-3.2l-0.2-0.1c-0.9-0.4-2.3-0.9-3.4-1.4l-3.6-1.4l-49.3,27.7
		c-1,0.6-2.3,0.2-2.9-0.8c-0.5-0.9-0.3-1.9,0.4-2.6c0.1-0.1,0.2-0.2,0.4-0.3l52-28.3l4.6,1.7c1.1,0.4,2.6,1,3.5,1.4l0.2,0.1
		c3.9,1.5,8.8,3.1,14.9,2.9c6.5-0.1,13.4-2.3,20.7-6.4C172.2,121,173.5,121.3,174,122.4L174,122.4z"/>
	<g>
		<defs>
			<polygon id="SVGID_1_" points="47.7,138.8 83.3,147.5 187.2,60.5 174.4,23 49,131.1 			"/>
		</defs>
		<clipPath id="SVGID_2_">
			<use xlink:href="#SVGID_1_"  style="overflow:visible;"/>
		</clipPath>
		<path class="st4" d="M105.3,102.1l71.9-33.7L56.4,147.5l-3.8-4.5L105.3,102.1z"/>
	</g>
</g>
</svg>
