<?xml version="1.0" encoding="utf-8"?>
<!-- Generator: Adobe Illustrator 23.1.1, SVG Export Plug-In . SVG Version: 6.00 Build 0)  -->
<svg version="1.1" id="Layer_1" xmlns="http://www.w3.org/2000/svg" xmlns:xlink="http://www.w3.org/1999/xlink" x="0px" y="0px"
	 viewBox="0 0 444 444" style="enable-background:new 0 0 444 444;" xml:space="preserve">
<style type="text/css">
	.st0{fill:#F78F1E;}
	.st1{fill:#4C4D4D;}
	.st2{fill:#00B6CF;}
	.st3{fill:#FFFFFF;}
	.st4{fill:#1D2959;}
	.st5{fill:#FFFFFF;stroke:#FFFFFF;stroke-width:4;stroke-linecap:round;stroke-miterlimit:10;}
</style>
<g>
	<circle class="st0" cx="222" cy="222" r="221.6"/>
	<path class="st1" d="M278.2,225.7c0.4-1.3,0.8-2.7,1-4.1c2.7-15.2-7.4-29.8-22.6-32.5c-6.3-1.1-12.7-0.1-18.3,2.9
		c-5.8-13.7-18.2-23.7-33-26.3c-17.3-3.1-34.8,4.5-44.6,18.7c-7.9-11.4-20-19.2-33.9-21.7c-28.6-5.1-56,13.9-61.2,42.5
		c-0.3,1.4-0.5,2.9-0.6,4.3c-0.2,0-0.4-0.1-0.6-0.1c-19.7-3.5-38.5,9.6-42.1,29.2c-3.5,19.7,9.6,38.5,29.2,42.1
		c3.9,0.7,7.7,0.8,11.5,0.2c9,21.6,28.5,37.5,51.7,41.7c15.6,2.8,31.7,0.2,45.6-7.5c7.8,6.2,17.1,10.4,27,12.2
		c21.4,3.9,43-3.9,57.1-20.4c4.6,2.8,9.7,4.7,15.1,5.7c24.1,4.3,47.3-11.7,51.6-35.9C315.3,253.5,300.6,231.3,278.2,225.7
		L278.2,225.7z M273.7,228c0.3,0.1,0.6,0.1,1,0.2c-0.4-0.1-0.7-0.2-1.1-0.2H273.7z"/>
	<path class="st2" d="M362.7,116.8c-72.4-59.7-236.8,13.7-236.8,13.7l73.6,36.6c0,0-11,22.1-16.9,35.1l45.9,22.5
		c15.4,7.5,16.6,29.1,2.1,38.3l-52.2,33.2c10.6,23.1,33.8,42.7,78.7,51.5C408.4,377.3,435.1,176.5,362.7,116.8L362.7,116.8z"/>
	
		<ellipse transform="matrix(0.6652 -0.7466 0.7466 0.6652 -29.3914 245.1655)" class="st3" cx="258.7" cy="155.4" rx="18.6" ry="30.7"/>
	<circle class="st4" cx="258.7" cy="155.3" r="5.7"/>
	<path class="st2" d="M276.9,99.3l55,49l-17.3,19.4l-55-49L276.9,99.3z"/>
	<path class="st5" d="M198.2,231l-50.3-19.7 M149,281.1l48.1-31.7 M187.6,241l-57,0.8"/>
</g>
</svg>
