<?xml version="1.0" encoding="utf-8"?>
<!-- Generator: Adobe Illustrator 23.1.1, SVG Export Plug-In . SVG Version: 6.00 Build 0)  -->
<svg version="1.1" id="b6b2bf13-7d0d-497d-9eb8-1a9307121cc0"
	 xmlns="http://www.w3.org/2000/svg" xmlns:xlink="http://www.w3.org/1999/xlink" x="0px" y="0px" viewBox="0 0 444 444"
	 style="enable-background:new 0 0 444 444;" xml:space="preserve">
<style type="text/css">
	.st0{fill:#F6C5D1;}
	.st1{fill:#DE1C4D;}
	.st2{fill:#010101;}
	.st3{fill:#FCB515;}
</style>
<g>
	<path class="st0" d="M226.8,0.2c0,0.1,0,0.1,0,0.2c-3.2,0-6.4,0-9.6,0c0-0.1,0-0.1,0-0.2C220.4,0.2,223.6,0.2,226.8,0.2z"/>
	<path class="st0" d="M0.4,226.8l-0.1,0l-0.1,0c0-3.2,0-6.4,0-9.6c0.1,0,0.1,0,0.2,0C0.4,220.4,0.4,223.6,0.4,226.8z"/>
	<path class="st0" d="M443.6,217.2c0.1,0,0.1,0,0.2,0c0,3.2,0,6.4,0,9.6l-0.1,0l-0.1,0C443.6,223.6,443.6,220.4,443.6,217.2z"/>
	<path class="st0" d="M217.2,443.8c0-0.1,0-0.1,0-0.2c3.2,0,6.4,0,9.6,0c0,0.1,0,0.1,0,0.2C223.6,443.8,220.4,443.8,217.2,443.8z"/>
	<path class="st1" d="M0.4,226.8c0-3.2,0-6.4,0-9.6c0.5-21,3.7-41.6,10.1-61.6C23.1,116,45,82.5,76.2,55.1
		c27.5-24.1,59.1-40.3,94.7-48.8c11.9-2.8,23.9-4.7,36.1-5.4c3.4-0.2,6.8-0.3,10.2-0.5c3.2,0,6.4,0,9.6,0c21,0.5,41.6,3.7,61.6,10.1
		c39.6,12.6,73,34.5,100.4,65.7c6.5,7.3,12.4,15.1,17.8,23.2c0.2,0.3,0.4,0.7,0.6,1c-0.3,0.2-0.6,0.3-0.8,0.5
		c-10.8,6.7-21.6,13.4-32.4,20.1c-21.3,13.1-42.6,26.1-63.9,39.1c-0.2-6.3-0.4-12.6-0.5-19c-1.1,0-2.1,0-3,0c3.3-0.5,6.7-0.8,10-1.2
		c2.9-0.3,5.7-0.5,8.3-2.1c10.1-6,16.5-14.4,17.9-26.3c1-8.8-0.8-17.1-5.4-24.6c-8.4-13.8-21.1-21-36.9-22.8c-3-0.4-5.7,1.6-6.5,4.5
		c-1.4,5.4,2.2,10.5,7.8,11c6.6,0.7,12.5,3,17.3,7.7c8.3,8.2,10.1,18.1,7.1,29.2c-0.2,0.6-0.5,0.9-1.1,1.1c-2.2,0.7-4.4,1.3-6.5,2.1
		c-6.2,2.4-12.7,2.5-19.1,1.8c-6.5-0.6-12.9-1.9-19.3-3.5c-8.9-2.2-17.4-5.2-25.1-10.4c-8.3-5.5-14.8-12.6-18.7-21.9
		c-1.4-3.5-2.4-7.1-1.5-10.8c1.3-5.4,4.9-8.6,10.2-10.1c4.1-1.2,8.4-1.4,12.7-1.4c1.2,0,2.5,0,3.7-0.4c3.3-1,5.2-3.9,5.1-8
		c-0.1-4.1-3.1-7-7.1-7c-2.6,0-5.2,0.2-7.8,0.5c-6.7,0.8-13.1,2.4-19,5.8c-8.6,4.9-13.2,12.2-13.1,22.2c0.1,8.7,2.9,16.7,7.5,24.1
		c5.8,9.3,14,16.2,23.3,21.8c0.3,0.2,0.8,0.2,0.9,0.7c-2.1,0.3-4.2,0.5-6.3,0.5c-4.6-0.1-9.2-0.6-13.8-1.4
		c-6.4-1.2-12.4-3.2-17.4-7.4c-4.9-4-7.8-9.1-8.2-15.5c-0.1-1.4,0-2.8-0.3-4.2c-1.1-4.1-5.1-5.8-8.4-5.4c-4.2,0.5-6.7,3.2-6.8,7.3
		c0,5.7,1.2,11.1,3.8,16.2c5.3,10.5,13.9,17.3,24.7,21.3c6.1,2.3,12.4,3.7,18.8,4.4c5.6,0.6,11.2,0.7,16.7-0.3
		c1.2-0.2,2.4-0.5,3.7-0.7c0,0.2,0,0.3-0.1,0.4c-3.7,5.9-7.9,11.4-13.4,15.7c-5.7,4.5-12.1,7.1-19.5,6.7c-3-0.1-6-0.9-8.9-1.7
		c-2.6-0.7-5-0.2-6.8,1.9c-3.5,4-2.5,10.8,3.2,12.8c6.3,2.2,12.9,2.8,19.5,1.8c13.4-2,24.2-8.6,32.8-18.9c3.5-4.2,6.3-8.8,8.8-13.5
		c0.4-0.8,0.9-1.2,1.9-1.1c3.8,0.4,7.6,0.3,11.4,0.3c0.3,0,0.6-0.1,1,0.3c-0.1,2.4-0.1,4.9-0.2,7.3c-0.3,5.7-0.3,11.3-0.6,17
		c-0.1,2.6,0,5.2-0.4,7.8c-0.3,0.2-0.6,0.3-0.9,0.5c-32.1,19.4-64.4,38.6-96.7,57.6c-0.5,0.3-0.9,0.7-1.5,0.7
		c0.1-0.5,0.6-0.7,0.9-1.1c8.9-8.7,12.1-19.4,10-31.5c-2.1-12.3-8.9-21.6-19.1-28.5c-6.7-4.5-14.1-7.1-22.1-8
		c-4.2-0.5-7.2,1.8-7.5,5.8c-0.5,5.4,2.9,9.2,8.5,9.8c6.3,0.7,12,3,16.6,7.5c8.4,8.2,10.2,18.2,7.3,29.4c-0.2,0.6-0.6,0.9-1.1,1.1
		c-2.2,0.7-4.4,1.3-6.5,2.1c-5.9,2.2-12.1,2.5-18.3,1.9c-7-0.7-14-2-20.8-3.8c-8.7-2.2-17.1-5.3-24.6-10.3
		c-8.3-5.6-14.8-12.7-18.6-22.1c-1.4-3.4-2.3-7-1.3-10.6c1.4-5.6,5.3-8.7,10.6-10.1c4-1.1,8-1.2,12.1-1.3c1.6,0,3.1-0.1,4.6-0.7
		c3.1-1.4,4.9-5.2,4.1-8.7c-0.8-3.8-3.4-6.1-7.1-6.1c-3.4,0-6.8,0.4-10.1,0.9c-6.3,1-12.3,2.8-17.8,6.2c-7.8,4.9-11.9,11.9-12,21.2
		c0,6.9,1.7,13.3,4.7,19.4c5.2,10.8,13.5,18.7,23.4,25.1c1.2,0.7,2.3,1.5,3.8,2.4c-1.4,0.2-2.5,0.3-3.5,0.4c-4.5,0.2-9,0-13.5-0.7
		c-5.7-0.9-11.3-2.1-16.4-5c-8.1-4.6-12.7-11.3-12.7-20.9c0-3.2-1.9-5.7-5.1-6.8c-4.8-1.5-9.3,0.9-10.1,5.5
		c-0.3,1.8-0.1,3.6,0.1,5.4c0.9,8.4,4.5,15.6,10.2,21.7c5.4,5.8,12.1,9.8,19.6,12.3c5.8,2,11.8,3.2,18,3.9c5.4,0.6,10.7,0.6,16-0.3
		c1.2-0.2,2.4-0.5,3.8-0.8c-0.1,0.3-0.1,0.4-0.2,0.5c-3.5,5.5-7.4,10.7-12.5,14.9c-5.5,4.6-11.8,7.3-19,7.3c-3.3,0-6.6-0.7-9.8-1.6
		c-2.1-0.6-4.2-0.5-6,0.9c-2.4,1.8-3.3,4.4-3,7.3c0.4,3.3,2.2,5.5,5.4,6.5c8,2.6,16.2,2.9,24.3,0.8c12.6-3.3,22.5-10.5,30.1-21
		c2.5-3.5,4.7-7.2,6.7-10.9c0.2-0.4,0.4-0.8,1.1-0.7c3.9,0.4,7.9,0.5,11.9,0.4c0.3,0,0.6-0.1,1,0.2c0,0.3,0.1,0.6,0,1
		c-0.2,5.3-0.4,10.5-0.5,15.8c0,0.2-0.1,0.4-0.1,0.6c-0.3,0.1-0.6,0.3-0.8,0.4c-31.5,18.3-63.1,36.5-94.9,54.5
		c-6.8,3.9-13.6,7.7-20.5,11.5c-3.6-6.5-6.7-13.3-9.6-20.2C10,289.3,5.3,271.9,2.7,254C1.4,245,0.6,235.9,0.4,226.8z"/>
	<path class="st1" d="M226.8,443.6c-3.2,0-6.4,0-9.6,0c-21.1-0.5-41.6-3.8-61.7-10.1c-15.2-4.8-29.7-11.1-43.6-19.1
		c-0.3-0.2-0.5-0.3-0.8-0.5c2-1.4,4.1-2.8,6.1-4.2c6.7-4.6,13.5-9.1,20.2-13.7c0.4,0.8,0.7,0,0.8-0.1c5.8-4.1,11.5-8.2,17.3-12.3
		c2.4-1.7,4.7-3.6,7.4-5c0.1-0.1,0.4-0.1,0.2-0.4l0,0c0.2,0,0.4,0,0.5-0.3l0,0c0.2,0,0.3-0.1,0.3-0.3l0,0c0.2,0,0.4,0,0.5-0.3l0,0
		c0.3,0,0.6-0.2,0.7-0.5l0,0c0.3-0.1,0.6-0.1,0.5-0.5l0,0c0.7,0.1,1.1-0.5,1.6-0.9c43.9-29.9,87.8-59.8,131.7-89.7
		c7.8-5.3,15.8-10.4,23.3-16c17.7-13.2,35.2-26.6,52.9-39.9c21.6-16.3,43.1-32.6,64.7-48.9c2.3,11.9,3.4,23.9,3.7,35.9
		c0,3.2,0,6.4,0,9.6c-0.5,21-3.8,41.5-10.1,61.5c-10,31.6-26.2,59.7-48.7,84c-28.9,31.1-63.9,52.4-104.8,63.6
		c-12.1,3.3-24.5,5.5-37,6.7C237.6,443.1,232.2,443.4,226.8,443.6z"/>
	<path class="st2" d="M137.5,396c-6.7,4.6-13.5,9.1-20.2,13.7c-2,1.4-4.1,2.8-6.1,4.2c-5.1-2.8-9.9-5.9-14.6-9.2
		c-29.3-20.3-52.5-46-69.5-77.3c-0.2-0.4-0.4-0.8-0.6-1.2c6.8-3.8,13.6-7.7,20.5-11.5c31.7-18,63.3-36.2,94.9-54.5
		c0.3-0.2,0.6-0.3,0.8-0.4c0,0.4,0,0.8,0,1.2c-0.5,13.9-1,27.9-1.5,41.8c-0.3,8.7-0.7,17.4-1,26.1c-0.5,14-1.1,28-1.6,41.9
		C138.1,379.1,137.8,387.6,137.5,396z"/>
	<path class="st2" d="M439.8,181.3c-21.6,16.3-43.1,32.6-64.7,48.9c-17.6,13.3-35.1,26.7-52.9,39.9c-7.6,5.6-15.5,10.7-23.3,16
		c-43.9,29.9-87.8,59.8-131.7,89.7c-0.5,0.3-0.9,0.9-1.6,0.9c0.4-0.5,1-0.8,1.5-1.2c0.9-0.5,1.3-1.2,1.2-2.3c-0.1-1.1,0-2.2-0.1-3.4
		c-0.6-24.5-1.1-49-1.7-73.5c-0.2-9-0.4-18-0.6-27c-0.2-7.7-0.3-15.3-0.5-23c3.9-2.3,7.9-4.7,11.8-7c1.3-0.6,2.5-1.1,3.8-1.7
		c2.1-1.1,3.9-2.7,5.8-3.9c0.1-0.1,0.3-0.1,0.3-0.3l0,0c0.6,0.1,1-0.4,1.5-0.7c32.3-19,64.6-38.2,96.7-57.6c0.3-0.2,0.6-0.4,0.9-0.5
		c0,0.4,0,0.8,0,1.2c-0.2,6.8-0.5,13.7-0.8,20.5c-0.3,9.2-0.7,18.5-1,27.7c-0.5,13.9-1.1,27.9-1.6,41.8c-0.3,7.5-0.6,15-0.9,22.5
		c-0.1,2.7,0,5.3,0,7.9c-0.1,0,0.1,0,0.1-0.1c9.9-7.1,19.9-14.1,29.8-21.2c0.5-0.3,0.6-0.7,0.6-1.2c-0.1-2-0.1-4-0.1-6
		c-0.5-21.7-1-43.5-1.5-65.2c-0.2-8.5-0.4-17-0.6-25.5c-0.1-5.6-0.2-11.3-0.3-16.9c21.4-12.9,42.7-26,63.9-39.1
		c10.8-6.7,21.6-13.4,32.4-20.1c0.3-0.2,0.6-0.3,0.8-0.5c3.8,5.5,7.1,11.3,10.3,17.2c10.5,19.6,17.8,40.3,22,62.2
		C439.7,180.3,439.8,180.8,439.8,181.3z"/>
	<path class="st3" d="M165.4,246.3c0.2,7.7,0.3,15.3,0.5,23c0.2,9,0.4,18,0.6,27c0.6,24.5,1.1,49,1.7,73.5c0,1.1-0.1,2.2,0.1,3.4
		c0.1,1.1-0.3,1.8-1.2,2.3c-0.5,0.3-1.1,0.6-1.5,1.2c0,0,0,0,0,0c-0.2,0.1-0.6,0.1-0.5,0.5c0,0,0,0,0,0c-0.4-0.1-0.6,0.1-0.7,0.5
		c0,0,0,0,0,0c-0.2-0.1-0.4,0-0.5,0.3c0,0,0,0,0,0c-0.2,0-0.3,0.1-0.3,0.3c0,0,0,0,0,0c-0.2,0-0.4,0.1-0.5,0.3c0,0,0,0,0,0
		c-0.2,0-0.3,0.1-0.2,0.4c-2.7,1.4-5,3.3-7.4,5c-5.8,4.1-11.5,8.2-17.3,12.3c-0.2,0.1-0.5,0.9-0.8,0.1c0.3-8.4,0.7-16.8,1-25.3
		c0.5-14,1.1-28,1.6-41.9c0.3-8.7,0.7-17.4,1-26.1c0.5-13.9,1-27.9,1.5-41.8c0-0.4,0-0.8,0-1.2c0.1-0.2,0.1-0.4,0.1-0.6
		c0.2-5.3,0.4-10.5,0.5-15.8c0-0.3,0-0.7,0-1c-0.4-0.3-0.7-0.2-1-0.2c-4,0.1-7.9,0-11.9-0.4c-0.6-0.1-0.8,0.3-1.1,0.7
		c-2.1,3.7-4.2,7.4-6.7,10.9c-7.6,10.5-17.5,17.7-30.1,21c-8.2,2.2-16.3,1.9-24.3-0.8c-3.1-1-5-3.2-5.4-6.5c-0.3-2.9,0.6-5.5,3-7.3
		c1.8-1.4,3.9-1.5,6-0.9c3.2,1,6.4,1.6,9.8,1.6c7.3,0,13.5-2.7,19-7.3c5.1-4.2,9-9.4,12.5-14.9c0.1-0.1,0.1-0.2,0.2-0.5
		c-1.3,0.3-2.5,0.6-3.8,0.8c-5.3,0.9-10.6,0.9-16,0.3c-6.1-0.7-12.1-1.9-18-3.9c-7.5-2.5-14.1-6.5-19.6-12.3
		c-5.7-6.1-9.3-13.3-10.2-21.7c-0.2-1.8-0.4-3.6-0.1-5.4c0.8-4.6,5.4-7,10.1-5.5c3.2,1,5.1,3.5,5.1,6.8c-0.1,9.6,4.6,16.3,12.7,20.9
		c5.1,2.9,10.7,4.2,16.4,5c4.5,0.7,9,0.9,13.5,0.7c1.1,0,2.1-0.2,3.5-0.4c-1.5-0.9-2.7-1.6-3.8-2.4c-9.9-6.4-18.2-14.4-23.4-25.1
		c-3-6.1-4.7-12.5-4.7-19.4c0.1-9.3,4.1-16.3,12-21.2c5.4-3.4,11.5-5.1,17.8-6.2c3.4-0.5,6.7-0.9,10.1-0.9c3.7,0,6.3,2.3,7.1,6.1
		c0.8,3.6-1,7.4-4.1,8.7c-1.5,0.6-3,0.7-4.6,0.7c-4.1,0.1-8.2,0.2-12.1,1.3c-5.4,1.4-9.2,4.6-10.6,10.1c-0.9,3.7-0.1,7.2,1.3,10.6
		c3.8,9.4,10.3,16.5,18.6,22.1c7.5,5,15.9,8.1,24.6,10.3c6.8,1.8,13.8,3.1,20.8,3.8c6.2,0.6,12.4,0.3,18.3-1.9
		c2.1-0.8,4.3-1.4,6.5-2.1c0.6-0.2,1-0.4,1.1-1.1c2.9-11.1,1.1-21.1-7.3-29.4c-4.6-4.5-10.3-6.8-16.6-7.5c-5.6-0.6-9-4.4-8.5-9.8
		c0.4-4,3.3-6.3,7.5-5.8c8,1,15.4,3.5,22.1,8c10.2,6.9,16.9,16.2,19.1,28.5c2.1,12.2-1.1,22.8-10,31.5c-0.3,0.3-0.8,0.6-0.9,1.1
		c0,0,0,0,0,0c-0.2,0-0.3,0.1-0.3,0.3c-2,1.3-3.7,2.9-5.8,3.9c-1.2,0.6-2.5,1.2-3.8,1.7c-5,0.6-10,1.1-15,1.7c1,0.3,2,0,3.1,0.4
		C165.4,243,165.4,244.6,165.4,246.3z"/>
	<path class="st3" d="M310.1,160c0.1,5.6,0.2,11.3,0.3,16.9c0.2,8.5,0.4,17,0.6,25.5c0.5,21.7,1,43.5,1.5,65.2c0,2,0.1,4,0.1,6
		c0,0.5-0.1,0.9-0.6,1.2c-9.9,7-19.9,14.1-29.8,21.2c-0.1,0.1-0.2,0.1-0.1,0.1c0-2.6-0.1-5.3,0-7.9c0.3-7.5,0.6-15,0.9-22.5
		c0.5-13.9,1.1-27.9,1.6-41.8c0.4-9.2,0.7-18.5,1-27.7c0.3-6.8,0.5-13.7,0.8-20.5c0-0.4,0-0.8,0-1.2c0.4-2.6,0.3-5.2,0.4-7.8
		c0.3-5.7,0.4-11.3,0.6-17c0.1-2.5,0.2-4.9,0.2-7.3c-0.3-0.4-0.6-0.3-1-0.3c-3.8,0-7.6,0.1-11.4-0.3c-1-0.1-1.5,0.3-1.9,1.1
		c-2.6,4.8-5.4,9.4-8.8,13.5c-8.6,10.3-19.4,16.9-32.8,18.9c-6.6,1-13.2,0.4-19.5-1.8c-5.7-2-6.7-8.8-3.2-12.8
		c1.8-2.1,4.2-2.6,6.8-1.9c2.9,0.8,5.9,1.5,8.9,1.7c7.4,0.3,13.8-2.2,19.5-6.7c5.5-4.4,9.7-9.9,13.4-15.7c0-0.1,0-0.2,0.1-0.4
		c-1.3,0.3-2.5,0.5-3.7,0.7c-5.6,1-11.1,0.9-16.7,0.3c-6.5-0.7-12.8-2.1-18.8-4.4c-10.9-4.1-19.4-10.9-24.7-21.3
		c-2.6-5.1-3.8-10.5-3.8-16.2c0-4.1,2.5-6.8,6.8-7.3c3.3-0.4,7.3,1.3,8.4,5.4c0.4,1.4,0.2,2.8,0.3,4.2c0.4,6.4,3.4,11.5,8.2,15.5
		c5.1,4.2,11.1,6.3,17.4,7.4c4.6,0.8,9.2,1.3,13.8,1.4c2.1,0,4.1-0.2,6.3-0.5c-0.1-0.5-0.6-0.5-0.9-0.7
		c-9.4-5.6-17.5-12.5-23.3-21.8c-4.6-7.3-7.4-15.3-7.5-24.1c-0.1-10,4.5-17.3,13.1-22.2c5.9-3.4,12.3-5,19-5.8
		c2.6-0.3,5.2-0.5,7.8-0.5c4.1,0,7,2.9,7.1,7c0.1,4.1-1.7,7.1-5.1,8c-1.2,0.4-2.4,0.4-3.7,0.4c-4.3,0.1-8.5,0.2-12.7,1.4
		c-5.2,1.5-8.8,4.7-10.2,10.1c-0.9,3.8,0.1,7.4,1.5,10.8c3.9,9.3,10.4,16.4,18.7,21.9c7.7,5.1,16.3,8.1,25.1,10.4
		c6.4,1.6,12.8,2.9,19.3,3.5c6.5,0.6,12.9,0.6,19.1-1.8c2.1-0.8,4.3-1.4,6.5-2.1c0.6-0.2,0.9-0.4,1.1-1.1c3-11,1.1-20.9-7.1-29.2
		c-4.7-4.7-10.7-7.1-17.3-7.7c-5.6-0.5-9.2-5.6-7.8-11c0.8-2.9,3.5-4.9,6.5-4.5c15.9,1.9,28.5,9,36.9,22.8
		c4.6,7.5,6.4,15.8,5.4,24.6c-1.4,11.9-7.8,20.3-17.9,26.3c-2.6,1.5-5.4,1.7-8.3,2.1c-3.3,0.4-6.7,0.7-10,1.2c1,0,1.9,0,3,0
		C309.7,147.5,309.9,153.8,310.1,160z"/>
	<path class="st2" d="M164.4,377.5c0.1-0.4,0.3-0.6,0.7-0.5C165,377.3,164.7,377.5,164.4,377.5z"/>
	<path class="st2" d="M165.1,377c-0.1-0.4,0.3-0.4,0.5-0.5C165.7,376.9,165.4,377,165.1,377z"/>
	<path class="st2" d="M163,378.6c-0.1-0.2,0-0.3,0.2-0.4C163.3,378.5,163.1,378.5,163,378.6z"/>
	<path class="st2" d="M163.9,377.8c0.1-0.2,0.3-0.3,0.5-0.3C164.3,377.8,164.1,377.8,163.9,377.8z"/>
	<path class="st2" d="M163.2,378.2c0.1-0.2,0.3-0.3,0.5-0.3C163.6,378.2,163.4,378.3,163.2,378.2z"/>
	<path class="st2" d="M163.7,378c0-0.2,0.1-0.2,0.3-0.3C164,377.9,163.8,378,163.7,378z"/>
	<path class="st1" d="M165.4,246.3c0-1.6,0-3.3,0-4.9c-1.1-0.4-2.1-0.1-3.1-0.4c5-0.6,10-1.1,15-1.7
		C173.3,241.6,169.4,243.9,165.4,246.3z"/>
	<path class="st1" d="M186.9,233.6c0-0.2,0.1-0.3,0.3-0.3C187.3,233.5,187.1,233.6,186.9,233.6z"/>
</g>
</svg>
