<?xml version="1.0" encoding="utf-8"?>
<!-- Generator: Adobe Illustrator 23.1.1, SVG Export Plug-In . SVG Version: 6.00 Build 0)  -->
<svg version="1.1" id="Layer_1" xmlns="http://www.w3.org/2000/svg" xmlns:xlink="http://www.w3.org/1999/xlink" x="0px" y="0px"
	 viewBox="0 0 444 444" style="enable-background:new 0 0 444 444;" xml:space="preserve">
<style type="text/css">
	.st0{fill:#DF1C4D;}
	.st1{fill:#FDB615;}
	.st2{fill:#010101;}
</style>
<circle class="st0" cx="222" cy="222.2" r="221.6"/>
<path class="st0" d="M272,56.8c21.8,6.7,38.2,32.2,49.8,60.4c11.5,28.1,18.3,59,8.8,82.4s-35.2,39.5-51.8,68.4
	c-16.7,28.9-24.3,70.6-44,86.8s-51.4,6.7-70.5-16c-19-22.8-25.2-58.9-43.3-83.1c-18.1-24.1-48.1-36.3-66.8-61.6S28,130.4,41.9,105.8
	c13.8-24.6,48.8-35.4,78-38.3c29.1-2.9,52.3,1.9,77.6-1.7S250.1,50.1,272,56.8z"/>
<path class="st1" d="M314.6,287.5c-5.8-19.2,2.4-58,7.3-75.2c5.9-20.5,16.2-40,32.2-52.6c8.5-6.7,21.7-14.3,32-9.6
	c14.8,6.7,14.3,26.1,14.7,40.8c0.4,16.8,23.6,16.2,23.2-0.7c-1-38.3-15.3-76-55.8-65.7c-25.3,6.4-44.5,27.5-57.2,52.8
	c-2.5-14.5,1.1-36.5,3.5-45.2c5.3-18.7,17.2-33.7,35.4-33.5c14.9,0.2,15.5-26.1,0.6-26.3c-25.4-0.3-46.5,19.6-55.9,46.2
	c-6.4,18-11.1,47.9-5.6,69.7c-21.9-15.5-41.5-37.3-32.2-71c4.6-16.4-17.6-22.6-22.2-6.3c-6.6,23.7-2.3,47.1,9,67
	c10.4,18.2,23.5,27.9,39.1,37.6c-2.4,30.1,3.6,80.7,3.6,80.7c4.4,15.8,21.1,33.1,38.4,36.1c38.9,6.8,70.8-28.5,74.7-70.9
	c1.5-16.9-21.6-16.1-23.2,0.7c-1.4,15.3-7.6,29.2-19.7,37.7c-11.2,7.6-23.6,9.1-37.2,4.4"/>
<path class="st1" d="M283.8,276.6l-47.5,1.5L203.9,265l-26.5,13.1l-30.7-16.4l-33.3,17.4l-103.1,2.7l1.2-52.6l102.1,4.6l18.3,18
	l32.3-15.9l40.2,17.8l27.2-19.9l52.5,1.3L283.8,276.6z"/>
<path class="st2" d="M162.5,207.1l-12.2-57.9l-15.1,15.2l-13.7-41.3l-7.9,4.1l19.6,48.9l12.7-14.8l14.7,46.7L162.5,207.1z
	 M178.2,206.7l12.5-48.4l-16.7,4.1l5.3-36.9l-7.3-0.8l-3.8,45.3l14.8-4.9l-6.5,41.3L178.2,206.7z M115.4,202L92,176.5l-4.7,6.3
	l30.3,28.8l4.8-16.3l25.9,29.1l1.1-1.4l-27.5-38.6L115.4,202z M179.1,290.4l12.2,58l15-15.3l13.7,41.4l8-4.1l-19.6-48.9l-12.7,14.7
	L181,289.6L179.1,290.4z M163.4,290.9l-12.6,48.3l16.7-4l-5.2,36.9l7.3,0.7l3.8-45.2l-14.8,4.8l6.5-41.3L163.4,290.9z"/>
</svg>
