<?xml version="1.0" encoding="utf-8"?>
<!-- Generator: Adobe Illustrator 23.1.1, SVG Export Plug-In . SVG Version: 6.00 Build 0)  -->
<svg version="1.1" id="Layer_1" xmlns="http://www.w3.org/2000/svg" xmlns:xlink="http://www.w3.org/1999/xlink" x="0px" y="0px"
	 viewBox="0 0 444 444" style="enable-background:new 0 0 444 444;" xml:space="preserve">
<style type="text/css">
	.st0{fill:#DF1C4D;}
	.st1{fill:#F78F1E;}
	.st2{fill:#FDB615;}
	.st3{fill:none;stroke:#DF1C4D;stroke-miterlimit:10;}
</style>
<g>
	<circle class="st0" cx="111.2" cy="111.2" r="110.8"/>
	<path class="st1" d="M142.1,78.8c0,0,104.3,109.8-9.4,119l-76.1-5c0,0-39.5-73.6-7.6-91l35.8,51.4L84.5,24.6l39.4,116.6L142.1,78.8
		L142.1,78.8z"/>
	<path class="st2" d="M149.8,109c0,0,34.9,82.1-22.9,88.9l-68.2-4.5l-8.1-56.6L84,157.9l10.4-74l24.5,63.1L149.8,109L149.8,109z"/>
	<path class="st3" d="M128.6,150.3c0,0,18.2,42.9-12,46.4L81,194.3l-4.2-29.6l17.4,11.1l5.4-38.6l12.8,32.9L128.6,150.3z"/>
</g>
</svg>
