<?xml version="1.0" encoding="utf-8"?>
<!-- Generator: Adobe Illustrator 23.1.1, SVG Export Plug-In . SVG Version: 6.00 Build 0)  -->
<svg version="1.1" id="Layer_1" xmlns="http://www.w3.org/2000/svg" xmlns:xlink="http://www.w3.org/1999/xlink" x="0px" y="0px"
	 viewBox="0 0 444 444" style="enable-background:new 0 0 444 444;" xml:space="preserve">
<style type="text/css">
	.st0{fill:#DF1C4D;}
	.st1{fill:#FDB615;}
	.st2{fill:#010101;}
</style>
<circle class="st0" cx="111.2" cy="111.2" r="110.8"/>
<path class="st0" d="M136.2,28.5c10.9,3.4,19.1,16.1,24.9,30.2c5.8,14.1,9.1,29.5,4.4,41.2s-17.6,19.8-25.9,34.2
	c-8.4,14.4-12.2,35.3-22,43.4s-25.7,3.4-35.2-8s-12.6-29.4-21.7-41.6c-9-12.1-24-18.2-33.4-30.8S14.2,65.3,21.1,53
	s24.4-17.7,39-19.2c14.5-1.5,26.1,1,38.8-0.8S125.2,25.2,136.2,28.5z"/>
<path class="st1" d="M157.5,143.9c-2.9-9.6,1.2-29,3.6-37.6c2.9-10.2,8.1-20,16.1-26.3c4.2-3.3,10.9-7.2,16-4.8
	c7.4,3.3,7.1,13.1,7.4,20.4c0.2,8.4,11.8,8.1,11.6-0.3c-0.5-19.2-7.6-38-27.9-32.8c-12.6,3.2-22.2,13.8-28.6,26.4
	c-1.2-7.2,0.6-18.2,1.8-22.6c2.6-9.3,8.6-16.8,17.7-16.8c7.4,0.1,7.8-13,0.3-13.2c-12.7-0.2-23.2,9.8-27.9,23.1
	c-3.2,9-5.6,24-2.8,34.8c-10.9-7.8-20.8-18.7-16.1-35.5c2.3-8.2-8.8-11.3-11.1-3.2c-3.3,11.8-1.2,23.5,4.5,33.5
	c5.2,9.1,11.8,13.9,19.5,18.8c-1.2,15.1,1.8,40.4,1.8,40.4c2.2,7.9,10.6,16.6,19.2,18.1c19.4,3.4,35.4-14.2,37.4-35.4
	c0.8-8.4-10.8-8.1-11.6,0.4c-0.7,7.6-3.8,14.6-9.9,18.9c-5.6,3.8-11.8,4.6-18.6,2.2"/>
<path class="st1" d="M142.1,138.4l-23.8,0.8l-16.2-6.6l-13.2,6.6L73.5,131l-16.7,8.7L5.3,141l0.6-26.3l51,2.3l9.2,9l16.2-7.9
	l20.1,8.9l13.6-10l26.2,0.7L142.1,138.4z"/>
<path class="st2" d="M81.4,103.7l-6.1-28.9l-7.6,7.6l-6.8-20.7l-4,2l9.8,24.5l6.3-7.4l7.3,23.3L81.4,103.7z M89.3,103.5l6.2-24.2
	l-8.3,2.1l2.7-18.5l-3.7-0.4l-1.9,22.6l7.4-2.4l-3.2,20.7L89.3,103.5z M57.9,101.1L46.2,88.4l-2.3,3.2L59,105.9l2.4-8.2l12.9,14.6
	l0.6-0.7L61.2,92.3L57.9,101.1z M89.8,145.3l6.1,29l7.5-7.6l6.8,20.7l4-2.1l-9.8-24.4l-6.3,7.4L90.8,145L89.8,145.3z M81.9,145.6
	l-6.3,24.1l8.3-2l-2.6,18.4l3.7,0.4l1.9-22.6l-7.4,2.4l3.2-20.6L81.9,145.6z"/>
</svg>
