<?xml version="1.0" encoding="utf-8"?>
<!-- Generator: Adobe Illustrator 23.1.1, SVG Export Plug-In . SVG Version: 6.00 Build 0)  -->
<svg version="1.1" id="Layer_1" xmlns="http://www.w3.org/2000/svg" xmlns:xlink="http://www.w3.org/1999/xlink" x="0px" y="0px"
	 viewBox="0 0 444 444" style="enable-background:new 0 0 444 444;" xml:space="preserve">
<style type="text/css">
	.st0{fill:#5E54A4;}
	.st1{fill:#2CBAA8;}
</style>
<g>
	<circle class="st0" cx="111.2" cy="111.2" r="110.8"/>
	<path class="st1" d="M60.6,48.4c2.2-1.3,5.2-0.5,6.5,1.8L85,81.3c0.6,1.1,2.2,1.6,3.4,0.9l2.6-1.4c1.1-0.6,1.6-2.2,0.9-3.4
		l-18-31.1c-1.3-2.2-0.5-5.2,1.8-6.5c2.2-1.3,5.1-0.5,6.5,1.8l17.9,31.1c0.6,1.1,2.2,1.6,3.4,0.9l2.6-1.4c1.1-0.6,1.6-2.2,0.9-3.4
		L89,37.6c-1.3-2.2-0.5-5.2,1.8-6.5c2.2-1.3,5.1-0.5,6.5,1.8l21.1,36.5c3.1,5.4,1.3,12.1-4.1,15.2l-2,1.1l45.9,69.5
		c4.2,6.4,2.1,15.2-4.5,19l-0.3,0.1c-6.6,3.9-15.3,1.2-18.7-5.6L97.2,94.3l-2.1,1.2c-5.4,3.1-12.1,1.3-15.2-4.1l-21-36.6
		C57.6,52.7,58.4,49.8,60.6,48.4L60.6,48.4z"/>
</g>
</svg>
