<?xml version="1.0" encoding="utf-8"?>
<!-- Generator: Adobe Illustrator 23.1.1, SVG Export Plug-In . SVG Version: 6.00 Build 0)  -->
<svg version="1.1" id="Layer_1" xmlns="http://www.w3.org/2000/svg" xmlns:xlink="http://www.w3.org/1999/xlink" x="0px" y="0px"
	 viewBox="0 0 444 444" style="enable-background:new 0 0 444 444;" xml:space="preserve">
<style type="text/css">
	.st0{fill-rule:evenodd;clip-rule:evenodd;fill:#EC1A3B;}
	.st1{fill:#EC1A3B;}
</style>
<g>
	<path class="st0" d="M380.8,149.7v33.4c-4-23.8-24.7-36.8-57.2-36.8c-31.1,0-52.5,15.7-55.1,36.4v-32.9l-54.3,0l-15.8,61.4
		l-17.5-61.4l-52.6,0V193c-7.8-27-32.8-46.8-62.3-46.8C30.1,146.2,1,175.2,1,211.1C1,246.9,30.1,276,65.9,276
		c29.6,0,54.5-19.8,62.3-46.8v43.3h40.3v-59.6l14,57.9h31.6l14-57.9v59.6h40.3v-32.6c6,21.5,27.8,36.1,55.4,36.1
		c32.8,0,54.7-12.7,57-36.7v33.3h43.8V149.7H380.8z M65.9,230.3c-10.6,0-19.2-8.6-19.2-19.2c0-10.6,8.6-19.2,19.2-19.2
		c10.6,0,19.2,8.6,19.2,19.2C85.1,221.7,76.5,230.3,65.9,230.3z M323.8,239.2c-6.9,0-11.9-2.7-11.9-11.5h-43.3v-36
		c2.5,19,21.3,26.5,41.5,30.1c8.4,1.5,23.4,2.9,23.5,10C333.5,235.6,331,239.2,323.8,239.2z M338,196.9c-8.8-1.4-23-2.8-23-10.9
		c0-4.5,4.5-6.6,8.8-6.6c7,0,9.7,4.1,9.7,12.5h47.4v38.3C378.8,209.5,362.1,200.9,338,196.9z"/>
	<g>
		<path class="st1" d="M430.3,159v-5.2h-1.9v-1h4.8v1h-1.9v5.2H430.3z"/>
		<path class="st1" d="M439.5,159v-4.8l-1.9,4.8h-0.5l-1.9-4.8v4.8h-1.1v-6.2h1.5l1.7,4.2l1.7-4.2h1.5v6.2H439.5z"/>
	</g>
</g>
</svg>
