<?xml version="1.0" encoding="utf-8"?>
<!-- Generator: Adobe Illustrator 23.1.1, SVG Export Plug-In . SVG Version: 6.00 Build 0)  -->
<svg version="1.1" id="Layer_1" xmlns="http://www.w3.org/2000/svg" xmlns:xlink="http://www.w3.org/1999/xlink" x="0px" y="0px"
	 viewBox="0 0 444 444" style="enable-background:new 0 0 444 444;" xml:space="preserve">
<style type="text/css">
	.st0{fill:#F78F1E;}
	.st1{fill:#DF1C4D;}
	.st2{fill:#5E54A4;}
	.st3{fill:#FFFFFF;}
	.st4{fill:#1D2959;}
	.st5{fill:#00B6CF;}
</style>
<g>
	<circle class="st0" cx="222" cy="222.7" r="221.6"/>
	
		<ellipse transform="matrix(0.5404 -0.8414 0.8414 0.5404 -107.7695 366.4188)" class="st1" cx="281.5" cy="281.9" rx="13.8" ry="56.8"/>
	<path class="st2" d="M110.2,92.2c81.2-52.1,166.4-30,238.3-8.6c28.6,8.5,32,47.6,5.3,60.8l-28.4,14.1c0,0,14.6,29.2,22.3,46.3
		l-60.6,29.7c-20.4,10-22,38.4-2.8,50.5l68.9,43.8c-13.9,30.5-44.6,56.3-103.9,68C49.9,435.9,6,159.1,110.2,92.2z"/>
	
		<ellipse transform="matrix(0.7466 -0.6652 0.6652 0.7466 -32.5134 200.8396)" class="st3" cx="247.4" cy="143.1" rx="40.5" ry="24.5"/>
	<circle class="st4" cx="247.4" cy="143.1" r="7.5"/>
	<path class="st2" d="M279.3,108.1l-72.5,64.6L184,147.1l72.5-64.6L279.3,108.1z"/>
	<path class="st1" d="M265.7,357.1c-7.3-7.8-6.8-19.9,1-27.1l31.4-28.7c7.9-7.2,20.2-6.8,27.5,1s6.8,19.9-1,27.1l-31.4,28.7
		C285.3,365.3,273,364.8,265.7,357.1z"/>
	<ellipse class="st5" cx="365.6" cy="256.8" rx="41.5" ry="44.5"/>
	<path class="st5" d="M419.9,191l-12.7,67.4l-48.1-45.6L419.9,191z"/>
</g>
</svg>
