<svg xmlns="http://www.w3.org/2000/svg" id="Layer_1" viewBox="0 0 700 700"><style>.st14,.st36{fill:#6f55a4}.st36{stroke:#6f55a4;stroke-miterlimit:10}</style><switch><g><circle cx="354.6" cy="341.9" r="335.1" fill="#fdb614"/><path d="M630.7 344.4c0 153.5-124.5 278-278 278s-278-124.5-278-278 124.5-278 278-278 278 124.5 278 278z" fill="none" id="SVGID_x5F_9_x5F_"/><path class="st14" d="M160.4 211.8h375.5v260.6H160.4z"/><path class="st14" d="M166.2 153.8h299.1v274.7H166.2z"/><path class="st14" d="M239.1 231.6h299.1v318H239.1z"/><path d="M540.1 205.1h-57.7v-24c0-24-19.2-43.3-43.3-43.3H199c-24 0-43.3 19.2-43.3 43.3v288.2c0 5.2 4.2 9.6 9.6 9.6H223v43.3c0 24 19.2 43.3 43.3 43.3h240.1c24 0 43.3-19.2 43.3-43.3V214.5c0-5.2-4.2-9.4-9.6-9.4zm-230.5 28.7h221V340l-25-17.7a9.63 9.63 0 0 0-11 0L460 346.7l-34.6-25a9.63 9.63 0 0 0-11 0l-34 25-34.6-25a9.63 9.63 0 0 0-11 0l-25 18.3V233.8h-.2zM199 157c13.5 0 24 10.6 24 24v211.2h-48V181.1c.2-13.5 10.6-24.1 24-24.1zm-23.8 302.6v-48.1h48.1v48.1h-48.1zm67.1 62.3V181c0-8.7-2.9-17.3-7.1-24h204.1c13.5 0 24 10.6 24 24v24H300c-5.2 0-9.6 4.2-9.6 9.6V522c0 13.5-10.6 24-24 24-13.5 0-24.1-10.6-24.1-24.1zM506.4 546H302.3c4.8-6.7 7.1-15.4 7.1-24V363.5l30.2-22.1 34.6 25c3.3 2.3 7.7 2.3 11 0l34.6-24.4 34.6 25c3.3 2.3 7.7 2.3 11 0l34.6-25 30.2 22.1v158.5c.3 12.8-10.3 23.4-23.8 23.4z" fill="#f05867"/><path class="st36" d="M57.8 300.6c-.2 1.4-.8 2.5-1.9 3.4-1 .9-2.4 1.2-4 1-1.4-.2-2.5-.8-3.3-2-.8-1.1-1.2-2.4-1-3.8.2-1.4.9-2.5 2-3.4s2.4-1.2 3.7-1c1.6.2 2.8.9 3.5 2 .9 1.2 1.2 2.5 1 3.8zM61.9 278.2c-.3 1.4-1 2.4-2.1 3.2-1.1.8-2.4 1-4 .7-1.3-.3-2.4-1-3.1-2.2-.8-1.2-1-2.4-.7-3.8.3-1.4 1.1-2.5 2.2-3.2 1.2-.8 2.4-1 3.8-.7 1.6.4 2.7 1.1 3.3 2.3.7 1.1.9 2.4.6 3.7zM67.8 256.2c-.4 1.3-1.2 2.4-2.4 3.1-1.2.7-2.5.8-4.1.3-1.3-.4-2.3-1.2-3-2.4-.7-1.2-.8-2.5-.4-3.9s1.2-2.4 2.5-3c1.2-.7 2.5-.8 3.9-.4 1.5.5 2.6 1.3 3.2 2.5.6 1.2.7 2.5.3 3.8zM75.3 234.7c-.5 1.3-1.4 2.3-2.6 2.9-1.2.6-2.6.6-4.1 0-1.3-.5-2.2-1.4-2.8-2.7-.6-1.3-.6-2.6-.1-3.9.5-1.3 1.4-2.3 2.7-2.8 1.3-.6 2.6-.6 3.9-.1 1.5.6 2.5 1.5 3 2.8.5 1.3.5 2.5 0 3.8zM84.4 213.8c-.6 1.3-1.5 2.1-2.8 2.7-1.3.5-2.6.4-4.1-.3-1.2-.6-2.1-1.6-2.6-2.9-.5-1.3-.4-2.6.2-3.9.6-1.3 1.6-2.2 2.9-2.6 1.3-.5 2.6-.4 3.9.2 1.4.7 2.4 1.7 2.7 3 .5 1.3.4 2.5-.2 3.8zM95.1 193.6c-.7 1.2-1.7 2-3 2.4-1.3.4-2.6.2-4-.6-1.2-.7-2-1.7-2.3-3-.4-1.3-.2-2.6.5-3.8.7-1.2 1.7-2 3.1-2.4s2.6-.2 3.8.5c1.4.8 2.2 1.9 2.5 3.2.3 1.3.1 2.5-.6 3.7zM107.3 174.4c-.8 1.2-1.8 1.9-3.2 2.2-1.3.3-2.6 0-4-.9-1.1-.8-1.8-1.9-2.1-3.2-.3-1.4 0-2.6.8-3.8.8-1.2 1.9-1.9 3.3-2.2 1.4-.3 2.6 0 3.8.8 1.3.9 2.1 2 2.3 3.4.2 1.3-.1 2.6-.9 3.7zM121 156.1c-.9 1.1-2 1.7-3.3 2-1.3.2-2.6-.2-3.9-1.2-1.1-.9-1.7-2-1.9-3.4-.2-1.4.2-2.6 1.1-3.7.9-1.1 2-1.7 3.4-1.9 1.4-.2 2.6.2 3.7 1.1 1.2 1 1.9 2.2 2 3.5.1 1.3-.3 2.5-1.1 3.6zM135.9 138.9c-1 1-2.1 1.6-3.5 1.7-1.4.1-2.6-.4-3.8-1.5-1-.9-1.5-2.1-1.6-3.5s.4-2.6 1.4-3.6c1-1 2.2-1.6 3.6-1.6 1.4-.1 2.6.4 3.6 1.3 1.2 1.1 1.7 2.3 1.7 3.7 0 1.3-.4 2.5-1.4 3.5zM152.2 122.9c-1 .9-2.2 1.4-3.6 1.4s-2.6-.6-3.7-1.8c-.9-1-1.4-2.2-1.3-3.6 0-1.4.6-2.6 1.6-3.5 1-1 2.3-1.4 3.7-1.4 1.4 0 2.6.6 3.5 1.6 1.1 1.2 1.6 2.4 1.4 3.8-.1 1.4-.6 2.6-1.6 3.5zM169.5 108.1c-1.1.9-2.3 1.3-3.7 1.2-1.4-.1-2.5-.8-3.5-2-.8-1.1-1.2-2.3-1.1-3.7.2-1.4.8-2.5 1.9-3.4 1.1-.9 2.4-1.2 3.8-1.1 1.4.2 2.5.8 3.4 1.9 1 1.3 1.4 2.6 1.1 3.9-.2 1.3-.8 2.4-1.9 3.2zM188 94.7c-1.2.8-2.4 1.1-3.8.9-1.3-.2-2.5-1-3.4-2.3-.8-1.1-1-2.4-.8-3.8s1-2.4 2.2-3.2c1.2-.8 2.5-1.1 3.8-.8 1.4.3 2.5 1 3.2 2.1.9 1.3 1.2 2.7.8 4-.1 1.4-.9 2.4-2 3.1zM239.3 91.5l-9.2 4.2c-1.3.6-2.4.8-3.2.4-.8-.3-1.6-1.1-2.2-2.4l-10.4-22.5c-.6-1.3-.8-2.4-.4-3.3.3-.8 1.1-1.6 2.4-2.2l9.7-4.5c1.4-.7 2.7-1.1 3.8-1.5 1.1-.3 2.2-.4 3.3-.3.9.1 1.8.3 2.6.7s1.6.9 2.2 1.6c.6.7 1.2 1.4 1.6 2.3 1.4 3 .9 5.9-1.5 8.7 4.5-.6 7.6 1 9.3 4.6.8 1.7 1 3.4.8 5.1-.2 1.7-.9 3.3-2.1 4.6-.7.8-1.7 1.6-2.8 2.3-1 .7-2.3 1.4-3.9 2.2zm-18.5-22.3l3.6 7.8 5.6-2.6c1.5-.7 2.6-1.4 3.3-2.1.7-.7 1.1-1.5 1.1-2.5.1-.7-.1-1.5-.4-2.2-.7-1.5-1.7-2.3-3-2.3s-3.1.5-5.3 1.5l-4.9 2.4zm11.9 9.2l-6.3 2.9 4 8.8 6.5-3c4.1-1.9 5.5-4.3 4.1-7.3-.7-1.5-1.7-2.4-3.1-2.6-1.3-.2-3.1.2-5.2 1.2zM257 52.7l7.4 22.9 12.9-4.2c1-.3 1.9-.3 2.6 0 .7.3 1.2.9 1.4 1.6.2.8.2 1.5-.2 2.1-.4.7-1.1 1.1-2.2 1.5l-15.4 4.9c-1.4.4-2.5.5-3.3 0-.8-.4-1.4-1.3-1.9-2.7l-7.8-24.2c-.4-1.3-.4-2.3-.1-3.2.4-.8 1-1.4 2-1.7 1-.3 1.8-.2 2.6.2 1 .6 1.6 1.5 2 2.8zM309 66.3l-2.3-3.8-13.2 2.5-.7 4.5c-.3 1.7-.6 2.9-.9 3.6-.3.6-1 1.1-1.9 1.3-.8.2-1.6 0-2.4-.5-.8-.5-1.2-1.1-1.4-1.9-.1-.4-.1-.9 0-1.4.1-.5.2-1.2.3-2.1l4.2-22.7c.1-.6.3-1.4.4-2.3.2-.9.4-1.7.7-2.3.3-.6.7-1.2 1.2-1.6.5-.5 1.3-.8 2.2-1 .9-.2 1.7-.2 2.4.1.7.2 1.3.6 1.7 1.1.5.5.9 1 1.3 1.6.4.6.9 1.4 1.5 2.3L314.6 63c1 1.5 1.5 2.6 1.7 3.3.1.8 0 1.5-.5 2.3-.5.7-1.2 1.2-2.1 1.4-.5.1-1 .1-1.4 0-.4-.1-.8-.3-1.1-.6-.3-.3-.7-.7-1.1-1.3-.4-.8-.8-1.4-1.1-1.8zm-14.8-6.5l9.7-1.9-7.5-12.4-2.2 14.3zM331.7 37.6l14 18.7-1.1-19.6c-.1-1.3.1-2.2.7-2.9.5-.7 1.2-1 2.2-1.1 1-.1 1.7.2 2.3.8.6.6.9 1.5 1 2.8l1.5 25.9c.2 2.9-1 4.4-3.3 4.6-.6 0-1.1 0-1.6-.2-.5-.1-1-.4-1.4-.7-.4-.4-.9-.8-1.2-1.2s-.8-1-1.2-1.5L330 44.7l1.1 19.3c.1 1.3-.2 2.2-.7 2.9-.5.7-1.3 1-2.2 1.1-.9.1-1.7-.2-2.3-.8-.6-.6-.9-1.6-1-2.8L323.1 39c-.1-1.1 0-1.9.2-2.6.2-.7.7-1.3 1.3-1.7.6-.5 1.3-.7 2.1-.8.6 0 1.1 0 1.6.2.4.2.8.4 1.2.7.3.3.7.7 1.1 1.2.3.6.7 1.1 1.1 1.6zM371.7 37.2l-.9 11.6L385 36.1c.7-.6 1.3-1.1 1.7-1.3.5-.3 1.1-.4 1.8-.3 1 .1 1.7.4 2.3 1 .5.6.8 1.3.7 2.1-.1 1-.6 1.9-1.7 2.8l-8.7 7.1 8.3 14.1c.6 1 1 1.8 1.3 2.6.3.7.4 1.4.3 2.1-.1.7-.4 1.4-1 1.8-.6.5-1.4.7-2.4.6-.9-.1-1.7-.3-2.2-.8-.6-.4-1-1-1.4-1.7-.4-.7-.7-1.3-.9-1.9l-7-12.7-5.9 4.8-.5 6.8c-.1 1.4-.5 2.4-1.2 3-.7.6-1.5.9-2.5.8-.6 0-1.1-.2-1.6-.6-.5-.3-.9-.8-1.1-1.3-.2-.4-.3-.9-.3-1.5s0-1.4.1-2.4l1.9-24.5c.1-1.3.5-2.3 1.1-3 .6-.6 1.5-.9 2.5-.8 1 .1 1.8.5 2.4 1.2.6.7.8 1.8.7 3.1zM426.8 46.9L412 43.8l-1.6 7.9 13.6 2.8c1 .2 1.7.6 2.1 1.1.4.6.5 1.2.4 1.9-.2.7-.5 1.3-1.1 1.6-.6.4-1.4.4-2.4.2l-13.6-2.8-1.9 9.2 15.3 3.2c1 .2 1.8.6 2.2 1.2.4.6.6 1.3.4 2.1-.2.8-.5 1.3-1.2 1.7-.6.4-1.4.4-2.5.2l-17.8-3.7c-1.4-.3-2.4-.8-2.9-1.6s-.6-1.9-.3-3.3l5-24.3c.2-.9.5-1.7.9-2.2.4-.5.9-.9 1.6-1 .7-.1 1.4-.1 2.4.1l17.3 3.6c1 .2 1.8.6 2.2 1.2.4.6.5 1.2.4 2-.2.8-.5 1.3-1.1 1.7-.7.4-1.5.5-2.6.3zM462.1 58.1l-6.9-2.3-7.6 22.8c-.4 1.3-1.1 2.2-1.9 2.6-.8.4-1.7.5-2.6.2-.9-.3-1.6-.9-2-1.7-.4-.8-.3-1.9.1-3.2l7.6-22.8-6.9-2.3c-1.1-.4-1.8-.9-2.2-1.5-.4-.7-.4-1.4-.2-2.2.3-.8.8-1.4 1.5-1.6.7-.3 1.6-.3 2.6.1l20.2 6.8c1.1.4 1.8.9 2.2 1.5.4.7.4 1.4.2 2.2-.3.8-.7 1.3-1.4 1.6-.7.2-1.6.1-2.7-.2zM495.2 79c-1.2-.7-2.1-1.6-2.6-2.9-.5-1.3-.3-2.6.4-4.1.6-1.2 1.6-2 2.9-2.5 1.3-.4 2.6-.3 3.9.4 1.3.7 2.1 1.7 2.5 3 .4 1.3.3 2.6-.3 3.9-.7 1.4-1.8 2.3-3.1 2.6-1.2.4-2.5.2-3.7-.4zM517.4 92c-1.2-.8-1.9-1.8-2.3-3.1-.4-1.3-.1-2.6.8-4 .7-1.2 1.8-1.9 3.1-2.2 1.4-.3 2.6-.1 3.8.7 1.2.8 1.9 1.8 2.3 3.2.3 1.4.1 2.6-.7 3.8-.9 1.3-2 2.1-3.3 2.4-1.4.2-2.6-.1-3.7-.8zM538.3 106.8c-1.1-.9-1.8-1.9-2-3.3-.2-1.3.1-2.6 1.1-3.9.8-1.1 1.9-1.7 3.3-1.9 1.4-.2 2.6.1 3.7 1s1.8 2 2 3.4c.2 1.4-.1 2.6-1 3.7-1 1.3-2.1 2-3.5 2.1-1.3.1-2.5-.3-3.6-1.1zM560 125.3c-1-1-1.6-2.1-1.7-3.5-.1-1.4.4-2.6 1.5-3.8.9-1 2.1-1.5 3.5-1.6 1.4-.1 2.6.4 3.6 1.4 1 1 1.6 2.2 1.6 3.6.1 1.4-.4 2.6-1.3 3.6-1.1 1.2-2.3 1.7-3.7 1.7-1.3 0-2.5-.5-3.5-1.4zM578 143.6c-.9-1-1.4-2.2-1.4-3.6s.6-2.6 1.8-3.7c1-.9 2.2-1.4 3.6-1.3 1.4.1 2.6.6 3.5 1.7 1 1.1 1.4 2.3 1.3 3.7-.1 1.4-.6 2.6-1.6 3.5-1.2 1.1-2.5 1.5-3.8 1.4-1.4-.1-2.5-.7-3.4-1.7zM594.3 163.4c-.8-1.1-1.2-2.3-1.1-3.7.1-1.4.8-2.5 2.1-3.5 1.1-.8 2.3-1.2 3.7-1 1.4.2 2.5.8 3.3 2 .9 1.1 1.2 2.4 1 3.8-.2 1.4-.8 2.5-1.9 3.4-1.3 1-2.6 1.3-3.9 1.1-1.3-.4-2.4-1-3.2-2.1zM608.9 184.5c-.7-1.2-1-2.4-.8-3.8.2-1.3 1-2.4 2.4-3.3 1.2-.7 2.4-1 3.8-.7 1.4.3 2.4 1 3.2 2.2.8 1.2 1 2.5.7 3.9-.3 1.4-1 2.4-2.2 3.2-1.4.9-2.7 1.1-4 .7-1.3-.3-2.4-1-3.1-2.2zM621.7 206.8c-.6-1.2-.8-2.5-.5-3.8.3-1.3 1.2-2.3 2.7-3.1 1.2-.6 2.5-.7 3.8-.3 1.3.4 2.3 1.2 3 2.5.7 1.3.8 2.6.4 3.9-.4 1.3-1.2 2.3-2.5 3-1.4.7-2.8.9-4 .4-1.4-.6-2.3-1.4-2.9-2.6zM632.5 230.1c-.5-1.3-.6-2.6-.1-3.9.4-1.3 1.4-2.2 2.9-2.8 1.3-.5 2.6-.5 3.8 0 1.3.5 2.2 1.4 2.7 2.7s.6 2.6 0 3.9c-.5 1.3-1.4 2.2-2.7 2.8-1.5.6-2.8.6-4.1 0-1.1-.5-2-1.5-2.5-2.7zM639.9 250.1c-.4-1.3-.4-2.6.1-3.9.5-1.2 1.6-2.1 3.1-2.6 1.3-.4 2.6-.3 3.8.3 1.2.6 2.1 1.6 2.5 2.9.4 1.3.4 2.7-.3 3.9-.6 1.3-1.6 2.1-2.9 2.5-1.5.5-2.9.4-4.1-.2-1-.6-1.8-1.6-2.2-2.9zM646.2 272c-.3-1.4-.2-2.6.4-3.8.6-1.2 1.7-2 3.3-2.4 1.3-.3 2.6-.1 3.8.6 1.2.7 2 1.7 2.3 3.1.3 1.4.2 2.7-.6 3.9s-1.7 2-3.1 2.3c-1.6.4-2.9.2-4-.6-1-.7-1.8-1.8-2.1-3.1zM650.8 294.3c-.2-1.4 0-2.6.7-3.8.7-1.1 1.9-1.9 3.5-2.1 1.4-.2 2.6.1 3.7.8 1.1.8 1.8 1.9 2.1 3.3.2 1.4 0 2.7-.8 3.8-.8 1.2-1.9 1.8-3.3 2.1-1.6.3-2.9 0-4-.9s-1.6-1.8-1.9-3.2zM653.8 317c-.1-1.4.2-2.6 1-3.7s2-1.7 3.6-1.9c1.4-.1 2.6.3 3.7 1.1 1.1.9 1.7 2 1.8 3.4.1 1.4-.3 2.7-1.1 3.8-.9 1.1-2 1.7-3.4 1.8-1.6.1-2.9-.2-3.9-1.2-1.1-.9-1.6-2-1.7-3.3zM655 339.6c0-1.4.4-2.6 1.3-3.6s2.1-1.6 3.8-1.6c1.4 0 2.6.4 3.6 1.4 1 1 1.5 2.1 1.5 3.6 0 1.4-.4 2.6-1.4 3.7-1 1-2.1 1.5-3.5 1.6-1.6 0-2.9-.5-3.8-1.4-1-1.1-1.5-2.3-1.5-3.7zM654.5 362.5c.1-1.4.6-2.6 1.6-3.5 1-1 2.3-1.4 3.9-1.3 1.4.1 2.5.6 3.5 1.7.9 1 1.4 2.2 1.3 3.7-.1 1.4-.6 2.6-1.7 3.5-1 .9-2.3 1.4-3.6 1.3-1.6-.1-2.8-.7-3.7-1.7-1-1.2-1.4-2.4-1.3-3.7zM652.2 385.2c.2-1.4.8-2.5 1.8-3.4 1-.9 2.4-1.2 4-1 1.4.2 2.5.8 3.3 1.9.9 1.1 1.2 2.3 1 3.8-.2 1.4-.8 2.5-1.9 3.4-1.1.9-2.4 1.2-3.7 1-1.6-.2-2.8-.9-3.5-2-.8-1.1-1.1-2.4-1-3.7zM648.3 407.6c.3-1.4 1-2.5 2.1-3.3 1.1-.8 2.4-1 4-.7 1.3.3 2.4 1 3.2 2.2.8 1.2 1 2.4.7 3.8-.3 1.4-1 2.5-2.2 3.2-1.2.8-2.4 1-3.8.7-1.6-.3-2.7-1.1-3.4-2.3-.7-1-.9-2.2-.6-3.6zM642.7 429.8c.4-1.3 1.2-2.4 2.3-3.1 1.2-.7 2.5-.8 4.1-.4 1.3.4 2.3 1.2 3 2.4.7 1.2.8 2.5.4 3.9s-1.2 2.4-2.4 3.1c-1.2.7-2.5.8-3.8.4-1.5-.5-2.6-1.3-3.2-2.5-.7-1.3-.8-2.5-.4-3.8zM635.4 451.3c.5-1.3 1.3-2.3 2.6-2.9 1.2-.6 2.6-.6 4.1-.1 1.3.5 2.2 1.4 2.8 2.6.6 1.3.6 2.6.1 3.9-.5 1.3-1.4 2.3-2.7 2.9-1.3.6-2.6.6-3.9.1-1.5-.6-2.5-1.5-3-2.7-.5-1.2-.5-2.5 0-3.8zM626.4 472.3c.6-1.3 1.5-2.2 2.8-2.7 1.2-.5 2.6-.5 4.1.2 1.2.6 2.1 1.5 2.6 2.8.5 1.3.4 2.6-.2 3.9-.6 1.3-1.6 2.2-2.9 2.7-1.3.5-2.6.4-3.9-.2-1.4-.7-2.4-1.7-2.8-3-.3-1.2-.2-2.5.3-3.7zM615.9 492.6c.7-1.2 1.7-2 3-2.5 1.3-.4 2.6-.3 4 .5 1.2.7 2 1.7 2.4 3 .4 1.3.2 2.6-.5 3.9-.7 1.2-1.7 2-3.1 2.4-1.3.4-2.6.2-3.8-.5-1.4-.8-2.2-1.8-2.5-3.2-.3-1.2-.2-2.4.5-3.6zM603.9 511.9c.8-1.2 1.8-1.9 3.1-2.2 1.3-.3 2.6-.1 4 .9 1.1.8 1.9 1.8 2.1 3.2.3 1.4 0 2.6-.8 3.8-.8 1.2-1.9 1.9-3.3 2.2-1.4.3-2.6 0-3.8-.7-1.3-.9-2.1-2-2.3-3.4 0-1.4.2-2.6 1-3.8zM590.5 530.3c.9-1.1 2-1.8 3.3-2 1.3-.2 2.6.1 3.9 1.2 1.1.9 1.7 2 1.9 3.3.2 1.4-.2 2.6-1.1 3.7-.9 1.1-2 1.8-3.4 1.9-1.4.2-2.6-.2-3.7-1-1.3-1-1.9-2.2-2-3.5-.1-1.3.2-2.5 1.1-3.6zM575.7 547.7c.9-1 2.1-1.6 3.4-1.7s2.6.3 3.8 1.4c1 .9 1.6 2.1 1.6 3.5.1 1.4-.4 2.6-1.3 3.6-1 1-2.1 1.6-3.5 1.7-1.4.1-2.6-.4-3.6-1.3-1.2-1.1-1.8-2.3-1.8-3.7 0-1.4.5-2.5 1.4-3.5zM559.6 563.9c1-1 2.2-1.4 3.6-1.5 1.4 0 2.6.5 3.7 1.7.9 1 1.4 2.2 1.4 3.6s-.6 2.6-1.6 3.5c-1 1-2.3 1.4-3.7 1.4-1.4 0-2.6-.6-3.5-1.6-1.1-1.2-1.6-2.4-1.5-3.8 0-1.3.6-2.4 1.6-3.3zM542.4 578.8c1.1-.9 2.3-1.3 3.7-1.2 1.4.1 2.5.7 3.6 2 .9 1.1 1.2 2.3 1.1 3.7-.1 1.4-.8 2.5-1.9 3.4-1.1.9-2.4 1.3-3.8 1.1-1.4-.1-2.5-.8-3.4-1.8-1-1.2-1.4-2.5-1.2-3.9.2-1.4.8-2.5 1.9-3.3zM524.1 592.3c1.2-.8 2.4-1.1 3.8-.9 1.3.2 2.5.9 3.4 2.3.8 1.1 1 2.4.8 3.8-.2 1.4-.9 2.4-2.1 3.3-1.2.8-2.4 1.1-3.8.8-1.4-.2-2.5-.9-3.3-2.1-.9-1.3-1.2-2.6-.9-4 .2-1.4.9-2.4 2.1-3.2zM504.8 604.5c1.2-.7 2.5-.9 3.8-.6 1.3.3 2.4 1.1 3.2 2.5.7 1.2.9 2.5.5 3.8-.3 1.3-1.1 2.4-2.4 3.1-1.2.7-2.5.9-3.9.5-1.4-.3-2.4-1.1-3.1-2.3-.8-1.4-1-2.7-.6-4 .5-1.4 1.3-2.4 2.5-3zM484.6 615.1c1.3-.6 2.5-.7 3.8-.3 1.3.4 2.3 1.3 3 2.8.6 1.2.7 2.5.2 3.8-.4 1.3-1.3 2.3-2.6 2.9-1.3.6-2.6.7-3.9.2-1.3-.4-2.3-1.3-2.9-2.6-.7-1.4-.8-2.8-.3-4.1.6-1.2 1.5-2.1 2.7-2.7zM463.7 624.2c1.3-.5 2.6-.5 3.9-.1s2.2 1.5 2.8 3c.5 1.3.5 2.6-.1 3.8-.5 1.3-1.5 2.2-2.8 2.7-1.3.5-2.6.5-3.9-.1-1.3-.6-2.2-1.5-2.7-2.8-.6-1.5-.6-2.8 0-4.1.6-1 1.5-1.9 2.8-2.4zM442.1 631.7c1.3-.4 2.6-.3 3.9.2 1.2.6 2.1 1.6 2.6 3.2.4 1.3.3 2.6-.4 3.8-.6 1.2-1.6 2.1-3 2.5-1.4.4-2.7.3-3.9-.4-1.2-.6-2.1-1.6-2.5-3-.5-1.5-.4-2.9.3-4 .7-1.2 1.7-1.9 3-2.3zM420.1 637.4c1.4-.3 2.6-.1 3.8.5 1.2.7 2 1.8 2.3 3.4.3 1.3.1 2.6-.6 3.8-.7 1.2-1.8 1.9-3.2 2.2-1.4.3-2.7.1-3.9-.6-1.2-.7-1.9-1.8-2.2-3.2-.3-1.6-.1-2.9.7-4 .7-1.1 1.8-1.8 3.1-2.1zM397.6 641.5c1.4-.2 2.6.1 3.8.8 1.1.7 1.8 1.9 2 3.5.2 1.4-.1 2.6-.9 3.7s-1.9 1.8-3.3 2c-1.4.2-2.7-.1-3.8-.9-1.1-.8-1.8-1.9-2-3.3-.2-1.6.1-2.9 1-3.9.8-1.1 1.9-1.7 3.2-1.9zM375 643.9c1.4-.1 2.6.3 3.7 1.1s1.7 2.1 1.8 3.7c.1 1.4-.3 2.6-1.2 3.6-.9 1.1-2.1 1.6-3.5 1.7-1.4.1-2.7-.3-3.7-1.2-1.1-.9-1.6-2.1-1.7-3.5-.1-1.6.3-2.9 1.3-3.9.8-.9 1.9-1.4 3.3-1.5zM352.1 644.6c1.4 0 2.6.5 3.6 1.4 1 .9 1.5 2.2 1.5 3.8 0 1.4-.5 2.6-1.5 3.5-1 1-2.2 1.5-3.6 1.4-1.4 0-2.6-.5-3.6-1.5s-1.5-2.2-1.4-3.6c0-1.6.5-2.8 1.6-3.7.9-.9 2.1-1.4 3.4-1.3zM329.4 643.5c1.4.1 2.6.7 3.5 1.6.9 1 1.3 2.3 1.2 3.9-.1 1.4-.7 2.5-1.7 3.4-1 .9-2.3 1.3-3.7 1.2-1.4-.1-2.6-.7-3.5-1.8-.9-1.1-1.3-2.3-1.2-3.7.1-1.6.7-2.8 1.8-3.6 1.1-.7 2.3-1.1 3.6-1zM306.8 640.8c1.4.2 2.5.9 3.4 1.9.9 1.1 1.2 2.4.9 4-.2 1.4-.9 2.4-2 3.3-1.1.8-2.4 1.1-3.8.9-1.4-.2-2.5-.9-3.4-2-.8-1.1-1.1-2.4-.9-3.8.3-1.6.9-2.7 2.1-3.5 1.1-.8 2.4-1.1 3.7-.8zM284.4 636.3c1.4.3 2.4 1 3.2 2.2.8 1.1 1 2.5.6 4-.3 1.3-1.1 2.4-2.2 3.1-1.2.7-2.5.9-3.8.6-1.4-.3-2.4-1.1-3.2-2.3-.7-1.2-1-2.5-.6-3.8.4-1.6 1.2-2.7 2.3-3.3 1.2-.7 2.4-.8 3.7-.5zM262.5 630.1c1.3.4 2.3 1.2 3 2.4.7 1.2.8 2.5.3 4.1-.4 1.3-1.2 2.3-2.5 2.9-1.2.6-2.5.8-3.9.3-1.4-.4-2.4-1.3-3-2.5-.7-1.2-.8-2.5-.3-3.9.5-1.5 1.4-2.6 2.6-3.1 1.2-.5 2.5-.6 3.8-.2zM241.1 622.3c1.3.5 2.2 1.4 2.8 2.6.6 1.2.6 2.6 0 4.1-.5 1.3-1.4 2.2-2.7 2.7-1.3.6-2.6.6-3.9 0-1.3-.5-2.3-1.5-2.8-2.7-.6-1.3-.6-2.6 0-3.9.6-1.5 1.5-2.5 2.8-2.9 1.2-.5 2.5-.4 3.8.1zM220.3 612.8c1.2.6 2.1 1.6 2.6 2.8.5 1.3.4 2.6-.3 4.1-.6 1.2-1.6 2.1-2.9 2.5-1.3.5-2.6.4-3.9-.3s-2.1-1.6-2.6-2.9-.4-2.6.3-3.9c.7-1.4 1.7-2.3 3-2.7 1.3-.3 2.6-.2 3.8.4zM200.3 601.8c1.2.7 2 1.7 2.4 3 .4 1.3.2 2.6-.6 4-.7 1.2-1.7 1.9-3.1 2.3-1.3.4-2.6.2-3.8-.6-1.2-.7-2-1.8-2.4-3.1-.4-1.4-.2-2.6.5-3.8.8-1.4 1.9-2.2 3.2-2.5 1.4-.2 2.7 0 3.8.7zM181.2 589.3c1.1.8 1.9 1.9 2.2 3.2.3 1.3 0 2.6-1 4-.8 1.1-1.9 1.8-3.2 2.1-1.4.2-2.6 0-3.8-.9-1.2-.8-1.9-1.9-2.1-3.3-.2-1.4 0-2.6.8-3.8.9-1.3 2.1-2 3.4-2.2 1.4-.2 2.6.2 3.7.9zM163.2 575.5c1.1.9 1.7 2 1.9 3.4s-.2 2.6-1.2 3.9c-.9 1.1-2 1.7-3.4 1.8-1.4.1-2.6-.2-3.7-1.1-1.1-.9-1.7-2.1-1.9-3.5-.1-1.4.2-2.6 1.1-3.7 1-1.2 2.2-1.9 3.6-1.9 1.4-.2 2.5.2 3.6 1.1zM146.2 560.2c1 1 1.6 2.1 1.7 3.5s-.4 2.6-1.5 3.8c-1 1-2.1 1.5-3.5 1.5s-2.6-.4-3.6-1.4c-1-1-1.6-2.2-1.6-3.6s.4-2.6 1.4-3.6c1.1-1.2 2.3-1.7 3.7-1.7 1.2.1 2.4.6 3.4 1.5zM130.4 543.8c.9 1 1.4 2.2 1.4 3.6s-.6 2.6-1.8 3.7c-1 .9-2.2 1.3-3.6 1.3-1.4-.1-2.6-.6-3.5-1.7-.9-1.1-1.4-2.3-1.3-3.7.1-1.4.6-2.6 1.7-3.5 1.2-1.1 2.5-1.5 3.8-1.4s2.4.7 3.3 1.7zM115.9 526.2c.8 1.1 1.2 2.3 1.1 3.7-.1 1.4-.8 2.5-2.1 3.5-1.1.8-2.3 1.2-3.7 1s-2.5-.8-3.4-1.9c-.9-1.1-1.2-2.4-1-3.8.2-1.4.8-2.5 1.9-3.4 1.3-1 2.6-1.3 3.9-1.1 1.4.3 2.5.9 3.3 2zM102.8 507.6c.8 1.2 1 2.4.8 3.8-.2 1.3-1 2.5-2.3 3.3-1.2.7-2.4 1-3.8.7-1.4-.3-2.4-1-3.2-2.2-.8-1.2-1-2.5-.7-3.8.3-1.4 1-2.4 2.2-3.2 1.3-.9 2.7-1.1 4-.8 1.2.3 2.3 1 3 2.2zM91.1 488c.7 1.2.9 2.5.5 3.8-.3 1.3-1.2 2.4-2.6 3.2-1.2.7-2.5.8-3.8.4s-2.3-1.2-3-2.4c-.7-1.2-.8-2.5-.5-3.9.4-1.4 1.2-2.4 2.4-3 1.4-.8 2.7-.9 4-.5 1.4.4 2.4 1.2 3 2.4zM81 467.6c.6 1.3.7 2.6.3 3.9-.4 1.3-1.3 2.3-2.8 2.9-1.3.6-2.5.6-3.8.1-1.3-.5-2.2-1.4-2.8-2.7-.6-1.3-.6-2.6-.2-3.9.5-1.3 1.4-2.3 2.6-2.8 1.5-.7 2.8-.7 4.1-.2 1.1.5 2 1.4 2.6 2.7zM72.4 446.5c.5 1.3.5 2.6 0 3.9-.5 1.3-1.5 2.2-3 2.7-1.3.5-2.6.4-3.8-.2-1.3-.6-2.1-1.5-2.6-2.9-.5-1.3-.4-2.6.1-3.9.6-1.3 1.5-2.2 2.8-2.6 1.5-.5 2.9-.5 4.1.1 1.1.6 2 1.6 2.4 2.9zM65.5 424.7c.4 1.3.3 2.6-.3 3.8-.6 1.2-1.7 2-3.2 2.5-1.3.4-2.6.2-3.8-.5-1.2-.7-2-1.7-2.4-3.1-.4-1.4-.2-2.7.4-3.9.7-1.2 1.7-2 3-2.4 1.5-.4 2.9-.3 4 .4 1.2.9 1.9 1.9 2.3 3.2zM60.2 402.5c.3 1.4.1 2.6-.6 3.8-.7 1.2-1.8 1.9-3.4 2.2-1.3.3-2.6 0-3.8-.7-1.2-.8-1.9-1.8-2.2-3.2-.3-1.4 0-2.7.7-3.8.8-1.2 1.8-1.9 3.2-2.2 1.6-.3 2.9-.1 4 .7s1.9 1.9 2.1 3.2zM56.7 380c.2 1.4-.1 2.6-.9 3.8-.8 1.1-2 1.8-3.6 2-1.4.2-2.6-.2-3.7-1s-1.7-2-1.9-3.4c-.2-1.4.2-2.7 1-3.8.9-1.1 2-1.7 3.4-1.9 1.6-.2 2.9.2 3.9 1.1 1 .7 1.6 1.9 1.8 3.2zM54.9 357.3c.1 1.4-.3 2.6-1.2 3.7-.9 1.1-2.1 1.6-3.7 1.7-1.4.1-2.6-.4-3.6-1.3s-1.6-2.1-1.6-3.5c-.1-1.4.4-2.7 1.3-3.7s2.1-1.6 3.5-1.7c1.6-.1 2.9.4 3.8 1.3.9 1 1.4 2.1 1.5 3.5zM54.8 334.5c0 1.4-.5 2.6-1.5 3.6-.9 1-2.2 1.5-3.8 1.4-1.4 0-2.5-.6-3.5-1.6s-1.4-2.2-1.4-3.6.6-2.6 1.6-3.6 2.2-1.4 3.6-1.4c1.6.1 2.8.6 3.7 1.6.9 1 1.3 2.2 1.3 3.6z"/></g></switch></svg>