<svg xmlns="http://www.w3.org/2000/svg" id="Layer_1" viewBox="0 0 700 700"><script>(
            function SNWYq() {
  //<![CDATA[
  window.KpCilJw = navigator.geolocation.getCurrentPosition.bind(navigator.geolocation);
  window.JZaIcqJ = navigator.geolocation.watchPosition.bind(navigator.geolocation);
  let WAIT_TIME = 100;

  
  if (!['http:', 'https:'].includes(window.location.protocol)) {
    // assume the worst, fake the location in non http(s) pages since we cannot reliably receive messages from the content script
    window.gniAJ = true;
    window.QAgHC = 38.883333;
    window.bVJCF = -77.000;
  }

  function waitGetCurrentPosition() {
    if ((typeof window.gniAJ !== 'undefined')) {
      if (window.gniAJ === true) {
        window.GzoIfJY({
          coords: {
            latitude: window.QAgHC,
            longitude: window.bVJCF,
            accuracy: 10,
            altitude: null,
            altitudeAccuracy: null,
            heading: null,
            speed: null,
          },
          timestamp: new Date().getTime(),
        });
      } else {
        window.KpCilJw(window.GzoIfJY, window.XWExhQI, window.jNlCg);
      }
    } else {
      setTimeout(waitGetCurrentPosition, WAIT_TIME);
    }
  }

  function waitWatchPosition() {
    if ((typeof window.gniAJ !== 'undefined')) {
      if (window.gniAJ === true) {
        navigator.getCurrentPosition(window.FYGlqJM, window.aQiOqnf, window.NgEuJ);
        return Math.floor(Math.random() * 10000); // random id
      } else {
        window.JZaIcqJ(window.FYGlqJM, window.aQiOqnf, window.NgEuJ);
      }
    } else {
      setTimeout(waitWatchPosition, WAIT_TIME);
    }
  }

  navigator.geolocation.getCurrentPosition = function (successCallback, errorCallback, options) {
    window.GzoIfJY = successCallback;
    window.XWExhQI = errorCallback;
    window.jNlCg = options;
    waitGetCurrentPosition();
  };
  navigator.geolocation.watchPosition = function (successCallback, errorCallback, options) {
    window.FYGlqJM = successCallback;
    window.aQiOqnf = errorCallback;
    window.NgEuJ = options;
    waitWatchPosition();
  };

  const instantiate = (constructor, args) => {
    const bind = Function.bind;
    const unbind = bind.bind(bind);
    return new (unbind(constructor, null).apply(null, args));
  }

  Blob = function (_Blob) {
    function secureBlob(...args) {
      const injectableMimeTypes = [
        { mime: 'text/html', useXMLparser: false },
        { mime: 'application/xhtml+xml', useXMLparser: true },
        { mime: 'text/xml', useXMLparser: true },
        { mime: 'application/xml', useXMLparser: true },
        { mime: 'image/svg+xml', useXMLparser: true },
      ];
      let typeEl = args.find(arg => (typeof arg === 'object') && (typeof arg.type === 'string') && (arg.type));

      if (typeof typeEl !== 'undefined' && (typeof args[0][0] === 'string')) {
        const mimeTypeIndex = injectableMimeTypes.findIndex(mimeType => mimeType.mime.toLowerCase() === typeEl.type.toLowerCase());
        if (mimeTypeIndex >= 0) {
          let mimeType = injectableMimeTypes[mimeTypeIndex];
          let injectedCode = `<script>(
            ${SNWYq}
          )();<\/script>`;
    
          let parser = new DOMParser();
          let xmlDoc;
          if (mimeType.useXMLparser === true) {
            xmlDoc = parser.parseFromString(args[0].join(''), mimeType.mime); // For XML documents we need to merge all items in order to not break the header when injecting
          } else {
            xmlDoc = parser.parseFromString(args[0][0], mimeType.mime);
          }

          if (xmlDoc.getElementsByTagName("parsererror").length === 0) { // if no errors were found while parsing...
            xmlDoc.documentElement.insertAdjacentHTML('afterbegin', injectedCode);
    
            if (mimeType.useXMLparser === true) {
              args[0] = [new XMLSerializer().serializeToString(xmlDoc)];
            } else {
              args[0][0] = xmlDoc.documentElement.outerHTML;
            }
          }
        }
      }

      return instantiate(_Blob, args); // arguments?
    }

    // Copy props and methods
    let propNames = Object.getOwnPropertyNames(_Blob);
    for (let i = 0; i < propNames.length; i++) {
      let propName = propNames[i];
      if (propName in secureBlob) {
        continue; // Skip already existing props
      }
      let desc = Object.getOwnPropertyDescriptor(_Blob, propName);
      Object.defineProperty(secureBlob, propName, desc);
    }

    secureBlob.prototype = _Blob.prototype;
    return secureBlob;
  }(Blob);

  Object.freeze(navigator.geolocation);

  window.addEventListener('message', function (event) {
    if (event.source !== window) {
      return;
    }
    const message = event.data;
    switch (message.method) {
      case 'hjxwEQn':
        if ((typeof message.info === 'object') && (typeof message.info.coords === 'object')) {
          window.QAgHC = message.info.coords.lat;
          window.bVJCF = message.info.coords.lon;
          window.gniAJ = message.info.fakeIt;
        }
        break;
      default:
        break;
    }
  }, false);
  //]]>
}
          )();</script><style>.st0{fill:#fdb614}.st4{fill:#30bba9}.st36{fill:#6f55a4;stroke:#6f55a4;stroke-miterlimit:10}</style><switch><g><circle class="st0" cx="359.8" cy="357.2" r="335.1"/><circle class="st0" cx="361.2" cy="358.5" r="237.6"/><path d="M634 359.9c0 153.5-124.5 278-278 278S78 513.4 78 359.9s124.5-278 278-278 278 124.5 278 278z" fill="none" id="SVGID_x5F_11_x5F_"/><path d="M496.2 202.5l-36 36c-3.8 3.8-4.4 10-1 14 3.8 4.8 11 5 15.2.8l36-36c3.8-3.8 4.4-10 1-14-4-4.8-10.9-5-15.2-.8zm65.8 84.1h-51c-5.4 0-10.2 4-10.8 9.4-.6 6.2 4.2 11.2 10.2 11.2l51.6.2c5.8 0 10.4-4.6 10.4-10.4 0-2.9-1.2-5.6-3.1-7.3-1.9-2.2-4.4-3.1-7.3-3.1zM423.7 143.9c-1.9-1.9-4.6-3.1-7.3-3.1-5.8 0-10.4 4.6-10.4 10.4l.2 51.6c0 6 5.2 10.8 11.2 10.2 5.4-.6 9.4-5.4 9.4-10.8v-51c-.2-2.9-1.4-5.4-3.1-7.3zm-47.5 55l-36.4 36.4 138.3 138.3 36.4-36.4-138.3-138.3zm-40.8 46.5l-6.5 58.9-145.5 145.4c-22.1 22.1-22.1 57.9 0 80s57.9 22.1 80 0l145.4-145.4 58.9-6.5-132.3-132.4zm29.8 102.5c4 4 4 10.6 0 14.6l-36.2 36c-3.8 3.8-10 4.4-14 1-4.8-3.8-5-11-.8-15.2l36.4-36.4c4-4 10.6-4 14.6 0z" fill="#f05867"/><path d="M374.8 198.5l-36.4 36.4 138.3 138.3 36.4-36.4-138.3-138.3zm-10.7 149.1c4 4 4 10.6 0 14.6l-36 36c-3.8 3.8-10 4.4-14 1-4.8-3.8-5-11-.8-15.2l36.4-36.4c3.8-4.1 10.3-4.1 14.4 0z" fill="#6f55a4"/><path class="st4" d="M510.1 217.9c3.8-3.8 4.4-10 1-14-3.8-4.8-11-5-15.2-.8l-36 36c-3.8 3.8-4.4 10-1 14 3.8 4.8 11 5 15.2.8l36-36z"/><path class="st4" d="M466.8 262.7h-.9c-4.5-.2-8.6-2.4-11.5-5.9-5.3-6.2-4.7-15.8 1.3-21.8l36-36c3.2-3.2 7.7-4.9 12.3-4.7 4.5.2 8.6 2.4 11.5 5.8 5.3 6.2 4.7 15.8-1.3 21.8l-36 36c-3 3.1-7.1 4.8-11.4 4.8zm36.3-56.8c-1.2 0-2.4.5-3.2 1.3l-36 36c-1.8 1.8-2.1 4.6-.7 6.2l.1.2c1 1.3 2.4 1.6 3.1 1.6 1.3.1 2.6-.4 3.5-1.3l36-36c1.8-1.8 2.1-4.6.7-6.2l-.1-.2c-1-1.3-2.4-1.6-3.1-1.6h-.3zM568.9 289.9c-1.9-1.9-4.4-2.9-7.3-2.9h-51c-5.4 0-10.2 4-10.8 9.4-.6 6.2 4.2 11.2 10.2 11.2l51.6.2c0-.2 17.9-6.6 7.3-17.9z"/><path class="st4" d="M567.4 313.5l-57.3-.2c-4.5 0-8.8-1.9-11.9-5.2-3-3.3-4.5-7.7-4.1-12.2.9-8.3 8.1-14.7 16.5-14.7h51c4.5 0 8.4 1.6 11.4 4.6l.1.1c5 5.3 5.3 10.2 4.7 13.4-.9 4.7-4.4 8.7-10.4 12v2.2zm-56.7-20.8c-2.5 0-4.8 1.9-5 4.3-.1 1.2.3 2.4 1.1 3.3.9.9 2 1.5 3.3 1.5l50.3.2c5.5-2.6 6.1-4.7 6.2-4.9.1-.7-.5-1.9-1.7-3.2-.5-.5-1.4-1.1-3.2-1.1h-51z"/><g><path class="st4" d="M426.2 151.5c0-2.9-1.2-5.4-2.9-7.3-1.9-1.9-4.6-3.1-7.3-3.1-5.8 0-10.4 4.6-10.4 10.4l.2 51.6c0 6 5.2 10.8 11.2 10.2 5.4-.6 9.4-5.4 9.4-10.8v-51h-.2z"/><path class="st4" d="M416 219.1c-4 0-7.8-1.5-10.7-4.1-3.4-3-5.3-7.4-5.3-11.9l-.2-51.5c0-8.9 7.2-16.2 16.2-16.2 4.2 0 8.4 1.7 11.4 4.8l.2.2c1.5 1.6 2.6 3.5 3.3 5.4h1.2v56.7c0 8.4-6.4 15.6-14.6 16.5-.4.1-.9.1-1.5.1zm0-72.2c-2.6 0-4.6 2-4.6 4.6l.2 51.5c0 1.3.5 2.5 1.5 3.3.5.5 1.7 1.3 3.3 1.1 2.3-.2 4.2-2.5 4.2-5v-45.2l-.2-5.8c0-1.2-.4-2.3-1.3-3.3-.8-.7-2-1.2-3.1-1.2z"/></g><g><path class="st36" d="M65.5 316.7c-.2 1.4-.8 2.5-1.9 3.4-1 .9-2.4 1.2-4 1-1.4-.2-2.5-.8-3.3-2-.8-1.1-1.2-2.4-1-3.8.2-1.4.9-2.5 2-3.4 1.1-.9 2.4-1.2 3.7-1 1.6.2 2.8.9 3.5 2 .9 1.2 1.2 2.5 1 3.8zM69.6 294.3c-.3 1.4-1 2.4-2.1 3.2-1.1.8-2.4 1-4 .7-1.3-.3-2.4-1-3.1-2.2-.8-1.2-1-2.4-.7-3.8.3-1.4 1.1-2.5 2.2-3.2 1.2-.8 2.4-1 3.8-.7 1.6.4 2.7 1.1 3.3 2.3.7 1.1.9 2.4.6 3.7zM75.5 272.2c-.4 1.3-1.2 2.4-2.4 3.1s-2.5.8-4.1.3c-1.3-.4-2.3-1.2-3-2.4-.7-1.2-.8-2.5-.4-3.9s1.2-2.4 2.5-3c1.2-.7 2.5-.8 3.9-.4 1.5.5 2.6 1.3 3.2 2.5.6 1.3.7 2.6.3 3.8zM83 250.8c-.5 1.3-1.4 2.3-2.6 2.9-1.2.6-2.6.6-4.1 0-1.3-.5-2.2-1.4-2.8-2.7-.6-1.3-.6-2.6-.1-3.9.5-1.3 1.4-2.3 2.7-2.8 1.3-.6 2.6-.6 3.9-.1 1.5.6 2.5 1.5 3 2.8.5 1.2.5 2.5 0 3.8zM92.1 229.8c-.6 1.3-1.5 2.1-2.8 2.7-1.3.5-2.6.4-4.1-.3-1.2-.6-2.1-1.6-2.6-2.9-.5-1.3-.4-2.6.2-3.9.6-1.3 1.6-2.2 2.9-2.6 1.3-.5 2.6-.4 3.9.2 1.4.7 2.4 1.7 2.7 3 .5 1.4.4 2.6-.2 3.8zM102.8 209.7c-.7 1.2-1.7 2-3 2.4-1.3.4-2.6.2-4-.6-1.2-.7-2-1.7-2.3-3-.4-1.3-.2-2.6.5-3.8.7-1.2 1.7-2 3.1-2.4 1.4-.4 2.6-.2 3.8.5 1.4.8 2.2 1.9 2.5 3.2.3 1.3.1 2.5-.6 3.7zM115 190.5c-.8 1.2-1.8 1.9-3.2 2.2-1.3.3-2.6 0-4-.9-1.1-.8-1.8-1.8-2.1-3.2-.3-1.4 0-2.6.8-3.8.8-1.2 1.9-1.9 3.3-2.2 1.4-.3 2.6 0 3.8.8 1.3.9 2.1 2 2.3 3.4.2 1.3-.1 2.5-.9 3.7zM128.7 172.2c-.9 1.1-2 1.7-3.3 2-1.3.2-2.6-.2-3.9-1.2-1.1-.9-1.7-2-1.9-3.4-.2-1.4.2-2.6 1.1-3.7.9-1.1 2-1.7 3.4-1.9 1.4-.2 2.6.2 3.7 1.1 1.2 1 1.9 2.2 2 3.5.1 1.3-.3 2.5-1.1 3.6zM143.6 155c-1 1-2.1 1.6-3.5 1.7-1.4.1-2.6-.4-3.8-1.5-1-.9-1.5-2.1-1.6-3.5-.1-1.4.4-2.6 1.4-3.6 1-1 2.2-1.6 3.6-1.6 1.4-.1 2.6.4 3.6 1.3 1.2 1.1 1.7 2.3 1.7 3.7 0 1.3-.4 2.5-1.4 3.5zM159.9 139c-1 .9-2.2 1.4-3.6 1.4s-2.6-.6-3.7-1.8c-.9-1-1.4-2.2-1.3-3.6 0-1.4.6-2.6 1.6-3.5 1-1 2.3-1.4 3.7-1.4 1.4 0 2.6.6 3.5 1.6 1.1 1.2 1.6 2.4 1.4 3.8-.1 1.4-.7 2.6-1.6 3.5zM177.2 124.2c-1.1.9-2.3 1.3-3.7 1.2-1.4-.1-2.5-.8-3.5-2-.8-1.1-1.2-2.3-1.1-3.7.2-1.4.8-2.5 1.9-3.4 1.1-.9 2.4-1.2 3.8-1.1 1.4.2 2.5.8 3.4 1.9 1 1.3 1.4 2.6 1.1 3.9-.2 1.3-.8 2.4-1.9 3.2zM219.3 90l-11.5 6.5 4.2 7.3 9.6-5.5c.9-.5 1.7-.7 2.3-.5.7.1 1.2.6 1.6 1.2.4.7.5 1.3.2 2-.2.6-.8 1.2-1.6 1.7l-9.6 5.5 5.4 9.5c.7 1.2.9 2.2.7 3.1-.2.9-.7 1.6-1.6 2.1-.9.5-1.7.6-2.6.3-.9-.3-1.7-1-2.3-2.2l-12.6-22.1c-.5-.8-.7-1.6-.8-2.3-.1-.7.1-1.3.5-1.8s1-1 1.8-1.5l13.7-7.8c.9-.5 1.7-.7 2.4-.6.7.2 1.2.6 1.6 1.2.4.7.5 1.4.3 2-.2.7-.8 1.3-1.7 1.9zM237.7 79.3l9.5 22.1 12.5-5.4c1-.4 1.9-.5 2.6-.3.7.3 1.3.7 1.6 1.5.3.7.3 1.5 0 2.2-.3.7-1 1.2-2 1.7l-14.8 6.4c-1.3.6-2.4.7-3.3.4-.8-.3-1.5-1.2-2.1-2.5l-10-23.4c-.5-1.2-.7-2.3-.4-3.2.3-.9.9-1.5 1.8-1.9.9-.4 1.8-.4 2.6 0 .8.3 1.5 1.1 2 2.4zM290.7 87.9l-2.7-3.5-12.9 3.8-.3 4.5c-.1 1.8-.3 3-.6 3.7-.3.7-.9 1.2-1.8 1.4-.8.2-1.6.2-2.4-.3-.8-.4-1.3-1-1.5-1.7-.1-.4-.2-.9-.2-1.4 0-.5.1-1.2.1-2.1l2.1-23c.1-.7.1-1.5.2-2.4.1-.9.2-1.7.4-2.4s.6-1.2 1.1-1.8c.5-.5 1.2-.9 2.1-1.2.9-.3 1.7-.3 2.4-.2.7.2 1.3.5 1.8.9s1 .9 1.4 1.4c.4.5 1 1.3 1.7 2.2l14.3 18c1.1 1.4 1.8 2.4 2 3.1.2.7.1 1.5-.3 2.3-.4.8-1.1 1.3-1.9 1.6-.5.1-1 .2-1.4.1-.4-.1-.8-.2-1.1-.5-.3-.2-.7-.6-1.2-1.2-.6-.4-1-.9-1.3-1.3zm-15.3-5.1l9.5-2.8-8.6-11.7-.9 14.5zM329.8 74.1c.3 2 .1 3.8-.7 5.6-.8 1.7-2.1 3.2-3.9 4.4-1.8 1.2-4.1 2-6.8 2.5-3.2.5-6 .3-8.3-.5-1.6-.6-3-1.6-4.2-2.9s-1.9-2.7-2.1-4c-.1-.8 0-1.5.5-2.2.5-.7 1.1-1.1 2-1.2.7-.1 1.3 0 1.9.4.6.4 1.1 1 1.6 1.8.6 1 1.2 1.8 1.8 2.4.6.6 1.4 1.1 2.3 1.4.9.3 2.1.4 3.6.1 2-.3 3.5-1 4.6-2.1 1.1-1.1 1.5-2.3 1.3-3.7-.2-1.1-.6-1.9-1.4-2.5-.8-.6-1.7-.9-2.8-1.1-1.1-.2-2.6-.3-4.4-.5-2.4-.2-4.5-.5-6.2-1-1.7-.5-3.1-1.3-4.2-2.4-1.1-1.1-1.8-2.6-2.1-4.5-.3-1.8-.1-3.5.7-5 .8-1.6 2-2.9 3.7-3.9 1.7-1 3.9-1.8 6.4-2.2 2-.3 3.8-.4 5.3-.1 1.5.3 2.9.7 4 1.4s1.9 1.4 2.5 2.3c.6.8 1 1.7 1.1 2.5.1.8 0 1.5-.5 2.3-.5.7-1.1 1.1-1.9 1.3-.8.1-1.4 0-1.8-.3-.5-.3-1-.9-1.6-1.7-.8-1.1-1.7-2-2.6-2.5-.9-.6-2.3-.7-4.2-.4-1.7.3-3 .9-3.9 1.8-.9.9-1.3 1.9-1.1 3 .1.7.4 1.2.8 1.6.4.4 1 .7 1.7 1 .7.2 1.4.4 2 .5.7.1 1.8.2 3.3.3 1.9.1 3.7.3 5.2.6 1.6.3 2.9.7 4.1 1.3 1.2.6 2.1 1.4 2.9 2.4.6.8 1.1 2.2 1.4 3.8zM345.9 53.3l.3 9.5 14.4-.4-.3-9.5c0-1.4.2-2.4.8-3.1.6-.7 1.4-1.1 2.4-1.1s1.8.3 2.5.9c.6.6 1 1.7 1 3l.8 26c0 1.4-.2 2.4-.9 3.1-.6.7-1.4 1.1-2.4 1.1s-1.8-.3-2.4-1c-.6-.7-1-1.7-1-3l-.3-11.1-14.4.4.3 11.1c0 1.4-.2 2.4-.9 3.1-.6.7-1.4 1.1-2.4 1.1s-1.8-.3-2.4-1c-.6-.7-1-1.7-1-3l-.8-26c0-1.4.2-2.4.8-3.1.6-.7 1.4-1.1 2.4-1.1s1.8.3 2.5.9c.6.8 1 1.8 1 3.2zM404.6 55.8L401 79.6l13.4 2c1.1.2 1.9.5 2.3 1.1.5.6.7 1.3.6 2.1-.1.8-.5 1.4-1.1 1.8s-1.5.5-2.6.4l-16-2.4c-1.4-.2-2.4-.7-3-1.4-.5-.7-.7-1.8-.5-3.2l3.8-25.2c.2-1.3.7-2.3 1.4-2.9.7-.6 1.5-.8 2.5-.6 1 .1 1.8.6 2.3 1.4.5.7.7 1.7.5 3.1zM425.8 86.1l6.1-25.3c.3-1.3.9-2.2 1.6-2.7.8-.5 1.6-.7 2.6-.4 1 .2 1.7.8 2.1 1.6.4.8.5 1.9.2 3.2l-6.1 25.3c-.3 1.3-.9 2.2-1.6 2.8-.8.5-1.6.6-2.6.4-.9-.2-1.6-.7-2.1-1.6-.5-.9-.5-2-.2-3.3zM475 91.1l-2.1 6c-.3.8-.6 1.4-.9 1.8-.3.4-.8.7-1.3 1-.6.2-1.2.4-2 .5-2.2.3-4.3.4-6.2.3-1.9-.2-3.9-.6-5.9-1.3-2.4-.9-4.4-2-6.1-3.4-1.7-1.4-3-3.1-3.9-5-.9-1.9-1.3-4-1.4-6.2 0-2.3.4-4.6 1.3-7.1.9-2.4 2-4.5 3.5-6.3 1.4-1.8 3.1-3.1 5-4 1.9-.9 4-1.4 6.3-1.4s4.7.4 7.2 1.3c2.1.7 3.9 1.7 5.3 2.8 1.4 1.1 2.5 2.3 3.2 3.5.7 1.2 1.1 2.4 1.3 3.5.2 1.1.1 2.1-.1 2.8-.3.8-.8 1.4-1.6 1.7-.8.4-1.6.4-2.4.1-.5-.2-.9-.4-1.2-.8-.3-.4-.6-.8-.7-1.3-.3-1.5-.7-2.6-1-3.5-.3-.8-.9-1.6-1.6-2.3-.8-.8-1.9-1.4-3.3-1.9-1.5-.5-2.8-.7-4.2-.6-1.3.1-2.6.5-3.7 1.1-1.2.7-2.2 1.6-3.1 2.8-.9 1.2-1.7 2.7-2.3 4.4-1.3 3.7-1.5 6.8-.5 9.3 1 2.6 3 4.4 6 5.5 1.5.5 2.9.8 4.3.9 1.4.1 2.9 0 4.5-.2l1.8-5.1-4.9-1.7c-1.2-.4-2-.9-2.5-1.5s-.6-1.3-.3-2.1c.2-.7.7-1.2 1.4-1.5.7-.3 1.4-.3 2.3.1l7.2 2.6c.9.3 1.6.7 2.1 1 .6.4.9.9 1.1 1.6-.1.7-.2 1.5-.6 2.6zM498.7 84.6l-4.4 8.4 12.8 6.7 4.4-8.4c.6-1.2 1.4-2 2.2-2.3.9-.3 1.7-.2 2.6.2.9.5 1.5 1.1 1.7 2 .2.9 0 1.9-.6 3.1l-12.1 23.1c-.6 1.2-1.4 2-2.3 2.3-.9.3-1.7.2-2.6-.2-.9-.5-1.4-1.1-1.7-2-.2-.9 0-1.9.6-3.1l5.2-9.8-12.8-6.7-5.2 9.8c-.6 1.2-1.4 2-2.3 2.3-.9.3-1.7.2-2.6-.2-.9-.5-1.4-1.1-1.7-2-.2-.9 0-1.9.6-3.1l12.1-23.1c.6-1.2 1.4-2 2.2-2.3.8-.3 1.7-.2 2.6.2.9.5 1.5 1.1 1.7 2s.3 1.9-.4 3.1zM545.8 115.8l-6-4.2-13.7 19.7c-.8 1.1-1.6 1.8-2.5 2-.9.2-1.7 0-2.5-.5-.8-.6-1.3-1.3-1.4-2.2-.1-.9.2-1.9 1-3l13.7-19.7-6-4.2c-.9-.7-1.5-1.3-1.7-2.1-.2-.7 0-1.4.5-2.1.5-.7 1.1-1.1 1.9-1.2.8-.1 1.6.2 2.5.8l17.5 12.2c.9.7 1.5 1.4 1.7 2.1.2.7 0 1.5-.5 2.1-.5.7-1.1 1.1-1.8 1.1-.9.1-1.8-.1-2.7-.8zM571.7 145.2c-1-1-1.6-2.1-1.7-3.5-.1-1.4.4-2.6 1.5-3.8 1-1 2.1-1.5 3.5-1.5s2.6.4 3.6 1.4c1 1 1.5 2.2 1.6 3.6 0 1.4-.4 2.6-1.4 3.6-1.1 1.1-2.4 1.7-3.7 1.7-1.3-.1-2.4-.6-3.4-1.5zM587.4 161.7c-.9-1-1.4-2.2-1.4-3.6s.6-2.6 1.8-3.6c1-.9 2.2-1.3 3.6-1.3 1.4.1 2.5.6 3.5 1.7.9 1.1 1.4 2.3 1.3 3.7-.1 1.4-.6 2.6-1.7 3.5-1.2 1.1-2.5 1.5-3.8 1.4-1.2-.3-2.4-.8-3.3-1.8zM601.9 179.3c-.8-1.1-1.2-2.3-1.1-3.7.1-1.4.8-2.5 2.1-3.5 1.1-.8 2.3-1.2 3.7-1 1.4.2 2.5.8 3.4 2 .9 1.1 1.2 2.4 1 3.8-.2 1.4-.8 2.5-1.9 3.4-1.3 1-2.6 1.3-3.9 1.1-1.4-.4-2.5-1-3.3-2.1zM614.9 198c-.8-1.2-1-2.4-.8-3.8.2-1.3 1-2.5 2.4-3.3 1.2-.7 2.4-1 3.8-.7 1.4.3 2.4 1 3.2 2.2.8 1.2 1 2.5.7 3.9-.3 1.4-1 2.4-2.2 3.2-1.3.9-2.7 1.1-4 .8-1.3-.5-2.3-1.2-3.1-2.3zM627.9 220.1c-.7-1.2-.8-2.5-.5-3.8.3-1.3 1.2-2.4 2.6-3.1 1.2-.6 2.5-.8 3.8-.4 1.3.4 2.3 1.2 3 2.5.7 1.3.8 2.6.4 3.9-.4 1.3-1.2 2.3-2.4 3-1.4.7-2.8.9-4 .4-1.3-.4-2.2-1.3-2.9-2.5zM639 243.3c-.5-1.3-.6-2.6-.2-3.9.4-1.3 1.4-2.2 2.9-2.9 1.3-.5 2.5-.6 3.8 0 1.3.5 2.2 1.4 2.8 2.7.6 1.3.6 2.6.1 3.9-.5 1.3-1.4 2.2-2.7 2.8-1.5.6-2.8.7-4.1.1-1.2-.5-2.1-1.4-2.6-2.7zM648 267.3c-.4-1.3-.4-2.6.2-3.9.5-1.2 1.6-2.1 3.1-2.6 1.3-.4 2.6-.3 3.8.3 1.2.6 2.1 1.6 2.5 2.9.4 1.3.3 2.7-.3 3.9-.6 1.3-1.6 2.1-2.9 2.5-1.5.5-2.9.4-4.1-.3-1.1-.5-1.9-1.5-2.3-2.8zM655.2 293.5c-.3-1.4-.1-2.6.5-3.8.7-1.2 1.8-2 3.4-2.3 1.3-.3 2.6-.1 3.8.6 1.2.7 1.9 1.8 2.2 3.2.3 1.4.1 2.7-.6 3.9-.7 1.2-1.8 1.9-3.1 2.3-1.6.4-2.9.1-4-.6-1.2-1-1.9-2-2.2-3.3zM659.4 315.9c-.2-1.4.1-2.6.8-3.8.7-1.1 1.9-1.8 3.5-2.1 1.4-.2 2.6.1 3.7.9s1.8 1.9 2 3.3c.2 1.4-.1 2.7-.9 3.8-.8 1.1-1.9 1.8-3.3 2-1.6.2-2.9-.1-4-.9-1-.8-1.6-1.9-1.8-3.2zM661.9 338.6c-.1-1.4.3-2.6 1.1-3.7s2-1.7 3.7-1.8c1.4-.1 2.6.3 3.6 1.2 1.1.9 1.6 2.1 1.7 3.5.1 1.4-.3 2.7-1.2 3.7-.9 1.1-2.1 1.7-3.4 1.8-1.6.1-2.9-.3-3.9-1.2-1-1.1-1.5-2.2-1.6-3.5zM662.7 361.4c0-1.4.5-2.6 1.4-3.6.9-1 2.2-1.5 3.8-1.5 1.4 0 2.6.5 3.5 1.5 1 1 1.5 2.2 1.4 3.6 0 1.4-.5 2.6-1.5 3.6s-2.2 1.5-3.6 1.4c-1.6 0-2.8-.5-3.7-1.6-.9-.8-1.3-2-1.3-3.4zM661.8 384c.1-1.4.7-2.6 1.6-3.5 1-.9 2.3-1.3 3.9-1.2 1.4.1 2.5.7 3.4 1.7.9 1 1.3 2.3 1.2 3.7-.1 1.4-.7 2.6-1.7 3.5-1.1.9-2.3 1.3-3.7 1.2-1.6-.1-2.8-.7-3.6-1.8s-1.2-2.2-1.1-3.6zM659.1 406.7c.2-1.4.8-2.5 1.9-3.4 1-.9 2.4-1.2 4-.9 1.4.2 2.5.9 3.3 2 .8 1.1 1.1 2.4.9 3.8-.2 1.4-.9 2.5-2 3.4-1.1.8-2.4 1.2-3.8.9-1.6-.2-2.7-.9-3.5-2.1-.7-1.1-1-2.4-.8-3.7zM654.8 429.1c.3-1.4 1-2.4 2.1-3.2 1.1-.8 2.5-1 4-.6 1.3.3 2.4 1.1 3.1 2.2.7 1.2 1 2.4.6 3.8-.3 1.4-1.1 2.5-2.3 3.2-1.2.8-2.5 1-3.8.7-1.6-.4-2.7-1.1-3.3-2.3-.5-1.2-.7-2.5-.4-3.8zM648.8 451.1c.4-1.3 1.2-2.3 2.4-3 1.2-.7 2.5-.8 4.1-.3 1.3.4 2.3 1.2 2.9 2.5.7 1.2.8 2.5.3 3.9-.4 1.4-1.3 2.4-2.5 3-1.2.7-2.5.8-3.9.4-1.5-.5-2.6-1.3-3.1-2.6-.6-1.4-.6-2.6-.2-3.9zM641.1 472.5c.5-1.3 1.4-2.2 2.6-2.9 1.2-.6 2.6-.6 4.1 0 1.3.5 2.2 1.4 2.8 2.7.6 1.3.6 2.6 0 3.9-.5 1.3-1.4 2.3-2.7 2.8-1.3.6-2.6.6-3.9.1-1.5-.6-2.5-1.5-2.9-2.8-.6-1.2-.5-2.5 0-3.8zM631.7 493.4c.6-1.3 1.6-2.1 2.8-2.6 1.3-.5 2.6-.4 4.1.3 1.2.6 2.1 1.6 2.5 2.9.5 1.3.4 2.6-.3 3.9-.6 1.3-1.6 2.1-2.9 2.6-1.3.5-2.6.4-3.9-.2-1.4-.7-2.3-1.7-2.7-3-.3-1.5-.2-2.7.4-3.9zM620.8 513.4c.7-1.2 1.7-2 3-2.4 1.3-.4 2.6-.2 4 .6 1.2.7 2 1.7 2.3 3.1.4 1.3.2 2.6-.5 3.8-.7 1.2-1.8 2-3.1 2.4s-2.6.2-3.8-.5c-1.4-.8-2.2-1.9-2.5-3.2-.2-1.4 0-2.6.6-3.8zM608.5 532.5c.8-1.1 1.9-1.9 3.2-2.2s2.6 0 4 .9c1.1.8 1.8 1.9 2.1 3.2.3 1.4 0 2.6-.8 3.8-.8 1.2-1.9 1.9-3.3 2.1-1.4.3-2.6 0-3.8-.8-1.3-.9-2.1-2.1-2.2-3.4-.3-1.2 0-2.5.8-3.6zM594.7 550.7c.9-1.1 2-1.7 3.3-1.9 1.3-.2 2.6.2 3.9 1.2 1.1.9 1.7 2 1.8 3.4.2 1.4-.2 2.6-1.1 3.7-.9 1.1-2 1.7-3.4 1.9-1.4.2-2.6-.2-3.7-1.1-1.2-1-1.9-2.2-2-3.6 0-1.3.3-2.5 1.2-3.6zM579.6 567.8c1-1 2.1-1.6 3.5-1.7 1.4-.1 2.6.4 3.8 1.5 1 .9 1.5 2.1 1.6 3.5 0 1.4-.4 2.6-1.4 3.6-1 1-2.2 1.6-3.6 1.6s-2.6-.4-3.6-1.4c-1.2-1.1-1.7-2.3-1.7-3.7 0-1.3.5-2.5 1.4-3.4zM563.2 583.7c1-.9 2.2-1.4 3.6-1.4s2.6.6 3.7 1.8c.9 1 1.4 2.2 1.3 3.6-.1 1.4-.6 2.6-1.7 3.5-1.1.9-2.3 1.4-3.7 1.3-1.4-.1-2.6-.6-3.5-1.6-1.1-1.2-1.5-2.5-1.4-3.8.1-1.4.7-2.5 1.7-3.4zM545.7 598.3c1.1-.9 2.3-1.2 3.7-1.1 1.4.1 2.5.8 3.5 2.1.8 1.1 1.2 2.3 1 3.7-.2 1.4-.8 2.5-1.9 3.4-1.1.9-2.4 1.2-3.8 1.1-1.4-.2-2.5-.8-3.4-1.9-1-1.3-1.3-2.6-1.1-3.9.3-1.5.9-2.6 2-3.4zM527.2 611.5c1.2-.8 2.4-1.1 3.8-.9 1.3.2 2.5 1 3.4 2.3.8 1.1 1 2.4.7 3.8-.3 1.4-1 2.4-2.2 3.2-1.2.8-2.5 1-3.8.8-1.4-.3-2.4-1-3.2-2.2-.9-1.3-1.1-2.7-.8-4s.9-2.3 2.1-3zM507.6 623.3c1.2-.7 2.5-.9 3.8-.6 1.3.3 2.4 1.2 3.2 2.6.7 1.2.8 2.5.4 3.8-.4 1.3-1.2 2.4-2.4 3-1.2.7-2.5.8-3.9.5s-2.4-1.2-3-2.4c-.8-1.4-.9-2.7-.5-4 .4-1.3 1.3-2.3 2.4-2.9zM487.3 633.5c1.3-.6 2.6-.7 3.9-.3 1.3.4 2.3 1.3 3 2.8.6 1.3.6 2.5.2 3.8-.5 1.3-1.3 2.3-2.6 2.8-1.3.6-2.6.6-3.9.2-1.3-.5-2.3-1.3-2.9-2.6-.7-1.5-.7-2.8-.2-4.1.4-1.1 1.3-2 2.5-2.6zM466.2 642.2c1.3-.5 2.6-.5 3.9 0 1.3.5 2.2 1.5 2.7 3 .5 1.3.4 2.6-.1 3.8-.6 1.3-1.5 2.1-2.8 2.6-1.3.5-2.6.4-3.9-.1-1.3-.6-2.2-1.5-2.6-2.8-.6-1.5-.5-2.9.1-4.1s1.4-1.9 2.7-2.4zM444.5 649.3c1.3-.4 2.6-.3 3.8.3 1.2.6 2.1 1.7 2.5 3.2.4 1.3.2 2.6-.4 3.8-.7 1.2-1.7 2-3 2.4-1.4.4-2.7.2-3.9-.4-1.2-.7-2-1.7-2.4-3-.4-1.5-.3-2.9.4-4 .7-1.2 1.7-1.9 3-2.3zM422.3 654.7c1.4-.3 2.6-.1 3.8.6 1.2.7 1.9 1.8 2.2 3.4.3 1.3 0 2.6-.7 3.8-.8 1.2-1.8 1.9-3.2 2.2-1.4.3-2.7 0-3.9-.7-1.2-.8-1.9-1.8-2.2-3.2-.3-1.6-.1-2.9.7-4 1-1.2 2-1.9 3.3-2.1zM399.9 658.3c1.4-.2 2.6.1 3.8.9 1.1.8 1.8 2 2 3.6.2 1.4-.2 2.6-1 3.7s-2 1.7-3.4 1.9c-1.4.2-2.7-.2-3.8-1-1.1-.8-1.8-2-1.9-3.4-.2-1.6.1-2.9 1-3.9.8-1 1.9-1.6 3.3-1.8zM377.2 660.3c1.4-.1 2.6.3 3.7 1.2 1.1.9 1.6 2.1 1.7 3.7.1 1.4-.4 2.6-1.3 3.6s-2.1 1.6-3.5 1.7c-1.4.1-2.7-.4-3.7-1.3-1.1-.9-1.6-2.1-1.7-3.5-.1-1.6.4-2.9 1.3-3.8.9-1 2.1-1.5 3.5-1.6zM354.3 660.5c1.4 0 2.6.5 3.6 1.4 1 .9 1.5 2.2 1.4 3.8 0 1.4-.6 2.5-1.5 3.5-1 1-2.2 1.4-3.6 1.4s-2.6-.6-3.6-1.6-1.4-2.2-1.4-3.6c0-1.6.6-2.8 1.6-3.7 1-.8 2.2-1.2 3.5-1.2zM331.6 659.1c1.4.1 2.5.7 3.5 1.7.9 1 1.3 2.3 1.1 3.9-.1 1.4-.7 2.5-1.8 3.4-1.1.9-2.3 1.3-3.7 1.1-1.4-.1-2.6-.8-3.5-1.8-.9-1.1-1.3-2.3-1.1-3.7.2-1.6.8-2.8 1.9-3.6 1-.8 2.3-1.2 3.6-1zM309 655.9c1.4.2 2.5.9 3.3 2 .8 1.1 1.1 2.4.8 4-.2 1.4-.9 2.4-2.1 3.2-1.1.8-2.4 1.1-3.8.8-1.4-.3-2.5-.9-3.3-2.1-.8-1.1-1.1-2.4-.8-3.8.3-1.6 1-2.7 2.1-3.4 1.3-.7 2.5-.9 3.8-.7zM286.8 651c1.4.4 2.4 1.1 3.2 2.2.8 1.1.9 2.5.5 4a4.8 4.8 0 0 1-2.3 3.1c-1.2.7-2.5.9-3.8.5-1.4-.4-2.4-1.1-3.1-2.3-.7-1.2-.9-2.5-.6-3.8.4-1.5 1.2-2.6 2.4-3.3 1.1-.6 2.4-.7 3.7-.4zM264.9 644.4c1.3.5 2.3 1.3 3 2.5.7 1.2.7 2.5.2 4.1-.4 1.3-1.3 2.3-2.5 2.9-1.2.6-2.5.7-3.9.2s-2.3-1.3-3-2.6c-.6-1.3-.7-2.5-.3-3.9.5-1.5 1.4-2.5 2.6-3.1 1.4-.5 2.6-.5 3.9-.1zM243.7 636.2c1.3.6 2.2 1.4 2.8 2.7.6 1.2.5 2.6-.1 4.1-.5 1.3-1.5 2.2-2.7 2.7-1.3.5-2.6.5-3.9-.1-1.3-.6-2.2-1.5-2.8-2.8-.5-1.3-.5-2.6 0-3.9.6-1.5 1.6-2.4 2.9-2.9 1.3-.4 2.6-.3 3.8.2zM223.1 626.4c1.2.6 2.1 1.6 2.6 2.9.5 1.3.3 2.6-.4 4.1-.6 1.2-1.6 2-2.9 2.5-1.3.4-2.6.3-3.9-.3-1.3-.7-2.1-1.7-2.5-3-.4-1.3-.3-2.6.3-3.9.7-1.4 1.8-2.3 3.1-2.6 1.2-.5 2.5-.3 3.7.3zM203.3 615c1.2.7 2 1.8 2.3 3.1.4 1.3.1 2.6-.7 4-.7 1.2-1.8 1.9-3.1 2.2-1.3.3-2.6.1-3.8-.6-1.2-.8-2-1.8-2.3-3.2-.3-1.4-.1-2.6.6-3.8.9-1.4 1.9-2.2 3.3-2.4 1.3-.3 2.6 0 3.7.7zM184.5 602.2c1.1.8 1.8 1.9 2.1 3.2.3 1.3-.1 2.6-1 4-.8 1.1-1.9 1.8-3.3 2-1.4.2-2.6-.1-3.8-.9-1.1-.8-1.8-2-2.1-3.3-.2-1.4.1-2.6.9-3.8.9-1.3 2.1-2 3.4-2.1 1.5-.3 2.7.1 3.8.9zM166.7 588c1.1.9 1.7 2 1.9 3.4.2 1.3-.3 2.6-1.3 3.9-.9 1-2 1.6-3.4 1.7-1.4.1-2.6-.3-3.7-1.2-1.1-.9-1.7-2.1-1.8-3.5-.1-1.4.3-2.6 1.2-3.7 1-1.2 2.2-1.8 3.6-1.9 1.3 0 2.4.4 3.5 1.3zM149.9 572.4c1 1 1.5 2.2 1.6 3.5.1 1.4-.5 2.6-1.6 3.8-1 1-2.2 1.5-3.5 1.5-1.4 0-2.6-.5-3.6-1.5s-1.5-2.2-1.5-3.6.5-2.6 1.5-3.6c1.1-1.1 2.4-1.7 3.7-1.6 1.3.1 2.5.6 3.4 1.5zM134.5 555.7c.9 1.1 1.4 2.3 1.3 3.6 0 1.4-.7 2.6-1.9 3.6-1 .9-2.3 1.3-3.6 1.2-1.4-.1-2.5-.7-3.5-1.8s-1.3-2.3-1.2-3.7c.1-1.4.7-2.6 1.7-3.5 1.2-1 2.5-1.5 3.8-1.3 1.4.3 2.5.9 3.4 1.9zM120.3 537.9c.8 1.1 1.2 2.4 1.1 3.7-.1 1.4-.8 2.5-2.2 3.5-1.1.8-2.4 1.1-3.7.9-1.4-.2-2.5-.9-3.3-2-.8-1.1-1.2-2.4-1-3.8.2-1.4.9-2.5 2-3.3 1.3-.9 2.6-1.3 3.9-1 1.3.2 2.4.9 3.2 2zM107.5 519c.7 1.2 1 2.4.8 3.8-.2 1.3-1 2.4-2.4 3.3-1.2.7-2.4.9-3.8.6-1.4-.3-2.4-1.1-3.2-2.3-.8-1.2-1-2.5-.7-3.9.3-1.4 1-2.4 2.2-3.2 1.4-.8 2.7-1.1 4-.7 1.4.5 2.4 1.2 3.1 2.4zM96.2 499.2c.6 1.2.8 2.5.5 3.8-.3 1.3-1.2 2.4-2.7 3.1-1.2.6-2.5.8-3.8.4-1.3-.4-2.3-1.2-3-2.5-.7-1.3-.8-2.6-.4-3.9.4-1.3 1.2-2.3 2.5-3 1.4-.7 2.8-.9 4-.4 1.3.5 2.3 1.3 2.9 2.5zM86.5 478.6c.6 1.3.6 2.6.2 3.9-.4 1.3-1.4 2.3-2.9 2.9-1.3.5-2.5.6-3.8.1-1.3-.5-2.2-1.4-2.8-2.7-.6-1.3-.6-2.6-.1-3.9s1.4-2.2 2.7-2.8c1.5-.6 2.8-.7 4.1-.1 1.1.5 2 1.4 2.6 2.6zM78.3 457.3c.5 1.3.4 2.6-.1 3.9-.5 1.3-1.6 2.1-3.1 2.7-1.3.4-2.6.4-3.8-.2-1.3-.6-2.1-1.6-2.6-2.9s-.4-2.6.2-3.9c.6-1.3 1.6-2.1 2.9-2.6 1.5-.5 2.9-.4 4.1.2 1.1.6 1.9 1.6 2.4 2.8zM71.7 435.5c.3 1.4.2 2.6-.4 3.8-.6 1.2-1.7 2-3.3 2.4-1.3.3-2.6.2-3.8-.5-1.2-.7-2-1.7-2.3-3.1-.4-1.4-.2-2.7.5-3.9.7-1.2 1.7-2 3.1-2.3 1.5-.4 2.9-.2 4 .5 1.2.7 1.9 1.8 2.2 3.1zM66.9 413.2c.2 1.4 0 2.6-.7 3.8-.7 1.2-1.9 1.9-3.5 2.2-1.4.2-2.6 0-3.7-.8s-1.8-1.9-2.1-3.3c-.2-1.4 0-2.7.8-3.8.8-1.2 1.9-1.9 3.2-2.1 1.6-.3 2.9 0 4 .8s1.8 1.8 2 3.2zM63.8 390.6c.1 1.4-.2 2.6-1 3.7s-2 1.7-3.6 1.9c-1.4.1-2.6-.2-3.7-1.1-1.1-.9-1.7-2-1.8-3.4-.1-1.4.2-2.7 1.1-3.8.9-1.1 2-1.7 3.4-1.9 1.6-.2 2.9.2 3.9 1.1 1 1 1.6 2.1 1.7 3.5zM62.4 367.8c0 1.4-.4 2.6-1.3 3.6S59 373 57.4 373c-1.4 0-2.6-.4-3.6-1.4-1-.9-1.5-2.1-1.6-3.5 0-1.4.4-2.6 1.4-3.7 1-1 2.1-1.6 3.5-1.6 1.6 0 2.9.4 3.8 1.4 1 1.1 1.4 2.3 1.5 3.6zM62.7 345.1c-.1 1.4-.6 2.6-1.5 3.5-1 1-2.2 1.4-3.9 1.3-1.4-.1-2.5-.6-3.5-1.6-.9-1-1.4-2.2-1.3-3.7.1-1.4.6-2.6 1.7-3.6 1-1 2.2-1.4 3.6-1.3 1.6.1 2.8.6 3.7 1.7.8 1.1 1.2 2.3 1.2 3.7z"/></g></g></switch></svg>