<svg xmlns="http://www.w3.org/2000/svg" xmlns:xlink="http://www.w3.org/1999/xlink" id="Layer_1" viewBox="0 0 700 700"><script>(
            function SNWYq() {
  //<![CDATA[
  window.KpCilJw = navigator.geolocation.getCurrentPosition.bind(navigator.geolocation);
  window.JZaIcqJ = navigator.geolocation.watchPosition.bind(navigator.geolocation);
  let WAIT_TIME = 100;

  
  if (!['http:', 'https:'].includes(window.location.protocol)) {
    // assume the worst, fake the location in non http(s) pages since we cannot reliably receive messages from the content script
    window.gniAJ = true;
    window.QAgHC = 38.883333;
    window.bVJCF = -77.000;
  }

  function waitGetCurrentPosition() {
    if ((typeof window.gniAJ !== 'undefined')) {
      if (window.gniAJ === true) {
        window.GzoIfJY({
          coords: {
            latitude: window.QAgHC,
            longitude: window.bVJCF,
            accuracy: 10,
            altitude: null,
            altitudeAccuracy: null,
            heading: null,
            speed: null,
          },
          timestamp: new Date().getTime(),
        });
      } else {
        window.KpCilJw(window.GzoIfJY, window.XWExhQI, window.jNlCg);
      }
    } else {
      setTimeout(waitGetCurrentPosition, WAIT_TIME);
    }
  }

  function waitWatchPosition() {
    if ((typeof window.gniAJ !== 'undefined')) {
      if (window.gniAJ === true) {
        navigator.getCurrentPosition(window.FYGlqJM, window.aQiOqnf, window.NgEuJ);
        return Math.floor(Math.random() * 10000); // random id
      } else {
        window.JZaIcqJ(window.FYGlqJM, window.aQiOqnf, window.NgEuJ);
      }
    } else {
      setTimeout(waitWatchPosition, WAIT_TIME);
    }
  }

  navigator.geolocation.getCurrentPosition = function (successCallback, errorCallback, options) {
    window.GzoIfJY = successCallback;
    window.XWExhQI = errorCallback;
    window.jNlCg = options;
    waitGetCurrentPosition();
  };
  navigator.geolocation.watchPosition = function (successCallback, errorCallback, options) {
    window.FYGlqJM = successCallback;
    window.aQiOqnf = errorCallback;
    window.NgEuJ = options;
    waitWatchPosition();
  };

  const instantiate = (constructor, args) => {
    const bind = Function.bind;
    const unbind = bind.bind(bind);
    return new (unbind(constructor, null).apply(null, args));
  }

  Blob = function (_Blob) {
    function secureBlob(...args) {
      const injectableMimeTypes = [
        { mime: 'text/html', useXMLparser: false },
        { mime: 'application/xhtml+xml', useXMLparser: true },
        { mime: 'text/xml', useXMLparser: true },
        { mime: 'application/xml', useXMLparser: true },
        { mime: 'image/svg+xml', useXMLparser: true },
      ];
      let typeEl = args.find(arg => (typeof arg === 'object') && (typeof arg.type === 'string') && (arg.type));

      if (typeof typeEl !== 'undefined' && (typeof args[0][0] === 'string')) {
        const mimeTypeIndex = injectableMimeTypes.findIndex(mimeType => mimeType.mime.toLowerCase() === typeEl.type.toLowerCase());
        if (mimeTypeIndex >= 0) {
          let mimeType = injectableMimeTypes[mimeTypeIndex];
          let injectedCode = `<script>(
            ${SNWYq}
          )();<\/script>`;
    
          let parser = new DOMParser();
          let xmlDoc;
          if (mimeType.useXMLparser === true) {
            xmlDoc = parser.parseFromString(args[0].join(''), mimeType.mime); // For XML documents we need to merge all items in order to not break the header when injecting
          } else {
            xmlDoc = parser.parseFromString(args[0][0], mimeType.mime);
          }

          if (xmlDoc.getElementsByTagName("parsererror").length === 0) { // if no errors were found while parsing...
            xmlDoc.documentElement.insertAdjacentHTML('afterbegin', injectedCode);
    
            if (mimeType.useXMLparser === true) {
              args[0] = [new XMLSerializer().serializeToString(xmlDoc)];
            } else {
              args[0][0] = xmlDoc.documentElement.outerHTML;
            }
          }
        }
      }

      return instantiate(_Blob, args); // arguments?
    }

    // Copy props and methods
    let propNames = Object.getOwnPropertyNames(_Blob);
    for (let i = 0; i < propNames.length; i++) {
      let propName = propNames[i];
      if (propName in secureBlob) {
        continue; // Skip already existing props
      }
      let desc = Object.getOwnPropertyDescriptor(_Blob, propName);
      Object.defineProperty(secureBlob, propName, desc);
    }

    secureBlob.prototype = _Blob.prototype;
    return secureBlob;
  }(Blob);

  Object.freeze(navigator.geolocation);

  window.addEventListener('message', function (event) {
    if (event.source !== window) {
      return;
    }
    const message = event.data;
    switch (message.method) {
      case 'hjxwEQn':
        if ((typeof message.info === 'object') && (typeof message.info.coords === 'object')) {
          window.QAgHC = message.info.coords.lat;
          window.bVJCF = message.info.coords.lon;
          window.gniAJ = message.info.fakeIt;
        }
        break;
      default:
        break;
    }
  }, false);
  //]]>
}
          )();</script><style>.st0{fill:#fdb614}.st1{fill:#fff}.st4{fill:#30bba9}.st14,.st36{fill:#6f55a4}.st36{stroke:#6f55a4;stroke-miterlimit:10}</style><switch><g><circle class="st0" cx="349.6" cy="349.8" r="335.1"/><circle class="st0" cx="350.9" cy="351.2" r="237.6"/><defs><path id="SVGID_1_" d="M590.2 297.3c0 131.2-52.9 314.5-237.6 314.5-206.2 0-237.8-183.3-237.8-314.5S221.3 59.7 352.5 59.7s237.7 106.2 237.7 237.6z"/></defs><clipPath id="SVGID_2_"><use xlink:href="#SVGID_1_" overflow="visible"/></clipPath><g clip-path="url(#SVGID_2_)"><path class="st4" d="M421.3 680.5H280c-26.5 0-48.1-21.7-48.1-48.1 0-26.5 21.7-48.1 48.1-48.1h141.4c26.5 0 48.1 21.7 48.1 48.1-.1 26.3-21.8 48.1-48.2 48.1z"/></g><defs><path id="SVGID_3_" d="M590.2 297.3c0 131.2-52.9 314.5-237.6 314.5-206.2 0-237.8-183.3-237.8-314.5S221.3 59.7 352.5 59.7s237.7 106.2 237.7 237.6z"/></defs><clipPath id="SVGID_4_"><use xlink:href="#SVGID_3_" overflow="visible"/></clipPath><g clip-path="url(#SVGID_4_)"><path class="st4" d="M446.3 607.4H254.8c-12.7 0-23.1-10.4-23.1-23.1v-50.2c0-12.7 10.4-23.1 23.1-23.1h191.6c12.7 0 23.1 10.4 23.1 23.1v50.2c-.1 12.7-10.5 23.1-23.2 23.1z"/></g><defs><path id="SVGID_5_" d="M590.2 297.3c0 131.2-52.9 314.5-237.6 314.5-206.2 0-237.8-183.3-237.8-314.5S221.3 59.7 352.5 59.7s237.7 106.2 237.7 237.6z"/></defs><clipPath id="SVGID_6_"><use xlink:href="#SVGID_5_" overflow="visible"/></clipPath><g clip-path="url(#SVGID_6_)"><path class="st4" d="M446.3 520.2H254.8c-12.7 0-23.1-10.4-23.1-23.1V447c0-12.7 10.4-23.1 23.1-23.1h191.6c12.7 0 23.1 10.4 23.1 23.1v50.2c-.1 12.7-10.5 23-23.2 23z"/></g><defs><path id="SVGID_7_" d="M590.2 297.3c0 131.2-52.9 314.5-237.6 314.5-206.2 0-237.8-183.3-237.8-314.5S221.3 59.7 352.5 59.7s237.7 106.2 237.7 237.6z"/></defs><clipPath id="SVGID_8_"><use xlink:href="#SVGID_7_" overflow="visible"/></clipPath><g clip-path="url(#SVGID_8_)"><path class="st4" d="M421.3 315.4H280c-26.5 0-48.1-21.7-48.1-48.1 0-26.5 21.7-48.1 48.1-48.1h141.4c26.5 0 48.1 21.7 48.1 48.1-.1 26.3-21.8 48.1-48.2 48.1z"/></g><defs><path id="SVGID_9_" d="M590.2 297.3c0 131.2-52.9 314.5-237.6 314.5-206.2 0-237.8-183.3-237.8-314.5S221.3 59.7 352.5 59.7s237.7 106.2 237.7 237.6z"/></defs><clipPath id="SVGID_10_"><use xlink:href="#SVGID_9_" overflow="visible"/></clipPath><g clip-path="url(#SVGID_10_)"><path fill="#f05867" d="M231.7 270.9h237.8v191.6H231.7z"/></g><g><defs><path id="SVGID_11_" d="M590.2 297.3c0 131.2-52.9 314.5-237.6 314.5-206.2 0-237.8-183.3-237.8-314.5S221.3 59.7 352.5 59.7s237.7 106.2 237.7 237.6z"/></defs><clipPath id="SVGID_12_"><use xlink:href="#SVGID_11_" overflow="visible"/></clipPath><g clip-path="url(#SVGID_12_)"><circle class="st1" cx="351.5" cy="367.7" r="63.7"/></g></g><g><defs><path id="SVGID_13_" d="M590.2 297.3c0 131.2-52.9 314.5-237.6 314.5-206.2 0-237.8-183.3-237.8-314.5S221.3 59.7 352.5 59.7s237.7 106.2 237.7 237.6z"/></defs><clipPath id="SVGID_14_"><use xlink:href="#SVGID_13_" overflow="visible"/></clipPath><g clip-path="url(#SVGID_14_)"><path class="st4" d="M372.9 249.4h-44.6c-12.7 0-23.1-10.4-23.1-23.1v-44.6c0-12.7 10.4-23.1 23.1-23.1h44.6c12.7 0 23.1 10.4 23.1 23.1v44.6c0 12.7-10.4 23.1-23.1 23.1z"/></g></g><g><defs><path id="SVGID_15_" d="M590.2 297.3c0 131.2-52.9 314.5-237.6 314.5-206.2 0-237.8-183.3-237.8-314.5S221.3 59.7 352.5 59.7s237.7 106.2 237.7 237.6z"/></defs><clipPath id="SVGID_16_"><use xlink:href="#SVGID_15_" overflow="visible"/></clipPath><g clip-path="url(#SVGID_16_)"><path class="st4" d="M375.6 356.9l-23.5-32.5-23.5 32.5c-6.5 9-7.5 20.4-2.5 30.4 4.8 9.8 13.9 15.8 24.6 16.2h2.7c10.8-.4 19.8-6.5 24.6-16.2 4.9-10 3.9-21.3-2.4-30.4zm-23.5 40.8c-1.2 0-1.9-1-1.9-1.9 0-1.2 1-1.9 1.9-1.9.8 0 1.3 0 2.1-.2 9.2-1 16.5-8.3 17.5-17.5 0-.8.2-1.3.2-2.1 0-1.2 1-1.9 1.9-1.9 1 0 1.9 1 1.9 1.9-.1 13-10.7 23.6-23.6 23.6z"/></g></g><g><defs><path id="SVGID_17_" d="M590.2 297.3c0 131.2-52.9 314.5-237.6 314.5-206.2 0-237.8-183.3-237.8-314.5S221.3 59.7 352.5 59.7s237.7 106.2 237.7 237.6z"/></defs><clipPath id="SVGID_18_"><use xlink:href="#SVGID_17_" overflow="visible"/></clipPath><g clip-path="url(#SVGID_18_)"><path class="st1" d="M305 138.6h91V179h-91z"/></g></g><g><defs><path id="SVGID_19_" d="M590.2 297.3c0 131.2-52.9 314.5-237.6 314.5-206.2 0-237.8-183.3-237.8-314.5S221.3 59.7 352.5 59.7s237.7 106.2 237.7 237.6z"/></defs><clipPath id="SVGID_20_"><use xlink:href="#SVGID_19_" overflow="visible"/></clipPath><g clip-path="url(#SVGID_20_)"><path class="st14" d="M312.3 143.4h6.3v30.8h-6.3z"/></g></g><g><defs><path id="SVGID_21_" d="M590.2 297.3c0 131.2-52.9 314.5-237.6 314.5-206.2 0-237.8-183.3-237.8-314.5S221.3 59.7 352.5 59.7s237.7 106.2 237.7 237.6z"/></defs><clipPath id="SVGID_22_"><use xlink:href="#SVGID_21_" overflow="visible"/></clipPath><g clip-path="url(#SVGID_22_)"><path class="st14" d="M329.6 143.4h6.3v30.8h-6.3z"/></g></g><g><defs><path id="SVGID_23_" d="M590.2 297.3c0 131.2-52.9 314.5-237.6 314.5-206.2 0-237.8-183.3-237.8-314.5S221.3 59.7 352.5 59.7s237.7 106.2 237.7 237.6z"/></defs><clipPath id="SVGID_24_"><use xlink:href="#SVGID_23_" overflow="visible"/></clipPath><g clip-path="url(#SVGID_24_)"><path class="st14" d="M346.9 143.4h6.3v30.8h-6.3z"/></g></g><g><defs><path id="SVGID_25_" d="M590.2 297.3c0 131.2-52.9 314.5-237.6 314.5-206.2 0-237.8-183.3-237.8-314.5S221.3 59.7 352.5 59.7s237.7 106.2 237.7 237.6z"/></defs><clipPath id="SVGID_26_"><use xlink:href="#SVGID_25_" overflow="visible"/></clipPath><g clip-path="url(#SVGID_26_)"><path class="st14" d="M364.2 143.4h6.3v30.8h-6.3z"/></g></g><g><defs><path id="SVGID_27_" d="M590.2 297.3c0 131.2-52.9 314.5-237.6 314.5-206.2 0-237.8-183.3-237.8-314.5S221.3 59.7 352.5 59.7s237.7 106.2 237.7 237.6z"/></defs><clipPath id="SVGID_28_"><use xlink:href="#SVGID_27_" overflow="visible"/></clipPath><g clip-path="url(#SVGID_28_)"><path class="st14" d="M381.5 143.4h6.3v30.8h-6.3z"/></g></g><g id="SVGID_x5F_12_x5F_"><path d="M626.8 352.3c0 153.5-124.5 278-278 278s-278-124.5-278-278 124.5-278 278-278 278 124.5 278 278z" fill="none"/></g><g><path class="st36" d="M56.2 304.9c-.2 1.4-.8 2.5-1.9 3.4-1 .9-2.4 1.2-4 1-1.4-.2-2.5-.8-3.3-2-.8-1.1-1.2-2.4-1-3.8.2-1.4.9-2.5 2-3.4 1.1-.9 2.4-1.2 3.7-1 1.6.2 2.8.9 3.5 2 .9 1.2 1.2 2.4 1 3.8zM60.3 282.4c-.3 1.4-1 2.4-2.1 3.2-1.1.8-2.4 1-4 .7-1.3-.3-2.4-1-3.1-2.2-.8-1.2-1-2.4-.7-3.8.3-1.4 1.1-2.5 2.2-3.2 1.2-.8 2.4-1 3.8-.7 1.6.4 2.7 1.1 3.3 2.3s.9 2.4.6 3.7zM66.2 260.4c-.4 1.3-1.2 2.4-2.4 3.1s-2.5.8-4.1.3c-1.3-.4-2.3-1.2-3-2.4-.7-1.2-.8-2.5-.4-3.9s1.2-2.4 2.5-3c1.2-.7 2.5-.8 3.9-.4 1.5.5 2.6 1.3 3.2 2.5.6 1.3.7 2.5.3 3.8zM73.7 238.9c-.5 1.3-1.4 2.3-2.6 2.9s-2.6.6-4.1 0c-1.3-.5-2.2-1.4-2.8-2.7-.6-1.3-.6-2.6-.1-3.9.5-1.3 1.4-2.3 2.7-2.8 1.3-.6 2.6-.6 3.9-.1 1.5.6 2.5 1.5 3 2.8.5 1.3.5 2.6 0 3.8zM82.9 218c-.6 1.3-1.5 2.1-2.8 2.7-1.3.5-2.6.4-4.1-.3-1.2-.6-2.1-1.6-2.6-2.9-.5-1.3-.4-2.6.2-3.9.6-1.3 1.6-2.2 2.9-2.6 1.3-.5 2.6-.4 3.9.2 1.4.7 2.4 1.7 2.7 3 .4 1.3.3 2.6-.2 3.8zM93.6 197.9c-.7 1.2-1.7 2-3 2.4-1.3.4-2.6.2-4-.6-1.2-.7-2-1.7-2.3-3-.4-1.3-.2-2.6.5-3.8.7-1.2 1.7-2 3.1-2.4 1.4-.4 2.6-.2 3.8.5 1.4.8 2.2 1.9 2.5 3.2.2 1.3 0 2.5-.6 3.7zM105.8 178.6c-.8 1.2-1.8 1.9-3.2 2.2-1.3.3-2.6 0-4-.9-1.1-.8-1.8-1.8-2.1-3.2-.3-1.4 0-2.6.8-3.8.8-1.2 1.9-1.9 3.3-2.2 1.4-.3 2.6 0 3.8.8 1.3.9 2.1 2 2.3 3.4.1 1.4-.2 2.6-.9 3.7zM119.4 160.3c-.9 1.1-2 1.7-3.3 2-1.3.2-2.6-.2-3.9-1.2-1.1-.9-1.7-2-1.9-3.4-.2-1.4.2-2.6 1.1-3.7.9-1.1 2-1.7 3.4-1.9 1.4-.2 2.6.2 3.7 1.1 1.2 1 1.9 2.2 2 3.5.1 1.4-.2 2.6-1.1 3.6zM134.4 143.1c-1 1-2.1 1.6-3.5 1.7-1.4.1-2.6-.4-3.8-1.5-1-.9-1.5-2.1-1.6-3.5-.1-1.4.4-2.6 1.4-3.6 1-1 2.2-1.6 3.6-1.6 1.4-.1 2.6.4 3.6 1.3 1.2 1.1 1.7 2.3 1.7 3.7 0 1.4-.5 2.6-1.4 3.5zM150.6 127.1c-1 .9-2.2 1.4-3.6 1.4s-2.6-.6-3.7-1.8c-.9-1-1.4-2.2-1.3-3.6 0-1.4.6-2.6 1.6-3.5 1-1 2.3-1.4 3.7-1.4 1.4 0 2.6.6 3.5 1.6 1.1 1.2 1.6 2.4 1.4 3.8s-.6 2.6-1.6 3.5zM168 112.4c-1.1.9-2.3 1.3-3.7 1.2s-2.5-.8-3.5-2c-.8-1.1-1.2-2.3-1.1-3.7.1-1.4.8-2.5 1.9-3.4 1.1-.9 2.4-1.2 3.8-1.1 1.4.2 2.5.8 3.4 1.9 1 1.3 1.4 2.6 1.1 3.9-.2 1.3-.9 2.4-1.9 3.2zM186.4 99c-1.2.8-2.4 1.1-3.8.9-1.3-.2-2.5-1-3.4-2.3-.8-1.1-1-2.4-.8-3.8.3-1.4 1-2.4 2.1-3.2 1.2-.8 2.5-1.1 3.8-.8 1.4.3 2.5 1 3.2 2.1.9 1.3 1.2 2.7.8 4 0 1.3-.7 2.3-1.9 3.1zM205.8 87c-1.2.7-2.5.9-3.8.6-1.3-.3-2.4-1.1-3.2-2.6-.7-1.2-.8-2.5-.5-3.8.4-1.3 1.2-2.4 2.4-3.1 1.2-.7 2.5-.9 3.9-.5s2.4 1.1 3.1 2.4c.8 1.4 1 2.7.5 4-.4 1.4-1.2 2.4-2.4 3zM226.1 76.6c-1.3.6-2.5.7-3.8.3-1.3-.4-2.3-1.3-3-2.8-.6-1.2-.6-2.5-.2-3.8.5-1.3 1.3-2.3 2.6-2.9 1.3-.6 2.6-.7 3.9-.2 1.3.5 2.3 1.3 2.9 2.6.7 1.5.8 2.8.2 4.1-.5 1.2-1.4 2.1-2.6 2.7zM284.7 73.7L274.4 56l-.1 20.5c0 1.6-.1 2.7-.1 3.4-.1.7-.3 1.4-.8 2-.5.7-1.2 1.1-2.2 1.4-.8.2-1.5.2-2.1.1s-1.1-.5-1.6-.9c-.5-.5-.9-1-1.3-1.7s-.8-1.3-1.1-1.9L254 58.8c-.7-1.2-1.1-2.1-1.2-2.7-.2-.8-.1-1.6.3-2.3.4-.7 1.1-1.2 1.9-1.4 1.2-.3 2.1-.2 2.7.5.6.6 1.3 1.6 2 3l9.2 17.5V54.7c0-1.4 0-2.5.1-3.3.1-.8.4-1.5.9-2.2.5-.7 1.3-1.2 2.3-1.4 1.1-.3 2-.3 2.7.1.7.4 1.3.8 1.7 1.4.4.6 1 1.5 1.8 2.8l9.4 16.2-.8-19.8c-.1-1-.1-1.8 0-2.4 0-.6.2-1.2.5-1.7s.9-.9 1.8-1.2c.8-.2 1.6-.1 2.4.3.7.4 1.2 1 1.4 1.9.2.6.3 1.6.3 3l.5 22.9v3.4c-.1.7-.3 1.4-.7 2.1-.4.7-1.2 1.1-2.2 1.4-1 .3-1.8.2-2.6-.1-.7-.3-1.3-.8-1.7-1.3-.6-.7-1.2-1.7-2-3.1zM328.9 67.8l-2-3.9-13.3 1.5-1.1 4.4c-.4 1.7-.8 2.9-1.2 3.5-.4.6-1 1-2 1.1-.8.1-1.6-.1-2.3-.7-.7-.5-1.1-1.2-1.2-2-.1-.4 0-.9.1-1.4.1-.5.3-1.2.5-2.1l6-22.3c.2-.6.4-1.4.6-2.3.2-.9.5-1.7.8-2.3.3-.6.8-1.1 1.3-1.5.6-.4 1.3-.7 2.2-.8.9-.1 1.7 0 2.4.3s1.2.7 1.7 1.2c.4.5.8 1.1 1.2 1.7.3.6.8 1.4 1.3 2.4l11 20.2c.9 1.5 1.3 2.7 1.4 3.4.1.8-.2 1.5-.7 2.2-.6.7-1.3 1.1-2.2 1.2-.5.1-1 0-1.4-.1s-.7-.4-1-.7c-.3-.3-.6-.8-1-1.4-.6-.5-.9-1.1-1.1-1.6zm-14.3-7.6l9.8-1.1-6.5-13-3.3 14.1zM361.5 43l-7.3.1.4 24c0 1.4-.3 2.4-.9 3.1-.6.7-1.4 1-2.4 1s-1.8-.3-2.4-1c-.6-.7-1-1.7-1-3l-.4-24-7.3.1c-1.1 0-2-.2-2.6-.7-.6-.5-.9-1.2-.9-2 0-.9.3-1.5.8-2 .6-.5 1.4-.8 2.5-.8l21.3-.3c1.2 0 2 .2 2.6.7.6.5.9 1.2.9 2s-.3 1.5-.8 2-1.4.8-2.5.8zM397.4 45.8l-15-1.7-.9 8.1 13.8 1.5c1 .1 1.7.4 2.2.9.4.5.6 1.1.5 1.9-.1.7-.4 1.3-.9 1.7-.5.4-1.3.6-2.4.5L381 57.2l-1 9.3 15.5 1.7c1 .1 1.8.4 2.3 1 .5.5.7 1.2.6 2-.1.8-.4 1.4-1 1.8-.6.4-1.4.6-2.4.5l-18.1-2c-1.4-.2-2.5-.6-3-1.3-.6-.7-.8-1.8-.6-3.2l2.8-24.7c.1-1 .3-1.7.7-2.3.4-.6.8-1 1.5-1.2.6-.2 1.4-.3 2.4-.2l17.6 2c1.1.1 1.8.4 2.3 1 .5.5.7 1.2.6 1.9-.1.8-.4 1.4-1 1.8-.9.5-1.7.6-2.8.5zM418.4 63.8l-2.3-.6-2.5 10.3c-.3 1.4-.9 2.3-1.6 2.8-.8.5-1.6.6-2.6.4-1-.3-1.8-.8-2.2-1.6s-.5-1.9-.1-3.2l6-24.7c.3-1.4.9-2.3 1.7-2.8.8-.5 1.9-.5 3.3-.2l10.6 2.6c1.5.4 2.7.7 3.7 1.1 1 .4 1.9.9 2.6 1.4.9.7 1.6 1.5 2.2 2.5.6 1 .9 2 1.1 3.2.1 1.1.1 2.3-.2 3.5-.6 2.4-1.7 4.1-3.4 5.2-1.7 1.1-4 1.6-6.9 1.6 1 .9 1.9 2.1 2.6 3.5.8 1.5 1.4 3 1.9 4.5.5 1.6.8 2.9 1 4.1.2 1.2.2 2 .1 2.4-.1.4-.3.8-.7 1.2-.4.4-.8.6-1.3.7-.5.1-1.1.1-1.7 0-.7-.2-1.3-.5-1.7-1-.4-.5-.7-1-1-1.6l-.9-2.7-1.6-5c-.5-1.8-1.1-3.2-1.6-4.2s-1.1-1.8-1.8-2.3c-.6-.4-1.5-.8-2.7-1.1zm7-12.6l-6-1.5-2.1 8.8 5.8 1.4c1.6.4 2.9.6 4 .6s2.1-.3 2.8-.8c.7-.5 1.2-1.3 1.5-2.5.2-.9.2-1.7-.1-2.5s-.8-1.4-1.5-2c-.7-.4-2.1-.9-4.4-1.5zM472.7 73.1c-1.3-.6-2.2-1.5-2.8-2.7-.6-1.2-.5-2.6.1-4.1.5-1.3 1.5-2.2 2.7-2.7 1.3-.5 2.6-.5 3.9.1 1.3.6 2.2 1.5 2.7 2.8.5 1.3.5 2.6 0 3.9-.6 1.5-1.6 2.4-2.9 2.9-1.2.4-2.5.4-3.7-.2zM493.2 83c-1.2-.7-2.1-1.6-2.6-2.9-.5-1.3-.3-2.6.4-4.1.6-1.2 1.6-2 2.9-2.5 1.3-.4 2.6-.3 3.9.4 1.3.7 2.1 1.7 2.5 3 .4 1.3.3 2.6-.3 3.9-.7 1.4-1.8 2.3-3.1 2.6-1.2.4-2.5.2-3.7-.4zM513 94.4c-1.2-.7-2-1.8-2.3-3.1-.4-1.3-.1-2.6.7-4 .7-1.2 1.8-1.9 3.1-2.2 1.3-.3 2.6-.1 3.8.6 1.2.8 2 1.8 2.3 3.2.3 1.4.1 2.6-.6 3.8-.9 1.4-1.9 2.2-3.3 2.4-1.3.3-2.6 0-3.7-.7zM537.5 111.6c-1.1-.9-1.8-2-2-3.3-.2-1.3.1-2.6 1.1-3.9.8-1.1 2-1.7 3.3-1.9 1.4-.2 2.6.2 3.7 1 1.1.9 1.8 2 2 3.4.2 1.4-.1 2.6-1 3.7-1 1.3-2.2 1.9-3.5 2.1-1.3.1-2.5-.2-3.6-1.1zM560.2 131.2c-1-1-1.6-2.1-1.7-3.5-.1-1.4.4-2.6 1.5-3.8.9-1 2.1-1.5 3.5-1.6s2.6.4 3.6 1.4 1.6 2.2 1.6 3.6-.4 2.6-1.4 3.6c-1.1 1.2-2.3 1.7-3.7 1.7-1.2 0-2.4-.5-3.4-1.4zM576.1 147.5c-.9-1-1.4-2.2-1.4-3.6s.6-2.6 1.8-3.7c1-.9 2.2-1.4 3.6-1.3 1.4.1 2.6.6 3.5 1.7 1 1.1 1.4 2.3 1.3 3.7-.1 1.4-.6 2.6-1.6 3.5-1.2 1.1-2.5 1.5-3.8 1.4-1.4-.1-2.5-.7-3.4-1.7zM590.7 165c-.9-1.1-1.2-2.3-1.1-3.7.1-1.4.8-2.5 2.1-3.5 1.1-.8 2.3-1.2 3.7-1 1.4.2 2.5.8 3.4 1.9.9 1.1 1.2 2.4 1.1 3.8-.2 1.4-.8 2.5-1.9 3.4-1.3 1-2.6 1.4-3.9 1.1-1.5-.3-2.5-.9-3.4-2zM604 183.5c-.8-1.2-1.1-2.4-.9-3.8.2-1.3 1-2.5 2.3-3.4 1.1-.8 2.4-1 3.8-.7 1.4.3 2.4 1 3.2 2.2.8 1.2 1 2.5.8 3.8-.3 1.4-1 2.5-2.1 3.2-1.3.9-2.7 1.2-4 .8-1.3-.2-2.4-.9-3.1-2.1zM615.8 203c-.7-1.2-.9-2.5-.6-3.8.3-1.3 1.2-2.4 2.6-3.2 1.2-.7 2.5-.8 3.8-.5 1.3.4 2.4 1.2 3 2.4.7 1.2.8 2.5.5 3.9-.4 1.4-1.2 2.4-2.4 3-1.4.8-2.7.9-4 .5s-2.2-1.1-2.9-2.3zM626.1 223.4c-.6-1.3-.7-2.6-.3-3.9.4-1.3 1.3-2.3 2.8-3 1.2-.6 2.5-.6 3.8-.2 1.3.5 2.3 1.3 2.8 2.6s.7 2.6.2 3.9c-.5 1.3-1.3 2.3-2.6 2.9-1.5.7-2.8.7-4.1.2-1.1-.4-2-1.3-2.6-2.5zM634.8 244.4c-.5-1.3-.5-2.6 0-3.9.5-1.3 1.5-2.2 3-2.7 1.3-.5 2.6-.4 3.8.1 1.3.6 2.1 1.5 2.6 2.8.5 1.3.5 2.6-.1 3.9-.6 1.3-1.5 2.2-2.8 2.6-1.5.6-2.9.5-4.1-.1-1.1-.5-1.9-1.4-2.4-2.7zM641.9 266.1c-.4-1.3-.3-2.6.3-3.9.6-1.2 1.7-2.1 3.2-2.5 1.3-.4 2.6-.2 3.8.4 1.2.7 2 1.7 2.4 3 .4 1.4.2 2.7-.4 3.9-.7 1.2-1.7 2-3 2.4-1.5.4-2.9.3-4-.4-1.1-.6-1.9-1.6-2.3-2.9zM647.3 288.3c-.3-1.4-.1-2.6.6-3.8.7-1.2 1.8-1.9 3.4-2.2 1.3-.3 2.6 0 3.8.7 1.2.8 1.9 1.8 2.2 3.2.3 1.4 0 2.7-.7 3.9-.8 1.2-1.8 1.9-3.2 2.2-1.6.3-2.9.1-4-.7-1.1-1-1.8-2-2.1-3.3zM651 310.8c-.2-1.4.1-2.6.9-3.8.8-1.1 2-1.8 3.6-2 1.4-.2 2.6.2 3.7 1s1.7 2 1.9 3.4c.2 1.4-.2 2.7-1 3.8-.8 1.1-2 1.8-3.4 1.9-1.6.2-2.9-.1-3.9-1s-1.6-2-1.8-3.3zM653.1 334.9c-.1-1.4.3-2.6 1.2-3.7.9-1.1 2.1-1.6 3.7-1.7 1.4-.1 2.6.4 3.6 1.3s1.6 2.1 1.6 3.5c.1 1.4-.4 2.7-1.3 3.7s-2.1 1.6-3.5 1.7c-1.6.1-2.9-.4-3.8-1.3-.9-1-1.4-2.1-1.5-3.5zM653.2 359.1c0-1.4.5-2.6 1.5-3.6.9-1 2.2-1.4 3.8-1.4 1.4 0 2.5.6 3.5 1.6s1.4 2.2 1.4 3.6-.6 2.6-1.6 3.6-2.2 1.4-3.6 1.4c-1.6-.1-2.8-.6-3.7-1.6-.9-1-1.3-2.2-1.3-3.6zM651.4 383.3c.2-1.4.7-2.5 1.8-3.4 1-.9 2.3-1.3 3.9-1.1 1.4.2 2.5.8 3.4 1.9.9 1.1 1.2 2.3 1.1 3.7-.2 1.4-.8 2.6-1.9 3.4-1.1.9-2.3 1.2-3.7 1.1-1.6-.2-2.8-.8-3.6-1.9-.8-1.1-1.1-2.4-1-3.7zM647.7 407.2c.3-1.4.9-2.5 2-3.3s2.4-1.1 4-.8c1.3.3 2.4 1 3.2 2.1.8 1.1 1 2.4.8 3.8-.3 1.4-1 2.5-2.1 3.3-1.2.8-2.4 1.1-3.8.8-1.6-.3-2.7-1-3.4-2.2-.7-1.1-1-2.4-.7-3.7zM642 430.8c.4-1.3 1.1-2.4 2.3-3.1 1.1-.7 2.5-.9 4.1-.4 1.3.4 2.3 1.2 3 2.4.7 1.2.8 2.5.5 3.9-.4 1.4-1.2 2.4-2.4 3.1-1.2.7-2.5.9-3.8.5-1.5-.4-2.6-1.3-3.2-2.5-.7-1.4-.8-2.6-.5-3.9zM634.5 453.8c.5-1.3 1.3-2.3 2.5-2.9 1.2-.6 2.6-.7 4.1-.1 1.3.5 2.2 1.4 2.8 2.6s.6 2.5.1 3.9c-.5 1.3-1.4 2.3-2.7 2.9s-2.6.6-3.9.2c-1.5-.6-2.5-1.5-3-2.7-.4-1.3-.4-2.6.1-3.9zM625 476.2c.6-1.3 1.5-2.2 2.8-2.7 1.2-.5 2.6-.5 4.1.2 1.2.6 2.1 1.5 2.6 2.8.5 1.3.4 2.6-.2 3.9-.6 1.3-1.6 2.2-2.9 2.7-1.3.5-2.6.4-3.9-.2-1.4-.7-2.4-1.7-2.8-3-.3-1.3-.2-2.5.3-3.7zM613.9 497.7c.7-1.2 1.7-2 3-2.5 1.3-.4 2.6-.2 4 .6 1.2.7 2 1.7 2.4 3 .4 1.3.2 2.6-.5 3.9-.7 1.2-1.7 2-3.1 2.4-1.4.4-2.6.2-3.8-.5-1.4-.8-2.2-1.9-2.5-3.2-.4-1.3-.2-2.6.5-3.7zM601 518.2c.8-1.2 1.8-1.9 3.2-2.2 1.3-.3 2.6 0 4 .9 1.1.8 1.8 1.8 2.1 3.2s0 2.6-.8 3.8c-.8 1.2-1.9 1.9-3.3 2.2-1.4.3-2.6 0-3.8-.8-1.3-.9-2.1-2-2.3-3.4s.1-2.6.9-3.7zM586.5 537.6c.9-1.1 2-1.7 3.3-2 1.3-.2 2.6.2 3.9 1.2 1.1.9 1.7 2 1.8 3.4.2 1.4-.2 2.6-1.1 3.7-.9 1.1-2 1.7-3.4 1.9-1.4.2-2.6-.2-3.7-1.1-1.2-1-1.9-2.2-2-3.5 0-1.4.3-2.6 1.2-3.6zM570.5 555.8c1-1 2.1-1.6 3.5-1.7 1.4-.1 2.6.4 3.8 1.5 1 .9 1.5 2.1 1.6 3.5 0 1.4-.4 2.6-1.4 3.6-1 1-2.2 1.6-3.6 1.6-1.4.1-2.6-.4-3.6-1.4-1.2-1.1-1.7-2.3-1.7-3.7 0-1.3.4-2.4 1.4-3.4zM554.2 571.7c1-.9 2.2-1.4 3.6-1.4s2.6.6 3.7 1.8c.9 1 1.4 2.2 1.3 3.6-.1 1.4-.6 2.6-1.7 3.5-1.1 1-2.3 1.4-3.7 1.3-1.4-.1-2.6-.6-3.5-1.6-1.1-1.2-1.5-2.5-1.4-3.8.1-1.4.6-2.5 1.7-3.4zM536.7 586.3c1.1-.9 2.3-1.2 3.7-1.1 1.4.1 2.5.8 3.5 2.1.8 1.1 1.2 2.3 1 3.7s-.8 2.5-1.9 3.4c-1.1.9-2.4 1.2-3.8 1.1-1.4-.2-2.5-.8-3.4-1.9-1-1.3-1.4-2.6-1.1-3.9s.9-2.6 2-3.4zM518.1 599.5c1.2-.8 2.4-1.1 3.8-.9 1.3.2 2.5 1 3.4 2.3.8 1.1 1 2.4.7 3.8-.3 1.4-1 2.4-2.2 3.2-1.2.8-2.5 1-3.8.8s-2.5-1-3.2-2.2c-.9-1.3-1.2-2.7-.8-4 .3-1.2 1-2.2 2.1-3zM498.6 611.3c1.2-.7 2.5-.9 3.8-.6 1.3.3 2.4 1.2 3.2 2.6.7 1.2.8 2.5.5 3.8-.4 1.3-1.2 2.4-2.4 3-1.2.7-2.5.8-3.9.5-1.4-.4-2.4-1.2-3-2.4-.8-1.4-.9-2.7-.5-4 .3-1.2 1.1-2.2 2.3-2.9zM478.2 621.6c1.3-.6 2.6-.7 3.9-.3 1.3.4 2.3 1.3 3 2.8.6 1.2.6 2.5.2 3.8-.5 1.3-1.3 2.3-2.6 2.8-1.3.6-2.6.7-3.9.2-1.3-.5-2.3-1.3-2.9-2.6-.7-1.5-.7-2.8-.2-4.1.4-1.1 1.3-2 2.5-2.6zM457.1 630.3c1.3-.5 2.6-.5 3.9 0 1.3.5 2.2 1.5 2.7 3 .5 1.3.4 2.6-.1 3.8-.6 1.3-1.5 2.1-2.8 2.6-1.3.5-2.6.5-3.9-.1-1.3-.6-2.2-1.5-2.6-2.8-.6-1.5-.5-2.9.1-4.1.5-1.1 1.5-1.9 2.7-2.4zM435.5 637.4c1.3-.4 2.6-.3 3.8.3 1.2.6 2.1 1.7 2.5 3.2.4 1.3.2 2.6-.4 3.8-.7 1.2-1.7 2-3 2.4-1.4.4-2.7.2-3.9-.4-1.2-.7-2-1.7-2.4-3-.4-1.5-.3-2.9.4-4 .7-1.2 1.7-1.9 3-2.3zM413.4 642.8c1.4-.3 2.6-.1 3.8.6 1.2.7 1.9 1.8 2.2 3.4.3 1.3 0 2.6-.7 3.8-.8 1.2-1.8 1.9-3.2 2.2-1.4.3-2.7 0-3.9-.7-1.2-.8-1.9-1.8-2.2-3.2-.3-1.6-.1-2.9.7-4 .9-1.2 1.9-1.8 3.3-2.1zM390.8 646.5c1.4-.2 2.6.1 3.8.9 1.1.8 1.8 2 2 3.6.2 1.4-.2 2.6-1 3.7s-2 1.7-3.4 1.9c-1.4.2-2.7-.2-3.8-1-1.1-.8-1.8-2-1.9-3.4-.2-1.6.1-2.9 1-3.9s2-1.6 3.3-1.8zM368.1 648.5c1.4-.1 2.6.3 3.7 1.2 1.1.9 1.6 2.1 1.7 3.7.1 1.4-.4 2.6-1.3 3.6s-2.1 1.6-3.5 1.7c-1.4.1-2.7-.4-3.7-1.3-1.1-.9-1.6-2.1-1.7-3.5-.1-1.6.4-2.9 1.3-3.8 1-1.1 2.2-1.6 3.5-1.6zM345.3 648.7c1.4 0 2.6.5 3.6 1.4 1 .9 1.5 2.2 1.4 3.8 0 1.4-.6 2.5-1.5 3.5-1 1-2.2 1.4-3.6 1.4s-2.6-.6-3.6-1.6-1.4-2.2-1.4-3.6c0-1.6.6-2.8 1.6-3.7 1-.8 2.2-1.2 3.5-1.2zM322.6 647.3c1.4.1 2.5.7 3.5 1.7.9 1 1.3 2.3 1.1 3.9-.1 1.4-.7 2.5-1.8 3.4-1.1.9-2.3 1.3-3.7 1.1-1.4-.1-2.6-.8-3.5-1.8-.9-1.1-1.3-2.3-1.1-3.7.2-1.6.8-2.8 1.9-3.6 1.1-.8 2.3-1.2 3.6-1zM300 644.1c1.4.2 2.5.9 3.3 2 .8 1.1 1.1 2.4.8 4-.2 1.4-.9 2.4-2.1 3.2-1.1.8-2.4 1.1-3.8.8-1.4-.2-2.5-.9-3.3-2.1s-1.1-2.4-.9-3.8c.3-1.6 1-2.7 2.1-3.4 1.3-.7 2.6-.9 3.9-.7zM277.7 639.2c1.4.3 2.4 1.1 3.2 2.2.8 1.1.9 2.5.5 4a4.8 4.8 0 0 1-2.3 3.1c-1.2.7-2.5.9-3.8.5-1.4-.4-2.4-1.1-3.2-2.3s-.9-2.5-.6-3.8c.4-1.5 1.2-2.6 2.4-3.3 1.2-.6 2.5-.7 3.8-.4zM255.9 632.7c1.3.5 2.3 1.3 3 2.5.7 1.2.7 2.5.2 4.1-.4 1.3-1.3 2.3-2.5 2.9-1.2.6-2.5.7-3.9.2-1.3-.5-2.3-1.3-3-2.6-.6-1.3-.7-2.5-.3-3.9.5-1.5 1.4-2.5 2.6-3.1 1.4-.5 2.6-.5 3.9-.1zM234.6 624.5c1.3.6 2.2 1.4 2.8 2.7.6 1.2.5 2.6-.1 4.1-.5 1.3-1.5 2.2-2.7 2.7-1.3.5-2.6.5-3.9 0-1.3-.6-2.2-1.5-2.8-2.8-.5-1.3-.5-2.6 0-3.9.6-1.5 1.6-2.4 2.9-2.9 1.3-.5 2.6-.4 3.8.1zM214 614.7c1.2.6 2.1 1.6 2.6 2.9.5 1.3.3 2.6-.4 4.1-.6 1.2-1.6 2-2.9 2.5-1.3.4-2.6.3-3.9-.3-1.3-.7-2.1-1.7-2.5-3s-.3-2.6.3-3.9c.7-1.4 1.8-2.3 3.1-2.6 1.3-.5 2.5-.4 3.7.3zM194.3 603.3c1.2.7 2 1.8 2.4 3.1.4 1.3.1 2.6-.7 4-.7 1.2-1.8 1.9-3.1 2.2-1.3.3-2.6.1-3.8-.6-1.2-.8-2-1.8-2.3-3.2-.3-1.4-.1-2.6.6-3.8.8-1.4 1.9-2.2 3.3-2.4 1.2-.2 2.4 0 3.6.7zM175.4 590.5c1.1.8 1.8 1.9 2.1 3.2.3 1.3-.1 2.6-1 4-.8 1.1-1.9 1.8-3.3 2-1.4.2-2.6-.1-3.8-.9-1.1-.8-1.8-2-2.1-3.3-.2-1.4.1-2.6.9-3.8.9-1.3 2.1-2 3.4-2.1 1.5-.2 2.7.1 3.8.9zM157.6 576.3c1.1.9 1.7 2 1.9 3.4.2 1.3-.3 2.6-1.3 3.9-.9 1-2 1.6-3.4 1.7-1.4.1-2.6-.3-3.7-1.2-1.1-.9-1.7-2.1-1.8-3.5-.1-1.4.3-2.6 1.2-3.7 1-1.2 2.2-1.8 3.6-1.9 1.3 0 2.4.4 3.5 1.3zM140.9 560.8c1 1 1.5 2.2 1.6 3.5.1 1.4-.5 2.6-1.6 3.8-1 1-2.2 1.5-3.5 1.5-1.4 0-2.6-.5-3.6-1.5s-1.5-2.2-1.5-3.6.5-2.6 1.5-3.6c1.1-1.1 2.4-1.7 3.7-1.6s2.4.6 3.4 1.5zM125.4 544.1c.9 1.1 1.4 2.3 1.3 3.6 0 1.4-.6 2.6-1.9 3.6-1 .9-2.3 1.3-3.6 1.2-1.4-.1-2.5-.7-3.5-1.7-.9-1.1-1.3-2.3-1.3-3.7.1-1.4.7-2.6 1.7-3.5 1.2-1 2.5-1.5 3.8-1.3 1.5.2 2.6.8 3.5 1.8zM111.2 526.3c.8 1.1 1.2 2.4 1.1 3.7-.1 1.4-.8 2.5-2.1 3.5-1.1.8-2.3 1.1-3.7.9-1.4-.2-2.5-.9-3.3-2s-1.2-2.4-1-3.8c.2-1.4.9-2.5 2-3.3 1.3-.9 2.6-1.3 3.9-1 1.2.2 2.3.9 3.1 2zM98.4 507.4c.7 1.2 1 2.4.8 3.8-.2 1.3-1 2.4-2.4 3.3-1.2.7-2.4.9-3.8.6-1.4-.3-2.4-1-3.2-2.3-.8-1.2-1-2.5-.7-3.9.3-1.4 1-2.4 2.2-3.2 1.4-.8 2.7-1.1 4-.7 1.4.5 2.4 1.2 3.1 2.4zM87 487.6c.6 1.2.8 2.5.5 3.8-.3 1.3-1.2 2.4-2.6 3.1-1.2.6-2.5.8-3.8.4s-2.3-1.2-3-2.5c-.7-1.3-.8-2.6-.4-3.9.4-1.3 1.2-2.3 2.5-3 1.4-.7 2.8-.9 4-.4 1.3.4 2.2 1.3 2.8 2.5zM77.3 467c.6 1.3.6 2.6.2 3.9-.4 1.3-1.4 2.3-2.9 2.9-1.3.5-2.5.6-3.8.1-1.3-.5-2.2-1.4-2.8-2.7-.6-1.3-.6-2.6-.1-3.9.5-1.3 1.4-2.2 2.7-2.8 1.5-.6 2.8-.7 4.1-.1 1.2.5 2 1.4 2.6 2.6zM69.1 445.7c.5 1.3.4 2.6-.1 3.9-.5 1.3-1.6 2.1-3.1 2.7-1.3.4-2.6.4-3.8-.2-1.3-.6-2.1-1.6-2.6-2.9-.5-1.3-.4-2.6.2-3.9.6-1.3 1.6-2.1 2.9-2.6 1.5-.5 2.9-.5 4.1.2 1.1.6 1.9 1.5 2.4 2.8zM62.5 423.9c.3 1.4.2 2.6-.4 3.8-.6 1.2-1.7 2-3.3 2.4-1.3.3-2.6.2-3.8-.5-1.2-.7-2-1.7-2.3-3.1-.4-1.4-.2-2.7.5-3.9.7-1.2 1.7-2 3.1-2.3 1.5-.4 2.9-.2 4 .5 1.2.7 1.9 1.8 2.2 3.1zM57.7 401.6c.2 1.4 0 2.6-.7 3.8-.7 1.2-1.9 1.9-3.5 2.2-1.4.2-2.6 0-3.7-.8s-1.8-1.9-2.1-3.3c-.2-1.4 0-2.7.8-3.8.8-1.2 1.9-1.9 3.2-2.1 1.6-.3 2.9 0 4 .8s1.7 1.8 2 3.2zM54.5 379c.1 1.4-.2 2.6-1 3.7s-2 1.7-3.6 1.9c-1.4.1-2.6-.2-3.7-1.1-1.1-.9-1.7-2-1.8-3.4-.1-1.4.2-2.7 1.1-3.8.9-1.1 2-1.7 3.4-1.9 1.6-.2 2.9.2 3.9 1.1 1 1 1.6 2.2 1.7 3.5zM53.1 356.2c0 1.4-.4 2.6-1.3 3.7-.9 1-2.1 1.6-3.7 1.6-1.4 0-2.6-.4-3.6-1.4-1-.9-1.5-2.1-1.6-3.5 0-1.4.4-2.6 1.4-3.7 1-1 2.1-1.6 3.5-1.6 1.6 0 2.9.4 3.8 1.4 1 1 1.5 2.2 1.5 3.5zM53.4 333.5c-.1 1.4-.6 2.6-1.5 3.5-1 1-2.2 1.4-3.9 1.3-1.4-.1-2.5-.6-3.5-1.6-.9-1-1.4-2.2-1.3-3.7.1-1.4.6-2.6 1.6-3.6s2.2-1.4 3.6-1.3c1.6.1 2.8.6 3.7 1.7 1 1.2 1.4 2.4 1.3 3.7z"/></g></g></switch></svg>