<svg xmlns="http://www.w3.org/2000/svg" id="Layer_1" viewBox="0 0 700 700"><style>.st36{fill:#6f55a4;stroke:#6f55a4;stroke-miterlimit:10}</style><switch><g><circle cx="350.1" cy="341.9" r="335.1" fill="#fdb614"/><path d="M626.1 344.4c0 153.5-124.5 278-278 278s-278-124.5-278-278 124.5-278 278-278 278 124.5 278 278z" fill="none" id="SVGID_x5F_8_x5F_"/><path d="M588.8 474.2l-9.2-8.3-10.6 19.5-213.1-336.7v-21.4h-13.5v21.4l-214.3 338-11.3-21-9.2 8.3 13.3 24.2-.2.2h456.9l-1.2-1.7 12.4-22.5zm-274.9 16.4l35.2-139.8 35.2 139.8h-70.4z" fill="#f05867"/><path class="st36" d="M53.1 300.6c-.2 1.4-.8 2.5-1.9 3.4-1 .9-2.4 1.2-4 1-1.4-.2-2.5-.8-3.3-2-.8-1.1-1.2-2.4-1-3.8.2-1.4.9-2.5 2-3.4 1.1-.9 2.4-1.2 3.7-1 1.6.2 2.8.9 3.5 2 .9 1.2 1.2 2.5 1 3.8zM57.2 278.2c-.3 1.4-1 2.4-2.1 3.2-1.1.8-2.4 1-4 .7-1.3-.3-2.4-1-3.1-2.2-.8-1.2-1-2.4-.7-3.8.3-1.4 1.1-2.5 2.2-3.2 1.2-.8 2.4-1 3.8-.7 1.6.4 2.7 1.1 3.3 2.3.7 1.1.9 2.4.6 3.7zM63.1 256.2c-.4 1.3-1.2 2.4-2.4 3.1-1.2.7-2.5.8-4.1.3-1.3-.4-2.3-1.2-3-2.4-.7-1.2-.8-2.5-.4-3.9s1.2-2.4 2.5-3c1.2-.7 2.5-.8 3.9-.4 1.5.5 2.6 1.3 3.2 2.5.6 1.2.7 2.5.3 3.8zM70.6 234.7c-.5 1.3-1.4 2.3-2.6 2.9-1.2.6-2.6.6-4.1 0-1.3-.5-2.2-1.4-2.8-2.7-.6-1.3-.6-2.6-.1-3.9.5-1.3 1.4-2.3 2.7-2.8 1.3-.6 2.6-.6 3.9-.1 1.5.6 2.5 1.5 3 2.8.5 1.3.5 2.5 0 3.8zM79.7 213.8c-.6 1.3-1.5 2.1-2.8 2.7-1.3.5-2.6.4-4.1-.3-1.2-.6-2.1-1.6-2.6-2.9-.5-1.3-.4-2.6.2-3.9.6-1.3 1.6-2.2 2.9-2.6 1.3-.5 2.6-.4 3.9.2 1.4.7 2.4 1.7 2.7 3 .5 1.3.4 2.5-.2 3.8zM90.4 193.6c-.7 1.2-1.7 2-3 2.4-1.3.4-2.6.2-4-.6-1.2-.7-2-1.7-2.3-3-.4-1.3-.2-2.6.5-3.8.7-1.2 1.7-2 3.1-2.4 1.4-.4 2.6-.2 3.8.5 1.4.8 2.2 1.9 2.5 3.2.3 1.3.1 2.5-.6 3.7zM102.6 174.4c-.8 1.2-1.8 1.9-3.2 2.2s-2.6 0-4-.9c-1.1-.8-1.8-1.9-2.1-3.2-.3-1.4 0-2.6.8-3.8s1.9-1.9 3.3-2.2c1.4-.3 2.6 0 3.8.8 1.3.9 2.1 2 2.3 3.4.2 1.3-.1 2.6-.9 3.7zM116.3 156.1c-.9 1.1-2 1.7-3.3 2-1.3.2-2.6-.2-3.9-1.2-1.1-.9-1.7-2-1.9-3.4-.2-1.4.2-2.6 1.1-3.7.9-1.1 2-1.7 3.4-1.9 1.4-.2 2.6.2 3.7 1.1 1.2 1 1.9 2.2 2 3.5.1 1.3-.3 2.5-1.1 3.6zM131.2 138.9c-1 1-2.1 1.6-3.5 1.7-1.4.1-2.6-.4-3.8-1.5-1-.9-1.5-2.1-1.6-3.5s.4-2.6 1.4-3.6 2.2-1.6 3.6-1.6c1.4-.1 2.6.4 3.6 1.3 1.2 1.1 1.7 2.3 1.7 3.7 0 1.3-.4 2.5-1.4 3.5zM147.5 122.9c-1 .9-2.2 1.4-3.6 1.4s-2.6-.6-3.7-1.8c-.9-1-1.4-2.2-1.3-3.6 0-1.4.6-2.6 1.6-3.5 1-1 2.3-1.4 3.7-1.4 1.4 0 2.6.6 3.5 1.6 1.1 1.2 1.6 2.4 1.4 3.8-.1 1.4-.7 2.6-1.6 3.5zM164.8 108.1c-1.1.9-2.3 1.3-3.7 1.2-1.4-.1-2.5-.8-3.5-2-.8-1.1-1.2-2.3-1.1-3.7.1-1.4.8-2.5 1.9-3.4s2.4-1.2 3.8-1.1 2.5.8 3.4 1.9c1 1.3 1.4 2.6 1.1 3.9-.2 1.3-.8 2.4-1.9 3.2zM183.3 94.7c-1.2.8-2.4 1.1-3.8.9s-2.5-1-3.4-2.3c-.8-1.1-1-2.4-.8-3.8.3-1.4 1-2.4 2.1-3.2 1.2-.8 2.5-1.1 3.8-.8 1.4.3 2.5 1 3.2 2.1.9 1.3 1.2 2.7.8 4 0 1.4-.8 2.4-1.9 3.1zM202.7 82.8c-1.2.7-2.5.9-3.8.6-1.3-.3-2.4-1.1-3.2-2.5-.7-1.2-.8-2.5-.5-3.8.4-1.3 1.2-2.4 2.4-3.1 1.2-.7 2.5-.9 3.9-.5s2.4 1.1 3.1 2.4c.8 1.4 1 2.7.5 4-.4 1.2-1.2 2.2-2.4 2.9zM223 72.4c-1.3.6-2.5.7-3.9.3-1.3-.4-2.3-1.3-3-2.8-.6-1.2-.6-2.5-.2-3.8.5-1.3 1.3-2.3 2.6-2.9 1.3-.6 2.6-.7 3.9-.2 1.3.5 2.3 1.3 2.9 2.6.7 1.5.8 2.8.2 4.1-.4 1.2-1.3 2.1-2.5 2.7zM244 63.5c-1.3.5-2.6.5-3.9 0-1.3-.5-2.2-1.5-2.8-3-.5-1.3-.5-2.6.1-3.8.6-1.3 1.5-2.2 2.8-2.7 1.3-.5 2.6-.5 3.9.1 1.3.6 2.2 1.5 2.7 2.8.6 1.5.5 2.9-.1 4.1-.5 1.2-1.5 2-2.7 2.5zM296.2 43.4L289 45l5 23.5c.3 1.4.2 2.4-.3 3.2-.5.8-1.2 1.3-2.1 1.5-1 .2-1.8 0-2.6-.5s-1.3-1.5-1.6-2.8l-5-23.5-7.1 1.5c-1.1.2-2 .2-2.6-.2s-1.1-1-1.2-1.8c-.2-.8 0-1.6.4-2.2.5-.6 1.2-1 2.3-1.3L295 38c1.1-.2 2-.2 2.7.2.7.4 1.1 1 1.2 1.8.2.8 0 1.5-.4 2.1-.4.7-1.2 1.1-2.3 1.3zM331.5 38.9l-15 1.4.7 8.1 13.8-1.3c1-.1 1.8.1 2.3.5.5.4.9 1 .9 1.7.1.7-.1 1.4-.6 1.9-.4.5-1.2.8-2.2.9l-13.8 1.3.9 9.4 15.5-1.4c1-.1 1.9.1 2.4.5.6.4.9 1.1 1 1.9.1.8-.1 1.4-.6 2-.5.5-1.3.9-2.3.9l-18.1 1.7c-1.5.1-2.5-.1-3.2-.7-.7-.6-1.1-1.6-1.2-3L309.7 40c-.1-1 0-1.8.2-2.4.2-.6.6-1.1 1.2-1.4.6-.3 1.3-.5 2.3-.6L331 34c1.1-.1 1.9.1 2.4.5.6.4.9 1 .9 1.8.1.8-.1 1.4-.6 1.9-.4.3-1.1.6-2.2.7zM356 36.8l12.2 19.9.7-19.6c0-1.3.4-2.2.9-2.8.6-.6 1.3-.9 2.3-.9 1 0 1.7.4 2.2 1 .5.7.8 1.6.7 2.9l-.9 26c-.1 2.9-1.4 4.3-3.8 4.2-.6 0-1.1-.1-1.6-.3-.5-.2-.9-.5-1.3-.9s-.8-.8-1.1-1.4c-.3-.5-.7-1-1-1.6l-11.9-19.7-.7 19.4c0 1.3-.4 2.2-1 2.8-.6.6-1.4.9-2.3.9-.9 0-1.7-.4-2.2-1.1-.5-.7-.8-1.6-.8-2.9l.9-25.5c0-1.1.2-1.9.5-2.5.3-.7.8-1.2 1.5-1.6.7-.4 1.4-.6 2.2-.6.6 0 1.1.1 1.5.3.4.2.8.5 1.1.8.3.3.6.8.9 1.3.3.8.7 1.3 1 1.9zM410 44.6l-7.2-1.2-3.9 23.7c-.2 1.4-.7 2.3-1.4 2.9-.7.6-1.6.8-2.5.6-1-.2-1.7-.6-2.2-1.4-.5-.8-.7-1.8-.4-3.2l3.9-23.7-7.2-1.2c-1.1-.2-1.9-.6-2.4-1.2s-.6-1.3-.5-2.1c.1-.8.5-1.5 1.2-1.9.6-.4 1.5-.5 2.6-.3l21 3.4c1.1.2 2 .6 2.4 1.2.5.6.6 1.3.5 2.1-.1.8-.5 1.4-1.2 1.8-.7.5-1.6.7-2.7.5zM446 59.8c-1.3-.4-2.3-1.3-3-2.4-.7-1.2-.8-2.5-.2-4.1.4-1.3 1.3-2.3 2.5-2.9 1.2-.6 2.5-.7 3.9-.3 1.3.5 2.3 1.3 3 2.6.6 1.2.7 2.5.3 3.9-.5 1.5-1.4 2.5-2.6 3.1-1.3.5-2.6.6-3.9.1zM470 69.1c-1.3-.6-2.2-1.5-2.8-2.7-.6-1.2-.5-2.6.1-4.1.5-1.3 1.5-2.2 2.8-2.7 1.3-.5 2.6-.5 3.9.1 1.3.6 2.2 1.5 2.7 2.8.5 1.3.5 2.6 0 3.9-.6 1.5-1.6 2.4-2.9 2.9-1.3.4-2.6.3-3.8-.2zM493 80.3c-1.2-.7-2.1-1.6-2.5-2.9s-.3-2.6.5-4.1c.7-1.2 1.6-2 3-2.4 1.3-.4 2.6-.3 3.9.4 1.2.7 2.1 1.7 2.5 3 .4 1.3.3 2.6-.4 3.9-.8 1.4-1.8 2.3-3.1 2.6-1.4.3-2.7.2-3.9-.5zM517.5 95.1c-1.2-.8-1.9-1.8-2.2-3.1-.3-1.3-.1-2.6.9-4 .8-1.1 1.8-1.9 3.2-2.1 1.4-.3 2.6 0 3.8.8 1.2.8 1.9 1.9 2.2 3.2.3 1.4 0 2.6-.7 3.8-.9 1.3-2 2.1-3.4 2.3-1.5.2-2.7-.1-3.8-.9zM538.1 110.4c-1.1-.9-1.7-2-2-3.3-.2-1.3.2-2.6 1.2-3.9.9-1.1 2-1.7 3.4-1.9 1.4-.2 2.6.2 3.7 1.1 1.1.9 1.7 2 1.9 3.4.2 1.4-.2 2.6-1.1 3.7-1 1.2-2.2 1.9-3.5 2-1.3.1-2.5-.3-3.6-1.1zM557.4 127.3c-1-1-1.6-2.1-1.7-3.5-.1-1.4.4-2.6 1.5-3.8.9-1 2.1-1.5 3.5-1.6 1.4 0 2.6.4 3.6 1.4 1 1 1.6 2.2 1.6 3.6s-.4 2.6-1.4 3.6c-1.1 1.2-2.3 1.7-3.7 1.7-1.2 0-2.4-.5-3.4-1.4zM575.2 145.7c-.9-1-1.4-2.3-1.4-3.6 0-1.4.6-2.6 1.8-3.6 1-.9 2.2-1.3 3.6-1.3 1.4.1 2.5.6 3.5 1.7.9 1.1 1.4 2.3 1.3 3.7-.1 1.4-.6 2.6-1.7 3.5-1.2 1.1-2.5 1.5-3.8 1.4-1.3-.2-2.4-.7-3.3-1.8zM591.3 165.7c-.8-1.1-1.2-2.4-1.1-3.7.1-1.4.8-2.5 2.1-3.5 1.1-.8 2.3-1.1 3.7-.9 1.4.2 2.5.9 3.3 2 .8 1.1 1.2 2.4 1 3.8-.2 1.4-.8 2.5-2 3.3-1.3 1-2.6 1.3-3.9 1-1.2-.2-2.3-.9-3.1-2zM605.7 187c-.7-1.2-1-2.5-.7-3.8.2-1.3 1-2.4 2.4-3.3 1.2-.7 2.4-.9 3.8-.6 1.4.3 2.4 1.1 3.1 2.3.7 1.2 1 2.5.7 3.9-.3 1.4-1.1 2.4-2.2 3.2-1.4.8-2.7 1.1-4 .7-1.3-.5-2.3-1.3-3.1-2.4zM618.3 209.4c-.6-1.2-.8-2.5-.4-3.8.3-1.3 1.2-2.3 2.7-3.1 1.2-.6 2.5-.7 3.8-.3 1.3.4 2.3 1.3 2.9 2.5s.7 2.6.3 3.9-1.3 2.3-2.5 3c-1.4.7-2.8.8-4 .4-1.3-.6-2.2-1.4-2.8-2.6zM628.8 232.7c-.5-1.3-.6-2.6-.1-3.9.5-1.3 1.4-2.2 2.9-2.8 1.3-.5 2.6-.5 3.8 0 1.3.5 2.2 1.5 2.7 2.8.5 1.3.5 2.6 0 3.9-.5 1.3-1.5 2.2-2.8 2.7-1.5.6-2.8.6-4.1 0-1-.5-1.9-1.4-2.4-2.7zM636.1 252.9c-.4-1.3-.4-2.6.2-3.9.5-1.2 1.6-2.1 3.1-2.6 1.3-.4 2.6-.3 3.8.3 1.2.6 2.1 1.6 2.5 3 .4 1.4.3 2.7-.3 3.9-.6 1.3-1.6 2.1-2.9 2.5-1.5.5-2.9.4-4-.3-1.2-.7-2-1.7-2.4-2.9zM642.2 274.8c-.3-1.4-.2-2.6.5-3.8.6-1.2 1.8-2 3.3-2.4 1.3-.3 2.6-.1 3.8.6 1.2.7 1.9 1.8 2.3 3.1.3 1.4.1 2.7-.6 3.9-.7 1.2-1.8 2-3.1 2.3-1.6.4-2.9.2-4-.6-1.2-.7-1.9-1.7-2.2-3.1zM646.6 297.2c-.2-1.4 0-2.6.8-3.8.7-1.1 1.9-1.8 3.5-2.1 1.4-.2 2.6.1 3.7.9s1.8 1.9 2 3.3c.2 1.4-.1 2.7-.9 3.8-.8 1.1-1.9 1.8-3.3 2-1.6.2-2.9-.1-4-.9-.9-.7-1.6-1.8-1.8-3.2zM649.3 319.8c-.1-1.4.2-2.6 1.1-3.7.8-1.1 2-1.7 3.7-1.8 1.4-.1 2.6.3 3.7 1.2 1.1.9 1.7 2 1.8 3.5.1 1.4-.3 2.7-1.2 3.7-.9 1.1-2 1.7-3.4 1.8-1.6.1-2.9-.3-3.9-1.2-1.1-1-1.7-2.1-1.8-3.5zM650.3 342.3c0-1.4.4-2.6 1.3-3.6s2.1-1.6 3.8-1.6c1.4 0 2.6.4 3.6 1.4 1 1 1.5 2.1 1.5 3.6 0 1.4-.4 2.6-1.4 3.7-1 1-2.1 1.5-3.5 1.6-1.6 0-2.9-.5-3.8-1.4-1-1.2-1.5-2.4-1.5-3.7zM649.6 365.4c.1-1.4.6-2.6 1.6-3.5 1-1 2.3-1.4 3.9-1.3 1.4.1 2.5.7 3.4 1.7.9 1 1.3 2.3 1.2 3.7-.1 1.4-.7 2.6-1.7 3.5-1 .9-2.3 1.4-3.7 1.3-1.6-.1-2.8-.7-3.7-1.8-.7-1.1-1.1-2.3-1-3.6zM647.1 388.1c.2-1.4.8-2.5 1.9-3.4 1-.9 2.4-1.2 4-1 1.4.2 2.5.8 3.3 1.9.8 1.1 1.2 2.4 1 3.8-.2 1.4-.9 2.5-2 3.4-1.1.9-2.4 1.2-3.7 1-1.6-.2-2.8-.9-3.5-2-.9-1.2-1.2-2.4-1-3.7zM643 410.5c.3-1.4 1-2.4 2.1-3.2 1.1-.8 2.4-1 4-.7 1.3.3 2.4 1 3.1 2.2.8 1.2 1 2.4.7 3.8-.3 1.4-1.1 2.5-2.2 3.2-1.2.8-2.4 1-3.8.7-1.6-.4-2.7-1.1-3.3-2.3-.7-1.1-.9-2.4-.6-3.7zM637.1 432.5c.4-1.3 1.2-2.4 2.4-3.1s2.5-.8 4.1-.3c1.3.4 2.3 1.2 3 2.4s.8 2.5.4 3.9-1.2 2.4-2.5 3c-1.2.7-2.5.8-3.9.4-1.5-.5-2.6-1.3-3.2-2.5-.6-1.2-.7-2.5-.3-3.8zM629.6 454c.5-1.3 1.4-2.3 2.6-2.9 1.2-.6 2.6-.6 4.1 0 1.3.5 2.2 1.4 2.8 2.7.6 1.3.6 2.6.1 3.9-.5 1.3-1.4 2.3-2.7 2.8-1.3.6-2.6.6-3.9.1-1.5-.6-2.5-1.5-3-2.8-.5-1.3-.5-2.5 0-3.8zM620.5 474.9c.6-1.3 1.5-2.1 2.8-2.7 1.3-.5 2.6-.4 4.1.3 1.2.6 2.1 1.5 2.6 2.9.5 1.3.4 2.6-.2 3.9-.6 1.3-1.6 2.2-2.9 2.6-1.3.5-2.6.4-3.9-.2-1.4-.7-2.4-1.7-2.7-3-.5-1.3-.4-2.5.2-3.8zM609.8 495.1c.7-1.2 1.7-2 3-2.4 1.3-.4 2.6-.2 4 .6 1.2.7 2 1.7 2.3 3 .4 1.3.2 2.6-.5 3.8-.7 1.2-1.7 2-3.1 2.4-1.4.4-2.6.2-3.8-.5-1.4-.8-2.2-1.9-2.5-3.2-.3-1.3-.1-2.5.6-3.7zM597.6 514.3c.8-1.2 1.8-1.9 3.2-2.2 1.3-.3 2.6 0 4 .9 1.1.8 1.8 1.9 2.1 3.2.3 1.4 0 2.6-.8 3.8-.8 1.2-1.9 1.9-3.3 2.2-1.4.3-2.6 0-3.8-.8-1.3-.9-2.1-2-2.3-3.4-.2-1.3.1-2.6.9-3.7zM584 532.6c.9-1.1 2-1.7 3.3-2 1.3-.2 2.6.2 3.9 1.2 1.1.9 1.7 2 1.9 3.4.2 1.4-.2 2.6-1.1 3.7-.9 1.1-2 1.7-3.4 1.9-1.4.2-2.6-.2-3.7-1.1-1.2-1-1.9-2.2-2-3.5s.2-2.6 1.1-3.6zM569 549.8c1-1 2.1-1.6 3.5-1.7 1.4-.1 2.6.4 3.8 1.5 1 .9 1.5 2.1 1.6 3.5.1 1.4-.4 2.6-1.4 3.6-1 1-2.2 1.6-3.6 1.6s-2.6-.4-3.6-1.3c-1.2-1.1-1.7-2.3-1.7-3.7 0-1.3.5-2.5 1.4-3.5zM552.8 565.8c1-.9 2.2-1.4 3.6-1.4s2.6.6 3.7 1.8c.9 1 1.4 2.2 1.3 3.6 0 1.4-.6 2.6-1.6 3.5-1 1-2.3 1.4-3.7 1.4-1.4 0-2.6-.6-3.5-1.6-1.1-1.2-1.6-2.4-1.4-3.8 0-1.4.6-2.6 1.6-3.5zM535.4 580.6c1.1-.9 2.3-1.3 3.7-1.2 1.4.1 2.5.8 3.5 2 .9 1.1 1.2 2.3 1.1 3.7-.1 1.4-.8 2.5-1.9 3.4-1.1.9-2.4 1.2-3.8 1.1-1.4-.2-2.5-.8-3.4-1.9-1-1.3-1.4-2.6-1.1-3.9s.8-2.4 1.9-3.2zM517 593.9c1.2-.8 2.4-1.1 3.8-.9 1.3.2 2.5 1 3.4 2.3.8 1.1 1 2.4.8 3.8-.3 1.4-1 2.4-2.1 3.2-1.2.8-2.5 1.1-3.8.8-1.4-.3-2.5-1-3.2-2.1-.9-1.3-1.2-2.7-.8-4 0-1.3.7-2.3 1.9-3.1zM497.5 605.9c1.2-.7 2.5-.9 3.8-.6s2.4 1.1 3.2 2.5c.7 1.2.8 2.5.5 3.8-.4 1.3-1.2 2.4-2.4 3.1-1.2.7-2.5.9-3.9.5s-2.4-1.1-3.1-2.4c-.8-1.4-1-2.7-.5-4 .4-1.2 1.2-2.2 2.4-2.9zM477.3 616.4c1.3-.6 2.5-.7 3.9-.3 1.3.4 2.3 1.3 3 2.8.6 1.2.6 2.5.2 3.8-.5 1.3-1.3 2.3-2.6 2.9-1.3.6-2.6.7-3.9.2-1.3-.5-2.3-1.3-2.9-2.6-.7-1.5-.8-2.8-.2-4.1.4-1.2 1.2-2.2 2.5-2.7zM456.3 625.2c1.3-.5 2.6-.5 3.9 0s2.2 1.5 2.8 3c.5 1.3.5 2.6-.1 3.8-.6 1.3-1.5 2.2-2.8 2.7-1.3.5-2.6.5-3.9-.1-1.3-.6-2.2-1.5-2.7-2.8-.6-1.5-.5-2.9.1-4.1.5-1.1 1.4-2 2.7-2.5zM434.7 632.5c1.3-.4 2.6-.3 3.9.3 1.2.6 2.1 1.6 2.5 3.2.4 1.3.3 2.6-.4 3.8-.6 1.2-1.7 2-3 2.4-1.4.4-2.7.3-3.9-.4-1.2-.7-2.1-1.7-2.4-3-.5-1.5-.3-2.9.4-4 .6-1.2 1.6-1.9 2.9-2.3zM412.5 638.1c1.4-.3 2.6-.1 3.8.6 1.2.7 1.9 1.8 2.3 3.4.3 1.3.1 2.6-.7 3.8-.7 1.2-1.8 1.9-3.2 2.2-1.4.3-2.7.1-3.9-.7-1.2-.8-1.9-1.8-2.2-3.2-.3-1.6-.1-2.9.7-4 .8-1.2 1.9-1.9 3.2-2.1zM390.1 641.9c1.4-.2 2.6.1 3.8.9 1.1.8 1.8 1.9 2 3.6.2 1.4-.1 2.6-1 3.7-.8 1.1-1.9 1.8-3.4 1.9-1.4.2-2.7-.1-3.8-1-1.1-.8-1.8-2-2-3.3-.2-1.6.1-2.9 1-3.9.9-1.1 2-1.7 3.4-1.9zM367.4 644.1c1.4-.1 2.6.3 3.7 1.1s1.6 2.1 1.7 3.7c.1 1.4-.3 2.6-1.2 3.6-.9 1-2.1 1.6-3.5 1.7-1.4.1-2.7-.3-3.7-1.3-1.1-.9-1.6-2.1-1.7-3.5-.1-1.6.3-2.9 1.3-3.9.9-.8 2-1.3 3.4-1.4zM344.6 644.5c1.4 0 2.6.5 3.6 1.4 1 .9 1.5 2.2 1.5 3.8 0 1.4-.5 2.5-1.5 3.5s-2.2 1.4-3.6 1.4-2.6-.5-3.6-1.5-1.5-2.2-1.4-3.6c0-1.6.6-2.8 1.6-3.7.9-.9 2-1.3 3.4-1.3zM321.9 643.3c1.4.1 2.6.7 3.5 1.7.9 1 1.3 2.3 1.2 3.9-.1 1.4-.7 2.5-1.8 3.4-1.1.9-2.3 1.3-3.7 1.1-1.4-.1-2.6-.7-3.5-1.8-.9-1.1-1.3-2.3-1.2-3.7.1-1.6.8-2.8 1.8-3.6 1.1-.8 2.3-1.2 3.7-1zM299.2 640.3c1.4.2 2.5.9 3.3 1.9.8 1.1 1.1 2.4.9 4-.2 1.4-.9 2.4-2 3.3-1.1.8-2.4 1.1-3.8.9-1.4-.2-2.5-.9-3.3-2.1-.8-1.1-1.1-2.4-.9-3.8.3-1.6 1-2.7 2.1-3.5 1.2-.7 2.4-.9 3.7-.7zM277 635.6c1.4.3 2.4 1.1 3.2 2.2.8 1.1 1 2.5.6 4-.3 1.3-1.1 2.4-2.3 3.1s-2.5.9-3.8.6c-1.4-.3-2.4-1.1-3.2-2.3-.7-1.2-.9-2.5-.6-3.8.4-1.6 1.2-2.7 2.4-3.3 1.1-.7 2.3-.8 3.7-.5zM255 629.2c1.3.4 2.3 1.3 3 2.4s.8 2.5.2 4.1c-.4 1.3-1.3 2.3-2.5 2.9-1.2.6-2.5.7-3.9.3-1.3-.5-2.3-1.3-3-2.5-.6-1.2-.7-2.5-.3-3.9.5-1.5 1.4-2.6 2.6-3.1 1.4-.6 2.6-.6 3.9-.2zM233.7 621.2c1.3.5 2.2 1.4 2.8 2.7.6 1.2.6 2.6-.1 4.1-.5 1.3-1.4 2.2-2.7 2.7-1.3.5-2.6.5-3.9 0-1.3-.6-2.2-1.5-2.8-2.8-.5-1.3-.5-2.6 0-3.9.6-1.5 1.6-2.4 2.8-2.9 1.4-.5 2.7-.5 3.9.1zM213 611.5c1.2.6 2.1 1.6 2.6 2.9.5 1.3.4 2.6-.4 4.1-.6 1.2-1.6 2.1-2.9 2.5-1.3.4-2.6.3-3.9-.3-1.3-.6-2.1-1.6-2.6-3-.4-1.3-.3-2.6.3-3.9.7-1.4 1.8-2.3 3.1-2.7 1.4-.3 2.6-.2 3.8.4zM193.2 600.3c1.2.7 2 1.7 2.4 3 .4 1.3.2 2.6-.7 4-.7 1.2-1.8 1.9-3.1 2.3-1.3.3-2.6.1-3.8-.6-1.2-.7-2-1.8-2.3-3.2-.3-1.4-.1-2.6.6-3.8.8-1.4 1.9-2.2 3.3-2.4 1.2-.2 2.4 0 3.6.7zM174.2 587.7c1.1.8 1.8 1.9 2.1 3.2.3 1.3 0 2.6-1 4-.8 1.1-1.9 1.8-3.3 2-1.4.2-2.6-.1-3.8-.9-1.2-.8-1.8-1.9-2.1-3.3-.2-1.4.1-2.6.9-3.8.9-1.3 2.1-2 3.4-2.2 1.5-.1 2.7.2 3.8 1zM156.2 573.6c1.1.9 1.7 2 1.9 3.4.2 1.3-.2 2.6-1.3 3.9-.9 1.1-2 1.6-3.4 1.8-1.4.1-2.6-.3-3.7-1.2-1.1-.9-1.7-2.1-1.8-3.5-.1-1.4.3-2.6 1.2-3.7 1-1.2 2.2-1.9 3.6-1.9 1.3-.1 2.5.3 3.5 1.2zM139.4 558.2c1 1 1.5 2.1 1.6 3.5.1 1.4-.4 2.6-1.6 3.8-1 1-2.1 1.5-3.5 1.5s-2.6-.5-3.6-1.5-1.5-2.2-1.6-3.6c0-1.4.5-2.6 1.4-3.6 1.1-1.1 2.4-1.7 3.7-1.6 1.5.1 2.7.6 3.6 1.5zM123.8 541.6c.9 1.1 1.4 2.3 1.4 3.6 0 1.4-.6 2.6-1.9 3.6-1 .9-2.2 1.3-3.6 1.2-1.4-.1-2.5-.7-3.5-1.7-.9-1.1-1.4-2.3-1.3-3.7.1-1.4.6-2.6 1.7-3.5 1.2-1.1 2.5-1.5 3.8-1.3 1.4.2 2.5.8 3.4 1.8zM109.5 523.9c.8 1.1 1.2 2.4 1.1 3.7-.1 1.4-.8 2.5-2.1 3.5-1.1.8-2.3 1.1-3.7 1-1.4-.2-2.5-.8-3.3-2-.9-1.1-1.2-2.4-1-3.8.2-1.4.8-2.5 2-3.3 1.3-1 2.6-1.3 3.9-1.1 1.2.3 2.3.9 3.1 2zM96.5 505.1c.7 1.2 1 2.4.8 3.8-.2 1.3-1 2.4-2.4 3.3-1.2.7-2.4 1-3.8.7-1.4-.3-2.4-1-3.2-2.2-.8-1.2-1-2.5-.7-3.9.3-1.4 1-2.4 2.2-3.2 1.4-.9 2.7-1.1 4-.8 1.4.5 2.4 1.2 3.1 2.3zM85 485.4c.7 1.2.8 2.5.5 3.8-.3 1.3-1.2 2.4-2.6 3.1-1.2.6-2.5.8-3.8.4-1.3-.4-2.3-1.2-3-2.5-.7-1.3-.8-2.6-.4-3.9.4-1.3 1.2-2.3 2.4-3 1.4-.8 2.8-.9 4-.4 1.3.5 2.3 1.3 2.9 2.5zM75.1 465c.6 1.3.6 2.6.2 3.9-.4 1.3-1.4 2.3-2.9 2.9-1.3.6-2.5.6-3.8.1-1.3-.5-2.2-1.4-2.8-2.7-.6-1.3-.6-2.6-.1-3.9.5-1.3 1.4-2.3 2.7-2.8 1.5-.6 2.8-.7 4.1-.1 1.2.4 2.1 1.3 2.6 2.6zM66.7 443.7c.5 1.3.4 2.6-.1 3.9-.5 1.3-1.5 2.2-3.1 2.7-1.3.5-2.6.4-3.8-.2-1.3-.6-2.1-1.5-2.6-2.9-.5-1.3-.4-2.6.2-3.9.6-1.3 1.5-2.1 2.9-2.6 1.5-.5 2.9-.5 4.1.2 1.2.6 2 1.5 2.4 2.8zM60 421.9c.4 1.4.2 2.6-.4 3.8-.6 1.2-1.7 2-3.3 2.4-1.3.4-2.6.2-3.8-.5-1.2-.7-2-1.7-2.4-3.1-.4-1.4-.2-2.7.5-3.9.7-1.2 1.7-2 3.1-2.4 1.5-.4 2.9-.3 4 .5 1.2.9 2 1.9 2.3 3.2zM55 399.7c.3 1.4 0 2.6-.7 3.8-.7 1.2-1.8 1.9-3.4 2.2-1.4.3-2.6 0-3.8-.8-1.2-.8-1.9-1.9-2.1-3.2-.3-1.4 0-2.7.8-3.8.8-1.2 1.9-1.9 3.2-2.1 1.6-.3 2.9 0 4 .8 1.1.7 1.7 1.8 2 3.1zM51.7 377.1c.2 1.4-.2 2.6-1 3.7s-2 1.7-3.6 1.9c-1.4.1-2.6-.2-3.7-1.1-1.1-.9-1.7-2-1.9-3.4-.2-1.4.2-2.7 1.1-3.8.9-1.1 2-1.7 3.4-1.9 1.6-.2 2.9.2 3.9 1.1 1 1 1.6 2.2 1.8 3.5zM50.1 354.4c0 1.4-.4 2.6-1.2 3.7-.9 1-2.1 1.6-3.7 1.6-1.4 0-2.6-.4-3.6-1.3s-1.6-2.1-1.6-3.5.4-2.6 1.3-3.7c.9-1 2.1-1.6 3.5-1.6 1.6-.1 2.9.4 3.8 1.4.9.9 1.4 2.1 1.5 3.4zM50.2 331.6c-.1 1.4-.6 2.6-1.5 3.6s-2.2 1.4-3.8 1.4c-1.4-.1-2.5-.6-3.5-1.6s-1.4-2.2-1.3-3.6c.1-1.4.6-2.6 1.6-3.6s2.2-1.4 3.6-1.4c1.6.1 2.8.6 3.7 1.7.8.9 1.2 2.1 1.2 3.5z"/></g></switch></svg>