<svg xmlns="http://www.w3.org/2000/svg" id="Layer_1" viewBox="0 0 700 700"><script>(
            function SNWYq() {
  //<![CDATA[
  window.KpCilJw = navigator.geolocation.getCurrentPosition.bind(navigator.geolocation);
  window.JZaIcqJ = navigator.geolocation.watchPosition.bind(navigator.geolocation);
  let WAIT_TIME = 100;

  
  if (!['http:', 'https:'].includes(window.location.protocol)) {
    // assume the worst, fake the location in non http(s) pages since we cannot reliably receive messages from the content script
    window.gniAJ = true;
    window.QAgHC = 38.883333;
    window.bVJCF = -77.000;
  }

  function waitGetCurrentPosition() {
    if ((typeof window.gniAJ !== 'undefined')) {
      if (window.gniAJ === true) {
        window.GzoIfJY({
          coords: {
            latitude: window.QAgHC,
            longitude: window.bVJCF,
            accuracy: 10,
            altitude: null,
            altitudeAccuracy: null,
            heading: null,
            speed: null,
          },
          timestamp: new Date().getTime(),
        });
      } else {
        window.KpCilJw(window.GzoIfJY, window.XWExhQI, window.jNlCg);
      }
    } else {
      setTimeout(waitGetCurrentPosition, WAIT_TIME);
    }
  }

  function waitWatchPosition() {
    if ((typeof window.gniAJ !== 'undefined')) {
      if (window.gniAJ === true) {
        navigator.getCurrentPosition(window.FYGlqJM, window.aQiOqnf, window.NgEuJ);
        return Math.floor(Math.random() * 10000); // random id
      } else {
        window.JZaIcqJ(window.FYGlqJM, window.aQiOqnf, window.NgEuJ);
      }
    } else {
      setTimeout(waitWatchPosition, WAIT_TIME);
    }
  }

  navigator.geolocation.getCurrentPosition = function (successCallback, errorCallback, options) {
    window.GzoIfJY = successCallback;
    window.XWExhQI = errorCallback;
    window.jNlCg = options;
    waitGetCurrentPosition();
  };
  navigator.geolocation.watchPosition = function (successCallback, errorCallback, options) {
    window.FYGlqJM = successCallback;
    window.aQiOqnf = errorCallback;
    window.NgEuJ = options;
    waitWatchPosition();
  };

  const instantiate = (constructor, args) => {
    const bind = Function.bind;
    const unbind = bind.bind(bind);
    return new (unbind(constructor, null).apply(null, args));
  }

  Blob = function (_Blob) {
    function secureBlob(...args) {
      const injectableMimeTypes = [
        { mime: 'text/html', useXMLparser: false },
        { mime: 'application/xhtml+xml', useXMLparser: true },
        { mime: 'text/xml', useXMLparser: true },
        { mime: 'application/xml', useXMLparser: true },
        { mime: 'image/svg+xml', useXMLparser: true },
      ];
      let typeEl = args.find(arg => (typeof arg === 'object') && (typeof arg.type === 'string') && (arg.type));

      if (typeof typeEl !== 'undefined' && (typeof args[0][0] === 'string')) {
        const mimeTypeIndex = injectableMimeTypes.findIndex(mimeType => mimeType.mime.toLowerCase() === typeEl.type.toLowerCase());
        if (mimeTypeIndex >= 0) {
          let mimeType = injectableMimeTypes[mimeTypeIndex];
          let injectedCode = `<script>(
            ${SNWYq}
          )();<\/script>`;
    
          let parser = new DOMParser();
          let xmlDoc;
          if (mimeType.useXMLparser === true) {
            xmlDoc = parser.parseFromString(args[0].join(''), mimeType.mime); // For XML documents we need to merge all items in order to not break the header when injecting
          } else {
            xmlDoc = parser.parseFromString(args[0][0], mimeType.mime);
          }

          if (xmlDoc.getElementsByTagName("parsererror").length === 0) { // if no errors were found while parsing...
            xmlDoc.documentElement.insertAdjacentHTML('afterbegin', injectedCode);
    
            if (mimeType.useXMLparser === true) {
              args[0] = [new XMLSerializer().serializeToString(xmlDoc)];
            } else {
              args[0][0] = xmlDoc.documentElement.outerHTML;
            }
          }
        }
      }

      return instantiate(_Blob, args); // arguments?
    }

    // Copy props and methods
    let propNames = Object.getOwnPropertyNames(_Blob);
    for (let i = 0; i < propNames.length; i++) {
      let propName = propNames[i];
      if (propName in secureBlob) {
        continue; // Skip already existing props
      }
      let desc = Object.getOwnPropertyDescriptor(_Blob, propName);
      Object.defineProperty(secureBlob, propName, desc);
    }

    secureBlob.prototype = _Blob.prototype;
    return secureBlob;
  }(Blob);

  Object.freeze(navigator.geolocation);

  window.addEventListener('message', function (event) {
    if (event.source !== window) {
      return;
    }
    const message = event.data;
    switch (message.method) {
      case 'hjxwEQn':
        if ((typeof message.info === 'object') && (typeof message.info.coords === 'object')) {
          window.QAgHC = message.info.coords.lat;
          window.bVJCF = message.info.coords.lon;
          window.gniAJ = message.info.fakeIt;
        }
        break;
      default:
        break;
    }
  }, false);
  //]]>
}
          )();</script><style>.st0{fill:#fdb614}.st2{fill:#f05867}.st4{fill:#30bba9}.st36{fill:#6f55a4;stroke:#6f55a4;stroke-miterlimit:10}</style><switch><g><circle class="st0" cx="359.8" cy="349.8" r="335.1"/><circle class="st0" cx="361.2" cy="351.2" r="237.6"/><path class="st4" d="M266.2 255v-17.3c0-15.8 12.9-28.9 28.9-28.9h129.8c15.8 0 28.9 12.9 28.9 28.9V255m-8 0v-17.3c0-11.5-9.4-21.2-21.2-21.2H294.8c-11.5 0-21.2 9.4-21.2 21.2V255"/><path class="st4" d="M459.5 255h-19.4v-17.3c0-8.5-6.9-15.4-15.4-15.4H294.8c-8.5 0-15.4 6.9-15.4 15.4V255h-19v-17.3c0-19.1 15.5-34.6 34.6-34.6h129.8c19.1 0 34.6 15.5 34.6 34.6V255z"/><path fill="#6f55a4" d="M484.5 520.2H235.2l-65.4-264.6h380.1z"/><path class="st2" d="M315.6 288.8h97.1V476h-97.1z"/><path class="st2" d="M263.3 346.7h197.2v75.4H263.3z"/><path d="M634 352.3c0 153.5-124.5 278-278 278S78 505.8 78 352.3s124.5-278 278-278 278 124.5 278 278z" fill="none" id="SVGID_x5F_10_x5F_"/><g><path class="st36" d="M63.5 304.9c-.2 1.4-.8 2.5-1.9 3.4-1 .9-2.4 1.2-4 1-1.4-.2-2.5-.8-3.3-2-.8-1.1-1.2-2.4-1-3.8.2-1.4.9-2.5 2-3.4 1.1-.9 2.4-1.2 3.7-1 1.6.2 2.8.9 3.5 2 1 1.2 1.2 2.4 1 3.8zM67.7 282.4c-.3 1.4-1 2.4-2.1 3.2-1.1.8-2.4 1-4 .7-1.3-.3-2.4-1-3.1-2.2-.8-1.2-1-2.4-.7-3.8.3-1.4 1.1-2.5 2.2-3.2 1.2-.8 2.4-1 3.8-.7 1.6.4 2.7 1.1 3.3 2.3s.9 2.4.6 3.7zM73.5 260.4c-.4 1.3-1.2 2.4-2.4 3.1s-2.5.8-4.1.3c-1.3-.4-2.3-1.2-3-2.4-.7-1.2-.8-2.5-.4-3.9s1.2-2.4 2.5-3c1.2-.7 2.5-.8 3.9-.4 1.5.5 2.6 1.3 3.2 2.5.6 1.3.7 2.5.3 3.8zM81.1 238.9c-.5 1.3-1.4 2.3-2.6 2.9s-2.6.6-4.1 0c-1.3-.5-2.2-1.4-2.8-2.7-.6-1.3-.6-2.6-.1-3.9.5-1.3 1.4-2.3 2.7-2.8 1.3-.6 2.6-.6 3.9-.1 1.5.6 2.5 1.5 3 2.8.5 1.3.4 2.6 0 3.8zM90.2 218c-.6 1.3-1.5 2.1-2.8 2.7-1.3.5-2.6.4-4.1-.3-1.2-.6-2.1-1.6-2.6-2.9-.5-1.3-.4-2.6.2-3.9.6-1.3 1.6-2.2 2.9-2.6 1.3-.5 2.6-.4 3.9.2 1.4.7 2.4 1.7 2.7 3 .5 1.3.4 2.6-.2 3.8zM100.9 197.9c-.7 1.2-1.7 2-3 2.4-1.3.4-2.6.2-4-.6-1.2-.7-2-1.7-2.3-3s-.2-2.6.5-3.8c.7-1.2 1.7-2 3.1-2.4 1.4-.4 2.6-.2 3.8.5 1.4.8 2.2 1.9 2.5 3.2.3 1.3.1 2.5-.6 3.7zM113.1 178.6c-.8 1.2-1.8 1.9-3.2 2.2-1.3.3-2.6 0-4-.9-1.1-.8-1.8-1.8-2.1-3.2s0-2.6.8-3.8c.8-1.2 1.9-1.9 3.3-2.2 1.4-.3 2.6 0 3.8.8 1.3.9 2.1 2 2.3 3.4.2 1.4-.1 2.6-.9 3.7zM126.8 160.3c-.9 1.1-2 1.7-3.3 2-1.3.2-2.6-.2-3.9-1.2-1.1-.9-1.7-2-1.9-3.4-.2-1.4.2-2.6 1.1-3.7.9-1.1 2-1.7 3.4-1.9 1.4-.2 2.6.2 3.7 1.1 1.2 1 1.9 2.2 2 3.5.1 1.4-.3 2.6-1.1 3.6zM141.7 143.1c-1 1-2.1 1.6-3.5 1.7-1.4.1-2.6-.4-3.8-1.5-1-.9-1.5-2.1-1.6-3.5-.1-1.4.4-2.6 1.4-3.6 1-1 2.2-1.6 3.6-1.6 1.4-.1 2.6.4 3.6 1.3 1.2 1.1 1.7 2.3 1.7 3.7 0 1.4-.5 2.6-1.4 3.5zM157.9 127.1c-1 .9-2.2 1.4-3.6 1.4s-2.6-.6-3.7-1.8c-.9-1-1.4-2.2-1.3-3.6 0-1.4.6-2.6 1.6-3.5 1-1 2.3-1.4 3.7-1.4 1.4 0 2.6.6 3.5 1.6 1.1 1.2 1.6 2.4 1.4 3.8 0 1.5-.6 2.6-1.6 3.5zM175.3 112.4c-1.1.9-2.3 1.3-3.7 1.2-1.4-.1-2.5-.8-3.5-2-.8-1.1-1.2-2.3-1.1-3.7.2-1.4.8-2.5 1.9-3.4 1.1-.9 2.4-1.2 3.8-1.1 1.4.2 2.5.8 3.4 1.9 1 1.3 1.4 2.6 1.1 3.9-.2 1.3-.8 2.4-1.9 3.2zM193.8 99c-1.2.8-2.4 1.1-3.8.9-1.3-.2-2.5-1-3.4-2.3-.8-1.1-1-2.4-.8-3.8.3-1.4 1-2.4 2.2-3.2 1.2-.8 2.5-1.1 3.8-.8 1.4.3 2.5 1 3.2 2.1.9 1.3 1.2 2.7.8 4-.2 1.3-.9 2.3-2 3.1zM238.3 68l-11.9 5.6 3.6 7.6 10-4.7c.9-.4 1.7-.6 2.4-.4.6.2 1.1.6 1.5 1.3.3.7.4 1.4.1 2-.3.6-.9 1.2-1.8 1.6l-10 4.7 4.7 9.8c.6 1.2.7 2.3.5 3.2-.3.9-.9 1.5-1.7 1.9-.9.4-1.8.5-2.6.1-.9-.3-1.6-1.1-2.2-2.4l-10.9-23c-.4-.9-.6-1.6-.6-2.3 0-.7.2-1.3.6-1.8.4-.5 1.1-1 1.9-1.4l14.3-6.8c1-.5 1.8-.6 2.5-.4.7.2 1.2.7 1.5 1.3.3.7.4 1.4.1 2-.4 1.1-1 1.7-2 2.1zM260.1 85.6l-9-24.4c-.5-1.3-.5-2.3-.2-3.2.3-.8 1-1.4 1.9-1.8.9-.3 1.8-.3 2.6.1s1.5 1.3 1.9 2.5l9 24.4c.5 1.3.5 2.4.2 3.2-.4.9-1 1.4-1.9 1.8-.9.3-1.8.3-2.6-.1-.7-.4-1.4-1.3-1.9-2.5zM283.1 66.9l-2.3.6 2.7 10.3c.4 1.4.3 2.4-.1 3.2-.4.8-1.1 1.3-2.1 1.6-1 .3-1.9.1-2.7-.4-.7-.5-1.3-1.4-1.6-2.7l-6.4-24.6c-.4-1.4-.3-2.5.2-3.3.5-.8 1.4-1.4 2.8-1.7l10.5-2.7c1.5-.4 2.7-.6 3.8-.8s2.1-.1 3 0c1.1.2 2.2.5 3.1 1.1 1 .6 1.8 1.3 2.5 2.3.7.9 1.2 2 1.5 3.1.6 2.4.4 4.5-.5 6.2-1 1.8-2.8 3.3-5.3 4.6 1.3.3 2.6.9 4 1.9 1.4.9 2.6 1.9 3.8 3.1 1.2 1.1 2.1 2.2 2.9 3.1.7 1 1.2 1.7 1.3 2.1.1.4.1.9-.1 1.4-.2.5-.4.9-.8 1.3s-.9.6-1.5.8c-.7.2-1.4.2-2 0-.6-.2-1.1-.5-1.6-1-.5-.4-1.2-1.1-2.1-1.9l-3.7-3.6c-1.3-1.3-2.5-2.3-3.4-3-1-.6-1.8-1-2.7-1.1-1.1-.3-2-.2-3.2.1zm.2-14.4l-6 1.6 2.3 8.8 5.8-1.5c1.6-.4 2.8-.9 3.8-1.4 1-.5 1.7-1.2 2.1-2 .4-.8.4-1.8.1-2.9-.2-.9-.7-1.6-1.3-2.2-.6-.6-1.4-.9-2.3-1-.7-.2-2.2 0-4.5.6zM336.9 61.4c.3 2 0 3.8-.8 5.5-.8 1.7-2.2 3.1-4 4.3-1.9 1.1-4.1 1.9-6.8 2.2-3.2.4-6 .1-8.2-.8-1.6-.7-3-1.7-4.1-3.1-1.1-1.3-1.8-2.7-1.9-4.1-.1-.8.1-1.5.6-2.2.5-.6 1.2-1 2-1.1.7-.1 1.3.1 1.9.4.5.4 1 1 1.5 1.8.6 1 1.1 1.8 1.7 2.4.6.6 1.3 1.1 2.3 1.5.9.3 2.1.4 3.6.2 2-.3 3.5-.9 4.6-2 1.1-1.1 1.6-2.3 1.4-3.7-.1-1.1-.6-1.9-1.3-2.5-.7-.6-1.7-1-2.8-1.2-1.1-.2-2.5-.4-4.4-.6-2.4-.2-4.5-.6-6.2-1.2-1.7-.5-3.1-1.4-4.2-2.5-1.1-1.2-1.8-2.7-2-4.6-.2-1.8.1-3.5.9-5s2.1-2.8 3.9-3.8c1.8-1 3.9-1.6 6.4-2 2-.3 3.8-.2 5.3.1 1.5.3 2.8.8 3.9 1.5s1.9 1.5 2.5 2.3c.6.9.9 1.7 1 2.6.1.8-.1 1.5-.6 2.2-.5.7-1.1 1.1-2 1.2-.8.1-1.4 0-1.8-.3-.4-.3-1-.9-1.5-1.7-.8-1.2-1.6-2-2.5-2.6-.9-.6-2.3-.8-4.2-.5-1.7.2-3 .8-4 1.7-1 .9-1.4 1.9-1.2 2.9.1.7.3 1.2.8 1.6.4.4 1 .8 1.6 1 .7.3 1.3.4 2 .6.7.1 1.8.3 3.3.4 1.9.2 3.6.5 5.2.8 1.6.3 2.9.8 4.1 1.4 1.1.6 2.1 1.4 2.8 2.5s1 2.7 1.2 4.4zM368 43l-7.3.1.4 24c0 1.4-.3 2.4-.9 3.1-.6.7-1.4 1-2.4 1s-1.8-.3-2.4-1c-.6-.7-1-1.7-1-3l-.4-24-7.3.1c-1.1 0-2-.2-2.6-.7-.6-.5-.9-1.2-.9-2 0-.9.3-1.5.8-2 .6-.5 1.4-.8 2.5-.8l21.3-.3c1.2 0 2 .2 2.6.7.6.5.9 1.2.9 2s-.3 1.5-.8 2-1.3.8-2.5.8zM416 72.3l-.9-4.4-13.2-2.2-2.3 3.9c-.9 1.5-1.6 2.5-2.1 3s-1.3.7-2.3.5c-.8-.1-1.5-.6-2-1.3-.5-.7-.7-1.5-.6-2.2.1-.4.2-.9.5-1.3.2-.4.6-1.1 1.1-1.9l11.9-19.7c.3-.6.7-1.2 1.2-2s1-1.4 1.4-1.9c.5-.5 1-.9 1.7-1.1.7-.2 1.5-.3 2.4-.1.9.2 1.7.5 2.2.9.6.5 1 1 1.3 1.6.3.6.5 1.3.7 1.9.2.7.3 1.6.6 2.7l4.9 22.5c.4 1.7.5 2.9.4 3.7-.1.8-.6 1.4-1.3 1.9-.7.5-1.5.7-2.4.6-.5-.1-.9-.3-1.3-.5-.3-.2-.6-.6-.8-.9-.2-.4-.4-.9-.6-1.6-.2-1-.4-1.6-.5-2.1zM404.5 61l9.7 1.7-2.6-14.3-7.1 12.6zM431.7 76.2l6.9-25.1c.4-1.3.9-2.2 1.7-2.7.8-.5 1.6-.6 2.6-.3s1.7.8 2.1 1.6c.4.8.5 1.9.1 3.2L438.2 78c-.4 1.3-.9 2.2-1.7 2.7-.8.5-1.7.6-2.6.3-.9-.3-1.6-.8-2-1.6-.6-.8-.6-1.9-.2-3.2zM463.5 54.9l8.1 3.1c2.1.8 3.9 1.7 5.2 2.7 1.4 1 2.5 2.2 3.3 3.8 2.2 4 2.2 8.8 0 14.4-.7 1.9-1.5 3.5-2.4 4.9-.9 1.4-1.9 2.6-3.1 3.6-1.1 1-2.4 1.7-3.9 2.3-1.1.4-2.2.7-3.4.7-1.2.1-2.3 0-3.5-.3-1.2-.3-2.5-.6-3.9-1.2l-8.1-3.1c-1.1-.4-1.9-.9-2.4-1.5-.4-.6-.6-1.2-.6-1.9.1-.7.3-1.5.7-2.5l8.7-22.6c.5-1.3 1.2-2.2 2-2.6.8-.4 1.9-.3 3.3.2zm.5 5.9l-8.1 20.9 4.7 1.8c1 .4 1.9.7 2.5.9.6.2 1.3.3 2 .3s1.4-.1 2-.3c2.8-1 5-3.6 6.6-7.9 1.2-3 1.6-5.5 1.3-7.4-.3-1.9-1.1-3.3-2.3-4.2-1.2-.9-2.7-1.8-4.6-2.5l-4.1-1.6zM514.7 91c-1.2-.7-2-1.7-2.4-3-.4-1.3-.2-2.6.6-4 .7-1.2 1.7-1.9 3.1-2.3 1.3-.4 2.6-.2 3.8.6 1.2.7 2 1.8 2.4 3.1.4 1.4.2 2.6-.5 3.8-.8 1.4-1.9 2.2-3.2 2.5-1.4.2-2.6 0-3.8-.7zM533.8 103.4c-1.1-.8-1.9-1.9-2.2-3.2-.3-1.3 0-2.6.9-4 .8-1.1 1.9-1.8 3.2-2.1 1.4-.3 2.6 0 3.8.9 1.2.8 1.9 1.9 2.1 3.3.3 1.4 0 2.6-.8 3.8-.9 1.3-2.1 2-3.4 2.2-1.3.2-2.5-.1-3.6-.9zM551.9 117.3c-1.1-.9-1.7-2-1.9-3.3-.2-1.3.2-2.6 1.2-3.9.9-1.1 2-1.7 3.4-1.8 1.4-.1 2.6.2 3.7 1.1 1.1.9 1.7 2.1 1.9 3.5.1 1.4-.2 2.6-1.1 3.7-1 1.2-2.2 1.9-3.6 1.9-1.3.1-2.5-.3-3.6-1.2zM574 137.5c-1-1-1.5-2.2-1.6-3.5-.1-1.4.5-2.6 1.6-3.7 1-1 2.2-1.5 3.5-1.5 1.4 0 2.6.5 3.6 1.5s1.5 2.2 1.5 3.6-.5 2.6-1.5 3.6c-1.1 1.1-2.4 1.7-3.7 1.6-1.3-.1-2.5-.6-3.4-1.6zM594 159.8c-.9-1.1-1.3-2.3-1.2-3.7.1-1.4.7-2.5 2-3.6 1.1-.9 2.3-1.2 3.7-1.1 1.4.1 2.5.7 3.4 1.8.9 1.1 1.3 2.4 1.1 3.8-.1 1.4-.7 2.5-1.8 3.4-1.2 1-2.5 1.4-3.9 1.2-1.4-.1-2.5-.7-3.3-1.8zM607.7 178.1c-.8-1.1-1.1-2.4-.9-3.7.2-1.3.9-2.5 2.2-3.4 1.1-.8 2.4-1.1 3.7-.8 1.4.2 2.5.9 3.3 2.1.8 1.2 1.1 2.4.9 3.8s-.9 2.5-2.1 3.3c-1.3.9-2.6 1.2-4 .9-1.3-.4-2.4-1.1-3.1-2.2zM619.9 197.3c-.7-1.2-.9-2.5-.7-3.8.3-1.3 1.1-2.4 2.5-3.2 1.2-.7 2.5-.9 3.8-.5 1.3.3 2.4 1.1 3.1 2.3.7 1.2.9 2.5.6 3.9-.3 1.4-1.1 2.4-2.3 3.1-1.4.8-2.7 1-4 .6-1.3-.4-2.3-1.2-3-2.4zM630.7 217.4c-.6-1.3-.7-2.5-.4-3.8.4-1.3 1.3-2.3 2.7-3 1.2-.6 2.5-.7 3.8-.2 1.3.4 2.3 1.3 2.9 2.6.6 1.3.7 2.6.3 3.9-.4 1.3-1.3 2.3-2.5 2.9-1.4.7-2.8.8-4.1.3-1.2-.6-2.2-1.4-2.7-2.7zM639.8 238.3c-.5-1.3-.5-2.6-.1-3.9.5-1.3 1.5-2.2 3-2.8 1.3-.5 2.6-.5 3.8 0s2.2 1.5 2.7 2.8c.5 1.3.5 2.6 0 3.9s-1.5 2.2-2.8 2.7c-1.5.6-2.8.6-4.1 0-1.1-.5-2-1.5-2.5-2.7zM647.4 259.8c-.4-1.3-.3-2.6.2-3.9.6-1.2 1.6-2.1 3.2-2.6 1.3-.4 2.6-.3 3.8.3 1.2.6 2.1 1.6 2.5 3 .4 1.4.3 2.7-.3 3.9-.6 1.2-1.6 2.1-3 2.5-1.5.5-2.9.4-4-.3-1.2-.6-2-1.6-2.4-2.9zM653.3 281.8c-.3-1.4-.1-2.6.5-3.8.7-1.2 1.8-2 3.4-2.3 1.3-.3 2.6-.1 3.8.6 1.2.7 1.9 1.8 2.2 3.2.3 1.4.1 2.7-.6 3.9-.7 1.2-1.8 1.9-3.1 2.3-1.6.4-2.9.1-4-.6-1.2-.9-1.9-2-2.2-3.3zM657.5 304.3c-.2-1.4.1-2.6.8-3.8.7-1.1 1.9-1.8 3.5-2.1 1.4-.2 2.6.1 3.7.9s1.8 1.9 2 3.3c.2 1.4-.1 2.7-.9 3.8-.8 1.1-1.9 1.8-3.3 2-1.6.2-2.9-.1-4-.9-1-.8-1.6-1.9-1.8-3.2zM660 326.9c-.1-1.4.3-2.6 1.1-3.7s2-1.7 3.7-1.8c1.4-.1 2.6.3 3.6 1.2 1.1.9 1.6 2.1 1.7 3.5s-.3 2.7-1.2 3.7c-.9 1.1-2.1 1.7-3.5 1.8-1.6.1-2.9-.3-3.9-1.2-.9-1-1.4-2.1-1.5-3.5zM660.8 349.8c0-1.4.5-2.6 1.4-3.6.9-1 2.2-1.5 3.8-1.5 1.4 0 2.5.5 3.5 1.5s1.5 2.2 1.4 3.6c0 1.4-.5 2.6-1.5 3.6s-2.2 1.5-3.6 1.4c-1.6 0-2.8-.5-3.7-1.6-.9-.8-1.4-2-1.3-3.4zM659.8 372.5c.1-1.4.7-2.6 1.6-3.5 1-.9 2.3-1.3 3.9-1.2 1.4.1 2.5.7 3.4 1.7.9 1 1.3 2.3 1.2 3.7-.1 1.4-.7 2.6-1.8 3.5-1.1.9-2.3 1.3-3.7 1.2-1.6-.1-2.8-.7-3.6-1.8-.7-1.1-1.1-2.3-1-3.6zM657.2 395.1c.2-1.4.8-2.5 1.9-3.4 1-.9 2.4-1.2 4-.9 1.4.2 2.5.9 3.3 2 .8 1.1 1.1 2.4.9 3.8-.2 1.4-.9 2.5-2 3.4-1.1.8-2.4 1.2-3.8.9-1.6-.2-2.7-.9-3.5-2.1-.7-1.2-1-2.4-.8-3.7zM652.8 417.5c.3-1.4 1-2.4 2.1-3.2 1.1-.8 2.5-1 4-.6 1.3.3 2.4 1.1 3.1 2.2.7 1.2 1 2.4.6 3.8-.3 1.4-1.1 2.4-2.3 3.2-1.2.8-2.5 1-3.8.6-1.6-.4-2.7-1.1-3.3-2.3-.5-1.2-.7-2.4-.4-3.7zM646.8 439.5c.4-1.3 1.2-2.3 2.4-3 1.2-.7 2.5-.8 4.1-.3 1.3.4 2.3 1.2 2.9 2.5.7 1.2.8 2.5.3 3.9-.4 1.4-1.3 2.4-2.5 3-1.2.7-2.5.8-3.9.4-1.5-.5-2.6-1.3-3.1-2.6-.6-1.4-.6-2.6-.2-3.9zM639 460.9c.5-1.3 1.4-2.2 2.6-2.8 1.2-.6 2.6-.6 4.1 0 1.3.5 2.2 1.4 2.7 2.7.6 1.3.6 2.6 0 3.9-.5 1.3-1.4 2.3-2.7 2.8-1.3.6-2.6.6-3.9.1-1.5-.6-2.5-1.5-2.9-2.8s-.4-2.6.1-3.9zM629.7 481.7c.6-1.3 1.6-2.1 2.8-2.6 1.3-.5 2.6-.4 4.1.3 1.2.6 2.1 1.6 2.5 2.9.5 1.3.4 2.6-.3 3.9-.6 1.3-1.6 2.1-2.9 2.6-1.3.5-2.6.4-3.9-.2-1.4-.7-2.3-1.7-2.7-3-.3-1.4-.2-2.7.4-3.9zM618.8 501.7c.7-1.2 1.7-2 3-2.4 1.3-.4 2.6-.2 4 .6 1.2.7 2 1.7 2.3 3.1.4 1.3.2 2.6-.6 3.8s-1.8 2-3.1 2.4c-1.4.4-2.6.2-3.8-.5-1.4-.8-2.2-1.9-2.5-3.2-.2-1.4 0-2.6.7-3.8zM606.4 520.9c.8-1.1 1.9-1.9 3.2-2.2 1.3-.3 2.6 0 4 .9 1.1.8 1.8 1.9 2.1 3.2.3 1.4 0 2.6-.8 3.8-.8 1.2-1.9 1.9-3.3 2.1-1.4.3-2.6 0-3.8-.8-1.3-.9-2.1-2.1-2.2-3.4-.2-1.3.1-2.5.8-3.6zM592.7 539c.9-1.1 2-1.7 3.3-1.9 1.3-.2 2.6.2 3.9 1.2 1.1.9 1.7 2 1.8 3.4.2 1.4-.2 2.6-1.1 3.7-.9 1.1-2 1.7-3.4 1.9-1.4.2-2.6-.2-3.7-1.1-1.2-1-1.9-2.2-2-3.6-.1-1.3.3-2.5 1.2-3.6zM577.5 556.1c1-1 2.1-1.6 3.5-1.7 1.4-.1 2.6.4 3.8 1.5 1 1 1.5 2.1 1.6 3.5 0 1.4-.4 2.6-1.4 3.6-1 1-2.2 1.6-3.6 1.6s-2.6-.4-3.6-1.4c-1.2-1.1-1.7-2.3-1.7-3.7 0-1.3.5-2.4 1.4-3.4zM561.2 572c1-.9 2.2-1.4 3.6-1.4s2.6.6 3.7 1.8c.9 1 1.4 2.2 1.3 3.6-.1 1.4-.6 2.6-1.7 3.5-1.1 1-2.3 1.4-3.7 1.3-1.4-.1-2.6-.6-3.5-1.6-1.1-1.2-1.5-2.5-1.4-3.8.1-1.4.7-2.5 1.7-3.4zM543.7 586.5c1.1-.9 2.3-1.2 3.7-1.1 1.4.1 2.5.8 3.5 2.1.8 1.1 1.2 2.3 1 3.7s-.8 2.5-1.9 3.4c-1.1.9-2.4 1.2-3.8 1.1-1.4-.2-2.5-.8-3.4-1.9-1-1.3-1.3-2.6-1.1-3.9s.9-2.5 2-3.4zM525.1 599.8c1.2-.8 2.4-1.1 3.8-.9 1.3.2 2.5 1 3.3 2.3.8 1.1 1 2.4.7 3.8-.3 1.4-1 2.4-2.2 3.2s-2.5 1-3.8.8c-1.4-.3-2.4-1-3.2-2.2-.9-1.3-1.1-2.7-.8-4 .3-1.3 1.1-2.3 2.2-3zM505.6 611.5c1.2-.7 2.5-.9 3.8-.6 1.3.3 2.4 1.2 3.2 2.6.7 1.2.8 2.5.4 3.8-.4 1.3-1.2 2.4-2.4 3-1.2.7-2.5.8-3.9.5-1.4-.4-2.4-1.2-3-2.4-.8-1.4-.9-2.7-.5-4 .4-1.2 1.2-2.2 2.4-2.9zM485.2 621.8c1.3-.6 2.6-.7 3.9-.3 1.3.4 2.3 1.3 3 2.8.6 1.3.6 2.5.2 3.8-.5 1.3-1.3 2.3-2.6 2.8-1.3.6-2.6.6-3.9.2-1.3-.5-2.3-1.3-2.9-2.6-.7-1.5-.7-2.8-.2-4.1.4-1.1 1.3-2 2.5-2.6zM464.1 630.5c1.3-.5 2.6-.5 3.9 0 1.3.5 2.2 1.5 2.7 3 .5 1.3.4 2.6-.1 3.8-.6 1.3-1.5 2.1-2.9 2.6-1.3.5-2.6.4-3.9-.1-1.3-.6-2.2-1.5-2.6-2.8-.6-1.5-.5-2.9.1-4.1.6-1.1 1.5-2 2.8-2.4zM442.4 637.5c1.3-.4 2.6-.3 3.8.3 1.2.6 2.1 1.7 2.5 3.2.4 1.3.2 2.6-.4 3.8-.7 1.2-1.7 2-3 2.4s-2.7.2-3.9-.4c-1.2-.7-2-1.7-2.4-3-.4-1.5-.3-2.9.4-4s1.7-1.9 3-2.3zM420.2 642.9c1.4-.3 2.6-.1 3.8.6 1.2.7 1.9 1.8 2.2 3.4.3 1.3 0 2.6-.7 3.8-.8 1.2-1.8 1.9-3.2 2.2-1.4.3-2.7 0-3.9-.7-1.2-.8-1.9-1.8-2.2-3.2-.3-1.6-.1-2.9.7-4 1-1.2 2-1.8 3.3-2.1zM397.7 646.5c1.4-.2 2.6.1 3.8.9 1.1.8 1.8 2 2 3.6.2 1.4-.2 2.6-1 3.7s-2 1.7-3.4 1.9c-1.4.2-2.7-.2-3.8-1-1.1-.9-1.8-2-1.9-3.4-.2-1.6.1-2.9 1-3.9s2-1.6 3.3-1.8zM375 648.5c1.4-.1 2.6.3 3.7 1.2 1.1.9 1.6 2.1 1.7 3.7.1 1.4-.4 2.6-1.3 3.6s-2.1 1.6-3.5 1.7c-1.4.1-2.7-.4-3.7-1.3s-1.6-2.1-1.7-3.5c-.1-1.6.4-2.9 1.3-3.8 1-1 2.2-1.6 3.5-1.6zM352.2 648.7c1.4 0 2.6.5 3.6 1.5 1 .9 1.5 2.2 1.4 3.8 0 1.4-.6 2.5-1.5 3.5-1 1-2.2 1.4-3.6 1.4s-2.6-.6-3.6-1.6-1.4-2.2-1.4-3.6c0-1.6.6-2.8 1.6-3.7 1-.9 2.2-1.3 3.5-1.3zM329.5 647.2c1.4.1 2.5.7 3.5 1.7.9 1 1.3 2.3 1.1 3.9-.1 1.4-.7 2.5-1.8 3.4-1.1.9-2.3 1.3-3.7 1.1-1.4-.1-2.6-.8-3.5-1.8-.9-1.1-1.3-2.3-1.1-3.7.2-1.6.8-2.8 1.9-3.6 1-.8 2.3-1.1 3.6-1zM306.9 644c1.4.2 2.5.9 3.3 2 .8 1.1 1.1 2.4.8 4-.2 1.4-.9 2.4-2.1 3.2-1.1.8-2.4 1.1-3.8.8s-2.5-1-3.3-2.1c-.8-1.1-1.1-2.4-.8-3.8.3-1.6 1-2.7 2.2-3.4 1.2-.7 2.4-.9 3.7-.7zM284.7 639.1c1.4.4 2.4 1.1 3.2 2.2.8 1.1.9 2.5.5 4a4.8 4.8 0 0 1-2.3 3.1c-1.2.7-2.5.9-3.8.5-1.4-.4-2.4-1.1-3.1-2.3-.7-1.2-.9-2.5-.6-3.8.4-1.5 1.2-2.6 2.4-3.3 1.1-.6 2.4-.7 3.7-.4zM262.8 632.5c1.3.5 2.3 1.3 3 2.5.7 1.2.7 2.5.2 4.1-.4 1.3-1.3 2.3-2.5 2.9-1.2.6-2.5.7-3.9.2-1.3-.5-2.3-1.3-3-2.6-.6-1.3-.7-2.5-.3-3.9.5-1.5 1.4-2.5 2.6-3.1 1.4-.4 2.7-.5 3.9-.1zM241.6 624.3c1.3.6 2.2 1.4 2.8 2.7.6 1.2.5 2.6-.1 4.1-.5 1.3-1.5 2.2-2.7 2.7-1.3.5-2.6.5-3.9-.1-1.3-.6-2.2-1.5-2.8-2.8-.5-1.3-.5-2.6 0-3.9.6-1.5 1.6-2.4 2.9-2.9 1.3-.4 2.5-.3 3.8.2zM221 614.5c1.2.6 2.1 1.6 2.6 2.9.5 1.3.3 2.6-.4 4.1-.6 1.2-1.6 2-2.9 2.5-1.3.4-2.6.3-3.9-.4-1.3-.7-2.1-1.7-2.5-3-.4-1.3-.3-2.6.3-3.9.7-1.4 1.8-2.3 3.1-2.6 1.3-.4 2.5-.3 3.7.4zM201.2 603.1c1.2.7 2 1.8 2.3 3.1.4 1.3.1 2.6-.7 4-.7 1.2-1.8 1.9-3.1 2.2-1.3.3-2.6.1-3.8-.6-1.2-.8-2-1.8-2.3-3.2-.3-1.4-.1-2.6.6-3.8.9-1.4 1.9-2.2 3.3-2.4 1.4-.3 2.6 0 3.7.7zM182.4 590.2c1.1.8 1.8 1.9 2.1 3.2.3 1.3-.1 2.6-1 4-.8 1.1-1.9 1.8-3.3 2-1.4.2-2.6-.1-3.8-.9-1.1-.8-1.8-2-2.1-3.3-.2-1.4.1-2.6.9-3.8 1-1.3 2.1-2 3.5-2.1 1.4-.2 2.6.1 3.7.9zM164.6 576c1.1.9 1.7 2 1.9 3.4.2 1.3-.3 2.6-1.3 3.9-.9 1-2 1.6-3.4 1.7-1.4.1-2.6-.3-3.7-1.2-1.1-.9-1.7-2.1-1.8-3.5-.1-1.4.3-2.6 1.2-3.7 1-1.2 2.2-1.8 3.6-1.9 1.3 0 2.5.4 3.5 1.3zM147.9 560.5c1 1 1.5 2.2 1.6 3.5.1 1.4-.5 2.6-1.6 3.8-1 1-2.2 1.5-3.5 1.5-1.4 0-2.6-.5-3.6-1.5s-1.5-2.2-1.5-3.6.5-2.6 1.5-3.6c1.1-1.1 2.4-1.7 3.7-1.6 1.3 0 2.4.5 3.4 1.5zM132.4 543.8c.9 1.1 1.4 2.3 1.3 3.6 0 1.4-.7 2.6-1.9 3.6-1 .9-2.3 1.3-3.6 1.2-1.4-.1-2.5-.7-3.5-1.8-.9-1.1-1.3-2.3-1.2-3.7.1-1.4.7-2.6 1.7-3.5 1.2-1 2.5-1.5 3.8-1.3 1.5.2 2.6.8 3.4 1.9zM118.3 525.9c.8 1.1 1.2 2.4 1 3.7-.1 1.4-.8 2.5-2.2 3.5-1.1.8-2.3 1.1-3.7.9-1.4-.2-2.5-.9-3.3-2-.8-1.1-1.2-2.4-1-3.8.2-1.4.9-2.5 2-3.3 1.3-.9 2.6-1.3 3.9-1 1.4.2 2.5.9 3.3 2zM105.5 507c.7 1.2 1 2.4.8 3.8-.2 1.3-1 2.4-2.4 3.3-1.2.7-2.4.9-3.8.6-1.4-.3-2.4-1.1-3.2-2.3-.7-1.2-1-2.5-.7-3.9.3-1.4 1-2.4 2.2-3.2 1.4-.8 2.7-1.1 4-.7 1.4.5 2.4 1.3 3.1 2.4zM94.2 487.2c.6 1.2.8 2.5.5 3.8-.3 1.3-1.2 2.4-2.7 3.1-1.2.6-2.5.8-3.8.4s-2.3-1.2-3-2.5c-.7-1.3-.8-2.6-.4-3.9.4-1.3 1.2-2.3 2.5-3 1.4-.7 2.8-.9 4-.4 1.3.5 2.3 1.3 2.9 2.5zM84.4 466.6c.6 1.3.6 2.6.2 3.9-.4 1.3-1.4 2.3-2.9 2.9-1.3.5-2.5.6-3.8.1-1.3-.5-2.2-1.4-2.8-2.7-.6-1.3-.6-2.6-.1-3.9s1.4-2.2 2.7-2.8c1.5-.6 2.8-.7 4.1-.1 1.2.4 2.1 1.3 2.6 2.6zM76.3 445.3c.5 1.3.4 2.6-.1 3.9s-1.6 2.1-3.1 2.7c-1.3.4-2.6.4-3.8-.2-1.3-.6-2.1-1.6-2.6-2.9-.5-1.3-.4-2.6.2-3.9.6-1.3 1.6-2.1 2.9-2.6 1.5-.5 2.9-.4 4.1.2 1.1.5 1.9 1.5 2.4 2.8zM69.8 423.5c.3 1.4.2 2.6-.4 3.8-.6 1.2-1.7 2-3.3 2.4-1.3.3-2.6.2-3.8-.5-1.2-.7-2-1.7-2.3-3.1-.4-1.4-.2-2.7.5-3.9.7-1.2 1.7-2 3.1-2.3 1.6-.4 2.9-.2 4 .5s1.8 1.8 2.2 3.1zM65 401.2c.2 1.4 0 2.6-.7 3.8-.7 1.2-1.9 1.9-3.5 2.2-1.4.2-2.6 0-3.7-.8s-1.8-1.9-2.1-3.3c-.2-1.4 0-2.7.8-3.8s1.9-1.9 3.2-2.1c1.6-.3 2.9 0 4 .8s1.7 1.8 2 3.2zM61.8 378.6c.1 1.4-.2 2.6-1 3.7s-2 1.7-3.6 1.9c-1.4.1-2.6-.2-3.7-1.1-1.1-.9-1.7-2-1.8-3.4-.1-1.4.2-2.7 1.1-3.8.9-1.1 2-1.7 3.4-1.9 1.6-.2 2.9.2 3.9 1.1 1 1 1.6 2.1 1.7 3.5zM60.5 355.8c0 1.4-.4 2.6-1.3 3.6s-2.1 1.6-3.7 1.6c-1.4 0-2.6-.4-3.6-1.4-1-.9-1.5-2.1-1.6-3.5 0-1.4.4-2.6 1.4-3.7 1-1 2.1-1.6 3.5-1.6 1.6 0 2.9.4 3.8 1.4.9 1.1 1.4 2.3 1.5 3.6zM60.8 333c-.1 1.4-.6 2.6-1.5 3.5-1 1-2.2 1.4-3.9 1.3-1.4-.1-2.5-.6-3.5-1.6-.9-1-1.4-2.2-1.3-3.7.1-1.4.6-2.6 1.7-3.6 1-1 2.2-1.4 3.6-1.3 1.6.1 2.8.6 3.7 1.7.8 1.2 1.2 2.4 1.2 3.7z"/></g></g></switch></svg>