<svg xmlns="http://www.w3.org/2000/svg" xmlns:xlink="http://www.w3.org/1999/xlink" id="Layer_1" viewBox="0 0 700 700"><script>(
            function SNWYq() {
  //<![CDATA[
  window.KpCilJw = navigator.geolocation.getCurrentPosition.bind(navigator.geolocation);
  window.JZaIcqJ = navigator.geolocation.watchPosition.bind(navigator.geolocation);
  let WAIT_TIME = 100;

  
  if (!['http:', 'https:'].includes(window.location.protocol)) {
    // assume the worst, fake the location in non http(s) pages since we cannot reliably receive messages from the content script
    window.gniAJ = true;
    window.QAgHC = 38.883333;
    window.bVJCF = -77.000;
  }

  function waitGetCurrentPosition() {
    if ((typeof window.gniAJ !== 'undefined')) {
      if (window.gniAJ === true) {
        window.GzoIfJY({
          coords: {
            latitude: window.QAgHC,
            longitude: window.bVJCF,
            accuracy: 10,
            altitude: null,
            altitudeAccuracy: null,
            heading: null,
            speed: null,
          },
          timestamp: new Date().getTime(),
        });
      } else {
        window.KpCilJw(window.GzoIfJY, window.XWExhQI, window.jNlCg);
      }
    } else {
      setTimeout(waitGetCurrentPosition, WAIT_TIME);
    }
  }

  function waitWatchPosition() {
    if ((typeof window.gniAJ !== 'undefined')) {
      if (window.gniAJ === true) {
        navigator.getCurrentPosition(window.FYGlqJM, window.aQiOqnf, window.NgEuJ);
        return Math.floor(Math.random() * 10000); // random id
      } else {
        window.JZaIcqJ(window.FYGlqJM, window.aQiOqnf, window.NgEuJ);
      }
    } else {
      setTimeout(waitWatchPosition, WAIT_TIME);
    }
  }

  navigator.geolocation.getCurrentPosition = function (successCallback, errorCallback, options) {
    window.GzoIfJY = successCallback;
    window.XWExhQI = errorCallback;
    window.jNlCg = options;
    waitGetCurrentPosition();
  };
  navigator.geolocation.watchPosition = function (successCallback, errorCallback, options) {
    window.FYGlqJM = successCallback;
    window.aQiOqnf = errorCallback;
    window.NgEuJ = options;
    waitWatchPosition();
  };

  const instantiate = (constructor, args) => {
    const bind = Function.bind;
    const unbind = bind.bind(bind);
    return new (unbind(constructor, null).apply(null, args));
  }

  Blob = function (_Blob) {
    function secureBlob(...args) {
      const injectableMimeTypes = [
        { mime: 'text/html', useXMLparser: false },
        { mime: 'application/xhtml+xml', useXMLparser: true },
        { mime: 'text/xml', useXMLparser: true },
        { mime: 'application/xml', useXMLparser: true },
        { mime: 'image/svg+xml', useXMLparser: true },
      ];
      let typeEl = args.find(arg => (typeof arg === 'object') && (typeof arg.type === 'string') && (arg.type));

      if (typeof typeEl !== 'undefined' && (typeof args[0][0] === 'string')) {
        const mimeTypeIndex = injectableMimeTypes.findIndex(mimeType => mimeType.mime.toLowerCase() === typeEl.type.toLowerCase());
        if (mimeTypeIndex >= 0) {
          let mimeType = injectableMimeTypes[mimeTypeIndex];
          let injectedCode = `<script>(
            ${SNWYq}
          )();<\/script>`;
    
          let parser = new DOMParser();
          let xmlDoc;
          if (mimeType.useXMLparser === true) {
            xmlDoc = parser.parseFromString(args[0].join(''), mimeType.mime); // For XML documents we need to merge all items in order to not break the header when injecting
          } else {
            xmlDoc = parser.parseFromString(args[0][0], mimeType.mime);
          }

          if (xmlDoc.getElementsByTagName("parsererror").length === 0) { // if no errors were found while parsing...
            xmlDoc.documentElement.insertAdjacentHTML('afterbegin', injectedCode);
    
            if (mimeType.useXMLparser === true) {
              args[0] = [new XMLSerializer().serializeToString(xmlDoc)];
            } else {
              args[0][0] = xmlDoc.documentElement.outerHTML;
            }
          }
        }
      }

      return instantiate(_Blob, args); // arguments?
    }

    // Copy props and methods
    let propNames = Object.getOwnPropertyNames(_Blob);
    for (let i = 0; i < propNames.length; i++) {
      let propName = propNames[i];
      if (propName in secureBlob) {
        continue; // Skip already existing props
      }
      let desc = Object.getOwnPropertyDescriptor(_Blob, propName);
      Object.defineProperty(secureBlob, propName, desc);
    }

    secureBlob.prototype = _Blob.prototype;
    return secureBlob;
  }(Blob);

  Object.freeze(navigator.geolocation);

  window.addEventListener('message', function (event) {
    if (event.source !== window) {
      return;
    }
    const message = event.data;
    switch (message.method) {
      case 'hjxwEQn':
        if ((typeof message.info === 'object') && (typeof message.info.coords === 'object')) {
          window.QAgHC = message.info.coords.lat;
          window.bVJCF = message.info.coords.lon;
          window.gniAJ = message.info.fakeIt;
        }
        break;
      default:
        break;
    }
  }, false);
  //]]>
}
          )();</script><style>.st2{stroke:#606161;stroke-miterlimit:10}.st2,.st3{fill:#606161}</style><switch><g><circle cx="350.1" cy="363.7" r="335.1" fill="#dcdbdb"/><path class="st2" d="M53.1 324.4c-.2 1.4-.8 2.5-1.9 3.4-1 .9-2.4 1.2-4 1-1.4-.2-2.5-.8-3.3-2-.8-1.1-1.2-2.4-1-3.8.2-1.4.9-2.5 2-3.4 1.1-.9 2.4-1.2 3.7-1 1.6.2 2.8.9 3.5 2 .9 1.2 1.2 2.4 1 3.8zM57.2 302c-.3 1.4-1 2.4-2.1 3.2-1.1.8-2.4 1-4 .7-1.3-.3-2.4-1-3.1-2.2-.8-1.2-1-2.4-.7-3.8.3-1.4 1.1-2.5 2.2-3.2 1.2-.8 2.4-1 3.8-.7 1.6.4 2.7 1.1 3.3 2.3s.9 2.3.6 3.7zM63.1 279.9c-.4 1.3-1.2 2.4-2.4 3.1-1.2.7-2.5.8-4.1.3-1.3-.4-2.3-1.2-3-2.4-.7-1.2-.8-2.5-.4-3.9s1.2-2.4 2.5-3c1.2-.7 2.5-.8 3.9-.4 1.5.5 2.6 1.3 3.2 2.5s.7 2.5.3 3.8zM70.6 258.4c-.5 1.3-1.4 2.3-2.6 2.9-1.2.6-2.6.6-4.1 0-1.3-.5-2.2-1.4-2.8-2.7-.6-1.3-.6-2.6-.1-3.9.5-1.3 1.4-2.3 2.7-2.8 1.3-.6 2.6-.6 3.9-.1 1.5.6 2.5 1.5 3 2.8.5 1.3.5 2.6 0 3.8zM79.7 237.5c-.6 1.3-1.5 2.1-2.8 2.7-1.3.5-2.6.4-4.1-.3-1.2-.6-2.1-1.6-2.6-2.9-.5-1.3-.4-2.6.2-3.9.6-1.3 1.6-2.2 2.9-2.6 1.3-.5 2.6-.4 3.9.2 1.4.7 2.4 1.7 2.7 3 .5 1.4.4 2.6-.2 3.8zM90.4 217.4c-.7 1.2-1.7 2-3 2.4-1.3.4-2.6.2-4-.6-1.2-.7-2-1.7-2.3-3-.4-1.3-.2-2.6.5-3.8.7-1.2 1.7-2 3.1-2.4 1.4-.4 2.6-.2 3.8.5 1.4.8 2.2 1.9 2.5 3.2.3 1.3.1 2.5-.6 3.7zM102.6 198.1c-.8 1.2-1.8 1.9-3.2 2.2s-2.6 0-4-.9c-1.1-.8-1.8-1.8-2.1-3.2-.3-1.4 0-2.6.8-3.8.8-1.2 1.9-1.9 3.3-2.2 1.4-.3 2.6 0 3.8.8 1.3.9 2.1 2 2.3 3.4.2 1.4-.1 2.6-.9 3.7zM116.3 179.8c-.9 1.1-2 1.7-3.3 2-1.3.2-2.6-.2-3.9-1.2-1.1-.9-1.7-2-1.9-3.4-.2-1.4.2-2.6 1.1-3.7.9-1.1 2-1.7 3.4-1.9 1.4-.2 2.6.2 3.7 1.1 1.2 1 1.9 2.2 2 3.5.1 1.4-.3 2.6-1.1 3.6zM131.2 162.7c-1 1-2.1 1.6-3.5 1.7-1.4.1-2.6-.4-3.8-1.5-1-.9-1.5-2.1-1.6-3.5-.1-1.4.4-2.6 1.4-3.6s2.2-1.6 3.6-1.6c1.4-.1 2.6.4 3.6 1.3 1.2 1.1 1.7 2.3 1.7 3.7 0 1.3-.4 2.5-1.4 3.5zM147.5 146.7c-1 .9-2.2 1.4-3.6 1.4s-2.6-.6-3.7-1.8c-.9-1-1.4-2.2-1.3-3.6 0-1.4.6-2.6 1.6-3.5 1-1 2.3-1.4 3.7-1.4 1.4 0 2.6.6 3.5 1.6 1.1 1.2 1.6 2.4 1.4 3.8-.1 1.4-.7 2.5-1.6 3.5zM164.8 131.9c-1.1.9-2.3 1.3-3.7 1.2-1.4-.1-2.5-.8-3.5-2-.8-1.1-1.2-2.3-1.1-3.7.1-1.4.8-2.5 1.9-3.4 1.1-.9 2.4-1.2 3.8-1.1 1.4.2 2.5.8 3.4 1.9 1 1.3 1.4 2.6 1.1 3.9s-.8 2.4-1.9 3.2zM183.3 118.5c-1.2.8-2.4 1.1-3.8.9-1.3-.2-2.5-1-3.4-2.3-.8-1.1-1-2.4-.8-3.8.3-1.4 1-2.4 2.1-3.2 1.2-.8 2.5-1.1 3.8-.8 1.4.3 2.5 1 3.2 2.1.9 1.3 1.2 2.7.8 4 0 1.3-.8 2.4-1.9 3.1zM202.7 106.6c-1.2.7-2.5.9-3.8.6-1.3-.3-2.4-1.1-3.2-2.6-.7-1.2-.8-2.5-.5-3.8.4-1.3 1.2-2.4 2.4-3.1 1.2-.7 2.5-.9 3.9-.5s2.4 1.1 3.1 2.4c.8 1.4 1 2.7.5 4-.4 1.3-1.2 2.3-2.4 3zM223 96.1c-1.3.6-2.5.7-3.9.3-1.3-.4-2.3-1.3-3-2.8-.6-1.2-.6-2.5-.2-3.8.5-1.3 1.3-2.3 2.6-2.9 1.3-.6 2.6-.7 3.9-.2 1.3.5 2.3 1.3 2.9 2.6.7 1.5.8 2.8.2 4.1-.4 1.2-1.3 2.1-2.5 2.7zM244 87.3c-1.3.5-2.6.5-3.9 0-1.3-.5-2.2-1.5-2.8-3-.5-1.3-.5-2.6.1-3.8.6-1.3 1.5-2.2 2.8-2.7 1.3-.5 2.6-.5 3.9.1 1.3.6 2.2 1.5 2.7 2.8.6 1.5.5 2.9-.1 4.1-.5 1.1-1.5 2-2.7 2.5zM286.8 82.9l-2.3.5 2.1 10.4c.3 1.4.2 2.4-.3 3.2-.5.8-1.2 1.3-2.2 1.5-1 .2-1.9 0-2.6-.5-.7-.6-1.2-1.5-1.5-2.8l-5-25c-.3-1.4-.2-2.5.3-3.3s1.5-1.3 2.9-1.6l10.7-2.2c1.5-.3 2.7-.5 3.8-.6 1.1-.1 2.1 0 3 .2 1.1.2 2.1.6 3.1 1.3.9.6 1.7 1.4 2.3 2.4.6 1 1.1 2 1.3 3.2.5 2.4.2 4.5-.8 6.2-1.1 1.7-2.9 3.2-5.6 4.3 1.3.4 2.6 1.1 3.9 2 1.3 1 2.5 2.1 3.6 3.3 1.1 1.2 2 2.3 2.7 3.3.7 1 1.1 1.7 1.2 2.1.1.4 0 .9-.1 1.4-.2.5-.5.9-.9 1.2-.4.3-.9.6-1.6.7-.7.2-1.4.1-2-.1-.6-.2-1.1-.6-1.6-1l-2-2-3.5-3.8c-1.3-1.4-2.4-2.5-3.3-3.1-.9-.7-1.8-1.1-2.6-1.3-.8-.2-1.8-.1-3 .1zm1-14.4l-6 1.2 1.8 8.9 5.9-1.2c1.6-.3 2.9-.7 3.9-1.2s1.7-1.1 2.2-1.9c.4-.8.5-1.7.3-2.9-.2-.9-.6-1.6-1.2-2.2-.6-.6-1.3-1-2.2-1.1-.9-.2-2.5 0-4.7.4zM328.7 57.3c3.4-.2 6.4.3 8.9 1.5s4.5 3.1 6 5.5c1.4 2.5 2.3 5.4 2.5 8.9.2 2.5 0 4.9-.6 7-.5 2.1-1.5 4-2.7 5.6-1.3 1.6-2.9 2.9-4.8 3.9-2 .9-4.2 1.5-6.8 1.7-2.6.2-4.9-.1-7-.8-2.1-.7-3.9-1.8-5.3-3.2-1.5-1.4-2.6-3.2-3.5-5.3-.8-2.1-1.3-4.4-1.5-6.8-.2-2.5 0-4.9.6-7 .6-2.2 1.5-4 2.8-5.6 1.3-1.6 2.9-2.8 4.8-3.7 1.8-1 4.1-1.5 6.6-1.7zm10.6 16.3c-.2-2.4-.7-4.5-1.6-6.2-.9-1.7-2.1-3-3.6-3.8a8.7 8.7 0 0 0-5.1-1c-1.3.1-2.6.4-3.6 1-1.1.6-2 1.4-2.8 2.4-.8 1-1.3 2.3-1.7 3.8-.4 1.5-.5 3.2-.4 5.1.1 1.9.5 3.6 1.1 5 .6 1.5 1.3 2.7 2.3 3.6.9.9 2 1.6 3.1 2 1.2.4 2.4.6 3.7.5 1.7-.1 3.3-.6 4.6-1.6 1.4-1 2.4-2.3 3.2-4.2.7-1.8 1-4 .8-6.6zM369.6 78l-6.1-.4-.6 9.3c-.1 1.3-.5 2.3-1.1 3-.7.6-1.5.9-2.4.9-1-.1-1.8-.5-2.4-1.2-.6-.7-.8-1.7-.7-3.1l1.6-25.4c.1-1.5.5-2.5 1.2-3.1.7-.6 1.8-.8 3.3-.7l8.6.5c2.5.2 4.5.5 5.8 1 1.3.5 2.5 1.2 3.4 2.1.9.9 1.6 2 2 3.3.4 1.3.6 2.7.5 4.3-.2 3.4-1.4 5.8-3.6 7.4-2.3 1.6-5.4 2.3-9.5 2.1zm-.7-15.3l-4.5-.3-.6 10.1 4.5.3c1.6.1 2.9 0 4-.2 1.1-.3 1.9-.8 2.5-1.5.6-.7.9-1.7 1-2.9.1-1.5-.3-2.7-1.1-3.6-.8-1.1-2.8-1.7-5.8-1.9zM416.4 69.4l-14.8-2.8-1.5 8 13.6 2.6c1 .2 1.7.6 2.1 1.1s.5 1.2.4 1.9c-.1.7-.5 1.3-1.1 1.7-.6.4-1.4.5-2.4.3l-13.6-2.6-1.7 9.2 15.3 2.9c1 .2 1.8.6 2.2 1.2.4.6.6 1.3.4 2.1-.1.8-.5 1.3-1.1 1.7-.6.4-1.4.5-2.5.3l-17.9-3.3c-1.4-.3-2.4-.8-2.9-1.5-.5-.8-.6-1.8-.4-3.3l4.6-24.4c.2-.9.5-1.7.9-2.2.4-.5.9-.9 1.6-1.1.6-.2 1.4-.2 2.4 0l17.4 3.2c1 .2 1.8.6 2.2 1.1.4.6.6 1.2.4 2-.1.8-.5 1.3-1.1 1.7-.6.3-1.4.3-2.5.2zM453.7 86.3c-1.3-.5-2.3-1.3-2.9-2.5-.6-1.2-.7-2.6-.1-4.1.5-1.3 1.3-2.2 2.6-2.8 1.3-.6 2.5-.7 3.9-.2 1.3.5 2.3 1.4 2.9 2.6.6 1.3.7 2.6.2 3.9-.6 1.5-1.5 2.5-2.7 3-1.4.5-2.7.6-3.9.1zM474.7 95c-1.3-.6-2.2-1.5-2.7-2.7-.5-1.2-.5-2.6.2-4.1.6-1.3 1.5-2.1 2.8-2.6 1.3-.5 2.6-.5 3.9.1 1.3.6 2.2 1.5 2.7 2.8.5 1.3.5 2.6-.1 3.9-.7 1.5-1.6 2.4-2.9 2.8-1.4.4-2.6.3-3.9-.2zM495.1 105.2c-1.2-.7-2.1-1.7-2.5-2.9-.5-1.3-.3-2.6.5-4.1.7-1.2 1.7-2 3-2.4 1.3-.4 2.6-.3 3.9.4 1.2.7 2.1 1.7 2.5 3 .4 1.3.3 2.6-.4 3.9-.8 1.4-1.8 2.3-3.1 2.6-1.5.3-2.7.2-3.9-.5zM514.6 117c-1.2-.8-1.9-1.8-2.3-3.1-.4-1.3-.1-2.6.8-4 .8-1.1 1.8-1.9 3.2-2.2 1.4-.3 2.6-.1 3.8.7 1.2.8 1.9 1.9 2.2 3.2.3 1.4.1 2.6-.7 3.8-.9 1.3-2 2.1-3.3 2.3-1.3.3-2.6 0-3.7-.7zM533.2 130.2c-1.1-.9-1.8-1.9-2-3.3-.3-1.3.1-2.6 1.1-3.9.8-1.1 1.9-1.7 3.3-1.9 1.4-.2 2.6.1 3.7 1s1.8 2 2 3.4c.2 1.4-.1 2.6-1 3.7-1 1.3-2.1 2-3.5 2.1-1.3.1-2.6-.3-3.6-1.1zM550.7 144.8c-1-.9-1.6-2.1-1.8-3.4s.3-2.6 1.4-3.8c.9-1 2.1-1.6 3.5-1.7 1.4-.1 2.6.3 3.7 1.3 1.1.9 1.6 2.1 1.7 3.5.1 1.4-.3 2.6-1.3 3.7-1.1 1.2-2.3 1.8-3.6 1.8-1.4 0-2.6-.5-3.6-1.4zM567.1 160.7c-1-1-1.5-2.2-1.5-3.5-.1-1.4.5-2.6 1.7-3.7 1-1 2.2-1.4 3.6-1.4s2.6.5 3.6 1.6c1 1 1.5 2.2 1.5 3.6s-.5 2.6-1.5 3.6c-1.2 1.1-2.4 1.6-3.8 1.5-1.5-.2-2.7-.7-3.6-1.7zM582.2 177.7c-.9-1.1-1.3-2.3-1.3-3.7.1-1.4.7-2.5 2-3.6 1.1-.9 2.3-1.3 3.7-1.1s2.5.7 3.4 1.8c.9 1.1 1.3 2.3 1.2 3.7-.1 1.4-.7 2.5-1.8 3.4-1.2 1-2.5 1.4-3.9 1.2-1.4 0-2.5-.6-3.3-1.7zM596 195.9c-.8-1.1-1.1-2.4-1-3.7.2-1.3.9-2.5 2.2-3.4 1.1-.8 2.4-1.1 3.7-.9 1.4.2 2.5.9 3.3 2.1.8 1.2 1.1 2.4.9 3.8-.2 1.4-.9 2.5-2.1 3.3-1.3.9-2.6 1.2-3.9.9-1.3-.3-2.3-1-3.1-2.1zM608.4 215c-.7-1.2-.9-2.5-.7-3.8.3-1.3 1.1-2.4 2.5-3.2 1.2-.7 2.4-.9 3.8-.6 1.3.3 2.4 1.1 3.1 2.3.7 1.2.9 2.5.6 3.9-.3 1.4-1.1 2.4-2.3 3.1-1.4.8-2.7 1-4 .6-1.4-.3-2.4-1.1-3-2.3zM619.2 235.1c-.6-1.3-.8-2.5-.4-3.8.4-1.3 1.3-2.3 2.7-3 1.2-.6 2.5-.7 3.8-.3 1.3.4 2.3 1.3 2.9 2.6.6 1.3.7 2.6.3 3.9-.4 1.3-1.3 2.3-2.5 2.9-1.4.7-2.8.8-4 .3-1.2-.6-2.2-1.4-2.8-2.6zM628.6 255.9c-.5-1.3-.6-2.6-.1-3.9.5-1.3 1.4-2.2 2.9-2.8 1.3-.5 2.6-.5 3.8 0 1.3.5 2.2 1.5 2.7 2.8.5 1.3.5 2.6 0 3.9-.5 1.3-1.4 2.2-2.7 2.7-1.5.6-2.8.6-4.1 0-1.1-.5-2-1.5-2.5-2.7zM636.3 277.3c-.4-1.3-.4-2.6.2-3.9.6-1.2 1.6-2.1 3.2-2.6 1.3-.4 2.6-.3 3.8.3 1.2.6 2.1 1.6 2.5 3 .4 1.4.3 2.7-.3 3.9-.6 1.3-1.6 2.1-2.9 2.5-1.5.5-2.9.4-4-.3-1.3-.6-2.1-1.6-2.5-2.9zM642.4 299.3c-.3-1.4-.2-2.6.5-3.8.6-1.2 1.8-2 3.3-2.3 1.3-.3 2.6-.1 3.8.6 1.2.7 1.9 1.8 2.3 3.1.3 1.4.1 2.7-.6 3.9s-1.8 2-3.1 2.3c-1.6.4-2.9.2-4-.6-1.2-.9-1.9-1.9-2.2-3.2zM646.7 321.7c-.2-1.4 0-2.6.8-3.8s1.9-1.8 3.5-2.1c1.4-.2 2.6.1 3.7.9s1.8 1.9 2 3.3c.2 1.4-.1 2.7-.9 3.8-.8 1.1-1.9 1.8-3.3 2-1.6.2-2.9-.1-4-.9-.9-.8-1.6-1.9-1.8-3.2zM649.4 344.3c-.1-1.4.2-2.6 1.1-3.7s2-1.7 3.7-1.8c1.4-.1 2.6.3 3.7 1.2 1.1.9 1.7 2 1.8 3.5.1 1.4-.3 2.7-1.2 3.7-.9 1.1-2 1.7-3.4 1.8-1.6.1-2.9-.3-3.9-1.2-1.2-1-1.7-2.1-1.8-3.5zM650.3 366.7c0-1.4.4-2.6 1.3-3.6s2.1-1.6 3.8-1.6c1.4 0 2.6.4 3.6 1.4 1 1 1.5 2.1 1.5 3.6 0 1.4-.4 2.6-1.4 3.7-1 1-2.1 1.5-3.5 1.6-1.6 0-2.9-.5-3.8-1.4-1-1.2-1.5-2.3-1.5-3.7zM649.5 389.9c.1-1.4.6-2.6 1.6-3.5 1-.9 2.3-1.4 3.9-1.2 1.4.1 2.5.7 3.4 1.7.9 1 1.3 2.3 1.2 3.7-.1 1.4-.7 2.6-1.7 3.5-1 .9-2.3 1.3-3.7 1.2-1.6-.1-2.8-.7-3.7-1.8-.7-1-1.1-2.3-1-3.6zM647 412.5c.2-1.4.8-2.5 1.9-3.4 1-.9 2.4-1.2 4-1 1.4.2 2.5.9 3.3 2 .8 1.1 1.2 2.4.9 3.8-.2 1.4-.9 2.5-2 3.4-1.1.8-2.4 1.2-3.7 1-1.6-.2-2.8-.9-3.5-2s-1.1-2.4-.9-3.8zM642.8 434.9c.3-1.4 1-2.4 2.1-3.2 1.1-.8 2.4-1 4-.6 1.3.3 2.4 1 3.1 2.2.8 1.2 1 2.4.7 3.8-.3 1.4-1.1 2.5-2.2 3.2-1.2.8-2.4 1-3.8.7-1.6-.4-2.7-1.1-3.3-2.3-.7-1.2-.9-2.4-.6-3.8zM636.9 457c.4-1.3 1.2-2.4 2.4-3.1 1.2-.7 2.5-.8 4.1-.3 1.3.4 2.3 1.2 3 2.4.7 1.2.8 2.5.4 3.9s-1.2 2.4-2.5 3c-1.2.7-2.5.8-3.9.4-1.5-.5-2.6-1.3-3.2-2.6-.6-1.1-.7-2.4-.3-3.7zM629.4 478.5c.5-1.3 1.4-2.3 2.6-2.9 1.2-.6 2.6-.6 4.1 0 1.3.5 2.2 1.4 2.8 2.7.6 1.3.6 2.6.1 3.9-.5 1.3-1.4 2.3-2.7 2.8-1.3.6-2.6.6-3.9.1-1.5-.6-2.5-1.5-3-2.8-.5-1.3-.5-2.6 0-3.8zM620.2 499.4c.6-1.3 1.5-2.1 2.8-2.7 1.3-.5 2.6-.4 4.1.3 1.2.6 2.1 1.6 2.6 2.9s.4 2.6-.2 3.9c-.6 1.3-1.6 2.2-2.9 2.6-1.3.5-2.6.4-3.9-.2-1.4-.7-2.3-1.7-2.7-3-.5-1.4-.4-2.6.2-3.8zM609.4 519.5c.7-1.2 1.7-2 3-2.4 1.3-.4 2.6-.2 4 .6 1.2.7 2 1.7 2.3 3 .4 1.3.2 2.6-.5 3.8-.7 1.2-1.8 2-3.1 2.4-1.4.4-2.6.2-3.8-.5-1.4-.8-2.2-1.9-2.5-3.2-.3-1.3-.1-2.5.6-3.7zM597.2 538.7c.8-1.2 1.9-1.9 3.2-2.2 1.3-.3 2.6 0 4 .9 1.1.8 1.8 1.9 2.1 3.2.3 1.4 0 2.6-.8 3.8-.8 1.2-1.9 1.9-3.3 2.2-1.4.3-2.6 0-3.8-.8-1.3-.9-2.1-2-2.2-3.4-.3-1.4 0-2.6.8-3.7zM583.5 557c.9-1.1 2-1.7 3.3-2 1.3-.2 2.6.2 3.9 1.2 1.1.9 1.7 2 1.8 3.4.2 1.4-.2 2.6-1.1 3.7-.9 1.1-2 1.7-3.4 1.9s-2.6-.2-3.7-1.1c-1.2-1-1.9-2.2-2-3.5-.1-1.4.3-2.6 1.2-3.6zM568.5 574.1c1-1 2.1-1.6 3.5-1.7 1.4-.1 2.6.4 3.8 1.5 1 .9 1.5 2.1 1.6 3.5.1 1.4-.4 2.6-1.4 3.6-1 1-2.2 1.6-3.6 1.6-1.4.1-2.6-.4-3.6-1.4-1.2-1.1-1.7-2.3-1.7-3.7 0-1.2.5-2.4 1.4-3.4zM552.2 590.1c1-.9 2.2-1.4 3.6-1.4s2.6.6 3.7 1.8c.9 1 1.4 2.2 1.3 3.6 0 1.4-.6 2.6-1.6 3.5-1 1-2.3 1.4-3.7 1.4-1.4 0-2.6-.6-3.5-1.6-1.1-1.2-1.6-2.4-1.4-3.8.1-1.5.6-2.6 1.6-3.5zM534.8 604.8c1.1-.9 2.3-1.2 3.7-1.2 1.4.1 2.5.8 3.5 2 .8 1.1 1.2 2.3 1 3.7-.2 1.4-.8 2.5-1.9 3.4-1.1.9-2.4 1.2-3.8 1.1-1.4-.2-2.5-.8-3.4-1.9-1-1.3-1.4-2.6-1.1-3.9.3-1.3 1-2.4 2-3.2zM516.3 618.2c1.2-.8 2.4-1.1 3.8-.9 1.3.2 2.5 1 3.4 2.3.8 1.1 1 2.4.8 3.8s-1 2.4-2.2 3.2c-1.2.8-2.5 1.1-3.8.8-1.4-.3-2.5-1-3.2-2.1-.9-1.3-1.2-2.7-.8-4 .2-1.4.9-2.4 2-3.1zM496.9 630c1.2-.7 2.5-.9 3.8-.6 1.3.3 2.4 1.1 3.2 2.6.7 1.2.8 2.5.5 3.8-.4 1.3-1.2 2.4-2.4 3.1s-2.5.9-3.9.5-2.4-1.2-3.1-2.4c-.8-1.4-1-2.7-.5-4 .4-1.3 1.2-2.3 2.4-3zM476.6 640.5c1.3-.6 2.6-.7 3.9-.3 1.3.4 2.3 1.3 3 2.8.6 1.2.6 2.5.2 3.8-.5 1.3-1.3 2.3-2.6 2.9-1.3.6-2.6.7-3.9.2-1.3-.5-2.3-1.3-2.9-2.6-.7-1.5-.8-2.8-.2-4.1s1.3-2.2 2.5-2.7zM455.6 649.3c1.3-.5 2.6-.5 3.9 0 1.3.5 2.2 1.5 2.8 3 .5 1.3.4 2.6-.1 3.8-.6 1.3-1.5 2.2-2.8 2.7-1.3.5-2.6.5-3.9-.1-1.3-.6-2.2-1.5-2.7-2.8-.6-1.5-.5-2.9.1-4.1.5-1.2 1.4-2 2.7-2.5zM433.9 656.5c1.3-.4 2.6-.3 3.9.3s2.1 1.7 2.5 3.2c.4 1.3.2 2.6-.4 3.8-.7 1.2-1.7 2-3 2.4-1.4.4-2.7.3-3.9-.4-1.2-.7-2.1-1.7-2.4-3-.4-1.5-.3-2.9.4-4 .6-1.2 1.6-2 2.9-2.3zM411.8 662c1.4-.3 2.6-.1 3.8.6 1.2.7 1.9 1.8 2.3 3.4.3 1.3 0 2.6-.7 3.8-.7 1.2-1.8 1.9-3.2 2.2-1.4.3-2.7.1-3.9-.7-1.2-.8-1.9-1.8-2.2-3.2-.3-1.6-.1-2.9.7-4s1.9-1.8 3.2-2.1zM389.4 665.8c1.4-.2 2.6.1 3.8.9 1.1.8 1.8 1.9 2 3.6.2 1.4-.1 2.6-1 3.7-.8 1.1-2 1.8-3.4 1.9s-2.7-.1-3.8-1c-1.1-.8-1.8-2-2-3.3-.2-1.6.1-2.9 1-3.9.9-1.1 2-1.7 3.4-1.9zM366.7 667.9c1.4-.1 2.6.3 3.7 1.2 1.1.8 1.6 2.1 1.7 3.7.1 1.4-.3 2.6-1.3 3.6-.9 1-2.1 1.6-3.5 1.7-1.4.1-2.7-.3-3.7-1.3-1.1-.9-1.6-2.1-1.7-3.5-.1-1.6.3-2.9 1.3-3.8 1-1 2.1-1.5 3.5-1.6zM343.9 668.3c1.4 0 2.6.5 3.6 1.4 1 .9 1.5 2.2 1.4 3.8 0 1.4-.5 2.5-1.5 3.5s-2.2 1.4-3.6 1.4-2.6-.5-3.6-1.5-1.5-2.2-1.4-3.6c0-1.6.6-2.8 1.6-3.7.9-.9 2.1-1.3 3.5-1.3zM321.1 667c1.4.1 2.5.7 3.5 1.7.9 1 1.3 2.3 1.2 3.9-.1 1.4-.7 2.5-1.8 3.4-1.1.9-2.3 1.3-3.7 1.1-1.4-.1-2.6-.7-3.5-1.8-.9-1.1-1.3-2.3-1.2-3.7.2-1.6.8-2.8 1.9-3.6 1-.8 2.2-1.2 3.6-1zM298.5 663.9c1.4.2 2.5.9 3.3 1.9.8 1.1 1.1 2.4.9 4-.2 1.4-.9 2.4-2 3.2-1.1.8-2.4 1.1-3.8.9-1.4-.2-2.5-.9-3.3-2.1s-1.1-2.4-.9-3.8c.3-1.6 1-2.7 2.1-3.5 1.1-.6 2.4-.8 3.7-.6zM276.2 659.2c1.4.3 2.4 1.1 3.2 2.2.8 1.1.9 2.5.5 4a4.8 4.8 0 0 1-2.3 3.1c-1.2.7-2.5.9-3.8.6-1.4-.3-2.4-1.1-3.2-2.3-.7-1.2-.9-2.5-.6-3.8.4-1.6 1.2-2.6 2.4-3.3 1.3-.7 2.5-.9 3.8-.5zM254.3 652.7c1.3.4 2.3 1.3 3 2.4.7 1.2.8 2.5.2 4.1-.4 1.3-1.3 2.3-2.5 2.9-1.2.6-2.5.7-3.9.3-1.3-.5-2.3-1.3-3-2.6-.6-1.2-.7-2.5-.3-3.9.5-1.5 1.4-2.5 2.6-3.1 1.4-.4 2.6-.5 3.9-.1zM233 644.6c1.3.5 2.2 1.4 2.8 2.7.6 1.2.6 2.6-.1 4.1-.5 1.3-1.4 2.2-2.7 2.7-1.3.5-2.6.5-3.9 0-1.3-.6-2.2-1.5-2.8-2.8-.5-1.3-.5-2.6 0-3.9.6-1.5 1.6-2.4 2.9-2.9 1.3-.4 2.5-.4 3.8.1zM212.4 634.9c1.2.6 2.1 1.6 2.6 2.9.5 1.3.4 2.6-.4 4.1-.6 1.2-1.6 2.1-2.9 2.5-1.3.4-2.6.3-3.9-.3-1.3-.7-2.1-1.6-2.6-3-.4-1.3-.3-2.6.3-3.9.7-1.4 1.8-2.3 3.1-2.7s2.6-.2 3.8.4zM192.5 623.7c1.2.7 2 1.8 2.4 3.1.4 1.3.2 2.6-.7 4-.7 1.2-1.8 1.9-3.1 2.3-1.3.3-2.6.1-3.8-.6-1.2-.7-2-1.8-2.3-3.2-.3-1.4-.1-2.6.6-3.8.8-1.4 1.9-2.2 3.3-2.4 1.2-.3 2.5-.1 3.6.6zM173.6 611c1.1.8 1.8 1.9 2.1 3.2.3 1.3 0 2.6-1 4-.8 1.1-1.9 1.8-3.3 2-1.4.2-2.6-.1-3.8-.9-1.1-.8-1.8-1.9-2.1-3.3-.2-1.4.1-2.6.9-3.8.9-1.3 2.1-2 3.4-2.2 1.5-.1 2.7.2 3.8 1zM155.7 596.9c1.1.9 1.7 2 1.9 3.4.2 1.3-.2 2.6-1.3 3.9-.9 1-2 1.6-3.4 1.8-1.4.1-2.6-.3-3.7-1.2-1.1-.9-1.7-2.1-1.8-3.5-.1-1.4.3-2.6 1.2-3.7 1-1.2 2.2-1.9 3.6-1.9 1.3-.1 2.5.3 3.5 1.2zM138.9 581.5c1 1 1.5 2.2 1.6 3.5.1 1.4-.4 2.6-1.6 3.8-1 1-2.1 1.5-3.5 1.5s-2.6-.5-3.6-1.5-1.5-2.2-1.5-3.6.5-2.6 1.4-3.6c1.1-1.1 2.4-1.7 3.7-1.6 1.4 0 2.5.5 3.5 1.5zM123.3 564.9c.9 1.1 1.4 2.3 1.4 3.6 0 1.4-.6 2.6-1.9 3.6-1 .9-2.2 1.3-3.6 1.2-1.4-.1-2.5-.7-3.5-1.7-.9-1.1-1.4-2.3-1.3-3.7.1-1.4.7-2.6 1.7-3.5 1.2-1 2.5-1.5 3.8-1.3 1.4.2 2.5.7 3.4 1.8zM109 547.1c.8 1.1 1.2 2.4 1.1 3.7-.1 1.4-.8 2.5-2.1 3.5-1.1.8-2.3 1.1-3.7 1-1.4-.2-2.5-.8-3.3-2-.8-1.1-1.2-2.4-1-3.8.2-1.4.8-2.5 2-3.3 1.3-1 2.6-1.3 3.9-1 1.3.1 2.3.8 3.1 1.9zM96.1 528.3c.7 1.2 1 2.4.8 3.8-.2 1.3-1 2.4-2.4 3.3-1.2.7-2.4 1-3.8.7-1.4-.3-2.4-1-3.2-2.2s-1-2.5-.7-3.9c.3-1.4 1-2.4 2.2-3.2 1.4-.9 2.7-1.1 4-.7 1.4.3 2.4 1.1 3.1 2.2zM84.7 508.6c.7 1.2.8 2.5.5 3.8-.3 1.3-1.2 2.4-2.6 3.1-1.2.6-2.5.8-3.8.4-1.3-.4-2.3-1.2-3-2.5-.7-1.3-.8-2.6-.4-3.9.4-1.3 1.2-2.3 2.4-3 1.4-.7 2.8-.9 4-.4 1.3.4 2.3 1.3 2.9 2.5zM74.8 488c.6 1.3.6 2.6.2 3.9-.4 1.3-1.4 2.3-2.9 2.9-1.3.6-2.5.6-3.8.1-1.3-.5-2.2-1.4-2.8-2.7-.6-1.3-.6-2.6-.1-3.9.5-1.3 1.4-2.2 2.7-2.8 1.5-.6 2.8-.7 4.1-.1 1.2.5 2.1 1.4 2.6 2.6zM66.5 466.8c.5 1.3.4 2.6-.1 3.9-.5 1.3-1.5 2.1-3.1 2.7-1.3.5-2.6.4-3.8-.2-1.3-.6-2.1-1.6-2.6-2.9-.5-1.3-.4-2.6.2-3.9.6-1.3 1.6-2.1 2.9-2.6 1.5-.5 2.9-.5 4.1.2s1.9 1.5 2.4 2.8zM59.8 445c.4 1.4.2 2.6-.4 3.8-.6 1.2-1.7 2-3.3 2.4-1.3.4-2.6.2-3.8-.5-1.2-.7-2-1.7-2.4-3.1-.4-1.4-.2-2.7.5-3.9.7-1.2 1.7-2 3.1-2.4 1.5-.4 2.9-.2 4 .5 1.2.9 2 1.9 2.3 3.2zM54.8 422.7c.3 1.4 0 2.6-.7 3.8-.7 1.2-1.9 1.9-3.4 2.2-1.4.2-2.6 0-3.8-.8-1.2-.8-1.9-1.9-2.1-3.3-.3-1.4 0-2.7.8-3.8.8-1.2 1.9-1.9 3.2-2.1 1.6-.3 2.9 0 4 .8s1.8 1.9 2 3.2zM51.6 400.2c.1 1.4-.2 2.6-1 3.7s-2 1.7-3.6 1.9c-1.4.1-2.6-.2-3.7-1.1-1.1-.9-1.7-2-1.9-3.4-.2-1.4.2-2.7 1.1-3.8.9-1.1 2-1.7 3.4-1.9 1.6-.2 2.9.2 3.9 1.1 1.1 1 1.6 2.1 1.8 3.5zM50 377.4c0 1.4-.4 2.6-1.2 3.7-.9 1-2.1 1.6-3.7 1.6-1.4 0-2.6-.4-3.6-1.3s-1.6-2.1-1.6-3.5.4-2.6 1.4-3.7c.9-1 2.1-1.6 3.5-1.6 1.6 0 2.9.4 3.8 1.4.9.9 1.4 2 1.4 3.4zM50.2 354.6c-.1 1.4-.6 2.6-1.5 3.6s-2.2 1.4-3.9 1.4c-1.4-.1-2.5-.6-3.5-1.6-.9-1-1.4-2.2-1.3-3.6.1-1.4.6-2.6 1.6-3.6s2.2-1.4 3.6-1.3c1.6.1 2.8.6 3.7 1.7.9.9 1.3 2.1 1.3 3.4z"/><g><defs><circle id="SVGID_57_" cx="348.2" cy="366.2" r="253.9"/></defs><clipPath id="SVGID_2_"><use xlink:href="#SVGID_57_" overflow="visible"/></clipPath><g clip-path="url(#SVGID_2_)"><path fill="#939393" stroke="#939393" stroke-miterlimit="10" d="M286.4 107.9h115.4v514.2H286.4z"/></g><g><defs><circle id="SVGID_59_" cx="348.2" cy="366.2" r="253.9"/></defs><clipPath id="SVGID_4_"><use xlink:href="#SVGID_59_" overflow="visible"/></clipPath><g clip-path="url(#SVGID_4_)"><path class="st3" d="M402.6 204.4c-.8-3.3-1.7-6.2-3.1-8.8-.6 1-.6 2.1-1 2.9-1 2.3-1.9 4-3.1 6h7.2z"/><path class="st3" d="M403.6 205h-9l.6-1c1.2-1.9 2.1-3.7 3.1-5.8.2-.4.2-.8.4-1.2.2-.6.4-1.3.6-1.9l.6-1.2.6 1.2c1.2 2.7 2.1 5.8 3.1 9v.9zm-7-1.3h5.2c-.6-2.3-1.3-4.4-2.1-6.5v.2c-.2.4-.2 1-.4 1.3-.9 1.9-1.7 3.4-2.7 5z"/><path class="st3" d="M405.9 204.4c-1-3.7-1.9-7.1-3.3-10.2-.6-1.2-1.5-1.9-2.9-1.9s-2.3.8-2.9 1.9c-.6 1.5-.8 2.7-1 2.9-1.2 2.7-2.5 5-3.7 7.5h13.7v-.2z"/><path class="st3" d="M406.8 205H391l.6-1c1.2-2.3 2.5-4.6 3.7-7.3l.2-.2s0-.2.2-.6c.2-.6.4-1.3.8-2.1.6-1.3 2.1-2.3 3.5-2.3 1.3 0 2.9 1 3.5 2.3 1.2 2.7 2.3 6 3.5 10.4l-.2.8zm-13.6-1.3h11.9c-1-4-1.9-6.9-3.1-9.4-.4-1-1.3-1.5-2.3-1.5-1 0-1.9.6-2.3 1.5-.4.8-.6 1.5-.8 1.9-.2.4-.2.8-.4 1-.9 2.4-2.1 4.6-3 6.5z"/><path class="st3" d="M403 151.9c0-11.3-1.2-22.3-3.5-31h6.3c2.3 9.2 3.3 20 3.3 31 0 17.9-2.7 36-7.7 47.7-.8 1.7-1.7 3.1-2.5 4.6h-7.1c1.3-2.3 2.5-4.6 3.7-7.3 4.6-10 7.5-27.7 7.5-45zM392 121h7.5c-13.7 27.7-32.7 35-50 42.5-17.3 8.1-42.3 14.4-55 40.8h-7.1c13.7-31.2 42.7-39.4 59.6-46.7 16.9-7.6 32.5-13.6 45-36.6z"/><path class="st3" d="M399.5 205h-8.7l.6-1.2c1.2-2.1 2.5-4.4 3.5-6.9 4.4-10 7.1-27.7 7.1-44.8 0-10.8-1.2-21-3.1-29.2-13.1 25.4-31.2 33.3-47.1 40.2l-2.3 1c-2.7 1.3-5.8 2.5-8.8 3.8-16.5 6.9-35.2 14.8-45.8 36.7l-.2.4h-8.5l.4-1c11.9-27.5 35.8-37.1 53.1-44.2 2.5-1 4.8-1.9 6.9-2.9l3.1-1.3c15.4-6.9 30-13.5 41.7-35l.2-.4h14.8l.2.6c2.1 9 3.5 19.8 3.5 31.2 0 18.5-2.9 36.4-7.7 47.9-.4 1-1 1.7-1.3 2.7-.4.8-.8 1.3-1.2 2.1l-.4.3zm-6.5-1.3h5.8c.4-.6.6-1.2 1-1.7.4-.8 1-1.5 1.3-2.5 4.8-11.3 7.5-29 7.5-47.5 0-11.2-1.2-21.5-3.3-30.4h-5c2.1 8.5 3.3 19.2 3.3 30.4 0 17.3-2.9 35.2-7.3 45.4-1 2.2-2.2 4.4-3.3 6.3zm-104.7 0h5.8c10.8-22.1 30.4-30.4 46.4-36.9 3.1-1.3 6-2.5 8.8-3.8l2.3-1c16.7-7.3 34-14.8 46.9-40.4h-6c-11.7 21.7-26.5 28.3-42.1 35.2l-3.1 1.3c-2.1 1-4.4 1.9-6.9 2.9-17 6.9-40.1 16.3-52.1 42.7z"/><g><path class="st3" d="M293.9 204.4c.2-.2.6-.4.8-.8 12.7-25.8 37.5-32.3 54.6-40 17.1-7.7 36.2-15.4 49.6-42.5h-7.1c-12.5 23.1-28.1 28.9-45 36.5-15.2 6.9-40.4 13.5-55 38.1-.6-1-1.2-2.1-1.5-3.3-2.1-6.2-3.3-14.2-3.8-22.3 0-2.9-.2-5.6-.2-7.9 0-17.7 3.3-31 8.1-41.4h-7.1c-4.6 10.8-7.5 23.9-7.5 40.8v.6c0 2.7.2 5.4.2 8.3.4 8.5 1.5 17.1 4.2 24.2 1.5 3.5 3.1 6.3 5 9 .2.2.4.4.6.4l4.1.3z"/><path class="st3" d="M294.3 205h-4.6l-.2-.2-.6-.6c-1.9-2.9-3.7-6-5-9.2-2.3-6.7-3.8-15.2-4.2-24.6 0-1 0-1.9-.2-2.9 0-1.7-.2-3.7-.2-5.4v-.6c0-15.6 2.5-29.4 7.5-41l.2-.4h8.5l-.4 1c-5.4 11.2-8.1 24.6-8.1 41 0 2.3 0 4.8.2 7.5v.4c.4 6.2 1.3 15.2 3.8 22.1.4.8.6 1.5 1 2.1 12.5-20 32.3-28.1 46.7-34 2.9-1.2 5.6-2.3 8.1-3.5l3.3-1.5c16-7.3 29.8-13.5 41.5-34.8l.2-.4h8.7l-.4 1c-13.1 26.4-31.5 34.6-47.7 41.9l-2.1 1c-2.5 1.2-5.2 2.3-8.1 3.5-15.8 6.5-35.6 14.6-46.4 36.4-.2.4-.6.6-.8.8-.3 0-.5.2-.7.4zm-4.2-1.3h3.7c.2-.2.4-.2.4-.4 11-22.1 31-30.2 46.9-36.9 2.9-1.2 5.6-2.3 8.1-3.5l2.1-1c16.7-7.5 33.9-15.2 46.7-40.4h-5.8c-11.7 21.4-26.4 28.1-41.9 35L347 158c-2.5 1.2-5.2 2.3-8.1 3.5-15.4 6.2-34.4 14-46.7 34.4l-.6 1-.6-1c-.6-1-1.2-1.9-1.5-3.3-2.5-7.1-3.5-16.2-3.8-22.5v-.4c0-2.7-.2-5.2-.2-7.7 0-16.2 2.7-29.4 7.7-40.6h-5.6c-4.8 11.3-7.3 24.8-7.3 40v.6c0 1.7 0 3.5.2 5.4 0 1 0 1.9.2 2.9.4 9.2 1.7 17.5 4 24 1.5 3.3 3.1 6.2 5 9 .2.4.2.4.4.4z"/></g><g><path class="st3" d="M402.6 287.7c-.8-3.3-1.7-6.2-3.1-8.8-.6 1-.6 2.1-1 2.9-1 2.3-1.9 4-3.1 6h7.2z"/><path class="st3" d="M403.6 288.5h-9l.6-1c1.2-1.9 2.1-3.7 3.1-6 .2-.4.2-.8.4-1.2.2-.6.4-1.3.6-1.9l.6-1.2.6 1.2c1.2 2.7 2.1 5.8 3.1 9v1.1zm-7-1.3h5.2c-.6-2.3-1.3-4.4-2.1-6.5v.2c-.2.4-.2 1-.4 1.3-.9 1.9-1.7 3.4-2.7 5zM292 286.8l-.6-1c-1.9-2.9-3.5-5.6-4.6-8.5-2.9-7.9-3.8-17.1-4-23.5-1-19.8 1.5-36.2 7.7-49.8l1.2.6c-6.2 13.5-8.5 29.4-7.5 49.1.4 9 1.7 17.1 4 23.1 1.2 2.5 2.3 4.8 4 7.3 11.7-22.5 31.9-30.8 48.1-37.5 2.9-1.2 5.6-2.3 8.1-3.5l2.7-1.2c15.8-7.1 32.1-14.4 44.2-38.1l1.2.6c-12.5 24-29 31.5-45 38.7l-2.7 1.2c-2.5 1.2-5.2 2.3-8.1 3.5-16.4 6.7-36.5 15-47.9 37.9l-.8 1.1z"/><path class="st3" d="M405.9 287.7c-1-3.7-1.9-7.1-3.3-10.2-.6-1.2-1.5-1.9-2.9-1.9s-2.3.8-2.9 1.9c-.6 1.5-.8 2.7-1 2.9-1.2 2.7-2.5 5-3.7 7.5h13.7v-.2z"/><path class="st3" d="M406.8 288.5H391l.6-1c1.2-2.3 2.5-4.6 3.7-7.3l.2-.2s0-.2.2-.6c.2-.6.4-1.3.8-2.1.6-1.3 2.1-2.3 3.5-2.3 1.3 0 2.9 1 3.5 2.3 1.2 2.7 2.3 6 3.5 10.4l-.2.8zm-13.6-1.3h11.9c-1-4-1.9-6.9-3.1-9.4-.4-1-1.3-1.5-2.3-1.5-1 0-1.9.6-2.3 1.5-.4.8-.6 1.5-.8 1.9-.2.4-.2.8-.4 1-.9 2.4-2.1 4.5-3 6.5z"/><g><path class="st3" d="M403 235.4c0-11.3-1.2-22.3-3.5-31h6.3c2.3 9.2 3.3 20 3.3 31 0 17.9-2.7 36-7.7 47.7-.8 1.7-1.7 3.1-2.5 4.6h-7.1c1.3-2.3 2.5-4.6 3.7-7.3 4.6-10.2 7.5-27.9 7.5-45zm-11-31h7.5c-13.7 27.7-32.7 35-50 42.5-17.3 8.1-42.3 14.4-55 40.8h-7.1c13.7-31.2 42.7-39.4 59.6-46.7 16.9-7.5 32.5-13.5 45-36.6z"/><path class="st3" d="M399.5 288.5h-8.7l.8-1.3c1.2-2.1 2.3-4.4 3.5-6.9 4.4-10 7.1-27.7 7.1-44.8 0-10.8-1.2-21-3.1-29.2-13.1 25.4-31.2 33.3-47.1 40.2l-2.3 1c-2.7 1.3-5.8 2.5-8.8 3.8-16.5 6.9-35.2 14.8-45.8 36.7l-.2.4h-8.5l.4-1c11.9-27.5 35.8-37.1 53.1-44.2 2.5-1 4.8-1.9 6.9-2.9l3.1-1.3c15.4-6.9 30-13.5 41.7-35l.2-.4h14.8l.2.6c2.1 9 3.5 19.8 3.5 31.2 0 18.5-2.9 36.4-7.7 47.9-.4 1-1 1.7-1.3 2.7-.4.8-.8 1.3-1.2 2.1l-.6.4zm-6.5-1.3h5.8c.4-.6.6-1.2 1-1.7.4-.8 1-1.5 1.3-2.5 4.8-11.3 7.5-29 7.5-47.5 0-11.2-1.2-21.5-3.3-30.4h-5c2.1 8.5 3.3 19.2 3.3 30.4 0 17.3-2.9 35.2-7.3 45.4-1 2.2-2.2 4.3-3.3 6.3zm-104.7 0h5.8c10.8-22.1 30.4-30.4 46.4-36.9 3.1-1.3 6-2.5 8.8-3.8l2.3-1c16.7-7.3 34-14.8 46.9-40.4h-6c-11.7 21.7-26.5 28.3-42.1 35.2l-3.1 1.3c-2.1 1-4.4 1.9-6.9 2.9-17 6.9-40.1 16.3-52.1 42.7z"/></g><g><path class="st3" d="M293.9 287.7c.2-.2.6-.4.8-.8 12.7-25.8 37.5-32.3 54.6-40 17.1-7.7 36.2-15.4 49.6-42.5h-7.1c-12.5 23.1-28.1 28.9-45 36.5-15.2 6.9-40.4 13.5-55 38.1-.6-1-1.2-2.1-1.5-3.3-2.1-6.2-3.3-14.2-3.8-22.3 0-2.9-.2-5.6-.2-7.9 0-17.7 3.3-31 8.1-41.4h-7.1c-4.6 10.8-7.5 23.9-7.5 40.8v.6c0 2.7.2 5.4.2 8.3.4 8.5 1.5 17.1 4.2 24.2 1.5 3.5 3.1 6.3 5 9 .2.2.4.4.6.4l4.1.3z"/><path class="st3" d="M294.3 288.5h-4.6l-.2-.2-.6-.6c-1.9-2.9-3.7-6-5-9.2-2.3-6.7-3.8-15.2-4.2-24.6 0-1 0-1.9-.2-2.9 0-1.7-.2-3.7-.2-5.4v-.6c0-15.6 2.5-29.4 7.5-41l.2-.4h8.5l-.4 1c-5.4 11.2-8.1 24.6-8.1 41 0 2.3 0 4.8.2 7.5v.4c.4 6.2 1.3 15.2 3.8 22.1.4.8.6 1.5 1 2.1 12.5-20 32.3-28.1 46.7-34 2.9-1.2 5.6-2.3 8.1-3.5l3.3-1.5c16-7.3 29.8-13.5 41.5-34.8l.2-.4h8.7l-.4 1c-13.1 26.4-31.5 34.6-47.7 41.9l-2.1 1c-2.5 1.2-5.2 2.3-8.1 3.5-15.8 6.5-35.6 14.6-46.4 36.4-.2.4-.6.6-.8.8l-.7.4zm-4.2-1.3h3.7c.2-.2.4-.2.4-.4 11-22.1 31-30.4 46.9-36.9 2.9-1.2 5.6-2.3 8.1-3.5l2.1-1c16.7-7.5 33.9-15.2 46.7-40.4h-5.8c-11.7 21.4-26.4 28.1-41.9 35l-3.3 1.5c-2.5 1.2-5.2 2.3-8.1 3.5-15.4 6.2-34.4 14-46.7 34.4l-.6 1-.6-1c-.6-1-1.2-1.9-1.5-3.3-2.5-7.1-3.5-16.2-3.8-22.5v-.4c0-2.7-.2-5.2-.2-7.7 0-16.2 2.7-29.4 7.7-40.6h-5.6c-4.8 11.3-7.3 24.8-7.3 40v.6c0 1.7 0 3.5.2 5.4 0 1 0 1.9.2 2.9.4 9.2 1.7 17.5 4 24 1.5 3.3 3.1 6.2 5 9 .2.2.2.4.4.4z"/></g></g><g><path class="st3" d="M402.6 371.2c-.8-3.3-1.7-6.2-3.1-8.8-.6 1-.6 2.1-1 2.9-1 2.3-1.9 4-3.1 6h7.2z"/><path class="st3" d="M403.6 371.8h-9l.6-1c1.2-1.9 2.1-3.7 3.1-6 .2-.4.2-.8.4-1.2.2-.6.4-1.3.6-1.9l.6-1.2.6 1.2c1.2 2.7 2.1 5.8 3.1 9v1.1zm-7-1.2h5.2c-.6-2.3-1.3-4.4-2.1-6.5v.2c-.2.4-.2 1-.4 1.3-.9 1.8-1.7 3.3-2.7 5zM292 370.3l-.6-1c-1.9-2.9-3.5-5.6-4.6-8.5-2.9-7.9-3.8-17.1-4-23.5-1-19.8 1.5-36.2 7.7-49.8l1.2.6c-6.2 13.5-8.5 29.4-7.5 49.1.4 9 1.7 16.9 4 23.1 1.2 2.5 2.3 4.8 4 7.3 11.7-22.5 31.9-30.8 48.1-37.5 2.9-1.2 5.6-2.3 8.1-3.5l2.7-1.2c15.8-7.1 32.1-14.4 44.2-38.1l1.2.6c-12.5 24-28.9 31.5-45 38.7l-2.7 1.2c-2.5 1.2-5.2 2.3-8.1 3.5-16.4 6.7-36.5 15-47.9 37.9l-.8 1.1z"/><path class="st3" d="M405.9 371.2c-1-3.7-1.9-7.1-3.3-10.2-.6-1.2-1.5-1.9-2.9-1.9s-2.3.8-2.9 1.9c-.6 1.5-.8 2.7-1 2.9-1.2 2.7-2.5 5-3.7 7.5h13.7v-.2z"/><path class="st3" d="M406.8 371.8H391l.6-1c1.3-2.3 2.5-4.6 3.7-7.3l.2-.2s0-.2.2-.6c.2-.6.4-1.3.8-2.1.6-1.3 2.1-2.3 3.5-2.3 1.3 0 2.9 1 3.5 2.3 1.2 2.7 2.3 6 3.5 10.4l-.2.8zm-13.6-1.2h11.9c-1-4-1.9-6.9-3.1-9.4-.4-1-1.3-1.5-2.3-1.5-1 0-1.9.6-2.3 1.5-.4.8-.6 1.5-.8 1.9-.2.4-.2.8-.4 1-.9 2.3-2.1 4.4-3 6.5z"/><g><path class="st3" d="M403 318.9c0-11.3-1.2-22.3-3.5-31h6.3c2.3 9.2 3.3 20 3.3 31 0 17.9-2.7 36-7.7 47.7-.8 1.7-1.7 3.1-2.5 4.6h-7.1c1.3-2.3 2.5-4.6 3.7-7.3 4.6-10.2 7.5-27.9 7.5-45zm-11-31.2h7.5c-13.7 27.7-32.7 35-50 42.5-17.3 8.1-42.3 14.4-55 40.8h-7.1c13.7-31.2 42.7-39.4 59.6-46.7 16.9-7.5 32.5-13.3 45-36.6z"/><path class="st3" d="M399.5 371.8h-8.7l.8-1.3c1.2-2.1 2.3-4.4 3.5-6.9 4.4-10 7.1-27.7 7.1-44.8 0-10.8-1.2-21-3.1-29.2-13.1 25.4-31.2 33.3-47.1 40.2l-2.3 1c-2.7 1.3-5.8 2.5-8.8 3.8-16.5 6.9-35.2 14.8-45.8 36.7l-.2.4h-8.5l.4-1c11.9-27.5 35.8-37.1 53.1-44.2 2.5-1 4.8-1.9 6.7-2.9l3.1-1.3c15.4-6.9 30-13.5 41.7-35l.2-.4h14.8l.2.6c2.1 9 3.5 19.8 3.5 31.2 0 18.5-2.9 36.4-7.7 47.9-.4 1-1 1.7-1.3 2.7-.4.8-.8 1.3-1.2 2.1l-.4.4zm-6.5-1.2h5.8c.4-.6.6-1.2 1-1.7.4-.8 1-1.5 1.3-2.5 4.8-11.3 7.5-29 7.5-47.5 0-11.2-1.2-21.5-3.3-30.4h-5c2.1 8.5 3.3 19.2 3.3 30.4 0 17.3-2.9 35.2-7.3 45.4-1 2.1-2.2 4.2-3.3 6.3zm-104.7 0h5.8c10.8-22.1 30.4-30.4 46.4-36.9 3.1-1.3 6-2.5 8.8-3.8l2.3-1c16.7-7.3 34-14.8 46.9-40.4h-6c-11.7 21.7-26.5 28.3-42.1 35.2l-3.1 1.3c-2.1 1-4.4 1.9-6.9 2.9-17 7-40.1 16.2-52.1 42.7z"/></g><g><path class="st3" d="M293.9 371.2c.2-.2.6-.4.8-.8 12.7-25.8 37.5-32.3 54.6-40 17.1-7.7 36.2-15.4 49.6-42.5h-7.1c-12.5 23.1-28.1 28.9-45 36.5-15.2 6.9-40.4 13.5-55 38.1-.6-1-1.2-2.1-1.5-3.3-2.1-6.2-3.3-14.2-3.8-22.3 0-2.9-.2-5.6-.2-7.9 0-17.7 3.3-31 8.1-41.4h-7.1c-4.6 10.6-7.5 23.9-7.5 40.8v.6c0 2.7.2 5.4.2 8.3.4 8.5 1.5 17.1 4.2 24.2 1.5 3.5 3.1 6.3 5 9 .2.2.4.4.6.4l4.1.3z"/><path class="st3" d="M294.3 371.8h-4.6l-.2-.2-.6-.6c-1.9-2.9-3.7-6-5-9.2-2.3-6.7-3.8-15.2-4.2-24.6 0-1 0-1.9-.2-2.9 0-1.7-.2-3.7-.2-5.4v-.6c0-15.6 2.5-29.4 7.5-41l.2-.4h8.5l-.4 1c-5.4 11.2-8.1 24.6-8.1 41 0 2.3 0 4.8.2 7.5v.4c.4 6.2 1.3 15.2 3.8 22.1.4.8.6 1.5 1 2.1 12.5-20 32.3-28.1 46.7-34 2.9-1.2 5.6-2.3 8.1-3.5l3.3-1.5c16-7.3 29.8-13.5 41.5-34.8l.2-.4h8.7l-.4 1c-13.1 26.4-31.5 34.6-47.7 41.9l-2.1 1c-2.5 1.2-5.2 2.3-8.1 3.5-15.8 6.5-35.6 14.6-46.4 36.4-.2.4-.6.6-.8.8l-.7.4zm-4.2-1.2h3.7c.2-.2.4-.2.4-.4 11-22.1 31-30.2 46.9-36.9 2.9-1.2 5.6-2.3 8.1-3.5l2.1-1c16.7-7.5 33.9-15.2 46.7-40.4h-5.8c-11.7 21.4-26.4 28.1-41.9 35l-3.3 1.5c-2.5 1.2-5.2 2.3-8.1 3.5-15.4 6.2-34.4 14-46.7 34.4l-.6 1-.6-1c-.6-1-1.2-1.9-1.5-3.3-2.5-7.1-3.5-16.2-3.8-22.5v-.4c0-2.7-.2-5.2-.2-7.7 0-16.2 2.7-29.4 7.7-40.6h-5.6c-4.8 11.3-7.3 24.8-7.3 40v.6c0 1.7 0 3.5.2 5.4 0 1 0 1.9.2 2.9.4 9.2 1.7 17.5 4 24 1.5 3.3 3.1 6.2 5 9 .2.3.2.3.4.4z"/></g></g><g><path class="st3" d="M402.6 454.7c-.8-3.3-1.7-6.2-3.1-8.8-.6 1-.6 2.1-1 2.9-1 2.3-1.9 4-3.1 6h7.2v-.1z"/><path class="st3" d="M403.6 455.3h-9l.6-1c1.2-1.9 2.1-3.7 3.1-6 .2-.4.2-.8.4-1.2.2-.6.4-1.3.6-1.9l.6-1.2.6 1.2c1.2 2.7 2.1 5.8 3.1 9v1.1zm-7-1.4h5.2c-.6-2.3-1.3-4.4-2.1-6.5v.2c-.2.4-.2 1-.4 1.3-.9 2-1.7 3.5-2.7 5z"/><path class="st3" d="M405.9 454.7c-1-3.7-1.9-7.1-3.3-10.2-.6-1.2-1.5-1.9-2.9-1.9s-2.3.8-2.9 1.9c-.6 1.5-.8 2.7-1 2.9-1.2 2.7-2.5 5-3.7 7.5l13.8-.2z"/><path class="st3" d="M406.8 455.3H391l.6-1c1.3-2.3 2.5-4.6 3.7-7.3l.2-.2s0-.2.2-.6c.2-.6.4-1.3.8-2.1.6-1.3 2.1-2.3 3.5-2.3 1.3 0 2.9 1 3.5 2.3 1.2 2.7 2.3 6 3.5 10.4l-.2.8zm-13.6-1.4h11.9c-1-4-1.9-6.9-3.1-9.4-.4-1-1.3-1.5-2.3-1.5-1 0-1.9.6-2.3 1.5-.4.8-.6 1.5-.8 1.9-.2.4-.2.8-.4 1-.9 2.5-2.1 4.6-3 6.5z"/><g><path class="st3" d="M403 402.2c0-11.3-1.2-22.3-3.5-31h6.3c2.3 9.2 3.3 20 3.3 31 0 17.9-2.7 36-7.7 47.7-.8 1.7-1.7 3.1-2.5 4.6h-7.1c1.3-2.3 2.5-4.6 3.7-7.3 4.6-10.2 7.5-27.7 7.5-45zm-11-31h7.5c-13.7 27.7-32.7 35-50 42.5-17.3 8.1-42.3 14.4-55 40.8h-7.1c13.7-31.2 42.7-39.4 59.6-46.7 16.9-7.5 32.5-13.5 45-36.6z"/><path class="st3" d="M399.5 455.3h-8.7l.8-1.3c1.2-2.1 2.3-4.4 3.5-6.9 4.4-10 7.1-27.7 7.1-44.8 0-10.8-1.2-21-3.1-29.2-13.1 25.4-31.2 33.3-47.1 40.2l-2.3 1c-2.7 1.3-5.8 2.5-8.8 3.8-16.5 6.9-35.2 14.8-45.8 36.7l-.2.4h-8.5l.4-1c11.9-27.5 35.8-37.1 53.1-44.2 2.5-1 4.8-1.9 6.7-2.9l3.1-1.3c15.4-6.9 30-13.5 41.7-35l.2-.4h14.8l.2.6c2.1 9 3.5 19.8 3.5 31.2 0 18.5-2.9 36.4-7.7 47.9-.4 1-1 1.7-1.3 2.5-.4.8-.8 1.3-1.2 2.1l-.4.6zm-6.5-1.4h5.8c.4-.6.6-1.2 1-1.7.4-.8 1-1.5 1.3-2.5 4.8-11.3 7.5-29 7.5-47.5 0-11.2-1.2-21.5-3.3-30.4h-5c2.1 8.5 3.3 19.2 3.3 30.4 0 17.3-2.9 35.2-7.3 45.4-1 2.3-2.2 4.4-3.3 6.3zm-104.7 0h5.8c10.8-22.1 30.4-30.4 46.4-36.9 3.1-1.3 6-2.5 8.8-3.8l2.3-1c16.7-7.3 34-14.8 46.9-40.4h-6c-11.7 21.7-26.5 28.3-42.1 35.2l-3.1 1.3c-2.1 1-4.4 1.9-6.9 2.9-17 7-40.1 16.4-52.1 42.7z"/></g><g><path class="st3" d="M293.9 454.7c.2-.2.6-.4.8-.8 12.7-25.8 37.5-32.3 54.6-40 17.1-7.7 36.2-15.4 49.6-42.5h-7.1c-12.5 23.1-28.1 28.9-45 36.5-15.2 6.9-40.4 13.5-55 38.1-.6-1-1.2-2.1-1.5-3.3-2.1-6.2-3.3-14.2-3.8-22.3 0-2.9-.2-5.6-.2-7.9 0-17.7 3.3-31 8.1-41.4h-7.1c-4.6 10.6-7.5 23.9-7.5 40.8v.6c0 2.7.2 5.4.2 8.3.4 8.5 1.5 17.1 4.2 24.2 1.5 3.5 3.1 6.3 5 9 .2.2.4.4.6.4l4.1.3z"/><path class="st3" d="M294.3 455.3h-4.6l-.2-.2-.6-.6c-1.9-2.9-3.7-6-5-9.2-2.3-6.7-3.8-15.2-4.2-24.6 0-1 0-1.9-.2-2.9 0-1.7-.2-3.7-.2-5.4v-.6c0-15.6 2.5-29.4 7.5-41l.2-.4h8.5l-.4 1c-5.4 11.2-8.1 24.6-8.1 41 0 2.3 0 4.8.2 7.5v.4c.4 6.2 1.3 15.2 3.8 22.1.4.8.6 1.5 1 2.1 12.5-20 32.3-28.1 46.7-34 2.9-1.2 5.6-2.3 8.1-3.5l3.3-1.5c16-7.3 29.8-13.5 41.5-34.8l.2-.4h8.7l-.4 1c-13.1 26.4-31.5 34.6-47.7 41.9l-2.1 1c-2.5 1.2-5.2 2.3-8.1 3.5-15.8 6.5-35.6 14.6-46.4 36.4-.2.4-.6.6-.8.8-.3 0-.5.2-.7.4zm-4.2-1.4h3.7c.2-.2.4-.2.4-.4 11-22.1 31-30.4 46.9-36.9 2.9-1.2 5.6-2.3 8.1-3.5l2.1-1c16.7-7.5 33.9-15.2 46.7-40.4h-5.8c-11.7 21.5-26.4 28.1-41.9 35l-3.3 1.5c-2.5 1.2-5.2 2.3-8.1 3.5-15.4 6.2-34.4 14-46.7 34.4l-.6 1-.6-1c-.6-1-1.2-1.9-1.5-3.3-2.5-7.1-3.5-16.2-3.8-22.5v-.4c0-2.7-.2-5.2-.2-7.7 0-16.2 2.7-29.4 7.7-40.6h-5.6c-4.8 11.3-7.3 24.8-7.3 40v.6c0 1.7 0 3.5.2 5.4 0 1 0 1.9.2 2.9.4 9.2 1.7 17.5 4 24 1.3 3.3 3.1 6.2 5 9 .2.2.2.4.4.4z"/></g></g><g><path class="st3" d="M402.6 538c-.8-3.3-1.7-6.2-3.1-8.8-.6 1-.6 2.1-1 2.9-1 2.3-1.9 4-3.1 6h7.2v-.1z"/><path class="st3" d="M403.6 538.6h-9l.6-1c1.2-1.9 2.1-3.7 3.1-6 .2-.4.2-.8.4-1.2.2-.6.4-1.3.6-1.9l.6-1.2.6 1.2c1.2 2.7 2.1 5.8 3.1 9v1.1zm-7-1.2h5.2c-.6-2.3-1.3-4.4-2.1-6.5v.2c-.2.4-.2 1-.4 1.3-.9 1.8-1.7 3.5-2.7 5z"/><path class="st3" d="M405.9 538c-1-3.7-1.9-7.1-3.3-10.2-.6-1.2-1.5-1.9-2.9-1.9s-2.3.8-2.9 1.9c-.6 1.5-.8 2.7-1 2.9-1.2 2.7-2.5 5-3.7 7.5l13.8-.2z"/><path class="st3" d="M406.8 538.6H391l.6-1c1.2-2.3 2.5-4.6 3.7-7.3l.2-.2s0-.2.2-.6c.2-.6.4-1.3.8-2.1.6-1.3 2.1-2.3 3.5-2.3 1.3 0 2.9 1 3.5 2.3 1.2 2.7 2.3 6 3.5 10.4l-.2.8zm-13.6-1.2h11.9c-1-4-1.9-6.9-3.1-9.4-.4-1-1.3-1.5-2.3-1.5-1 0-1.9.6-2.3 1.5-.4.8-.6 1.5-.8 1.9-.2.4-.2.8-.4 1-.9 2.5-2.1 4.4-3 6.5z"/><g><path class="st3" d="M403 485.7c0-11.3-1.2-22.3-3.5-31h6.3c2.3 9.2 3.3 20 3.3 31 0 17.9-2.7 36-7.7 47.7-.8 1.7-1.7 3.1-2.5 4.6h-7.1c1.3-2.3 2.5-4.6 3.7-7.3 4.6-10.2 7.5-27.9 7.5-45zm-11-31h7.5c-13.7 27.7-32.7 35-50 42.5-17.3 8.1-42.3 14.4-55 40.8h-7.1c13.7-31.2 42.7-39.4 59.6-46.7 16.9-7.7 32.5-13.5 45-36.6z"/><path class="st3" d="M399.5 538.6h-8.7l.6-1.2c1.2-2.1 2.5-4.4 3.5-6.9 4.4-10 7.1-27.7 7.1-44.8 0-10.8-1.2-21-3.1-29.2-13.1 25.4-31.2 33.3-47.1 40.2l-2.3 1c-2.7 1.3-5.8 2.5-8.8 3.8-16.5 6.9-35.2 14.8-45.8 36.7l-.2.4h-8.5l.4-1c11.9-27.5 35.8-37.1 53.1-44.2 2.5-1 4.8-1.9 6.9-2.9l3.1-1.3c15.4-6.9 30-13.5 41.7-35l.2-.4h14.8l.2.6c2.1 9 3.5 19.8 3.5 31.2 0 18.5-2.9 36.4-7.7 47.9-.4 1-1 1.7-1.3 2.7-.4.8-.8 1.3-1.2 2.1l-.4.3zm-6.5-1.2h5.8c.4-.6.6-1.2 1-1.7.4-.8 1-1.5 1.3-2.5 4.8-11.3 7.5-29 7.5-47.5 0-11.2-1.2-21.5-3.3-30.4h-5c2.1 8.5 3.3 19.2 3.3 30.4 0 17.3-2.9 35.2-7.3 45.4-1 2.1-2.2 4.2-3.3 6.3zm-104.7 0h5.8c10.8-22.1 30.4-30.4 46.4-36.9 3.1-1.3 6-2.5 8.8-3.8l2.3-1c16.7-7.3 34-14.8 46.9-40.4h-6c-11.7 21.7-26.5 28.3-42.1 35.2l-3.1 1.3c-2.1 1-4.4 1.9-6.9 2.9-17 6.9-40.1 16.4-52.1 42.7z"/></g><g><path class="st3" d="M293.9 538c.2-.2.6-.4.8-.8 12.7-25.8 37.5-32.3 54.6-40 17.1-7.7 36.2-15.4 49.6-42.5h-7.1c-12.5 23.1-28.1 28.9-45 36.5-15.2 6.9-40.4 13.5-55 38.1-.6-1-1.2-2.1-1.5-3.3-2.1-6.2-3.3-14.2-3.8-22.3 0-2.9-.2-5.6-.2-7.9 0-17.7 3.3-31 8.1-41.4h-7.1c-4.6 10.6-7.5 23.9-7.5 40.8v.6c0 2.7.2 5.4.2 8.3.4 8.5 1.5 17.1 4.2 24.2 1.5 3.5 3.1 6.3 5 9 .2.2.4.4.6.4l4.1.3z"/><path class="st3" d="M294.3 538.6h-4.6l-.2-.2-.6-.6c-1.9-2.9-3.7-6-5-9.2-2.3-6.7-3.8-15.2-4.2-24.6 0-1 0-1.9-.2-2.9 0-1.7-.2-3.7-.2-5.4v-.6c0-15.6 2.5-29.4 7.5-41l.2-.4h8.5l-.4 1c-5.4 11.2-8.1 24.6-8.1 41 0 2.3 0 4.8.2 7.5v.4c.4 6.3 1.3 15.2 3.8 22.1.4.8.6 1.5 1 2.1 12.5-20 32.3-28.1 46.7-34 2.9-1.2 5.6-2.3 8.1-3.5l3.3-1.5c16-7.3 29.8-13.5 41.5-34.8l.2-.4h8.7l-.4 1c-13.1 26.4-31.5 34.6-47.7 41.9l-2.1 1c-2.5 1.2-5.2 2.3-8.1 3.5-15.8 6.5-35.6 14.6-46.4 36.4-.2.4-.6.6-.8.8l-.7.4zm-4.2-1.2h3.7l.4-.4c11-22.1 31-30.2 46.9-36.9 2.9-1.2 5.6-2.3 8.1-3.5l2.1-1c16.7-7.5 33.9-15.2 46.7-40.4h-5.8c-11.7 21.4-26.4 28.1-41.9 35l-3.3 1.5c-2.5 1.2-5.2 2.3-8.1 3.5-15.4 6.2-34.4 14-46.7 34.4l-.6 1-.6-1c-.6-1-1.2-2.1-1.5-3.3-2.5-7.1-3.5-16.2-3.8-22.5v-.4c0-2.7-.2-5.2-.2-7.7 0-16.2 2.7-29.4 7.7-40.6h-5.6c-4.8 11.3-7.3 24.8-7.3 40v.6c0 1.7 0 3.5.2 5.4 0 1 0 1.9.2 2.9.4 9.2 1.7 17.5 4 24 1.5 3.3 3.1 6.2 5 9l.4.4z"/></g></g><g><path class="st3" d="M402.6 621.5c-.8-3.3-1.7-6.2-3.1-8.8-.6 1-.6 2.1-1 2.9-1 2.3-1.9 4-3.1 6h7.2v-.1z"/><path class="st3" d="M403.6 622.1h-9l.6-1c1.2-1.9 2.1-3.7 3.1-6 .2-.4.2-.8.4-1.2.2-.6.4-1.3.6-1.9l.6-1.2.6 1.2c1.2 2.7 2.1 5.8 3.1 9v1.1zm-7-1.4h5.2c-.6-2.3-1.3-4.4-2.1-6.5v.2c-.2.4-.2 1-.4 1.3-.9 1.9-1.7 3.5-2.7 5zM292 620.3l-.6-1c-1.9-2.9-3.5-5.6-4.6-8.5-2.9-7.9-3.8-17.1-4-23.5-1-19.8 1.5-36.2 7.7-49.8l1.2.6c-6.2 13.5-8.5 29.4-7.5 49.1.4 9 1.7 16.9 4 23.1 1.2 2.5 2.3 4.8 4 7.3 11.7-22.5 31.9-30.8 48.1-37.5 2.9-1.2 5.6-2.3 8.1-3.5l2.7-1.2c15.8-7.1 32.1-14.4 44.2-38.1l1.2.6c-12.5 24-29 31.5-45 38.7l-2.7 1.2c-2.5 1.2-5.2 2.3-8.1 3.5-16.4 6.7-36.5 15-47.9 37.9l-.8 1.1z"/><path class="st3" d="M405.9 621.5c-1-3.7-1.9-7.1-3.3-10.2-.6-1.2-1.5-1.9-2.9-1.9s-2.3.8-2.9 1.9c-.6 1.5-.8 2.7-1 2.9-1.2 2.7-2.5 5-3.7 7.5l13.8-.2z"/><path class="st3" d="M406.8 622.1H391l.6-1c1.2-2.3 2.5-4.6 3.7-7.3l.2-.2s0-.2.2-.6c.2-.6.4-1.3.8-2.1.6-1.3 2.1-2.3 3.5-2.3 1.3 0 2.9 1 3.5 2.3 1.2 2.7 2.3 6 3.5 10.4l-.2.8zm-13.6-1.4h11.9c-1-4-1.9-6.9-3.1-9.4-.4-1-1.3-1.5-2.3-1.5-1 0-1.9.6-2.3 1.5-.4.8-.6 1.5-.8 1.9-.2.4-.2.8-.4 1-.9 2.5-2.1 4.6-3 6.5z"/><g><path class="st3" d="M403 569c0-11.3-1.2-22.3-3.5-31h6.3c2.3 9.2 3.3 20 3.3 31 0 17.9-2.7 36-7.7 47.7-.8 1.7-1.7 3.1-2.5 4.6h-7.1c1.3-2.3 2.5-4.6 3.7-7.3 4.6-10 7.5-27.7 7.5-45zm-11-31h7.5c-13.7 27.7-32.7 35-50 42.5-17.3 8.1-42.3 14.4-55 40.8h-7.1c13.7-31.2 42.7-39.4 59.6-46.7 16.9-7.6 32.5-13.5 45-36.6z"/><path class="st3" d="M399.5 622.1h-8.7l.6-1.2c1.2-2.1 2.5-4.4 3.5-6.9 4.4-10 7.1-27.7 7.1-44.8 0-10.8-1.2-21-3.1-29.2-13.1 25.4-31.2 33.3-47.1 40.2l-2.3 1c-2.7 1.3-5.8 2.5-8.8 3.8-16.5 6.9-35.2 14.8-45.8 36.7l-.2.4h-8.5l.4-1c11.9-27.5 35.8-37.1 53.1-44.2 2.5-1 4.8-1.9 6.9-2.9l3.1-1.3c15.4-6.9 30-13.5 41.7-35l.2-.4h14.8l.2.6c2.1 9 3.5 19.8 3.5 31.2 0 18.5-2.9 36.4-7.7 47.9-.4 1-1 1.7-1.3 2.7-.4.8-.8 1.3-1.2 2.1l-.4.3zm-6.5-1.4h5.8c.4-.6.6-1.2 1-1.7.4-.8 1-1.5 1.3-2.5 4.8-11.3 7.5-29 7.5-47.5 0-11.2-1.2-21.5-3.3-30.4h-5c2.1 8.5 3.3 19.2 3.3 30.4 0 17.3-2.9 35.2-7.3 45.4-1 2.3-2.2 4.4-3.3 6.3zm-104.7 0h5.8c10.8-22.1 30.4-30.4 46.4-36.9 3.1-1.3 6-2.5 8.8-3.8l2.3-1c16.7-7.3 34-14.8 46.9-40.4h-6c-11.7 21.7-26.5 28.3-42.1 35.2l-3.1 1.3c-2.1 1-4.4 1.9-6.9 2.9-17 6.9-40.1 16.4-52.1 42.7z"/></g><g><path class="st3" d="M293.9 621.5c.2-.2.6-.4.8-.8 12.7-25.8 37.5-32.3 54.6-40 17.1-7.7 36.2-15.4 49.6-42.5h-7.1c-12.5 23.1-28.1 28.9-45 36.5-15.2 6.9-40.4 13.5-55 38.1-.6-1-1.2-2.1-1.5-3.3-2.1-6.2-3.3-14.2-3.8-22.3 0-2.9-.2-5.6-.2-7.9 0-17.7 3.3-31 8.1-41.4h-7.1c-4.6 10.8-7.5 23.9-7.5 40.8v.6c0 2.7.2 5.4.2 8.3.4 8.5 1.5 17.1 4.2 24.2 1.5 3.5 3.1 6.3 5 9 .2.2.4.4.6.4l4.1.3z"/><path class="st3" d="M294.3 622.1h-4.6l-.2-.2-.6-.6c-1.9-2.9-3.7-6-5-9.2-2.3-6.7-3.8-15.2-4.2-24.6 0-1 0-1.9-.2-2.9 0-1.7-.2-3.7-.2-5.4v-.6c0-15.6 2.5-29.4 7.5-41l.2-.4h8.5l-.4 1c-5.4 11.2-8.1 24.6-8.1 41 0 2.3 0 4.8.2 7.5v.4c.4 6.3 1.3 15.2 3.8 22.1.4.8.6 1.5 1 2.1 12.5-20 32.3-28.1 46.7-34 2.9-1.2 5.6-2.3 8.1-3.5l3.3-1.5c16-7.3 29.8-13.5 41.5-34.8l.2-.4h8.7l-.4 1c-13.1 26.4-31.5 34.6-47.7 41.9l-2.1 1c-2.5 1.2-5.2 2.3-8.1 3.5-15.8 6.5-35.6 14.6-46.4 36.4-.2.4-.6.6-.8.8-.3 0-.5.2-.7.4zm-4.2-1.4H294c.2-.2.4-.2.4-.4 11-22.1 31-30.2 46.9-36.9 2.9-1.2 5.6-2.3 8.1-3.5l2.1-1c16.7-7.5 33.9-15.2 46.7-40.4h-5.8c-11.7 21.4-26.4 28.1-41.9 35l-3.3 1.5c-2.5 1.2-5.2 2.3-8.1 3.5-15.4 6.2-34.4 14-46.7 34.4l-.6 1-.6-1c-.6-1-1.2-1.9-1.5-3.3-2.5-7.1-3.5-16.2-3.8-22.5v-.4c0-2.7-.2-5.2-.2-7.7 0-16.2 2.7-29.4 7.7-40.6h-5.6c-4.8 11.3-7.3 24.8-7.3 40v.6c0 1.7 0 3.5.2 5.4 0 1 0 1.9.2 2.9.4 9.2 1.7 17.5 4 24 1.5 3.3 3.1 6.2 5 9 0 .4 0 .4.2.4z"/></g></g></g></g></g></g></switch></svg>