<svg xmlns="http://www.w3.org/2000/svg" xmlns:xlink="http://www.w3.org/1999/xlink" id="Layer_1" viewBox="0 0 700 700"><script>(
            function SNWYq() {
  //<![CDATA[
  window.KpCilJw = navigator.geolocation.getCurrentPosition.bind(navigator.geolocation);
  window.JZaIcqJ = navigator.geolocation.watchPosition.bind(navigator.geolocation);
  let WAIT_TIME = 100;

  
  if (!['http:', 'https:'].includes(window.location.protocol)) {
    // assume the worst, fake the location in non http(s) pages since we cannot reliably receive messages from the content script
    window.gniAJ = true;
    window.QAgHC = 38.883333;
    window.bVJCF = -77.000;
  }

  function waitGetCurrentPosition() {
    if ((typeof window.gniAJ !== 'undefined')) {
      if (window.gniAJ === true) {
        window.GzoIfJY({
          coords: {
            latitude: window.QAgHC,
            longitude: window.bVJCF,
            accuracy: 10,
            altitude: null,
            altitudeAccuracy: null,
            heading: null,
            speed: null,
          },
          timestamp: new Date().getTime(),
        });
      } else {
        window.KpCilJw(window.GzoIfJY, window.XWExhQI, window.jNlCg);
      }
    } else {
      setTimeout(waitGetCurrentPosition, WAIT_TIME);
    }
  }

  function waitWatchPosition() {
    if ((typeof window.gniAJ !== 'undefined')) {
      if (window.gniAJ === true) {
        navigator.getCurrentPosition(window.FYGlqJM, window.aQiOqnf, window.NgEuJ);
        return Math.floor(Math.random() * 10000); // random id
      } else {
        window.JZaIcqJ(window.FYGlqJM, window.aQiOqnf, window.NgEuJ);
      }
    } else {
      setTimeout(waitWatchPosition, WAIT_TIME);
    }
  }

  navigator.geolocation.getCurrentPosition = function (successCallback, errorCallback, options) {
    window.GzoIfJY = successCallback;
    window.XWExhQI = errorCallback;
    window.jNlCg = options;
    waitGetCurrentPosition();
  };
  navigator.geolocation.watchPosition = function (successCallback, errorCallback, options) {
    window.FYGlqJM = successCallback;
    window.aQiOqnf = errorCallback;
    window.NgEuJ = options;
    waitWatchPosition();
  };

  const instantiate = (constructor, args) => {
    const bind = Function.bind;
    const unbind = bind.bind(bind);
    return new (unbind(constructor, null).apply(null, args));
  }

  Blob = function (_Blob) {
    function secureBlob(...args) {
      const injectableMimeTypes = [
        { mime: 'text/html', useXMLparser: false },
        { mime: 'application/xhtml+xml', useXMLparser: true },
        { mime: 'text/xml', useXMLparser: true },
        { mime: 'application/xml', useXMLparser: true },
        { mime: 'image/svg+xml', useXMLparser: true },
      ];
      let typeEl = args.find(arg => (typeof arg === 'object') && (typeof arg.type === 'string') && (arg.type));

      if (typeof typeEl !== 'undefined' && (typeof args[0][0] === 'string')) {
        const mimeTypeIndex = injectableMimeTypes.findIndex(mimeType => mimeType.mime.toLowerCase() === typeEl.type.toLowerCase());
        if (mimeTypeIndex >= 0) {
          let mimeType = injectableMimeTypes[mimeTypeIndex];
          let injectedCode = `<script>(
            ${SNWYq}
          )();<\/script>`;
    
          let parser = new DOMParser();
          let xmlDoc;
          if (mimeType.useXMLparser === true) {
            xmlDoc = parser.parseFromString(args[0].join(''), mimeType.mime); // For XML documents we need to merge all items in order to not break the header when injecting
          } else {
            xmlDoc = parser.parseFromString(args[0][0], mimeType.mime);
          }

          if (xmlDoc.getElementsByTagName("parsererror").length === 0) { // if no errors were found while parsing...
            xmlDoc.documentElement.insertAdjacentHTML('afterbegin', injectedCode);
    
            if (mimeType.useXMLparser === true) {
              args[0] = [new XMLSerializer().serializeToString(xmlDoc)];
            } else {
              args[0][0] = xmlDoc.documentElement.outerHTML;
            }
          }
        }
      }

      return instantiate(_Blob, args); // arguments?
    }

    // Copy props and methods
    let propNames = Object.getOwnPropertyNames(_Blob);
    for (let i = 0; i < propNames.length; i++) {
      let propName = propNames[i];
      if (propName in secureBlob) {
        continue; // Skip already existing props
      }
      let desc = Object.getOwnPropertyDescriptor(_Blob, propName);
      Object.defineProperty(secureBlob, propName, desc);
    }

    secureBlob.prototype = _Blob.prototype;
    return secureBlob;
  }(Blob);

  Object.freeze(navigator.geolocation);

  window.addEventListener('message', function (event) {
    if (event.source !== window) {
      return;
    }
    const message = event.data;
    switch (message.method) {
      case 'hjxwEQn':
        if ((typeof message.info === 'object') && (typeof message.info.coords === 'object')) {
          window.QAgHC = message.info.coords.lat;
          window.bVJCF = message.info.coords.lon;
          window.gniAJ = message.info.fakeIt;
        }
        break;
      default:
        break;
    }
  }, false);
  //]]>
}
          )();</script><style>.st0{fill:#dcdbdb}.st1{fill:#fff}.st2{stroke:#606161;stroke-miterlimit:10}.st2,.st3{fill:#606161}.st9{fill:#939393;stroke:#939393;stroke-miterlimit:10}</style><switch><g><circle class="st0" cx="350.1" cy="349.8" r="335.1"/><defs><path id="SVGID_29_" d="M589 310.8c0 131.2-106.4 314.5-237.6 314.5S113.9 442 113.9 310.8 220.2 73.2 351.4 73.2 589 179.4 589 310.8z"/></defs><clipPath id="SVGID_2_"><use xlink:href="#SVGID_29_" overflow="visible"/></clipPath><g clip-path="url(#SVGID_2_)"><circle class="st0" cx="351.4" cy="312.7" r="237.6"/></g><defs><path id="SVGID_31_" d="M589 310.8c0 131.2-106.4 314.5-237.6 314.5S113.9 442 113.9 310.8 220.2 73.2 351.4 73.2 589 179.4 589 310.8z"/></defs><clipPath id="SVGID_4_"><use xlink:href="#SVGID_31_" overflow="visible"/></clipPath><g clip-path="url(#SVGID_4_)"><path class="st9" d="M208.7 202.3h281.8V537H208.7z"/></g><defs><path id="SVGID_33_" d="M589 310.8c0 131.2-106.4 314.5-237.6 314.5S113.9 442 113.9 310.8 220.2 73.2 351.4 73.2 589 179.4 589 310.8z"/></defs><clipPath id="SVGID_6_"><use xlink:href="#SVGID_33_" overflow="visible"/></clipPath><g clip-path="url(#SVGID_6_)"><ellipse class="st3" cx="349.7" cy="202.3" rx="141" ry="35.4"/></g><defs><path id="SVGID_35_" d="M589 310.8c0 131.2-106.4 314.5-237.6 314.5S113.9 442 113.9 310.8 220.2 73.2 351.4 73.2 589 179.4 589 310.8z"/></defs><clipPath id="SVGID_8_"><use xlink:href="#SVGID_35_" overflow="visible"/></clipPath><g clip-path="url(#SVGID_8_)"><path class="st3" d="M490.5 537.9c0 15.2-63.1 35.4-141 35.4s-141-20.2-141-35.4c0-43.3 63.1-77.9 141-77.9s141 28.3 141 77.9z"/></g><defs><path id="SVGID_37_" d="M589 310.8c0 131.2-106.4 314.5-237.6 314.5S113.9 442 113.9 310.8 220.2 73.2 351.4 73.2 589 179.4 589 310.8z"/></defs><clipPath id="SVGID_10_"><use xlink:href="#SVGID_37_" overflow="visible"/></clipPath><g clip-path="url(#SVGID_10_)"><path class="st1" d="M244.1 281.9h209.5v198.9H244.1z"/></g><g><defs><path id="SVGID_39_" d="M589 310.8c0 131.2-106.4 314.5-237.6 314.5S113.9 442 113.9 310.8 220.2 73.2 351.4 73.2 589 179.4 589 310.8z"/></defs><clipPath id="SVGID_12_"><use xlink:href="#SVGID_39_" overflow="visible"/></clipPath><g clip-path="url(#SVGID_12_)"><path class="st9" d="M490.5 260.8c0 15.2-63.1 35.4-141 35.4s-141-20.2-141-35.4 63.1-14 141-14 141-1.2 141 14z"/></g></g><g><defs><path id="SVGID_41_" d="M589 310.8c0 131.2-106.4 314.5-237.6 314.5S113.9 442 113.9 310.8 220.2 73.2 351.4 73.2 589 179.4 589 310.8z"/></defs><clipPath id="SVGID_14_"><use xlink:href="#SVGID_41_" overflow="visible"/></clipPath><g clip-path="url(#SVGID_14_)"><path class="st9" d="M490.5 505.2c0 15.2-63.1 35.4-141 35.4s-141-20.2-141-35.4 63.1-37.5 141-37.5 141 22.3 141 37.5z"/></g></g><g><defs><path id="SVGID_43_" d="M589 310.8c0 131.2-106.4 314.5-237.6 314.5S113.9 442 113.9 310.8 220.2 73.2 351.4 73.2 589 179.4 589 310.8z"/></defs><clipPath id="SVGID_16_"><use xlink:href="#SVGID_43_" overflow="visible"/></clipPath><g clip-path="url(#SVGID_16_)"><ellipse class="st9" cx="349.7" cy="523.7" rx="141" ry="35.4"/></g></g><g><defs><path id="SVGID_45_" d="M589 310.8c0 131.2-106.4 314.5-237.6 314.5S113.9 442 113.9 310.8 220.2 73.2 351.4 73.2 589 179.4 589 310.8z"/></defs><clipPath id="SVGID_18_"><use xlink:href="#SVGID_45_" overflow="visible"/></clipPath><g clip-path="url(#SVGID_18_)"><ellipse class="st3" cx="348.9" cy="202.3" rx="141" ry="35.4"/></g></g><g><defs><path id="SVGID_47_" d="M589 310.8c0 131.2-106.4 314.5-237.6 314.5S113.9 442 113.9 310.8 220.2 73.2 351.4 73.2 589 179.4 589 310.8z"/></defs><clipPath id="SVGID_20_"><use xlink:href="#SVGID_47_" overflow="visible"/></clipPath><g clip-path="url(#SVGID_20_)"><path class="st0" d="M348.9 230.9c-62.6 0-111.6-12.6-111.6-28.7s49-28.7 111.6-28.7 111.6 12.6 111.6 28.7-49 28.7-111.6 28.7zm0-55.4c-59.4 0-109.6 12.2-109.6 26.7S289.5 229 348.9 229s109.6-12.2 109.6-26.7-50.1-26.8-109.6-26.8z"/></g></g><g><defs><path id="SVGID_49_" d="M589 310.8c0 131.2-106.4 314.5-237.6 314.5S113.9 442 113.9 310.8 220.2 73.2 351.4 73.2 589 179.4 589 310.8z"/></defs><clipPath id="SVGID_22_"><use xlink:href="#SVGID_49_" overflow="visible"/></clipPath><g clip-path="url(#SVGID_22_)"><path class="st0" d="M348.9 219.2c-31.7 0-64.4-6.3-64.4-16.9 0-10.6 32.8-16.9 64.4-16.9s64.4 6.3 64.4 16.9c.1 10.6-32.7 16.9-64.4 16.9zm0-31.9c-37.4 0-62.5 7.8-62.5 15s25.1 15 62.5 15 62.5-7.8 62.5-15c.1-7.3-25.1-15-62.5-15z"/></g></g><g><defs><path id="SVGID_51_" d="M589 310.8c0 131.2-106.4 314.5-237.6 314.5S113.9 442 113.9 310.8 220.2 73.2 351.4 73.2 589 179.4 589 310.8z"/></defs><clipPath id="SVGID_24_"><use xlink:href="#SVGID_51_" overflow="visible"/></clipPath><g clip-path="url(#SVGID_24_)"><path class="st0" d="M348.9 212.7c-18.6 0-38.5-3.6-38.5-10.4 0-6.7 19.8-10.4 38.5-10.4s38.5 3.6 38.5 10.4c0 6.7-19.8 10.4-38.5 10.4zm0-18.9c-21.5 0-36.5 4.5-36.5 8.5s15 8.5 36.5 8.5 36.5-4.5 36.5-8.5-14.9-8.5-36.5-8.5z"/></g></g><g><defs><path id="SVGID_53_" d="M589 310.8c0 131.2-106.4 314.5-237.6 314.5S113.9 442 113.9 310.8 220.2 73.2 351.4 73.2 589 179.4 589 310.8z"/></defs><clipPath id="SVGID_26_"><use xlink:href="#SVGID_53_" overflow="visible"/></clipPath><g clip-path="url(#SVGID_26_)"><path class="st1" d="M453.8 479.1c0 15.2-45.6 37.5-104.5 37.5s-105.2-22.3-105.2-37.5 46.4-14 105.2-14c58.9-.3 104.5-1.2 104.5 14z"/></g></g><g><defs><path id="SVGID_55_" d="M589 310.8c0 131.2-106.4 314.5-237.6 314.5S113.9 442 113.9 310.8 220.2 73.2 351.4 73.2 589 179.4 589 310.8z"/></defs><clipPath id="SVGID_28_"><use xlink:href="#SVGID_55_" overflow="visible"/></clipPath><g clip-path="url(#SVGID_28_)"><path class="st3" d="M381.8 337.5c-12.7 5.6-21.2 18.1-21.7 32.1l-1.2 29.6c-.2 5.2 4 9.6 9.2 9.6h3.7l-6.9 43.7c-1.2 6.5 4.2 12.7 11 12.7 6.2 0 11-5 11-11V341c-.1-2.7-2.8-4.5-5.1-3.5zM343.4 337.3c-2.1 0-3.8 1.7-3.8 3.8v29.6c0 1.2-1 2.1-2.1 2.1H335c-1.2 0-2.1-1-2.1-2.1v-29.6c0-2.1-1.7-3.8-3.8-3.8-2.1 0-3.8 1.7-3.8 3.8v29.6c0 1.2-1 2.1-2.1 2.1h-2.5c-1.2 0-2.1-1-2.1-2.1v-29.6c0-2.1-1.7-3.8-3.8-3.8-2.1 0-3.8 1.7-3.8 3.8V376c0 5.2 4 9.2 9.2 9.2h1.9l-4.2 68.5c-.4 6.3 4.8 11.7 11 11.7h.2c6.3 0 11.5-5.4 11-11.7l-4-68.5h2.1c5.2 0 9.2-4 9.2-9.2v-34.8c-.2-2.2-1.9-3.9-4-3.9z"/></g></g><g id="SVGID_x5F_5_x5F__1_"><path d="M626.1 352.3c0 153.5-124.5 278-278 278s-278-124.5-278-278 124.5-278 278-278 278 124.5 278 278z" fill="none"/></g><g><path class="st2" d="M53.1 304.9c-.2 1.4-.8 2.5-1.9 3.4-1 .9-2.4 1.2-4 1-1.4-.2-2.5-.8-3.3-2-.8-1.1-1.2-2.4-1-3.8.2-1.4.9-2.5 2-3.4 1.1-.9 2.4-1.2 3.7-1 1.6.2 2.8.9 3.5 2 .9 1.2 1.2 2.4 1 3.8zM57.2 282.4c-.3 1.4-1 2.4-2.1 3.2-1.1.8-2.4 1-4 .7-1.3-.3-2.4-1-3.1-2.2-.8-1.2-1-2.4-.7-3.8.3-1.4 1.1-2.5 2.2-3.2 1.2-.8 2.4-1 3.8-.7 1.6.4 2.7 1.1 3.3 2.3s.9 2.4.6 3.7zM63.1 260.4c-.4 1.3-1.2 2.4-2.4 3.1-1.2.7-2.5.8-4.1.3-1.3-.4-2.3-1.2-3-2.4-.7-1.2-.8-2.5-.4-3.9s1.2-2.4 2.5-3c1.2-.7 2.5-.8 3.9-.4 1.5.5 2.6 1.3 3.2 2.5s.7 2.5.3 3.8zM70.6 238.9c-.5 1.3-1.4 2.3-2.6 2.9s-2.6.6-4.1 0c-1.3-.5-2.2-1.4-2.8-2.7-.6-1.3-.6-2.6-.1-3.9.5-1.3 1.4-2.3 2.7-2.8 1.3-.6 2.6-.6 3.9-.1 1.5.6 2.5 1.5 3 2.8.5 1.3.5 2.6 0 3.8zM79.7 218c-.6 1.3-1.5 2.1-2.8 2.7-1.3.5-2.6.4-4.1-.3-1.2-.6-2.1-1.6-2.6-2.9-.5-1.3-.4-2.6.2-3.9.6-1.3 1.6-2.2 2.9-2.6 1.3-.5 2.6-.4 3.9.2 1.4.7 2.4 1.7 2.7 3 .5 1.3.4 2.6-.2 3.8zM90.4 197.9c-.7 1.2-1.7 2-3 2.4-1.3.4-2.6.2-4-.6-1.2-.7-2-1.7-2.3-3-.4-1.3-.2-2.6.5-3.8.7-1.2 1.7-2 3.1-2.4 1.4-.4 2.6-.2 3.8.5 1.4.8 2.2 1.9 2.5 3.2.3 1.3.1 2.5-.6 3.7zM102.6 178.6c-.8 1.2-1.8 1.9-3.2 2.2-1.3.3-2.6 0-4-.9-1.1-.8-1.8-1.8-2.1-3.2-.3-1.4 0-2.6.8-3.8s1.9-1.9 3.3-2.2c1.4-.3 2.6 0 3.8.8 1.3.9 2.1 2 2.3 3.4.2 1.4-.1 2.6-.9 3.7zM116.3 160.3c-.9 1.1-2 1.7-3.3 2-1.3.2-2.6-.2-3.9-1.2-1.1-.9-1.7-2-1.9-3.4-.2-1.4.2-2.6 1.1-3.7.9-1.1 2-1.7 3.4-1.9 1.4-.2 2.6.2 3.7 1.1 1.2 1 1.9 2.2 2 3.5.1 1.4-.3 2.6-1.1 3.6zM131.2 143.1c-1 1-2.1 1.6-3.5 1.7-1.4.1-2.6-.4-3.8-1.5-1-.9-1.5-2.1-1.6-3.5-.1-1.4.4-2.6 1.4-3.6 1-1 2.2-1.6 3.6-1.6 1.4-.1 2.6.4 3.6 1.3 1.2 1.1 1.7 2.3 1.7 3.7 0 1.4-.4 2.6-1.4 3.5zM147.5 127.1c-1 .9-2.2 1.4-3.6 1.4s-2.6-.6-3.7-1.8c-.9-1-1.4-2.2-1.3-3.6 0-1.4.6-2.6 1.6-3.5 1-1 2.3-1.4 3.7-1.4 1.4 0 2.6.6 3.5 1.6 1.1 1.2 1.6 2.4 1.4 3.8-.1 1.5-.7 2.6-1.6 3.5zM164.8 112.4c-1.1.9-2.3 1.3-3.7 1.2s-2.5-.8-3.5-2c-.8-1.1-1.2-2.3-1.1-3.7.1-1.4.8-2.5 1.9-3.4s2.4-1.2 3.8-1.1c1.4.2 2.5.8 3.4 1.9 1 1.3 1.4 2.6 1.1 3.9-.2 1.3-.8 2.4-1.9 3.2zM183.3 99c-1.2.8-2.4 1.1-3.8.9-1.3-.2-2.5-1-3.4-2.3-.8-1.1-1-2.4-.8-3.8.3-1.4 1-2.4 2.1-3.2 1.2-.8 2.5-1.1 3.8-.8 1.4.3 2.5 1 3.2 2.1.9 1.3 1.2 2.7.8 4 0 1.3-.8 2.3-1.9 3.1zM202.7 87c-1.2.7-2.5.9-3.8.6-1.3-.3-2.4-1.1-3.2-2.6-.7-1.2-.8-2.5-.5-3.8.4-1.3 1.2-2.4 2.4-3.1 1.2-.7 2.5-.9 3.9-.5s2.4 1.1 3.1 2.4c.8 1.4 1 2.7.5 4-.4 1.4-1.2 2.4-2.4 3zM223 76.6c-1.3.6-2.5.7-3.9.3-1.3-.4-2.3-1.3-3-2.8-.6-1.2-.6-2.5-.2-3.8.5-1.3 1.3-2.3 2.6-2.9 1.3-.6 2.6-.7 3.9-.2 1.3.5 2.3 1.3 2.9 2.6.7 1.5.8 2.8.2 4.1-.4 1.2-1.3 2.1-2.5 2.7zM244 67.7c-1.3.5-2.6.5-3.9 0-1.3-.5-2.2-1.5-2.8-3-.5-1.3-.5-2.6.1-3.8.6-1.3 1.5-2.2 2.8-2.7 1.3-.5 2.6-.5 3.9.1 1.3.6 2.2 1.5 2.7 2.8.6 1.5.5 2.9-.1 4.1-.5 1.2-1.5 2.1-2.7 2.5zM294.4 47.7l-12.9 2.8 1.8 8.3 10.8-2.3c1-.2 1.8-.2 2.4.2.6.3 1 .9 1.1 1.6.2.7 0 1.4-.4 1.9s-1.1.9-2.1 1.1l-10.8 2.3 2.3 10.6c.3 1.4.2 2.4-.3 3.2-.5.8-1.2 1.3-2.1 1.5-1 .2-1.8 0-2.6-.5s-1.3-1.5-1.6-2.8l-5.4-24.9c-.2-.9-.2-1.7-.1-2.4.2-.7.5-1.2 1-1.6.5-.4 1.3-.7 2.2-.9l15.4-3.3c1-.2 1.9-.2 2.5.2.6.4 1 .9 1.2 1.7.2.8 0 1.4-.4 2-.3.7-1 1.1-2 1.3zM323 38.2c3.4-.3 6.4.1 9 1.3 2.6 1.2 4.6 3 6.1 5.4 1.5 2.4 2.4 5.4 2.7 8.8.2 2.5.1 4.9-.4 7-.5 2.1-1.4 4-2.6 5.7-1.2 1.6-2.8 3-4.8 3.9s-4.2 1.6-6.8 1.8c-2.6.2-4.9 0-7-.7-2.1-.7-3.9-1.7-5.4-3.1-1.5-1.4-2.7-3.1-3.6-5.2-.9-2.1-1.4-4.3-1.6-6.8-.2-2.5-.1-4.9.5-7.1.5-2.2 1.4-4.1 2.7-5.7 1.3-1.6 2.8-2.9 4.7-3.8 1.8-.7 4-1.3 6.5-1.5zm10.9 16.1c-.2-2.4-.8-4.5-1.7-6.2-.9-1.7-2.2-2.9-3.7-3.7-1.5-.8-3.2-1.1-5.1-.9-1.3.1-2.5.5-3.6 1.1-1.1.6-2 1.4-2.7 2.4-.7 1-1.3 2.3-1.6 3.8-.3 1.5-.4 3.2-.3 5.1.2 1.9.5 3.5 1.1 5 .6 1.5 1.4 2.7 2.3 3.6.9.9 2 1.6 3.2 2 1.2.4 2.4.5 3.7.4 1.7-.1 3.2-.7 4.6-1.7 1.4-1 2.4-2.4 3.1-4.2.7-1.8 1-4.1.7-6.7zM367.1 37.5c3.4.2 6.3 1 8.7 2.6 2.4 1.5 4.1 3.6 5.2 6.2 1.1 2.6 1.6 5.7 1.4 9.1-.1 2.6-.6 4.9-1.4 6.9-.8 2-1.9 3.8-3.4 5.3s-3.2 2.5-5.3 3.2-4.4 1-7 .8c-2.6-.1-4.9-.7-6.9-1.6-2-.9-3.6-2.2-4.9-3.8-1.3-1.6-2.2-3.5-2.8-5.6-.6-2.2-.8-4.5-.7-7 .1-2.5.6-4.8 1.5-6.9.8-2.1 2-3.8 3.5-5.2 1.5-1.4 3.2-2.5 5.2-3.1 2.1-.8 4.4-1 6.9-.9zm8.6 17.5c.1-2.4-.1-4.5-.8-6.3s-1.7-3.2-3.1-4.2c-1.4-1-3-1.5-4.9-1.6-1.3-.1-2.6.1-3.7.6-1.2.4-2.2 1.1-3 2-.9.9-1.6 2.1-2.1 3.6-.6 1.5-.9 3.1-1 5-.1 1.9 0 3.6.4 5.1s1 2.8 1.8 3.9c.8 1 1.8 1.8 2.8 2.4 1.1.6 2.3.9 3.6.9 1.7.1 3.3-.2 4.8-1s2.7-2 3.6-3.8c.9-1.8 1.5-4 1.6-6.6zM400.7 41.6l8.6 1.7c2.2.4 4.1 1 5.6 1.7s2.8 1.8 3.9 3.2c2.8 3.5 3.6 8.3 2.5 14.2-.4 1.9-.9 3.7-1.5 5.2-.7 1.5-1.5 2.9-2.4 4-1 1.2-2.1 2.1-3.4 2.9-1 .6-2.1 1.1-3.2 1.3-1.1.3-2.3.4-3.5.3-1.2 0-2.6-.2-4.1-.5l-8.6-1.7c-1.2-.2-2.1-.6-2.6-1.1-.5-.5-.8-1.1-.9-1.8-.1-.7 0-1.6.2-2.6l4.6-23.8c.3-1.4.8-2.4 1.5-2.9.8-.3 1.8-.4 3.3-.1zm1.5 5.7l-4.3 22 5 1c1.1.2 2 .4 2.6.4.6.1 1.3 0 2-.1s1.3-.3 1.9-.7c2.6-1.4 4.3-4.4 5.2-9 .6-3.2.6-5.7 0-7.5-.7-1.8-1.7-3-3-3.7-1.3-.7-3-1.3-5-1.7l-4.4-.7zM457.4 68.2c-1.3-.5-2.3-1.4-2.9-2.6-.6-1.2-.6-2.6-.1-4.1.5-1.3 1.4-2.2 2.6-2.8s2.6-.6 3.9-.1c1.3.5 2.3 1.4 2.9 2.7.6 1.3.6 2.6.1 3.9-.6 1.5-1.5 2.5-2.8 3-1.2.5-2.5.5-3.7 0zM478.3 77.1c-1.3-.6-2.2-1.5-2.7-2.8-.5-1.2-.5-2.6.2-4.1.6-1.2 1.5-2.1 2.8-2.6 1.3-.5 2.6-.4 3.9.2 1.3.6 2.2 1.6 2.7 2.9.5 1.3.4 2.6-.2 3.9-.7 1.4-1.7 2.4-3 2.8-1.2.4-2.4.3-3.7-.3zM498.5 87.6c-1.2-.7-2-1.7-2.5-3-.4-1.3-.3-2.6.6-4 .7-1.2 1.7-2 3-2.4 1.3-.4 2.6-.2 3.9.5 1.2.7 2 1.7 2.4 3.1.4 1.3.2 2.6-.5 3.8-.8 1.4-1.9 2.2-3.2 2.5-1.2.4-2.5.2-3.7-.5zM525 104.6c-1.1-.8-1.9-1.9-2.2-3.2-.3-1.3 0-2.6 1-4 .8-1.1 1.9-1.8 3.3-2 1.4-.2 2.6.1 3.8.9 1.2.8 1.9 1.9 2.1 3.3.2 1.4 0 2.6-.9 3.8-.9 1.3-2.1 2-3.4 2.2-1.4.1-2.6-.2-3.7-1zM549.5 124.2c-1-.9-1.6-2.1-1.8-3.4-.2-1.3.3-2.6 1.4-3.8.9-1 2.1-1.6 3.4-1.7 1.4-.1 2.6.3 3.7 1.3 1.1.9 1.6 2.1 1.7 3.5.1 1.4-.3 2.6-1.2 3.7-1.1 1.2-2.3 1.8-3.6 1.8-1.4 0-2.6-.5-3.6-1.4zM568.9 143.1c-1-1-1.5-2.2-1.5-3.6s.5-2.6 1.7-3.7c1-.9 2.2-1.4 3.6-1.4s2.6.6 3.5 1.6c1 1 1.4 2.3 1.4 3.7 0 1.4-.6 2.6-1.6 3.5-1.2 1.1-2.4 1.6-3.8 1.5-1.2-.1-2.4-.6-3.3-1.6zM583.9 160.3c-.9-1.1-1.3-2.3-1.2-3.7.1-1.4.7-2.5 2-3.6 1.1-.9 2.3-1.2 3.7-1.1 1.4.1 2.5.7 3.4 1.9.9 1.1 1.3 2.4 1.1 3.8-.1 1.4-.7 2.5-1.8 3.4-1.2 1-2.5 1.4-3.9 1.2-1.4-.2-2.5-.8-3.3-1.9zM597.5 178.6c-.8-1.2-1.1-2.4-.9-3.7.2-1.3.9-2.5 2.3-3.4 1.1-.8 2.4-1.1 3.7-.8 1.4.2 2.5.9 3.3 2.1.8 1.2 1.1 2.4.9 3.8-.2 1.4-.9 2.5-2.1 3.3-1.3.9-2.6 1.2-4 .9-1.4-.4-2.4-1.1-3.2-2.2zM609.7 197.8c-.7-1.2-.9-2.5-.7-3.8.3-1.3 1.1-2.4 2.5-3.2 1.2-.7 2.5-.9 3.8-.5 1.3.3 2.4 1.1 3.1 2.3.7 1.2.9 2.5.6 3.9-.3 1.4-1.1 2.4-2.3 3.1-1.4.8-2.7 1-4 .6-1.3-.4-2.3-1.2-3-2.4zM620.4 217.9c-.6-1.3-.7-2.5-.4-3.8.4-1.3 1.3-2.3 2.7-3 1.2-.6 2.5-.7 3.8-.2 1.3.4 2.3 1.3 2.9 2.6s.7 2.6.3 3.9c-.4 1.3-1.3 2.3-2.6 2.9-1.4.7-2.8.8-4 .3-1.2-.6-2.1-1.4-2.7-2.7zM629.6 238.9c-.5-1.3-.5-2.6-.1-3.9.5-1.3 1.5-2.2 3-2.8 1.3-.5 2.6-.5 3.8.1 1.3.5 2.2 1.5 2.7 2.8.5 1.3.5 2.6 0 3.9-.5 1.3-1.5 2.2-2.8 2.7-1.5.6-2.8.6-4.1 0-1.2-.7-2-1.6-2.5-2.8zM637.1 260.4c-.4-1.3-.3-2.6.2-3.9.6-1.2 1.6-2.1 3.2-2.6 1.3-.4 2.6-.3 3.8.3 1.2.6 2.1 1.6 2.5 3s.3 2.7-.3 3.9c-.6 1.2-1.6 2.1-3 2.5-1.5.5-2.9.4-4-.3-1.2-.7-2-1.7-2.4-2.9zM643 282.4c-.3-1.4-.1-2.6.5-3.8.7-1.2 1.8-2 3.4-2.3 1.3-.3 2.6-.1 3.8.6 1.2.7 1.9 1.8 2.2 3.2.3 1.4.1 2.7-.6 3.9-.7 1.2-1.8 1.9-3.1 2.3-1.6.4-2.9.1-4-.6s-1.9-2-2.2-3.3zM647.1 304.9c-.2-1.4.1-2.6.8-3.8.7-1.1 1.9-1.8 3.5-2.1 1.4-.2 2.6.1 3.7.9s1.8 1.9 2 3.3c.2 1.4-.1 2.7-.9 3.8-.8 1.1-1.9 1.8-3.3 2-1.6.2-2.9-.1-3.9-.9-1.1-.8-1.7-1.9-1.9-3.2zM649.6 327.5c-.1-1.4.3-2.6 1.1-3.7s2.1-1.7 3.7-1.8c1.4-.1 2.6.3 3.6 1.2 1.1.9 1.6 2.1 1.7 3.5s-.3 2.7-1.2 3.7-2.1 1.7-3.5 1.7c-1.6.1-2.9-.3-3.9-1.2-.9-.9-1.4-2-1.5-3.4zM650.3 350.4c0-1.4.5-2.6 1.4-3.6.9-1 2.2-1.5 3.8-1.5 1.4 0 2.6.5 3.5 1.5 1 1 1.5 2.2 1.4 3.6 0 1.4-.5 2.6-1.5 3.6s-2.2 1.5-3.6 1.4c-1.6 0-2.8-.5-3.7-1.6-.9-.9-1.3-2.1-1.3-3.4zM649.3 373.1c.1-1.4.7-2.6 1.6-3.5 1-.9 2.3-1.3 3.9-1.2 1.4.1 2.5.7 3.4 1.7.9 1 1.3 2.3 1.2 3.7-.1 1.4-.7 2.6-1.8 3.5-1.1.9-2.3 1.3-3.7 1.2-1.6-.1-2.8-.7-3.6-1.8-.7-1.1-1.1-2.3-1-3.6zM646.6 395.7c.2-1.4.9-2.5 1.9-3.4 1-.9 2.4-1.2 4-.9 1.4.2 2.5.9 3.3 2 .8 1.1 1.1 2.4.9 3.8-.2 1.4-.9 2.5-2 3.4-1.1.8-2.4 1.1-3.8.9-1.6-.2-2.7-.9-3.5-2.1-.7-1.1-1-2.4-.8-3.7zM642.2 418c.3-1.4 1-2.4 2.1-3.2 1.1-.8 2.5-1 4-.6 1.3.3 2.4 1.1 3.1 2.2.7 1.2.9 2.4.6 3.8-.3 1.4-1.1 2.4-2.3 3.2-1.2.7-2.5 1-3.8.6-1.6-.4-2.7-1.1-3.3-2.3-.5-1.1-.7-2.3-.4-3.7zM636.1 440c.4-1.3 1.2-2.3 2.4-3 1.2-.7 2.5-.8 4.1-.3 1.3.4 2.3 1.2 2.9 2.5.6 1.2.8 2.5.3 3.9-.4 1.4-1.3 2.4-2.5 3-1.2.7-2.5.8-3.9.3-1.5-.5-2.6-1.3-3.1-2.6-.5-1.2-.6-2.5-.2-3.8zM628.4 461.5c.5-1.3 1.4-2.2 2.6-2.8 1.2-.6 2.6-.6 4.1 0 1.3.5 2.2 1.4 2.7 2.7.6 1.3.6 2.6 0 3.9-.5 1.3-1.4 2.3-2.7 2.8-1.3.6-2.6.6-3.9.1-1.5-.6-2.5-1.5-2.9-2.8-.5-1.4-.5-2.7.1-3.9zM619 482.2c.6-1.3 1.6-2.1 2.8-2.6 1.3-.5 2.6-.4 4.1.3 1.2.6 2.1 1.6 2.5 2.9.5 1.3.4 2.6-.3 3.9-.6 1.3-1.6 2.1-2.9 2.6-1.3.5-2.6.4-3.9-.2-1.4-.7-2.3-1.7-2.7-3-.3-1.4-.2-2.6.4-3.9zM608 502.3c.7-1.2 1.7-2 3-2.4 1.3-.4 2.6-.2 4 .6 1.2.7 1.9 1.7 2.3 3.1.4 1.3.2 2.6-.6 3.8-.7 1.2-1.8 2-3.1 2.4-1.4.4-2.6.2-3.8-.5-1.4-.8-2.2-1.9-2.5-3.2-.2-1.4 0-2.7.7-3.8zM595.6 521.4c.8-1.1 1.9-1.9 3.2-2.2 1.3-.3 2.6 0 4 .9 1.1.8 1.8 1.9 2.1 3.2.3 1.4 0 2.6-.8 3.8-.8 1.2-1.9 1.9-3.3 2.1-1.4.3-2.6 0-3.8-.8-1.3-.9-2-2.1-2.2-3.4-.2-1.3.1-2.5.8-3.6zM581.8 539.5c.9-1.1 2-1.7 3.3-1.9 1.3-.2 2.6.2 3.9 1.2 1.1.9 1.7 2 1.8 3.4.1 1.4-.2 2.6-1.1 3.7-.9 1.1-2.1 1.7-3.4 1.9-1.4.2-2.6-.2-3.7-1.1-1.2-1-1.9-2.2-2-3.6-.1-1.4.3-2.6 1.2-3.6zM566.7 556.5c1-1 2.1-1.6 3.5-1.7 1.4-.1 2.6.4 3.8 1.5 1 1 1.5 2.1 1.6 3.5 0 1.4-.4 2.6-1.4 3.6-1 1-2.2 1.6-3.6 1.6s-2.6-.4-3.6-1.4c-1.2-1.1-1.7-2.3-1.7-3.7-.1-1.2.4-2.4 1.4-3.4zM550.2 572.4c1-.9 2.2-1.4 3.6-1.4s2.6.6 3.7 1.8c.9 1 1.3 2.2 1.3 3.6-.1 1.4-.6 2.6-1.7 3.5-1.1.9-2.3 1.4-3.7 1.3-1.4-.1-2.6-.6-3.5-1.7-1.1-1.2-1.5-2.5-1.4-3.8.2-1.3.7-2.4 1.7-3.3zM532.7 586.9c1.1-.9 2.3-1.2 3.7-1.1 1.4.1 2.5.8 3.5 2.1.8 1.1 1.2 2.3 1 3.7-.2 1.4-.8 2.5-1.9 3.4-1.1.9-2.4 1.2-3.8 1-1.4-.2-2.5-.8-3.4-1.9-1-1.3-1.3-2.6-1.1-3.9.3-1.4.9-2.5 2-3.3zM514.1 600.1c1.2-.8 2.4-1 3.8-.8 1.3.2 2.5 1 3.3 2.3.8 1.2 1 2.4.7 3.8-.3 1.4-1 2.4-2.2 3.2-1.2.8-2.5 1-3.8.8-1.4-.3-2.4-1-3.2-2.2-.9-1.3-1.1-2.7-.8-4s1.1-2.4 2.2-3.1zM494.5 611.8c1.2-.7 2.5-.9 3.8-.6 1.3.3 2.4 1.2 3.2 2.6.7 1.2.8 2.5.4 3.8-.4 1.3-1.2 2.3-2.4 3-1.2.7-2.5.8-3.9.5-1.4-.4-2.4-1.2-3-2.4-.8-1.4-.9-2.7-.5-4 .4-1.2 1.3-2.2 2.4-2.9zM474.2 622.1c1.3-.6 2.6-.7 3.9-.3 1.3.4 2.3 1.3 3 2.8.6 1.3.6 2.5.1 3.8-.5 1.3-1.4 2.2-2.6 2.8-1.3.6-2.6.6-3.9.2-1.3-.5-2.3-1.4-2.8-2.6-.7-1.5-.7-2.8-.2-4.1.4-1.2 1.2-2.1 2.5-2.6zM453 630.7c1.3-.5 2.6-.5 3.9 0 1.3.5 2.2 1.5 2.7 3 .5 1.3.4 2.6-.1 3.8-.6 1.3-1.5 2.1-2.9 2.6-1.3.5-2.6.4-3.9-.1-1.3-.6-2.2-1.5-2.6-2.8-.5-1.5-.5-2.9.1-4.1.6-1.1 1.6-1.9 2.8-2.4zM431.4 637.7c1.3-.4 2.6-.3 3.8.3 1.2.6 2.1 1.7 2.5 3.2.4 1.3.2 2.6-.4 3.8-.7 1.2-1.7 2-3 2.4-1.4.4-2.7.2-3.9-.4-1.2-.7-2-1.7-2.4-3-.4-1.5-.3-2.9.4-4 .7-1.2 1.7-2 3-2.3zM409.2 643c1.4-.3 2.6-.1 3.8.6 1.2.7 1.9 1.8 2.2 3.4.3 1.3 0 2.6-.7 3.8-.8 1.2-1.8 1.9-3.2 2.2-1.4.3-2.7 0-3.9-.7-1.2-.8-1.9-1.8-2.2-3.2-.3-1.6-.1-2.9.7-4 .9-1.2 2-1.8 3.3-2.1zM386.7 646.6c1.4-.2 2.6.1 3.8.9 1.1.8 1.8 2 2 3.6.2 1.4-.2 2.6-1 3.7s-2 1.7-3.4 1.9c-1.4.2-2.7-.2-3.8-1-1.1-.9-1.8-2-1.9-3.4-.2-1.6.2-2.9 1-3.9s1.9-1.6 3.3-1.8zM364 648.5c1.4-.1 2.6.3 3.7 1.2 1.1.9 1.6 2.1 1.7 3.7.1 1.4-.4 2.6-1.3 3.6s-2.1 1.6-3.5 1.6c-1.4.1-2.7-.4-3.7-1.3s-1.6-2.1-1.7-3.5c-.1-1.6.4-2.9 1.3-3.8 1-.9 2.1-1.4 3.5-1.5zM341.2 648.7c1.4 0 2.6.5 3.6 1.5 1 .9 1.5 2.2 1.4 3.8 0 1.4-.6 2.5-1.6 3.5s-2.2 1.4-3.6 1.4-2.6-.6-3.6-1.6-1.4-2.2-1.4-3.6c0-1.6.6-2.8 1.6-3.7 1-.9 2.2-1.3 3.6-1.3zM318.4 647.2c1.4.1 2.5.7 3.5 1.7.9 1 1.3 2.3 1.1 3.9-.1 1.4-.7 2.5-1.8 3.4-1.1.9-2.3 1.3-3.7 1.1-1.4-.1-2.6-.8-3.5-1.8-.9-1.1-1.3-2.3-1.1-3.7.2-1.6.8-2.8 1.9-3.6 1.1-.8 2.3-1.2 3.6-1zM295.9 643.9c1.4.3 2.5.9 3.3 2 .8 1.1 1.1 2.4.8 4-.2 1.4-.9 2.4-2.1 3.2-1.1.8-2.4 1.1-3.8.8-1.4-.3-2.5-1-3.3-2.1-.8-1.1-1.1-2.4-.8-3.8.3-1.6 1-2.7 2.2-3.4 1.1-.7 2.4-.9 3.7-.7zM273.6 639c1.4.4 2.4 1.1 3.2 2.2.8 1.1.9 2.5.5 4.1a4.8 4.8 0 0 1-2.3 3.1c-1.2.7-2.5.9-3.8.5-1.4-.4-2.4-1.1-3.1-2.3-.7-1.2-.9-2.5-.5-3.8.4-1.5 1.2-2.6 2.4-3.3 1.1-.7 2.3-.9 3.6-.5zM251.8 632.4c1.3.5 2.3 1.3 3 2.5.7 1.2.7 2.5.2 4.1-.4 1.3-1.3 2.3-2.5 2.9-1.2.6-2.5.7-3.9.2-1.3-.5-2.3-1.3-3-2.6-.6-1.3-.7-2.5-.3-3.9.5-1.5 1.4-2.5 2.7-3.1 1.3-.5 2.5-.6 3.8-.1zM230.6 624.1c1.3.6 2.2 1.5 2.8 2.7.6 1.2.5 2.6-.1 4.1-.5 1.3-1.5 2.2-2.7 2.7-1.3.5-2.6.5-3.9-.1-1.3-.6-2.2-1.5-2.7-2.8-.5-1.3-.5-2.6 0-3.9.6-1.5 1.6-2.4 2.9-2.9 1.2-.4 2.4-.4 3.7.2zM210 614.2c1.2.7 2.1 1.6 2.6 2.9.5 1.3.3 2.6-.4 4.1-.6 1.2-1.6 2-2.9 2.5-1.3.4-2.6.3-3.9-.4-1.3-.7-2.1-1.7-2.5-3-.4-1.3-.3-2.6.3-3.9.7-1.4 1.8-2.3 3.1-2.6 1.2-.4 2.5-.2 3.7.4zM190.2 602.8c1.2.7 2 1.8 2.3 3.1.4 1.3.1 2.6-.7 4-.7 1.2-1.8 1.9-3.1 2.2-1.3.3-2.6.1-3.8-.7-1.2-.8-2-1.8-2.3-3.2s-.1-2.6.6-3.8c.9-1.4 1.9-2.1 3.3-2.4 1.4-.2 2.6 0 3.7.8zM171.4 589.9c1.1.8 1.8 1.9 2.1 3.2s-.1 2.6-1 3.9c-.8 1.1-1.9 1.8-3.3 2s-2.6-.1-3.8-.9c-1.1-.8-1.8-2-2-3.3-.2-1.4.1-2.6.9-3.8 1-1.3 2.1-2 3.5-2.1 1.3-.2 2.5.2 3.6 1zM153.7 575.6c1.1.9 1.7 2 1.9 3.4.2 1.3-.3 2.6-1.3 3.9-.9 1-2 1.6-3.4 1.7-1.4.1-2.6-.3-3.7-1.2s-1.7-2.1-1.8-3.5.3-2.6 1.2-3.7c1-1.2 2.2-1.8 3.6-1.9 1.3 0 2.5.5 3.5 1.3zM137 560.1c1 1 1.5 2.2 1.6 3.5.1 1.4-.5 2.6-1.6 3.7-1 1-2.2 1.5-3.5 1.5-1.4 0-2.6-.5-3.6-1.5s-1.5-2.2-1.5-3.6.5-2.6 1.5-3.6c1.1-1.1 2.4-1.7 3.7-1.6 1.3.1 2.4.6 3.4 1.6zM121.6 543.3c.9 1.1 1.3 2.3 1.3 3.6 0 1.4-.7 2.6-1.9 3.6-1 .9-2.3 1.3-3.6 1.2-1.4-.1-2.5-.7-3.5-1.8s-1.3-2.3-1.2-3.7.7-2.6 1.7-3.5c1.2-1 2.5-1.5 3.8-1.3 1.4.3 2.5.9 3.4 1.9zM107.4 525.4c.8 1.1 1.2 2.4 1 3.7-.1 1.4-.9 2.5-2.2 3.5-1.1.8-2.4 1.1-3.7.9-1.4-.2-2.5-.9-3.3-2-.8-1.1-1.2-2.4-1-3.8.2-1.4.9-2.5 2-3.3 1.3-.9 2.6-1.3 3.9-1s2.5.9 3.3 2zM94.7 506.5c.7 1.2 1 2.5.8 3.8-.2 1.3-1 2.4-2.4 3.3-1.2.7-2.4.9-3.8.6-1.4-.3-2.4-1.1-3.2-2.3-.7-1.2-1-2.5-.7-3.9.3-1.4 1.1-2.4 2.2-3.2 1.4-.8 2.7-1.1 4-.7 1.4.5 2.4 1.2 3.1 2.4zM83.5 486.7c.6 1.2.8 2.5.5 3.8-.3 1.3-1.2 2.3-2.7 3.1-1.2.6-2.5.7-3.8.3-1.3-.4-2.3-1.2-3-2.5-.7-1.3-.8-2.6-.4-3.9.4-1.3 1.2-2.3 2.5-3 1.4-.7 2.8-.9 4-.4 1.3.5 2.2 1.4 2.9 2.6zM73.7 466.1c.5 1.3.6 2.6.2 3.9-.4 1.3-1.4 2.2-2.9 2.9-1.3.5-2.5.6-3.8.1s-2.2-1.4-2.8-2.7c-.6-1.3-.6-2.6-.1-3.9.5-1.3 1.4-2.2 2.7-2.8 1.5-.6 2.8-.7 4.1-.1 1.2.4 2.1 1.3 2.6 2.6zM65.6 444.7c.4 1.3.4 2.6-.1 3.9-.5 1.3-1.6 2.1-3.1 2.7-1.3.4-2.6.4-3.8-.2-1.2-.6-2.1-1.6-2.6-2.9-.5-1.3-.4-2.6.2-3.9.6-1.3 1.6-2.1 2.9-2.6 1.5-.5 2.9-.4 4.1.2 1.2.6 2 1.6 2.4 2.8zM59.1 422.8c.3 1.4.2 2.6-.4 3.8-.6 1.2-1.7 2-3.3 2.4-1.3.3-2.6.2-3.8-.5-1.2-.7-2-1.7-2.3-3.1-.4-1.4-.2-2.7.5-3.9.7-1.2 1.7-2 3.1-2.3 1.6-.4 2.9-.2 4 .5 1.2.8 1.9 1.8 2.2 3.1zM54.4 400.6c.2 1.4 0 2.6-.7 3.8-.7 1.2-1.9 1.9-3.5 2.2-1.4.2-2.6 0-3.7-.8s-1.8-1.9-2.1-3.3c-.2-1.4 0-2.7.8-3.8.8-1.2 1.9-1.9 3.3-2.1 1.6-.3 2.9 0 4 .8 1 .8 1.6 1.9 1.9 3.2zM51.3 378c.1 1.4-.2 2.6-1 3.7s-2 1.7-3.6 1.9c-1.4.1-2.6-.2-3.7-1.1-1.1-.9-1.7-2-1.8-3.4-.1-1.4.2-2.7 1.1-3.8.9-1.1 2-1.7 3.4-1.8 1.6-.2 2.9.2 3.9 1.1 1 .9 1.6 2 1.7 3.4zM50 355.2c0 1.4-.4 2.6-1.3 3.6s-2.1 1.6-3.8 1.6c-1.4 0-2.6-.4-3.6-1.4-1-.9-1.5-2.1-1.6-3.6 0-1.4.4-2.6 1.4-3.7 1-1 2.1-1.6 3.5-1.6 1.6 0 2.9.4 3.8 1.4 1.1 1.2 1.5 2.4 1.6 3.7zM50.3 332.4c-.1 1.4-.6 2.6-1.5 3.5-1 1-2.2 1.4-3.9 1.3-1.4-.1-2.5-.6-3.5-1.6-.9-1-1.4-2.2-1.3-3.7.1-1.4.6-2.6 1.7-3.6 1-.9 2.2-1.4 3.6-1.3 1.6.1 2.8.7 3.7 1.7.9 1.2 1.3 2.4 1.2 3.7z"/></g></g></switch></svg>