<!--?xml version="1.0" encoding="UTF-8" standalone="no"?--><svg width="100%" height="100%" viewBox="0 0 585 157" version="1.1" xmlns="http://www.w3.org/2000/svg" xmlns:xlink="http://www.w3.org/1999/xlink" xml:space="preserve" style="fill-rule: evenodd; clip-rule: evenodd; stroke-linejoin: round; stroke-miterlimit: 1.41421;"><path id="civic-logo-wht-sal" width="584.071" height="156.396" style="fill:none;" d="M0.058 0 L584.129 0 L584.129 156.396 L0.058 156.396 Z" class="SbvpMFDr_0"></path><g id="logo-set"><path width="15.834" height="65.502" style="fill:#ee495c;fill-rule:nonzero;" d="M109.245 36.639 L125.07900000000001 36.639 L125.07900000000001 102.14099999999999 L109.245 102.14099999999999 Z" class="SbvpMFDr_1"></path><path d="M140.58,36.639l16.5,0l10.5,40.001l10.334,-40.001l16.667,0l-20,65.502l-14.001,0l-20,-65.502Z" style="fill:#ee495c;fill-rule:nonzero;" class="SbvpMFDr_2"></path><path width="15.834" height="65.502" style="fill:#ee495c;fill-rule:nonzero;" d="M212.582 36.639 L228.416 36.639 L228.416 102.14099999999999 L212.582 102.14099999999999 Z" class="SbvpMFDr_3"></path><path d="M60.077,81.64c-6.833,-6.833 -6.833,-17.834 0,-24.5c3.334,-3.334 7.667,-5.001 12.334,-5.001c4.667,0 9,1.834 12.334,5.001l11.5,-11.501c-6.333,-6.333 -14.834,-9.833 -23.834,-9.833c-9,0 -17.5,3.5 -23.834,9.833c-13.167,13.167 -13.167,34.501 0,47.502c6.667,6.5 15.167,9.833 23.834,9.833c8.667,0 17.167,-3.333 23.834,-9.833l-11.5,-11.501c-6.834,6.667 -17.834,6.667 -24.668,0Z" style="fill:#ee495c;fill-rule:nonzero;" class="SbvpMFDr_4"></path><path d="M264.077,81.64c-6.833,-6.833 -6.833,-17.834 0,-24.5c3.334,-3.334 7.667,-5.001 12.334,-5.001c4.667,0 9,1.834 12.334,5.001l11.5,-11.501c-6.333,-6.333 -14.834,-9.833 -23.834,-9.833c-9,0 -17.5,3.5 -23.834,9.833c-13.167,13.167 -13.167,34.501 0,47.502c6.667,6.5 15.167,9.833 23.834,9.833c8.667,0 17.167,-3.333 23.834,-9.833l-11.5,-11.501c-6.834,6.667 -17.834,6.667 -24.668,0Z" style="fill:#fff;fill-rule:nonzero;stroke:#fff;stroke-width:0.24px;" class="SbvpMFDr_5"></path><path d="M294.63,87.287c-8.652,8.87 -24.963,11.292 -36.787,-0.362c-6.39,-6.297 -12.252,-22.52 0.799,-35.837" style="fill:none;stroke:#ee495c;stroke-width:16.5px;" class="SbvpMFDr_6"></path><path d="M326.585,123.475l-40.001,0l-15.167,15l-15.001,-15l-28.501,0l-213.339,0l0,-110.17l-10.334,-10.334l0,130.671l247.841,0l19.334,19.5l19.5,-19.5l46.002,0l-10.334,-10.167Z" style="fill:#ee495c;fill-rule:nonzero;stroke:#ee495c;stroke-width:0.24px;" class="SbvpMFDr_7"></path><path d="M4.242,2.971l10.334,10.334l312.009,0l0,110.17l10.334,10.167l0,-130.671l-332.677,0Z" style="fill:#fff;fill-rule:nonzero;stroke:#fff;stroke-width:0.24px;" class="SbvpMFDr_8"></path></g><path d="M430.903,74.413l0,18.874l-3.597,0l0,-7.807l-7.698,0l0,7.807l-3.542,0l0,-18.874l3.542,0l0,7.917l7.698,0l0,-7.917l3.597,0Z" style="fill:#fff;" class="SbvpMFDr_9"></path><path d="M440.47,90.329c1.84,0 3.57,-1.26 3.57,-3.452c0,-2.219 -1.785,-3.452 -3.57,-3.452c-1.869,0 -3.598,1.37 -3.598,3.452c0,2.055 1.729,3.452 3.598,3.452Zm3.57,1.315c-0.837,1.314 -2.76,1.89 -4.044,1.89c-3.43,0 -6.637,-2.575 -6.637,-6.657c0,-4.11 3.207,-6.656 6.637,-6.656c1.171,0 3.096,0.437 4.044,1.862l0,-1.589l3.403,0l0,12.793l-3.403,0l0,-1.643Z" style="fill:#fff;" class="SbvpMFDr_10"></path><path d="M456.932,80.22c2.175,0 4.184,0.904 5.411,2.493l-2.706,2c-0.613,-0.822 -1.645,-1.26 -2.705,-1.26c-1.897,0 -3.654,1.314 -3.654,3.396c0,2.082 1.757,3.508 3.654,3.508c1.06,0 2.092,-0.467 2.705,-1.289l2.734,1.973c-1.228,1.589 -3.235,2.52 -5.439,2.52c-3.737,0 -7.029,-2.684 -7.029,-6.712c0,-4.026 3.292,-6.629 7.029,-6.629Z" style="fill:#fff;" class="SbvpMFDr_11"></path><path d="M467.845,87.808l0,5.48l-3.374,0l0,-19.752l3.374,0l0,10.794l3.598,-3.835l4.406,0l-5.466,5.615l6.638,7.178l-4.267,0l-4.909,-5.48Z" style="fill:#fff;" class="SbvpMFDr_12"></path><path d="M494.899,90.11c3.459,0 6.192,-2.767 6.192,-6.219c0,-3.452 -2.733,-6.246 -6.192,-6.246c-3.486,0 -6.191,2.794 -6.191,6.246c0,3.452 2.705,6.219 6.191,6.219Zm0,-15.916c5.467,0 9.762,4.328 9.762,9.697c0,5.315 -4.295,9.67 -9.762,9.67c-5.466,0 -9.733,-4.355 -9.733,-9.67c0,-5.369 4.267,-9.697 9.733,-9.697Z" style="fill:#fff;" class="SbvpMFDr_13"></path><path d="M510.94,93.287l-3.402,0l0,-12.793l3.402,0l0,3.013c0.669,-2.328 2.204,-3.287 3.681,-3.287c0.92,0 1.618,0.191 2.148,0.466l-0.586,3.013c-0.809,-0.356 -1.646,-0.356 -1.98,-0.356c-2.315,0 -3.263,2.027 -3.263,5.424l0,4.52Z" style="fill:#fff;" class="SbvpMFDr_14"></path><path d="M527.574,85.727c-0.25,-1.754 -1.589,-2.713 -3.263,-2.713c-1.785,0 -3.18,0.987 -3.43,2.713l6.693,0Zm3.264,2.273l-9.93,0c0.223,1.699 1.674,2.74 3.599,2.74c1.31,0 2.65,-0.548 3.262,-1.643c0.81,0.437 1.758,0.931 2.595,1.368c-1.172,2.192 -3.682,3.096 -6.081,3.096c-3.71,0 -6.749,-2.684 -6.749,-6.711c0,-4.028 3.039,-6.63 6.749,-6.63c3.709,0 6.611,2.602 6.611,6.63c0,0.328 -0.028,0.848 -0.056,1.15Z" style="fill:#fff;" class="SbvpMFDr_15"></path><path d="M539.615,83.425c-1.897,0 -3.515,1.397 -3.515,3.452c0,2.136 1.618,3.506 3.515,3.506c1.757,0 3.542,-1.341 3.542,-3.506c0,-2.219 -1.673,-3.452 -3.542,-3.452Zm-0.335,13.205c3.292,0 4.156,-2.412 3.961,-5.096c-0.669,1.287 -2.454,2.028 -4.156,2.028c-3.402,0 -6.526,-2.603 -6.526,-6.631c0,-4.108 3.124,-6.71 6.526,-6.71c1.702,0 3.43,0.712 4.156,1.999l0,-1.726l3.318,0l0,10.957c0,5.698 -2.76,8.219 -7.279,8.219c-2.705,0 -5.076,-1.451 -6.219,-3.781c0.753,-0.356 2.007,-1.013 2.76,-1.369c0.559,1.261 2.092,2.11 3.459,2.11Z" style="fill:#fff;" class="SbvpMFDr_16"></path><path d="M559.264,86.85c0,-2.028 -1.534,-3.342 -3.402,-3.342c-1.869,0 -3.404,1.314 -3.404,3.342c0,2.082 1.535,3.424 3.404,3.424c1.868,0 3.402,-1.342 3.402,-3.424Zm-10.18,0c0,-4.027 3.069,-6.629 6.778,-6.629c3.682,0 6.777,2.602 6.777,6.629c0,4.026 -3.095,6.684 -6.777,6.684c-3.709,0 -6.778,-2.658 -6.778,-6.684Z" style="fill:#fff;" class="SbvpMFDr_17"></path><path d="M568.516,93.287l-3.402,0l0,-12.793l3.402,0l0,1.89c0.725,-1.369 2.37,-2.164 3.877,-2.164c3.04,0 4.853,1.89 4.853,5.506l0,7.561l-3.403,0l0,-6.958c0,-1.863 -1.003,-2.849 -2.482,-2.849c-1.535,0 -2.845,0.768 -2.845,2.987l0,6.82Z" style="fill:#fff;" class="SbvpMFDr_18"></path><path d="M388.878,94.725l0,-3.852c0,-0.38 -0.123,-0.692 -0.369,-0.933c-0.245,-0.242 -0.563,-0.363 -0.951,-0.363l-1.708,0l0,1.526l1.048,0c0.233,0 0.349,0.126 0.349,0.381l0,3.418c0,0.289 0.093,0.526 0.278,0.713c0.186,0.186 0.43,0.279 0.732,0.279l0.078,0l0,0.229l-0.078,0c-0.302,0 -0.546,0.094 -0.732,0.28c-0.185,0.186 -0.278,0.423 -0.278,0.712l0,3.418c0,0.255 -0.116,0.382 -0.349,0.382l-1.048,0l0,1.525l1.708,0c0.388,0 0.706,-0.12 0.951,-0.362c0.246,-0.241 0.369,-0.553 0.369,-0.934l0,-3.851c0,-0.246 0.116,-0.369 0.349,-0.369l0.816,0l0,-1.83l-0.816,0c-0.233,0 -0.349,-0.123 -0.349,-0.369Z" style="fill:#fff;" class="SbvpMFDr_19"></path><path d="M380.505,89.94c-0.247,0.242 -0.369,0.552 -0.369,0.934l0,3.851c0,0.246 -0.116,0.369 -0.35,0.369l-0.814,0l0,1.831l0.814,0c0.234,0 0.35,0.123 0.35,0.367l0,3.852c0,0.382 0.122,0.693 0.369,0.933c0.246,0.243 0.563,0.363 0.952,0.363l1.707,0l0,-1.525l-1.048,0c-0.232,0 -0.35,-0.127 -0.35,-0.381l0,-3.419c0,-0.289 -0.092,-0.526 -0.278,-0.712c-0.186,-0.187 -0.428,-0.28 -0.731,-0.28l-0.078,0l0,-0.229l0.078,0c0.303,0 0.545,-0.093 0.731,-0.28c0.186,-0.186 0.278,-0.423 0.278,-0.71l0,-3.42c0,-0.255 0.118,-0.382 0.35,-0.382l1.048,0l0,-1.525l-1.707,0c-0.389,0 -0.706,0.121 -0.952,0.363Z" style="fill:#fff;" class="SbvpMFDr_20"></path><path d="M402.087,92.146l-2.44,-4.657c-0.155,-0.297 -0.092,-0.517 0.189,-0.659l0.986,-0.499l-1.16,-2.213l-0.986,0.499c-0.281,0.142 -0.5,0.065 -0.655,-0.232l-1.138,-2.17l1.279,-0.646c0.47,-0.237 0.776,-0.577 0.921,-1.02c0.144,-0.441 0.095,-0.893 -0.146,-1.354l-2.44,-4.657c-0.156,-0.297 -0.094,-0.517 0.188,-0.659l0.986,-0.499l-1.16,-2.214l-0.986,0.499c-0.28,0.142 -0.499,0.066 -0.656,-0.232l-2.31,-4.409c0.298,-0.217 0.503,-0.493 0.613,-0.831c0.144,-0.441 0.095,-0.893 -0.146,-1.354l-2.44,-4.657c-0.155,-0.297 -0.093,-0.517 0.189,-0.659l0.986,-0.498l-1.16,-2.213l-0.986,0.498c-0.281,0.143 -0.5,0.065 -0.657,-0.233l-2.44,-4.655c-0.079,-0.153 -0.175,-0.281 -0.278,-0.399c-0.869,-1.255 -2.897,-1.207 -3.628,0.176c-0.222,0.421 -0.373,0.711 -0.373,0.711l-2.184,4.167c-0.155,0.298 -0.374,0.376 -0.656,0.233l-0.986,-0.498l-1.159,2.213l0.986,0.498c0.281,0.142 0.344,0.362 0.189,0.659l-2.44,4.657c-0.243,0.461 -0.292,0.913 -0.147,1.354c0.11,0.338 0.315,0.614 0.613,0.831l-2.311,4.409c-0.155,0.298 -0.374,0.374 -0.656,0.232l-0.986,-0.499l-1.159,2.214l0.985,0.499c0.282,0.142 0.345,0.362 0.19,0.659l-2.44,4.657c-0.243,0.461 -0.291,0.913 -0.146,1.354c0.143,0.443 0.45,0.783 0.92,1.02l1.278,0.646l-1.136,2.17c-0.156,0.297 -0.374,0.374 -0.656,0.232l-0.986,-0.499l-1.16,2.213l0.986,0.499c0.282,0.142 0.345,0.362 0.189,0.659l-2.44,4.657c-0.242,0.461 -0.291,0.912 -0.146,1.354c0.144,0.444 0.451,0.783 0.92,1.02l2.066,1.045l0.966,-1.845l-1.267,-0.641c-0.282,-0.142 -0.342,-0.366 -0.182,-0.674l2.167,-4.134c0.182,-0.349 0.221,-0.692 0.115,-1.031c-0.107,-0.339 -0.341,-0.601 -0.706,-0.785l-0.095,-0.047l0.145,-0.278l0.095,0.048c0.365,0.186 0.718,0.222 1.061,0.109c0.341,-0.111 0.605,-0.342 0.787,-0.69l2.167,-4.135c0.161,-0.307 0.382,-0.39 0.663,-0.248l1.268,0.641l0.966,-1.843l-2.065,-1.045c-0.47,-0.237 -0.93,-0.285 -1.379,-0.144c-0.451,0.143 -0.798,0.444 -1.039,0.905l-0.336,0.642l-0.481,-0.242c-0.282,-0.142 -0.343,-0.367 -0.181,-0.674l2.166,-4.134c0.183,-0.349 0.221,-0.693 0.115,-1.032c-0.106,-0.338 -0.342,-0.6 -0.707,-0.785l-0.095,-0.046l0.145,-0.277l0.095,0.046c0.365,0.185 0.718,0.222 1.061,0.11c0.343,-0.112 0.605,-0.343 0.787,-0.691l2.167,-4.134c0.161,-0.307 0.382,-0.39 0.663,-0.247l1.268,0.64l0.967,-1.845l-1.275,-0.643l0.001,-0.003l-1.267,-0.64c-0.282,-0.143 -0.342,-0.368 -0.18,-0.675l2.166,-4.134c0.183,-0.348 0.221,-0.693 0.114,-1.031c-0.105,-0.339 -0.341,-0.6 -0.706,-0.785l-0.095,-0.047l0.145,-0.277l0.095,0.048c0.365,0.184 0.718,0.22 1.061,0.108c0.343,-0.112 0.605,-0.343 0.787,-0.691l2.167,-4.134c0.07,-0.135 0.154,-0.219 0.249,-0.267c0.034,-0.014 0.067,-0.025 0.1,-0.032c0.025,-0.005 0.05,-0.009 0.077,-0.009c0.027,0 0.052,0.004 0.077,0.009c0.032,0.007 0.066,0.018 0.101,0.032c0.093,0.048 0.178,0.132 0.249,0.267l2.166,4.134c0.183,0.348 0.445,0.579 0.788,0.691c0.341,0.112 0.696,0.076 1.061,-0.108l0.094,-0.048l0.145,0.277l-0.094,0.047c-0.365,0.185 -0.601,0.446 -0.707,0.785c-0.106,0.338 -0.068,0.683 0.114,1.031l2.167,4.134c0.161,0.307 0.1,0.532 -0.181,0.675l-1.268,0.64l0.002,0.003l-1.275,0.643l0.967,1.845l1.267,-0.64c0.282,-0.143 0.502,-0.06 0.665,0.247l2.165,4.134c0.183,0.348 0.446,0.579 0.789,0.691c0.341,0.112 0.696,0.075 1.061,-0.11l0.093,-0.046l0.145,0.277l-0.093,0.046c-0.365,0.185 -0.601,0.447 -0.707,0.785c-0.107,0.339 -0.068,0.683 0.114,1.032l2.167,4.134c0.16,0.307 0.1,0.532 -0.181,0.674l-0.481,0.242l-0.338,-0.642c-0.241,-0.461 -0.586,-0.762 -1.037,-0.905c-0.451,-0.141 -0.91,-0.093 -1.38,0.144l-2.064,1.045l0.966,1.843l1.267,-0.641c0.282,-0.142 0.503,-0.059 0.664,0.248l2.166,4.135c0.183,0.348 0.445,0.579 0.788,0.69c0.343,0.113 0.696,0.077 1.061,-0.109l0.094,-0.048l0.145,0.278l-0.094,0.047c-0.365,0.184 -0.601,0.446 -0.706,0.785c-0.107,0.339 -0.069,0.682 0.114,1.031l2.166,4.134c0.161,0.308 0.102,0.532 -0.181,0.674l-1.268,0.641l0.968,1.845l2.065,-1.045c0.47,-0.237 0.777,-0.576 0.921,-1.02c0.143,-0.442 0.094,-0.893 -0.147,-1.354Z" style="fill:#fff;" class="SbvpMFDr_21"></path><path d="M417.557,62.196l0,3.669l2.964,0c1.097,0 1.731,-0.892 1.731,-1.784c0,-0.859 -0.653,-1.885 -1.782,-1.885l-2.913,0Zm2.62,-1.532c0.961,0 1.458,-0.758 1.458,-1.633c0,-0.942 -0.6,-1.498 -1.578,-1.498l-2.5,0l0,3.131l2.62,0Zm1.817,0.656c1.389,0.303 2.16,1.667 2.16,2.777c0,1.835 -1.319,3.4 -3.548,3.4l-4.884,0l0,-11.596l4.525,0c2.005,0 3.272,1.178 3.272,3.063c0,0.909 -0.377,1.919 -1.525,2.356Z" style="fill:#fff;" class="SbvpMFDr_22"></path><path d="M432.191,59.637l1.765,0l0,7.86l-1.765,0l0,-1.144c-0.463,0.892 -1.543,1.313 -2.384,1.313c-1.952,0 -3.117,-1.229 -3.1,-3.451l0,-4.578l1.765,0l0,4.376c0,1.296 0.703,1.969 1.661,1.969c1.029,0 2.058,-0.555 2.058,-2.12l0,-4.225Z" style="fill:#fff;" class="SbvpMFDr_23"></path><path d="M437.11,67.498l1.746,0l0,-7.86l-1.746,0l0,7.86Zm0.872,-12.137c0.652,0 1.166,0.473 1.166,1.096c0,0.621 -0.514,1.094 -1.166,1.094c-0.634,0 -1.182,-0.473 -1.182,-1.094c0,-0.623 0.548,-1.096 1.182,-1.096Z" style="fill:#fff;" class="SbvpMFDr_24"></path><path width="1.766" height="12.137" style="fill:#fff;" d="M442.008 55.361 L443.774 55.361 L443.774 67.49799999999999 L442.008 67.49799999999999 Z" class="SbvpMFDr_25"></path><path d="M449.327,59.637l1.696,0l0,1.431l-1.696,0l0,6.429l-1.765,0l0,-6.429l-1.44,0l0,-1.431l1.44,0l0,-2.979l1.765,0l0,2.979Z" style="fill:#fff;" class="SbvpMFDr_26"></path><path d="M460.208,62.196l0,3.669l2.965,0c1.097,0 1.731,-0.892 1.731,-1.784c0,-0.859 -0.653,-1.885 -1.783,-1.885l-2.913,0Zm2.621,-1.532c0.961,0 1.458,-0.758 1.458,-1.633c0,-0.942 -0.6,-1.498 -1.578,-1.498l-2.501,0l0,3.131l2.621,0Zm1.818,0.656c1.388,0.303 2.159,1.667 2.159,2.777c0,1.835 -1.32,3.4 -3.549,3.4l-4.884,0l0,-11.596l4.526,0c2.005,0 3.271,1.178 3.271,3.063c0,0.909 -0.377,1.919 -1.523,2.356Z" style="fill:#fff;" class="SbvpMFDr_27"></path><path d="M471.621,71.336l-1.85,0l1.73,-4.208l-3.17,-7.491l1.885,0l2.228,5.387l2.245,-5.387l1.885,0l-4.953,11.699Z" style="fill:#fff;" class="SbvpMFDr_28"></path><style>.SbvpMFDr_0{stroke-dasharray:1481 1483;stroke-dashoffset:1482;animation:SbvpMFDr_draw 1000ms ease 0ms forwards;}.SbvpMFDr_1{stroke-dasharray:163 165;stroke-dashoffset:164;animation:SbvpMFDr_draw 1000ms ease 17ms forwards;}.SbvpMFDr_2{stroke-dasharray:267 269;stroke-dashoffset:268;animation:SbvpMFDr_draw 1000ms ease 35ms forwards;}.SbvpMFDr_3{stroke-dasharray:163 165;stroke-dashoffset:164;animation:SbvpMFDr_draw 1000ms ease 53ms forwards;}.SbvpMFDr_4{stroke-dasharray:274 276;stroke-dashoffset:275;animation:SbvpMFDr_draw 1000ms ease 71ms forwards;}.SbvpMFDr_5{stroke-dasharray:274 276;stroke-dashoffset:275;animation:SbvpMFDr_draw 1000ms ease 89ms forwards;}.SbvpMFDr_6{stroke-dasharray:81 83;stroke-dashoffset:82;animation:SbvpMFDr_draw 1000ms ease 107ms forwards;}.SbvpMFDr_7{stroke-dasharray:944 946;stroke-dashoffset:945;animation:SbvpMFDr_draw 1000ms ease 125ms forwards;}.SbvpMFDr_8{stroke-dasharray:915 917;stroke-dashoffset:916;animation:SbvpMFDr_draw 1000ms ease 142ms forwards;}.SbvpMFDr_9{stroke-dasharray:99 101;stroke-dashoffset:100;animation:SbvpMFDr_draw 1000ms ease 160ms forwards;}.SbvpMFDr_10{stroke-dasharray:76 78;stroke-dashoffset:77;animation:SbvpMFDr_draw 1000ms ease 178ms forwards;}.SbvpMFDr_11{stroke-dasharray:59 61;stroke-dashoffset:60;animation:SbvpMFDr_draw 1000ms ease 196ms forwards;}.SbvpMFDr_12{stroke-dasharray:82 84;stroke-dashoffset:83;animation:SbvpMFDr_draw 1000ms ease 214ms forwards;}.SbvpMFDr_13{stroke-dasharray:101 103;stroke-dashoffset:102;animation:SbvpMFDr_draw 1000ms ease 232ms forwards;}.SbvpMFDr_14{stroke-dasharray:47 49;stroke-dashoffset:48;animation:SbvpMFDr_draw 1000ms ease 250ms forwards;}.SbvpMFDr_15{stroke-dasharray:78 80;stroke-dashoffset:79;animation:SbvpMFDr_draw 1000ms ease 267ms forwards;}.SbvpMFDr_16{stroke-dasharray:104 106;stroke-dashoffset:105;animation:SbvpMFDr_draw 1000ms ease 285ms forwards;}.SbvpMFDr_17{stroke-dasharray:64 66;stroke-dashoffset:65;animation:SbvpMFDr_draw 1000ms ease 303ms forwards;}.SbvpMFDr_18{stroke-dasharray:69 71;stroke-dashoffset:70;animation:SbvpMFDr_draw 1000ms ease 321ms forwards;}.SbvpMFDr_19{stroke-dasharray:37 39;stroke-dashoffset:38;animation:SbvpMFDr_draw 1000ms ease 339ms forwards;}.SbvpMFDr_20{stroke-dasharray:37 39;stroke-dashoffset:38;animation:SbvpMFDr_draw 1000ms ease 357ms forwards;}.SbvpMFDr_21{stroke-dasharray:258 260;stroke-dashoffset:259;animation:SbvpMFDr_draw 1000ms ease 375ms forwards;}.SbvpMFDr_22{stroke-dasharray:67 69;stroke-dashoffset:68;animation:SbvpMFDr_draw 1000ms ease 392ms forwards;}.SbvpMFDr_23{stroke-dasharray:42 44;stroke-dashoffset:43;animation:SbvpMFDr_draw 1000ms ease 410ms forwards;}.SbvpMFDr_24{stroke-dasharray:27 29;stroke-dashoffset:28;animation:SbvpMFDr_draw 1000ms ease 428ms forwards;}.SbvpMFDr_25{stroke-dasharray:28 30;stroke-dashoffset:29;animation:SbvpMFDr_draw 1000ms ease 446ms forwards;}.SbvpMFDr_26{stroke-dasharray:32 34;stroke-dashoffset:33;animation:SbvpMFDr_draw 1000ms ease 464ms forwards;}.SbvpMFDr_27{stroke-dasharray:67 69;stroke-dashoffset:68;animation:SbvpMFDr_draw 1000ms ease 482ms forwards;}.SbvpMFDr_28{stroke-dasharray:43 45;stroke-dashoffset:44;animation:SbvpMFDr_draw 1000ms ease 500ms forwards;}@keyframes SbvpMFDr_draw{100%{stroke-dashoffset:0;}}@keyframes SbvpMFDr_fade{0%{stroke-opacity:1;}92.98245614035088%{stroke-opacity:1;}100%{stroke-opacity:0;}}</style></svg>