<svg id="Layer_1" data-name="Layer 1" xmlns="http://www.w3.org/2000/svg" width="954.5498" height="184.5" viewBox="0 0 954.5498 184.5"><title>civic-sandbox-inverted</title><path d="M129.1,41.4h19.5V122H129.1Z" fill="#ee495c"/><path d="M167.6,41.4H188l12.9,49.1,12.6-49.1H234L209.3,122H192.1Z" fill="#ee495c"/><path d="M256.1,41.4h19.5V122H256.1Z" fill="#ee495c"/><path d="M68.7,96.7A21.3548,21.3548,0,0,1,98.9,66.5L113,52.4a41.3,41.3,0,1,0,0,58.4L98.9,96.7A21.4266,21.4266,0,0,1,68.7,96.7Z" fill="#ee495c"/><path d="M334.6,40.3a41.0806,41.0806,0,0,0-29.2,12.1l14.1,14.1a21.4879,21.4879,0,0,1,30.2,0l14.1-14.1A41.0806,41.0806,0,0,0,334.6,40.3Z" fill="#fff"/><path d="M334.6,122.9a40.8584,40.8584,0,0,1-29.2-12.1,41.3435,41.3435,0,0,1,0-58.4l14.1,14.1a21.3546,21.3546,0,0,0,30.2,30.2l14.1,14.1a40.8584,40.8584,0,0,1-29.2,12.1Z" fill="#ee495c"/><polygon points="396.2 148 347.1 148 328.6 166.6 310 148 274.9 148 12.7 148 12.7 12.7 12.7 12.7 12.7 12.7 0 0 0 0 0 0 0 160.7 275.3 160.7 304.8 160.7 328.6 184.5 352.4 160.7 408.9 160.7 396.2 148" fill="#ee495c"/><polygon points="0 0 12.7 12.7 396.2 12.7 396.2 148 396.2 148 408.9 160.7 408.9 160.7 408.9 0 0 0" fill="#fff"/><path d="M475.5767,120.9805a26.651,26.651,0,0,1-11.1-8.2207,19.24,19.24,0,0,1-4.08-10.98,2.409,2.409,0,0,1,.78-1.74,2.541,2.541,0,0,1,1.86-.78h6.12a3.1325,3.1325,0,0,1,3.12,2.4q1.08,5.04,6.18,8.64T492.7959,113.9q9.9594,0,15-3.54a11.4138,11.4138,0,0,0,5.041-9.9,9.0522,9.0522,0,0,0-2.4609-6.6,20.9286,20.9286,0,0,0-7.26-4.44q-4.8-1.9182-14.4-4.8a73.7936,73.7936,0,0,1-14.8794-5.64,21.5423,21.5423,0,0,1-8.28-7.44,20.7764,20.7764,0,0,1-2.76-11.16,20.0938,20.0938,0,0,1,3.54-11.64,23.5373,23.5373,0,0,1,10.14-8.1,38.4192,38.4192,0,0,1,15.72-2.94,36.1622,36.1622,0,0,1,16.08,3.3,25.92,25.92,0,0,1,10.1992,8.34,19.3377,19.3377,0,0,1,3.7207,10.08,2.364,2.364,0,0,1-2.5195,2.4h-6.3614a2.8788,2.8788,0,0,1-3.1191-2.28,11.9229,11.9229,0,0,0-5.6406-8.34q-4.92-3.2988-12.3594-3.3-8.1621,0-12.84,3.12a10.3847,10.3847,0,0,0-4.68,9.24,10.0726,10.0726,0,0,0,2.22,6.72,18.1222,18.1222,0,0,0,6.7793,4.62,116.25,116.25,0,0,0,13.32,4.5,89.3327,89.3327,0,0,1,16.0791,5.7,21.8532,21.8532,0,0,1,8.7617,7.32,19.8224,19.8224,0,0,1,2.8789,11.1q0,11.1607-8.6406,17.5205-8.64,6.3618-23.2793,6.36A43.418,43.418,0,0,1,475.5767,120.9805Z" fill="#fff"/><path d="M547.7559,121.7a20.2037,20.2037,0,0,1-7.9805-6.54,15.489,15.489,0,0,1-2.9395-9.18,15.8139,15.8139,0,0,1,6.54-13.0205q6.5391-5.0992,17.6992-6.66l17.88-2.52V80.3q0-12.24-14.04-12.24a14.86,14.86,0,0,0-13.68,7.44,3.5706,3.5706,0,0,1-.8995,1.56,2.181,2.181,0,0,1-1.5.48h-5.16a2.6641,2.6641,0,0,1-2.6406-2.64,12.7364,12.7364,0,0,1,2.7-6.54,20.9428,20.9428,0,0,1,7.98-6.36,29.592,29.592,0,0,1,13.3194-2.7q13.4383,0,19.32,6.3a22.0761,22.0761,0,0,1,5.88,15.66v38.8808a2.67,2.67,0,0,1-2.76,2.76h-5.52a2.67,2.67,0,0,1-2.76-2.76v-5.16a20.72,20.72,0,0,1-7.68,6.4795q-5.04,2.6382-12.84,2.6406A25.0715,25.0715,0,0,1,547.7559,121.7Zm26.22-11.7q4.9775-5.0991,4.98-14.7V91.94l-13.92,2.0406q-8.5211,1.201-12.84,4.0195-4.32,2.8213-4.3193,7.1406a8.2921,8.2921,0,0,0,3.96,7.38,16.754,16.754,0,0,0,9.3594,2.58A17.083,17.083,0,0,0,573.9756,110Z" fill="#fff"/><path d="M610.6934,122.12a2.6755,2.6755,0,0,1-.78-1.9795V63.26a2.6688,2.6688,0,0,1,2.76-2.76h5.6406a2.6686,2.6686,0,0,1,2.76,2.76v5.28a24.39,24.39,0,0,1,8.22-6.84,26.03,26.03,0,0,1,11.82-2.4q11.52,0,17.9394,7.38t6.4209,19.62v33.8408a2.6694,2.6694,0,0,1-2.7607,2.76h-6a2.67,2.67,0,0,1-2.76-2.76V86.9q0-8.5188-4.14-13.2-4.1412-4.6794-11.94-4.68-7.56,0-12,4.74-4.4414,4.7424-4.4394,13.14v33.2407a2.67,2.67,0,0,1-2.7607,2.76h-6A2.6753,2.6753,0,0,1,610.6934,122.12Z" fill="#fff"/><path d="M688.9922,115.94q-6.3618-8.1591-6.72-20.6406l-.12-3.6.12-3.6q.36-12.3582,6.72-20.58,6.3588-8.2185,18.84-8.22,12.3589,0,19.4405,8.76V40.46a2.6694,2.6694,0,0,1,2.76-2.76h5.76a2.6694,2.6694,0,0,1,2.7607,2.76v79.6806a2.6694,2.6694,0,0,1-2.7607,2.76h-5.3994a2.668,2.668,0,0,1-2.76-2.76v-5.04q-6.9609,9-19.8008,9Q695.35,124.1006,688.9922,115.94Zm33.78-7.02a22.7967,22.7967,0,0,0,4.5-13.0195q.1186-1.32.12-4.5606,0-3.358-.12-4.68a20.0591,20.0591,0,0,0-4.5606-12.36q-4.32-5.2785-12.3594-5.28-8.5224,0-12.42,5.28-3.9009,5.2822-4.2607,13.92l-.1192,3.48q0,22.6809,16.8,22.68Q718.6319,114.38,722.7725,108.92Z" fill="#fff"/><path d="M769.99,115.1006v5.04a2.6694,2.6694,0,0,1-2.76,2.76h-5.52a2.67,2.67,0,0,1-2.76-2.76V40.46a2.67,2.67,0,0,1,2.76-2.76h5.88a2.49,2.49,0,0,1,1.92.78,2.8076,2.8076,0,0,1,.7207,1.98v27.6q7.078-8.7584,19.4394-8.76,12.4791,0,18.84,8.22t6.8408,20.58q.1172,1.3213.1191,3.6,0,2.2815-.1191,3.6-.4819,12.4819-6.8408,20.6406-6.3618,8.1621-18.84,8.16Q776.7105,124.1006,769.99,115.1006Zm29.58-6q3.8979-5.2792,4.26-13.9209.1187-1.1968.12-3.48,0-22.6794-16.8-22.68-8.0406,0-12.36,5.28a20.0521,20.0521,0,0,0-4.5595,12.36l-.12,4.68.12,4.5606a22.7809,22.7809,0,0,0,4.5,13.0195q4.14,5.4624,12.42,5.46Q795.6685,114.38,799.57,109.1006Z" fill="#fff"/><path d="M837.73,116.66q-7.2627-7.4385-7.74-19.8l-.12-5.1607.12-5.16q.4775-12.24,7.8-19.74,7.3184-7.4978,20.4-7.5,13.0781,0,20.3994,7.5,7.3184,7.5007,7.8,19.74.1187,1.3221.12,5.16,0,3.843-.12,5.1607-.48,12.36-7.7393,19.8-7.2627,7.4414-20.46,7.44Q844.9868,124.1006,837.73,116.66Zm32.3994-6.6q4.38-4.7988,4.74-13.8007.1187-1.1984.12-4.56,0-3.3582-.12-4.56-.36-9-4.74-13.8-4.3814-4.7981-11.9394-4.8-7.56,0-12,4.8-4.4415,4.8011-4.6807,13.8l-.12,4.56.12,4.56q.2388,9,4.6807,13.8007,4.437,4.8,12,4.8Q865.75,114.86,870.1289,110.0605Z" fill="#fff"/><path d="M897.73,122.18a2.34,2.34,0,0,1-.7793-1.8,3.5137,3.5137,0,0,1,.84-2.16l20.88-27.24-19.56-25.8a3.19,3.19,0,0,1-.84-2.16,2.46,2.46,0,0,1,2.52-2.52h6.12a3.7752,3.7752,0,0,1,3.1191,1.92l15.96,20.76L941.95,62.54a8.5517,8.5517,0,0,1,1.38-1.5,2.6554,2.6554,0,0,1,1.7392-.54H950.95a2.46,2.46,0,0,1,2.5195,2.52,3.199,3.199,0,0,1-.84,2.16l-19.8,26.04,20.88,27a3.5251,3.5251,0,0,1,.84,2.16,2.4614,2.4614,0,0,1-2.52,2.52H945.67a3.8167,3.8167,0,0,1-3.12-1.8l-16.8-21.96-17.04,21.96a8.2965,8.2965,0,0,1-1.38,1.3193,2.8873,2.8873,0,0,1-1.74.4805h-6.12A2.5,2.5,0,0,1,897.73,122.18Z" fill="#fff"/></svg>