<svg xmlns="http://www.w3.org/2000/svg" width="8193.1255" height="4191.9957" viewBox="0 0 8193.1255 4191.9957"><title>Untitled-4</title><path d="M5777.1966,376.0449a845.4223,845.4223,0,0,1,66.4393,114.7881c-63.0841,52.2931-84.4949,51.57-44.7294,126.7971,139.6276,251.5553,227.44,342.06,159.5634,448.6172-17.1641,26.5236-47.1114,45.4395-39.0989,54.08,221.8125,411.9793,199.2345,286.2269,200.855,341.1411-42.3326-15.1716-84.5266-38.5224-130.097-46.3239-29.6112-7.7884-67.8981-3.5028-85.526-19.4-43.9854-58.9-69.1494-128.9344-113.9141-187.3895-44.9728-55.0562-102.3265,16.5036-112.7068-9.2462-14.6286-19.0076-70.58-108.3118-56.719-112.1311,101.8972-75.6642,172.3246-48.4493,192.5056-81.9931,29.3789-35.03-20.0476-85.9565-31.5269-113.5-30.6342-53.1522-60.8146-105.251-91.52-158.3394-67.5375-113.8964-78.7439-135.3887-41.5488-204.8841-88.3666-7.7408-100.5825-44.4529-136.7438-105.0841-48.9334-82.2212-90.0723-165.4575-144.1411-245.2659-62.0008-59.9973-102.2285,42.6244-128.61,85.582-38.9665,67.4731-75.6107,133.0323-115.0962,199.8678-38.6245,63.6551-60.5186,58.9575-115.9657,64.9495,49.9048,88.45-1.2752,133.1664-37.3169,201.9942-92.7985,164.17-150.1116,243.69-134.4185,263.6593,18.1255,40.098,55.1093,36.1486,81.812,41.2667,25.7476,5.007,48.6535,13.905,71.7586,25.6331,60.6721,35.8724,57.61,19.8542,30.3323,76.4864-14.2481,26.7513-32.7179,56.1808-44.9986,69.7354-32.7341-5.98-73.3151-30.084-101.4359-3.0505-46.8235,59.3643-76.4971,125.6686-115.5878,189.1026-25.2811,43.6234-11.4426,92.6525-30.0681,138.712-21.3026-48.2323-.6184-115.2083-71.0873-123.6344-47.1083-4.1209-80.6428,11.827-84.66-1.0318-206.1386-351.4687-199.8086-320.8308-161.3443-411.6475-96.0142-1.2556-110.7544-63.1016-148.668-124.4711-104.0476-178.4785-128.4551-241.6024-162.5978-241.5436-54.6931-2.1915-72.2227,65.6435-98.0414,103.0907-33.6687,58.6463-66.8405,116.5546-100.5682,175.1726-62.727,125.1009-124.848,71.6712-128.7279,92.9511,42.2141,82.3386,5.8477,116.1124-27.8659,179.0482-41.7684,71.3844-79.2281,141.1987-122.7141,211.397-14.5575,21.662-41.4266,20.3353-64.87,27.2653-35.7465,8.268-70.4523,18.4845-104.45,28.4144-6.9918-.5012-5.6011-7.1948-8.0322-15.0448-26.2349-79.8052-75.1988-148.3693-119.2847-218.4236-40.58-54.7553-106.7024,10.852-114.1821-10.3992-22.6919-37.1715-51.2929-73.32-59.6264-111.6918,46.64-34.0531,98.9819-55.9646,157.8428-61.22,35.8693-8.5857,60.1569-40.0869,40.3977-72.9233-194.6811-355.2858-213.1466-323.54-167.1864-428.26-89.1943-6.026-93.0189-31.2951-130.9076-91.61-128.5917-217.6132-159.8847-325.2617-228.6627-258.2293C2649.104,450.1437,2658.9829,525.301,2549.5352,525.4559c-15.9514-3.6737,26.4354,65.0549,14.4426,78.1879-8.55,41.9564-32.0464,76.7779-53.3064,113.9183C2473.7225,781.578,2437.2445,844.5985,2400.37,908.61c-104.0618,156.5605,82.7363,94.21,143.3426,164.5884-91.4927,33.2218-68.3289,20.3486-96.4142,98.6475-3.39,6.1192-7.51,10.4462-13.7977,14.9046-39.2872,18.8372-56.13,56.52-76.2611,92.4974-119.0942,204.1559-40.4126,128.4495-242.4781,124.5813,46.9368-97.27,109.28-188.345,158.5887-284.9131,2.8881-8.27-12.9117-19.0231-17.6455-26.3434-49.7857-47.7919-51.7284-107.1493-34.823-164.12,50.4114-115.0055,125.4185-217.34,181.8857-329.5694,47.2065-97.0623-86.4084-73.8647-40.4907-134.6811,73.8512-134.3612,38.0057-71.8283,130.5195-61.3919,43.9533-8.6286,80.7442-105.71,95.279-123.1466C2688.5885,111.6749,2726.6408-9.14,2840.5672.2633c109.6442-8.1425,154.8691,34.284,202.097,116.8251,54.2823,89.8744,98.289,181.3012,157.5781,267.1809,34.1947,45.93,79.0768,2.5726,109.31-2.8786,13.9322,14.0608,43.4213,62.7248,59.1425,95.2969,2.7864,9.5259,10.8188,15.8822,6.81,22.34-21.6174,18.3114-50.5165,30.4191-60.3172,52.8694-16.66,41.1328,76.7776,162.0483,83.12,183.3062,52.8605,103.5329,171.0669,230.91,89.3033,340.2279-12.4261,18.92-38.8759,42.8243-33.2216,48.3653,10.79,26.362,55.8214,104.2592,73.4934,126.7964,147.6486-244.0366,137.8911-217.4377,50.22-284.3614,7.1616-24.6542,47.5874-94.6208,66.546-115.7838,22.86,1.313,59.2573,34.0689,88.3921,20.3992,52.5514-35.9782,106.6084-170.0195,128.7668-197.0263,87.7532-152.5556,107.8466-212.6464,265.37-207.9317,96.4748,8.0086,134.1378,100.772,171.1661,163.0227,50.8466,84.2147,122.87,230.5392,152.7258,239.22,21.4845,11.6643,51.1223-7.5563,77.8153-18.3079,15.52-12.2791,27.8481,25.2466,41.8563,43.2676,13.9974,23.3944,27.7012,49.593,34.6339,67.5359-22.3472,23.3858-73.4666,40.6342-62.12,80.7488,23.3276,69.201,70.5633,129.9561,104.82,194.6576,6.9885,9.1575,11.3888,29.9691,21.4168,7.7874,32.224-57.4012,74.5248-115.8424,69.5589-124.9186-78.9573-85.955-78.0015-148.6531-27.5364-240.664,186.4385-328.8761,206.4792-310.4412,113.6914-373.1166-17.3546-7.7712-7.7952-14.4543-3.2777-26.3257,20.605-35.2067,54.7762-104.0882,62.9343-98.0639,36.622,15.1141,74.3739,41.8767,103.5863,7.6237,105.9222-147.7471,172.3515-340.672,256.8878-373.9112,208.2558-63.0283,237.1287,62.46,300.7374,163.6847C5691,427.5505,5667.513,425.4148,5777.1966,376.0449Z" transform="translate(0.3386 2.5285)"/><path d="M6170.203,1592.9452c6.9337-159.6438-37.2167-104.7576,180.7121-112.996,6.5134.5837,6.6091,9.5076,5.9882,15.3727-.0446,66.37.9328,131.1114.6431,197.7071-2.0652,578.6681,14.1362,651.6128-47.2306,774.3588-120.1419,243.5733-471.4421,268.75-688.7991,131.5641-69.525-47.3445-57.9354-31.7147-34.7639-75.8276,100.2428-158.4036,34.4617-98.39,176.9244-42.023,119.0935,55.0124,279.9676,37.96,357.6261-48.7469,63.2088-70.1185,62.6955-183.84,55.78-272.1864-75.3592,80.1469-110.5055,116.4593-216.0976,135.7871-250.037,39.9582-438.5656-146.0844-450.5275-383.4858C5491.3428,1474.33,5958.8364,1341.2746,6170.203,1592.9452Zm-243.5518,25.5909c-308.87,8.6315-308.78,502.287-3.5144,512.0893C6259.2033,2131.6884,6248.8134,1620.9433,5926.6512,1618.5361Z" transform="translate(0.3386 2.5285)"/><path d="M2703.9514,2337.3229c-27.6525,3.46-156.29,3.0373-183.1823-.1774-13.1375-13.1316-2.0011-65.5256-5.51-93.3976.5842-355.5129-2.44-709.5326.568-1064.8868.6708-10.7137-1.9971-30.3642,5.1489-34.0324,31.5168-4.92,65.3482-.9951,96.8227-2.2287,125.3837-2.9841,77.7132-5.134,86.8008,107.4316.2967,184.48.4433,367.78.6771,551.837-10.6057,62.49,57.6106-37.7929,72.0422-44.5811,269.799-277.3492,252.6062-276.2029,281.7779-278.3212,256.5913,1.9315,233.9927-10.5275,200.07,28.6331-346.3161,367.1924-301.3788,299.5847-290.5271,327.9956,111.58,170.8826,224.7623,331.7072,337.1362,501.3065-258.9749,8.7638-224.6959.5008-237.0353-12.9873-76.0231-111.5378-151.0391-222.4167-226.8815-333.9-4.0194-2.2571-8.931-20.9682-16.1665-14.2624-20.69,16.9452-40.3427,38.3233-60.3751,57.5171-21.0121,22.9245-55.7847,50.71-58.7059,71.5057C2702.8189,2183.0354,2707.6607,2259.143,2703.9514,2337.3229Z" transform="translate(0.3386 2.5285)"/><path d="M795.8249,2336.7165c-225.3435,8.7444-180.2748.9013-186.6757-14.0927-6.3261-476.7464,40.2807-634.0159-136.8807-679.4446-137.6249-32.7316-273.8831,58.9948-279.538,200.391-5.03,164.0719,5.9315,335.0631-4.0048,493.3629-18.7934,3.309-81.92,4.1423-156.21,2.4174-9.4193-1.7978-27.1828,3.11-30.9016-3.4362-4.0233-29.9116-.3891-61.3528-1.5467-92.4537-.0021-356.4247.0022-708.37,0-1063.8434,1.6429-17.38-5.2285-32.5077,8.0433-30.5025,16.5418-1.8691,190.249-10.548,182.2654,4.8491,6.6841,153.3437-3.7925,304.22,3.9155,456.4571,134.6472-181.5835,332.3725-154.4013,426.9666-113.714,207.56,92.47,173.044,331.9744,175.9239,431.43C796.26,2064.9848,798.7779,2200.2325,795.8249,2336.7165Z" transform="translate(0.3386 2.5285)"/><path d="M5500.4231,1991.4371c-783.12,12.034-669.1452-27.2464-650.9462,59.6333,57.4839,125.344,221.2011,163.1795,344.8216,127.5288,137.7636-36.6445,126.8828-117.3935,162.6637-69.725,33.6146,37.8977,96.34,96.0629,83.2472,100.9069-74.7695,85.5036-183.8728,127.1337-294.5476,139.685-522.3386,44.6634-604.0894-524.4591-388.478-744.21,195.3074-212.5835,565.5949-169.3352,695.9405,56.1171C5511.4,1759.8063,5503.96,1880.9263,5500.4231,1991.4371Zm-185.3789-152.022c-6.8278-274.1816-397.1474-265.4931-470.0943-60.425-3.4585,13.1732-22.7745,68.5335.1041,62.21C5002.8349,1841.9858,5157.7868,1845.1651,5315.0442,1839.4151Z" transform="translate(0.3386 2.5285)"/><path d="M989.883,1709.642c-14.8608-19.3774-93.1259-117.0452-79.4536-120.9524,191.51-160.6506,522.3207-163.7755,642.2153-2.5226,67.3408,87.7968,54.5433,205.313,55.7893,310.1456-.0847,123.5106.5275,245.4993-.2935,368.9243-2.4121,24.64,3.6207,50.5206-4.23,72.4558-45.373,3.9063-94.6125.4806-141.0058,1.2792-27.2976.5917-25.4373,1.4049-25.6308-25.5663-2.4337-28.2306,5.3348-77.2657-4.9011-73.1517-155.8779,158.8168-404.8958,135.9792-514.31,21.0009-97.9636-97.1125-98.3456-286.057,4.54-368.2708,139.6279-105.2365,322.666-69.9156,484.2558-76.8028,24.3018,4.2883,12.7148-26.3263,14.7318-41.6471-1.41-37.1047-12.9872-76.1142-38.4026-102.1633C1270.85,1570.948,1093.1141,1644.7745,989.883,1709.642Zm430.23,241.2424c-114.9267-2.6793-254.7309-7.348-313.5461,16.88-98.2558,33.3659-93.6205,159.851-14.5775,198.9382,103.3168,52.9694,248.2379,24.2913,306.2485-65.1849C1426.365,2056.44,1423.0528,2002.8341,1420.1128,1950.8844Z" transform="translate(0.3386 2.5285)"/><path d="M7331.047,1910.1246c-22.1882,613.0812-927.1912,575.3532-906.0335-31.4442C6481.2576,1308.7237,7320.2787,1340.7662,7331.047,1910.1246Zm-187.37-1.5253c-5.6961-361.244-506.4689-362.6712-529.4574-22.8324C6590.328,2274.6614,7141.4662,2286.7371,7143.6773,1908.5993Z" transform="translate(0.3386 2.5285)"/><path d="M4127.145,1909.958c-21.0548,603.0817-895.1355,575.5211-905.908,1.6663C3234.7622,1318.0522,4113.3336,1320.3828,4127.145,1909.958Zm-451.7857-274.6966c-355.1024,1.1511-353.6415,541.07-5.778,550.2422C4033.3281,2182.6379,4026.8428,1636.3477,3675.3593,1635.2614Z" transform="translate(0.3386 2.5285)"/><path d="M8189.49,2338.5871c-238.7125-1.7374-178.5014,31.807-186.9952-116.4436-1.78-155.1932,5.3883-397.6474-7.0945-438.0421-35.0154-206.3018-322.8693-181.891-389.9445-20.067-16.4772,37.5722-20.8014,79.3838-20.0536,119.4992-1.7463,153.3866,2.7781,301.7728-1.93,454.3009-43.6352,2.9133-120.4842,2.6683-146.8656,1.6145-34.1678-3.538-36.2855,4.7019-36.1353-20.5192-2.1451-165.7571-.8877-326.4239-1.2266-491.05,2.9944-440.5919-22.9724-334.1832,81.6886-349.5651,133.2621,3.9936,99.7963-20.2975,104.348,78.6329,2.1218,16.4757-6.665,71.7328,9.1183,51.7272,127.0668-179.1917,336.5393-154.9329,432.8548-105.7055,199.0763,101.16,161.1172,335.4734,164.7964,445.8005C8189.6924,2079.0947,8196.5584,2209.3669,8189.49,2338.5871Z" transform="translate(0.3386 2.5285)"/><path d="M5151.4973,2413.31c60.1514,161.1143-75.022,210.5793-119.2892,246.299,17.9454,35.6413,33.9567,72.8627,69.6664,97.6153,18.6826,11.9059,39.2087,7.177,63.0012-4.5552,20.71-8.3319,39.2514-26.13,45.0473-17.2027,22.6363,35.8421,43.468,71.7426,63.5613,109.5073,40.7387,49.7177-101.8582,36.95-54.5864,138.2714,172.3731,324.7872,288.7508,414.3644,182.8459,553.8764-29.3866,38.8467-136.89,107.905-138.1448,88.3965-17.53-23.49-56.2358-89.7075-70.1006-119.655-17.2609-33.55,122.1755-35.6018,42.2255-148.3518-132.0521-231.6326-207.6034-340.6674-197.6915-383.2216.6939-16.5928,5.3422-31.8164,13.9026-47.6629,42.6455-62.9306-45.1,20.2868-112.7171-84.2809-61.3307-100.9-116.7195-203.2613-176.84-304.6967-40.6035-72.5729-76.3768-61.733-137.6871-34.6523-16.4109,11.6653-24.5646-29.6413-33.02-37.12-16.3248-32.0854-37.0913-57.8006-49.1021-91.3638,45.9855-46.4932,165.73-90.6758,217.2259-67.4695,138.1083,69.1258,132.8061,126.89,194.6249,219.0468,4.9375,6.5983,7.9284,7.48,14.9423,2.3171,85.8144-52.9138,4.3382-90.992,14.709-120.0675C5040.13,2411.48,5094.6244,2416.5958,5151.4973,2413.31Z" transform="translate(0.3386 2.5285)"/><path d="M2458.9668,1601.6049c-45.1911,61.25-104.5392,137.1728-112.0007,132.4819-49.0388-31.861-94.6531-68.572-151.3589-83.1461-235.6855-60.7905-431.3814,177.558-303.0131,397.4711,112.8607,172.1994,317.17,170.251,459.513,29.3885,13.1185-10.2,55.8633,51.7993,65.2032,56.4736,21.3634,25.1617,55.9475,56.59,45.7126,63.8436-24.3292,25.2343-52.835,46.893-81.4893,67.2959-378.6434,251.1156-829.3719-69.4516-691.7591-508.0763C1798.4446,1443.019,2240.3061,1371.4792,2458.9668,1601.6049Z" transform="translate(0.3386 2.5285)"/><path d="M2900.9773,2868.0386c8.0751-23.6578,58.1-110.3393,75.7692-131.5425,11.237-4.1791,44.7887,23.2584,59.9675,26.521,53.4067,23.5181,94.3423-61.4021,109.937-90.6989,15.55-17.52-27.4037-28.35-36.2292-38.4509-33.2524-20.3486-62.3153-44.7631-79.7-81.2256-32.4278-58.6091,1.7675-163.5062,15.2843-156.9974,112.4092,11.5575,160.45-2.3047,159.174,11.81-24.8615,61.7374-55.0476,76.7511,3.5969,118.8777,23.5934,19.3178,20.3548-.3689,32.6271-16.37,86.7175-156.9451,53.0555-83.6192,108.7986-141.3838,39.3777-89.5573,31.8088,14.6477,269.7823,44.1163-2.8313,11.109-44.4915,94.6229-53.9692,93.7671-117.6338-54.1723-123.8094,2.8319-175.2644,86.0255-160.4227,273.1383-157.8235,316.0155-270.6459,310.506,52.8534,97.034,10.6781,137.2182-32.4756,214.8474-50.223,90.8657-173.35,287.9176-166.0864,302.1723-.663,29.55,31.6887,46.2493,52.6948,63.5494,5.4788,6.43,18.6672,7.4217,19.1956,15.9555-8.2924,23.203-22.6807,44.2575-34.4751,66.2334-50.6276,82.6248-31.7655,71.9832-81.5605,47.511-104.1871-57.0456-159.1393-134.0072-124.2172-245.2314,8.3212-26.0377,19.0063-46.3908,32.89-70.0259C3009.0867,2905.5693,3016.9521,2953.5225,2900.9773,2868.0386Z" transform="translate(0.3386 2.5285)"/><path d="M4197.4424,1479.887c237.8262,1.4023,174.6823-33.9727,183.501,123.8183,1.4893,5.4473-3.7641,29.0586,5.2119,24.2541,65.0661-88.54,152.5188-160.9212,264.4813-159.2128,13.3932-1.1989,3.1583,77.9015,6.2457,81.713-2.8108,51.355,8.4455,105.5913-9.983,104.0227-131.85,2.9161-207.21,62.2729-245.8175,176.0034-21.9591,64.8172-20.8556,132.91-20.148,200.6818.0947,83.8255.01,165.9423-.057,249.4513-2.4679,61.19,8.6732,57.9168-23.9275,58.2051-50.3916.1579-97.1051.0753-146.7965.04-24.3117,7.6062-10-59.1252-13.7324-69.967C4196.51,2004.9724,4194.3682,1743.5869,4197.4424,1479.887Z" transform="translate(0.3386 2.5285)"/><path d="M1743.6109,2270.2143c131.7573,106.9089,139.9682,95.4687,243.8378,134.5642-25.4929,29.3608-62.0935,24.4521-98.0185,29.1057,59.7906,86.6576,7.8441,142.251-29.5639,211.5086-51.5475,90.78-104.4911,178.2745-154.6629,269.5234-36.2467,56.687,17.51,80.6887,53.8777,107.691,17.6081,8.0071-12.8306,38.0219-14.5011,47.7016-18.5707,31.2946-35.06,62.6926-56.7351,93.2447-70.9712-34.9657-148.4566-82.3284-169.1142-160.7021-22.85-78.9144,26.9495-157.2619,66.2175-223.2687,39.1312-67.7851,77.8447-134.8759,116.88-202.7124,72.6165-120.8775,49.5925-120.7735-27.423-177.4317C1673.8423,2371.805,1740.8334,2279.1817,1743.6109,2270.2143Z" transform="translate(0.3386 2.5285)"/><path d="M6442.9306,2262.9206c14.69,17.3817,61.6786,98.0135,77.4275,132.918-97.6707,70.35-88.1228,76.7029-33.0949,175.2468,145.2515,265.8241,289.665,400.0906,103.4618,542.0557-36.2519,23.6462-83.6376,55.5817-89.27,46.7586-20.8087-32.5851-39.8715-64.9882-58.9371-99.4376-4.6378-13.5332-25.1568-30.7872-9.783-37.2263,106.1344-66.4734,63.0732-88.0352,19.5771-170.6681-264.3659-459.41-97.1317-102.4082-34.5069-556.6445C6417.5027,2278.6262,6426.9562,2266.7175,6442.9306,2262.9206Z" transform="translate(0.3386 2.5285)"/><path d="M4334.628,3723.6928c-47.5691-41.0848-42.9235-54.1865-43.5131-105.11-1.2677-122.2985,3.83-194.1285-3.7534-219.7826-14.2391-40.3764-68.4943-24.0945-65.2568-44.4594-.2289-39.7272-2.97-83.2426,5.5579-86.4564,77.76-12.7652,147.6724,12.2763,167.8434,81.21,18.7942,79.874-17.014,311.6409,28.4762,317.7861,21.3263,9.2931,54.3362,2.2691,51.09,18.7832,2.9012,23.12,2.5429,63.3639-1.0022,83.8818-39.0713,12.1773-65.0472,2.05-71.2094,43.51-10.9579,139.3857,14.2467,278.5635-24.0288,325.5658-30.5757,48.9067-102.426,55.5794-155.5878,48.4375-19.4589-131.9212,11.5881-89.0182,51.3454-110.8073,15.3034-7.94,15.2136-22.3479,15.24-39.1249C4297.7092,3767.4874,4271.7908,3775.6324,4334.628,3723.6928Z" transform="translate(0.3386 2.5285)"/><path d="M3717.31,3770.4533c-.9525-30.9777-6.7253-66.6,2.3292-93.3551,70.0513-14.0064,66.7987-13.8492,72.1561-77.58,1.8612-133.94-8.2105-241.1393,13.6845-274.3524,27.6539-54.489,102.3925-67.8666,159.8544-57.4374,9.4348,8.3466,2.34,33.08,4.73,46.7245-.0912,15.6358-.6776,30.3574-1.4474,46.5675-23.2919,8.6744-59.3809,12.17-65.6844,40.0451-5.05,56.7821-2.9692,112.1378-3.052,168.6621-.972,36.0671,4.12,69.3926-3.3016,105.768-29.9479,66.5835-62.3328,21.6445-8.3125,78.283,10.2844,15.3736,12.2676,31.494,12.55,50.8831,1.9718,294.2741-15.0155,264.9227,52.7478,281.125,7.046,2.5206,16.228.2367,16.27,7.0765,4.34,20.4826,4.5938,62.289,1.0293,86.1616,1.9117,14.8444-19.8321,8.0469-33.0966,10.1212-201.3473,3.6809-134.309-187.604-145.7519-315.084C3792.0034,3771.91,3782.6062,3782.3073,3717.31,3770.4533Z" transform="translate(0.3386 2.5285)"/></svg>