<svg xmlns="http://www.w3.org/2000/svg" width="408.9" height="423" viewBox="0 0 408.9 423"><defs><style>.a{fill:#fff;}.b{fill:#aaa4ab;}.c{fill:#220f25;}.d{fill:#ee495c;}</style></defs><title>civic-master-builders</title><polyline class="a" points="38.081 0 381.081 0 372.081 347 27.081 356 27.081 0"/><polyline class="a" points="401.081 103 396.081 244 4.081 249 4.081 103"/><polygon class="b" points="42.525 356 204.081 415 371.081 356 42.525 356"/><path class="c" d="M167.019,168.723h19.5v80.6h-19.5Z" transform="translate(-37.919 -31)"/><path class="c" d="M205.519,168.723h20.4l12.9,49.1,12.6-49.1h20.5l-24.7,80.6h-17.2Z" transform="translate(-37.919 -31)"/><path class="c" d="M294.019,168.723h19.5v80.6h-19.5Z" transform="translate(-37.919 -31)"/><path class="c" d="M106.619,224.023a21.3548,21.3548,0,0,1,30.2-30.2l14.1-14.1a41.3,41.3,0,1,0,0,58.4l-14.1-14.1A21.4266,21.4266,0,0,1,106.619,224.023Z" transform="translate(-37.919 -31)"/><path class="d" d="M372.519,167.623a41.0806,41.0806,0,0,0-29.2,12.1l14.1,14.1a21.4879,21.4879,0,0,1,30.2,0l14.1-14.1A41.081,41.081,0,0,0,372.519,167.623Z" transform="translate(-37.919 -31)"/><path class="c" d="M372.519,250.223a40.8584,40.8584,0,0,1-29.2-12.1,41.3435,41.3435,0,0,1,0-58.4l14.1,14.1a21.3546,21.3546,0,0,0,30.2,30.2l14.1,14.1a40.8588,40.8588,0,0,1-29.2,12.1Z" transform="translate(-37.919 -31)"/><polygon class="c" points="38.081 0 40.081 109 27.081 109 27.081 0 38.081 0"/><polygon class="c" points="27.081 0 38.076 8.614 370.086 8.614 370.086 100.386 370.086 100.386 381.081 109 381.081 109 381.081 0 27.081 0"/><polygon class="c" points="396.2 244.323 347.1 244.323 328.6 262.923 310 244.323 274.9 244.323 12.7 244.323 12.7 109.023 12.7 109.023 12.7 109.023 0 96.323 0 96.323 0 96.323 0 257.023 275.3 257.023 304.8 257.023 328.6 280.823 352.4 257.023 408.9 257.023 396.2 244.323"/><polygon class="c" points="372.081 347 329.123 347.4 296.839 347.4 266.295 347.4 38.132 347.4 38.132 252.873 38.132 252.873 38.132 245 27.081 245 27.081 244 27.081 244 27.081 356.273 266.643 356.273 292.314 356.273 333.734 356.273 382.081 356 372.081 347"/><polygon class="c" points="382.081 245 382.081 356 372.081 347 372.081 245 382.081 245"/><polygon class="d" points="0 96.323 6.119 102.442 12.7 109.023 396.2 109.023 396.2 244.323 396.2 244.323 408.9 257.023 408.9 257.023 408.9 96.323 0 96.323"/><path class="d" d="M56,6" transform="translate(-37.919 -31)"/><path class="c" d="M172.7861,108.7764l-2.7-23.5191-9,18.7793h-7.2l-8.9995-18.7192-2.76,23.459h-9.6592l5.1-41.3384h7.8594l12.06,25.8589,11.88-25.8589h8.0391l5.04,41.3384Z" transform="translate(-37.919 -31)"/><path class="c" d="M212.2061,99.1768h-14.52l-3.0595,9.6h-10.08l15.3-41.3384h10.26l15.2393,41.3384H215.3262Zm-2.64-8.16-4.68-14.46-4.62,14.46Z" transform="translate(-37.919 -31)"/><path class="c" d="M226.8477,96.5371h9.42c0,2.64,2.64,4.68,5.8789,4.68,3.06,0,5.4-1.38,5.4-4.08,0-1.62-.9-3.12-4.5606-4.32l-4.9189-1.5c-9.12-2.46-10.86-8.04-10.86-11.94,0-7.4394,6.36-12.4795,14.58-12.4795,7.92,0,13.98,4.74,13.98,12.78h-9.42c0-2.46-1.5-4.56-4.74-4.56-2.9394,0-4.8593,1.8-4.8593,4.08,0,.84.24,2.7,4.08,3.78l4.3194,1.32c5.88,1.8,11.88,4.86,11.88,12.3593,0,8.88-7.68,12.66-15.2393,12.66C232.9668,109.3164,226.8477,104.1567,226.8477,96.5371Z" transform="translate(-37.919 -31)"/><path class="c" d="M290.9873,75.6577h-10.92v33.1187h-9.42V75.6577h-10.919v-8.22h31.2588Z" transform="translate(-37.919 -31)"/><path class="c" d="M323.9863,100.5566v8.22H296.9277V67.438h26.5186v8.22h-17.1v8.5195h15v8.46h-15v7.9194Z" transform="translate(-37.919 -31)"/><path class="c" d="M342.9463,94.2568h-1.86v14.52H331.667V67.438h16.9189c9.6,0,13.919,6.84,13.919,13.68,0,5.82-3.06,10.9194-9.7188,12.5991l10.6787,15.06H352.4854Zm-1.86-7.4394h6c4.14,0,5.94-2.7,5.94-5.46a5.5,5.5,0,0,0-5.6992-5.7h-6.24Z" transform="translate(-37.919 -31)"/><path class="c" d="M159.8862,341.8965c0,5.6406-3.66,11.88-13.3794,11.88H128.5674V312.4375h16.7392c7.56,0,12.42,4.56,12.42,10.68,0,2.8808-1.08,7.2-5.82,8.58C157.3662,332.4766,159.8862,337.1572,159.8862,341.8965Zm-21.8989-21.2383v7.9189h6.6c2.22,0,3.72-1.4394,3.72-3.96,0-2.1-1.08-3.959-3.66-3.959Zm12.4194,20.2793c0-2.16-1.5-4.6211-5.04-4.6211h-7.3794v9.24h7.3794C148.7266,345.5566,150.4067,343.2773,150.4067,340.9375Z" transform="translate(-37.919 -31)"/><path class="c" d="M166.6074,338.8369V312.4375h9.419v25.68c0,5.22,3.3,7.26,6.72,7.26,3.36,0,6.66-2.04,6.66-7.26v-25.68h9.419v26.3994c0,9.54-7.56,15.4795-16.0791,15.4795S166.6074,348.377,166.6074,338.8369Z" transform="translate(-37.919 -31)"/><path class="c" d="M207.8877,312.4375h9.4189v41.3389h-9.4189Z" transform="translate(-37.919 -31)"/><path class="c" d="M226.8467,312.4375h9.4189v33.1191h15.18v8.22H226.8467Z" transform="translate(-37.919 -31)"/><path class="c" d="M257.3867,312.4375h16.3194c11.9394,0,18.8388,9,18.8388,20.76,0,11.6992-6.8994,20.5791-18.8388,20.5791H257.3867Zm16.3194,33.1191c6.18,0,9.3593-5.9394,9.3593-12.3593,0-6.4805-3.18-12.5391-9.3593-12.5391h-6.9v24.8984Z" transform="translate(-37.919 -31)"/><path class="c" d="M326.8643,345.5566v8.22H299.8057V312.4375h26.5185v8.2207h-17.1v8.5195h15v8.459h-15v7.92Z" transform="translate(-37.919 -31)"/><path class="c" d="M345.8242,339.2568h-1.86v14.52h-9.419V312.4375h16.919c9.6,0,13.9189,6.84,13.9189,13.68,0,5.82-3.06,10.92-9.7187,12.6l10.6787,15.06h-10.98Zm-1.86-7.4394h6c4.14,0,5.9394-2.7,5.9394-5.46a5.4992,5.4992,0,0,0-5.6992-5.6992h-6.24Z" transform="translate(-37.919 -31)"/><polygon class="c" points="204.081 423 382.081 356 351.114 356.273 205.081 412 57.081 356 27.081 356 204.081 423"/><path class="a" d="M577,350" transform="translate(-37.919 -31)"/></svg>