<?xml version="1.0" encoding="utf-8"?>
<!-- Generator: Adobe Illustrator 19.2.1, SVG Export Plug-In . SVG Version: 6.00 Build 0)  -->
<svg version="1.1" xmlns="http://www.w3.org/2000/svg" xmlns:xlink="http://www.w3.org/1999/xlink" x="0px" y="0px"
	 viewBox="0 0 251.9 140.3" style="enable-background:new 0 0 251.9 140.3;" xml:space="preserve">
<style type="text/css">
	.st0{fill:#220F25;}
	.st1{fill:#EE495C;}
	.st2{fill:#939598;}
	.st3{fill:#FFFFFF;}
	.st4{clip-path:url(#SVGID_2_);}
	.st5{clip-path:url(#SVGID_4_);fill:#ABA4AB;}
	.st6{clip-path:url(#SVGID_6_);}
	.st7{clip-path:url(#SVGID_8_);fill:#ABA4AB;}
	.st8{clip-path:url(#SVGID_10_);}
	.st9{clip-path:url(#SVGID_12_);fill:#ABA4AB;}
	.st10{clip-path:url(#SVGID_14_);}
	.st11{clip-path:url(#SVGID_16_);fill:#ABA4AB;}
	.st12{clip-path:url(#SVGID_18_);}
	.st13{clip-path:url(#SVGID_20_);fill:#ABA4AB;}
	.st14{fill:#F3F2F3;}
	.st15{clip-path:url(#SVGID_22_);}
	.st16{clip-path:url(#SVGID_24_);fill:#FFFFFF;}
	.st17{clip-path:url(#SVGID_26_);}
	.st18{clip-path:url(#SVGID_28_);fill:#FFFFFF;}
	.st19{clip-path:url(#SVGID_30_);}
	.st20{clip-path:url(#SVGID_32_);fill:#FFFFFF;}
	.st21{clip-path:url(#SVGID_34_);}
	.st22{clip-path:url(#SVGID_36_);fill:#FFFFFF;}
	.st23{clip-path:url(#SVGID_38_);}
	.st24{clip-path:url(#SVGID_40_);fill:#FFFFFF;}
	.st25{clip-path:url(#SVGID_42_);}
	.st26{clip-path:url(#SVGID_44_);fill:#F3F2F3;}
	.st27{clip-path:url(#SVGID_46_);}
	.st28{clip-path:url(#SVGID_48_);fill:#F3F2F3;}
	.st29{clip-path:url(#SVGID_50_);}
	.st30{clip-path:url(#SVGID_52_);fill:#F3F2F3;}
	.st31{clip-path:url(#SVGID_54_);}
	.st32{clip-path:url(#SVGID_56_);fill:#F3F2F3;}
	.st33{clip-path:url(#SVGID_58_);}
	.st34{clip-path:url(#SVGID_60_);fill:#F3F2F3;}
	.st35{display:none;}
	.st36{display:inline;fill:none;stroke:#E6E7E8;stroke-miterlimit:10;}
</style>
<g id="Layer_1">
	<g>
		<path class="st0" d="M78.9,22.6H91v49.8H78.9V22.6z"/>
		<path class="st0" d="M102.7,22.6h12.6l7.9,30.3l7.8-30.3h12.7l-15.2,49.8h-10.6L102.7,22.6z"/>
		<path class="st0" d="M157.4,22.6h12.1v49.8h-12.1V22.6z"/>
		<path class="st0" d="M41.7,56.7c-5.1-5.1-5.1-13.5,0-18.6c2.5-2.5,5.8-3.9,9.3-3.9s6.8,1.4,9.3,3.9l8.7-8.7
			c-4.8-4.8-11.2-7.5-18-7.5c-6.8,0-13.2,2.7-18,7.5c-9.9,9.9-9.9,26.1,0,36.1c5,5,11.5,7.5,18,7.5s13.1-2.5,18-7.5l-8.7-8.7
			C55.2,61.9,46.8,61.9,41.7,56.7z"/>
	</g>
	<polygon class="st0" points="244.4,87.4 215.4,87.4 204.4,98.3 193.5,87.4 7.5,87.4 7.5,7.5 0,0 0,94.8 190.4,94.8 204.4,108.9 
		218.5,94.8 251.9,94.8 	"/>
	<polygon class="st1" points="0,0 0,0 7.5,7.5 7.5,7.5 244.4,7.5 244.4,87.4 244.4,87.4 251.9,94.8 251.9,94.8 251.9,0 	"/>
	<g>
		<path class="st0" d="M207.4,72.9c-6.8,0-13.2-2.7-18-7.5c-9.9-9.9-9.9-26.1,0-36.1l8.5,8.5c-5.3,5.3-5.3,13.8,0,19.1
			c2.6,2.6,5.9,4,9.5,4c3.6,0,7-1.4,9.5-4l8.5,8.5C220.7,70.3,214.3,72.9,207.4,72.9z"/>
	</g>
	<g>
		<path class="st1" d="M197.9,37.9l-8.5-8.5c4.8-4.8,11.2-7.5,18-7.5c6.8,0,13.2,2.7,18,7.5l-8.5,8.5c-2.6-2.6-5.9-4-9.5-4
			S200.4,35.3,197.9,37.9z"/>
	</g>
	<g>
		<defs>
			<path id="SVGID_1_" d="M112.8,133.6l-1.5-3c-0.1-0.2-0.1-0.3,0.1-0.4l0.6-0.3l-0.7-1.4l-0.6,0.3c-0.2,0.1-0.3,0-0.4-0.1l-0.7-1.4
				l0.8-0.4c0.3-0.2,0.5-0.4,0.6-0.7c0.1-0.3,0.1-0.6-0.1-0.9l-1.5-3c-0.1-0.2-0.1-0.3,0.1-0.4l0.6-0.3l-0.7-1.4l-0.6,0.3
				c-0.2,0.1-0.3,0-0.4-0.1l-1.5-2.8c0.2-0.1,0.3-0.3,0.4-0.5c0.1-0.3,0.1-0.6-0.1-0.9l-1.5-3c-0.1-0.2-0.1-0.3,0.1-0.4l0.6-0.3
				l-0.7-1.4l-0.6,0.3c-0.2,0.1-0.3,0-0.4-0.1l-1.5-3c-0.1-0.1-0.1-0.2-0.2-0.3c-0.5-0.8-1.8-0.8-2.3,0.1c-0.1,0.3-0.2,0.5-0.2,0.5
				l-1.4,2.7c-0.1,0.2-0.2,0.2-0.4,0.1l-0.6-0.3l-0.7,1.4l0.6,0.3c0.2,0.1,0.2,0.2,0.1,0.4l-1.5,3c-0.2,0.3-0.2,0.6-0.1,0.9
				c0.1,0.2,0.2,0.4,0.4,0.5l-1.5,2.8c-0.1,0.2-0.2,0.2-0.4,0.1l-0.6-0.3l-0.7,1.4l0.6,0.3c0.2,0.1,0.2,0.2,0.1,0.4l-1.5,3
				c-0.2,0.3-0.2,0.6-0.1,0.9c0.1,0.3,0.3,0.5,0.6,0.7l0.8,0.4l-0.7,1.4c-0.1,0.2-0.2,0.2-0.4,0.1l-0.6-0.3l-0.7,1.4l0.6,0.3
				c0.2,0.1,0.2,0.2,0.1,0.4l-1.5,3c-0.2,0.3-0.2,0.6-0.1,0.9c0.1,0.3,0.3,0.5,0.6,0.7l1.3,0.7l0.6-1.2l-0.8-0.4
				c-0.2-0.1-0.2-0.2-0.1-0.4l1.4-2.7c0.1-0.2,0.1-0.4,0.1-0.7c-0.1-0.2-0.2-0.4-0.4-0.5l-0.1,0l0.1-0.2l0.1,0
				c0.2,0.1,0.5,0.1,0.7,0.1c0.2-0.1,0.4-0.2,0.5-0.4l1.4-2.7c0.1-0.2,0.2-0.3,0.4-0.2l0.8,0.4l0.6-1.2l-1.3-0.7
				c-0.3-0.2-0.6-0.2-0.9-0.1c-0.3,0.1-0.5,0.3-0.7,0.6l-0.2,0.4l-0.3-0.2c-0.2-0.1-0.2-0.2-0.1-0.4l1.4-2.7
				c0.1-0.2,0.1-0.4,0.1-0.7c-0.1-0.2-0.2-0.4-0.4-0.5l-0.1,0l0.1-0.2l0.1,0c0.2,0.1,0.5,0.1,0.7,0.1c0.2-0.1,0.4-0.2,0.5-0.4
				l1.4-2.7c0.1-0.2,0.2-0.3,0.4-0.2l0.8,0.4l0.6-1.2l-0.8-0.4l0,0l-0.8-0.4c-0.2-0.1-0.2-0.2-0.1-0.4l1.4-2.7
				c0.1-0.2,0.1-0.4,0.1-0.7c-0.1-0.2-0.2-0.4-0.4-0.5l-0.1,0l0.1-0.2l0.1,0c0.2,0.1,0.5,0.1,0.7,0.1c0.2-0.1,0.4-0.2,0.5-0.4
				l1.4-2.7c0-0.1,0.1-0.1,0.2-0.2c0,0,0,0,0.1,0c0,0,0,0,0,0c0,0,0,0,0,0c0,0,0,0,0.1,0c0.1,0,0.1,0.1,0.2,0.2l1.4,2.7
				c0.1,0.2,0.3,0.4,0.5,0.4c0.2,0.1,0.4,0,0.7-0.1l0.1,0l0.1,0.2l-0.1,0c-0.2,0.1-0.4,0.3-0.4,0.5c-0.1,0.2,0,0.4,0.1,0.7l1.4,2.7
				c0.1,0.2,0.1,0.3-0.1,0.4l-0.8,0.4l0,0l-0.8,0.4l0.6,1.2l0.8-0.4c0.2-0.1,0.3,0,0.4,0.2l1.4,2.7c0.1,0.2,0.3,0.4,0.5,0.4
				c0.2,0.1,0.4,0,0.7-0.1l0.1,0l0.1,0.2l-0.1,0c-0.2,0.1-0.4,0.3-0.4,0.5c-0.1,0.2,0,0.4,0.1,0.7l1.4,2.7c0.1,0.2,0.1,0.3-0.1,0.4
				l-0.3,0.2l-0.2-0.4c-0.2-0.3-0.4-0.5-0.7-0.6c-0.3-0.1-0.6-0.1-0.9,0.1l-1.3,0.7l0.6,1.2l0.8-0.4c0.2-0.1,0.3,0,0.4,0.2l1.4,2.7
				c0.1,0.2,0.3,0.4,0.5,0.4c0.2,0.1,0.4,0,0.7-0.1l0.1,0l0.1,0.2l-0.1,0c-0.2,0.1-0.4,0.3-0.4,0.5c-0.1,0.2,0,0.4,0.1,0.7l1.4,2.7
				c0.1,0.2,0.1,0.3-0.1,0.4l-0.8,0.4l0.6,1.2l1.3-0.7c0.3-0.2,0.5-0.4,0.6-0.7C112.9,134.2,112.9,133.9,112.8,133.6"/>
		</defs>
		<clipPath id="SVGID_2_">
			<use xlink:href="#SVGID_1_"  style="overflow:visible;"/>
		</clipPath>
		<g class="st4">
			<defs>
				<rect id="SVGID_3_" x="26.3" y="106.2" width="205.9" height="34.3"/>
			</defs>
			<clipPath id="SVGID_4_">
				<use xlink:href="#SVGID_3_"  style="overflow:visible;"/>
			</clipPath>
			<rect x="87.3" y="104" class="st5" width="28.7" height="34.9"/>
		</g>
	</g>
	<g>
		<defs>
			<path id="SVGID_5_" d="M104.4,135.3v-2.5c0-0.2-0.1-0.4-0.2-0.6c-0.2-0.2-0.4-0.2-0.6-0.2h-1.1v1h0.7c0.1,0,0.2,0.1,0.2,0.2v2.2
				c0,0.2,0.1,0.3,0.2,0.5c0.1,0.1,0.3,0.2,0.5,0.2h0v0.1h0c-0.2,0-0.3,0.1-0.5,0.2c-0.1,0.1-0.2,0.3-0.2,0.5v2.2
				c0,0.2-0.1,0.2-0.2,0.2h-0.7v1h1.1c0.2,0,0.4-0.1,0.6-0.2c0.2-0.2,0.2-0.4,0.2-0.6V137c0-0.2,0.1-0.2,0.2-0.2h0.5v-1.2h-0.5
				C104.5,135.5,104.4,135.5,104.4,135.3"/>
		</defs>
		<clipPath id="SVGID_6_">
			<use xlink:href="#SVGID_5_"  style="overflow:visible;"/>
		</clipPath>
		<g class="st6">
			<defs>
				<rect id="SVGID_7_" x="26.3" y="106.2" width="205.9" height="34.3"/>
			</defs>
			<clipPath id="SVGID_8_">
				<use xlink:href="#SVGID_7_"  style="overflow:visible;"/>
			</clipPath>
			<rect x="99.4" y="128.9" class="st7" width="8.9" height="14.5"/>
		</g>
	</g>
	<g>
		<defs>
			<path id="SVGID_9_" d="M99.1,132.2c-0.2,0.2-0.2,0.4-0.2,0.6v2.5c0,0.2-0.1,0.2-0.2,0.2h-0.5v1.2h0.5c0.1,0,0.2,0.1,0.2,0.2v2.5
				c0,0.2,0.1,0.4,0.2,0.6c0.2,0.2,0.4,0.2,0.6,0.2h1.1v-1h-0.7c-0.1,0-0.2-0.1-0.2-0.2v-2.2c0-0.2-0.1-0.3-0.2-0.5
				c-0.1-0.1-0.3-0.2-0.5-0.2h0v-0.1h0c0.2,0,0.3-0.1,0.5-0.2c0.1-0.1,0.2-0.3,0.2-0.5v-2.2c0-0.2,0.1-0.2,0.2-0.2h0.7v-1h-1.1
				C99.5,132,99.3,132.1,99.1,132.2"/>
		</defs>
		<clipPath id="SVGID_10_">
			<use xlink:href="#SVGID_9_"  style="overflow:visible;"/>
		</clipPath>
		<g class="st8">
			<defs>
				<rect id="SVGID_11_" x="26.3" y="106.2" width="205.9" height="34.3"/>
			</defs>
			<clipPath id="SVGID_12_">
				<use xlink:href="#SVGID_11_"  style="overflow:visible;"/>
			</clipPath>
			<rect x="95" y="128.9" class="st9" width="8.9" height="14.5"/>
		</g>
	</g>
	<g>
		<defs>
			<path id="SVGID_13_" d="M217.4,123.2c0-1,0.8-1.4,1.4-1.4c0.6,0,1.3,0.3,1.3,1.4v4.2h2.8v-4.3c0-2.5-1.1-4-3.3-4
				c-0.7,0-2,0.5-2.3,1.5v-1.3h-2.8v8.1h2.8V123.2z M207,123.4c0,0.9,0.8,1.7,1.7,1.7c0.9,0,1.7-0.8,1.7-1.7s-0.8-1.7-1.7-1.7
				C207.7,121.7,207,122.4,207,123.4z M208.6,127.6c-2.3,0-4.3-1.7-4.3-4.2c0-2.6,2-4.3,4.3-4.3c2.3,0,4.4,1.7,4.4,4.3
				C213,125.9,211,127.6,208.6,127.6z M193.9,128.9l2.3-0.9c0.3,0.6,0.9,1.1,1.8,1.1c1.4,0,2.1-0.9,2.1-2.6
				c-0.4,0.7-1.3,1.2-2.5,1.2c-2,0-4-1.6-4-4.2s2-4.3,4-4.3c0.8,0,1.7,0.4,2.3,1.1v-0.9h2.8v7.1c0,3.4-1.7,5.2-4.7,5.2
				C196.1,131.6,194.5,130.5,193.9,128.9z M196.5,123.4c0,0.9,0.8,1.7,1.7,1.7s1.7-0.8,1.7-1.7s-0.8-1.7-1.7-1.7
				S196.5,122.5,196.5,123.4z M186.8,122.6h3.3c-0.3-1-1.2-1.2-1.6-1.2C188,121.4,187,121.6,186.8,122.6z M192.7,123.3
				c0,0.2,0,0.7-0.1,0.9h-5.8c0.1,0.8,1,1.2,1.9,1.2c0.5,0,1.1-0.1,1.6-0.7c0.3,0.3,1.5,1,1.9,1.4c-0.9,1.1-2.4,1.5-3.7,1.5
				c-2.3,0-4.3-1.7-4.3-4.3s2-4.2,4.3-4.2C190.8,119.1,192.7,120.7,192.7,123.3z M179.8,124.8c0-2.4,0.6-3,1.7-3
				c0.2,0,0.7,0,1.3,0.2l0.7-2.6c-0.5-0.2-0.9-0.2-1.2-0.2c-1,0-2.1,0.7-2.6,2.2v-2h-2.6v8.1h2.8V124.8z M166,121.4
				c0,1.8,1.4,3.2,3.2,3.2c1.8,0,3.2-1.4,3.2-3.2s-1.4-3.3-3.2-3.3C167.4,118.2,166,119.6,166,121.4z M163.1,121.4
				c0-3.4,2.7-6.2,6.1-6.2c3.4,0,6.2,2.8,6.2,6.2c0,3.4-2.7,6.2-6.2,6.2C165.8,127.6,163.1,124.8,163.1,121.4z M155,127.5h3.3
				l-3.7-4.5l3-3.6h-3.4l-1.6,2V115h-2.8v12.4h2.8v-2.9L155,127.5z M146,124.3c-0.3,0.5-0.8,0.8-1.4,0.8c-0.9,0-1.7-0.8-1.7-1.7
				s0.8-1.7,1.7-1.7c0.6,0,1.1,0.3,1.4,0.8l2.3-1.4c-0.8-1.2-2-2-3.6-2c-2.4,0-4.5,1.7-4.5,4.3c0,2.6,2.1,4.2,4.5,4.2
				c1.6,0,2.8-0.8,3.6-2L146,124.3z M132.4,123.4c0,0.9,0.8,1.7,1.7,1.7c0.9,0,1.7-0.8,1.7-1.7s-0.8-1.7-1.7-1.7
				C133.2,121.7,132.4,122.5,132.4,123.4z M135.8,120.2v-0.9h2.8v8.1h-2.8v-0.9c-0.5,0.7-1.4,1.1-2.3,1.1c-2,0-4-1.6-4-4.2
				s2-4.3,4-4.3C134.4,119.1,135.3,119.5,135.8,120.2z M124.7,120.2H121v-4.8h-2.9v12h2.9v-4.7h3.7v4.7h3v-12h-3V120.2z"/>
		</defs>
		<clipPath id="SVGID_14_">
			<use xlink:href="#SVGID_13_"  style="overflow:visible;"/>
		</clipPath>
		<g class="st10">
			<defs>
				<rect id="SVGID_15_" x="26.3" y="106.2" width="205.9" height="34.3"/>
			</defs>
			<clipPath id="SVGID_16_">
				<use xlink:href="#SVGID_15_"  style="overflow:visible;"/>
			</clipPath>
			<rect x="115" y="111.9" class="st11" width="111.1" height="22.8"/>
		</g>
	</g>
	<g>
		<defs>
			<path id="SVGID_17_" d="M86.7,119.3h-2.3l-2,5.1l-2-5.1h-2.3l3.2,7.5l-1.9,4.6h2.3L86.7,119.3z M73.2,122.1h-2.7v3.3h2.7
				c1,0,1.5-0.8,1.5-1.7C74.8,123,74.3,122.1,73.2,122.1z M70.6,120.3h2.3c0.8,0,1.3-0.6,1.3-1.5c0-0.9-0.5-1.4-1.4-1.4h-2.3V120.3z
				 M76.5,118.7c0,0.9-0.4,1.9-1.6,2.3c1.5,0.4,2.2,1.8,2.2,2.8c0,2-1.4,3.6-3.7,3.6h-5.1v-12H73C75.2,115.4,76.5,116.7,76.5,118.7z
				 M60.4,116.2h-2.1v3.1h-1.5v1.7h1.5v6.4h2.1V121h1.7v-1.7h-1.7V116.2z M53,127.5h2.1v-12.6H53V127.5z M48.2,116.1
				c0,0.7,0.6,1.3,1.4,1.3c0.7,0,1.3-0.6,1.3-1.3c0-0.7-0.6-1.3-1.3-1.3C48.8,114.9,48.2,115.4,48.2,116.1z M50.6,119.3h-2.1v8.2
				h2.1V119.3z M43.9,123.6c0,1.4-0.9,1.9-1.8,1.9c-0.8,0-1.6-0.5-1.6-1.8v-4.4h-2.1v4.8c0,2.3,1.3,3.5,3.2,3.5
				c0.8,0,1.8-0.5,2.3-1.3v1.2h2.1v-8.2h-2.1V123.6z M32.7,122.1H30v3.3h2.7c1,0,1.5-0.8,1.5-1.7C34.3,123,33.7,122.1,32.7,122.1z
				 M30,120.3h2.3c0.8,0,1.3-0.6,1.3-1.5c0-0.9-0.5-1.4-1.4-1.4H30V120.3z M36,118.7c0,0.9-0.4,1.9-1.6,2.3c1.5,0.4,2.2,1.8,2.2,2.8
				c0,2-1.4,3.6-3.7,3.6h-5.1v-12h4.7C34.6,115.4,36,116.7,36,118.7z"/>
		</defs>
		<clipPath id="SVGID_18_">
			<use xlink:href="#SVGID_17_"  style="overflow:visible;"/>
		</clipPath>
		<g class="st12">
			<defs>
				<rect id="SVGID_19_" x="26.3" y="106.2" width="205.9" height="34.3"/>
			</defs>
			<clipPath id="SVGID_20_">
				<use xlink:href="#SVGID_19_"  style="overflow:visible;"/>
			</clipPath>
			<rect x="24.7" y="111.7" class="st13" width="65.1" height="22.8"/>
		</g>
	</g>
</g>
<g id="construct" class="st35">
</g>
</svg>
