<svg fill="#ffffff" xmlns="http://www.w3.org/2000/svg" viewBox="0 0 864 864"><style>.st0{display:none}.st1,.st2{display:inline}.st2{fill:none;stroke:#b36ae2;stroke-miterlimit:10}</style><g class="st0"><g class="st1"><path d="M568.2 354.2l-.4 11 1.9 9.5v10.4l1.3 10.3-.1.2s-.9 3 .7 4.5l.2.2.1.3c.2.9 1.2 5.7-.9 7.3-.7 2.7-1.7 5.9-3.3 6.7l-.4 3.6 6.2-1.2 2.8 1.7 1.3.5c.8-1.5 2.1-3.6 3.9-3.6 1.3 0 2.3 1 3.1 2.9h.1c.2 0 .3 0 .4-.1.3-.2.5-1.1.1-2.9l-.1-.6 4.6-4v3.2l2.7.2v-2.6l6-6 .7-5h.9c1.5 0 4.9-.5 5.7-1.8.1-.2.3-.7-.1-1.5l-.1-.3-.7-7.1-1.3-9.4-.6-10.3-1.3-8.5-1.7-6.3.4-4.5-4.9-.6-4.4.7h-5.3c-2.8.5-5.4.7-7.1.7h-.4c-5.1 6.8-8.3 5-10 2.4zM689.7 375.9l-4.8-.6-2 3.3h-2.6l-3 4.3-3.5.3-.5-8-12.9 1.7-2.2-9.6-.2.7-.1 9.7-.1.2c-2.9 4.8-5.3 7.4-5.4 7.5l-.8.8-.8-.8c-.4-.4-.7-.7-.9-.8v.5l-.4.4c-2.6 2.4-1.9 3.5-1.9 3.5l.2.3v.1c.8 2.3.8 3.7-.1 4.4-.3.3-.8.5-1.3.5s-1-.2-1.2-.3h-.1l-.3-.2c-.9-1.1-1.3-1.1-1.3-1.1-.3.3-.7 3.1-.3 6.6l.1.9-1.9.5c-.2 1.2-.7 2.1-1.6 2.6-.5.3-1.2.4-1.9.4h-.1v3.4l3 1.5v2.6c1.5 1.9 4.1 4.8 5.5 5.1l.5.1.2.4s2 3.7 5.4 4.3c1-.9 3-2.7 4.7-2.7.2 0 .5 0 .7.1.4.1 1.1.5 1.5 1.6.1 0 .3.1.4.1.1 0 .3 0 .4-.1.5-.2 1.4-1 2-4l.2-.9.9.1h.4c1 0 3.6-.2 4.8-1.7l.2-.2.3-.1s.9-.4.1-2.5c-.4-1.2-.9-2.5.1-3.1.2-.1.3-.1.5-.1h.1l1.5-5.3 2.4-4.5c-.1-3.3.4-5.1 1.7-5.5.1 0 .3-.1.4-.1 1 0 1.9.9 3.1 3.1h1.5l1-7.3h2.7v-1.6l2.1-1.4c.3-1.9.9-4.1 2.1-4.6.1 0 .2-.1.3-.1l.9-4.2.3-.2z"/><path d="M690.3 374.3c-.6.2-1.8.8-2 1.4-.1.1-.1.2 0 .4l.3.7.5.1.6.2.4.1 6.3 1.9.2-1.4-.3-1.8c-2.3-.8-5-1.7-6-1.6zM600.9 402.8l-.6 4-5.8 5.9v4l-6.9-.5v-.6l-.2.2c.3 2 0 3.5-.9 4.3-.5.4-1.1.6-1.8.6-.6 0-1.1-.2-1.2-.2l-.5-.2-.2-.5c-.6-1.7-1.2-2.1-1.4-2.1-.6 0-1.8 1.8-2.4 3.3l-.4 1-3.4-1.3-2.2-1.4-6 1.1-.2 1.8-.4.3c-.1.1-1.8 1.3-1.1 2.4.1.2.3.4.5.6.4.3 1.6 1.3 1.1 2.5-.3.8-1.3 1.2-2.9 1.2-.4 0-.8 0-1-.1-.7.1-1.5.3-1.8.8-.4.6 0 1.6.4 2.3l.1.3-.3 4.9-1.6-1.1c-.8-.6-3.2-2-5.1-2-.4 0-.7.1-1 .1-.6.2-1.1.7-1.4 1.4l.3.3c.6.7.8 1.8.6 3.3l-.6 4.6h-2.3v.1c6.7-.1 13.7-.3 15.7-.7v-3.7h1c.2 0 19-.7 22.5-1.7h12.6c.8-.1 10.7-1.8 15.3-1.8h1.1l.5-.1c4.6-.6 7.8-1 10.2-1.3l6.5-4.8v-4l8.6-8.5c-2.5-1.5-5.1-5-5.4-5.5l-.2-.3v-2l-3-1.5v-5c-1.4-.4-2.5-1-2.7-1.1l-.6-.3.1-.7c.3-2.6-.3-3-.3-3-.3 0-.7.2-1 .4-1.5 2.4-2.6 3.4-3.6 3.4-.2 0-.3 0-.5-.1-.3-.1-.9-.4-1.1-1.4l-1.7.1c-1.1 1.2-2.1 1.8-3 1.8-.2 0-.5 0-.7-.1-.8-.3-1.3-1.1-1.5-2.3H614l-.1-.9c-.1-1.3-.6-2.2-1.5-2.8-.7-.5-1.8-.8-3-.8-.8 0-1.5.1-2 .2l.1 1.2c.5 1.2.5 2.4-.1 3.3-1.2 2-4.7 2.6-6.5 2.7zM498.9 304.9c1.6.6 5.6 2.2 7 4.7 1 .4 3.6 1.6 4.3 4l7.6 5.2 1 7c1.9 2.3 2.5 4 2 5.3-.3.7-.8 1-1.2 1.2l-.7 3.4 2.7 2.6c2.3.4 3.8 1.2 4.5 2.4v.1l9.3-.3 8.3-.4 8.8-.5 10.6-.4v-1.1c-3.5-4.9 0-15.5 0-15.5-3.1-4.9 6.2-28.3 6.2-28.3-8.8 14.7-11 13.3-11 13.3-1.4-.8.4-5.5 2.7-10.4l-4.1-3.5-.9-8.3c-2.6-.3-4.1-1-4.7-2.2-.2-.3-.2-.7-.3-1l-8.5-1.2-2.8-1.5-2.7-.5-7.3-1.7c-2.3-.1-3.7-1.8-4.2-2.9-2.8.3-5.3 0-5.3 0 3.5-5.7 1.3-5.4 1.3-5.4-6.5 3.7-10.7 5-13.4 5.3l-4.5 9.3-.7-.1h-.1c-.5 0-2.2.1-3.6 1.4-1.3 1.2-2.2 3-2.4 5.5.9.2 2 .8 2.7 1.9.7 1.2.6 2.7-.3 4.4-.3 2.3-.9 6.3-.3 8.2zM361 297.8l-.1 1.1c-.6 8-1.6 20.3-2.6 32.2l57.9 3.4h11.4l5.1 4.5-.1.5h.3c.5 0 1.6-.2 3.7-1.2l.3-.1h.3c.6.1 1.3.2 1.9.2 1.2 0 1.7-.2 1.8-.3l.6-1.2 1 .9s3.4 3.1 5.8 3.2h.4l.3.2c.4.3.8.7 1.1 1l.1-.5c.7-2.3 1.7-6.5 1.6-8.1-.9-.6-2.8-2.3-2.1-6.3l.2-.9h1.9v-29.9c-1.8-1.2-5.3-3.8-4.9-6.2.2-1.2 1.2-2.1 3-2.6v-.7l-86.6-3.7c-.7 5.2-2.2 13.7-2.3 14.5zM365.3 256c-.4 3.8-.8 7-.8 7.6v.9c-.1 3.1-.8 12.7-1.1 16.8l86.8 3.7c1.5-3.2.4-6.1-.5-7.5-.1-.2-.3-.5-.6-.9l-.3-.4.3-.2c0-.1-.1-.2-.1-.2-1.9-4-1.9-11.9-1.9-12.2.4-7.6-.9-9-.9-9-2.2-1.5-2.2-9.9-2.1-13.3v-.1l.1-.3v-.1c.6-1.3.7-2.5.5-3.6-20.8-.8-50.4-3.3-77.3-5.8.2 3.7-.7 12.2-2.1 24.6zM476.4 439.3l-1.3-36.6c-1.6-.4-2.9-1.3-3.7-2.5-1.6-2.5-.9-5.5-.9-5.6l.1-.2c1.2-2.2 1.1-3 1.1-3.2h-.2c-.2 0-.5.1-.7.1-.7.2-1.2.2-1.8.2-2.7 0-4.2-1.6-4.8-2.5l-85.1-2.2c-.6 6.6-1.2 13-1 15.2 1 5.8-1.3 29.2-1.9 34.7l100.2 2.6z"/><path d="M453.7 353.4l-.1-.2-2.7-7.7c-.7-.4-1.7-1.2-3.1-2.4-2.3-.3-4.8-2.1-6-3.1-.6.3-1.5.5-2.7.5-.8 0-1.5-.1-2-.1-1.8.8-3.2 1.2-4.3 1.2-.7 0-1.3-.2-1.7-.5-.5-.4-.7-.9-.7-1.3l-3.6-3.2h-10.7l-58-3.4c-1.2 14.7-2.3 28.4-2.7 32.4l24.8 2.1.1.8c.3 1.9-.3 8.6-1.1 16.3v.2l84.1 2.2-1.1-3.8c-.7-.5-1.6-1.7-2.6-6.2l-1.5-10.3c0-4.5-2.2-6.8-2.2-6.8l-.4-.5.2-.6c.5-1.5-.9-4.1-2-5.6zM353.4 365.5c.6-7.2 4.8-59 5.5-66.9l-82.3-10-1.1 8.7h.2l-10.2 57.6c38.1 5.1 81.5 10.5 87.9 10.6zM551.4 438.9c.2-.9.1-1.4-.1-1.6-.6.2-1.1.3-1.6.3-.7 0-1.3-.2-1.9-.6-2.2-1.5-2.2-5.2-2.2-5.6v-.4l.4-.3c.7-.6-.2-3.5-2-6.5l-4.1-.5-7.4-7.6.3-.7c2.3-4.5 2.3-8.3 2.1-9.9h-7.3l.3-1.3c.7-3.3 0-4.3-.2-4.6-.2-.2-.4-.2-.4-.2h-.4l-.3-.3-6.6-6.4c-3.1-1.6-3.5-5.9-3.5-6.4v-.2c.2-2.6.2-4.9 0-6.4-1-.8-2.1-1.9-2.9-3l-51 1.7c.4 1.3.8 2.2 1 2.6l.7-.1.1 1 1.6 5.5c.1.2 1 1.8 3.2 1.8.4 0 .8 0 1.2-.1.1 0 .7-.2 1.3-.2.8 0 1.4.3 1.8.7.9 1 .7 2.7-.7 5.3-.1.5-.4 2.4.6 3.9.6.9 1.7 1.5 3.1 1.8l.8.1 1.3 39h.1l-.1.5v1h-.1l-.7 6 60.9-1.6.2.1c.1 0 1.8.8 2 2.5.2 1.2-.4 2.4-1.6 3.7l-1 2 5.8-.3c.8-1 3.1-4.5 2.5-8.6l-.2-1.2h2.1l-.1-2.2h2.7l.3-2.7z"/><path d="M520.9 391l.2.1 6.5 6.3c.4.1 1 .3 1.6.9.9 1 1.2 2.7.9 5.1h6.5l.2.8c0 .2 1.2 5.1-1.8 11.5l5.9 6 4.3.5.3.4c.7 1.1 4.1 6.7 2.2 9.2.1 1.3.5 3 1.3 3.5.2.1.4.2.7.2.2 0 .4 0 .7-.1.6-1.6 1.5-2.7 2.9-3.1.5-.2 1.1-.3 1.6-.3 1.8 0 3.6.8 4.8 1.5v-.7c-.7-1.6-.8-3-.2-4 1-1.7 3.5-1.8 3.6-1.9h1.3c-.4-.3-.7-.7-.9-1-1.1-1.8 0-3.7 1.3-4.9l.9-8.5 1 .2c.4-.4 1.5-2.6 2.3-5.7l.1-.5.5-.2c.7-.3.7-2.8.3-4.9-1.9-2.2-1.3-5.3-1.1-6.2l-1.3-10v-10.3l-1.9-9.5.6-15.3c-2.3.8-2.8-5-2.9-8.8l-10.5.4-8.8.5-8.3.4-7.9.3c1.4 1.1 2.1 2.8 2.3 3.6 2 .9 3.2 2 3.7 3.4.4 1.3 0 2.4-.2 2.8-.8 3.8-2.3 6.4-4.4 7.7-1.2.7-2.2.9-3 .9h-.7c-1.9.4-3 1-3.3 1.8-.2.6.2 1.3.2 1.3 1.6 1.8 2.3 3.6 2.1 5.3-.2 1.6-1.3 2.6-1.9 3.1v4.3H520c.2 1.5.2 3.2-1 3.7-.2.1-.4.1-.6.1.2 2.4-.1 5.2-.1 5.7.2.5.7 3.6 2.6 4.4zM728.4 333.9c-4.3-.4-5.8-4.2-6.2-6l-1.9.1-.1-1c0-.3-.2-.5-.4-.7-.3-.2-.8-.3-1.4-.3-1.6 0-3.8.7-4.7 1l-7.8 1.6-10 1.7-22.1 4.3-11.1 3v-1.4c-1.9 1.6-4.6 3.5-6 4.5l1.3 7.9 1.8 13.8-.2.8 2.6 11.2 17.5-2.3 12.5-3.2 12-2 11.5-2.6 7.1-1.2.3.9c.1.3.3.9.5 1.8 1.6-2.3 4.2-5.4 5.2-5.8.3-.2 1.7-1.9 3-3.8l.1-.1c1.1-1 1.4-1.5 1.5-1.7-.2-.1-.5-.1-.8-.1h-.3c-2.4-.9-3.8-2.1-4.4-3.5-.2-.5-.3-1-.2-1.5h-1.8l-.3-.6c-1.5-3.3.2-4.5.4-4.7.3-.2.4-.3.5-.4 0-.3-.3-.9-.6-1.1l-.6-.6 1.8-2.8 1.3-5.2zM675.4 374.9l.4 6h.4l3-4.4h2.5l2-3.2-3.8 1z"/><path d="M675.4 374.9L693 371l6 1.8s-20.3 1.6-22.5 4.1"/><path d="M687.4 373.5c.1-.2.2-.5.4-.7.2-.3.4-.5.7-.7l-4 1 2.9.4zM726.3 386.3v-1.1c0-1.3-2.3-9.4-4.3-16.3h-.1v-.3c-.3-1-.6-2-.9-2.9l-5.2.9-11.5 2.6-11.6 2c2.5.6 6.1 2.9 6.6 3.2l.5.3v.2c.5.1 1 .2 1.6.6 1.1.7 1.9 2 2.3 3.8 1.4 0 3.8.3 5.3 2 1.2 1.3 1.6 3.1 1.1 5.3l-.1.4-.3.2c-.5.4-1.7 1.5-1.6 2.5.1.7 1 1.5 2.5 2.1l9.9 1.2c0-1.3.1-2.2.1-2.2-2.7-.5-2.8-5.7-2.8-5.7 1.5 1.1.2-7 .2-7-1.1-3.9 2.2-4.8 2.2-4.8 4.8-4.8.4 4.4.4 4.4 2 .4 2 5.2 2 5.2l-1.7.2.7 1.3c4.4 1.7 0 3 0 3 1.1 5 3.7 4.4 3.7 4.4 6.5-.7 5.4 3.7 5.4 3.7 3.7.7 1.3 4.1 1.3 4.1-2.2 0-1.1 10.9-1.1 10.9 3.7 2.8 3-7.6 3-7.6-.4-6.3 4.4-8.9 4.4-8.9l.2-8-12.2.3zM273.6 297l-.1-.3c-1-4-2.1-4.5-2.5-4.6h-.1c-1 0-2.5 1.7-3.2 2.9l-.7 1.1-1-.9c-1.6-1.5-4.1-1.5-4.6-1.5h-.1c-.8.2-1.7.2-2.6.2-1.8 0-3.3-.3-4.1-.4-1.2 1.4-2.1 2-2.9 2-.2 0-.4 0-.6-.1-.8-.3-1.1-1.2-.9-2.4.2-4.9-.8-5.7-.9-5.8l-.2.1-.2.1-.4-.2c-3.5-1.6-5.2-10.1-5.6-11.8v-.4c.9-3.9.3-4.5.3-4.5-.7 0-2.5 1.4-4 3l-.5.5-.7-.3c-1-.4-1.8-1.2-2.2-2.3-1.7-4.6 2.6-13.8 3.1-14.8l.1-.2.2-.2c1-.7 1.5-1.4 1.5-1.9-.1-.9-2-2-3.2-2.4l-.2-.1c-2.9-1.8-5.3-8.5-6.1-10.9-2.6-1.1-3.8-4.8-3.8-5l-.1-.3.1-.3c2-6.7-1-8.3-1.1-8.3l-.9-.4.4-.9c.4-.9 1.9-9 3-15.2-3.1-.7-6.1-1.4-9-2.1-5.5 20.9-10.7 43.5-10 45.6l.1.2c0 .1 0 .8.2 1.8v.1c.3 1.7 1 4.1 2.5 4.8l.3.1.2.3c.9 1.3 1.8 4.4-.8 6.3-.6.7-3.7 4.9-4.9 6.4.1.8 0 2.2-.7 3.2-.5.6-1.1 1-2 1.1-.7.5-5 3.5-3.7 5.7l.6 1.1-1.2.4c.4.2 1.2.6 2.6 1l1 .3-9.7 36c8.1 1.9 61.1 14 72.2 14.3l7.1-40.1zM629.2 452.6l.4-.2h.1c3.3-.6 4.2-2.7 4.2-2.8l.2-.5 4.1-1.3v-3l5.3-4.3.2 1.9c.1.7.2 1 .3 1.1.6-2 1.6-3.2 2.9-3.6.3-.1.6-.1.9-.1.5 0 1 .1 1.5.3 1-2.8 2.1-4.4 3.5-5 .1 0 .2-.1.3-.1 0-2.4-.5-2.7-.5-2.7-.1 0-.9.6-1.5 1.3l-.3.3-15.4 1.8c-.3 0-2 .3-5.1.6l-.2.2-.1-.1c-2.6.3-6.1.8-10.5 1.3l-.6.1h-.1c-.3 0-.7-.1-1.1-.1-4.4 0-14.9 1.8-15 1.8h-12.4c-3.6 1-17.8 1.6-21.8 1.7v2.8l-.3.3c-.3.3-1.3 1.3-19.3 1.4.2 4.7-2.5 8.3-3.2 9.2l-.9 3.2-.2 5-2.9 1.2c.5 1.3 1.1 3.5.9 5.4h24.5l4.5-1.3 18.4-1.5 14.4-1.6 16.6-1.8.3-3.7.5-.3c2.7-1.3 3.2-2.3 3.2-2.5v-.2l-.1-.1c-.7-.6-.5-.9 4.3-4.1zM734.4 277.3h.7l.1.9c.1.4.6 3.9 0 6.1.6 2.4 1.5 4.1 1.9 4.3l1.2.4-.5 1.1c-.2.4-.5 1.4-.2 2.1.3.5.9.8 1.8 1l.7.1 3.1 11.4 5.6-1.2v-3.1l1-3.3-1.1-1.7 1.2-10.5v-9.1l.4-.3c1.3-1.1 3.8-3.8 3.7-5.7 0-.6-.2-1-.7-1.4l-.3-.2-.2-1.1-19.5 3.9h-.3c.5 3.5 1.1 5.8 1.4 6.3zM192.8 324.6c-3.7-.8-18.6-4.1-35.3-8.1L145 366.3l53.4 79.7c.6-2.1 1.6-6.5 3.6-15.9l.4-1.8 1.4 1.2c2.6 2.4 5.1 3.9 5.9 3.9 0 0 .4-.8-1.1-4.6l-.1-.3 20.5-95.9c-17.7-3.7-34.9-7.7-36.2-8zM478.9 494.5v-30.2l-3.3-16.6.7-6.4-101.2-2.3c-.9.1-2 .1-3.2.1-2.4 0-5.3-.1-8.4-.3l-.4 5.8 41.3 1.3v1c-.3 13.3-.8 29.7-1.5 33.4 1.6 2.1 3.5 3.8 4.3 3.8.2 0 .3-.3.4-.5l.1-.2c.2-.3.7-.9 1.4-.9.1 0 .3 0 .4.1.4.1.6.4.8.7v-.6l.4-.3c.1-.1.6-.5 1.3-.5.3 0 .5.1.7.2 1.1.5 1.7 2 1.8 4.8 4.8.3 7.8 1 9.2 2.1v-.1l.2-.3c.2-.3.7-1 1.5-1h.3c.7.2 1 .9 1.1 1.5l2.6-.2-.4 1.5s-.1.4.1.6c.2.2.6.4 1.3.4h1v1.6h-.4c-.1.1-.1.3-.1.4.1.1.5.3 1.5.3.4 0 1-.2 1-1v-1.4l4.1 1.2.2.2c1.6 1.7 4 3.5 5.1 3.5h.3c.3-.1.7-.9.7-2.5v-.3l.2-.3c.2-.4.9-1.2 1.8-1.2.1 0 .3 0 .4.1.9.3 1.2 1.3 1.3 2.2h2.9l.3.2c.1 0 1.6 1.1 3.3 1.1.9 0 1.8-.4 2.5-1l.2-.2 5-.8c.3-.4.8-1 1.7-1.2.2 0 .3-.1.5-.1.8 0 1.7.4 2.5 1.2h1.4c0-1 .4-1.8 1.1-2.1.3-.1.5-.2.9-.2 1.1 0 2.4.8 4.2 2.6 1.6 2.2 3.5 4 4.3 4 .1 0 .2-.1.2-.2v-.1h.1c.1-.5.3-1.3.3-2.9z"/><path d="M542.5 458.1l.6-2.2-8.5.5 3-5.6.1-.1c.8-.7 1.2-1.4 1.1-1.9-.1-.4-.4-.7-.7-.9l-60.1 1.6 2.9 14.6v30.4c0 .9-.1 1.7-.2 2.4.7-.1 1.6-.2 2.4-.2 1.5 0 2.7.3 3.5.9.7.5 1.1 1.3 1.1 2.3-.1 2.6-.2 5.2-.2 7.7 2.5-.1 11.2-.5 20-.7 3.9-.1 7.2-.1 10-.1 4.9 0 8 .1 9.7.4v-3.6c-.3-1-1.9-7.3-1.1-12l.1-.7.6-.2c1.6-.4 2.9-1.1 3.3-1.4-.1 0-.1-.1-.3-.2l-.6-.3v-.7c0-.4.3-4.2 2.5-5.4.4-.2.9-.4 1.4-.4.3 0 .6 0 .9.1.3-.7.5-1.8-.3-2.6l-.3-.3v-.4c0-1 .1-4.1 1.8-4.8.2-.1.5-.1.7-.1.5 0 .9.2 1.4.5l-.6-4.5h3c.4-1.7-.6-4.5-1.1-5.6l-.5-1 3.7-1.5.7-4zM706.2 474.1c0-.1.1-.1.1-.2-3.3-3.1-13.7-10-20.3-14.1-.1 0-.5-.1-1.1-.1-3.3 0-10.6 1.3-13.1 1.9l-.9.2-.3-.9c-.7-2.2-2.6-3.3-5.5-3.3-1.6 0-2.9.3-3 .4h-.2l-12.2.1-.2-.1c-1.3 0-6 2.4-10.6 5.3-.3.3-2.4 2.2-2 3.8.4 1.3 2.6 2.4 6.4 3l.5.1 3 5.4c.1.1 3.1 4.5 6 4.6h.7l.3.6s1.6 3.6 5.2 4.7l.6.2.2.6c0 .2 1.2 4.1 5.9 5.6l.3.1.2.2c.1.1 3 3.5 3.6 7.1v.3l2.4.8h.1c.2.1 3.6 2.4 3.1 7.5h7.4c3.8-4 1.7-6.1 1.7-6.1h2.4c-.4-1.7 3.9-3.5 3.9-3.5 0-2 3.7-3.7 3.7-3.7.4-4.8 4.4-3.9 4.4-3.9-.4-4.6 1.1-4.6 1.1-4.6-1.4-5.2 6.2-12 6.2-12z"/><path d="M622.6 464.7l-.1 1-17.7 2 9.8 34.7 3.2 6.2v2h.3c.5 0 .9.2 1.2.5 1.1 1.1.1 3.2-1.1 5.2-.3 2.7-.5 6.9.4 7.9l.2.3.1 4.7c.5 2.1 1.2 4 1.9 5.1l2.8 3.1 39.4-2v3.2h.8l.3-2.8c-.9-1-2.2-2.7-1.5-4.1.4-.8 1.3-1.2 2.7-1.2.4 0 .8 0 1.2.1l7.7-.1c-.1-3.9.8-5.8.8-5.8 1.5-9.1 4.8-14.6 4.8-14.6l.1-.1h-7.7l.3-1.3c.9-4.1-1.4-6.1-1.9-6.5l-3.4-1.1v-.7c0-.3 0-.5-.1-.8-.4-2.5-2.4-5.1-2.9-5.9-4.6-1.5-6.3-5-6.8-6.4-3.4-1.2-5.1-4-5.7-5.1-3.8-.6-7-5.3-7.1-5.5l-2.5-4.6c-4.4-.8-7-2.2-7.6-4.4-.4-1.4.2-2.8.9-3.9l-12.8.9zM755 266.6l.1.4c.8.7 1.2 1.7 1.2 2.7 0 2.9-2.9 5.9-4.1 7v8.3l-1.1 9.8 1.2 1.9-1.2 4v2.3l14.4-2v-1.3c1.5-3.7 6-4.3 8.8-4.3.2-.4.4-1 .6-1.6h-6.1v-2.3c-.4 0-.9-.1-1.3-.4-2.3-1.3-2.8-6-2.9-7.5l-3.6-12.4-3.7-11.7c-2.7.6-1.8 6.9-1.8 6.9l-.5.2z"/><path d="M707.5 602.2c.9-5.4-11.8-23.3-11.8-23.3-3.9-7.4-1.3-8.7-1.3-8.7-1.5-2.2-5-5.4-5-5.4-4.8-2.6-12-21.3-12-21.3-1.7-4.4-2.5-8-2.8-10.8l-7.9.1c-.5-.1-.8-.1-1.1-.1-.5 0-.7.1-.8.1.1.4.6 1.3 1.4 2.1l.4.4-.6 5.7h-4.8v-3.1l-38.2 1.9-3.2-3.5-36.7 3.3v1.3l3.1 2.2.3 9.5c1.1-.2 1.9-.4 1.9-.4 7.4-3 16.8-2.2 16.8-2.2 2.8 0 9.1 3.3 9.1 3.3 9.1 3.5 6.3 7 6.3 7 8.5-.4 11.5-5.9 11.5-5.9 1.5-4.6 6.5-4.1 6.5-4.1 0 1.1 4.6 1.7 4.6 1.7 2.6 3.5 5.2 3.9 5.2 3.9.9 3 3 3.7 3 3.7 1.5.2 1.5 3.7 1.5 3.7.9-1.5 5.4.4 5.4.4 1.1 3.3 2.4 3 2.4 3 3 2.6.2 11.5.2 11.5-1.1 6.3 3.3 10.2 3.3 10.2 1.5-2.2-.9-3.9-.9-5s5.7 1.5 5.7 1.5c1.3 1.1-4.8 6.5-4.8 6.5v.9c0 .9 8.5 10 8.5 10 5.2-8.9 3.3 4.1 3.3 4.1 4.6 1.7 4.1 5.7 4.1 5.7 4.1 6.5 5 3.5 5 3.5 3.5-1.3 7.6 7 7.6 7-.4 5.7 2.6 5.4 2.6 5.4.4-2.6 3.7-1.3 3.7-1.3 4.1-.9 6.8-4.8 6.8-4.8-1.3-5.2 2.2-7.4 2.2-7.4-1.4-1.8-.5-12.3-.5-12.3zM302.9 517.8c.5-.6 1.3-.9 2.4-.9 1.5 0 3.2.7 3.5.8l.2.2c1.5 1.3 25.1 2.6 46.3 3.2l6-82.5c-26.5-1.8-72.3-8.6-80.1-9.8l-13 98.2 12.9 2 1.7-8.5 20.3 2.4c-1.1-2.4-1.2-4.1-.2-5.1zM567 524.9l.2-18.5 1.1-19.7v-13.5l-1.5-1h-.1v-.1h-27.2l.3 2.3c1.3 2.6 1.1 3.4.4 3.9-.2.1-.4.2-.7.2-.7 0-1.3-.6-2.3-1.6-.5-.6-.9-.7-.9-.7-.1.1-.4 1.1-.4 2.4 1.7 2 .6 4.6-.2 5.7l-.7.7-.8-.4c-.3-.2-.6-.3-.8-.3-.1 0-.3 0-.4.1-.7.4-1.2 1.8-1.4 3.1.8.6.9 1.3.8 1.8-.2 1.5-2.4 2.5-4.3 3.1-.6 4.5 1.2 10.5 1.2 10.6V509.1l-1.1.1c.5 3.9 1.4 6.8 1.9 7l.5.2 1.8 5.4h-1.9l.4 1.9-.4.4c-.1.1-6.5 7.3-6.3 17.6l26.5-1.3-.2 1.3c-.4 2.4-.7 7.4 1.5 8.1l.4.1 3.3 7c.2-.1.3-.2.3-.2 3.9-6.8 7-3.5 7-3.5 4.6-2.8 5.2.4 5.2.4l1.6-.2c.4-4.8-1.4-19.4-2.8-28.5z"/><path d="M490.2 568.2l.3-6.8.1-.2c2.2-3.6.4-5.8-.2-6.4-.7-.2-1.1-.6-1.2-1.2-.2-1.1.9-1.9 2.1-2.5 1.7-.9 2.3-5.6 2.3-7.7v-.2c1-4.2-3.4-8.3-3.4-8.3l-.9-.9.8-.6c0-.4-.4-1.6-1-3-3.9-1.4-3.6-7.3-3.4-8.7-.6-2.8-.1-18.7 0-21.9 0-.3-.1-.4-.3-.6-.3-.2-.9-.4-2.1-.4-1.3 0-2.7.3-3.5.4-.2.2-.5.4-.9.5-.2.1-.5.1-.7.1-2.4 0-5.1-3.6-5.9-4.7-1.4-1.4-2.1-1.8-2.4-1.9 0 .2-.1.6 0 1.1l.2 1.2h-4.7l-.3-.3c-.8-.8-1.2-.9-1.4-.9-.3.1-.5.4-.6.5l-.2.6-5.5.8c-1 .9-2.3 1.4-3.6 1.4-1.9 0-3.6-.9-4.3-1.3l-4.1-.1c-.3.9-.9 1.6-1.6 1.9-.3.1-.6.2-1 .2-2.4 0-5.5-2.9-6.5-3.9l-1.1-.3c-.5 1.2-1.7 1.7-2.8 1.7-1.7 0-2.9-.5-3.4-1.4-.2-.4-.3-.9-.2-1.3-.7-.2-1.2-.6-1.6-1.1-.2-.3-.4-.6-.4-1l-1.4.1c-.2.6-.5 1.1-1.1 1.2h-.2c-.7 0-1.3-.6-1.8-1.7V490.3c-.5-.4-3.9-1.4-9-1.6h-1v-1c0-1.4-.1-2.3-.2-2.9-.2.6-.5 1-1 1.2-.3.1-.5.2-.8.2-.7 0-1.3-.4-1.4-.5l-.2-.2c-.4.4-.8.5-1.1.5h-.3c-2.4 0-5.4-3.8-6.3-5l-.5-.7.5-.5c.4-1.6 1-17.3 1.4-32l-39.3-1.2-5.5 76.6h-1c-7.5-.2-44.7-1.2-48.5-3.6-.5-.2-1.7-.6-2.6-.6-.4 0-.7.1-.8.2 0 0-.6.7 1.1 4l1.1.1c4.8 1.5 5 6.5 5 6.5 5.9 2.2 9.8 10 9.8 10 8.5 5.7 10 12.4 10 12.4-2 13.5 5.9 15 5.9 15 6.8 2.6 10.2 7.4 10.2 7.4 4.6 5.2 7.4-.9 7.4-.9 4.4-7.8 5.7-8.9 5.7-8.9 1.7 0 5-3.3 5-3.3 5.9 3.7 14.4 1.7 14.4 1.7l-.4.9c-.4.9 11.1 12 11.1 12-1.3 2.6 2.8 9.4 2.8 9.4 1.3 7.8 3.5 5.9 3.5 5.9-.4 2 6.8 10.5 6.8 10.5 5.2 1.1 3 6.1 3 6.1 2.2 1.3.4 5.7.4 5.7 4.6.7 3.9 5 3.9 5 .2 7 10.7 7.8 10.7 7.8 3.5 3.9 6.3 3 6.3 3 7.4-.4 7.2 3 7.2 3 3.7 3 5.7-1.3 5.7-1.3-9.8-22 6.1-35.1 6.1-35.1 1.3.2 9.1-6.3 9.1-6.3 1.5-2 14.4-7 14.4-7 3-4.6 9.1-7.8 9.1-7.8l-.7-2c4-2.2 7.7-3.8 10.9-4.8z"/><path d="M556.6 569.5c-3.3-.9-.9-4.8-.9-4.8 1.1 0 3.7-1.5 3.7-1.5 1.1-3.7-2.2-3.9-2.2-3.9-1.3 5.7-4.4 3.3-4.4 3.3-2.6-1.4-.7-3.3 1.2-4.6l-3-6.4c-3.1-1.4-3-6.3-2.7-9l-26 1.3-.1-1c-.6-10.3 4.9-17.9 6.4-19.7l-.8-3.4h1.6l-.6-1.8c-1.6-1.3-2.4-5.8-2.8-8.9-1.3-.1-3.8-.3-8.4-.3-9 0-21.8.5-30.3.9-.1 6-.1 10.9.2 11.7l.1.2v.2c0 .1-.7 6.1 2.3 6.8l.5.1.2.4c1.1 2.2 1.6 3.8 1.4 4.8 1.3 1.4 4.5 5.3 3.6 9.6 0 1.4-.3 7.7-3.4 9.4-.2.1-.3.2-.5.3.9.9 3.5 4 .8 8.8l-.2 5.5c7.6-2 11.9-.7 11.9-.7 3.3 3.3 15 3 15 3-2.2-8.1 3.3-3 3.3-3 5-2.8 5.7 2.4 5.7 2.4 6.5-.2 5 5.7 5 5.7 4.1 3.5 7.2 1.7 7.2 1.7 0-3 3.5-2.8 3.5-2.8 1.5-2.4 3 .4 3 .4 3.9 3.3 2.6-3.9 2.6-3.9l2.8-1.5c1.3.7 2.2 2.6 2.2 2.6 4.1-.4 6.8 3.7 6.8 3.7 5.9.7 2.6-2.6 2.6-2.6-.6-2.1-7.3-3-7.3-3zM471.1 328.8l-18.2-.2h-1.2c-.2 2.8 1.4 3.4 1.4 3.4l.5.2.2.5c.7 1.9-.7 6.9-1.3 9.3 1.4 2 1.8 3.2 1 3.9l-.1.1 2.2 6.3c.8 1 2.8 4 2.5 6.5.7.9 2.4 3.5 2.4 7.7l1.5 10.1v.1l52.5-1.8.3.4c1.4 1.8 2.8 3 3.4 3.4 0-.4 0-1.1-.3-2.5l-.3-1.3h3.1v-3.4l.5-.3s1.2-.7 1.4-2c.2-1.1-.4-2.3-1.6-3.6-.1-.1-1.2-1.6-.5-3.3.6-1.5 2.3-2.6 5.1-3.1h.2l.2.1h.4c.4 0 1.1-.1 1.9-.6 1.6-1 2.8-3.2 3.4-6.4l.1-.3c.1-.1.4-.6.1-1.3-.3-.9-1.4-1.7-3-2.3l-.6-.2-.1-.6c0-.1-.5-3.1-2.9-3.5l-1.3-.2.6-1.2s.1-.4-.1-.7c-.2-.4-.9-1.1-3.3-1.4h-.3l-4.1-3.9 1.2-5.9.7-.1s.2-.1.2-.2c0 0 .3-.8-1.6-3.1h-16.8l-29.4 1.4zM782.2 315.8c-3.5-7-5.7-6.1-5.7-6.1-5.4 1.5-1.7-7-1.7-7-1.5-1.9-1.6-3.8-1.3-5.2-2.2.1-5 .7-6 2.8v2.5l-17.4 2.4-6.5 1.4-.1 10.6 25.2-5.9.4.5c.6.8 5.6 7.2 8.2 10h.1c2.2-7.4 4.8-1.5 4.8-1.5.7-2.6 7.6-3.3 7.6-3.3l-.7-2.8c-6.2 5.1-6.9 1.6-6.9 1.6zM737.3 430.8c-3.5 2.6-3 0-3 0-.4-.9-3.3 1.5-3.3 1.5-12.2 3.7-.9-3.5-.9-3.5 3.9-2.6 4.8-1.5 4.8-1.5 4.6 2.8 3.5.9 3.5.9l-4.2-8.2c-12.8 4.8-70.4 12.8-79.2 14 .1.7.1 1.5 0 2.4l-.1 1.7-1.4-.8h-.2c-.3.1-1.4.9-2.6 4.9l-.5 1.6-1.2-1.1s-.7-.6-1.4-.6h-.3c-.7.2-1.3 1.2-1.7 2.7l-.1.4-.4.2c-.1.1-.6.3-1.2.3-.4 0-.7-.1-1-.3-.4-.2-.8-.6-1-1.1l-1.7 1.4v3.5l-4.7 1.5c-.5.9-2 2.9-5.4 3.5-1.4 1-2.8 1.9-3.4 2.4v.9c-.3 1.3-1.6 2.5-3.8 3.7l-.1 1.1 15-1.1c2.8-1.8 9-5.5 11.7-5.5.2 0 .4 0 .6.1l11.6-.1c.5-.1 1.8-.4 3.4-.4 3.5 0 6 1.3 7.2 3.8 2.5-.5 9-1.7 12.5-1.7.9 0 1.6.1 2.1.3.2.1 16.5 10.2 21.1 14.8 2.6-.9 6.8-1 6.8-1-.9-5.4 4.1-9.6 4.1-9.6 4.4-7.2 13.1-7.8 13.1-7.8 5.4-3.5-2-5-2-5 2-2.8-.7-6.8-.7-6.8.9 1.1 6.1 0 6.1 0 1.5-5.2 3.3-5.4 3.3-5.4 3.2-2-1.4-6.1-1.4-6.1zM806.3 248.4c-4 3.1-4 .4-4 .4-.9-9.7-7.1-6.6-7.1-6.6l-6.2-22.5-8-4c1.8 2.2-4.4 4.9-4.4 4.9-6.6-.9-2.7-4.4-4.9-3.5-2.2.9-5.7 15-5.7 15 2.2 4 .4 6.2.4 6.2-2.7 0-2.7 5.3-2.7 5.3 8.4 2.7 4 3.5 4 3.5-5.3 2.2-5.3 13.3-5.3 13.3h-2.7c-.1 0-.1-.1-.2-.1l3.3 10.4 3.7 12.7v.1c.1 2 .8 5.3 1.8 6 .1 0 .2.1.3.1.1 0 .3 0 .5-.1l1.5-.8v3.2h4.5c1.1-4.6 1.7-11.1 1.7-11.1 4 .9 6.6-2.2 6.6-2.2-.4-2.7 4-3.8 4-3.8.9-14.4 4.4-7.3 4.4-7.3 5.7-5.7 7.5-3.5 7.5-3.5l6.6-5.3c5.7-6.8.4-10.3.4-10.3zM729.9 373.5c-1.2-.9-1.9-2.4-2.2-3.5l-2.9-2.6c-.3.5-.6.9-.7 1.1 1.5 5 3.6 12.6 4.2 15.6l9.4-.2-.5-1.5c-2.9-.2-7.3-8.9-7.3-8.9zM743.3 347.4l2.3-6.9-2.6-1.5c-4.6-.7-11.6-3.8-11.9-4l-.7-.3-1.7 5.4-1.1 1.6c.4.6.8 1.4.6 2.3-.1.5-.4 1.2-1.3 1.8-.1.2-.2.6.1 1.5h3.5l-.8 1.5s-.3.6 0 1.3c.3.8 1.4 1.6 2.9 2.2.6 0 2.1.2 2.6 1.5.5 1.4-.9 2.9-2 3.9-2.5 3.5-3.4 4.3-4 4.4-.5.4-2.6 2.9-4 4.7l2.3 2c6 4.9 10.3 4.7 10.3 4.7l.7 4.6c1.7-.4 2.4-5.9 2.4-5.9 3.7-2.4 4.6-12.6 4.6-12.6l-.9-9.4c-5.9-.6-1.9-2.5-1.3-2.8z"/><path d="M744.7 337v.1l2.2 1.3c5.8-6.4 13.7-8.2 13.7-8.2.4.2 1.8-.2 3.4-.8v-.1c.9-3-.8-11.4-1.4-14.3l-19 4.5c.5 2.9 2.1 13.1 1.1 17.5zM767.9 313.7l-3.2.8c.6 2.8 2 10 1.6 14 2.1-.8 3.9-1.6 3.9-1.6.7-1.5 2.2-2.8 2.2-2.8.7.5 2.1-.2 3.2-.9-2.4-2.8-6.4-7.8-7.7-9.5zM584.3 552.8l-.3-8.9-3.2-2.2v-4.3l37.6-3.3c-.9-2.1-1.4-4.5-1.4-4.6l-.1-4.2c-1.5-2.3-.8-8.3-.6-9.4v-.1l.1-.3c.8-1.3 1.1-2.1 1.3-2.6-.1 0-.2.1-.4.2l-1.6.9v-4.8l-3.1-6-10-35.2-12.9 1.4-18.2 1.5-2.2.6 1 .6v14.7l-1.1 19.7-.2 18.3c0 .2 3.2 20.9 2.9 28.5h.2V552l4.1-.2c1.7-11.1 5.7-2.2 5.7-2.2.7 1.5-.3 3.8-.6 4.4.5-.5 1.7-.9 3-1.2zM623.9 352.7l-3.5-3.5c0-.5 0-.9.1-1.3l-13.9 2.7-4.1.6-.4 4.3 1.6 6 1.3 8.7.6 10.3 1.3 9.3.3 3.5c.6-.1 1.3-.2 2.2-.2 1.7 0 3.1.4 4.2 1.1 1.1.8 1.9 1.9 2.2 3.4h5.4v1c0 .6.2 1.2.3 1.4 0 0 .5-.1 1.7-1.4l.3-.3 4.8-.2-.1 1c.3-.4.8-1 1.4-2l.2-.2c.3-.2 1.3-1 2.5-1 .4 0 .8.1 1.1.3 1.1.6 1.6 2 1.5 4.4 1 .5 2.2.9 3.2.9.4 0 .7-.1.9-.2.2-.1.6-.3.6-1.6v-.8l1.7-.5c-.2-2.8-.2-7 1.7-7.8.2-.1.5-.2.8-.2.8 0 1.7.5 2.7 1.6 0-.2 0-.8-.4-1.9-.2-.3-.5-.8-.5-1.6 0-1.3.8-2.7 2.3-4.2 0-.9.4-1.6 1-1.9.2-.1.4-.1.7-.1.6 0 1.2.3 2 .9.9-1 2.5-3.1 4.3-6.1l.1-9.5 1.4-4.3-.1-.3h.2l.2-.6-1.7-13.3-1.2-7.5c-6.5.5-10.9 9.3-10.9 9.3-3.5-.9-13 3.5-13 3.5l-2.1-2.7-4.9 1zM629.6 326.6c-2.2-2.2-4-11.9-4-11.9.4-8.4-7.1-4-7.1-4-4.9 8.4-7.1 8-7.1 8-5.7-7.1 1.3-8 1.3-8l1.3-4.4c3.1-3.1 0-8.4 0-8.4-2.2-1.3-1.8-4-1.8-4 4-1.8 0-6.2 0-6.2-1.3.4-5.3 0-5.3 0-6.6-5.7-7.1-2.2-7.1-2.2-7.1-6.2-6.2 1.8-6.2 1.8 4.9 1.8-3.5 4.9-3.5 4.9 1.3 7.1-3.1 8.4-3.1 8.4v-8l-1.8 3.5c-5.7 1.8-2.7 5.3-2.7 5.3-4-1.3-2.2 3.5-2.2 3.5-3.1 8.4-1.8 16.3-1.8 16.3 10.7 23 2.2 26.9 2.2 26.9-.4.6-.7 1.1-1 1.6 1.6 0 3.6-.2 5.6-.6H590.7l4.5-.7 6.1.7 4.7-.7 8.2-1.6 6.9-1.3c.9-1.4 2.1-1.7 2.1-1.7-2.2-4.4 2.7-8 2.7-8 2.2-7.5 3.5-1.8 3.5-1.8 2.9-.8.2-7.4.2-7.4zM578.4 279.6c2.2 1.2 5.3 0 5.3 0 3.1-5.4 6.2-1.2 6.2-1.2 4.4 2.7 8.4 0 8.4 0 .9-2.2 6.6 0 6.6 0l-4-3.8v-5c-7.5 3.1-10.6.9-10.6.9v-4.4l-4.9 2.7c-7.1-3.5-14.6 5.9-14.6 5.9-4.4-6-8.4 0-8.4 0-1.8-8.2-7.5-7.7-7.5-7.7-9.3 4.4-6.2 1.8-6.2 1.8-.4-5.3 8-11.5 8-11.5-2.2-.4-7.5 2.2-7.5 2.2-7.1 10.6-15.5 10.2-15.5 10.2-.6 2.7-3.1 3.9-5.8 4.5.4.5 1 1.2 2.2 1.2h.1l7.4 1.7 3.1.5 2.7 1.5 10.8 1.5-.9 1.4s-.1.2 0 .4.6.9 3.9 1.1l.9.1 1 9.2 3 2.6c2.7-5.3 5.6-10.3 5.6-10.3 7.5-3.1 8.4-.4 8.4-.4 3.5 2.1 2.3-5.1 2.3-5.1zM654.5 431.9c7.8-1.1 66.1-9.1 78.7-13.8l-1.3-2.6c-3-1.3-5 3.3-5 3.3-2.2-.2-7.4-7.4-7.4-7.4-.7-4.3 4.8 3 4.8 3 3.5 2.4 3.5 0 3.5 0-7.2-7.8-1.5-6.5-1.5-6.5-1.7-3.5-1.1-7.8-1.1-7.8-2.8-.6-4-2.9-4.4-5.1l-10.7-1.3h-.1c-2.4-.9-3.7-2.2-4-3.8-.3-1.9 1.4-3.6 2.1-4.2.2-1.4 0-2.4-.7-3.1-1.1-1.2-3.1-1.3-3.9-1.3h-.6l-1 .1-.1-1c-.2-1.6-.8-2.8-1.5-3.3-.2-.1-.3-.2-.5-.2v1.1l-1.4 3.7-6.9-3.3-1 4.8-1.1-.9c-.2.5-.6 1.7-.8 3.2l-.1.5-2 1.3v2.6h-3l-1 7.3H678l-.3-.6c-.6-1.2-1.1-1.9-1.3-2.2-.1.6-.3 1.8-.2 3.3v.3l-2.6 4.9-2.1 7.3c.4 1.4.4 2.5-.1 3.4-.3.7-.9 1.1-1.2 1.3-1.7 1.9-4.5 2.2-5.9 2.3-.7 2.5-1.7 4.1-3.1 4.6-.4.1-.8.2-1.2.2-1 0-1.8-.5-1.9-.6l-.4-.3-.1-.4c-.1-.4-.2-.5-.2-.5-.7 0-2.4 1.1-3.6 2.4l-.4.4-.5-.1c-3.4-.4-5.7-2.8-6.8-4.3l-8.2 8.1v4.1l-4.4 3.2c.9-.1 1.3-.2 1.4-.2l14.6-1.7c.6-.7 1.7-1.8 2.9-1.8.2 0 .5 0 .7.1.7.4 1.1.8 1.4 1.5zM371.9 436.9h2.3c.5-4.6 3-28.8 2-34.5-.3-2.8.5-10.6 1.2-18 .6-6.1 1.2-12.4 1.2-14.9l-24.1-2h-.7c-6 0-37.3-3.9-63.3-7.2l-8.8 66.4c8.7 1.4 68.2 10.2 90.2 10.2zM228.1 225.6c1.3 1.1 3.3 3.8 1.5 10 .5 1.4 1.6 3.1 2.8 3.5l.6.1.2.5c.7 2.3 3.1 8.7 5.2 10.1 1 .4 4.1 1.7 4.5 4 .2 1.3-.5 2.6-2.1 3.7-1.6 3.5-4 10-2.9 12.9.1.3.3.6.5.8 1.3-1.3 3.3-3 5-3 .4 0 .7.1 1 .2 1.4.7 1.6 2.8.8 6.6.6 3.3 2.3 8.6 4.1 9.9h.2c.4 0 .8.1 1.2.3 1.4.9 2 3.3 1.8 7.5.3-.3.7-.7 1.1-1.2l.4-.5.7.2s2 .5 4.3.5c.8 0 1.6-.1 2.4-.2h.4c.7 0 3 .1 5 1.4.9-1.3 2.5-3 4.4-3h.4c1.1.2 2 .8 2.7 2.1l.8-5.9 84.4 10.3c.5-2.9 1.7-10.2 2.1-14.3v-.1c.2-3.3 1-14.3 1.1-17.7v-.8c0-.7.3-3.5.8-7.8.8-7.4 2.3-20.4 2.3-24.7-34.5-3.3-64.1-6.6-64.1-6.6-23.7-3.7-48.3-8.7-70.3-13.6-1 3.7-2.5 12-3.3 14.8zM192.3 322.4l9.2-34.1c-2.4-.8-3.5-1.6-3.5-2.7 0-.5.3-1 .8-1.4-1-3.9 4.8-7.5 5.1-7.7l.2-.1h.3c.5 0 .6-.2.7-.3.4-.5.4-1.6.3-2.1l-.1-.5.4-.4c.6-.6 3.4-4.3 5.2-6.7l.2-.2c1.5-1.1.9-2.7.6-3.4-1.7-1-2.6-3.1-3.1-4.9l-16.3-3.2-.2-.5c-.2-.5-2.6-1.2-7-1.2H183l-.3-.2c-.1-.1-.8-.5-5.6-.5-1.3 0-2.7 0-4 .1-1.3.4-2.5.6-3.6.6-1.6 0-2.5-.5-2.9-.7-.6-.2-1.4-.4-2.3-.4-1.8 0-3.6.5-3.7.5l-.6.2-.4-.5c-1.3-1.5-5-2.5-6.3-2.8l-.3-.1c-.9-.6-1.4-.7-1.8-.7-.1 0-.2 0-.3.1-.4.2-.6.7-.6.7l-.2.8H148c-7.4 0-9.5-4.6-9.6-4.8l-.2-.5.2-.4c1.2-2.2 1.5-4 1-5.5-.5-1.4-1.6-2.1-1.9-2.3-1.7-.3-2.9-1-3.5-2-.2-.4-.4-.8-.4-1.1-.4-.1-.9-.1-1.5-.1s-1.2.1-1.7.1l-1.2 6.6c.7 15.5-21.8 47-21.8 47l-1.5 10.7.3 2.8c7.7 3.7 54.5 14.8 86.1 21.8z"/><g><path d="M189.4 489.7c4-3 5.2-4.4 5.5-5h-.2c-.5 0-1 .1-1.5.2l-1.3.3v-8.4l.5-.3c3.4-2 2.6-6.7 2.6-6.8v-.3l.1-.2c1.2-3.9 4.9-5.6 5.8-6 .7-.5 1.5-1.3 1.5-2.1-.1-.8-1-1.5-1.5-1.8-1.9-1.2-2.9-7.6-3.3-10.6l-55-82.1 12.7-50.6c-19.8-4.7-41.4-10.1-49-13l.3 2.7c.9 9.8-7.2 18.5-7.2 18.5-3.7.7-3 5.9-3 5.9 8.7 21.8 1.1 17.2 1.1 17.2v7.8l6.1 12.6s-1.1 4.8 0 4.8 3.5 4.1 3.5 4.1l.9-2.6c5.9-3.5 3.3 2.4 3.3 2.4l-2-.4 1.7 2.8c2.6 9.8-2.4 4.1-2.4 4.1.2-10.9-2.6.4-2.6.4-1.5 3.5 2.4 10.5 2.4 10.5 7.6.2 2.4 7 2.4 7-3.7.9-2 5-2 5 1.1 0 3.9 5.5 3.9 5.5-1.7.7 1.5 6.7 1.5 6.7-.4 1.3 6.1 12.2 6.1 12.2l-2.6 8.5 1.1 2.8c12.6 1.5 15.9 7.2 15.9 7.2.9 4.6 4.1 5.4 4.1 5.4 7.6-.9 6.8 7 6.8 7 11.3 2 12 14.8 12 14.8v10l31.8 3.8z"/></g><g><path d="M215.3 417.8l-1.7-.3h-.2l-.4-.1-2.4 11.1c1.5 3.8 1.6 5.9.3 6.8-.3.2-.7.3-1.2.3-1.7 0-4.1-1.6-6-3.2-2.3 11.1-3.3 14.9-3.9 16.2.6 4.8 1.7 8.7 2.2 9.1 0 0 2.4 1.3 2.5 3.5.1 1.4-.7 2.8-2.4 4l-.2.1c-.1 0-3.6 1.3-4.7 4.5.1 1.2.4 5.8-3.1 8.3v4.6h.7c1.5 0 2.1.6 2.3 1.1.6 1.2-.1 2.7-4.7 6.4l-1.7 3 49.2 29.6 26.2 4 13-98.1c-8.7-.8-55-9.3-63.8-10.9z"/></g><g><path d="M264.1 356.9l-1.1-.1 3.1-17.5c-5.8-.3-20.4-3.1-35.1-6.2l-17.6 82.2 1.7.3c23.2 4.3 58 10.5 64.3 10.9l8.8-66.5c-9.3-1.2-17.8-2.3-24.1-3.1z"/></g><g><path d="M446.3 241.4c-.1 5.5.4 10.8 1.2 11.4.5.2 2.3 1.8 1.8 10.7 0 2.9.4 8.5 1.7 11.2.6 1.3.9 1.9.9 2.4.9 1.8 2 5.4 0 9.2v3.1l-.8.2c-1.5.3-2.1.8-2.2 1.1-.1.9 1.9 2.9 4.4 4.4l.5.3v31.1l17.2.2 29.5-1.5h16.1l-.7-5.2-7.5-5.1-.1-.4c-.4-2-3.4-3-3.5-3l-.5-.1-.2-.5c-.7-1.7-4.3-3.5-6.4-4.1l-.4-.1-.2-.4c-1.5-2.9-.1-9.3.1-10l.1-.2c.4-.8.8-1.9.4-2.6-.4-.7-1.6-1-2-1l-1-.1.1-1c.2-3.5 1.3-6.2 3.3-7.9 1.7-1.4 3.5-1.8 4.5-1.8l3.5-7.1c-1.9-.3-2.1-1.3-1.5-.9 1.3.9 11.9-10.2 11.9-10.2-1.3-5.3 17.2-13.2 17.2-13.2-6.6-4-9.7 0-9.7 0-3.5-.4-4-3.1-4-3.1-3.1 3.5-8.8 3.1-8.8 3.1-2.7-4.4-8.8-4.4-8.8-4.4-4.9-4.9-10.6-4.4-10.6-4.4-4 5.8-6.6 0-6.6 0-10.6.4-10.6-4-10.6-4 .4-9.3-4.4-8.8-4.4-8.8v8c-3.5.9-11.9 1.1-23.1.7 0 1-.1 2.4-.8 4z"/></g><g><path d="M131.2 229.5l-.3 1.9c.4 0 .8-.1 1.3-.1 1.2 0 2.2.2 3 .5l.9.4-.3.9s0 .2.1.5c.3.5 1.1.8 2.2 1h.2c.2.1 2.4 1 3.2 3.6.7 1.9.4 4.2-.9 6.7.6 1 2.6 3.1 7.4 3.1h.4c.3-.5.7-1.1 1.5-1.4.4-.2.7-.2 1.2-.2.8 0 1.7.3 2.6.8 1 .2 4.9 1.1 6.9 3 .7-.2 2.1-.4 3.6-.4 1.3 0 2.4.2 3.3.6l.2.1s.5.4 1.8.4c.9 0 1.9-.2 3.1-.5h.2c.7 0 2.4-.1 4.4-.1 3.3 0 5.4.2 6.4.7h1.7c4.5 0 7.3.6 8.4 1.9l14.6 2.9c-.1-.5-.1-.8-.1-1.1-1.1-4.4 7.6-37.7 9.9-46.6-34.7-8.1-60.1-15.2-60.1-15.2 3.3 5.9 1.5 10.2 1.5 10.2.4 1.5-.7 3-.7 3 2.6 11.3-2.8.9-2.8.9-.9-2.4 1.7-3 1.7-3-3.5-2.8-3 3.3-3 3.3-10.2-.2-18.5-8.7-18.5-8.7-5.9-6.5-2.8 7-2.8 7l.2 12.6c.2 3.3 3 4.6 3 4.6-6.8-.4-3.9 2.4-3.9 2.4 5 2.4-1.5 4.3-1.5 4.3z"/></g></g></g><g class="st0"><path d="M339.1 622.9s-2.1-5.1 1.5-1.8c0 0 3.5 1.4 5.4 1.8 0 0 2.1 1.7 3.3 1.9 0 0 1.9.3 3 5.5 0 0 1.2 1.5 3.2 1.7 0 0-1.1 2.8-4.1 3.6 0 0-4.1 1.8-4.4.8 0 0-4.5 3.4-4.1 5 0 0-2.1 2.2-4.5-.7 0 0-.6-4.1 0-4.7 0 0-1.5-6.5-2.7-6.7v-2s2.9-1 3.5-2.9l-.1-1.5zM329.2 613.9s2.6 0 5.2-1c0 0 4.8-2.8 0-2.8 0 0 1.1-2.3-5.2-1.8 0 0-2.3-1.5-2.3-1.9 0 0-2.2-.4-1.9 1 0 0-.2 1.9.8 2.2 0 .2 3.4 2.8 3.4 4.3zM321.1 611.5s1.8-.5 1.8-1.3c0 0-.2-1.5-.9-1.6h-3.1s.8.7.9 1.6c0 0 0 1 1.3 1.3zM315.7 603.5s2.8.9 4.2 0c0 0 4.5-.9 4.4.4 0 0 .6 1.8-3.4 2.6 0 0 .1-1.1-4.5-1.1 0-.1-2.5-1.2-.7-1.9zM308.9 600.9c.5-.4 0 1.3 0 1.3-1.3.8-3.4 0-3.4 0 .8-1.4-1.1-.8-1.1-.8-1.1.3-3.2-.6-3.2-.6-1.3-.6-1.3-3.3-1.3-3.3-.3-2.2 4-2.8 4-2.8 2.4.2 2.3 4.1 2.3 4.1s1.5 3 2.7 2.1zM282 588.8s.5 3-2.4 3c0 0-4.1-1.4-4.7-2.3 0 0 .3-3.5 2.7-3.3h2.5c0-.1 3.2-.2 1.9 2.6zM269.7 591.7s-2.1 2-2.5 1.7-.5-.3-.5-.3.5-2.4 1.5-2.5c0 0 2-1.4 2.3-.6 0 0-.2 1.2-.8 1.7z"/></g><g class="st0"><path d="M664.8 335l8.5-2.3 22.2-4.4 10-1.7 7.6-1.5c.5-.2 3-1.1 5.3-1.1 1 0 1.9.2 2.5.6.5.3.9.7 1.1 1.2l2-.1.1 1c0 .2.5 4.8 4.6 5.1h.2l2.9 1.2c.1 0 6.5 2.9 10.8 3.7.8-2.9-.2-11.9-1.2-18l.1-12.8-3-10.9c-1.3-.3-2.2-1-2.7-1.9-.6-1.1-.4-2.4-.2-3.2-1.4-1.3-2.2-4.5-2.5-5.4l-.1-.3.1-.3c.4-1.4.2-3.9 0-5-1.1-.9-1.8-3.4-2.3-7.7-5.5 1.1-5.5 3.4-5.5 3.4-10.6-.7-11.9 3.8-11.9 3.8-2.2 4-11.9 15-11.9 15 4 1.3 3.5 5.3 3.5 5.3 1.8 1.3 4.9 7.1 0 5.7-4.9-1.3-5.7 6.2-5.7 6.2-5.7-1.3-8.4 2.2-8.4 2.2-4.9-4.4-11 0-11 0-16.3-1.8-5.3 8.8-5.3 8.8 4.4 1.3-9.7 11.5-9.7 12.4 0 .1-.1.2-.2.3v.7zM762.6 333.6c-.4 2.4-9.4 5.4-9.4 5.4-4.8-.4-5.4 2-5.4 2-.8.8-1.4 1.3-1.8 1.6l-1.6 4.7c11.7-.9 21.2-13.2 21.2-13.2l-3-.5z"/></g><path d="M580.4 561.2V189L544 170.8s-13.2 0-16.5 8.3c0 0-31.4-19.9-38-8.3-6.6 11.6-26.5-23.2-26.5-23.2h-36.4s-8.3-16.5-8.3-26.5c0 0-14.9 13.2-23.2 0 0 0 13.2-5-24.8-23.2 0 0-5 19.9-21.5 14.9l-23.2-3.3s-8.3 18.2-36.4 14.9c0 0-16.5 13.2-29.8 31.4 0 0-18.2 11.6-43 3.3 0 0-21.5 11.6-8.3 21.5 0 0 39.7 41.4 18.2 52.9 0 0 23.2 1.7 14.9 19.9 0 0 36.4 48-11.6 26.5 0 0-46.3-6.6-14.9-28.1l-28.1-1.7s-5 16.5-26.5 8.3h-23.2s5 18.2 19.9 21.5c0 0-16.5 39.7 13.2 49.6 0 0 16.5-5 38 0 0 0 9.9 9.9 23.2 0 0 0 28.1-3.3 8.3 21.5 0 0-1.7 38-26.5 36.4 0 0-13.2-14.9-24.8 3.3 0 0-13.2 3.3-23.2-11.6 0 0-16.5 3.3-19.9 11.6 0 0-21.5 31.4-29.8 26.5 0 0-18.2 24.8 0 29.8 0 0 10.3 11.6-8.1 26.5 0 0 11.4 19.9 16.4 36.4h24.8l8.3-8.3s21.5 36.4-3.3 39.7c0 0 8.3 33.1 0 33.1 0 0 26.5-24.8 34.7 0 0 0 14.9-8.3 18.2 26.5 0 0-1.7-26.5 16.5-11.6 0 0 36.4-6.6 14.9 11.6 0 0-13.2 46.3-31.4 44.7 0 0-18.2 9.9-13.2 18.2 0 0-41.4 0-54.6 19.9 0 0-17.8-14.9-31.2 0 0 0-34.9 21.5-53.1 14.9 0 0-59.6 3.7 0 15.9 0 0 19 7.2 31.4-9.3 0 0 6.6 1.7 29.8-9.9 0 0 24.8 11.6 48-5 0 0 52.9 9.9 24.8-11.6 0 0 19.9-11.6 33.1-9.9 0 0 57.9-21.5 66.2-29.8 0 0 51.3-28.1 24.8-41.4 0 0-13.2-24.8 13.2-26.5 0 0 13.2 8.3 29.8-28.1 0 0 26.5-48 54.6-14.9 0 0 23.2 3.3-23.2 9.9 0 0-29.8 38-23.2 39.7 0 0 28.1 3.3-3.3 13.2 0 0-5 8.3 21.5 6.6 0 0 36.4-23.2 29.8-28.1l6.6 5s18.2-9.9 21.5 3.3l-1.7-36.4s43-23.2 49.6 19.9c0 0 23.2 5 33.1 18.2 0 0 46.3-9.9 59.6 16.5 0 0 19.9 0 26.5-5 0 0 9.9-16.5 0 13.2 0 0 62.9 33.1 69.5 48 0 0 10 .7 0 14.6 0 0 12.4 4.3 12.4 9.6v5.3s32 36.3 29.9 46.9c0 0 12.8 14.9 22.4 0 0 0 17.1 3.2 10.7 16l11.7 8.5v16l11.7 19.2s1.1-13.5 16 0c0 0-27.7-59.7 13.9-27.7 0 0 14.9-2.9 14.9 19.2 0 0 36.3-32 0-61.9 0 0-36.3-4.3-40.5-16 0 0 5.3-13.9-24.5-34.1 0 0-8.5-30.9-34.1-43.7 0 0-4.3-7.5-14.9-19.2 0 0-20.3-40.5-29.9 11.7 0 0-20.3 19.2-25.6 0 0 0-19.2-25.6-30.9-33.1s-1.1-13.9-1.1-13.9-19.2 5.3-23.5 6.4-14.4 6.7-14.4-14.7z"/><g class="st0"><path d="M438 634.3c-.9 0-1.9-.4-2.9-1.2l-.2-.2v-.3s0-.6-.5-1.2c-.6-.6-1.9-1.3-4.8-1.3h-1.1c-.1 0-.4.1-.8.1-1.1 0-3.3-.4-5.9-3.2-1.6-.2-10.7-1.5-11-8.3 0-.1.2-1.8-.7-3-.6-.8-1.5-1.3-2.7-1.4l-.7-.1.3-.6c.4-1.1 1.2-4.1-.2-5l-.4-.2.2-.4s.9-2.1.1-3.6c-.5-.9-1.4-1.5-2.7-1.7h-.2l-.1-.1c-1.5-1.8-6.1-7.4-6.8-10.1h-.1c-1.5 0-2.7-2.2-3.4-6.5-.6-1-3.8-6.6-3-9.4-10.6-10.3-11.1-11.8-11-12.3-1 .2-2.5.3-4.3.3-3.6 0-6.7-.7-9.1-2.1-.9.8-3.2 2.9-4.8 3.1-.4.4-1.9 2.3-5.4 8.7 0 .1-1.5 3.3-4.3 3.3-1.3 0-2.7-.8-4-2.3-.1-.1-3.5-4.7-10-7.3 0 0-8.2-1.8-6.2-15.5-.2-.8-2.1-6.9-9.8-12l-.1-.1-.1-.1c0-.1-3.9-7.7-9.5-9.8l-.3-.1v-.4c0-.2-.3-4.6-4.6-6l-23.4-2.8-1.7 8.5-41.8-6.4-49.8-30 1.6-2.8-34.3-3.9v-10.5c0-.5-.8-12.4-11.6-14.3l-.5-.1.1-.5s.3-3.1-1.4-5c-.9-1-2.1-1.4-3.7-1.4-.3 0-.7 0-1.1.1h-.2c-.1 0-3.6-1-4.5-5.8-.4-.6-4-5.5-15.4-6.9h-.3l-1.3-3.3 2.6-8.4c-2.3-3.9-6-10.3-6.1-12.1-.6-1.1-2.5-4.9-1.9-6.6.1-.2.1-.3.2-.4-1.2-2.3-2.7-4.6-3.3-4.8h-.4l-.1-.3c0-.1-.9-2.3-.1-4 .4-.8 1.2-1.4 2.2-1.7.7-.9 2-3.2 1.4-4.6-.4-.9-1.6-1.3-3.4-1.4h-.3l-.2-.3c-.2-.3-4.1-7.3-2.4-10.9 1.4-5.5 2.2-5.5 2.6-5.5.2 0 .4.1.5.2.3.3.6 1.2.6 4.8.6.6 1.4 1.3 1.8 1.3.2-.2.6-1.1-.5-5l-2.4-3.8-.9 2.8-.6-1.1c-1.1-2-2.6-3.8-3-3.9-.3 0-.5-.1-.7-.3-.7-.8-.2-3.6.1-4.9l-6.1-12.6v-8.9l.8.5s.6.3 1.1.3c.3 0 .6-.1.8-.4.7-1 1.1-4.4-3.8-16.5v-.2c-.2-1.9.1-5.7 3.3-6.4 1-1.1 7.7-9.2 6.9-18l-.9-7.9L107 287l.1-.1c.2-.3 22.3-31.6 21.7-46.7v-.1l2-11.1.3-.1c1.1-.3 2.9-1.2 2.9-2 0-.5-.6-1-1.7-1.6h-.1l-.1-.1c-.1-.1-1.1-1.1-.6-2.1.3-.8 1.4-1.2 3.2-1.3-.8-.8-1.7-2.1-1.9-4l-.2-12.6c-.3-1.3-1.5-7.2-.2-8.8.3-.3.6-.5 1.1-.5.8 0 1.7.6 2.9 2 .1.1 7.9 8 17.5 8.5 0-.9.1-2.6.9-3.5.3-.3.7-.5 1.2-.5.6 0 1.2.3 1.9.9l.8.7-1.1.3s-1 .3-1.4 1c-.2.4-.2.8 0 1.4.8 1.5 1.9 3.3 2.5 3.9 0-.5-.1-1.6-.7-4.4l-.1-.2.1-.2s.9-1.3.6-2.6l-.1-.2.1-.2s1.7-4.2-1.5-9.7l-.6-1.2 1.3.4c.8.2 76.3 21.3 143.5 31.8 1.1.1 115 12.8 155.9 12.8 5.8 0 9.9-.3 12.2-.8v-8l.5-.1h.2c.4 0 1.7.1 2.9 1.3 1.5 1.6 2.2 4.3 2 8.1 0 0 .2 3.4 8.6 3.4H485.4l.2.3s1.1 2.3 2.7 2.3c.9 0 2-.8 3-2.3l.1-.2h.8c1.4 0 6.2.3 10.4 4.4 1.2 0 6.3.5 8.9 4.4h.3c1.6 0 5.5-.3 7.8-2.9l.8-.9.2 1.1c0 .1.4 2.2 3.2 2.6.5-.5 2-1.7 4.5-1.7 1.8 0 3.7.6 5.7 1.8l.9.6-1 .4c-5 2.2-17.9 8.6-16.9 12.6l.1.3-.2.2c-2.1 2.1-8.3 8.5-11.2 10.1.4.1.8.1 1.4.1 2.3 0 6.7-.9 14.4-5.3l.1-.1h.2c.4 0 .8.2 1 .6.3.5.5 1.6-1.4 4.9h1.5c3.5 0 9.4-.6 10.3-4.6l.1-.5h.6c.8 0 8.4-.3 14.9-9.9l.1-.1.1-.1c.2-.1 4.7-2.3 7.2-2.3.2 0 .5 0 .7.1l1.2.2-1 .7c-.1.1-8.1 6.1-7.7 11v.1c.8-.3 2.4-.9 5.4-2.3h.5c1 0 5.7.4 7.6 7 .8-.9 2.2-2 4-2 1.5 0 2.9.8 4.2 2.3 1.4-1.6 6.1-6.4 11.2-6.4 1.2 0 2.3.2 3.3.7l5.4-3v5c.4.2 1.4.5 2.9.5 2 0 4.3-.5 6.9-1.6l.8-.3v5.6l3.8 3.6-.6.9s-2.5-.9-4.3-.9c-.9 0-1.4.2-1.6.6l-.1.2-.1.1c-.1.1-1.9 1.3-4.6 1.3-1.5 0-3-.4-4.4-1.3l-.1-.1-.1-.1s-1-1.4-2.3-1.4c-1 0-2 .8-3 2.5l-.1.2-.2.1c-.1 0-1.5.6-3.1.6-.6 0-1.2-.1-1.7-.2.1 1.3.2 3.6-.6 4.6-.3.4-.7.5-1.2.5-.4 0-.9-.2-1.4-.5l-.2-.1-.1-.2s-.3-.7-2-.7c-1.4 0-3.2.5-5.5 1.4-3 5.1-10.3 18.4-9.6 21.4 0 .1.1.2.1.2.4 0 3-.8 10.3-13l1 .5c-2.6 6.4-8.6 24-6.2 27.8l.1.2-.1.2c0 .1-3.4 10.4-.1 15l.1.2v.2c-.1 2.6 0 9.8 1.5 11.3.2.2.3.2.4.2.1 0 .2 0 .4-.1l.6-.3.2.7c0 .1 1.4 6.1 4.9 6.1 1.7 0 4.5-1.4 8.7-8.1l.1-.1.1-.1c.1 0 7.8-4.1-2.5-26.2v-.2c-.1-.3-1.3-8.1 1.7-16.4-.2-.6-.7-2.5 0-3.6.2-.3.7-.7 1.6-.7h.1c-.2-.6-.4-1.3-.2-2.1.4-1.2 1.5-2.2 3.5-2.9l1.7-3.3 1 .2v7.1c1.1-.7 2.9-2.6 2-7.4l-.1-.5.4-.2c2.3-.8 4.7-2.2 4.7-3 0-.3-.4-.6-1.2-.8l-.3-.1v-.3c0-.3-.3-2.8.9-4 .4-.5 1-.7 1.6-.7 1.1 0 2.4.7 4.1 2 .3-.4.8-.7 1.6-.7 1.4 0 3.3 1.1 5.9 3.3.5 0 1.9.2 3.1.2 1.1 0 1.6-.1 1.8-.2l.3-.1.2.3c.1.1 2.3 2.6 1.8 4.8-.2.9-.8 1.6-1.7 2.1 0 .6 0 2.3 1.5 3.1l.1.1.1.1c.1.2 3.2 5.6 0 9l-1.4 4.6h-.4s-2.3.3-2.9 1.9c-.5 1.2.1 2.9 1.8 5 .5-.2 2.6-1.2 6.4-7.7l.1-.1.1-.1c.1-.1 2.1-1.2 4.1-1.2 1.1 0 2 .3 2.6 1 .9.9 1.3 2.5 1.2 4.6.5 2.7 2.1 9.9 3.8 11.6l.1.1v.1c.2.5 1.9 4.9.9 7.1-.3.6-.7.9-1.2 1.1l-.6.2-.1-.6c-.2-.9-.6-1.6-.8-1.7 0 0-.7.1-1.7 3.5l-.1.2-.2.1c-.2.1-4.5 3.3-2.5 7.3l.3.6-.6.2c-.1 0-2.6.8-2.7 4.6l3.2 3.2 4.9-.9 2 2.6c1.7-.8 8-3.5 11.7-3.5.3 0 .6 0 .8.1 1-1.8 5.4-9.2 11.8-9.2h.3c4.1-2.9 8.5-6.3 8.9-7.1.1-.4.6-1 3-3 2.6-2.2 7.9-6.9 7.6-8.4 0-.1 0-.2-.5-.3h-.1l-.1-.1c-.5-.5-4.8-4.7-3.6-7.6.6-1.6 2.6-2.3 6-2.3.9 0 2 .1 3.2.2.7-.4 3.2-1.9 6.2-1.9 1.9 0 3.5.6 5 1.7.8-.8 2.7-2.3 6-2.3.7 0 1.3.1 2 .2.3-1.7 1.5-6.2 5.1-6.2.4 0 .8.1 1.2.2.4.1.8.2 1.1.2.6 0 .7-.3.8-.4.4-1.1-1.3-3.8-2.3-4.6l-.2-.2v-.3c0-.1.3-3.6-3.2-4.7l-.8-.3.5-.6c.1-.1 9.6-11 11.8-14.9.2-.6 1.9-4.2 10.3-4.2h1.7c.4-1 1.9-3 8.3-3.7l21.5-4.3c-.1-1.3-.3-4.7 1-6.3.5-.5 1.1-.8 1.8-.8s1.5.3 2.3.8h2c.1-2.3.7-11.2 5.6-13.2h.1c.3-.1.7-.2.7-.3 0 0-.4-.8-4.8-2.1l-.4-.1v-.4c0-.2 0-5.5 2.9-5.8.3-.6 1-2.4-.6-5.4l-.1-.2.1-.2c.6-2.4 3.7-14.5 6.1-15.4.3-.1.5-.2.7-.2.3 0 .5.1.6.2.2.3.2.6.2.9 0 .7-.1 2 3.5 2.5 1.5-.7 4-2.1 4.2-3.3.1-.3 0-.5-.2-.7l.7-.8 8.2 4.1 6.1 22.2c.4-.1 1.1-.3 1.8-.3 1.8 0 4.9 1 5.5 7.6 0 .3.1.6.5.6.3 0 1.1-.2 2.6-1.4l.3-.2.3.2c.1.1 2.1 1.4 2.5 4.1.3 2.1-.5 4.5-2.4 6.9l-7.1 5.7-.3-.4s-.2-.2-.8-.2c-.8 0-2.6.5-5.9 3.8l-.5.5-.3-.7c-.3-.6-1-1.5-1.4-1.5-.2 0-1.5.2-2 8.5v.4l-.4.1s-3.9 1-3.6 3.2v.3l-.2.2c-.1.1-2.2 2.6-5.6 2.6-.3 0-.6 0-.9-.1-.3 2.7-1.5 12.6-3.3 15-.2.4-1.4 3.3.8 6.1l.2.3-.1.3c-.7 1.7-1.6 4.8-.9 5.9.1.2.4.4 1 .4.3 0 .6-.1 1-.2 0 0 .2-.1.4-.1 1 0 3.1.8 5.9 6.4v.2c0 .1.2.7 1.1.7.8 0 2.3-.4 5-2.6l.7-.5 1 4.3-.6.1c-2.5.2-6.7 1.2-7.1 2.9l-.4 1.5-.6-1.4c-.3-.6-1.1-1.9-1.7-1.9-.2 0-1.1.2-2 3.3v.2l-.1.1c-.3.3-3 2.5-4.8 2.5-.2 0-.3 0-.5-.1-.4.4-1.3 1.4-1.8 2.4l-.1.2-.2.1c-.8.3-7.7 3.3-9.6 3.3h-.2c-1 .3-8.4 2.4-13.7 8.5-.6 1.1-1.1 2.4-1.3 3 .3-.2.8-.6 1.7-1.4.2-.5 1.2-2.3 4.8-2.3h1c3.6-1.2 8.6-3.6 8.9-5l.1-.5 4.5.6-.6.7c-.4.5-10.3 13.2-22.5 13.5-.8.3-1.6.9-1.6 1.1 0 0 .3.4 2.6.6h.4l.9 9.8c0 .5-.9 10.3-4.6 13-.2 1.4-.9 5.6-2.8 6.1l-.6.1-.7-4.7c-1.2-.1-4.6-.6-8.9-3.8.4 1 1 2.1 1.9 2.9l.1.1.1.1c1.6 3.3 4.9 8.5 6.7 8.6h.3l1.5 3.9-.2 8.5-.3.2c-.2.1-4.5 2.5-4.1 8.4 0 .7.4 6.4-1.3 8.2-.3.4-.7.5-1.2.5s-1-.2-1.5-.6l-.2-.1v-.2c-.2-1.5-.9-9.3.7-11 .2-.2.4-.4.6-.4.3-.5.7-1.5.5-2.2-.2-.4-.7-.8-1.5-.9l-.6-.1.1-.6s.3-1.1-.4-2c-.6-.7-1.7-1.1-3.2-1.1-.4 0-.8 0-1.2.1h-.4c-.9 0-3-.5-3.9-4.8l-.1-.5.5-.1c.8-.2 1.5-.7 1.5-1 0 0 0-.4-1.6-1.1l-.2-.1-1.1-2.2 2-.3c-.1-1.5-.5-4-1.5-4.2l-.7-.1.3-.6c1-2 1.7-4.1 1.8-4.9-.2.1-.6.4-1.3 1.1l-.1.1h-.1c-.3.1-2.7.9-1.8 4.1.3 2 1 6.5.1 7.5-.1.1-.2.2-.3.2.1 1.6.7 4.2 2.3 4.5l.5.1-.1.5c0 .1-1 7.7 4.1 8.8l.5.1-.1.5s-.6 4.2 1 7.5l.5 1-1.1-.3s-.3-.1-.7-.1c-.2 0-.7 0-.8.3-.1.2-.3 1.3 3.5 5.4l.1.2v.2c0 .6-.4 1.6-1.6 1.6-.7 0-1.6-.4-2.8-1.2l-.1-.1-.1-.1c-1.5-2-3.2-3.8-3.9-4.1v.6c1.8 2.5 5 6.3 6.6 6.9.5-1 2-3.4 4.2-3.4.4 0 .9.1 1.3.3l.2.1 6.6 12.8c.1.1.3.6.1 1.1-.1.1-.3.4-.8.4-.4 0-1.2-.2-3.6-1.6h-.1v-.1h-.3c-.5 0-1.6.2-3.8 1.7-2.1 1.4-4 2.9-4.5 3.5h.2c.8 0 2.4-.3 4.6-1 .6-.5 2.2-1.8 3.2-1.8.4 0 .7.2.8.5l.1.2v.2c0 .2 0 .4.1.5h.1c.2 0 .7-.1 2-1.1l.4-.3.3.3c.1.1 2.9 2.6 2.7 5 0 .9-.5 1.6-1.3 2.2l-.1.1h-.1s-1.5.4-2.8 5.1l.7.2-.3.1c-.1 0-2.4.5-4.2.5h-.8c.6 1.3 1.2 3.5.3 5.4 1.2.3 3.4 1.2 3.6 2.6.2 1.1-.5 2.1-2.2 3.2l-.1.1h-.1c-.1 0-8.5.7-12.6 7.6v.1l-.1.1s-4.8 4-3.9 9.1l.1.6h-.6c-3.1.1-7.8.8-8.2 2v.1l-.1.1c-.1.1-7.4 6.6-6.4 11.5l.1.7h-.7c-.2.1-.8.9-.5 4l.1.7-.7-.2h-.6c-1.3 0-2.9.6-3.1 3.5v.3l-.3.1c-.9.4-3.4 1.9-3.4 3.2v.4l-.3.1c-1.6.6-3.8 2-3.6 2.8l.2.7h-2.2c.1.4.2.8.2 1.4-.1 2-1.7 4.3-4.8 6.7-.4.7-3.3 6-4.7 14.3v.2c0 .1-2.7 6.1 2.2 18.3.1.2 7.2 18.6 11.7 21.1h.2c.1.1 3.5 3.3 5.1 5.5l.4.5-.6.3s-2 1.3 1.5 8c.5.7 12.7 18 11.8 23.6-.3 3.9-.5 10.6.5 11.8l.4.5-.5.3c-.1.1-3.1 2.1-1.9 6.8l.1.2-.1.2c-.1.2-2.8 4.1-7.1 5h-.2l-.2-.1s-.7-.3-1.5-.3c-.9 0-1.3.4-1.5 1.2l-.1.4h-.4c-.4 0-1.3-.1-2-.9-.9-1-1.3-2.7-1.2-5-1-2-3.9-6.7-6.3-6.7h-.4c-.2.4-.6.8-1.3.8-1.2 0-2.7-1.5-4.6-4.5l-.1-.2v-.2c0-.1.3-3.5-3.8-5.1l-.4-.2.1-.4c.5-3.2.5-6.3 0-6.6 0 0-.6.1-2.2 2.9l-.4.6-.5-.5c-5.7-6.2-8.6-9.7-8.6-10.4v-1.1l.2-.2c2.7-2.4 4.9-5 4.8-5.7-1.4-.7-3.7-1.6-4.7-1.7.1.2.2.5.4.7.6 1 1.5 2.6.3 4.3l-.4.5-.5-.4c-.2-.2-4.6-4.2-3.4-10.7.8-2.4 2.2-8.8.1-10.9-.6-.1-1.7-.6-2.6-3.2-.6-.2-2.3-.9-3.6-.9-.3 0-.8 0-.9.3l-1 1.8v-2.1c0-1.2-.3-3.1-1.1-3.2-.2 0-2.4-.7-3.4-3.8-.8-.2-3-1.1-5.1-3.9-1.9-.3-4-.8-4.6-1.7-1.1 0-4.5.3-5.6 3.8-.1.2-3.3 5.7-12 6.2l-1.2.1.8-1s.5-.6.2-1.6c-.3-1.1-1.7-2.8-6.3-4.6-.1-.1-6.3-3.2-9-3.2-.1 0-1.3-.1-3.2-.1-3.6 0-8.9.4-13.4 2.3h-.2c-2.7.5-5.9 1.3-6.5 1.8l-.1.1-1-.3c0-.1 0-.3.2-.5.6-1.2 1-2.9.5-3.8-.6-1.3-1.7-3.1-2.6-3.1-.3 0-1.3.4-2.1 5.1l-.1.4-4.1.2v1.3l-4.9.5-.1-.5c0-.1-.3-1.2-1.5-1.2-.8 0-1.7.4-2.9 1.1l-.4.2-.3-.3s-.6-.6-1.6-.6c-1.5 0-3 1.4-4.5 4l-.1.1-.1.1c-1.6.8-4.2 2.6-4.2 3.8 0 .4.3.8 1 1.1 0 0 .5.4 1.1.4 1.3 0 2-1.8 2.3-3.4l.1-.5h.5c.1 0 1.6.1 2.4 1.3.6.8.7 2 .3 3.3l-.1.2-.2.1c-.3.1-2.4 1.4-3.6 1.6-.3.7-.9 2-.5 2.8.2.4.6.7 1.2.9 1.1.1 6.8 1 7.7 3.3.4.4 1.3 1.5.9 2.5-.3.7-1.1 1.1-2.6 1.1-.4 0-.9 0-1.4-.1h-.3l-.1-.2s-2.3-3.5-5.7-3.5h-1l-.2-.4c-.2-.5-.9-1.7-1.7-2.2l-2.2 1.2c.2 1.1.4 3.5-.5 4.5-.3.3-.7.5-1.1.5-.6 0-1.2-.3-2-1l-.1-.1-.1-.1c-.2-.4-.8-1.1-1.2-1.1-.3 0-.7.4-.9.7l-.2.3h-.4c-.8 0-2.8.2-2.8 2.3v.3l-.3.2s-.9.5-2.3.5c-1.3 0-3.2-.4-5.5-2.3l-.3-.2.1-.3s.5-2.2-.6-3.7c-.7-.9-1.9-1.3-3.6-1.3h-.8l-.1-.5c0-.1-.4-2.8-2.5-2.8-.7 0-1.5.3-2.4.8l-.3.2-.3-.3c-.6-.5-1.8-1.4-2.4-1.4-.2 0-.2.1-.3.1-.1.2-.5.9.3 3.8l.2.7h-1.2c-2.7 0-11.8-.2-14.8-3.1-.4-.1-1.7-.4-3.7-.4-4.3 0-11.3 1.1-20.4 6.4l.7 2-.4.2c-.1 0-6 3.3-9 7.7l-.1.1-.2.1c-5.1 2-13.1 5.4-14.1 6.8-1.8 1.5-7.5 6.2-9.3 6.4-1.5 1.3-14.8 14-5.8 34.3l.1.2-.1.2c0 1.2-1.2 3.8-3.6 3.8zM111 375.9c.3-.8.5-1.8.3-2.2 0 0-.1-.1-.4-.1-.4 0-1.1.2-2.4.9l-.3.8 2.8.6z"/></g><g class="st0"><path class="st2" d="M289.4 359.4l-22 165.7M524 272s2.3.8 2.6 1.8c0 0 .9 2.4 3.5 2.5l7.3 1.7 2.9.5 2.8 1.6 9.3 1.3s-1.8 2.7 4.7 3.1l1 8.8 2 1.8M525.8 341.9l9.9-.3 8.3-.4 8.8-.5 9.3-.4M576.4 350.8s4.4.4 9.4-.6h5.2l4.5-.7 6.1.7 4.8-.7 4-.8 4.3-.8 4.3-.8M566.7 353v12.2l1.9 9.6V385l1.3 10.2s-1.1 3.5 1 5.6c0 0 1.3 5.4-.8 6.4 0 0-1.6 6.9-3.4 6.5l-.8 7.8s-2.6 1.8-1.4 3.8c.2.3.4.6.8.8 2.7 2.2-2.1 1.8-2.1 1.8s-4.6.2-2.4 4.6l-.2 2.7s-7.7-5.6-9.4.9"/><path class="st2" d="M566.4 419.5l6.9-1.3 2.4 1.5 2.4 1s3.2-8 5.7-1.1c0 0 3.5 1.3 2.4-4.1l2.4-2.1v1.9l4.8.3v-3.3l5.9-5.9.6-4.5s8.8-.2 6.5-4.8l-.6-7-1.3-9.4-.6-10.2-1.3-8.6-1.6-6.2.5-5.3"/><path class="st2" d="M606.4 394.6s7.9-2.3 8.5 4.1h5.3s0 4.9 3.8.6l3.2-.2s-.3 4.3 3.4-1.5c0 0 3.8-3.1 3.2 3.5 0 0 6.7 3.8 6.9-1.4l1.8-.5s-1.3-11.8 3.5-6.2c0 0 2.7 1.3 1.1-3.4 0 0-1.6-1.6 1.9-4.9 0 0-.3-3.2 2.7 0 0 0 2.3-2.5 5.3-7.3l.1-9.6 1.7-5.3-.8-6.2-1-7.3-1.3-7.9-.8-4.1"/><path class="st2" d="M637 402.5v5l3 1.5v2.3s3.8 5.3 6.4 5.7c0 0 2.4 4.5 6.7 4.9 0 0 4.9-5.1 5.6-1.4 0 0 3.4 2.4 4.8-4.5 0 0 4.2.3 6.1-2.1 0 0 1.9-.6.8-3.8-1.1-3.2.4-1.2.4-1.2l1.9-6.6 2.6-4.7s-.5-9.4 3.5-1.6h3l1-7.3h2.9v-2.1l2.1-1.4s.6-5.3 2.2-4.1l1-4.5 7 3.4 1-2.6v-2.6s-4.8-3-6.9-3.2c0 0-4 .5-3.5 2.7l-4-.5-2.1 3.4h-2.6l-3 4.3-1.9.2-.5-7.5"/><path class="st2" d="M629.8 435.6l7.2-5.2v-4l9.4-9.3M698.8 375.8s3.3-.8 4.1 4.5c0 0 7.5-.8 6.2 6 0 0-5.3 3.9 1.3 6.5l8.8 1.3"/><path class="st2" d="M658.4 363.3l2.8 12.4 18.4-2.5 12.6-3.2 11.9-2 11.5-2.6 6.1-1s5.6 18.4 5.6 20.7l9.6-1M663.7 331v5.3l9.8-2.7L687 331l8.7-1.7 10-1.7 7.6-1.6s7.4-2.9 7.9.8l1.8-.1s.5 5.7 5.6 6.1l2.9 1.2s5.6 2.7 9.8 3"/><path class="st2" d="M729.7 333.3l-2 6.3-1.4 2.2s2.1 2.1 0 3.1c0 0-1.2.8 0 3.4h2.5s-1.7 3.1 3.6 5.1c0 0 4.1 0 0 3.6 0 0-2.9 4-3.5 4.1-.6.1-3 3.4-3.1 4.4M731.8 267.5s.5 10.8 2.4 10.8c0 0 .6 3.9 0 6 0 0 1.2 4.8 2.7 5.3 0 0-1.9 3.9 2.4 4.6l3.2 11.7 7.3-1.6v-3.7l1.1-3.7-1.1-1.8 1.1-10.1v-8.7s6.7-5.7 3-8.7l-1.1-6.4M757.3 255.8l4.8 15.1 3.7 12.5s.5 8.6 4.1 6.8v2.5h3M772.9 296.7s-4.6-1.1-6.4 3.4v1.8l-16.5 2.3M742.6 305.9l-.1 12.8s2.9 14.1 1 17.2"/><path class="st2" d="M742.5 318.6l25.8-6.1s3.6 5.6 5.9 7.7M763.4 313.7s2.8 8.7 1.6 12.7M479.2 498.2s7.5-2 7.5 1.6c0 0-.7 19.8 0 21.8 0 0-.9 7.1 3.1 7.9 0 0 2 4 1.1 4.6 0 0 4.9 4.4 3.7 9.3 0 0 0 7.1-2.9 8.6s-.9 1.8-.9 1.8 3.7 2.9.7 7.9l-.7 4"/><path class="st2" d="M487 508.6s41.1-2 41.4 0v-5.3s-2-6.8-1.1-11.7c0 0 6.6-1.8 3.3-3.5 0 0 .4-6.4 4.2-4.4 0 0 2-2.6 0-4.6 0 0-.1-6.4 3.2-2.8 3.3 3.5.8-1.5.8-1.5l-.4-3.6h28.7l2.4 1.5v14.1l-1.1 19.6-.2 18.3s3.7 20.5 2.4 24.3"/><path class="st2" d="M527.1 508.1s.9 8.4 2.7 9.1l1.2 3.5h-1.8l.6 2.6s-7.2 7.9-6.5 19.4l26.2-1.3s-1.5 8.2 2.2 9.3l2 4.4M476.9 448.5l61.6-1.6s3.3 1.5 0 4.6l-2 3.7 8.1-.5-1 3.6-.2 4.4-3.3 1.3s2.2 4.6.8 7.1M544.6 454.8s3.8-4.3 3-9.7c0 0 18.6 0 19.7-1.1v-3.4s19.1-.7 22.7-1.8h12.4s12.7-2.2 16.3-1.8c0 0 15.5-1.9 16.5-2l15-1.8s4.2-5.4 3.8 3.1c0 0-2.2-1.3-4.2 5.5 0 0-3.5-3.1-5 2.8 0 0-1.9 1-2.2-1.9l-3.4 2.7v3.3l-4.4 1.4s-1.1 2.7-5 3.4c0 0-4.3 2.9-4.2 3.1 0 0 1.4 1.8-3.7 4.2l-.3 3.9-17.4 1.9-14.4 1.6-18.2 1.5-4.6 1.3M603.8 467.6l9.9 35.1 3.1 6.2v3.3s4.2-2.4.5 3.9c0 0-1 7.1.6 8.9l.1 4.4s.7 3.5 2.1 5.7l-38.2 3.4v2.8l3.1 2.2.2 6.9M620.1 535l3.3 3.5 38.8-1.9v3.1h2.8l.5-4.2s-4.6-4.6 1.2-3.9l6.4.7"/><path class="st2" d="M621.7 463.7l16.5-1.2s-8.1 6.6 4.8 8.6l2.7 4.9s3.3 5 6.9 5.1c0 0 1.7 4.1 5.9 5.3 0 0 1.2 4.7 6.6 6.3 0 0 2.8 3.3 3.4 6.6.1.3.1.6.1.9l2.9.9s3.6 2.3 2.4 7.7h4.8M638.2 462.5s9.9-6.3 11.7-5.4l11.9-.1s7.8-2.2 9.8 3.6c0 0 12.5-2.6 14.9-1.7 0 0 16.4 9 18.2 12.2M653.8 433s69.7-9.7 78.8-14.7M503.3 271.1v11.6s-6.8-.6-7.4 8.7c0 0 4.9.4 2.5 5.1 0 0-1.5 6.6-.2 9.3 0 0 5.9 1.9 7 4.7 0 0 3.6 1.1 4.2 3.8l7.6 5.1.9 6.8h-17.3l-29.6 1.5-18.2-.2M451.8 345.1l2.6 7.7s3.1 4 2.3 6.3c0 0 2.5 2.5 2.5 7.4l1.5 10.2s1.3 5.9 2.5 5.7l1.6 5.7"/><path class="st2" d="M461 377.7l52.8-1.8s6.8 8.7 4.9 0h2.8v-3.8s4.4-2.5 0-7.2c0 0-2.5-3.4 4-4.7 0 0 5.1 1.3 7-7.8 0 0 1.9-3-3.4-5.1 0 0-.6-3.8-3.8-4.4 0 0 1.3-2.8-4.2-3.6l-3.4-3.2.9-4.5s3.2-.4-.9-5.3M362.5 437.3l-6.1 84.8s-45.6-1.1-48-3.5c0 0-8.3-3.5-3.7 5M378.2 385.9l86.6 2.2s1.5 3.2 5.6 2.3c0 0 4.4-1.6 1.1 4.4 0 0-1.5 6 4.6 7l1.3 38.5-102.4-2.5"/><path class="st2" d="M361.9 445.5l41.4 1.3s-.7 32.8-1.6 33.7c0 0 5.3 7.3 6.7 3.4 0 0 1-1.4 1 1 0 0 1.8 1.3 1.8-1.8 0 0 2.1-1.8 2.1 4.6 0 0 10 .5 10 2.5 0 0 1.3 3.1 1.3-1.3 0 0 1-1.6 1.1.8v.3l2.1-.2s-.6 2.2 2.3 2.3v.2s-1.5 2.3 2.3 2.3c0 0 2 0 2-2l2.4.7s7.9 8.4 7.9.2c0 0 1.6-2.4 1.6 1.6h3.6s4.1 3 7.1 0l5.2-.8s1-2.6 3.7 0h3s-1-5.3 4.3 0c0 0 6.8 9.6 6.8 0v-30.2l-3.2-16.5.8-7.4M219.2 207.3s-11.5 43.4-10.2 47.1c0 0 .2 6.1 3.4 7.6 0 0 2 3.1-.7 5 0 0-4.5 6-5.3 6.8 0 0 .7 3.5-2 3.6 0 0-6.3 3.8-4.3 7.3 0 0-3.6 1.2 2.6 3l-9.8 36s-83.8-18.5-88.4-22.6M193 323.6s64.5 15 74.3 14.6"/><path class="st2" d="M156.6 315.6l-12.8 50.9 54.8 81.9s.5.2 4.3-18c0 0 11.4 10.5 6.5-1.9l20.6-96.4M128.7 232.8s3.6-1 6 0c0 0-.7 2.1 3.1 2.8 0 0 5.3 2.3 1.5 9.3 0 0 1.8 4.3 8.9 4.2h.8s.7-3 4.1-.8c0 0 5.1 1 6.9 3.1 0 0 4.3-1.2 6.8 0 0 0 1.5 1.3 5.8 0 0 0 8.9-.5 10.4.6 0 0 8.8-.4 9.8 1.7l16.7 3.3M230.2 209.5s-2.6 15-3.3 16.5c0 0 4 1.8 1.7 9.6 0 0 1.2 3.8 3.6 4.5 0 0 2.8 8.9 5.8 10.7 0 0 7.3 2.5 2 6.1 0 0-6.6 13.6-1.5 15.7 0 0 8.1-8.9 5.5 2.5 0 0 1.8 9.6 5 11.1 0 0 2.6-1.3 2.3 6.9 0 0-.5 3.5 3-.8 0 0 3.6 1 7.1.3 0 0 3.3-.2 5.5 1.8 0 0 5.1-8.9 7.8 2l1.2-9.1 84.3 10.2s1.8-10.2 2.3-15.4c0 0 1-13.9 1.1-17.9v-.8c0-2 3.8-30.6 3-33.9M360 297.6s-5.5 67.4-5.6 68.8c-.2 1.3-90.1-10.6-90.1-10.6l10.2-58.2"/><path class="st2" d="M444.1 233s3.3 3.6 1.2 8.1c0 0-.3 11.1 1.7 12.5 0 0 1.8.9 1.3 9.8 0 0 0 7.9 1.8 11.7 1.8 3.8 0 .8 0 .8s3.8 4.6.8 10.1l-88.6-3.8M357.2 332l59 3.5h11.1l4.3 3.8s-.7 2.8 5.5 0c0 0 4.1.7 4.8-.7 0 0 3.6 3.3 6.4 3.5 0 0 7.6 6.8 3 0 0 0 2.2-7.1 1.5-9.1 0 0-2.8-1-2-5.5h2.1V296s-9.7-5.8-2-7.4v-2.5M214.1 416.5s61.9 11.5 66.1 11.1c0 0 74.6 11.5 94.8 10.3 0 0 3.2-29.2 2-35.7-.5-5.2 2.9-30.2 2.3-33.8l-25.1-2.1M517.3 379.4c.5 2.6 0 7 0 7s.3 4.3 3.1 5.6l6.8 6.6s3-.3 1.7 6.1h6.9s1.2 5.1-2.1 11.4l6.7 6.8 4.2.5s4.1 6.4 2.1 8.2c0 0 0 6.7 4.6 4.8 0 0 1.7-.1 1.2 2.8l-.5 3.8h-2.5l.1 2.2M198.7 448.4s1.1 9.1 2.8 10.1c0 0 4.5 2.5 0 5.8 0 0-4.1 1.4-5.3 5.3 0 0 .9 5.4-3.1 7.8v6.5s8.9-2.2-3.4 7"/></g></svg>
