<svg fill="#FFFFFF" xmlns="http://www.w3.org/2000/svg" xmlns:xlink="http://www.w3.org/1999/xlink" version="1.1" x="0px" y="0px" viewBox="0 0 864 864" style="enable-background:new 0 0 864 864;" xml:space="preserve"><style type="text/css">
	.st0{display:none;}
	.st1{display:inline;}
	.st2{display:inline;fill:none;stroke:#FFFFFF;stroke-miterlimit:10;}
</style><g><g><g class="st0"><path class="st1" d="M457.4,176.3l-0.5,14.1l2.4,12.2l0,13.3l1.7,13.2l-0.1,0.3c0,0-1.1,3.8,0.9,5.8l0.3,0.3l0.1,0.4     c0.3,1.2,1.5,7.2-1.2,9.3c-0.8,3.4-2.2,7.5-4.2,8.6l-0.5,4.7l7.9-1.5l3.5,2.2l1.7,0.6c1-2,2.7-4.7,5-4.7c1.7,0,3,1.2,4,3.7     c0,0,0.1,0,0.1,0c0.2,0,0.4-0.1,0.6-0.2c0.4-0.3,0.6-1.5,0.1-3.7l-0.2-0.8l5.9-5.1v4.1l3.5,0.2v-3.4l7.6-7.7l0.9-6.4l1.1,0     c2,0,6.3-0.6,7.3-2.3c0.2-0.3,0.4-0.8-0.1-1.9l-0.1-0.3l-0.8-9.1l-1.6-12l-0.8-13.2l-1.6-10.9l-2.1-8.1l0.5-5.7l-6.3-0.7     l-5.6,0.9l-6.8,0c-3.6,0.7-6.9,0.8-9,0.8c-0.2,0-0.3,0-0.5,0C463.8,182,459.7,179.7,457.4,176.3z"></path></g><g class="st0"><g class="st1"><path d="M613.2,204.1L613.2,204.1l-6.1-0.7l-2.6,4.2h-3.3l-3.8,5.5l-4.4,0.4l-0.7-10.2l-16.5,2.2l-2.8-12.3l-0.3,0.8l-0.1,12.4      l-0.2,0.3c-3.8,6.2-6.8,9.5-6.9,9.6l-1,1l-1-1c-0.5-0.5-0.9-0.9-1.2-1.1c0,0,0.1,0.7,0.1,0.7l-0.5,0.5c-3.3,3.1-2.4,4.5-2.4,4.5      l0.2,0.4l0,0.1c1,2.9,1,4.7-0.1,5.7c-0.4,0.4-1,0.6-1.6,0.6c-0.7,0-1.3-0.2-1.5-0.3l-0.1,0l-0.3-0.3l0-0.1      c-1.2-1.4-1.7-1.5-1.7-1.5c-0.4,0.4-0.9,3.9-0.4,8.4l0.1,1.1l-2.5,0.7c-0.2,1.5-0.9,2.6-2.1,3.3c-0.7,0.4-1.5,0.6-2.4,0.6      c0,0-0.1,0-0.1,0v4.3l3.9,1.9v3.4c1.9,2.5,5.2,6.1,7.1,6.5l0.6,0.1l0.3,0.6c0,0,2.6,4.7,6.9,5.5c1.3-1.2,3.9-3.5,6.1-3.5      c0.3,0,0.6,0,0.8,0.1c0.5,0.2,1.4,0.6,1.9,2c0.2,0.1,0.3,0.1,0.5,0.1c0.2,0,0.4,0,0.5-0.1c0.6-0.2,1.8-1.2,2.6-5.1l0.2-1.2      l1.2,0.1c0,0,0.2,0,0.5,0c1.3,0,4.6-0.2,6.1-2.2l0.3-0.3l0.4-0.1c0,0,1.1-0.5,0.2-3.2c-0.5-1.5-1.1-3.2,0.2-3.9      c0.2-0.1,0.4-0.2,0.7-0.2c0,0,0,0,0.1,0l2-6.8l3.1-5.8c-0.2-4.2,0.6-6.6,2.2-7c0.2,0,0.3-0.1,0.5-0.1c1.3,0,2.5,1.2,4,4h1.9      l1.2-9.4h3.5v-2l2.8-1.8c0.3-2.4,1.1-5.2,2.7-5.9c0.1,0,0.2-0.1,0.4-0.1l1.2-5.4L613.2,204.1z"></path></g><g class="st1"><path d="M613.9,202c-0.7,0.3-2.3,1-2.6,1.8c-0.1,0.2-0.1,0.3,0,0.5l0.3,0.9l0.6,0.2l0,0l0.7,0.2l0.6,0.2l0,0l8,2.5l0.3-1.8      l-0.4-2.3C618.7,203.1,615.3,201.9,613.9,202z"></path></g></g><g class="st0"><path class="st1" d="M499.3,238.6l-0.7,5.1l-7.5,7.5v5.1l-8.8-0.6V255l-0.3,0.2c0.4,2.6,0,4.5-1.2,5.5c-0.6,0.5-1.4,0.8-2.3,0.8     c-0.8,0-1.4-0.2-1.5-0.3l-0.6-0.2l-0.2-0.6c-0.8-2.1-1.5-2.7-1.8-2.7c-0.8,0-2.3,2.3-3.1,4.2l-0.5,1.2l-4.3-1.7l-2.8-1.8     l-7.6,1.5l-0.2,2.2l-0.5,0.4c-0.1,0.1-2.3,1.7-1.4,3.1c0.1,0.2,0.4,0.5,0.7,0.7c0.5,0.4,2,1.7,1.4,3.2c-0.4,1-1.7,1.5-3.7,1.5     c-0.5,0-1,0-1.3-0.1c-0.8,0.1-1.9,0.4-2.3,1.1c-0.5,0.8,0,2,0.5,2.9l0.2,0.3l-0.4,6.3l-2-1.5c-1-0.7-4.1-2.6-6.6-2.6     c-0.5,0-0.9,0.1-1.2,0.2c-0.8,0.3-1.4,0.9-1.8,1.8c0.1,0.1,0.3,0.2,0.4,0.4c0.8,0.9,1.1,2.3,0.7,4.2l-0.8,5.9h-3l0,0.1     c8.6-0.1,17.6-0.4,20.1-0.9v-4.7l1.3,0c0.2,0,24.3-0.9,28.8-2.2l0.3,0l15.9,0c1.1-0.2,13.7-2.3,19.6-2.3c0.5,0,1,0,1.4,0.1     l0.6-0.1c5.8-0.7,10.1-1.2,13.1-1.6l8.4-6.2v-5l11.1-10.9c-3.2-2-6.5-6.4-6.9-7l-0.3-0.4v-2.6l-3.9-1.9v-6.4     c-1.8-0.5-3.2-1.3-3.4-1.4l-0.8-0.4l0.1-0.9c0.3-3.3-0.4-3.9-0.4-3.9c0,0,0,0,0,0c-0.4,0-1,0.2-1.3,0.5c-2,3.1-3.3,4.3-4.6,4.3     c-0.2,0-0.4,0-0.6-0.1c-0.4-0.1-1.1-0.6-1.4-1.8l-2.2,0.1c-1.5,1.5-2.7,2.3-3.9,2.3c-0.3,0-0.6-0.1-0.9-0.2c-1-0.4-1.7-1.4-2-2.9     h-6.8l-0.1-1.2c-0.2-1.7-0.8-2.9-1.9-3.6c-1-0.6-2.3-1-3.9-1c-1,0-1.9,0.1-2.6,0.2l0.1,1.6c0.7,1.6,0.7,3-0.1,4.3     C506.1,237.7,501.7,238.4,499.3,238.6z"></path></g><g class="st0"><path class="st1" d="M368.7,113.2c2,0.7,7.2,2.9,9,6.1c1.3,0.5,4.6,2.1,5.5,5.1l9.8,6.6l1.2,9c2.4,2.9,3.3,5.1,2.6,6.8     c-0.3,0.9-1,1.3-1.5,1.6l-0.9,4.3l3.5,3.3c3,0.5,4.9,1.5,5.8,3.1c0,0,0,0.1,0.1,0.1l12-0.4l10.6-0.5l11.3-0.7l13.6-0.6     c0-0.9,0-1.4,0-1.4c-4.5-6.2,0-19.8,0-19.8c-4-6.2,7.9-36.2,7.9-36.2c-11.3,18.9-14.2,17-14.2,17c-1.8-1,0.5-7,3.5-13.3l-5.2-4.4     l-1.2-10.6c-3.3-0.3-5.3-1.3-6.1-2.8c-0.2-0.4-0.3-0.8-0.3-1.3l-10.9-1.5l-3.5-1.9l-3.5-0.6l-9.4-2.1c-3-0.1-4.7-2.3-5.4-3.8     c-3.6,0.4-6.7,0.1-6.7,0.1c4.5-7.3,1.7-6.9,1.7-6.9c-8.3,4.7-13.8,6.4-17.2,6.8L375,86l-0.9-0.1l-0.2,0c-0.6,0-2.8,0.1-4.6,1.7     c-1.7,1.5-2.8,3.8-3.1,7c1.1,0.3,2.6,1,3.4,2.4c0.8,1.5,0.7,3.4-0.4,5.7C368.6,105.6,367.8,110.7,368.7,113.2z"></path></g><g class="st0"><path class="st1" d="M191.9,104l-0.1,1.4c-0.8,10.3-2.1,26-3.3,41.2l74.2,4.4l14.6,0l6.5,5.7l-0.2,0.7c0.1,0,0.2,0,0.4,0     c0.7,0,2.1-0.3,4.7-1.5l0.4-0.2l0.4,0.1c0.8,0.1,1.7,0.2,2.5,0.2c1.6,0,2.2-0.3,2.3-0.4l0.8-1.5l1.3,1.2c0,0,4.4,3.9,7.4,4.1     l0.5,0l0.3,0.3c0.5,0.4,1,0.9,1.5,1.3l0,0l0.2-0.6c0.9-3,2.2-8.3,2-10.4c-1.2-0.8-3.6-3-2.7-8.1l0.2-1.1h2.5v-38.4     c-2.3-1.5-6.8-4.8-6.3-8c0.3-1.5,1.5-2.7,3.8-3.3l0-0.8l-111-4.8C194,92.1,192.1,103,191.9,104z"></path></g><g class="st0"><path class="st1" d="M197.4,50.5c-0.6,4.8-1,9-1,9.7c0,0.2,0,0.6,0,1.1c-0.2,4-1,16.3-1.4,21.5l111.3,4.8     c1.9-4.1,0.5-7.8-0.6-9.6c-0.2-0.2-0.4-0.6-0.8-1.2l-0.3-0.6l0.4-0.3c0-0.1-0.1-0.2-0.2-0.3c-2.4-5.1-2.5-15.2-2.5-15.6     c0.5-9.7-1.1-11.5-1.1-11.5c-2.8-2-2.8-12.6-2.7-17.1l0-0.1l0.1-0.4l0-0.1c0.8-1.7,0.9-3.2,0.7-4.6c-26.6-1-64.5-4.2-99-7.4     C200.4,23.7,199.3,34.5,197.4,50.5z"></path></g><g class="st0"><path class="st1" d="M339.8,285.4l-1.6-46.9c-2.1-0.6-3.7-1.6-4.8-3.2c-2.1-3.1-1.1-7-1.1-7.2l0.1-0.2c1.5-2.9,1.4-3.8,1.4-4     c0,0,0,0,0,0c0,0-0.1,0-0.2,0c-0.3,0-0.7,0.1-0.9,0.2c-0.8,0.2-1.6,0.3-2.3,0.3c-3.5,0-5.4-2-6.2-3.2l-109.1-2.8     c-0.8,8.5-1.6,16.6-1.3,19.5c1.3,7.5-1.7,37.5-2.5,44.5L339.8,285.4z"></path></g><g class="st0"><path class="st1" d="M310.7,175.3l-0.2-0.3l-3.4-9.9c-0.9-0.6-2.2-1.5-3.9-3.1c-2.9-0.4-6.1-2.7-7.7-4c-0.8,0.4-2,0.6-3.4,0.6     c-1,0-1.9-0.1-2.5-0.2c-2.3,1-4.1,1.6-5.5,1.6c-0.9,0-1.6-0.2-2.1-0.7c-0.6-0.5-0.8-1.2-0.9-1.7l-4.7-4.1h-13.7l-74.4-4.4     c-1.5,18.9-3,36.5-3.4,41.5l31.8,2.7l0.2,1c0.4,2.4-0.4,11-1.4,20.9c0,0.1,0,0.2,0,0.3l107.8,2.8l-1.4-4.9     c-0.9-0.6-2.1-2.2-3.4-8l-2-13.2c0-5.8-2.8-8.7-2.8-8.7l-0.6-0.6l0.3-0.8C313.9,180.6,312.1,177.2,310.7,175.3z"></path></g><g class="st0"><path class="st1" d="M182.2,190.8c0.8-9.3,6.2-75.7,7-85.7L83.7,92.2l-1.4,11.1l0.2,0l-13,73.9     C118.4,183.7,174,190.6,182.2,190.8z"></path></g><g class="st0"><path class="st1" d="M435.9,284.9c0.2-1.2,0.1-1.8-0.1-2v0c-0.7,0.3-1.4,0.4-2,0.4c-0.9,0-1.7-0.2-2.4-0.7     c-2.8-1.9-2.9-6.6-2.9-7.2v-0.6l0.5-0.4c0.9-0.8-0.3-4.5-2.6-8.3l-5.2-0.6l-9.5-9.7l0.4-0.9c3-5.7,2.9-10.6,2.7-12.7h-9.4     l0.3-1.6c0.9-4.2,0-5.6-0.2-5.9c-0.2-0.3-0.5-0.3-0.5-0.3l-0.6,0l-0.4-0.4l-8.5-8.3c-4-2-4.5-7.5-4.5-8.1l0-0.3     c0.3-3.4,0.3-6.3,0-8.2c-1.3-1-2.7-2.4-3.8-3.8l-65.3,2.2c0.5,1.6,1,2.9,1.3,3.3l0.9-0.2l0.2,1.3l2,7.1c0.2,0.3,1.3,2.3,4.1,2.3     c0.5,0,1-0.1,1.6-0.2c0.1-0.1,0.8-0.3,1.6-0.3c1,0,1.7,0.3,2.3,0.9c1.1,1.3,0.9,3.4-0.9,6.8c-0.1,0.7-0.5,3.1,0.8,4.9     c0.8,1.2,2.2,2,4,2.3l1.1,0.2l1.7,49.9l0.1,0l-0.1,0.6l0,1.3l-0.2,0l-0.8,7.7l78-2.1l0.3,0.1c0.1,0,2.2,1.1,2.6,3.3     c0.2,1.5-0.5,3.1-2.1,4.7l-1.3,2.5l7.4-0.4c1-1.3,3.9-5.8,3.1-11l-0.2-1.5h1.6c0.4,0,0.8,0,1.1,0l-0.1-2.8h3.4L435.9,284.9z"></path></g><g class="st0"><path class="st1" d="M396.8,223.5l0.3,0.2l8.4,8.1c0.5,0.1,1.3,0.3,2,1.1c1.2,1.3,1.6,3.5,1.1,6.6h8.4l0.2,1     c0.1,0.3,1.5,6.6-2.4,14.7l7.5,7.6l5.5,0.7l0.3,0.5c0.9,1.4,5.3,8.5,2.9,11.8c0.1,1.7,0.7,3.8,1.7,4.5c0.3,0.2,0.6,0.3,0.9,0.3     c0.2,0,0.5-0.1,0.8-0.1c0.7-2.1,2-3.4,3.7-4c0.6-0.2,1.4-0.3,2.1-0.3c2.3,0,4.6,1,6.2,1.9l0.1-0.9c-0.9-2.1-1-3.8-0.2-5.2     c1.3-2.2,4.4-2.4,4.6-2.4c0.5,0,0.8,0.1,1.2,0.1c0.2,0,0.4,0,0.6,0c-0.5-0.4-0.9-0.9-1.2-1.3c-1.4-2.4,0-4.8,1.7-6.2l1.1-10.9     l1.3,0.2c0.5-0.5,1.9-3.3,2.9-7.3l0.2-0.6l0.6-0.3c0.9-0.4,0.9-3.6,0.4-6.3c-2.5-2.8-1.6-6.8-1.4-7.9l-1.6-12.8l0-13.2l-2.5-12.2     l0.7-19.5c-2.9,1-3.6-6.4-3.7-11.3l-13.5,0.6l-11.3,0.7l-10.7,0.5l-10.1,0.3c1.8,1.4,2.6,3.6,2.9,4.7c2.6,1.1,4.1,2.6,4.7,4.4     c0.6,1.7,0,3.1-0.2,3.6c-1,4.9-2.9,8.2-5.6,9.8c-1.5,0.9-2.9,1.1-3.8,1.1c-0.4,0-0.6,0-0.9-0.1c-2.4,0.5-3.9,1.3-4.3,2.3     c-0.3,0.8,0.2,1.6,0.3,1.6c2.1,2.3,3,4.6,2.7,6.8c-0.3,2-1.6,3.3-2.4,3.9v5.5h-3.4c0.3,2,0.3,4-1.2,4.8c-0.2,0.1-0.5,0.2-0.7,0.2     c0.2,3.1-0.1,6.7-0.2,7.2C393.7,218.5,394.3,222.4,396.8,223.5z"></path></g><g class="st0"><path class="st1" d="M662.7,150.3L662.7,150.3c-5.6-0.6-7.4-5.4-7.9-7.7l-2.4,0.2l-0.2-1.2c-0.1-0.4-0.2-0.7-0.5-0.9     c-0.4-0.2-1-0.4-1.8-0.4c-2.1,0-4.8,0.8-6,1.3l-10,2.1l-12.8,2.2l-28.4,5.6l-14.2,3.8v-1.8c-2.5,2-5.9,4.5-7.7,5.8l0,0l1.6,10.1     l2.3,17.7l-0.3,1l3.3,14.3l22.4-3l16-4l15.4-2.6l14.7-3.3l9-1.5l0.3,1.1c0.1,0.4,0.4,1.2,0.7,2.3c2.1-3,5.4-6.9,6.7-7.5     c0.4-0.3,2.2-2.5,3.8-4.8l0.2-0.2c1.4-1.2,1.8-1.9,1.9-2.2c-0.2-0.1-0.6-0.2-1-0.2l-0.3,0c-3.1-1.1-4.9-2.6-5.7-4.5     c-0.2-0.6-0.3-1.2-0.3-1.9h-2.4l-0.4-0.8c-1.9-4.2,0.2-5.8,0.5-6c0.4-0.2,0.6-0.4,0.6-0.5c0.1-0.4-0.4-1.1-0.8-1.5l-0.8-0.8     l2.3-3.6L662.7,150.3z"></path></g><g class="st0"><g class="st1"><polygon points="594.8,202.8 595.3,210.5 595.8,210.5 599.7,204.9 602.9,204.9 605.5,200.8 600.6,202.1     "></polygon></g><path class="st1" d="M594.8,202.8l22.6-5l7.6,2.3c0,0-26,2-28.8,5.2"></path><g class="st1"><path d="M610.2,201c0.1-0.3,0.3-0.6,0.4-0.9c0.2-0.3,0.6-0.6,0.9-0.9l-5.2,1.3L610.2,201z"></path></g><g class="st1"><path d="M660,217.4V216c0-1.7-2.9-12.1-5.5-20.9l-0.2,0l0.1-0.4c-0.4-1.3-0.8-2.6-1.1-3.7l-6.6,1.1l-14.7,3.3l-14.9,2.5      c3.2,0.8,7.8,3.7,8.4,4.1l0.6,0.4l0,0.2c0.6,0.1,1.3,0.3,2.1,0.8c1.4,1,2.4,2.6,2.9,4.9c1.8,0,4.8,0.4,6.7,2.5      c1.5,1.6,2,3.9,1.4,6.8l-0.1,0.5l-0.4,0.3c-0.6,0.5-2.2,1.9-2,3.2c0.1,0.9,1.2,1.9,3.2,2.7l12.6,1.5c-0.1-1.6,0.1-2.8,0.1-2.8      c-3.5-0.6-3.6-7.3-3.6-7.3c2,1.4,0.3-8.9,0.3-8.9c-1.4-5,2.8-6.1,2.8-6.1c6.1-6.1,0.6,5.6,0.6,5.6c2.5,0.6,2.5,6.7,2.5,6.7      l-2.2,0.3l0.8,1.7c5.6,2.2,0,3.9,0,3.9c1.4,6.4,4.7,5.6,4.7,5.6c8.4-0.8,7,4.7,7,4.7c4.7,0.8,1.7,5.3,1.7,5.3      c-2.9,0.1-1.4,14-1.4,14c4.7,3.6,3.9-9.8,3.9-9.8c-0.6-8.1,5.6-11.4,5.6-11.4l0.3-10.3L660,217.4z"></path></g></g><g class="st0"><path class="st1" d="M79.9,103l-0.1-0.4c-1.2-5.1-2.7-5.8-3.2-5.9c0,0-0.1,0-0.1,0c-1.3,0-3.2,2.2-4.1,3.7l-0.8,1.5l-1.2-1.1     c-2-1.9-5.2-2-5.8-2l-0.2,0c-1,0.2-2.2,0.3-3.4,0.3c-2.2,0-4.2-0.3-5.3-0.6c-1.6,1.8-2.7,2.6-3.7,2.6c-0.3,0-0.5-0.1-0.7-0.2     c-1-0.4-1.4-1.6-1.2-3.1c0.2-6.3-1-7.3-1.1-7.4l-0.2,0.1l-0.3,0.1l-0.6-0.2c-4.5-2.1-6.7-13-7.1-15.2L40.5,75l0.1-0.3     c1.2-5,0.4-5.8,0.4-5.8c-0.9,0-3.2,1.8-5.1,3.9l-0.6,0.7l-0.9-0.4c-1.3-0.6-2.3-1.6-2.8-3c-2.2-5.9,3.4-17.6,4-19l0.2-0.3     l0.3-0.2c1.3-0.9,2-1.7,1.9-2.4c-0.2-1.2-2.5-2.5-4.1-3.1l-0.2-0.1c-3.7-2.3-6.8-10.8-7.9-13.9c-3.3-1.4-4.8-6.2-4.9-6.4     l-0.1-0.4l0.1-0.4c2.6-8.6-1.2-10.6-1.4-10.7l-1.2-0.6l0.5-1.2c0.5-1.1,2.5-11.6,3.9-19.4c-3.9-0.9-7.8-1.8-11.6-2.6     C4.1,16.3-2.6,45.3-1.6,47.9l0.1,0.3c0,0.1,0.1,1,0.3,2.3l0.1,0l0,0.2c0.4,2.2,1.3,5.2,3.3,6.2L2.4,57l0.2,0.3     c1.1,1.7,2.3,5.6-1,8c-0.7,1-4.8,6.3-6.3,8.2c0.1,1,0.1,2.8-1,4.1c-0.6,0.8-1.5,1.3-2.5,1.4c-1,0.6-6.5,4.5-4.8,7.4l0.8,1.4     l-1.5,0.5c0.5,0.3,1.5,0.7,3.3,1.3l1.3,0.4l-12.5,46.1c10.4,2.4,78.3,17.9,92.5,18.4L79.9,103z"></path></g><g class="st0"><path class="st1" d="M535.6,302.4L535.6,302.4l0.5-0.2l0.1,0c4.2-0.7,5.4-3.4,5.4-3.5l0.2-0.6l5.2-1.6v-3.8l6.8-5.4l0.2,2.5     c0.1,0.9,0.3,1.3,0.4,1.4c0.8-2.5,2-4.1,3.7-4.6c0.4-0.1,0.8-0.2,1.2-0.2c0.7,0,1.3,0.2,1.9,0.4c1.3-3.6,2.7-5.7,4.5-6.3     c0.1-0.1,0.3-0.1,0.4-0.1c0-3-0.6-3.5-0.6-3.5c-0.2,0-1.2,0.8-1.9,1.7l-0.3,0.4l-19.7,2.3c-0.4,0.1-2.6,0.3-6.6,0.8l-0.3,0.2     l-0.1-0.2c-3.3,0.4-7.8,1-13.4,1.7l-0.8,0.1l-0.2,0c-0.4,0-0.9-0.1-1.4-0.1c-5.7,0-19.1,2.3-19.3,2.3l-15.9,0     c-4.6,1.2-22.8,2-28,2.2v3.6l-0.4,0.4c-0.4,0.4-1.7,1.7-24.8,1.8c0.3,6-3.2,10.7-4.1,11.8l-1.2,4.2l-0.3,6.4l-3.8,1.5     c0.6,1.7,1.4,4.5,1.1,7h31.4l5.7-1.7l23.6-1.9l18.4-2.1l21.2-2.3l0.3-4.7l0.7-0.3c3.5-1.7,4.1-2.9,4.1-3.3c0-0.2,0-0.2,0-0.2     l-0.1-0.1C529.2,306.9,529.5,306.5,535.6,302.4z"></path></g><g class="st0"><path class="st1" d="M670.4,77.7h0.9l0.2,1.1c0.1,0.5,0.7,5,0.1,7.9c0.8,3.1,2,5.3,2.5,5.5l1.5,0.5l-0.7,1.4     c-0.2,0.5-0.7,1.8-0.2,2.7c0.3,0.6,1.1,1,2.3,1.2l0.9,0.1l4,14.6l7.1-1.6l0-3.9l1.3-4.2l-1.4-2.2l1.5-13.4l0-11.6l0.5-0.4     c1.7-1.5,4.8-4.9,4.8-7.3c0-0.7-0.3-1.3-0.9-1.8l-0.4-0.3l-0.2-1.4l-25,5c-0.1,0-0.3,0-0.4,0.1C669.3,74.1,670,77.1,670.4,77.7z"></path></g><g class="st0"><path class="st1" d="M-23.6,138.4L-23.6,138.4c-4.7-1-23.9-5.3-45.2-10.3l-16,63.8L-16.4,294c0.7-2.6,2.1-8.3,4.6-20.4l0.5-2.3     l1.7,1.6c3.4,3.1,6.6,5,7.6,5c0,0,0,0,0,0c0,0,0.5-1.1-1.4-5.9l-0.2-0.4l26.3-123C0.1,143.9-21.9,138.8-23.6,138.4z"></path></g><g class="st0"><path class="st1" d="M343,356.1v-38.6l-4.2-21.2l0.9-8.2L210,284.9c-1.2,0.1-2.6,0.1-4.1,0.1c-3.1,0-6.7-0.1-10.8-0.4l-0.5,7.4     l53,1.7l0,1.3c-0.4,17-1,38-1.9,42.8c2.1,2.7,4.5,4.8,5.5,4.8c0.2,0,0.4-0.3,0.5-0.6l0.1-0.2c0.3-0.4,0.9-1.2,1.8-1.2     c0.2,0,0.3,0,0.5,0.1c0.5,0.2,0.8,0.5,1,0.9c0,0,0-0.8,0-0.8l0.5-0.4c0.2-0.1,0.8-0.6,1.7-0.6c0.3,0,0.7,0.1,1,0.2     c1.4,0.7,2.1,2.5,2.3,6.1c6.1,0.4,10.1,1.3,11.8,2.7v-0.2l0.2-0.3c0.2-0.4,0.9-1.3,1.9-1.3c0.1,0,0.3,0,0.4,0.1     c1,0.3,1.3,1.2,1.4,1.9l3.3-0.3l-0.5,1.9c0,0-0.1,0.5,0.1,0.8c0.2,0.3,0.8,0.5,1.6,0.5l1.3,0v2l-0.2,0.3     c-0.1,0.2-0.2,0.4-0.1,0.5c0.1,0.1,0.6,0.4,2,0.4c0.6,0,1.2-0.2,1.2-1.2V352l5.2,1.6l0.2,0.3c2.1,2.2,5.1,4.5,6.6,4.5     c0.1,0,0.2,0,0.3-0.1c0.4-0.2,0.9-1.1,0.9-3.2v-0.4l0.2-0.3c0.3-0.5,1.1-1.5,2.3-1.5c0.2,0,0.4,0,0.5,0.1     c1.2,0.3,1.5,1.6,1.6,2.9l3.7,0.1l0.3,0.3c0.1,0.1,2,1.5,4.2,1.5c1.2,0,2.3-0.4,3.2-1.3l0.3-0.3l6.5-1c0.4-0.6,1.1-1.3,2.2-1.5     c0.2,0,0.4-0.1,0.7-0.1c1,0,2.1,0.5,3.2,1.5h1.8c0.1-1.3,0.5-2.3,1.4-2.7c0.3-0.2,0.7-0.3,1.1-0.3c1.4,0,3,1,5.4,3.4     c2,2.8,4.5,5.1,5.5,5.1c0.1,0,0.2-0.1,0.3-0.3l0-0.1l0.1,0C342.8,359.2,343,358.1,343,356.1z"></path></g><g class="st0"><path class="st1" d="M424.6,309.5l0.8-2.8l-10.8,0.7l3.8-7.2l0.1-0.1c1-0.9,1.5-1.9,1.4-2.5c-0.1-0.5-0.6-0.9-0.9-1.1l-77,2     l3.7,18.7l0,38.9c0,1.2-0.1,2.2-0.2,3c0.9-0.1,2-0.3,3.1-0.3c2,0,3.4,0.4,4.4,1.1c0.9,0.7,1.4,1.7,1.4,2.9     c-0.1,3.3-0.2,6.7-0.3,9.9c3.1-0.1,14.4-0.6,25.7-0.9c5-0.1,9.3-0.2,12.8-0.2c6.2,0,10.3,0.2,12.5,0.6v-4.7     c-0.4-1.3-2.5-9.4-1.4-15.4l0.2-0.8l0.8-0.2c2-0.5,3.7-1.4,4.3-1.8c-0.1-0.1-0.2-0.1-0.3-0.2l-0.8-0.4l0.1-0.9     c0-0.5,0.4-5.4,3.2-6.9c0.6-0.3,1.2-0.5,1.8-0.5c0.4,0,0.7,0.1,1.1,0.2c0.4-0.9,0.7-2.3-0.4-3.3l-0.4-0.4l0-0.5     c0-1.2,0.1-5.3,2.3-6.2c0.3-0.1,0.6-0.2,0.9-0.2c0.6,0,1.2,0.2,1.8,0.6l-0.7-5.8h3.9c0.6-2.2-0.7-5.8-1.3-7.1l-0.6-1.3l4.8-1.9     L424.6,309.5z"></path></g><g class="st0"><path class="st1" d="M634.3,330c0-0.1,0.1-0.2,0.1-0.3c-4.3-4-17.5-12.8-26-18.1c-0.2-0.1-0.6-0.1-1.4-0.1     c-4.2,0-13.5,1.7-16.7,2.4l-1.2,0.2l-0.4-1.1c-0.9-2.8-3.3-4.2-7-4.2c-2,0-3.7,0.4-3.9,0.5l-0.2,0l-15.7,0.1l-0.3-0.1     c-1.6,0-7.7,3.1-13.6,6.8c-0.4,0.4-3.1,2.8-2.6,4.9c0.5,1.7,3.4,3,8.2,3.8l0.7,0.1l3.8,6.9c0.1,0.2,4,5.7,7.8,5.9l0.9,0l0.3,0.8     c0,0,2,4.6,6.7,6l0.7,0.2l0.2,0.7c0.1,0.2,1.5,5.3,7.6,7.2l0.4,0.1l0.3,0.3c0.2,0.2,3.8,4.5,4.6,9.1c0,0.1,0,0.3,0.1,0.4l3.1,1     l0.1,0.1c0.2,0.1,4.7,3.1,3.9,9.7h9.5c4.8-5.1,2.2-7.8,2.2-7.8h3.1c-0.6-2.2,5-4.5,5-4.5c0-2.5,4.7-4.7,4.7-4.7     c0.6-6.1,5.6-5,5.6-5c-0.6-5.9,1.4-5.9,1.4-5.9C624.5,338.7,634.3,330,634.3,330z"></path></g><g class="st0"><path class="st1" d="M527.2,317.9l-0.1,1.3l-22.6,2.5l12.6,44.4l4.1,8v2.6c0.2,0,0.3,0,0.4,0c0.6,0,1.2,0.2,1.6,0.6     c1.4,1.4,0.1,4-1.4,6.7c-0.4,3.5-0.6,8.9,0.5,10.1l0.3,0.4l0.2,6l0,0c0.6,2.7,1.5,5.1,2.4,6.6l3.7,3.9l50.5-2.5v4.1h1l0.4-3.6     c-1.2-1.3-2.8-3.5-1.9-5.3c0.5-1,1.7-1.6,3.4-1.6c0.5,0,1,0,1.6,0.1l9.8-0.1c-0.1-5,1-7.4,1-7.4c2-11.7,6.1-18.7,6.1-18.7     c0.1,0,0.1-0.1,0.2-0.1h-9.8l0.4-1.6c1.2-5.3-1.7-7.9-2.4-8.4l-4.4-1.4l0-0.9c0-0.3-0.1-0.7-0.1-1c-0.6-3.3-3-6.6-3.8-7.6     c-5.9-2-8.1-6.4-8.8-8.2c-4.3-1.5-6.6-5.1-7.4-6.6c-4.9-0.8-8.9-6.8-9.1-7.1l-3.2-5.8c-5.7-1-8.9-2.9-9.7-5.6     c-0.5-1.8,0.2-3.6,1.2-5.1L527.2,317.9z"></path></g><g><path d="M379.9,175.8l1.2,6.6c13.2,12.8,20.1,28.5,20.3,46.6c0.7,49.2-50,101.6-70.2,120.4v141.7l-19.1,169.1l20.8,33.2     l-21.4,68.3v39.6L559.4,767l0.5-20.9l0.6-1.6c25.2-63,103.8-73.8,151.1-74.3c3.7-7.1,7.3-16.4,10.7-27.1h-104v-39     c-7.7-0.2-14.9-2.3-21.7-6.2c-39.3-22.9-47.5-103.4-49.1-129.3l-62.5-212.8L421.2,55.1c-46.6,9.5-31.7,118.8-31.7,118.8     L379.9,175.8z"></path></g><g class="st0"><path class="st1" d="M635.9,494.1c1.1-7-15.1-29.9-15.1-29.9c-5-9.5-1.7-11.2-1.7-11.2c-2-2.8-6.4-7-6.4-7     c-6.1-3.3-15.4-27.4-15.4-27.4c-2.2-5.6-3.2-10.2-3.6-13.9l-10.2,0.1c-0.6-0.1-1-0.1-1.4-0.1c-0.6,0-0.9,0.1-1,0.1     c0.1,0.5,0.8,1.6,1.8,2.6l0.5,0.5l-0.8,7.3h-6.1v-4l-48.9,2.4l-4.2-4.5l-47.1,4.2v1.6l4,2.8l0.4,12.2c1.4-0.3,2.5-0.5,2.5-0.5     c9.5-3.9,21.5-2.8,21.5-2.8c3.6,0,11.7,4.2,11.7,4.2c11.7,4.5,8.1,8.9,8.1,8.9c10.9-0.6,14.8-7.5,14.8-7.5c2-5.9,8.4-5.3,8.4-5.3     c0,1.4,5.9,2.2,5.9,2.2c3.3,4.5,6.7,5,6.7,5c1.1,3.9,3.9,4.7,3.9,4.7c2,0.3,2,4.7,2,4.7c1.1-2,7,0.6,7,0.6     c1.4,4.2,3.1,3.9,3.1,3.9c3.9,3.3,0.3,14.8,0.3,14.8c-1.4,8.1,4.2,13.1,4.2,13.1c2-2.8-1.1-5-1.1-6.4c0-1.4,7.3,2,7.3,2     c1.7,1.4-6.1,8.4-6.1,8.4s0,0,0,1.1c0,1.1,10.9,12.8,10.9,12.8c6.7-11.4,4.2,5.3,4.2,5.3c5.9,2.2,5.3,7.3,5.3,7.3     c5.3,8.4,6.4,4.5,6.4,4.5c4.5-1.7,9.8,8.9,9.8,8.9c-0.6,7.3,3.3,7,3.3,7c0.6-3.3,4.7-1.7,4.7-1.7c5.3-1.1,8.7-6.1,8.7-6.1     c-1.7-6.7,2.8-9.5,2.8-9.5C634.8,507.5,635.9,494.1,635.9,494.1z"></path></g><g class="st0"><path class="st1" d="M117.4,385.9c0.7-0.8,1.7-1.1,3.1-1.1c2,0,4.1,0.8,4.5,1l0.1,0l0.3,0.2l0,0c1.9,1.6,32.1,3.4,59.3,4.1     l7.6-105.7c-33.9-2.3-92.7-11.1-102.7-12.6L73,397.8l16.5,2.5l2.2-10.9l26.1,3.1C116.3,389.4,116.2,387.3,117.4,385.9z"></path></g><g class="st0"><path class="st1" d="M455.9,395l0.3-23.7l1.4-25.2l0-17.3l-2-1.3l-0.1,0l0-0.1l-0.1,0h-34.8l0.4,2.9c1.6,3.3,1.4,4.4,0.5,5     c-0.3,0.2-0.6,0.3-0.9,0.3c-0.9,0-1.7-0.7-3-2c-0.7-0.7-1.1-0.9-1.2-0.9c-0.1,0.2-0.5,1.5-0.5,3.1c2.1,2.6,0.8,5.9-0.3,7.2     L415,344l-1-0.5c-0.4-0.2-0.8-0.3-1.1-0.3c-0.2,0-0.3,0-0.5,0.1c-0.9,0.5-1.5,2.3-1.7,4c1,0.8,1.2,1.7,1.1,2.3     c-0.2,1.9-3,3.2-5.6,4c-0.7,5.7,1.5,13.5,1.5,13.5l0,0.3l0,7.5l-1.4,0.1c0.7,5.1,1.8,8.7,2.4,9l0.6,0.2l2.3,6.9h-2.5l0.5,2.4     l-0.5,0.5c-0.1,0.1-8.3,9.4-8.1,22.6l34-1.7l-0.3,1.7c-0.6,3-0.9,9.5,1.9,10.3l0.6,0.2l4.3,9c0.3-0.1,0.4-0.2,0.4-0.2     c5-8.7,8.9-4.5,8.9-4.5c5.9-3.6,6.7,0.6,6.7,0.6l2.1-0.2C460,425.4,457.7,406.7,455.9,395z"></path></g><g class="st0"><path class="st1" d="M357.5,450.6l0.3-8.7l0.2-0.3c2.8-4.7,0.5-7.5-0.3-8.2c-0.9-0.2-1.4-0.8-1.6-1.5c-0.3-1.4,1.2-2.4,2.7-3.2     c2.2-1.2,3-7.1,3-9.8l0-0.2c1.2-5.4-4.3-10.6-4.4-10.7l-1.2-1.1l1.1-0.8c0-0.5-0.5-2.1-1.3-3.9c-5-1.7-4.6-9.4-4.4-11.2     c-0.7-3.6-0.1-24,0-28.1c0-0.3-0.1-0.6-0.3-0.7c-0.3-0.3-1.1-0.6-2.7-0.6c-1.6,0-3.4,0.3-4.5,0.6c-0.3,0.3-0.7,0.5-1.1,0.7     c-0.3,0.1-0.6,0.1-0.9,0.1c-3.1,0-6.6-4.6-7.6-6c-1.8-1.8-2.7-2.3-3.1-2.4c-0.1,0.3-0.1,0.8,0,1.4l0.3,1.6l-6,0l-0.4-0.4     c-1-1-1.6-1.1-1.8-1.1c-0.4,0.1-0.7,0.5-0.7,0.7l-0.3,0.7l-7,1.1c-1.3,1.2-2.9,1.8-4.7,1.8c-2.5,0-4.6-1.2-5.5-1.7l-5.3-0.1     c-0.4,1.2-1.1,2-2.1,2.4c-0.4,0.2-0.8,0.2-1.3,0.2c-3.1,0-7-3.7-8.3-5l-1.4-0.4c-0.7,1.5-2.2,2.2-3.6,2.2c-2.2,0-3.7-0.6-4.3-1.8     c-0.3-0.5-0.4-1.1-0.3-1.7c-0.9-0.3-1.6-0.7-2.1-1.4c-0.3-0.4-0.5-0.8-0.6-1.3l-1.7,0.2c-0.2,0.8-0.6,1.4-1.4,1.5     c-0.1,0-0.2,0-0.3,0c-0.9,0-1.7-0.7-2.3-2.2l0-0.1l-0.1-0.3c-0.6-0.6-4.9-1.7-11.5-2.1l-1.3-0.1v-1.3c0-1.8-0.1-3-0.3-3.7     c-0.3,0.7-0.7,1.3-1.3,1.6c-0.3,0.2-0.7,0.2-1,0.2c-0.9,0-1.7-0.5-1.8-0.6l-0.3-0.2c-0.5,0.5-1.1,0.6-1.4,0.7c-0.1,0-0.3,0-0.4,0     c-3.1,0-6.9-4.9-8-6.4l-0.7-0.9l0.7-0.7c0.6-2.1,1.3-22.2,1.8-41l-50.4-1.6l-7.1,98.2l-1.3,0c-9.6-0.2-57.3-1.5-62.1-4.7     c-0.7-0.3-2.2-0.8-3.4-0.8c-0.5,0-0.9,0.1-1,0.3c0,0-0.8,0.9,1.5,5.1l0,0.1l1.5,0.2c6.1,2,6.4,8.4,6.4,8.4     c7.5,2.8,12.6,12.8,12.6,12.8c10.9,7.3,12.8,15.9,12.8,15.9c-2.5,17.3,7.5,19.3,7.5,19.3c8.7,3.3,13.1,9.5,13.1,9.5     c5.9,6.7,9.5-1.1,9.5-1.1c5.6-10,7.3-11.4,7.3-11.4c2.2,0,6.4-4.2,6.4-4.2c7.5,4.7,18.4,2.2,18.4,2.2s0,0-0.6,1.1     c-0.6,1.1,14.2,15.4,14.2,15.4c-1.7,3.3,3.6,12,3.6,12c1.7,10,4.5,7.5,4.5,7.5c-0.6,2.5,8.7,13.4,8.7,13.4     c6.7,1.4,3.9,7.8,3.9,7.8c2.8,1.7,0.6,7.3,0.6,7.3c5.9,0.8,5,6.4,5,6.4c0.3,8.9,13.7,10,13.7,10c4.5,5,8.1,3.9,8.1,3.9     c9.5-0.6,9.2,3.9,9.2,3.9c4.7,3.9,7.3-1.7,7.3-1.7c-12.6-28.2,7.8-44.9,7.8-44.9c1.7,0.3,11.7-8.1,11.7-8.1     c2-2.5,18.4-8.9,18.4-8.9c3.9-5.9,11.7-10,11.7-10l-0.8-2.5C348.7,453.9,353.4,451.9,357.5,450.6z"></path></g><g class="st0"><path class="st1" d="M442.5,452.3c-4.2-1.1-1.1-6.1-1.1-6.1c1.4,0,4.7-2,4.7-2c1.4-4.7-2.8-5-2.8-5c-1.6,7.3-5.6,4.2-5.6,4.2     c-3.3-1.7-0.8-4.3,1.5-5.9l-3.9-8.2c-3.9-1.8-3.8-8.1-3.4-11.5l-33.3,1.7l-0.1-1.3c-0.8-13.1,6.3-22.9,8.3-25.3l-1-4.4h2.1     l-0.8-2.3c-2.1-1.7-3.1-7.4-3.6-11.4c-1.7-0.2-4.8-0.3-10.8-0.3c-11.6,0-28,0.6-38.8,1.1c-0.1,7.7-0.1,14,0.2,14.9l0.1,0.3l0,0.3     c0,0.1-0.9,7.9,2.9,8.7l0.6,0.1l0.3,0.6c1.4,2.8,2,4.9,1.8,6.2c1.7,1.8,5.7,6.7,4.6,12.3c0,1.8-0.3,9.9-4.4,12.1     c-0.2,0.1-0.4,0.2-0.6,0.3c1.2,1.1,4.5,5.2,1,11.3l-0.3,7.1c9.7-2.5,15.3-0.9,15.3-0.9c4.2,4.2,19.3,3.9,19.3,3.9     c-2.8-10.3,4.2-3.9,4.2-3.9c6.4-3.6,7.3,3.1,7.3,3.1c8.4-0.3,6.4,7.3,6.4,7.3c5.3,4.5,9.2,2.2,9.2,2.2c0-3.9,4.5-3.6,4.5-3.6     c2-3.1,3.9,0.6,3.9,0.6c5,4.2,3.3-5,3.3-5l3.6-2c1.7,0.8,2.8,3.3,2.8,3.3c5.3-0.6,8.7,4.7,8.7,4.7c7.5,0.8,3.3-3.3,3.3-3.3     C451.2,453.4,442.5,452.3,442.5,452.3z"></path></g><g class="st0"><path class="st1" d="M333,143.8l-23.3-0.3h-1.5c-0.3,3.5,1.7,4.4,1.8,4.4l0.6,0.2l0.2,0.6c0.8,2.5-0.8,8.9-1.7,11.9     c1.7,2.6,2.4,4.1,1.3,5c0,0-0.1,0.1-0.1,0.1l2.8,8.1c1,1.3,3.6,5.2,3.2,8.3c0.9,1.2,3,4.5,3,9.8l1.9,12.9c0,0,0,0.1,0,0.1     l67.3-2.3l0.4,0.5c1.8,2.3,3.6,3.8,4.3,4.3c0-0.5,0-1.4-0.4-3.2l-0.4-1.6h4v-4.3l0.7-0.4c0,0,1.5-0.9,1.8-2.5     c0.2-1.3-0.5-2.9-2.1-4.6c-0.1-0.1-1.5-2.1-0.7-4.3c0.8-1.9,2.9-3.3,6.5-4l0.3-0.1l0.3,0.1c0,0,0.2,0,0.5,0     c0.6,0,1.4-0.1,2.4-0.7c2-1.3,3.5-4.1,4.4-8.3l0.1-0.3c0.1-0.1,0.5-0.8,0.2-1.7c-0.4-1.1-1.7-2.2-3.8-3l-0.7-0.3l-0.1-0.8     c0-0.2-0.6-3.9-3.8-4.5l-1.7-0.3l0.7-1.6c0,0,0.2-0.5-0.1-0.9c-0.3-0.5-1.2-1.4-4.2-1.8l-0.4-0.1l-5.2-4.9l1.6-7.5l1-0.1     c0,0,0.3-0.1,0.3-0.2c0,0,0.3-1-2-3.9h-21.5L333,143.8z"></path></g><g class="st0"><path class="st1" d="M731.7,127.1c-4.5-8.9-7.3-7.8-7.3-7.8c-7,2-2.2-8.9-2.2-8.9c-1.9-2.4-2-4.9-1.7-6.6     c-2.8,0.2-6.4,0.9-7.6,3.6v3.2l-22.3,3.1l-8.3,1.8l-0.1,13.6l32.3-7.6l0.5,0.7c0.8,1,7.2,9.2,10.5,12.8c0,0,0.1-0.1,0.1-0.1     c2.8-9.5,6.1-2,6.1-2c0.8-3.3,9.8-4.2,9.8-4.2l-0.8-3.6C732.5,131.5,731.7,127.1,731.7,127.1z"></path></g><g class="st0"><path class="st1" d="M674.2,274.5c-4.5,3.3-3.9,0-3.9,0c-0.6-1.1-4.2,2-4.2,2c-15.6,4.7-1.1-4.5-1.1-4.5c5-3.3,6.1-2,6.1-2     c5.9,3.6,4.5,1.1,4.5,1.1l-5.4-10.5c-16.4,6.2-90.2,16.4-101.5,17.9c0.1,0.9,0.1,1.9,0,3.1l-0.1,2.2l-1.8-1.1     c-0.1,0-0.1,0-0.2,0.1c-0.4,0.2-1.8,1.1-3.3,6.2l-0.6,2l-1.6-1.4c0,0-0.9-0.7-1.7-0.7c-0.1,0-0.3,0-0.4,0.1     c-0.9,0.3-1.6,1.5-2.1,3.5l-0.1,0.6l-0.5,0.3c-0.2,0.1-0.8,0.4-1.6,0.4c-0.5,0-0.9-0.1-1.3-0.3c-0.5-0.3-1-0.7-1.3-1.4l-2.2,1.8     v4.5l-6,1.9c-0.6,1.1-2.6,3.7-6.9,4.5c-1.8,1.2-3.6,2.5-4.4,3.1c0,0.4,0,0.8-0.1,1.1c-0.4,1.7-2,3.2-4.9,4.7l-0.1,1.4l19.3-1.4     c3.6-2.3,11.6-7.1,14.9-7.1c0.3,0,0.5,0,0.7,0.1l14.9-0.1c0.6-0.1,2.3-0.5,4.3-0.5c4.5,0,7.7,1.7,9.2,4.9     c3.2-0.6,11.5-2.2,16.1-2.2c1.2,0,2.1,0.1,2.7,0.3l0.1,0l0.1,0c0.2,0.1,21.2,13.1,27.1,18.9c3.3-1.2,8.8-1.3,8.8-1.3     c-1.1-7,5.3-12.3,5.3-12.3c5.6-9.2,16.7-10,16.7-10c7-4.5-2.5-6.4-2.5-6.4c2.5-3.6-0.8-8.7-0.8-8.7c1.1,1.4,7.8,0,7.8,0     c2-6.7,4.2-7,4.2-7C680,279.8,674.2,274.5,674.2,274.5z"></path></g><g class="st0"><path class="st1" d="M762.6,40.7c-5.1,4-5.1,0.6-5.1,0.6c-1.1-12.5-9.1-8.5-9.1-8.5l-7.9-28.9l-10.2-5.1c2.3,2.8-5.7,6.2-5.7,6.2     c-8.5-1.1-3.4-5.7-6.2-4.5c-2.8,1.1-7.4,19.2-7.4,19.2c2.8,5.1,0.6,7.9,0.6,7.9c-3.4,0-3.4,6.8-3.4,6.8c10.8,3.4,5.1,4.5,5.1,4.5     c-6.8,2.8-6.8,17-6.8,17h-3.4c-0.1,0-0.1-0.1-0.2-0.1l4.3,13.4l4.8,16.3l0,0.1c0.1,2.6,1,6.8,2.3,7.6c0.1,0.1,0.2,0.1,0.4,0.1     c0.2,0,0.4-0.1,0.7-0.2l1.9-1v4.1h5.8c1.4-5.9,2.2-14.2,2.2-14.2c5.1,1.1,8.5-2.8,8.5-2.8c-0.6-3.4,5.1-4.8,5.1-4.8     c1.1-18.4,5.7-9.3,5.7-9.3c7.4-7.4,9.6-4.5,9.6-4.5l8.5-6.8C769.4,45.3,762.6,40.7,762.6,40.7z"></path></g><g class="st0"><path class="st1" d="M664.7,201c-1.5-1.2-2.4-3.1-2.9-4.5l-3.7-3.3c-0.4,0.6-0.8,1.1-0.9,1.4c1.9,6.3,4.7,16.1,5.4,20l12-0.3     l-0.7-1.9C670.3,212.2,664.7,201,664.7,201z"></path></g><g class="st0"><g class="st1"><path d="M681.9,167.6l2.9-8.9l-3.4-2c-5.8-0.9-14.8-4.9-15.3-5.1l-0.9-0.4l-2.2,6.9l-1.4,2.1c0.5,0.7,1,1.8,0.8,2.9      c-0.1,0.7-0.5,1.6-1.7,2.2c-0.1,0.2-0.2,0.8,0.1,1.9h4.5l-1.1,2c0,0-0.4,0.7,0,1.7c0.4,1.1,1.7,2.1,3.7,2.8      c0.8,0,2.7,0.3,3.3,1.9c0.7,1.8-1.1,3.7-2.6,5c-3.2,4.4-4.4,5.5-5.1,5.7c-0.7,0.5-3.4,3.7-5.1,6.1l2.9,2.6      c7.7,6.2,13.2,6,13.2,6l0.8,5.9c2.2-0.6,3.1-7.5,3.1-7.5c4.7-3.1,5.9-16.2,5.9-16.2l-1.1-12C676,170.4,681,168,681.9,167.6z"></path></g></g><g class="st0"><path class="st1" d="M683.7,154.3L683.7,154.3l0,0.1l2.8,1.6c7.5-8.2,17.6-10.6,17.6-10.6c0.5,0.2,2.3-0.3,4.4-1l0-0.1     c1.1-3.8-1-14.6-1.8-18.3l-24.3,5.7C682.9,135.5,684.8,148.6,683.7,154.3z"></path></g><g class="st0"><path class="st1" d="M713.3,124.4l-4.1,1c0.8,3.6,2.6,12.8,2.1,18c2.7-1,5-2.1,5-2.1c0.8-2,2.8-3.6,2.8-3.6     c0.9,0.6,2.7-0.3,4.1-1.2C720.1,133,715,126.6,713.3,124.4z"></path></g><g class="st0"><path class="st1" d="M478.1,430.8l-0.4-11.4l-4.1-2.8v-5.5l48.2-4.3c-1.2-2.7-1.8-5.7-1.8-5.8l-0.2-5.4c-1.9-3-1-10.6-0.8-12.1     l0-0.1l0.1-0.4l0-0.1c1-1.7,1.5-2.7,1.7-3.3c-0.1,0.1-0.3,0.1-0.5,0.2l-2,1.1v-6.2l-3.9-7.7L501.8,322l-16.6,1.8l-23.3,1.9     l-2.8,0.8l1.2,0.8v18.8l-1.4,25.2l-0.3,23.4c0,0.2,4.1,26.7,3.8,36.5l0.3,0v-1.7l5.3-0.3c2.2-14.2,7.3-2.8,7.3-2.8     c1,1.9-0.3,4.8-0.7,5.6C474.9,431.8,476.4,431.2,478.1,430.8z"></path></g><g class="st0"><path class="st1" d="M528.8,174.3l-4.5-4.5c0-0.6,0.1-1.1,0.1-1.7l-17.8,3.5l-5.2,0.8l-0.5,5.5l2,7.7l1.7,11.2l0.8,13.2l1.6,12     l0.4,4.5c0.7-0.1,1.7-0.2,2.8-0.2c2.2,0,4,0.5,5.4,1.4c1.5,1,2.4,2.5,2.8,4.4h6.9l0,1.3c0,0.8,0.2,1.6,0.4,1.8     c0,0,0.7-0.2,2.2-1.8l0.4-0.4l6.2-0.3l-0.1,1.3c0.4-0.5,1-1.3,1.8-2.5l0.2-0.2c0.3-0.3,1.7-1.3,3.2-1.3c0.5,0,1,0.1,1.4,0.3     c1.4,0.8,2,2.6,1.9,5.6c1.2,0.6,2.9,1.2,4.1,1.2c0.5,0,0.8-0.1,1.1-0.2c0.2-0.1,0.8-0.4,0.8-2l0-1l2.1-0.6c-0.3-3.5-0.3-9,2.2-10     c0.3-0.1,0.6-0.2,1-0.2c1.1,0,2.2,0.7,3.5,2.1c0-0.3,0-1-0.5-2.5c-0.3-0.4-0.6-1.1-0.6-2.1c0-1.7,1-3.5,2.9-5.4     c0.1-1.2,0.5-2,1.3-2.4c0.3-0.1,0.6-0.2,0.9-0.2c0.8,0,1.6,0.4,2.5,1.2c1.1-1.3,3.1-4,5.5-7.8l0.1-12.2l1.7-5.5l-0.1-0.3l0.2,0     l0.2-0.7l-2.2-17.1l-1.6-9.6c-8.4,0.6-14,11.9-14,11.9c-4.5-1.1-16.6,4.5-16.6,4.5l-2.6-3.4L528.8,174.3z"></path></g><g class="st0"><g class="st1"><path d="M536.1,140.9c-2.8-2.8-5.1-15.3-5.1-15.3c0.6-10.8-9.1-5.1-9.1-5.1c-6.2,10.8-9.1,10.2-9.1,10.2      c-7.4-9.1,1.7-10.2,1.7-10.2l1.7-5.7c4-4,0-10.8,0-10.8c-2.8-1.7-2.3-5.1-2.3-5.1c5.1-2.3,0-7.9,0-7.9c-1.7,0.6-6.8,0-6.8,0      c-8.5-7.4-9.1-2.8-9.1-2.8c-9.1-7.9-7.9,2.3-7.9,2.3c6.2,2.3-4.5,6.2-4.5,6.2c1.7,9.1-4,10.8-4,10.8V97.3l-2.3,4.5      c-7.4,2.3-3.4,6.8-3.4,6.8c-5.1-1.7-2.8,4.5-2.8,4.5c-4,10.8-2.3,20.9-2.3,20.9c13.8,29.5,2.8,34.5,2.8,34.5      c-0.5,0.7-0.9,1.4-1.3,2.1c2-0.1,4.6-0.3,7.2-0.8l0.1,0l6.8,0l5.7-1l7.8,0.9l6-0.9l10.5-2.1l8.8-1.7c1.2-1.7,2.7-2.2,2.7-2.2      c-2.8-5.7,3.4-10.2,3.4-10.2c2.8-9.6,4.5-2.3,4.5-2.3C539.5,149.4,536.1,140.9,536.1,140.9z"></path></g><g class="st1"><path d="M470.5,80.7c2.8,1.5,6.8,0,6.8,0c4-7,7.9-1.5,7.9-1.5c5.7,3.4,10.8,0,10.8,0c1.1-2.8,8.5,0,8.5,0l-5.1-4.9v-6.5      c-9.6,4-13.6,1.1-13.6,1.1v-5.7l-6.2,3.4c-9.1-4.5-18.7,7.6-18.7,7.6c-5.7-7.7-10.8,0-10.8,0c-2.3-10.5-9.6-9.9-9.6-9.9      c-11.9,5.7-7.9,2.3-7.9,2.3c-0.6-6.8,10.2-14.7,10.2-14.7c-2.8-0.6-9.6,2.8-9.6,2.8c-9.1,13.6-19.8,13-19.8,13      c-0.7,3.4-4,5.1-7.4,5.8c0.5,0.6,1.3,1.5,2.8,1.6l0.1,0l9.5,2.1l4,0.7l3.5,1.9l13.8,1.9l-1.1,1.8v0c0,0-0.1,0.3,0,0.5      c0.1,0.2,0.8,1.2,5,1.4l1.1,0.1l1.3,11.8l3.9,3.3c3.4-6.8,7.2-13.1,7.2-13.1c9.6-4,10.8-0.5,10.8-0.5      C472,90,470.5,80.7,470.5,80.7z"></path></g></g><g class="st0"><path class="st1" d="M568.1,275.9c10-1.4,84.7-11.7,100.8-17.7l-1.7-3.3c-3.9-1.7-6.4,4.2-6.4,4.2c-2.8-0.3-9.5-9.4-9.5-9.4     c-0.8-5.5,6.1,3.9,6.1,3.9c4.5,3.1,4.5,0,4.5,0c-9.2-10-2-8.4-2-8.4c-2.2-4.5-1.4-10-1.4-10c-3.6-0.7-5.1-3.7-5.6-6.5l-13.7-1.7     l-0.1,0c-3.1-1.2-4.8-2.9-5.1-4.9c-0.3-2.5,1.7-4.6,2.7-5.4c0.3-1.7,0-3.1-0.9-4c-1.4-1.5-4-1.6-5-1.6c-0.4,0-0.7,0-0.7,0     l-1.3,0.1l-0.2-1.3c-0.3-2.1-1-3.6-2-4.2c-0.2-0.1-0.4-0.2-0.6-0.3l0,1.4l-1.8,4.8l-8.8-4.2l-1.3,6.2l-1.4-1.1     c-0.3,0.6-0.8,2.2-1,4.1l-0.1,0.6l-2.6,1.7v3.3h-3.8l-1.2,9.4h-5.9l-0.4-0.7c-0.8-1.6-1.4-2.4-1.7-2.8c-0.2,0.8-0.3,2.4-0.2,4.2     l0,0.4l-3.4,6.2l-2.7,9.4c0.5,1.8,0.5,3.2-0.1,4.4c-0.4,0.9-1.1,1.4-1.5,1.6c-2.2,2.5-5.8,2.9-7.6,2.9c-0.8,3.2-2.2,5.2-4,6     c-0.5,0.2-1,0.3-1.5,0.3c-1.3,0-2.3-0.6-2.5-0.8l-0.5-0.3l-0.1-0.5c-0.1-0.5-0.2-0.6-0.2-0.6c-0.9,0-3,1.4-4.7,3.1l-0.5,0.5     l-0.7-0.1c-4.3-0.5-7.3-3.6-8.7-5.6l-10.5,10.3v5.2l-5.6,4.1c1.1-0.1,1.6-0.2,1.8-0.2l18.7-2.2c0.8-0.9,2.2-2.3,3.8-2.3     c0.3,0,0.6,0.1,0.9,0.2C567.2,274.4,567.7,275,568.1,275.9z"></path></g><g class="st0"><path class="st1" d="M205.9,282.3c1,0,2,0,2.9,0c0.6-5.8,3.8-36.9,2.5-44.2c-0.3-3.6,0.6-13.5,1.6-23.1     c0.8-7.8,1.6-15.9,1.5-19.2l-30.9-2.6c-0.2,0-0.5,0-0.9,0c-7.7,0-47.8-4.9-81.1-9.2L90,269.2C101.5,271,177.7,282.3,205.9,282.3z     "></path></g><g class="st0"><path class="st1" d="M21.7,11.6c1.6,1.4,4.2,4.9,2,12.8c0.7,1.8,2,4,3.6,4.5l0.7,0.2l0.2,0.7c0.9,3,4,11.1,6.7,13     c1.3,0.5,5.3,2.2,5.7,5.2c0.2,1.7-0.7,3.3-2.7,4.8c-2.1,4.5-5.2,12.8-3.8,16.5c0.2,0.4,0.3,0.7,0.6,1c1.6-1.6,4.2-3.9,6.3-3.9     c0.4,0,0.9,0.1,1.2,0.3c1.8,0.9,2.1,3.6,1,8.5c0.8,4.2,2.9,11.1,5.2,12.7c0.1,0,0.2,0,0.3,0c0.5,0,1,0.2,1.5,0.4     c1.8,1.1,2.5,4.3,2.3,9.6c0.4-0.4,0.9-0.9,1.4-1.6l0.6-0.7l0.8,0.2c0,0,2.5,0.7,5.5,0.7c1.1,0,2.1-0.1,3-0.3c0.1,0,0.3,0,0.5,0     c0.9,0,3.9,0.1,6.4,1.7c1.2-1.6,3.2-3.8,5.6-3.8c0.2,0,0.4,0,0.5,0c1.4,0.2,2.5,1.1,3.5,2.7l1-7.6l108.1,13.1     c0.6-3.7,2.2-13.1,2.7-18.3l0-0.2c0.3-4.2,1.3-18.3,1.4-22.6c0-0.5,0-0.8,0-1c0-0.8,0.4-4.5,1-10c1.1-9.5,3-26.2,2.9-31.6     c-44.3-4.2-82.2-8.4-82.2-8.4C85.1,5.4,53.6-1,25.4-7.3C24.6-2.7,22.6,8,21.7,11.6z"></path></g><g class="st0"><path class="st1" d="M-24.3,135.5l11.8-43.7c-3.1-1-4.4-2.1-4.4-3.5c0-0.7,0.3-1.3,1-1.8c-1.3-5.1,6.2-9.6,6.5-9.8l0.3-0.2l0.3,0     c0.6,0,0.8-0.2,1-0.4c0.5-0.7,0.5-2.1,0.4-2.6l-0.1-0.7l0.5-0.5c0.7-0.7,4.4-5.5,6.7-8.5l0.2-0.2c2-1.4,1.2-3.5,0.7-4.3     c-2.2-1.3-3.4-3.9-4-6.3l-20.9-4.1l-0.3-0.6c-0.3-0.6-3.3-1.5-9-1.5c-0.8,0-1.5,0-2.2,0.1l-0.5,0l-0.4-0.3     c-0.1-0.1-1.1-0.6-7.2-0.6c-1.7,0-3.5,0-5.1,0.1c-1.7,0.5-3.3,0.8-4.6,0.8c-2.1,0-3.3-0.6-3.7-0.9c-0.7-0.3-1.7-0.5-3-0.5     c-2.4,0-4.7,0.6-4.7,0.6L-66,46l-0.6-0.7c-1.6-1.9-6.4-3.2-8.1-3.6l-0.3-0.1c-1.2-0.7-1.9-0.9-2.2-0.9c-0.2,0-0.3,0-0.4,0.1     c-0.5,0.2-0.7,0.9-0.7,0.9l-0.2,1l-1,0.1c-0.4,0-0.8,0-1.1,0l-0.5,0c-9.5,0-12.1-5.9-12.2-6.2l-0.3-0.6l0.3-0.6     c1.5-2.8,2-5.1,1.3-7c-0.6-1.8-2-2.7-2.5-2.9c-2.2-0.4-3.7-1.3-4.5-2.5c-0.3-0.5-0.4-1-0.5-1.4c-0.6-0.1-1.2-0.2-1.9-0.2     c-0.8,0-1.5,0.1-2.1,0.2l-1.6,8.5C-104.3,50-133,90.5-133,90.5l-2,13.7l0.4,3.6C-124.7,112.4-64.8,126.5-24.3,135.5z"></path></g><g class="st0"><path class="st1" d="M-28,349.9c5.1-3.8,6.6-5.7,7.1-6.4c-0.1,0-0.1,0-0.2,0c-0.6,0-1.3,0.1-1.9,0.2l-1.7,0.4v-10.7l0.7-0.4     c4.3-2.6,3.4-8.6,3.4-8.7l-0.1-0.3l0.1-0.3c1.6-5.1,6.3-7.2,7.5-7.6c0.9-0.7,1.9-1.7,1.9-2.7c-0.1-1-1.3-2-1.9-2.3     c-2.4-1.5-3.7-9.8-4.2-13.6l-70.4-105.2l16.3-64.9c-25.4-6-53.1-12.9-62.8-16.7l0.4,3.5c1.1,12.6-9.2,23.7-9.2,23.7     c-4.7,0.8-3.9,7.5-3.9,7.5c11.2,27.9,1.4,22,1.4,22v10l7.8,16.2c0,0-1.4,6.1,0,6.1c1.4,0,4.5,5.3,4.5,5.3l1.1-3.3     c7.5-4.5,4.2,3.1,4.2,3.1l-2.5-0.6l2.2,3.6c3.3,12.6-3.1,5.3-3.1,5.3c0.2-14-3.3,0.6-3.3,0.6c-2,4.5,3.1,13.4,3.1,13.4     c9.8,0.3,3,8.9,3,8.9c-4.7,1.1-2.5,6.4-2.5,6.4c1.4,0,5,7,5,7c-2.2,0.9,2,8.6,2,8.6c-0.6,1.7,7.8,15.6,7.8,15.6l-3.3,10.9     l1.4,3.6c16.2,2,20.4,9.2,20.4,9.2c1.1,5.9,5.3,7,5.3,7c9.8-1.1,8.7,8.9,8.7,8.9c14.5,2.5,15.4,19,15.4,19v12.8L-28,349.9z"></path></g><g class="st0"><path class="st1" d="M5.2,257.8L3,257.4l-0.3-0.1l0,0l-0.5-0.1l-3,14.2c1.9,4.9,2,7.6,0.3,8.7c-0.4,0.3-0.9,0.4-1.5,0.4     c-2.2,0-5.3-2.1-7.7-4.1c-3,14.3-4.3,19.1-5,20.8c0.8,6.1,2.1,11.1,2.9,11.6c0,0,3,1.6,3.2,4.5c0.1,1.8-0.9,3.5-3.1,5.1l-0.3,0.1     c-0.1,0.1-4.6,1.7-6,5.7c0.2,1.5,0.6,7.4-4,10.7v6c0.3,0,0.6,0,0.9,0c1.9,0,2.7,0.8,3,1.4c0.7,1.5-0.1,3.5-6,8.2l-2.2,3.8     l63.1,38l33.6,5.2L87,271.6C75.9,270.8,16.5,259.9,5.2,257.8L5.2,257.8z"></path></g><g class="st0"><path class="st1" d="M67.8,179.7l-1.4-0.2l3.9-22.4c-7.4-0.4-26.1-4-44.9-7.9L2.9,254.6L5,255c29.7,5.5,74.4,13.4,82.4,14     l11.3-85.2C86.8,182.2,75.8,180.8,67.8,179.7z"></path></g><g class="st0"><path class="st1" d="M301.2,31.7c-0.2,7.1,0.5,13.9,1.6,14.6c0.6,0.3,2.9,2.3,2.3,13.8c0,3.7,0.5,10.9,2.2,14.4     c0.8,1.6,1.2,2.4,1.2,3c1.1,2.4,2.5,6.9,0,11.9l0,4l-1.1,0.2c-2,0.4-2.7,1-2.8,1.4c-0.2,1.1,2.5,3.7,5.7,5.7l0.7,0.4v39.9l22,0.2     l37.8-1.9l20.6,0l-0.9-6.6l-9.7-6.5l-0.1-0.5c-0.6-2.6-4.4-3.9-4.4-3.9l-0.6-0.2l-0.2-0.6c-0.9-2.2-5.5-4.4-8.2-5.3l-0.5-0.2     l-0.3-0.5c-1.9-3.7-0.1-11.9,0.1-12.8l0.1-0.2c0.6-1.1,1.1-2.4,0.6-3.4c-0.5-0.9-2.1-1.3-2.6-1.3l-1.3-0.1l0.1-1.3     c0.3-4.5,1.7-7.9,4.2-10.1c2.1-1.9,4.5-2.3,5.8-2.4l4.4-9.2c-2.5-0.4-2.7-1.6-1.9-1.1c1.7,1.1,15.3-13,15.3-13     c-1.7-6.8,22.1-17,22.1-17c-8.5-5.1-12.5,0-12.5,0c-4.5-0.5-5.1-4-5.1-4c-4,4.5-11.3,4-11.3,4c-3.4-5.7-11.3-5.7-11.3-5.7     c-6.2-6.2-13.6-5.6-13.6-5.6c-5.1,7.4-8.5,0-8.5,0c-13.6,0.6-13.6-5.1-13.6-5.1c0.6-11.9-5.7-11.3-5.7-11.3v10.2     c-4.5,1.2-15.3,1.4-29.7,0.9C302.3,27.9,302.1,29.8,301.2,31.7z"></path></g><g class="st0"><path class="st1" d="M-102.6,16.6L-103,19c0.5,0,1.1-0.1,1.6-0.1c1.5,0,2.8,0.2,3.8,0.7l1.1,0.5l-0.4,1.2c0,0,0,0,0,0     c0,0,0,0.3,0.2,0.6c0.4,0.6,1.4,1,2.8,1.3l0.2,0.1c0.2,0.1,3,1.3,4.1,4.6c0.8,2.5,0.5,5.3-1.1,8.5c0.8,1.3,3.3,4,9.5,4     c0,0,0.5,0,0.6,0c0.3-0.6,0.9-1.4,1.9-1.8c0.5-0.2,1-0.3,1.5-0.3c1,0,2.1,0.4,3.3,1.1c1.3,0.3,6.2,1.4,8.8,3.8     c0.9-0.2,2.7-0.5,4.6-0.5c1.7,0,3.1,0.3,4.2,0.8l0.2,0.2c0,0,0.7,0.5,2.2,0.5c1.1,0,2.5-0.2,4-0.7l0.2,0c0.9-0.1,3.1-0.2,5.6-0.2     c4.2,0,6.9,0.3,8.2,0.9c0.5,0,1.3,0,2.2,0c5.8,0,9.4,0.8,10.8,2.4L-4.1,50c-0.1-0.6-0.1-1.1-0.1-1.3C-5.6,43,5.5,0.3,8.6-11.1     c-44.4-10.3-77-19.5-77-19.5c4.2,7.6,1.9,13.1,1.9,13.1c0.6,2-0.8,3.9-0.8,3.9c3.3,14.5-3.6,1.1-3.6,1.1     c-1.1-3.1,2.2-3.9,2.2-3.9c-4.5-3.6-3.9,4.2-3.9,4.2c-13.1-0.3-23.7-11.2-23.7-11.2c-7.5-8.4-3.6,8.9-3.6,8.9l0.3,16.2     c0.3,4.2,3.9,5.9,3.9,5.9c-8.7-0.6-5,3.1-5,3.1C-94.2,14-102.6,16.6-102.6,16.6z"></path></g></g></g><g class="st0"><g class="st1"><path d="M339.1,622.9c0,0-2.1-5.1,1.5-1.8c0,0,3.5,1.4,5.4,1.8c0,0,2.1,1.7,3.3,1.9c0,0,1.9,0.3,3,5.5c0,0,1.2,1.5,3.2,1.7    c0,0-1.1,2.8-4.1,3.6c0,0-4.1,1.8-4.4,0.8c0,0-4.5,3.4-4.1,5c0,0-2.1,2.2-4.5-0.7c0,0-0.6-4.1,0-4.7c0,0-1.5-6.5-2.7-6.7v-2    c0,0,2.9-1,3.5-2.9L339.1,622.9z"></path></g><g class="st1"><path d="M329.2,613.9c0,0,2.6,0,5.2-1c0,0,4.8-2.8,0-2.8c0,0,1.1-2.3-5.2-1.8c0,0-2.3-1.5-2.3-1.9c0,0-2.2-0.4-1.9,1    c0,0-0.2,1.9,0.8,2.2C325.8,609.8,329.2,612.4,329.2,613.9z"></path></g><g class="st1"><path d="M321.1,611.5c0,0,1.8-0.5,1.8-1.3c0,0-0.2-1.5-0.9-1.6h-3.1c0,0,0.8,0.7,0.9,1.6C319.8,610.2,319.8,611.2,321.1,611.5z"></path></g><g class="st1"><path d="M315.7,603.5c0,0,2.8,0.9,4.2,0c0,0,4.5-0.9,4.4,0.4c0,0,0.6,1.8-3.4,2.6c0,0,0.1-1.1-4.5-1.1    C316.4,605.3,313.9,604.2,315.7,603.5z"></path></g><g class="st1"><path d="M308.9,600.9c0.5-0.4,0,1.3,0,1.3c-1.3,0.8-3.4,0-3.4,0c0.8-1.4-1.1-0.8-1.1-0.8c-1.1,0.3-3.2-0.6-3.2-0.6    c-1.3-0.6-1.3-3.3-1.3-3.3c-0.3-2.2,4-2.8,4-2.8c2.4,0.2,2.3,4.1,2.3,4.1S307.7,601.8,308.9,600.9z"></path></g><g class="st1"><path d="M282,588.8c0,0,0.5,3-2.4,3c0,0-4.1-1.4-4.7-2.3c0,0,0.3-3.5,2.7-3.3l2.5,0C280.1,586.1,283.3,586,282,588.8z"></path></g><g class="st1"><path d="M269.7,591.7c0,0-2.1,2-2.5,1.7s-0.5-0.3-0.5-0.3s0.5-2.4,1.5-2.5c0,0,2-1.4,2.3-0.6C270.5,590,270.3,591.2,269.7,591.7z"></path></g></g><g class="st0"><g class="st1"><path d="M664.8,335l8.5-2.3l22.2-4.4l10-1.7l7.6-1.5c0.5-0.2,3-1.1,5.3-1.1c1,0,1.9,0.2,2.5,0.6c0.5,0.3,0.9,0.7,1.1,1.2l2-0.1    l0.1,1c0,0.2,0.5,4.8,4.6,5.1l0.2,0l2.9,1.2c0.1,0,6.5,2.9,10.8,3.7c0.8-2.9-0.2-11.9-1.2-18l0.1-12.8l-3-10.9    c-1.3-0.3-2.2-1-2.7-1.9c-0.6-1.1-0.4-2.4-0.2-3.2c-1.4-1.3-2.2-4.5-2.5-5.4l-0.1-0.3l0.1-0.3c0.4-1.4,0.2-3.9,0-5    c-1.1-0.9-1.8-3.4-2.3-7.7c-5.5,1.1-5.5,3.4-5.5,3.4c-10.6-0.7-11.9,3.8-11.9,3.8c-2.2,4-11.9,15-11.9,15c4,1.3,3.5,5.3,3.5,5.3    c1.8,1.3,4.9,7.1,0,5.7c-4.9-1.3-5.7,6.2-5.7,6.2c-5.7-1.3-8.4,2.2-8.4,2.2c-4.9-4.4-11,0-11,0c-16.3-1.8-5.3,8.8-5.3,8.8    c4.4,1.3-9.7,11.5-9.7,12.4c0,0.1-0.1,0.2-0.2,0.3V335z"></path></g><g class="st1"><path d="M762.6,333.6c-0.4,2.4-9.4,5.4-9.4,5.4c-4.8-0.4-5.4,2-5.4,2c-0.8,0.8-1.4,1.3-1.8,1.6l-1.6,4.7    c11.7-0.9,21.2-13.2,21.2-13.2L762.6,333.6z"></path></g></g><g class="st0"><g class="st1"><path d="M208,606.9v-65.4l-6.4-3.2c0,0-2.3,0-2.9,1.5c0,0-5.5-3.5-6.7-1.5c-1.2,2-4.6-4.1-4.6-4.1H181c0,0-1.5-2.9-1.5-4.6    c0,0-2.6,2.3-4.1,0c0,0,2.3-0.9-4.4-4.1c0,0-0.9,3.5-3.8,2.6l-4.1-0.6c0,0-1.5,3.2-6.4,2.6c0,0-2.9,2.3-5.2,5.5c0,0-3.2,2-7.6,0.6    c0,0-3.8,2-1.5,3.8c0,0,7,7.3,3.2,9.3c0,0,4.1,0.3,2.6,3.5c0,0,6.4,8.4-2,4.6c0,0-8.1-1.2-2.6-4.9l-4.9-0.3c0,0-0.9,2.9-4.6,1.5    h-4.1c0,0,0.9,3.2,3.5,3.8c0,0-2.9,7,2.3,8.7c0,0,2.9-0.9,6.7,0c0,0,1.7,1.7,4.1,0c0,0,4.9-0.6,1.5,3.8c0,0-0.3,6.7-4.6,6.4    c0,0-2.3-2.6-4.4,0.6c0,0-2.3,0.6-4.1-2c0,0-2.9,0.6-3.5,2c0,0-3.8,5.5-5.2,4.6c0,0-3.2,4.4,0,5.2c0,0,1.8,2-1.4,4.6    c0,0,2,3.5,2.9,6.4h4.4l1.5-1.5c0,0,3.8,6.4-0.6,7c0,0,1.5,5.8,0,5.8c0,0,4.6-4.4,6.1,0c0,0,2.6-1.5,3.2,4.6c0,0-0.3-4.6,2.9-2    c0,0,6.4-1.2,2.6,2c0,0-2.3,8.1-5.5,7.8c0,0-3.2,1.7-2.3,3.2c0,0-7.3,0-9.6,3.5c0,0-3.1-2.6-5.5,0c0,0-6.1,3.8-9.3,2.6    c0,0-10.5,0.6,0,2.8c0,0,3.3,1.3,5.5-1.6c0,0,1.2,0.3,5.2-1.7c0,0,4.4,2,8.4-0.9c0,0,9.3,1.7,4.4-2c0,0,3.5-2,5.8-1.7    c0,0,10.2-3.8,11.6-5.2c0,0,9-4.9,4.4-7.3c0,0-2.3-4.4,2.3-4.6c0,0,2.3,1.5,5.2-4.9c0,0,4.6-8.4,9.6-2.6c0,0,4.1,0.6-4.1,1.7    c0,0-5.2,6.7-4.1,7c0,0,4.9,0.6-0.6,2.3c0,0-0.9,1.5,3.8,1.2c0,0,6.4-4.1,5.2-4.9c-1.2-0.9,1.2,0.9,1.2,0.9s3.2-1.7,3.8,0.6    l-0.3-6.4c0,0,7.6-4.1,8.7,3.5c0,0,4.1,0.9,5.8,3.2c0,0,8.1-1.7,10.5,2.9c0,0,3.5,0,4.6-0.9c0,0,1.7-2.9,0,2.3    c0,0,11,5.8,12.2,8.4c0,0,1.8,0.1,0,2.6c0,0,2.2,0.7,2.2,1.7c0,0.9,0,0.9,0,0.9s5.6,6.4,5.2,8.2c0,0,2.2,2.6,3.9,0    c0,0,3,0.6,1.9,2.8l2.1,1.5v2.8l2.1,3.4c0,0,0.2-2.4,2.8,0c0,0-4.9-10.5,2.4-4.9c0,0,2.6-0.5,2.6,3.4c0,0,6.4-5.6,0-10.9    c0,0-6.4-0.7-7.1-2.8c0,0,0.9-2.4-4.3-6c0,0-1.5-5.4-6-7.7c0,0-0.7-1.3-2.6-3.4c0,0-3.6-7.1-5.2,2.1c0,0-3.6,3.4-4.5,0    c0,0-3.4-4.5-5.4-5.8c-2.1-1.3-0.2-2.4-0.2-2.4s-3.4,0.9-4.1,1.1C209.8,609.7,208,610.6,208,606.9z"></path></g></g><g class="st0"><g class="st1"><path d="M438,634.3c-0.9,0-1.9-0.4-2.9-1.2l-0.2-0.2l0-0.3c0,0,0-0.6-0.5-1.2c-0.6-0.6-1.9-1.3-4.8-1.3c-0.4,0-0.7,0-1.1,0    c-0.1,0-0.4,0.1-0.8,0.1c-1.1,0-3.3-0.4-5.9-3.2c-1.6-0.2-10.7-1.5-11-8.3c0-0.1,0.2-1.8-0.7-3c-0.6-0.8-1.5-1.3-2.7-1.4l-0.7-0.1    l0.3-0.6c0.4-1.1,1.2-4.1-0.2-5l-0.4-0.2l0.2-0.4c0,0,0.9-2.1,0.1-3.6c-0.5-0.9-1.4-1.5-2.7-1.7l-0.2,0l-0.1-0.1    c-1.5-1.8-6.1-7.4-6.8-10.1c0,0-0.1,0-0.1,0c-1.5,0-2.7-2.2-3.4-6.5c-0.6-1-3.8-6.6-3-9.4c-10.6-10.3-11.1-11.8-11-12.3    c-1,0.2-2.5,0.3-4.3,0.3c-3.6,0-6.7-0.7-9.1-2.1c-0.9,0.8-3.2,2.9-4.8,3.1c-0.4,0.4-1.9,2.3-5.4,8.7c0,0.1-1.5,3.3-4.3,3.3    c-1.3,0-2.7-0.8-4-2.3c-0.1-0.1-3.5-4.7-10-7.3l0,0c0,0-8.2-1.8-6.2-15.5c-0.2-0.8-2.1-6.9-9.8-12l-0.1-0.1l-0.1-0.1    c0-0.1-3.9-7.7-9.5-9.8l-0.3-0.1l0-0.4c0-0.2-0.3-4.6-4.6-6l-23.4-2.8l-1.7,8.5l-41.8-6.4l-49.8-30l1.6-2.8l-34.3-3.9v-10.5    c0-0.5-0.8-12.4-11.6-14.3l-0.5-0.1l0.1-0.5c0,0,0.3-3.1-1.4-5c-0.9-1-2.1-1.4-3.7-1.4c-0.3,0-0.7,0-1.1,0.1l-0.1,0l-0.1,0    c-0.1,0-3.6-1-4.5-5.8c-0.4-0.6-4-5.5-15.4-6.9l-0.3,0l-1.3-3.3l2.6-8.4c-2.3-3.9-6-10.3-6.1-12.1c-0.6-1.1-2.5-4.9-1.9-6.6    c0.1-0.2,0.1-0.3,0.2-0.4c-1.2-2.3-2.7-4.6-3.3-4.8h-0.4l-0.1-0.3c0-0.1-0.9-2.3-0.1-4c0.4-0.8,1.2-1.4,2.2-1.7    c0.7-0.9,2-3.2,1.4-4.6c-0.4-0.9-1.6-1.3-3.4-1.4l-0.3,0l-0.2-0.3c-0.2-0.3-4.1-7.3-2.4-10.9c1.4-5.5,2.2-5.5,2.6-5.5    c0.2,0,0.4,0.1,0.5,0.2c0.3,0.3,0.6,1.2,0.6,4.8c0.6,0.6,1.4,1.3,1.8,1.3c0.2-0.2,0.6-1.1-0.5-5l-2.4-3.8l-0.9,2.8l-0.6-1.1    c-1.1-2-2.6-3.8-3-3.9c0,0,0,0,0,0c-0.3,0-0.5-0.1-0.7-0.3c-0.7-0.8-0.2-3.6,0.1-4.9l-6.1-12.6v-8.9l0.8,0.5c0,0,0.6,0.3,1.1,0.3    c0.3,0,0.6-0.1,0.8-0.4c0.7-1,1.1-4.4-3.8-16.5l0-0.1l0-0.1c-0.2-1.9,0.1-5.7,3.3-6.4c1-1.1,7.7-9.2,6.9-18l-0.9-7.9l1.6-10.9    l0.1-0.1c0.2-0.3,22.3-31.6,21.7-46.7l0-0.1l2-11.1l0.3-0.1c1.1-0.3,2.9-1.2,2.9-2c0-0.5-0.6-1-1.7-1.6l-0.1,0l-0.1-0.1    c-0.1-0.1-1.1-1.1-0.6-2.1c0.3-0.8,1.4-1.2,3.2-1.3c-0.8-0.8-1.7-2.1-1.9-4l-0.2-12.6c-0.3-1.3-1.5-7.2-0.2-8.8    c0.3-0.3,0.6-0.5,1.1-0.5c0.8,0,1.7,0.6,2.9,2c0.1,0.1,7.9,8,17.5,8.5c0-0.9,0.1-2.6,0.9-3.5c0.3-0.3,0.7-0.5,1.2-0.5    c0.6,0,1.2,0.3,1.9,0.9l0.8,0.7l-1.1,0.3c0,0-1,0.3-1.4,1c-0.2,0.4-0.2,0.8,0,1.4c0.8,1.5,1.9,3.3,2.5,3.9c0-0.5-0.1-1.6-0.7-4.4    l-0.1-0.2l0.1-0.2c0,0,0.9-1.3,0.6-2.6l-0.1-0.2l0.1-0.2c0,0,1.7-4.2-1.5-9.7l-0.6-1.2l1.3,0.4c0.8,0.2,76.3,21.3,143.5,31.8    c1.1,0.1,115,12.8,155.9,12.8c5.8,0,9.9-0.3,12.2-0.8v-8l0.5-0.1c0,0,0.1,0,0.2,0c0.4,0,1.7,0.1,2.9,1.3c1.5,1.6,2.2,4.3,2,8.1    c0,0,0.2,3.4,8.6,3.4c0.5,0,0.9,0,1.4,0l0.4,0l0.2,0.3c0,0,1.1,2.3,2.7,2.3c0.9,0,2-0.8,3-2.3l0.1-0.2l0.3,0c0,0,0.2,0,0.5,0    c1.4,0,6.2,0.3,10.4,4.4c1.2,0,6.3,0.5,8.9,4.4c0.1,0,0.2,0,0.3,0c1.6,0,5.5-0.3,7.8-2.9l0.8-0.9l0.2,1.1c0,0.1,0.4,2.2,3.2,2.6    c0.5-0.5,2-1.7,4.5-1.7c1.8,0,3.7,0.6,5.7,1.8l0.9,0.6l-1,0.4c-5,2.2-17.9,8.6-16.9,12.6l0.1,0.3l-0.2,0.2    c-2.1,2.1-8.3,8.5-11.2,10.1c0.4,0.1,0.8,0.1,1.4,0.1c2.3,0,6.7-0.9,14.4-5.3l0.1-0.1l0.1,0l0.1,0c0.4,0,0.8,0.2,1,0.6    c0.3,0.5,0.5,1.6-1.4,4.9c0.4,0,0.9,0,1.5,0c3.5,0,9.4-0.6,10.3-4.6l0.1-0.5l0.6,0c0.8,0,8.4-0.3,14.9-9.9l0.1-0.1l0.1-0.1    c0.2-0.1,4.7-2.3,7.2-2.3c0.2,0,0.5,0,0.7,0.1l1.2,0.2l-1,0.7c-0.1,0.1-8.1,6.1-7.7,11l0,0.1c0.8-0.3,2.4-0.9,5.4-2.3l0.1,0l0.1,0    c0,0,0.1,0,0.3,0c1,0,5.7,0.4,7.6,7c0.8-0.9,2.2-2,4-2c1.5,0,2.9,0.8,4.2,2.3c1.4-1.6,6.1-6.4,11.2-6.4c1.2,0,2.3,0.2,3.3,0.7    l5.4-3v5c0.4,0.2,1.4,0.5,2.9,0.5c2,0,4.3-0.5,6.9-1.6l0.8-0.3v5.6l3.8,3.6l-0.6,0.9c0,0-2.5-0.9-4.3-0.9c-0.9,0-1.4,0.2-1.6,0.6    l-0.1,0.2l-0.1,0.1c-0.1,0.1-1.9,1.3-4.6,1.3c-1.5,0-3-0.4-4.4-1.3l-0.1-0.1l-0.1-0.1c0,0-1-1.4-2.3-1.4c-1,0-2,0.8-3,2.5    l-0.1,0.2l-0.2,0.1c-0.1,0-1.5,0.6-3.1,0.6c-0.6,0-1.2-0.1-1.7-0.2c0.1,1.3,0.2,3.6-0.6,4.6c-0.3,0.4-0.7,0.5-1.2,0.5    c-0.4,0-0.9-0.2-1.4-0.5l-0.2-0.1l-0.1-0.2c0,0-0.3-0.7-2-0.7c-1.4,0-3.2,0.5-5.5,1.4c-3,5.1-10.3,18.4-9.6,21.4    c0,0.1,0.1,0.2,0.1,0.2c0.4,0,3-0.8,10.3-13l1,0.5c-2.6,6.4-8.6,24-6.2,27.8l0.1,0.2l-0.1,0.2c0,0.1-3.4,10.4-0.1,15l0.1,0.2    l0,0.2c-0.1,2.6,0,9.8,1.5,11.3c0.2,0.2,0.3,0.2,0.4,0.2c0.1,0,0.2,0,0.4-0.1l0.6-0.3l0.2,0.7c0,0.1,1.4,6.1,4.9,6.1    c1.7,0,4.5-1.4,8.7-8.1l0.1-0.1l0.1-0.1c0.1,0,7.8-4.1-2.5-26.2l0-0.1l0-0.1c-0.1-0.3-1.3-8.1,1.7-16.4c-0.2-0.6-0.7-2.5,0-3.6    c0.2-0.3,0.7-0.7,1.6-0.7c0,0,0.1,0,0.1,0c-0.2-0.6-0.4-1.3-0.2-2.1c0.4-1.2,1.5-2.2,3.5-2.9l1.7-3.3l1,0.2v7.1    c1.1-0.7,2.9-2.6,2-7.4l-0.1-0.5l0.4-0.2c2.3-0.8,4.7-2.2,4.7-3c0-0.3-0.4-0.6-1.2-0.8l-0.3-0.1l0-0.3c0-0.3-0.3-2.8,0.9-4    c0.4-0.5,1-0.7,1.6-0.7c1.1,0,2.4,0.7,4.1,2c0.3-0.4,0.8-0.7,1.6-0.7c1.4,0,3.3,1.1,5.9,3.3c0.5,0,1.9,0.2,3.1,0.2    c1.1,0,1.6-0.1,1.8-0.2l0.3-0.1l0.2,0.3c0.1,0.1,2.3,2.6,1.8,4.8c-0.2,0.9-0.8,1.6-1.7,2.1c0,0.6,0,2.3,1.5,3.1l0.1,0.1l0.1,0.1    c0.1,0.2,3.2,5.6,0,9l-1.4,4.6l-0.4,0c0,0-2.3,0.3-2.9,1.9c-0.5,1.2,0.1,2.9,1.8,5c0.5-0.2,2.6-1.2,6.4-7.7l0.1-0.1l0.1-0.1    c0.1-0.1,2.1-1.2,4.1-1.2c1.1,0,2,0.3,2.6,1c0.9,0.9,1.3,2.5,1.2,4.6c0.5,2.7,2.1,9.9,3.8,11.6l0.1,0.1l0,0.1    c0.2,0.5,1.9,4.9,0.9,7.1c-0.3,0.6-0.7,0.9-1.2,1.1l-0.6,0.2l-0.1-0.6c-0.2-0.9-0.6-1.6-0.8-1.7c0,0-0.7,0.1-1.7,3.5l-0.1,0.2    l-0.2,0.1c-0.2,0.1-4.5,3.3-2.5,7.3l0.3,0.6l-0.6,0.2c-0.1,0-2.6,0.8-2.7,4.6l3.2,3.2l4.9-0.9l2,2.6c1.7-0.8,8-3.5,11.7-3.5    c0.3,0,0.6,0,0.8,0.1c1-1.8,5.4-9.2,11.8-9.2c0.1,0,0.2,0,0.3,0c4.1-2.9,8.5-6.3,8.9-7.1c0.1-0.4,0.6-1,3-3    c2.6-2.2,7.9-6.9,7.6-8.4c0-0.1,0-0.2-0.5-0.3l-0.1,0l-0.1-0.1c-0.5-0.5-4.8-4.7-3.6-7.6c0.6-1.6,2.6-2.3,6-2.3    c0.9,0,2,0.1,3.2,0.2c0.7-0.4,3.2-1.9,6.2-1.9c1.9,0,3.5,0.6,5,1.7c0.8-0.8,2.7-2.3,6-2.3c0.7,0,1.3,0.1,2,0.2    c0.3-1.7,1.5-6.2,5.1-6.2c0.4,0,0.8,0.1,1.2,0.2c0.4,0.1,0.8,0.2,1.1,0.2c0.6,0,0.7-0.3,0.8-0.4c0.4-1.1-1.3-3.8-2.3-4.6l-0.2-0.2    l0-0.3c0-0.1,0.3-3.6-3.2-4.7l-0.8-0.3l0.5-0.6c0.1-0.1,9.6-11,11.8-14.9c0.2-0.6,1.9-4.2,10.3-4.2c0.5,0,1.1,0,1.7,0    c0.4-1,1.9-3,8.3-3.7l21.5-4.3c-0.1-1.3-0.3-4.7,1-6.3c0.5-0.5,1.1-0.8,1.8-0.8c0.7,0,1.5,0.3,2.3,0.8h2    c0.1-2.3,0.7-11.2,5.6-13.2l0,0l0.1,0c0.3-0.1,0.7-0.2,0.7-0.3c0,0,0,0,0,0c0,0-0.4-0.8-4.8-2.1l-0.4-0.1v-0.4    c0-0.2,0-5.5,2.9-5.8c0.3-0.6,1-2.4-0.6-5.4l-0.1-0.2l0.1-0.2c0.6-2.4,3.7-14.5,6.1-15.4c0.3-0.1,0.5-0.2,0.7-0.2    c0.3,0,0.5,0.1,0.6,0.2c0.2,0.3,0.2,0.6,0.2,0.9c0,0.7-0.1,2,3.5,2.5c1.5-0.7,4-2.1,4.2-3.3c0.1-0.3,0-0.5-0.2-0.7l0.7-0.8    l8.2,4.1l6.1,22.2c0.4-0.1,1.1-0.3,1.8-0.3c1.8,0,4.9,1,5.5,7.6c0,0.3,0.1,0.6,0.5,0.6c0.3,0,1.1-0.2,2.6-1.4l0.3-0.2l0.3,0.2    c0.1,0.1,2.1,1.4,2.5,4.1c0.3,2.1-0.5,4.5-2.4,6.9l0,0l-7.1,5.7l-0.3-0.4c0,0,0,0,0,0c0,0-0.2-0.2-0.8-0.2c-0.8,0-2.6,0.5-5.9,3.8    l-0.5,0.5l-0.3-0.7c-0.3-0.6-1-1.5-1.4-1.5c-0.2,0-1.5,0.2-2,8.5l0,0.4l-0.4,0.1c0,0-3.9,1-3.6,3.2l0,0.3l-0.2,0.2    c-0.1,0.1-2.2,2.6-5.6,2.6c-0.3,0-0.6,0-0.9-0.1c-0.3,2.7-1.5,12.6-3.3,15c-0.2,0.4-1.4,3.3,0.8,6.1l0.2,0.3l-0.1,0.3    c-0.7,1.7-1.6,4.8-0.9,5.9c0.1,0.2,0.4,0.4,1,0.4c0.3,0,0.6-0.1,1-0.2c0,0,0.2-0.1,0.4-0.1c1,0,3.1,0.8,5.9,6.4l0,0.1l0,0.1    c0,0.1,0.2,0.7,1.1,0.7c0.8,0,2.3-0.4,5-2.6l0.7-0.5l1,4.3l-0.6,0.1c-2.5,0.2-6.7,1.2-7.1,2.9l-0.4,1.5l-0.6-1.4    c-0.3-0.6-1.1-1.9-1.7-1.9c-0.2,0-1.1,0.2-2,3.3l0,0.2l-0.1,0.1c-0.3,0.3-3,2.5-4.8,2.5c-0.2,0-0.3,0-0.5-0.1    c-0.4,0.4-1.3,1.4-1.8,2.4l-0.1,0.2l-0.2,0.1c-0.8,0.3-7.7,3.3-9.6,3.3c-0.1,0-0.2,0-0.2,0c-1,0.3-8.4,2.4-13.7,8.5    c-0.6,1.1-1.1,2.4-1.3,3c0.3-0.2,0.8-0.6,1.7-1.4c0.2-0.5,1.2-2.3,4.8-2.3c0.3,0,0.7,0,1,0c3.6-1.2,8.6-3.6,8.9-5l0.1-0.5l4.5,0.6    l-0.6,0.7c-0.4,0.5-10.3,13.2-22.5,13.5c-0.8,0.3-1.6,0.9-1.6,1.1c0,0,0,0,0,0c0,0,0.3,0.4,2.6,0.6l0.4,0l0.9,9.8    c0,0.5-0.9,10.3-4.6,13c-0.2,1.4-0.9,5.6-2.8,6.1l-0.6,0.1l-0.7-4.7c-1.2-0.1-4.6-0.6-8.9-3.8c0.4,1,1,2.1,1.9,2.9l0.1,0.1    l0.1,0.1c1.6,3.3,4.9,8.5,6.7,8.6l0.3,0l1.5,3.9l-0.2,8.5l-0.3,0.2c-0.2,0.1-4.5,2.5-4.1,8.4c0,0.7,0.4,6.4-1.3,8.2    c-0.3,0.4-0.7,0.5-1.2,0.5c-0.5,0-1-0.2-1.5-0.6l-0.2-0.1l0-0.2c-0.2-1.5-0.9-9.3,0.7-11c0.2-0.2,0.4-0.4,0.6-0.4    c0.3-0.5,0.7-1.5,0.5-2.2c-0.2-0.4-0.7-0.8-1.5-0.9l-0.6-0.1l0.1-0.6c0,0,0.3-1.1-0.4-2c-0.6-0.7-1.7-1.1-3.2-1.1    c-0.4,0-0.8,0-1.2,0.1c0,0,0,0,0,0c0,0-0.1,0-0.4,0c-0.9,0-3-0.5-3.9-4.8l-0.1-0.5l0.5-0.1c0.8-0.2,1.5-0.7,1.5-1    c0,0,0-0.4-1.6-1.1l-0.2-0.1l-1.1-2.2l2-0.3c-0.1-1.5-0.5-4-1.5-4.2l-0.7-0.1l0.3-0.6c1-2,1.7-4.1,1.8-4.9    c-0.2,0.1-0.6,0.4-1.3,1.1l-0.1,0.1l-0.1,0c-0.3,0.1-2.7,0.9-1.8,4.1c0.3,2,1,6.5,0.1,7.5c-0.1,0.1-0.2,0.2-0.3,0.2    c0.1,1.6,0.7,4.2,2.3,4.5l0.5,0.1l-0.1,0.5c0,0.1-1,7.7,4.1,8.8l0.5,0.1l-0.1,0.5c0,0-0.6,4.2,1,7.5l0.5,1l-1.1-0.3    c0,0-0.3-0.1-0.7-0.1c-0.2,0-0.7,0-0.8,0.3c-0.1,0.2-0.3,1.3,3.5,5.4l0.1,0.2v0.2c0,0.6-0.4,1.6-1.6,1.6c-0.7,0-1.6-0.4-2.8-1.2    l-0.1-0.1l-0.1-0.1c-1.5-2-3.2-3.8-3.9-4.1c0,0.1,0,0.3,0,0.6c1.8,2.5,5,6.3,6.6,6.9c0.5-1,2-3.4,4.2-3.4c0.4,0,0.9,0.1,1.3,0.3    l0.2,0.1l6.6,12.8c0.1,0.1,0.3,0.6,0.1,1.1c-0.1,0.1-0.3,0.4-0.8,0.4c-0.4,0-1.2-0.2-3.6-1.6l-0.1,0l0-0.1c0,0,0,0,0,0    c0,0-0.1,0-0.3,0c-0.5,0-1.6,0.2-3.8,1.7c-2.1,1.4-4,2.9-4.5,3.5c0.1,0,0.1,0,0.2,0c0.8,0,2.4-0.3,4.6-1c0.6-0.5,2.2-1.8,3.2-1.8    c0.4,0,0.7,0.2,0.8,0.5l0.1,0.2l0,0.2c0,0.2,0,0.4,0.1,0.5c0,0,0.1,0,0.1,0c0.2,0,0.7-0.1,2-1.1l0.4-0.3l0.3,0.3    c0.1,0.1,2.9,2.6,2.7,5c0,0.9-0.5,1.6-1.3,2.2l-0.1,0.1l-0.1,0c0,0-1.5,0.4-2.8,5.1L736,443l-0.3,0.1c-0.1,0-2.4,0.5-4.2,0.5    c-0.3,0-0.6,0-0.8,0c0.6,1.3,1.2,3.5,0.3,5.4c1.2,0.3,3.4,1.2,3.6,2.6c0.2,1.1-0.5,2.1-2.2,3.2l-0.1,0.1l-0.1,0    c-0.1,0-8.5,0.7-12.6,7.6l0,0.1l-0.1,0.1c0,0-4.8,4-3.9,9.1l0.1,0.6l-0.6,0c-3.1,0.1-7.8,0.8-8.2,2l0,0.1l-0.1,0.1    c-0.1,0.1-7.4,6.6-6.4,11.5l0.1,0.7h-0.7c-0.2,0.1-0.8,0.9-0.5,4l0.1,0.7l-0.7-0.2c0,0-0.2,0-0.6,0c-1.3,0-2.9,0.6-3.1,3.5l0,0.3    l-0.3,0.1c-0.9,0.4-3.4,1.9-3.4,3.2v0.4l-0.3,0.1c-1.6,0.6-3.8,2-3.6,2.8l0.2,0.7h-2.2c0.1,0.4,0.2,0.8,0.2,1.4    c-0.1,2-1.7,4.3-4.8,6.7c-0.4,0.7-3.3,6-4.7,14.3l0,0.1l0,0.1c0,0.1-2.7,6.1,2.2,18.3c0.1,0.2,7.2,18.6,11.7,21.1l0.1,0l0.1,0    c0.1,0.1,3.5,3.3,5.1,5.5l0.4,0.5l-0.6,0.3c0,0-2,1.3,1.5,8c0.5,0.7,12.7,18,11.8,23.6c-0.3,3.9-0.5,10.6,0.5,11.8l0.4,0.5    l-0.5,0.3c-0.1,0.1-3.1,2.1-1.9,6.8l0.1,0.2l-0.1,0.2c-0.1,0.2-2.8,4.1-7.1,5l-0.2,0l-0.2-0.1c0,0-0.7-0.3-1.5-0.3    c-0.9,0-1.3,0.4-1.5,1.2l-0.1,0.4c0,0-0.4,0-0.4,0c-0.4,0-1.3-0.1-2-0.9c-0.9-1-1.3-2.7-1.2-5c-1-2-3.9-6.7-6.3-6.7    c-0.1,0-0.3,0-0.4,0c-0.2,0.4-0.6,0.8-1.3,0.8c-1.2,0-2.7-1.5-4.6-4.5l-0.1-0.2l0-0.2c0-0.1,0.3-3.5-3.8-5.1l-0.4-0.2l0.1-0.4    c0.5-3.2,0.5-6.3,0-6.6c0,0-0.6,0.1-2.2,2.9l-0.4,0.6l-0.5-0.5c-5.7-6.2-8.6-9.7-8.6-10.4v-1.1l0.2-0.2c2.7-2.4,4.9-5,4.8-5.7    c-1.4-0.7-3.7-1.6-4.7-1.7c0.1,0.2,0.2,0.5,0.4,0.7c0.6,1,1.5,2.6,0.3,4.3l-0.4,0.5l-0.5-0.4c-0.2-0.2-4.6-4.2-3.4-10.7    c0.8-2.4,2.2-8.8,0.1-10.9c-0.6-0.1-1.7-0.6-2.6-3.2c-0.6-0.2-2.3-0.9-3.6-0.9c-0.3,0-0.8,0-0.9,0.3l-1,1.8l0-2.1    c0-1.2-0.3-3.1-1.1-3.2c-0.2,0-2.4-0.7-3.4-3.8c-0.8-0.2-3-1.1-5.1-3.9c-1.9-0.3-4-0.8-4.6-1.7c-1.1,0-4.5,0.3-5.6,3.8l0,0l0,0    c-0.1,0.2-3.3,5.7-12,6.2l-1.2,0.1l0.8-1c0,0,0.5-0.6,0.2-1.6c-0.3-1.1-1.7-2.8-6.3-4.6c-0.1-0.1-6.3-3.2-9-3.2    c-0.1,0-1.3-0.1-3.2-0.1c-3.6,0-8.9,0.4-13.4,2.3l-0.1,0l-0.1,0c-2.7,0.5-5.9,1.3-6.5,1.8l-0.1,0.1l-1-0.3c0-0.1,0-0.3,0.2-0.5    c0.6-1.2,1-2.9,0.5-3.8c-0.6-1.3-1.7-3.1-2.6-3.1c-0.3,0-1.3,0.4-2.1,5.1l-0.1,0.4l-4.1,0.2v1.3l-4.9,0.5l-0.1-0.5    c0-0.1-0.3-1.2-1.5-1.2c-0.8,0-1.7,0.4-2.9,1.1l-0.4,0.2l-0.3-0.3c0,0-0.6-0.6-1.6-0.6c-1.5,0-3,1.4-4.5,4l-0.1,0.1l-0.1,0.1    c-1.6,0.8-4.2,2.6-4.2,3.8c0,0.4,0.3,0.8,1,1.1l0,0l0,0c0,0,0.5,0.4,1.1,0.4c1.3,0,2-1.8,2.3-3.4l0.1-0.5l0.5,0    c0.1,0,1.6,0.1,2.4,1.3c0.6,0.8,0.7,2,0.3,3.3l-0.1,0.2l-0.2,0.1c-0.3,0.1-2.4,1.4-3.6,1.6c-0.3,0.7-0.9,2-0.5,2.8    c0.2,0.4,0.6,0.7,1.2,0.9c1.1,0.1,6.8,1,7.7,3.3c0.4,0.4,1.3,1.5,0.9,2.5c-0.3,0.7-1.1,1.1-2.6,1.1c-0.4,0-0.9,0-1.4-0.1l-0.3,0    l-0.1-0.2c0,0-2.3-3.5-5.7-3.5c-0.2,0-0.4,0-0.6,0l-0.4,0l-0.2-0.4c-0.2-0.5-0.9-1.7-1.7-2.2l-2.2,1.2c0.2,1.1,0.4,3.5-0.5,4.5    c-0.3,0.3-0.7,0.5-1.1,0.5c-0.6,0-1.2-0.3-2-1l-0.1-0.1l-0.1-0.1c-0.2-0.4-0.8-1.1-1.2-1.1c-0.3,0-0.7,0.4-0.9,0.7l-0.2,0.3    l-0.3,0l-0.1,0c-0.8,0-2.8,0.2-2.8,2.3v0.3l-0.3,0.2c0,0-0.9,0.5-2.3,0.5c-1.3,0-3.2-0.4-5.5-2.3l-0.3-0.2l0.1-0.3    c0,0,0.5-2.2-0.6-3.7c-0.7-0.9-1.9-1.3-3.6-1.3c-0.1,0-0.8,0-0.8,0l-0.1-0.5c0-0.1-0.4-2.8-2.5-2.8c-0.7,0-1.5,0.3-2.4,0.8    l-0.3,0.2l-0.3-0.3c-0.6-0.5-1.8-1.4-2.4-1.4c-0.2,0-0.2,0.1-0.3,0.1c-0.1,0.2-0.5,0.9,0.3,3.8l0.2,0.7l-0.7,0l-0.5,0    c-2.7,0-11.8-0.2-14.8-3.1c-0.4-0.1-1.7-0.4-3.7-0.4c-4.3,0-11.3,1.1-20.4,6.4l0.7,2l-0.4,0.2c-0.1,0-6,3.3-9,7.7l-0.1,0.1    l-0.2,0.1c-5.1,2-13.1,5.4-14.1,6.8l0,0l0,0c-1.8,1.5-7.5,6.2-9.3,6.4c-1.5,1.3-14.8,14-5.8,34.3l0.1,0.2l-0.1,0.2    C441.6,631.7,440.4,634.3,438,634.3z M111,375.9c0.3-0.8,0.5-1.8,0.3-2.2c0,0-0.1-0.1-0.4-0.1c-0.4,0-1.1,0.2-2.4,0.9l-0.3,0.8    L111,375.9z"></path></g></g><g class="st0"><line class="st2" x1="289.4" y1="359.4" x2="267.4" y2="525.1"></line><path class="st2" d="M524,272c0,0,2.3,0.8,2.6,1.8c0,0,0.9,2.4,3.5,2.5l7.3,1.7l2.9,0.5l2.8,1.6l9.3,1.3c0,0-1.8,2.7,4.7,3.1l1,8.8   l2,1.8"></path><polyline class="st2" points="525.8,341.9 535.7,341.6 544,341.2 552.8,340.7 562.1,340.3  "></polyline><path class="st2" d="M576.4,350.8c0,0,4.4,0.4,9.4-0.6h5.2l4.5-0.7l6.1,0.7l4.8-0.7l4-0.8l4.3-0.8l4.3-0.8"></path><path class="st2" d="M566.7,353v12.2l1.9,9.6V385l1.3,10.2c0,0-1.1,3.5,1,5.6c0,0,1.3,5.4-0.8,6.4c0,0-1.6,6.9-3.4,6.5l-0.8,7.8   c0,0-2.6,1.8-1.4,3.8c0.2,0.3,0.4,0.6,0.8,0.8c2.7,2.2-2.1,1.8-2.1,1.8s-4.6,0.2-2.4,4.6l-0.2,2.7c0,0-7.7-5.6-9.4,0.9"></path><path class="st2" d="M566.4,419.5l6.9-1.3l2.4,1.5l2.4,1c0,0,3.2-8,5.7-1.1c0,0,3.5,1.3,2.4-4.1l2.4-2.1v1.9l4.8,0.3v-3.3l5.9-5.9   l0.6-4.5c0,0,8.8-0.2,6.5-4.8l-0.6-7l-1.3-9.4l-0.6-10.2l-1.3-8.6l-1.6-6.2l0.5-5.3"></path><path class="st2" d="M606.4,394.6c0,0,7.9-2.3,8.5,4.1h5.3c0,0,0,4.9,3.8,0.6l3.2-0.2c0,0-0.3,4.3,3.4-1.5c0,0,3.8-3.1,3.2,3.5   c0,0,6.7,3.8,6.9-1.4l1.8-0.5c0,0-1.3-11.8,3.5-6.2c0,0,2.7,1.3,1.1-3.4c0,0-1.6-1.6,1.9-4.9c0,0-0.3-3.2,2.7,0   c0,0,2.3-2.5,5.3-7.3l0.1-9.6l1.7-5.3l-0.8-6.2l-1-7.3l-1.3-7.9l-0.8-4.1"></path><path class="st2" d="M637,402.5v5l3,1.5v2.3c0,0,3.8,5.3,6.4,5.7c0,0,2.4,4.5,6.7,4.9c0,0,4.9-5.1,5.6-1.4c0,0,3.4,2.4,4.8-4.5   c0,0,4.2,0.3,6.1-2.1c0,0,1.9-0.6,0.8-3.8c-1.1-3.2,0.4-1.2,0.4-1.2l1.9-6.6l2.6-4.7c0,0-0.5-9.4,3.5-1.6h3l1-7.3h2.9v-2.1l2.1-1.4   c0,0,0.6-5.3,2.2-4.1l1-4.5l7,3.4l1-2.6v-2.6c0,0-4.8-3-6.9-3.2c0,0-4,0.5-3.5,2.7l-4-0.5l-2.1,3.4h-2.6l-3,4.3l-1.9,0.2l-0.5-7.5"></path><polyline class="st2" points="629.8,435.6 637,430.4 637,426.4 646.4,417.1  "></polyline><path class="st2" d="M698.8,375.8c0,0,3.3-0.8,4.1,4.5c0,0,7.5-0.8,6.2,6c0,0-5.3,3.9,1.3,6.5l8.8,1.3"></path><path class="st2" d="M658.4,363.3l2.8,12.4l18.4-2.5l12.6-3.2l11.9-2l11.5-2.6l6.1-1c0,0,5.6,18.4,5.6,20.7l9.6-1"></path><path class="st2" d="M663.7,331v5.3l9.8-2.7L687,331l8.7-1.7l10-1.7l7.6-1.6c0,0,7.4-2.9,7.9,0.8l1.8-0.1c0,0,0.5,5.7,5.6,6.1   l2.9,1.2c0,0,5.6,2.7,9.8,3"></path><path class="st2" d="M729.7,333.3l-2,6.3l-1.4,2.2c0,0,2.1,2.1,0,3.1c0,0-1.2,0.8,0,3.4h2.5c0,0-1.7,3.1,3.6,5.1c0,0,4.1,0,0,3.6   c0,0-2.9,4-3.5,4.1c-0.6,0.1-3,3.4-3.1,4.4"></path><path class="st2" d="M731.8,267.5c0,0,0.5,10.8,2.4,10.8c0,0,0.6,3.9,0,6c0,0,1.2,4.8,2.7,5.3c0,0-1.9,3.9,2.4,4.6l3.2,11.7   l7.3-1.6v-3.7l1.1-3.7l-1.1-1.8l1.1-10.1v-6.2v-2.5c0,0,6.7-5.7,3-8.7l-1.1-6.4"></path><path class="st2" d="M757.3,255.8l4.8,15.1l3.7,12.5c0,0,0.5,8.6,4.1,6.8v2.5h3"></path><path class="st2" d="M772.9,296.7c0,0-4.6-1.1-6.4,3.4v1.8l-16.5,2.3"></path><path class="st2" d="M742.6,305.9l-0.1,12.8c0,0,2.9,14.1,1,17.2"></path><path class="st2" d="M742.5,318.6l25.8-6.1c0,0,3.6,5.6,5.9,7.7"></path><path class="st2" d="M763.4,313.7c0,0,2.8,8.7,1.6,12.7"></path><path class="st2" d="M479.2,498.2c0,0,7.5-2,7.5,1.6c0,0-0.7,19.8,0,21.8c0,0-0.9,7.1,3.1,7.9c0,0,2,4,1.1,4.6c0,0,4.9,4.4,3.7,9.3   c0,0,0,7.1-2.9,8.6c-2.9,1.5-0.9,1.8-0.9,1.8s3.7,2.9,0.7,7.9l-0.7,4"></path><path class="st2" d="M487,508.6c0,0,41.1-2,41.4,0v-5.3c0,0-2-6.8-1.1-11.7c0,0,6.6-1.8,3.3-3.5c0,0,0.4-6.4,4.2-4.4   c0,0,2-2.6,0-4.6c0,0-0.1-6.4,3.2-2.8c3.3,3.5,0.8-1.5,0.8-1.5l-0.4-3.6h28.7l2.4,1.5v14.1l-1.1,19.6l-0.2,18.3   c0,0,3.7,20.5,2.4,24.3"></path><path class="st2" d="M527.1,508.1c0,0,0.9,8.4,2.7,9.1l1.2,3.5h-1.8l0.6,2.6c0,0-7.2,7.9-6.5,19.4l26.2-1.3c0,0-1.5,8.2,2.2,9.3   l2,4.4"></path><path class="st2" d="M476.9,448.5l61.6-1.6c0,0,3.3,1.5,0,4.6l-2,3.7l8.1-0.5l-1,3.6l-0.2,4.4l-3.3,1.3c0,0,2.2,4.6,0.8,7.1"></path><path class="st2" d="M544.6,454.8c0,0,3.8-4.3,3-9.7c0,0,18.6,0,19.7-1.1v-3.4c0,0,19.1-0.7,22.7-1.8h12.4c0,0,12.7-2.2,16.3-1.8   c0,0,15.5-1.9,16.5-2l15-1.8c0,0,4.2-5.4,3.8,3.1c0,0-2.2-1.3-4.2,5.5c0,0-3.5-3.1-5,2.8c0,0-1.9,1-2.2-1.9l-3.4,2.7v3.3l-4.4,1.4   c0,0-1.1,2.7-5,3.4c0,0-4.3,2.9-4.2,3.1c0,0,1.4,1.8-3.7,4.2l-0.3,3.9l-17.4,1.9l-14.4,1.6l-18.2,1.5l-4.6,1.3"></path><path class="st2" d="M603.8,467.6l9.9,35.1l3.1,6.2v3.3c0,0,4.2-2.4,0.5,3.9c0,0-1,7.1,0.6,8.9l0.1,4.4c0,0,0.7,3.5,2.1,5.7   l-38.2,3.4v2.8l3.1,2.2l0.2,6.9"></path><path class="st2" d="M620.1,535l3.3,3.5l38.8-1.9v3.1h2.8l0.5-4.2c0,0-4.6-4.6,1.2-3.9l6.4,0.7"></path><path class="st2" d="M621.7,463.7l16.5-1.2c0,0-8.1,6.6,4.8,8.6l2.7,4.9c0,0,3.3,5,6.9,5.1c0,0,1.7,4.1,5.9,5.3   c0,0,1.2,4.7,6.6,6.3c0,0,2.8,3.3,3.4,6.6c0.1,0.3,0.1,0.6,0.1,0.9l2.9,0.9c0,0,3.6,2.3,2.4,7.7h4.8"></path><path class="st2" d="M638.2,462.5c0,0,9.9-6.3,11.7-5.4l11.9-0.1c0,0,7.8-2.2,9.8,3.6c0,0,12.5-2.6,14.9-1.7c0,0,16.4,9,18.2,12.2"></path><path class="st2" d="M653.8,433c0,0,69.7-9.7,78.8-14.7"></path><path class="st2" d="M503.3,271.1v11.6c0,0-6.8-0.6-7.4,8.7c0,0,4.9,0.4,2.5,5.1c0,0-1.5,6.6-0.2,9.3c0,0,5.9,1.9,7,4.7   c0,0,3.6,1.1,4.2,3.8l7.6,5.1l0.9,6.8h-17.3l-29.6,1.5l-18.2-0.2"></path><path class="st2" d="M451.8,345.1l2.6,7.7c0,0,3.1,4,2.3,6.3c0,0,2.5,2.5,2.5,7.4l1.5,10.2c0,0,1.3,5.9,2.5,5.7l1.6,5.7"></path><path class="st2" d="M461,377.7l52.8-1.8c0,0,6.8,8.7,4.9,0h2.8v-3.8c0,0,4.4-2.5,0-7.2c0,0-2.5-3.4,4-4.7c0,0,5.1,1.3,7-7.8   c0,0,1.9-3-3.4-5.1c0,0-0.6-3.8-3.8-4.4c0,0,1.3-2.8-4.2-3.6l-3.4-3.2l0.9-4.5c0,0,3.2-0.4-0.9-5.3"></path><path class="st2" d="M362.5,437.3l-6.1,84.8c0,0-45.6-1.1-48-3.5c0,0-8.3-3.5-3.7,5"></path><path class="st2" d="M378.2,385.9l86.6,2.2c0,0,1.5,3.2,5.6,2.3c0,0,4.4-1.6,1.1,4.4c0,0-1.5,6,4.6,7l1.3,38.5l-102.4-2.5"></path><path class="st2" d="M361.9,445.5l41.4,1.3c0,0-0.7,32.8-1.6,33.7c0,0,5.3,7.3,6.7,3.4c0,0,1-1.4,1,1c0,0,1.8,1.3,1.8-1.8   c0,0,2.1-1.8,2.1,4.6c0,0,10,0.5,10,2.5c0,0,1.3,3.1,1.3-1.3c0,0,1-1.6,1.1,0.8c0,0.1,0,0.2,0,0.3l2.1-0.2c0,0-0.6,2.2,2.3,2.3v0.2   c0,0-1.5,2.3,2.3,2.3c0,0,2,0,2-2l2.4,0.7c0,0,7.9,8.4,7.9,0.2c0,0,1.6-2.4,1.6,1.6l3.6,0c0,0,4.1,3,7.1,0l5.2-0.8c0,0,1-2.6,3.7,0   h3c0,0-1-5.3,4.3,0c0,0,6.8,9.6,6.8,0v-30.2l-3.2-16.5l0.8-7.4"></path><path class="st2" d="M219.2,207.3c0,0-11.5,43.4-10.2,47.1c0,0,0.2,6.1,3.4,7.6c0,0,2,3.1-0.7,5c0,0-4.5,6-5.3,6.8   c0,0,0.7,3.5-2,3.6c0,0-6.3,3.8-4.3,7.3c0,0-3.6,1.2,2.6,3l-9.8,36c0,0-83.8-18.5-88.4-22.6"></path><path class="st2" d="M198.6,448.2"></path><path class="st2" d="M193,323.6c0,0,64.5,15,74.3,14.6"></path><path class="st2" d="M156.6,315.6l-12.8,50.9l54.8,81.9c0,0,0.5,0.2,4.3-18c0,0,11.4,10.5,6.5-1.9l20.6-96.4"></path><path class="st2" d="M128.7,232.8c0,0,3.6-1,6,0c0,0-0.7,2.1,3.1,2.8c0,0,5.3,2.3,1.5,9.3c0,0,1.8,4.3,8.9,4.2c0.3,0,0.5,0,0.8,0   c0,0,0.7-3,4.1-0.8c0,0,5.1,1,6.9,3.1c0,0,4.3-1.2,6.8,0c0,0,1.5,1.3,5.8,0c0,0,8.9-0.5,10.4,0.6c0,0,8.8-0.4,9.8,1.7l16.7,3.3"></path><path class="st2" d="M230.2,209.5c0,0-2.6,15-3.3,16.5c0,0,4,1.8,1.7,9.6c0,0,1.2,3.8,3.6,4.5c0,0,2.8,8.9,5.8,10.7   c0,0,7.3,2.5,2,6.1c0,0-6.6,13.6-1.5,15.7c0,0,8.1-8.9,5.5,2.5c0,0,1.8,9.6,5,11.1c0,0,2.6-1.3,2.3,6.9c0,0-0.5,3.5,3-0.8   c0,0,3.6,1,7.1,0.3c0,0,3.3-0.2,5.5,1.8c0,0,5.1-8.9,7.8,2l1.2-9.1l84.3,10.2c0,0,1.8-10.2,2.3-15.4c0,0,1-13.9,1.1-17.9   c0-0.4,0-0.7,0-0.8c0-2,3.8-30.6,3-33.9"></path><path class="st2" d="M360,297.6c0,0-5.5,67.4-5.6,68.8c-0.2,1.3-90.1-10.6-90.1-10.6l10.2-58.2"></path><path class="st2" d="M444.1,233c0,0,3.3,3.6,1.2,8.1c0,0-0.3,11.1,1.7,12.5c0,0,1.8,0.9,1.3,9.8c0,0,0,7.9,1.8,11.7   c1.8,3.8,0,0.8,0,0.8s3.8,4.6,0.8,10.1l-88.6-3.8"></path><path class="st2" d="M357.2,332l59,3.5h11.1l4.3,3.8c0,0-0.7,2.8,5.5,0c0,0,4.1,0.7,4.8-0.7c0,0,3.6,3.3,6.4,3.5c0,0,7.6,6.8,3,0   c0,0,2.2-7.1,1.5-9.1c0,0-2.8-1-2-5.5h2.1V296c0,0-9.7-5.8-2-7.4l0-2.5"></path><path class="st2" d="M214.1,416.5c0,0,61.9,11.5,66.1,11.1c0,0,74.6,11.5,94.8,10.3c0,0,3.2-29.2,2-35.7   c-0.5-5.2,2.9-30.2,2.3-33.8l-25.1-2.1"></path><path class="st2" d="M517.3,379.4c0.5,2.6,0,7,0,7s0.3,4.3,3.1,5.6l6.8,6.6c0,0,3-0.3,1.7,6.1h6.9c0,0,1.2,5.1-2.1,11.4l6.7,6.8   l4.2,0.5c0,0,4.1,6.4,2.1,8.2c0,0,0,6.7,4.6,4.8c0,0,1.7-0.1,1.2,2.8l-0.5,3.8h-2.5l0.1,2.2"></path><path class="st2" d="M198.7,448.4c0,0,1.1,9.1,2.8,10.1c0,0,4.5,2.5,0,5.8c0,0-4.1,1.4-5.3,5.3c0,0,0.9,5.4-3.1,7.8v6.5   c0,0,8.9-2.2-3.4,7"></path></g></svg>