<svg fill="#ffffff" xmlns="http://www.w3.org/2000/svg" viewBox="0 0 100 100"><path d="M8.837 83.154l80.026-.005-.005-27.777.354-.56.402-1.966-.2-1.303.411-.458.388-1.173-.904-.364-.047-.727-.81.176-.41-.352-.165-.34-.293.316-1.138-.281.458-1.021-.587-.41.246-1.843.88-.704.094-.915.786-2.03 1.455-.95.364-1.104.41-.34.423-1.666-.27-.67 1.385-1.853.692-3.239c.74-1.45 1.479-2.902 2.218-4.353l-.786-1.01-.035-.844-.329-.516-.322-.203-.652.109-.528-.798h-.915L90 21.199H67.11l-2.02 1.115-1.96-.13-1.783.529-.904-.388-1.138 1.115-3.227.528-2.218.868-.915.646-2.652.434-.856-.657-.88.035-2.171 1.15-.716.505-.68-.27-1.373.2-.704.668-.704-.176-.094-.904-.857-.54-1.22.118-1.29-.563-1.902.586-1.384-.258-1.35 1.021-2.945 1.361-1.643.082-1.807-.34-2.969-1.138-.035-3.403-1.455-3.614-2.804-1.643-1.408.763-.974-.059-.622-.516.082-.915-.587-.563-2.311.352-.67-.282-1.49.481-.93-.44v.804l-.29-.282.153 1.091.375.95.2 1.667-.775 1.068.4 1.173-.106 1.185.117.904.211.587-.2 1.971.61.223.2 1.033-.821-.083.258 1.22-.422 1.162.117 1.373-.669 5.116-.563 2.617-.047 4.236-.364 2.875-.352 5.585-.727 4.694-1.185 4.365-.916.75.176.552-.281 1.702c-.054.326-.124.485-.223.903a25.21 25.21 0 0 0-.305 1.479l-.634 1.736-.352.376-.129.434.434 1.596.282-.106.798 1.244.234 1.479-.305 1.349-.105 2.312.246 1.056.364.352.258 1.842 1.631 1.608z"/></svg>
