<svg fill="#FFFFFF" xmlns="http://www.w3.org/2000/svg" xmlns:xlink="http://www.w3.org/1999/xlink" version="1.1" x="0px" y="0px" viewBox="0 0 864 864" style="enable-background:new 0 0 864 864;" xml:space="preserve"><style type="text/css">
	.st0{display:none;}
	.st1{display:inline;}
	.st2{display:inline;fill:none;stroke:#FFFFFF;stroke-miterlimit:10;}
</style><g><g><g class="st0"><path class="st1" d="M568.2,354.2l-0.4,11l1.9,9.5l0,10.4l1.3,10.3l-0.1,0.2c0,0-0.9,3,0.7,4.5l0.2,0.2l0.1,0.3     c0.2,0.9,1.2,5.7-0.9,7.3c-0.7,2.7-1.7,5.9-3.3,6.7l-0.4,3.6l6.2-1.2l2.8,1.7l1.3,0.5c0.8-1.5,2.1-3.6,3.9-3.6     c1.3,0,2.3,1,3.1,2.9c0,0,0,0,0.1,0c0.2,0,0.3,0,0.4-0.1c0.3-0.2,0.5-1.1,0.1-2.9l-0.1-0.6l4.6-4v3.2l2.7,0.2v-2.6l6-6l0.7-5     l0.9,0c1.5,0,4.9-0.5,5.7-1.8c0.1-0.2,0.3-0.7-0.1-1.5l-0.1-0.3l-0.7-7.1l-1.3-9.4l-0.6-10.3l-1.3-8.5l-1.7-6.3l0.4-4.5l-4.9-0.6     l-4.4,0.7l-5.3,0c-2.8,0.5-5.4,0.7-7.1,0.7c-0.1,0-0.3,0-0.4,0C573.1,358.6,569.9,356.8,568.2,354.2z"></path></g><g class="st0"><g class="st1"><path d="M689.7,375.9L689.7,375.9l-4.8-0.6l-2,3.3h-2.6l-3,4.3l-3.5,0.3l-0.5-8l-12.9,1.7l-2.2-9.6l-0.2,0.7l-0.1,9.7l-0.1,0.2      c-2.9,4.8-5.3,7.4-5.4,7.5l-0.8,0.8l-0.8-0.8c-0.4-0.4-0.7-0.7-0.9-0.8c0,0,0,0.5,0,0.5l-0.4,0.4c-2.6,2.4-1.9,3.5-1.9,3.5      l0.2,0.3l0,0.1c0.8,2.3,0.8,3.7-0.1,4.4c-0.3,0.3-0.8,0.5-1.3,0.5c-0.5,0-1-0.2-1.2-0.3l-0.1,0l-0.3-0.2l0,0      c-0.9-1.1-1.3-1.1-1.3-1.1c-0.3,0.3-0.7,3.1-0.3,6.6l0.1,0.9l-1.9,0.5c-0.2,1.2-0.7,2.1-1.6,2.6c-0.5,0.3-1.2,0.4-1.9,0.4      c0,0,0,0-0.1,0v3.4l3,1.5v2.6c1.5,1.9,4.1,4.8,5.5,5.1l0.5,0.1l0.2,0.4c0,0,2,3.7,5.4,4.3c1-0.9,3-2.7,4.7-2.7      c0.2,0,0.5,0,0.7,0.1c0.4,0.1,1.1,0.5,1.5,1.6c0.1,0,0.3,0.1,0.4,0.1c0.1,0,0.3,0,0.4-0.1c0.5-0.2,1.4-1,2-4l0.2-0.9l0.9,0.1      c0,0,0.2,0,0.4,0c1,0,3.6-0.2,4.8-1.7l0.2-0.2l0.3-0.1c0,0,0.9-0.4,0.1-2.5c-0.4-1.2-0.9-2.5,0.1-3.1c0.2-0.1,0.3-0.1,0.5-0.1      c0,0,0,0,0.1,0l1.5-5.3l2.4-4.5c-0.1-3.3,0.4-5.1,1.7-5.5c0.1,0,0.3-0.1,0.4-0.1c1,0,1.9,0.9,3.1,3.1h1.5l1-7.3h2.7v-1.6      l2.1-1.4c0.3-1.9,0.9-4.1,2.1-4.6c0.1,0,0.2-0.1,0.3-0.1l0.9-4.2L689.7,375.9z"></path></g><g class="st1"><path d="M690.3,374.3c-0.6,0.2-1.8,0.8-2,1.4c-0.1,0.1-0.1,0.2,0,0.4l0.3,0.7l0.5,0.1l0,0l0.6,0.2l0.4,0.1l0,0l6.3,1.9l0.2-1.4      l-0.3-1.8C694,375.1,691.3,374.2,690.3,374.3z"></path></g></g><g class="st0"><path class="st1" d="M600.9,402.8l-0.6,4l-5.8,5.9v4l-6.9-0.5v-0.6l-0.2,0.2c0.3,2,0,3.5-0.9,4.3c-0.5,0.4-1.1,0.6-1.8,0.6     c-0.6,0-1.1-0.2-1.2-0.2l-0.5-0.2l-0.2-0.5c-0.6-1.7-1.2-2.1-1.4-2.1c-0.6,0-1.8,1.8-2.4,3.3l-0.4,1l-3.4-1.3l-2.2-1.4l-6,1.1     l-0.2,1.8l-0.4,0.3c-0.1,0.1-1.8,1.3-1.1,2.4c0.1,0.2,0.3,0.4,0.5,0.6c0.4,0.3,1.6,1.3,1.1,2.5c-0.3,0.8-1.3,1.2-2.9,1.2     c-0.4,0-0.8,0-1-0.1c-0.7,0.1-1.5,0.3-1.8,0.8c-0.4,0.6,0,1.6,0.4,2.3l0.1,0.3l-0.3,4.9l-1.6-1.1c-0.8-0.6-3.2-2-5.1-2     c-0.4,0-0.7,0.1-1,0.1c-0.6,0.2-1.1,0.7-1.4,1.4c0.1,0.1,0.2,0.2,0.3,0.3c0.6,0.7,0.8,1.8,0.6,3.3l-0.6,4.6h-2.3l0,0.1     c6.7-0.1,13.7-0.3,15.7-0.7v-3.7l1,0c0.2,0,19-0.7,22.5-1.7l0.2,0l12.4,0c0.8-0.1,10.7-1.8,15.3-1.8c0.4,0,0.8,0,1.1,0l0.5-0.1     c4.6-0.6,7.8-1,10.2-1.3l6.5-4.8V426l8.6-8.5c-2.5-1.5-5.1-5-5.4-5.5l-0.2-0.3v-2l-3-1.5v-5c-1.4-0.4-2.5-1-2.7-1.1l-0.6-0.3     l0.1-0.7c0.3-2.6-0.3-3-0.3-3c0,0,0,0,0,0c-0.3,0-0.7,0.2-1,0.4c-1.5,2.4-2.6,3.4-3.6,3.4c-0.2,0-0.3,0-0.5-0.1     c-0.3-0.1-0.9-0.4-1.1-1.4l-1.7,0.1c-1.1,1.2-2.1,1.8-3,1.8c-0.2,0-0.5,0-0.7-0.1c-0.8-0.3-1.3-1.1-1.5-2.3H614l-0.1-0.9     c-0.1-1.3-0.6-2.2-1.5-2.8c-0.7-0.5-1.8-0.8-3-0.8c-0.8,0-1.5,0.1-2,0.2l0.1,1.2c0.5,1.2,0.5,2.4-0.1,3.3     C606.2,402.1,602.7,402.7,600.9,402.8z"></path></g><g class="st0"><path class="st1" d="M498.9,304.9c1.6,0.6,5.6,2.2,7,4.7c1,0.4,3.6,1.6,4.3,4l7.6,5.2l1,7c1.9,2.3,2.5,4,2,5.3     c-0.3,0.7-0.8,1-1.2,1.2l-0.7,3.4l2.7,2.6c2.3,0.4,3.8,1.2,4.5,2.4c0,0,0,0.1,0,0.1l9.3-0.3l8.3-0.4l8.8-0.5l10.6-0.4     c0-0.7,0-1.1,0-1.1c-3.5-4.9,0-15.5,0-15.5c-3.1-4.9,6.2-28.3,6.2-28.3c-8.8,14.7-11,13.3-11,13.3c-1.4-0.8,0.4-5.5,2.7-10.4     l-4.1-3.5l-0.9-8.3c-2.6-0.3-4.1-1-4.7-2.2c-0.2-0.3-0.2-0.7-0.3-1l-8.5-1.2l-2.8-1.5l-2.7-0.5l-7.3-1.7     c-2.3-0.1-3.7-1.8-4.2-2.9c-2.8,0.3-5.3,0-5.3,0c3.5-5.7,1.3-5.4,1.3-5.4c-6.5,3.7-10.7,5-13.4,5.3l-4.5,9.3l-0.7-0.1l-0.1,0     c-0.5,0-2.2,0.1-3.6,1.4c-1.3,1.2-2.2,3-2.4,5.5c0.9,0.2,2,0.8,2.7,1.9c0.7,1.2,0.6,2.7-0.3,4.4C498.9,299,498.3,303,498.9,304.9     z"></path></g><g class="st0"><path class="st1" d="M361,297.8l-0.1,1.1c-0.6,8-1.6,20.3-2.6,32.2l57.9,3.4l11.4,0l5.1,4.5l-0.1,0.5c0.1,0,0.1,0,0.3,0     c0.5,0,1.6-0.2,3.7-1.2l0.3-0.1l0.3,0c0.6,0.1,1.3,0.2,1.9,0.2c1.2,0,1.7-0.2,1.8-0.3l0.6-1.2l1,0.9c0,0,3.4,3.1,5.8,3.2l0.4,0     l0.3,0.2c0.4,0.3,0.8,0.7,1.1,1l0,0l0.1-0.5c0.7-2.3,1.7-6.5,1.6-8.1c-0.9-0.6-2.8-2.3-2.1-6.3l0.2-0.9h1.9v-29.9     c-1.8-1.2-5.3-3.8-4.9-6.2c0.2-1.2,1.2-2.1,3-2.6l0-0.7l-86.6-3.7C362.6,288.5,361.1,297,361,297.8z"></path></g><g class="st0"><path class="st1" d="M365.3,256c-0.4,3.8-0.8,7-0.8,7.6c0,0.2,0,0.5,0,0.9c-0.1,3.1-0.8,12.7-1.1,16.8l86.8,3.7     c1.5-3.2,0.4-6.1-0.5-7.5c-0.1-0.2-0.3-0.5-0.6-0.9l-0.3-0.4l0.3-0.2c0-0.1-0.1-0.2-0.1-0.2c-1.9-4-1.9-11.9-1.9-12.2     c0.4-7.6-0.9-9-0.9-9c-2.2-1.5-2.2-9.9-2.1-13.3l0-0.1l0.1-0.3l0-0.1c0.6-1.3,0.7-2.5,0.5-3.6c-20.8-0.8-50.4-3.3-77.3-5.8     C367.6,235.1,366.7,243.6,365.3,256z"></path></g><g class="st0"><path class="st1" d="M476.4,439.3l-1.3-36.6c-1.6-0.4-2.9-1.3-3.7-2.5c-1.6-2.5-0.9-5.5-0.9-5.6l0.1-0.2c1.2-2.2,1.1-3,1.1-3.2     c0,0,0,0,0,0c0,0-0.1,0-0.2,0c-0.2,0-0.5,0.1-0.7,0.1c-0.7,0.2-1.2,0.2-1.8,0.2c-2.7,0-4.2-1.6-4.8-2.5l-85.1-2.2     c-0.6,6.6-1.2,13-1,15.2c1,5.8-1.3,29.2-1.9,34.7L476.4,439.3z"></path></g><g class="st0"><path class="st1" d="M453.7,353.4l-0.1-0.2l-2.7-7.7c-0.7-0.4-1.7-1.2-3.1-2.4c-2.3-0.3-4.8-2.1-6-3.1c-0.6,0.3-1.5,0.5-2.7,0.5     c-0.8,0-1.5-0.1-2-0.1c-1.8,0.8-3.2,1.2-4.3,1.2c-0.7,0-1.3-0.2-1.7-0.5c-0.5-0.4-0.7-0.9-0.7-1.3l-3.6-3.2h-10.7l-58-3.4     c-1.2,14.7-2.3,28.4-2.7,32.4l24.8,2.1l0.1,0.8c0.3,1.9-0.3,8.6-1.1,16.3c0,0.1,0,0.2,0,0.2l84.1,2.2l-1.1-3.8     c-0.7-0.5-1.6-1.7-2.6-6.2l-1.5-10.3c0-4.5-2.2-6.8-2.2-6.8l-0.4-0.5l0.2-0.6C456.2,357.5,454.8,354.9,453.7,353.4z"></path></g><g><path d="M732.1,680.2c4.3-49.9,33.2-406.5,37.6-460.6l-566.3-68.9l-7.6,59.9l1.2,0.2L127,607.7     C389.6,642.4,688.1,679.5,732.1,680.2z"></path></g><g class="st0"><path class="st1" d="M551.4,438.9c0.2-0.9,0.1-1.4-0.1-1.6v0c-0.6,0.2-1.1,0.3-1.6,0.3c-0.7,0-1.3-0.2-1.9-0.6     c-2.2-1.5-2.2-5.2-2.2-5.6V431l0.4-0.3c0.7-0.6-0.2-3.5-2-6.5l-4.1-0.5l-7.4-7.6l0.3-0.7c2.3-4.5,2.3-8.3,2.1-9.9h-7.3l0.3-1.3     c0.7-3.3,0-4.3-0.2-4.6c-0.2-0.2-0.4-0.2-0.4-0.2l-0.4,0l-0.3-0.3l-6.6-6.4c-3.1-1.6-3.5-5.9-3.5-6.4l0-0.2     c0.2-2.6,0.2-4.9,0-6.4c-1-0.8-2.1-1.9-2.9-3l-51,1.7c0.4,1.3,0.8,2.2,1,2.6l0.7-0.1l0.1,1l1.6,5.5c0.1,0.2,1,1.8,3.2,1.8     c0.4,0,0.8,0,1.2-0.1c0.1,0,0.7-0.2,1.3-0.2c0.8,0,1.4,0.3,1.8,0.7c0.9,1,0.7,2.7-0.7,5.3c-0.1,0.5-0.4,2.4,0.6,3.9     c0.6,0.9,1.7,1.5,3.1,1.8l0.8,0.1l1.3,39l0.1,0l-0.1,0.5l0,1l-0.1,0l-0.7,6l60.9-1.6l0.2,0.1c0.1,0,1.8,0.8,2,2.5     c0.2,1.2-0.4,2.4-1.6,3.7l-1,2l5.8-0.3c0.8-1,3.1-4.5,2.5-8.6l-0.2-1.2h1.2c0.3,0,0.6,0,0.9,0l-0.1-2.2h2.7L551.4,438.9z"></path></g><g class="st0"><path class="st1" d="M520.9,391l0.2,0.1l6.5,6.3c0.4,0.1,1,0.3,1.6,0.9c0.9,1,1.2,2.7,0.9,5.1h6.5l0.2,0.8     c0,0.2,1.2,5.1-1.8,11.5l5.9,6l4.3,0.5l0.3,0.4c0.7,1.1,4.1,6.7,2.2,9.2c0.1,1.3,0.5,3,1.3,3.5c0.2,0.1,0.4,0.2,0.7,0.2     c0.2,0,0.4,0,0.7-0.1c0.6-1.6,1.5-2.7,2.9-3.1c0.5-0.2,1.1-0.3,1.6-0.3c1.8,0,3.6,0.8,4.8,1.5l0-0.7c-0.7-1.6-0.8-3-0.2-4     c1-1.7,3.5-1.8,3.6-1.9c0.4,0,0.7,0,0.9,0c0.2,0,0.3,0,0.4,0c-0.4-0.3-0.7-0.7-0.9-1c-1.1-1.8,0-3.7,1.3-4.9l0.9-8.5l1,0.2     c0.4-0.4,1.5-2.6,2.3-5.7l0.1-0.5l0.5-0.2c0.7-0.3,0.7-2.8,0.3-4.9c-1.9-2.2-1.3-5.3-1.1-6.2l-1.3-10l0-10.3l-1.9-9.5l0.6-15.3     c-2.3,0.8-2.8-5-2.9-8.8l-10.5,0.4l-8.8,0.5l-8.3,0.4l-7.9,0.3c1.4,1.1,2.1,2.8,2.3,3.6c2,0.9,3.2,2,3.7,3.4     c0.4,1.3,0,2.4-0.2,2.8c-0.8,3.8-2.3,6.4-4.4,7.7c-1.2,0.7-2.2,0.9-3,0.9c-0.3,0-0.5,0-0.7,0c-1.9,0.4-3,1-3.3,1.8     c-0.2,0.6,0.2,1.3,0.2,1.3c1.6,1.8,2.3,3.6,2.1,5.3c-0.2,1.6-1.3,2.6-1.9,3.1v4.3h-2.6c0.2,1.5,0.2,3.2-1,3.7     c-0.2,0.1-0.4,0.1-0.6,0.1c0.2,2.4-0.1,5.2-0.1,5.7C518.5,387.1,519,390.2,520.9,391z"></path></g><g class="st0"><path class="st1" d="M728.4,333.9L728.4,333.9c-4.3-0.4-5.8-4.2-6.2-6l-1.9,0.1l-0.1-1c0-0.3-0.2-0.5-0.4-0.7     c-0.3-0.2-0.8-0.3-1.4-0.3c-1.6,0-3.8,0.7-4.7,1l-7.8,1.6l-10,1.7l-22.1,4.3l-11.1,3v-1.4c-1.9,1.6-4.6,3.5-6,4.5l0,0l1.3,7.9     l1.8,13.8l-0.2,0.8l2.6,11.2l17.5-2.3l12.5-3.2l12-2l11.5-2.6l7.1-1.2l0.3,0.9c0.1,0.3,0.3,0.9,0.5,1.8c1.6-2.3,4.2-5.4,5.2-5.8     c0.3-0.2,1.7-1.9,3-3.8l0.1-0.1c1.1-1,1.4-1.5,1.5-1.7c-0.2-0.1-0.5-0.1-0.8-0.1l-0.3,0c-2.4-0.9-3.8-2.1-4.4-3.5     c-0.2-0.5-0.3-1-0.2-1.5h-1.8l-0.3-0.6c-1.5-3.3,0.2-4.5,0.4-4.7c0.3-0.2,0.4-0.3,0.5-0.4c0-0.3-0.3-0.9-0.6-1.1l-0.6-0.6     l1.8-2.8L728.4,333.9z"></path></g><g class="st0"><g class="st1"><polygon points="675.4,374.9 675.8,380.9 676.2,380.9 679.2,376.5 681.7,376.5 683.7,373.3 679.9,374.3     "></polygon></g><path class="st1" d="M675.4,374.9l17.6-3.9l6,1.8c0,0-20.3,1.6-22.5,4.1"></path><g class="st1"><path d="M687.4,373.5c0.1-0.2,0.2-0.5,0.4-0.7c0.2-0.3,0.4-0.5,0.7-0.7l-4,1L687.4,373.5z"></path></g><g class="st1"><path d="M726.3,386.3v-1.1c0-1.3-2.3-9.4-4.3-16.3l-0.1,0l0-0.3c-0.3-1-0.6-2-0.9-2.9l-5.2,0.9l-11.5,2.6l-11.6,2      c2.5,0.6,6.1,2.9,6.6,3.2l0.5,0.3l0,0.2c0.5,0.1,1,0.2,1.6,0.6c1.1,0.7,1.9,2,2.3,3.8c1.4,0,3.8,0.3,5.3,2      c1.2,1.3,1.6,3.1,1.1,5.3l-0.1,0.4l-0.3,0.2c-0.5,0.4-1.7,1.5-1.6,2.5c0.1,0.7,1,1.5,2.5,2.1l9.9,1.2c0-1.3,0.1-2.2,0.1-2.2      c-2.7-0.5-2.8-5.7-2.8-5.7c1.5,1.1,0.2-7,0.2-7c-1.1-3.9,2.2-4.8,2.2-4.8c4.8-4.8,0.4,4.4,0.4,4.4c2,0.4,2,5.2,2,5.2l-1.7,0.2      l0.7,1.3c4.4,1.7,0,3,0,3c1.1,5,3.7,4.4,3.7,4.4c6.5-0.7,5.4,3.7,5.4,3.7c3.7,0.7,1.3,4.1,1.3,4.1c-2.2,0-1.1,10.9-1.1,10.9      c3.7,2.8,3-7.6,3-7.6c-0.4-6.3,4.4-8.9,4.4-8.9l0.2-8L726.3,386.3z"></path></g></g><g class="st0"><path class="st1" d="M273.6,297l-0.1-0.3c-1-4-2.1-4.5-2.5-4.6c0,0-0.1,0-0.1,0c-1,0-2.5,1.7-3.2,2.9l-0.7,1.1l-1-0.9     c-1.6-1.5-4.1-1.5-4.6-1.5l-0.1,0c-0.8,0.2-1.7,0.2-2.6,0.2c-1.8,0-3.3-0.3-4.1-0.4c-1.2,1.4-2.1,2-2.9,2c-0.2,0-0.4,0-0.6-0.1     c-0.8-0.3-1.1-1.2-0.9-2.4c0.2-4.9-0.8-5.7-0.9-5.8l-0.2,0.1l-0.2,0.1l-0.4-0.2c-3.5-1.6-5.2-10.1-5.6-11.8l0-0.2l0-0.2     c0.9-3.9,0.3-4.5,0.3-4.5c-0.7,0-2.5,1.4-4,3l-0.5,0.5l-0.7-0.3c-1-0.4-1.8-1.2-2.2-2.3c-1.7-4.6,2.6-13.8,3.1-14.8l0.1-0.2     l0.2-0.2c1-0.7,1.5-1.4,1.5-1.9c-0.1-0.9-2-2-3.2-2.4l-0.2-0.1c-2.9-1.8-5.3-8.5-6.1-10.9c-2.6-1.1-3.8-4.8-3.8-5l-0.1-0.3     l0.1-0.3c2-6.7-1-8.3-1.1-8.3l-0.9-0.4l0.4-0.9c0.4-0.9,1.9-9,3-15.2c-3.1-0.7-6.1-1.4-9-2.1c-5.5,20.9-10.7,43.5-10,45.6     l0.1,0.2c0,0.1,0,0.8,0.2,1.8l0,0l0,0.1c0.3,1.7,1,4.1,2.5,4.8l0.3,0.1l0.2,0.3c0.9,1.3,1.8,4.4-0.8,6.3     c-0.6,0.7-3.7,4.9-4.9,6.4c0.1,0.8,0,2.2-0.7,3.2c-0.5,0.6-1.1,1-2,1.1c-0.7,0.5-5,3.5-3.7,5.7l0.6,1.1l-1.2,0.4     c0.4,0.2,1.2,0.6,2.6,1l1,0.3l-9.7,36c8.1,1.9,61.1,14,72.2,14.3L273.6,297z"></path></g><g class="st0"><path class="st1" d="M629.2,452.6L629.2,452.6l0.4-0.2l0.1,0c3.3-0.6,4.2-2.7,4.2-2.8l0.2-0.5l4.1-1.3v-3l5.3-4.3l0.2,1.9     c0.1,0.7,0.2,1,0.3,1.1c0.6-2,1.6-3.2,2.9-3.6c0.3-0.1,0.6-0.1,0.9-0.1c0.5,0,1,0.1,1.5,0.3c1-2.8,2.1-4.4,3.5-5     c0.1,0,0.2-0.1,0.3-0.1c0-2.4-0.5-2.7-0.5-2.7c-0.1,0-0.9,0.6-1.5,1.3l-0.3,0.3l-15.4,1.8c-0.3,0-2,0.3-5.1,0.6l-0.2,0.2     l-0.1-0.1c-2.6,0.3-6.1,0.8-10.5,1.3l-0.6,0.1l-0.1,0c-0.3,0-0.7-0.1-1.1-0.1c-4.4,0-14.9,1.8-15,1.8l-12.4,0     c-3.6,1-17.8,1.6-21.8,1.7v2.8l-0.3,0.3c-0.3,0.3-1.3,1.3-19.3,1.4c0.2,4.7-2.5,8.3-3.2,9.2l-0.9,3.2l-0.2,5l-2.9,1.2     c0.5,1.3,1.1,3.5,0.9,5.4h24.5l4.5-1.3l18.4-1.5l14.4-1.6l16.6-1.8l0.3-3.7l0.5-0.3c2.7-1.3,3.2-2.3,3.2-2.5c0-0.1,0-0.2,0-0.2     l-0.1-0.1C624.2,456.1,624.4,455.8,629.2,452.6z"></path></g><g class="st0"><path class="st1" d="M734.4,277.3h0.7l0.1,0.9c0.1,0.4,0.6,3.9,0,6.1c0.6,2.4,1.5,4.1,1.9,4.3l1.2,0.4l-0.5,1.1     c-0.2,0.4-0.5,1.4-0.2,2.1c0.3,0.5,0.9,0.8,1.8,1l0.7,0.1l3.1,11.4l5.6-1.2l0-3.1l1-3.3l-1.1-1.7l1.2-10.5l0-9.1l0.4-0.3     c1.3-1.1,3.8-3.8,3.7-5.7c0-0.6-0.2-1-0.7-1.4l-0.3-0.2l-0.2-1.1l-19.5,3.9c-0.1,0-0.2,0-0.3,0     C733.5,274.5,734.1,276.8,734.4,277.3z"></path></g><g class="st0"><path class="st1" d="M192.8,324.6L192.8,324.6c-3.7-0.8-18.6-4.1-35.3-8.1L145,366.3l53.4,79.7c0.6-2.1,1.6-6.5,3.6-15.9l0.4-1.8     l1.4,1.2c2.6,2.4,5.1,3.9,5.9,3.9c0,0,0,0,0,0c0,0,0.4-0.8-1.1-4.6l-0.1-0.3l20.5-95.9C211.3,328.9,194.1,324.9,192.8,324.6z"></path></g><g class="st0"><path class="st1" d="M478.9,494.5v-30.2l-3.3-16.6l0.7-6.4L375.1,439c-0.9,0.1-2,0.1-3.2,0.1c-2.4,0-5.3-0.1-8.4-0.3l-0.4,5.8     l41.3,1.3l0,1c-0.3,13.3-0.8,29.7-1.5,33.4c1.6,2.1,3.5,3.8,4.3,3.8c0.2,0,0.3-0.3,0.4-0.5l0.1-0.2c0.2-0.3,0.7-0.9,1.4-0.9     c0.1,0,0.3,0,0.4,0.1c0.4,0.1,0.6,0.4,0.8,0.7c0,0,0-0.6,0-0.6l0.4-0.3c0.1-0.1,0.6-0.5,1.3-0.5c0.3,0,0.5,0.1,0.7,0.2     c1.1,0.5,1.7,2,1.8,4.8c4.8,0.3,7.8,1,9.2,2.1v-0.1l0.2-0.3c0.2-0.3,0.7-1,1.5-1c0.1,0,0.2,0,0.3,0c0.7,0.2,1,0.9,1.1,1.5     l2.6-0.2l-0.4,1.5c0,0-0.1,0.4,0.1,0.6c0.2,0.2,0.6,0.4,1.3,0.4l1,0v1.6L431,493c-0.1,0.1-0.1,0.3-0.1,0.4     c0.1,0.1,0.5,0.3,1.5,0.3c0.4,0,1-0.2,1-1v-1.4l4.1,1.2l0.2,0.2c1.6,1.7,4,3.5,5.1,3.5c0.1,0,0.2,0,0.3,0     c0.3-0.1,0.7-0.9,0.7-2.5v-0.3l0.2-0.3c0.2-0.4,0.9-1.2,1.8-1.2c0.1,0,0.3,0,0.4,0.1c0.9,0.3,1.2,1.3,1.3,2.2l2.9,0l0.3,0.2     c0.1,0,1.6,1.1,3.3,1.1c0.9,0,1.8-0.4,2.5-1l0.2-0.2l5-0.8c0.3-0.4,0.8-1,1.7-1.2c0.2,0,0.3-0.1,0.5-0.1c0.8,0,1.7,0.4,2.5,1.2     h1.4c0-1,0.4-1.8,1.1-2.1c0.3-0.1,0.5-0.2,0.9-0.2c1.1,0,2.4,0.8,4.2,2.6c1.6,2.2,3.5,4,4.3,4c0.1,0,0.2-0.1,0.2-0.2l0-0.1l0.1,0     C478.7,496.9,478.9,496.1,478.9,494.5z"></path></g><g class="st0"><path class="st1" d="M542.5,458.1l0.6-2.2l-8.5,0.5l3-5.6l0.1-0.1c0.8-0.7,1.2-1.4,1.1-1.9c-0.1-0.4-0.4-0.7-0.7-0.9l-60.1,1.6     l2.9,14.6l0,30.4c0,0.9-0.1,1.7-0.2,2.4c0.7-0.1,1.6-0.2,2.4-0.2c1.5,0,2.7,0.3,3.5,0.9c0.7,0.5,1.1,1.3,1.1,2.3     c-0.1,2.6-0.2,5.2-0.2,7.7c2.5-0.1,11.2-0.5,20-0.7c3.9-0.1,7.2-0.1,10-0.1c4.9,0,8,0.1,9.7,0.4v-3.6c-0.3-1-1.9-7.3-1.1-12     l0.1-0.7l0.6-0.2c1.6-0.4,2.9-1.1,3.3-1.4c-0.1,0-0.1-0.1-0.3-0.2l-0.6-0.3l0-0.7c0-0.4,0.3-4.2,2.5-5.4c0.4-0.2,0.9-0.4,1.4-0.4     c0.3,0,0.6,0,0.9,0.1c0.3-0.7,0.5-1.8-0.3-2.6l-0.3-0.3l0-0.4c0-1,0.1-4.1,1.8-4.8c0.2-0.1,0.5-0.1,0.7-0.1     c0.5,0,0.9,0.2,1.4,0.5l-0.6-4.5h3c0.4-1.7-0.6-4.5-1.1-5.6l-0.5-1l3.7-1.5L542.5,458.1z"></path></g><g class="st0"><path class="st1" d="M706.2,474.1c0-0.1,0.1-0.1,0.1-0.2c-3.3-3.1-13.7-10-20.3-14.1c-0.1,0-0.5-0.1-1.1-0.1     c-3.3,0-10.6,1.3-13.1,1.9l-0.9,0.2l-0.3-0.9c-0.7-2.2-2.6-3.3-5.5-3.3c-1.6,0-2.9,0.3-3,0.4l-0.2,0l-12.2,0.1l-0.2-0.1     c-1.3,0-6,2.4-10.6,5.3c-0.3,0.3-2.4,2.2-2,3.8c0.4,1.3,2.6,2.4,6.4,3l0.5,0.1l3,5.4c0.1,0.1,3.1,4.5,6,4.6l0.7,0l0.3,0.6     c0,0,1.6,3.6,5.2,4.7l0.6,0.2l0.2,0.6c0,0.2,1.2,4.1,5.9,5.6l0.3,0.1l0.2,0.2c0.1,0.1,3,3.5,3.6,7.1c0,0.1,0,0.2,0,0.3l2.4,0.8     l0.1,0c0.2,0.1,3.6,2.4,3.1,7.5h7.4c3.8-4,1.7-6.1,1.7-6.1h2.4c-0.4-1.7,3.9-3.5,3.9-3.5c0-2,3.7-3.7,3.7-3.7     c0.4-4.8,4.4-3.9,4.4-3.9c-0.4-4.6,1.1-4.6,1.1-4.6C698.6,480.9,706.2,474.1,706.2,474.1z"></path></g><g class="st0"><path class="st1" d="M622.6,464.7l-0.1,1l-17.7,2l9.8,34.7l3.2,6.2v2c0.1,0,0.2,0,0.3,0c0.5,0,0.9,0.2,1.2,0.5     c1.1,1.1,0.1,3.2-1.1,5.2c-0.3,2.7-0.5,6.9,0.4,7.9l0.2,0.3l0.1,4.7l0,0c0.5,2.1,1.2,4,1.9,5.1l2.8,3.1l39.4-2v3.2h0.8l0.3-2.8     c-0.9-1-2.2-2.7-1.5-4.1c0.4-0.8,1.3-1.2,2.7-1.2c0.4,0,0.8,0,1.2,0.1l7.7-0.1c-0.1-3.9,0.8-5.8,0.8-5.8     c1.5-9.1,4.8-14.6,4.8-14.6c0,0,0.1-0.1,0.1-0.1h-7.7l0.3-1.3c0.9-4.1-1.4-6.1-1.9-6.5l-3.4-1.1l0-0.7c0-0.3,0-0.5-0.1-0.8     c-0.4-2.5-2.4-5.1-2.9-5.9c-4.6-1.5-6.3-5-6.8-6.4c-3.4-1.2-5.1-4-5.7-5.1c-3.8-0.6-7-5.3-7.1-5.5l-2.5-4.6     c-4.4-0.8-7-2.2-7.6-4.4c-0.4-1.4,0.2-2.8,0.9-3.9L622.6,464.7z"></path></g><g class="st0"><path class="st1" d="M755,266.6l0.1,0.4c0.8,0.7,1.2,1.7,1.2,2.7c0,2.9-2.9,5.9-4.1,7v8.3l-1.1,9.8l1.2,1.9l-1.2,4v2.3l14.4-2     l0-1.2l0-0.1c1.5-3.7,6-4.3,8.8-4.3c0.2-0.4,0.4-1,0.6-1.6h-6.1v-2.3c-0.4,0-0.9-0.1-1.3-0.4c-2.3-1.3-2.8-6-2.9-7.5l-3.6-12.4     l-3.7-11.7c-2.7,0.6-1.8,6.9-1.8,6.9L755,266.6z"></path></g><g class="st0"><path class="st1" d="M707.5,602.2c0.9-5.4-11.8-23.3-11.8-23.3c-3.9-7.4-1.3-8.7-1.3-8.7c-1.5-2.2-5-5.4-5-5.4     c-4.8-2.6-12-21.3-12-21.3c-1.7-4.4-2.5-8-2.8-10.8l-7.9,0.1c-0.5-0.1-0.8-0.1-1.1-0.1c-0.5,0-0.7,0.1-0.8,0.1     c0.1,0.4,0.6,1.3,1.4,2.1l0.4,0.4l-0.6,5.7h-4.8v-3.1l-38.2,1.9l-3.2-3.5l-36.7,3.3v1.3l3.1,2.2l0.3,9.5c1.1-0.2,1.9-0.4,1.9-0.4     c7.4-3,16.8-2.2,16.8-2.2c2.8,0,9.1,3.3,9.1,3.3c9.1,3.5,6.3,7,6.3,7c8.5-0.4,11.5-5.9,11.5-5.9c1.5-4.6,6.5-4.1,6.5-4.1     c0,1.1,4.6,1.7,4.6,1.7c2.6,3.5,5.2,3.9,5.2,3.9c0.9,3,3,3.7,3,3.7c1.5,0.2,1.5,3.7,1.5,3.7c0.9-1.5,5.4,0.4,5.4,0.4     c1.1,3.3,2.4,3,2.4,3c3,2.6,0.2,11.5,0.2,11.5c-1.1,6.3,3.3,10.2,3.3,10.2c1.5-2.2-0.9-3.9-0.9-5s5.7,1.5,5.7,1.5     c1.3,1.1-4.8,6.5-4.8,6.5s0,0,0,0.9c0,0.9,8.5,10,8.5,10c5.2-8.9,3.3,4.1,3.3,4.1c4.6,1.7,4.1,5.7,4.1,5.7c4.1,6.5,5,3.5,5,3.5     c3.5-1.3,7.6,7,7.6,7c-0.4,5.7,2.6,5.4,2.6,5.4c0.4-2.6,3.7-1.3,3.7-1.3c4.1-0.9,6.8-4.8,6.8-4.8c-1.3-5.2,2.2-7.4,2.2-7.4     C706.6,612.7,707.5,602.2,707.5,602.2z"></path></g><g class="st0"><path class="st1" d="M302.9,517.8c0.5-0.6,1.3-0.9,2.4-0.9c1.5,0,3.2,0.7,3.5,0.8l0,0l0.2,0.2l0,0c1.5,1.3,25.1,2.6,46.3,3.2     l6-82.5c-26.5-1.8-72.3-8.6-80.1-9.8L268.2,527l12.9,2l1.7-8.5l20.3,2.4C302,520.5,301.9,518.8,302.9,517.8z"></path></g><g class="st0"><path class="st1" d="M567,524.9l0.2-18.5l1.1-19.7l0-13.5l-1.5-1l-0.1,0l0-0.1l0,0h-27.2l0.3,2.3c1.3,2.6,1.1,3.4,0.4,3.9     c-0.2,0.1-0.4,0.2-0.7,0.2c-0.7,0-1.3-0.6-2.3-1.6c-0.5-0.6-0.9-0.7-0.9-0.7c-0.1,0.1-0.4,1.1-0.4,2.4c1.7,2,0.6,4.6-0.2,5.7     L535,485l-0.8-0.4c-0.3-0.2-0.6-0.3-0.8-0.3c-0.1,0-0.3,0-0.4,0.1c-0.7,0.4-1.2,1.8-1.4,3.1c0.8,0.6,0.9,1.3,0.8,1.8     c-0.2,1.5-2.4,2.5-4.3,3.1c-0.6,4.5,1.2,10.5,1.2,10.6l0,0.2l0,5.9l-1.1,0.1c0.5,3.9,1.4,6.8,1.9,7l0.5,0.2l1.8,5.4h-1.9l0.4,1.9     l-0.4,0.4c-0.1,0.1-6.5,7.3-6.3,17.6l26.5-1.3l-0.2,1.3c-0.4,2.4-0.7,7.4,1.5,8.1l0.4,0.1l3.3,7c0.2-0.1,0.3-0.2,0.3-0.2     c3.9-6.8,7-3.5,7-3.5c4.6-2.8,5.2,0.4,5.2,0.4l1.6-0.2C570.2,548.6,568.4,534,567,524.9z"></path></g><g class="st0"><path class="st1" d="M490.2,568.2l0.3-6.8l0.1-0.2c2.2-3.6,0.4-5.8-0.2-6.4c-0.7-0.2-1.1-0.6-1.2-1.2c-0.2-1.1,0.9-1.9,2.1-2.5     c1.7-0.9,2.3-5.6,2.3-7.7l0-0.2c1-4.2-3.4-8.3-3.4-8.3l-0.9-0.9l0.8-0.6c0-0.4-0.4-1.6-1-3c-3.9-1.4-3.6-7.3-3.4-8.7     c-0.6-2.8-0.1-18.7,0-21.9c0-0.3-0.1-0.4-0.3-0.6c-0.3-0.2-0.9-0.4-2.1-0.4c-1.3,0-2.7,0.3-3.5,0.4c-0.2,0.2-0.5,0.4-0.9,0.5     c-0.2,0.1-0.5,0.1-0.7,0.1c-2.4,0-5.1-3.6-5.9-4.7c-1.4-1.4-2.1-1.8-2.4-1.9c0,0.2-0.1,0.6,0,1.1l0.2,1.2l-4.7,0l-0.3-0.3     c-0.8-0.8-1.2-0.9-1.4-0.9c-0.3,0.1-0.5,0.4-0.6,0.5l-0.2,0.6l-5.5,0.8c-1,0.9-2.3,1.4-3.6,1.4c-1.9,0-3.6-0.9-4.3-1.3l-4.1-0.1     c-0.3,0.9-0.9,1.6-1.6,1.9c-0.3,0.1-0.6,0.2-1,0.2c-2.4,0-5.5-2.9-6.5-3.9l-1.1-0.3c-0.5,1.2-1.7,1.7-2.8,1.7     c-1.7,0-2.9-0.5-3.4-1.4c-0.2-0.4-0.3-0.9-0.2-1.3c-0.7-0.2-1.2-0.6-1.6-1.1c-0.2-0.3-0.4-0.6-0.4-1l-1.4,0.1     c-0.2,0.6-0.5,1.1-1.1,1.2c-0.1,0-0.2,0-0.2,0c-0.7,0-1.3-0.6-1.8-1.7l0-0.1l0-0.2c-0.5-0.4-3.9-1.4-9-1.6l-1,0v-1     c0-1.4-0.1-2.3-0.2-2.9c-0.2,0.6-0.5,1-1,1.2c-0.3,0.1-0.5,0.2-0.8,0.2c-0.7,0-1.3-0.4-1.4-0.5l-0.2-0.2     c-0.4,0.4-0.8,0.5-1.1,0.5c-0.1,0-0.2,0-0.3,0c-2.4,0-5.4-3.8-6.3-5l-0.5-0.7l0.5-0.5c0.4-1.6,1-17.3,1.4-32l-39.3-1.2l-5.5,76.6     l-1,0c-7.5-0.2-44.7-1.2-48.5-3.6c-0.5-0.2-1.7-0.6-2.6-0.6c-0.4,0-0.7,0.1-0.8,0.2c0,0-0.6,0.7,1.1,4l0,0l1.1,0.1     c4.8,1.5,5,6.5,5,6.5c5.9,2.2,9.8,10,9.8,10c8.5,5.7,10,12.4,10,12.4c-2,13.5,5.9,15,5.9,15c6.8,2.6,10.2,7.4,10.2,7.4     c4.6,5.2,7.4-0.9,7.4-0.9c4.4-7.8,5.7-8.9,5.7-8.9c1.7,0,5-3.3,5-3.3c5.9,3.7,14.4,1.7,14.4,1.7s0,0-0.4,0.9     c-0.4,0.9,11.1,12,11.1,12c-1.3,2.6,2.8,9.4,2.8,9.4c1.3,7.8,3.5,5.9,3.5,5.9c-0.4,2,6.8,10.5,6.8,10.5c5.2,1.1,3,6.1,3,6.1     c2.2,1.3,0.4,5.7,0.4,5.7c4.6,0.7,3.9,5,3.9,5c0.2,7,10.7,7.8,10.7,7.8c3.5,3.9,6.3,3,6.3,3c7.4-0.4,7.2,3,7.2,3     c3.7,3,5.7-1.3,5.7-1.3c-9.8-22,6.1-35.1,6.1-35.1c1.3,0.2,9.1-6.3,9.1-6.3c1.5-2,14.4-7,14.4-7c3-4.6,9.1-7.8,9.1-7.8l-0.7-2     C483.3,570.8,487,569.2,490.2,568.2z"></path></g><g class="st0"><path class="st1" d="M556.6,569.5c-3.3-0.9-0.9-4.8-0.9-4.8c1.1,0,3.7-1.5,3.7-1.5c1.1-3.7-2.2-3.9-2.2-3.9     c-1.3,5.7-4.4,3.3-4.4,3.3c-2.6-1.4-0.7-3.3,1.2-4.6l-3-6.4c-3.1-1.4-3-6.3-2.7-9l-26,1.3l-0.1-1c-0.6-10.3,4.9-17.9,6.4-19.7     l-0.8-3.4h1.6l-0.6-1.8c-1.6-1.3-2.4-5.8-2.8-8.9c-1.3-0.1-3.8-0.3-8.4-0.3c-9,0-21.8,0.5-30.3,0.9c-0.1,6-0.1,10.9,0.2,11.7     l0.1,0.2l0,0.2c0,0.1-0.7,6.1,2.3,6.8l0.5,0.1l0.2,0.4c1.1,2.2,1.6,3.8,1.4,4.8c1.3,1.4,4.5,5.3,3.6,9.6c0,1.4-0.3,7.7-3.4,9.4     c-0.2,0.1-0.3,0.2-0.5,0.3c0.9,0.9,3.5,4,0.8,8.8l-0.2,5.5c7.6-2,11.9-0.7,11.9-0.7c3.3,3.3,15,3,15,3c-2.2-8.1,3.3-3,3.3-3     c5-2.8,5.7,2.4,5.7,2.4c6.5-0.2,5,5.7,5,5.7c4.1,3.5,7.2,1.7,7.2,1.7c0-3,3.5-2.8,3.5-2.8c1.5-2.4,3,0.4,3,0.4     c3.9,3.3,2.6-3.9,2.6-3.9l2.8-1.5c1.3,0.7,2.2,2.6,2.2,2.6c4.1-0.4,6.8,3.7,6.8,3.7c5.9,0.7,2.6-2.6,2.6-2.6     C563.3,570.4,556.6,569.5,556.6,569.5z"></path></g><g class="st0"><path class="st1" d="M471.1,328.8l-18.2-0.2h-1.2c-0.2,2.8,1.4,3.4,1.4,3.4l0.5,0.2l0.2,0.5c0.7,1.9-0.7,6.9-1.3,9.3     c1.4,2,1.8,3.2,1,3.9c0,0-0.1,0.1-0.1,0.1l2.2,6.3c0.8,1,2.8,4,2.5,6.5c0.7,0.9,2.4,3.5,2.4,7.7l1.5,10.1c0,0,0,0.1,0,0.1     l52.5-1.8l0.3,0.4c1.4,1.8,2.8,3,3.4,3.4c0-0.4,0-1.1-0.3-2.5l-0.3-1.3h3.1v-3.4l0.5-0.3c0,0,1.2-0.7,1.4-2     c0.2-1.1-0.4-2.3-1.6-3.6c-0.1-0.1-1.2-1.6-0.5-3.3c0.6-1.5,2.3-2.6,5.1-3.1l0.2,0l0.2,0.1c0,0,0.2,0,0.4,0     c0.4,0,1.1-0.1,1.9-0.6c1.6-1,2.8-3.2,3.4-6.4l0.1-0.3c0.1-0.1,0.4-0.6,0.1-1.3c-0.3-0.9-1.4-1.7-3-2.3l-0.6-0.2l-0.1-0.6     c0-0.1-0.5-3.1-2.9-3.5l-1.3-0.2l0.6-1.2c0,0,0.1-0.4-0.1-0.7c-0.2-0.4-0.9-1.1-3.3-1.4l-0.3,0l-4.1-3.9l1.2-5.9l0.7-0.1     c0,0,0.2-0.1,0.2-0.2c0,0,0.3-0.8-1.6-3.1h-16.8L471.1,328.8z"></path></g><g class="st0"><path class="st1" d="M782.2,315.8c-3.5-7-5.7-6.1-5.7-6.1c-5.4,1.5-1.7-7-1.7-7c-1.5-1.9-1.6-3.8-1.3-5.2c-2.2,0.1-5,0.7-6,2.8     v2.5l-17.4,2.4l-6.5,1.4l-0.1,10.6l25.2-5.9l0.4,0.5c0.6,0.8,5.6,7.2,8.2,10c0,0,0.1,0,0.1,0c2.2-7.4,4.8-1.5,4.8-1.5     c0.7-2.6,7.6-3.3,7.6-3.3l-0.7-2.8C782.9,319.3,782.2,315.8,782.2,315.8z"></path></g><g class="st0"><path class="st1" d="M737.3,430.8c-3.5,2.6-3,0-3,0c-0.4-0.9-3.3,1.5-3.3,1.5c-12.2,3.7-0.9-3.5-0.9-3.5c3.9-2.6,4.8-1.5,4.8-1.5     c4.6,2.8,3.5,0.9,3.5,0.9l-4.2-8.2c-12.8,4.8-70.4,12.8-79.2,14c0.1,0.7,0.1,1.5,0,2.4l-0.1,1.7l-1.4-0.8c-0.1,0-0.1,0-0.2,0     c-0.3,0.1-1.4,0.9-2.6,4.9l-0.5,1.6l-1.2-1.1c0,0-0.7-0.6-1.4-0.6c-0.1,0-0.2,0-0.3,0c-0.7,0.2-1.3,1.2-1.7,2.7l-0.1,0.4     l-0.4,0.2c-0.1,0.1-0.6,0.3-1.2,0.3c-0.4,0-0.7-0.1-1-0.3c-0.4-0.2-0.8-0.6-1-1.1l-1.7,1.4v3.5l-4.7,1.5c-0.5,0.9-2,2.9-5.4,3.5     c-1.4,1-2.8,1.9-3.4,2.4c0,0.3,0,0.6,0,0.9c-0.3,1.3-1.6,2.5-3.8,3.7l-0.1,1.1l15-1.1c2.8-1.8,9-5.5,11.7-5.5     c0.2,0,0.4,0,0.6,0.1l11.6-0.1c0.5-0.1,1.8-0.4,3.4-0.4c3.5,0,6,1.3,7.2,3.8c2.5-0.5,9-1.7,12.5-1.7c0.9,0,1.6,0.1,2.1,0.3l0,0     l0,0c0.2,0.1,16.5,10.2,21.1,14.8c2.6-0.9,6.8-1,6.8-1c-0.9-5.4,4.1-9.6,4.1-9.6c4.4-7.2,13.1-7.8,13.1-7.8c5.4-3.5-2-5-2-5     c2-2.8-0.7-6.8-0.7-6.8c0.9,1.1,6.1,0,6.1,0c1.5-5.2,3.3-5.4,3.3-5.4C741.9,434.9,737.3,430.8,737.3,430.8z"></path></g><g class="st0"><path class="st1" d="M806.3,248.4c-4,3.1-4,0.4-4,0.4c-0.9-9.7-7.1-6.6-7.1-6.6l-6.2-22.5l-8-4c1.8,2.2-4.4,4.9-4.4,4.9     c-6.6-0.9-2.7-4.4-4.9-3.5c-2.2,0.9-5.7,15-5.7,15c2.2,4,0.4,6.2,0.4,6.2c-2.7,0-2.7,5.3-2.7,5.3c8.4,2.7,4,3.5,4,3.5     c-5.3,2.2-5.3,13.3-5.3,13.3h-2.7c-0.1,0-0.1-0.1-0.2-0.1l3.3,10.4l3.7,12.7l0,0.1c0.1,2,0.8,5.3,1.8,6c0.1,0,0.2,0.1,0.3,0.1     c0.1,0,0.3,0,0.5-0.1l1.5-0.8v3.2h4.5c1.1-4.6,1.7-11.1,1.7-11.1c4,0.9,6.6-2.2,6.6-2.2c-0.4-2.7,4-3.8,4-3.8     c0.9-14.4,4.4-7.3,4.4-7.3c5.7-5.7,7.5-3.5,7.5-3.5l6.6-5.3C811.6,251.9,806.3,248.4,806.3,248.4z"></path></g><g class="st0"><path class="st1" d="M729.9,373.5c-1.2-0.9-1.9-2.4-2.2-3.5l-2.9-2.6c-0.3,0.5-0.6,0.9-0.7,1.1c1.5,5,3.6,12.6,4.2,15.6l9.4-0.2     l-0.5-1.5C734.3,382.2,729.9,373.5,729.9,373.5z"></path></g><g class="st0"><g class="st1"><path d="M743.3,347.4l2.3-6.9L743,339c-4.6-0.7-11.6-3.8-11.9-4l-0.7-0.3l-1.7,5.4l-1.1,1.6c0.4,0.6,0.8,1.4,0.6,2.3      c-0.1,0.5-0.4,1.2-1.3,1.8c-0.1,0.2-0.2,0.6,0.1,1.5h3.5l-0.8,1.5c0,0-0.3,0.6,0,1.3c0.3,0.8,1.4,1.6,2.9,2.2      c0.6,0,2.1,0.2,2.6,1.5c0.5,1.4-0.9,2.9-2,3.9c-2.5,3.5-3.4,4.3-4,4.4c-0.5,0.4-2.6,2.9-4,4.7l2.3,2c6,4.9,10.3,4.7,10.3,4.7      l0.7,4.6c1.7-0.4,2.4-5.9,2.4-5.9c3.7-2.4,4.6-12.6,4.6-12.6l-0.9-9.4C738.7,349.6,742.7,347.7,743.3,347.4z"></path></g></g><g class="st0"><path class="st1" d="M744.7,337L744.7,337l0,0.1l2.2,1.3c5.8-6.4,13.7-8.2,13.7-8.2c0.4,0.2,1.8-0.2,3.4-0.8l0-0.1     c0.9-3-0.8-11.4-1.4-14.3l-19,4.5C744.1,322.4,745.7,332.6,744.7,337z"></path></g><g class="st0"><path class="st1" d="M767.9,313.7l-3.2,0.8c0.6,2.8,2,10,1.6,14c2.1-0.8,3.9-1.6,3.9-1.6c0.7-1.5,2.2-2.8,2.2-2.8     c0.7,0.5,2.1-0.2,3.2-0.9C773.2,320.4,769.2,315.4,767.9,313.7z"></path></g><g class="st0"><path class="st1" d="M584.3,552.8l-0.3-8.9l-3.2-2.2v-4.3l37.6-3.3c-0.9-2.1-1.4-4.5-1.4-4.6l-0.1-4.2c-1.5-2.3-0.8-8.3-0.6-9.4     l0-0.1l0.1-0.3l0,0c0.8-1.3,1.1-2.1,1.3-2.6c-0.1,0-0.2,0.1-0.4,0.2l-1.6,0.9v-4.8l-3.1-6l-10-35.2l-12.9,1.4l-18.2,1.5l-2.2,0.6     l1,0.6v14.7l-1.1,19.7l-0.2,18.3c0,0.2,3.2,20.9,2.9,28.5l0.2,0v-1.3l4.1-0.2c1.7-11.1,5.7-2.2,5.7-2.2c0.7,1.5-0.3,3.8-0.6,4.4     C581.8,553.5,583,553.1,584.3,552.8z"></path></g><g class="st0"><path class="st1" d="M623.9,352.7l-3.5-3.5c0-0.5,0-0.9,0.1-1.3l-13.9,2.7l-4.1,0.6l-0.4,4.3l1.6,6l1.3,8.7l0.6,10.3l1.3,9.3     l0.3,3.5c0.6-0.1,1.3-0.2,2.2-0.2c1.7,0,3.1,0.4,4.2,1.1c1.1,0.8,1.9,1.9,2.2,3.4h5.4l0,1c0,0.6,0.2,1.2,0.3,1.4     c0,0,0.5-0.1,1.7-1.4l0.3-0.3l4.8-0.2l-0.1,1c0.3-0.4,0.8-1,1.4-2l0.2-0.2c0.3-0.2,1.3-1,2.5-1c0.4,0,0.8,0.1,1.1,0.3     c1.1,0.6,1.6,2,1.5,4.4c1,0.5,2.2,0.9,3.2,0.9c0.4,0,0.7-0.1,0.9-0.2c0.2-0.1,0.6-0.3,0.6-1.6l0-0.8l1.7-0.5     c-0.2-2.8-0.2-7,1.7-7.8c0.2-0.1,0.5-0.2,0.8-0.2c0.8,0,1.7,0.5,2.7,1.6c0-0.2,0-0.8-0.4-1.9c-0.2-0.3-0.5-0.8-0.5-1.6     c0-1.3,0.8-2.7,2.3-4.2c0-0.9,0.4-1.6,1-1.9c0.2-0.1,0.4-0.1,0.7-0.1c0.6,0,1.2,0.3,2,0.9c0.9-1,2.5-3.1,4.3-6.1l0.1-9.5l1.4-4.3     l-0.1-0.3l0.2,0l0.2-0.6l-1.7-13.3l-1.2-7.5c-6.5,0.5-10.9,9.3-10.9,9.3c-3.5-0.9-13,3.5-13,3.5l-2.1-2.7L623.9,352.7z"></path></g><g class="st0"><g class="st1"><path d="M629.6,326.6c-2.2-2.2-4-11.9-4-11.9c0.4-8.4-7.1-4-7.1-4c-4.9,8.4-7.1,8-7.1,8c-5.7-7.1,1.3-8,1.3-8l1.3-4.4      c3.1-3.1,0-8.4,0-8.4c-2.2-1.3-1.8-4-1.8-4c4-1.8,0-6.2,0-6.2c-1.3,0.4-5.3,0-5.3,0c-6.6-5.7-7.1-2.2-7.1-2.2      c-7.1-6.2-6.2,1.8-6.2,1.8c4.9,1.8-3.5,4.9-3.5,4.9c1.3,7.1-3.1,8.4-3.1,8.4v-8l-1.8,3.5c-5.7,1.8-2.7,5.3-2.7,5.3      c-4-1.3-2.2,3.5-2.2,3.5c-3.1,8.4-1.8,16.3-1.8,16.3c10.7,23,2.2,26.9,2.2,26.9c-0.4,0.6-0.7,1.1-1,1.6c1.6,0,3.6-0.2,5.6-0.6      l0.1,0l5.3,0l4.5-0.7l6.1,0.7l4.7-0.7l8.2-1.6l6.9-1.3c0.9-1.4,2.1-1.7,2.1-1.7c-2.2-4.4,2.7-8,2.7-8c2.2-7.5,3.5-1.8,3.5-1.8      C632.3,333.2,629.6,326.6,629.6,326.6z"></path></g><g class="st1"><path d="M578.4,279.6c2.2,1.2,5.3,0,5.3,0c3.1-5.4,6.2-1.2,6.2-1.2c4.4,2.7,8.4,0,8.4,0c0.9-2.2,6.6,0,6.6,0l-4-3.8v-5      c-7.5,3.1-10.6,0.9-10.6,0.9v-4.4l-4.9,2.7c-7.1-3.5-14.6,5.9-14.6,5.9c-4.4-6-8.4,0-8.4,0c-1.8-8.2-7.5-7.7-7.5-7.7      c-9.3,4.4-6.2,1.8-6.2,1.8c-0.4-5.3,8-11.5,8-11.5c-2.2-0.4-7.5,2.2-7.5,2.2c-7.1,10.6-15.5,10.2-15.5,10.2      c-0.6,2.7-3.1,3.9-5.8,4.5c0.4,0.5,1,1.2,2.2,1.2l0.1,0l7.4,1.7l3.1,0.5l2.7,1.5l10.8,1.5l-0.9,1.4v0c0,0-0.1,0.2,0,0.4      c0.1,0.2,0.6,0.9,3.9,1.1l0.9,0.1l1,9.2l3,2.6c2.7-5.3,5.6-10.3,5.6-10.3c7.5-3.1,8.4-0.4,8.4-0.4      C579.6,286.8,578.4,279.6,578.4,279.6z"></path></g></g><g class="st0"><path class="st1" d="M654.5,431.9c7.8-1.1,66.1-9.1,78.7-13.8l-1.3-2.6c-3-1.3-5,3.3-5,3.3c-2.2-0.2-7.4-7.4-7.4-7.4     c-0.7-4.3,4.8,3,4.8,3c3.5,2.4,3.5,0,3.5,0c-7.2-7.8-1.5-6.5-1.5-6.5c-1.7-3.5-1.1-7.8-1.1-7.8c-2.8-0.6-4-2.9-4.4-5.1l-10.7-1.3     l-0.1,0c-2.4-0.9-3.7-2.2-4-3.8c-0.3-1.9,1.4-3.6,2.1-4.2c0.2-1.4,0-2.4-0.7-3.1c-1.1-1.2-3.1-1.3-3.9-1.3c-0.3,0-0.6,0-0.6,0     l-1,0.1l-0.1-1c-0.2-1.6-0.8-2.8-1.5-3.3c-0.2-0.1-0.3-0.2-0.5-0.2l0,1.1l-1.4,3.7l-6.9-3.3l-1,4.8l-1.1-0.9     c-0.2,0.5-0.6,1.7-0.8,3.2l-0.1,0.5l-2,1.3v2.6h-3l-1,7.3H678l-0.3-0.6c-0.6-1.2-1.1-1.9-1.3-2.2c-0.1,0.6-0.3,1.8-0.2,3.3l0,0.3     l-2.6,4.9l-2.1,7.3c0.4,1.4,0.4,2.5-0.1,3.4c-0.3,0.7-0.9,1.1-1.2,1.3c-1.7,1.9-4.5,2.2-5.9,2.3c-0.7,2.5-1.7,4.1-3.1,4.6     c-0.4,0.1-0.8,0.2-1.2,0.2c-1,0-1.8-0.5-1.9-0.6l-0.4-0.3l-0.1-0.4c-0.1-0.4-0.2-0.5-0.2-0.5c-0.7,0-2.4,1.1-3.6,2.4l-0.4,0.4     l-0.5-0.1c-3.4-0.4-5.7-2.8-6.8-4.3l-8.2,8.1v4.1l-4.4,3.2c0.9-0.1,1.3-0.2,1.4-0.2l14.6-1.7c0.6-0.7,1.7-1.8,2.9-1.8     c0.2,0,0.5,0,0.7,0.1C653.8,430.8,654.2,431.2,654.5,431.9z"></path></g><g class="st0"><path class="st1" d="M371.9,436.9c0.8,0,1.6,0,2.3,0c0.5-4.6,3-28.8,2-34.5c-0.3-2.8,0.5-10.6,1.2-18c0.6-6.1,1.2-12.4,1.2-14.9     l-24.1-2c-0.2,0-0.4,0-0.7,0c-6,0-37.3-3.9-63.3-7.2l-8.8,66.4C290.4,428.1,349.9,436.9,371.9,436.9z"></path></g><g class="st0"><path class="st1" d="M228.1,225.6c1.3,1.1,3.3,3.8,1.5,10c0.5,1.4,1.6,3.1,2.8,3.5l0.6,0.1l0.2,0.5c0.7,2.3,3.1,8.7,5.2,10.1     c1,0.4,4.1,1.7,4.5,4c0.2,1.3-0.5,2.6-2.1,3.7c-1.6,3.5-4,10-2.9,12.9c0.1,0.3,0.3,0.6,0.5,0.8c1.3-1.3,3.3-3,5-3     c0.4,0,0.7,0.1,1,0.2c1.4,0.7,1.6,2.8,0.8,6.6c0.6,3.3,2.3,8.6,4.1,9.9c0.1,0,0.1,0,0.2,0c0.4,0,0.8,0.1,1.2,0.3     c1.4,0.9,2,3.3,1.8,7.5c0.3-0.3,0.7-0.7,1.1-1.2l0.4-0.5l0.7,0.2c0,0,2,0.5,4.3,0.5c0.8,0,1.6-0.1,2.4-0.2c0.1,0,0.2,0,0.4,0     c0.7,0,3,0.1,5,1.4c0.9-1.3,2.5-3,4.4-3c0.1,0,0.3,0,0.4,0c1.1,0.2,2,0.8,2.7,2.1l0.8-5.9l84.4,10.3c0.5-2.9,1.7-10.2,2.1-14.3     l0-0.1c0.2-3.3,1-14.3,1.1-17.7c0-0.4,0-0.6,0-0.8c0-0.7,0.3-3.5,0.8-7.8c0.8-7.4,2.3-20.4,2.3-24.7c-34.5-3.3-64.1-6.6-64.1-6.6     c-23.7-3.7-48.3-8.7-70.3-13.6C230.4,214.5,228.9,222.8,228.1,225.6z"></path></g><g class="st0"><path class="st1" d="M192.3,322.4l9.2-34.1c-2.4-0.8-3.5-1.6-3.5-2.7c0-0.5,0.3-1,0.8-1.4c-1-3.9,4.8-7.5,5.1-7.7l0.2-0.1l0.3,0     c0.5,0,0.6-0.2,0.7-0.3c0.4-0.5,0.4-1.6,0.3-2.1l-0.1-0.5l0.4-0.4c0.6-0.6,3.4-4.3,5.2-6.7l0.2-0.2c1.5-1.1,0.9-2.7,0.6-3.4     c-1.7-1-2.6-3.1-3.1-4.9l-16.3-3.2l-0.2-0.5c-0.2-0.5-2.6-1.2-7-1.2c-0.6,0-1.2,0-1.7,0l-0.4,0l-0.3-0.2     c-0.1-0.1-0.8-0.5-5.6-0.5c-1.3,0-2.7,0-4,0.1c-1.3,0.4-2.5,0.6-3.6,0.6c-1.6,0-2.5-0.5-2.9-0.7c-0.6-0.2-1.4-0.4-2.3-0.4     c-1.8,0-3.6,0.5-3.7,0.5l-0.6,0.2l-0.4-0.5c-1.3-1.5-5-2.5-6.3-2.8l-0.3-0.1c-0.9-0.6-1.4-0.7-1.8-0.7c-0.1,0-0.2,0-0.3,0.1     c-0.4,0.2-0.6,0.7-0.6,0.7l-0.2,0.8l-0.8,0c-0.3,0-0.6,0-0.9,0l-0.4,0c-7.4,0-9.5-4.6-9.6-4.8l-0.2-0.5l0.2-0.4     c1.2-2.2,1.5-4,1-5.5c-0.5-1.4-1.6-2.1-1.9-2.3c-1.7-0.3-2.9-1-3.5-2c-0.2-0.4-0.4-0.8-0.4-1.1c-0.4-0.1-0.9-0.1-1.5-0.1     c-0.6,0-1.2,0.1-1.7,0.1l-1.2,6.6c0.7,15.5-21.8,47-21.8,47l-1.5,10.7l0.3,2.8C113.9,304.3,160.7,315.4,192.3,322.4z"></path></g><g class="st0"><path class="st1" d="M189.4,489.7c4-3,5.2-4.4,5.5-5c-0.1,0-0.1,0-0.2,0c-0.5,0-1,0.1-1.5,0.2l-1.3,0.3v-8.4l0.5-0.3     c3.4-2,2.6-6.7,2.6-6.8l0-0.3l0.1-0.2c1.2-3.9,4.9-5.6,5.8-6c0.7-0.5,1.5-1.3,1.5-2.1c-0.1-0.8-1-1.5-1.5-1.8     c-1.9-1.2-2.9-7.6-3.3-10.6l-55-82.1l12.7-50.6c-19.8-4.7-41.4-10.1-49-13l0.3,2.7c0.9,9.8-7.2,18.5-7.2,18.5     c-3.7,0.7-3,5.9-3,5.9c8.7,21.8,1.1,17.2,1.1,17.2v7.8l6.1,12.6c0,0-1.1,4.8,0,4.8c1.1,0,3.5,4.1,3.5,4.1l0.9-2.6     c5.9-3.5,3.3,2.4,3.3,2.4l-2-0.4l1.7,2.8c2.6,9.8-2.4,4.1-2.4,4.1c0.2-10.9-2.6,0.4-2.6,0.4c-1.5,3.5,2.4,10.5,2.4,10.5     c7.6,0.2,2.4,7,2.4,7c-3.7,0.9-2,5-2,5c1.1,0,3.9,5.5,3.9,5.5c-1.7,0.7,1.5,6.7,1.5,6.7c-0.4,1.3,6.1,12.2,6.1,12.2l-2.6,8.5     l1.1,2.8c12.6,1.5,15.9,7.2,15.9,7.2c0.9,4.6,4.1,5.4,4.1,5.4c7.6-0.9,6.8,7,6.8,7c11.3,2,12,14.8,12,14.8v10L189.4,489.7z"></path></g><g class="st0"><path class="st1" d="M215.3,417.8l-1.7-0.3l-0.2,0l0,0l-0.4-0.1l-2.4,11.1c1.5,3.8,1.6,5.9,0.3,6.8c-0.3,0.2-0.7,0.3-1.2,0.3     c-1.7,0-4.1-1.6-6-3.2c-2.3,11.1-3.3,14.9-3.9,16.2c0.6,4.8,1.7,8.7,2.2,9.1c0,0,2.4,1.3,2.5,3.5c0.1,1.4-0.7,2.8-2.4,4l-0.2,0.1     c-0.1,0-3.6,1.3-4.7,4.5c0.1,1.2,0.4,5.8-3.1,8.3v4.6c0.2,0,0.5,0,0.7,0c1.5,0,2.1,0.6,2.3,1.1c0.6,1.2-0.1,2.7-4.7,6.4l-1.7,3     l49.2,29.6l26.2,4l13-98.1C270.4,427.9,224.1,419.4,215.3,417.8L215.3,417.8z"></path></g><g class="st0"><path class="st1" d="M264.1,356.9l-1.1-0.1l3.1-17.5c-5.8-0.3-20.4-3.1-35.1-6.2l-17.6,82.2l1.7,0.3c23.2,4.3,58,10.5,64.3,10.9     l8.8-66.5C278.9,358.8,270.4,357.7,264.1,356.9z"></path></g><g class="st0"><path class="st1" d="M446.3,241.4c-0.1,5.5,0.4,10.8,1.2,11.4c0.5,0.2,2.3,1.8,1.8,10.7c0,2.9,0.4,8.5,1.7,11.2     c0.6,1.3,0.9,1.9,0.9,2.4c0.9,1.8,2,5.4,0,9.2l0,3.1l-0.8,0.2c-1.5,0.3-2.1,0.8-2.2,1.1c-0.1,0.9,1.9,2.9,4.4,4.4l0.5,0.3v31.1     l17.2,0.2l29.5-1.5l16.1,0l-0.7-5.2l-7.5-5.1l-0.1-0.4c-0.4-2-3.4-3-3.5-3l-0.5-0.1l-0.2-0.5c-0.7-1.7-4.3-3.5-6.4-4.1l-0.4-0.1     l-0.2-0.4c-1.5-2.9-0.1-9.3,0.1-10l0.1-0.2c0.4-0.8,0.8-1.9,0.4-2.6c-0.4-0.7-1.6-1-2-1l-1-0.1l0.1-1c0.2-3.5,1.3-6.2,3.3-7.9     c1.7-1.4,3.5-1.8,4.5-1.8l3.5-7.1c-1.9-0.3-2.1-1.3-1.5-0.9c1.3,0.9,11.9-10.2,11.9-10.2c-1.3-5.3,17.2-13.2,17.2-13.2     c-6.6-4-9.7,0-9.7,0c-3.5-0.4-4-3.1-4-3.1c-3.1,3.5-8.8,3.1-8.8,3.1c-2.7-4.4-8.8-4.4-8.8-4.4c-4.9-4.9-10.6-4.4-10.6-4.4     c-4,5.8-6.6,0-6.6,0c-10.6,0.4-10.6-4-10.6-4c0.4-9.3-4.4-8.8-4.4-8.8v8c-3.5,0.9-11.9,1.1-23.1,0.7     C447.1,238.4,447,239.8,446.3,241.4z"></path></g><g class="st0"><path class="st1" d="M131.2,229.5l-0.3,1.9c0.4,0,0.8-0.1,1.3-0.1c1.2,0,2.2,0.2,3,0.5l0.9,0.4l-0.3,0.9c0,0,0,0,0,0     c0,0,0,0.2,0.1,0.5c0.3,0.5,1.1,0.8,2.2,1l0.2,0c0.2,0.1,2.4,1,3.2,3.6c0.7,1.9,0.4,4.2-0.9,6.7c0.6,1,2.6,3.1,7.4,3.1     c0,0,0.4,0,0.4,0c0.3-0.5,0.7-1.1,1.5-1.4c0.4-0.2,0.7-0.2,1.2-0.2c0.8,0,1.7,0.3,2.6,0.8c1,0.2,4.9,1.1,6.9,3     c0.7-0.2,2.1-0.4,3.6-0.4c1.3,0,2.4,0.2,3.3,0.6l0.2,0.1c0,0,0.5,0.4,1.8,0.4c0.9,0,1.9-0.2,3.1-0.5l0.2,0c0.7,0,2.4-0.1,4.4-0.1     c3.3,0,5.4,0.2,6.4,0.7c0.4,0,1,0,1.7,0c4.5,0,7.3,0.6,8.4,1.9l14.6,2.9c-0.1-0.5-0.1-0.8-0.1-1.1c-1.1-4.4,7.6-37.7,9.9-46.6     c-34.7-8.1-60.1-15.2-60.1-15.2c3.3,5.9,1.5,10.2,1.5,10.2c0.4,1.5-0.7,3-0.7,3c2.6,11.3-2.8,0.9-2.8,0.9c-0.9-2.4,1.7-3,1.7-3     c-3.5-2.8-3,3.3-3,3.3c-10.2-0.2-18.5-8.7-18.5-8.7c-5.9-6.5-2.8,7-2.8,7l0.2,12.6c0.2,3.3,3,4.6,3,4.6c-6.8-0.4-3.9,2.4-3.9,2.4     C137.7,227.6,131.2,229.5,131.2,229.5z"></path></g></g></g><g class="st0"><g class="st1"><path d="M339.1,622.9c0,0-2.1-5.1,1.5-1.8c0,0,3.5,1.4,5.4,1.8c0,0,2.1,1.7,3.3,1.9c0,0,1.9,0.3,3,5.5c0,0,1.2,1.5,3.2,1.7    c0,0-1.1,2.8-4.1,3.6c0,0-4.1,1.8-4.4,0.8c0,0-4.5,3.4-4.1,5c0,0-2.1,2.2-4.5-0.7c0,0-0.6-4.1,0-4.7c0,0-1.5-6.5-2.7-6.7v-2    c0,0,2.9-1,3.5-2.9L339.1,622.9z"></path></g><g class="st1"><path d="M329.2,613.9c0,0,2.6,0,5.2-1c0,0,4.8-2.8,0-2.8c0,0,1.1-2.3-5.2-1.8c0,0-2.3-1.5-2.3-1.9c0,0-2.2-0.4-1.9,1    c0,0-0.2,1.9,0.8,2.2C325.8,609.8,329.2,612.4,329.2,613.9z"></path></g><g class="st1"><path d="M321.1,611.5c0,0,1.8-0.5,1.8-1.3c0,0-0.2-1.5-0.9-1.6h-3.1c0,0,0.8,0.7,0.9,1.6C319.8,610.2,319.8,611.2,321.1,611.5z"></path></g><g class="st1"><path d="M315.7,603.5c0,0,2.8,0.9,4.2,0c0,0,4.5-0.9,4.4,0.4c0,0,0.6,1.8-3.4,2.6c0,0,0.1-1.1-4.5-1.1    C316.4,605.3,313.9,604.2,315.7,603.5z"></path></g><g class="st1"><path d="M308.9,600.9c0.5-0.4,0,1.3,0,1.3c-1.3,0.8-3.4,0-3.4,0c0.8-1.4-1.1-0.8-1.1-0.8c-1.1,0.3-3.2-0.6-3.2-0.6    c-1.3-0.6-1.3-3.3-1.3-3.3c-0.3-2.2,4-2.8,4-2.8c2.4,0.2,2.3,4.1,2.3,4.1S307.7,601.8,308.9,600.9z"></path></g><g class="st1"><path d="M282,588.8c0,0,0.5,3-2.4,3c0,0-4.1-1.4-4.7-2.3c0,0,0.3-3.5,2.7-3.3l2.5,0C280.1,586.1,283.3,586,282,588.8z"></path></g><g class="st1"><path d="M269.7,591.7c0,0-2.1,2-2.5,1.7s-0.5-0.3-0.5-0.3s0.5-2.4,1.5-2.5c0,0,2-1.4,2.3-0.6C270.5,590,270.3,591.2,269.7,591.7z"></path></g></g><g class="st0"><g class="st1"><path d="M664.8,335l8.5-2.3l22.2-4.4l10-1.7l7.6-1.5c0.5-0.2,3-1.1,5.3-1.1c1,0,1.9,0.2,2.5,0.6c0.5,0.3,0.9,0.7,1.1,1.2l2-0.1    l0.1,1c0,0.2,0.5,4.8,4.6,5.1l0.2,0l2.9,1.2c0.1,0,6.5,2.9,10.8,3.7c0.8-2.9-0.2-11.9-1.2-18l0.1-12.8l-3-10.9    c-1.3-0.3-2.2-1-2.7-1.9c-0.6-1.1-0.4-2.4-0.2-3.2c-1.4-1.3-2.2-4.5-2.5-5.4l-0.1-0.3l0.1-0.3c0.4-1.4,0.2-3.9,0-5    c-1.1-0.9-1.8-3.4-2.3-7.7c-5.5,1.1-5.5,3.4-5.5,3.4c-10.6-0.7-11.9,3.8-11.9,3.8c-2.2,4-11.9,15-11.9,15c4,1.3,3.5,5.3,3.5,5.3    c1.8,1.3,4.9,7.1,0,5.7c-4.9-1.3-5.7,6.2-5.7,6.2c-5.7-1.3-8.4,2.2-8.4,2.2c-4.9-4.4-11,0-11,0c-16.3-1.8-5.3,8.8-5.3,8.8    c4.4,1.3-9.7,11.5-9.7,12.4c0,0.1-0.1,0.2-0.2,0.3V335z"></path></g><g class="st1"><path d="M762.6,333.6c-0.4,2.4-9.4,5.4-9.4,5.4c-4.8-0.4-5.4,2-5.4,2c-0.8,0.8-1.4,1.3-1.8,1.6l-1.6,4.7    c11.7-0.9,21.2-13.2,21.2-13.2L762.6,333.6z"></path></g></g><g class="st0"><g class="st1"><path d="M208,606.9v-65.4l-6.4-3.2c0,0-2.3,0-2.9,1.5c0,0-5.5-3.5-6.7-1.5c-1.2,2-4.6-4.1-4.6-4.1H181c0,0-1.5-2.9-1.5-4.6    c0,0-2.6,2.3-4.1,0c0,0,2.3-0.9-4.4-4.1c0,0-0.9,3.5-3.8,2.6l-4.1-0.6c0,0-1.5,3.2-6.4,2.6c0,0-2.9,2.3-5.2,5.5c0,0-3.2,2-7.6,0.6    c0,0-3.8,2-1.5,3.8c0,0,7,7.3,3.2,9.3c0,0,4.1,0.3,2.6,3.5c0,0,6.4,8.4-2,4.6c0,0-8.1-1.2-2.6-4.9l-4.9-0.3c0,0-0.9,2.9-4.6,1.5    h-4.1c0,0,0.9,3.2,3.5,3.8c0,0-2.9,7,2.3,8.7c0,0,2.9-0.9,6.7,0c0,0,1.7,1.7,4.1,0c0,0,4.9-0.6,1.5,3.8c0,0-0.3,6.7-4.6,6.4    c0,0-2.3-2.6-4.4,0.6c0,0-2.3,0.6-4.1-2c0,0-2.9,0.6-3.5,2c0,0-3.8,5.5-5.2,4.6c0,0-3.2,4.4,0,5.2c0,0,1.8,2-1.4,4.6    c0,0,2,3.5,2.9,6.4h4.4l1.5-1.5c0,0,3.8,6.4-0.6,7c0,0,1.5,5.8,0,5.8c0,0,4.6-4.4,6.1,0c0,0,2.6-1.5,3.2,4.6c0,0-0.3-4.6,2.9-2    c0,0,6.4-1.2,2.6,2c0,0-2.3,8.1-5.5,7.8c0,0-3.2,1.7-2.3,3.2c0,0-7.3,0-9.6,3.5c0,0-3.1-2.6-5.5,0c0,0-6.1,3.8-9.3,2.6    c0,0-10.5,0.6,0,2.8c0,0,3.3,1.3,5.5-1.6c0,0,1.2,0.3,5.2-1.7c0,0,4.4,2,8.4-0.9c0,0,9.3,1.7,4.4-2c0,0,3.5-2,5.8-1.7    c0,0,10.2-3.8,11.6-5.2c0,0,9-4.9,4.4-7.3c0,0-2.3-4.4,2.3-4.6c0,0,2.3,1.5,5.2-4.9c0,0,4.6-8.4,9.6-2.6c0,0,4.1,0.6-4.1,1.7    c0,0-5.2,6.7-4.1,7c0,0,4.9,0.6-0.6,2.3c0,0-0.9,1.5,3.8,1.2c0,0,6.4-4.1,5.2-4.9c-1.2-0.9,1.2,0.9,1.2,0.9s3.2-1.7,3.8,0.6    l-0.3-6.4c0,0,7.6-4.1,8.7,3.5c0,0,4.1,0.9,5.8,3.2c0,0,8.1-1.7,10.5,2.9c0,0,3.5,0,4.6-0.9c0,0,1.7-2.9,0,2.3    c0,0,11,5.8,12.2,8.4c0,0,1.8,0.1,0,2.6c0,0,2.2,0.7,2.2,1.7c0,0.9,0,0.9,0,0.9s5.6,6.4,5.2,8.2c0,0,2.2,2.6,3.9,0    c0,0,3,0.6,1.9,2.8l2.1,1.5v2.8l2.1,3.4c0,0,0.2-2.4,2.8,0c0,0-4.9-10.5,2.4-4.9c0,0,2.6-0.5,2.6,3.4c0,0,6.4-5.6,0-10.9    c0,0-6.4-0.7-7.1-2.8c0,0,0.9-2.4-4.3-6c0,0-1.5-5.4-6-7.7c0,0-0.7-1.3-2.6-3.4c0,0-3.6-7.1-5.2,2.1c0,0-3.6,3.4-4.5,0    c0,0-3.4-4.5-5.4-5.8c-2.1-1.3-0.2-2.4-0.2-2.4s-3.4,0.9-4.1,1.1C209.8,609.7,208,610.6,208,606.9z"></path></g></g><g class="st0"><g class="st1"><path d="M438,634.3c-0.9,0-1.9-0.4-2.9-1.2l-0.2-0.2l0-0.3c0,0,0-0.6-0.5-1.2c-0.6-0.6-1.9-1.3-4.8-1.3c-0.4,0-0.7,0-1.1,0    c-0.1,0-0.4,0.1-0.8,0.1c-1.1,0-3.3-0.4-5.9-3.2c-1.6-0.2-10.7-1.5-11-8.3c0-0.1,0.2-1.8-0.7-3c-0.6-0.8-1.5-1.3-2.7-1.4l-0.7-0.1    l0.3-0.6c0.4-1.1,1.2-4.1-0.2-5l-0.4-0.2l0.2-0.4c0,0,0.9-2.1,0.1-3.6c-0.5-0.9-1.4-1.5-2.7-1.7l-0.2,0l-0.1-0.1    c-1.5-1.8-6.1-7.4-6.8-10.1c0,0-0.1,0-0.1,0c-1.5,0-2.7-2.2-3.4-6.5c-0.6-1-3.8-6.6-3-9.4c-10.6-10.3-11.1-11.8-11-12.3    c-1,0.2-2.5,0.3-4.3,0.3c-3.6,0-6.7-0.7-9.1-2.1c-0.9,0.8-3.2,2.9-4.8,3.1c-0.4,0.4-1.9,2.3-5.4,8.7c0,0.1-1.5,3.3-4.3,3.3    c-1.3,0-2.7-0.8-4-2.3c-0.1-0.1-3.5-4.7-10-7.3l0,0c0,0-8.2-1.8-6.2-15.5c-0.2-0.8-2.1-6.9-9.8-12l-0.1-0.1l-0.1-0.1    c0-0.1-3.9-7.7-9.5-9.8l-0.3-0.1l0-0.4c0-0.2-0.3-4.6-4.6-6l-23.4-2.8l-1.7,8.5l-41.8-6.4l-49.8-30l1.6-2.8l-34.3-3.9v-10.5    c0-0.5-0.8-12.4-11.6-14.3l-0.5-0.1l0.1-0.5c0,0,0.3-3.1-1.4-5c-0.9-1-2.1-1.4-3.7-1.4c-0.3,0-0.7,0-1.1,0.1l-0.1,0l-0.1,0    c-0.1,0-3.6-1-4.5-5.8c-0.4-0.6-4-5.5-15.4-6.9l-0.3,0l-1.3-3.3l2.6-8.4c-2.3-3.9-6-10.3-6.1-12.1c-0.6-1.1-2.5-4.9-1.9-6.6    c0.1-0.2,0.1-0.3,0.2-0.4c-1.2-2.3-2.7-4.6-3.3-4.8h-0.4l-0.1-0.3c0-0.1-0.9-2.3-0.1-4c0.4-0.8,1.2-1.4,2.2-1.7    c0.7-0.9,2-3.2,1.4-4.6c-0.4-0.9-1.6-1.3-3.4-1.4l-0.3,0l-0.2-0.3c-0.2-0.3-4.1-7.3-2.4-10.9c1.4-5.5,2.2-5.5,2.6-5.5    c0.2,0,0.4,0.1,0.5,0.2c0.3,0.3,0.6,1.2,0.6,4.8c0.6,0.6,1.4,1.3,1.8,1.3c0.2-0.2,0.6-1.1-0.5-5l-2.4-3.8l-0.9,2.8l-0.6-1.1    c-1.1-2-2.6-3.8-3-3.9c0,0,0,0,0,0c-0.3,0-0.5-0.1-0.7-0.3c-0.7-0.8-0.2-3.6,0.1-4.9l-6.1-12.6v-8.9l0.8,0.5c0,0,0.6,0.3,1.1,0.3    c0.3,0,0.6-0.1,0.8-0.4c0.7-1,1.1-4.4-3.8-16.5l0-0.1l0-0.1c-0.2-1.9,0.1-5.7,3.3-6.4c1-1.1,7.7-9.2,6.9-18l-0.9-7.9l1.6-10.9    l0.1-0.1c0.2-0.3,22.3-31.6,21.7-46.7l0-0.1l2-11.1l0.3-0.1c1.1-0.3,2.9-1.2,2.9-2c0-0.5-0.6-1-1.7-1.6l-0.1,0l-0.1-0.1    c-0.1-0.1-1.1-1.1-0.6-2.1c0.3-0.8,1.4-1.2,3.2-1.3c-0.8-0.8-1.7-2.1-1.9-4l-0.2-12.6c-0.3-1.3-1.5-7.2-0.2-8.8    c0.3-0.3,0.6-0.5,1.1-0.5c0.8,0,1.7,0.6,2.9,2c0.1,0.1,7.9,8,17.5,8.5c0-0.9,0.1-2.6,0.9-3.5c0.3-0.3,0.7-0.5,1.2-0.5    c0.6,0,1.2,0.3,1.9,0.9l0.8,0.7l-1.1,0.3c0,0-1,0.3-1.4,1c-0.2,0.4-0.2,0.8,0,1.4c0.8,1.5,1.9,3.3,2.5,3.9c0-0.5-0.1-1.6-0.7-4.4    l-0.1-0.2l0.1-0.2c0,0,0.9-1.3,0.6-2.6l-0.1-0.2l0.1-0.2c0,0,1.7-4.2-1.5-9.7l-0.6-1.2l1.3,0.4c0.8,0.2,76.3,21.3,143.5,31.8    c1.1,0.1,115,12.8,155.9,12.8c5.8,0,9.9-0.3,12.2-0.8v-8l0.5-0.1c0,0,0.1,0,0.2,0c0.4,0,1.7,0.1,2.9,1.3c1.5,1.6,2.2,4.3,2,8.1    c0,0,0.2,3.4,8.6,3.4c0.5,0,0.9,0,1.4,0l0.4,0l0.2,0.3c0,0,1.1,2.3,2.7,2.3c0.9,0,2-0.8,3-2.3l0.1-0.2l0.3,0c0,0,0.2,0,0.5,0    c1.4,0,6.2,0.3,10.4,4.4c1.2,0,6.3,0.5,8.9,4.4c0.1,0,0.2,0,0.3,0c1.6,0,5.5-0.3,7.8-2.9l0.8-0.9l0.2,1.1c0,0.1,0.4,2.2,3.2,2.6    c0.5-0.5,2-1.7,4.5-1.7c1.8,0,3.7,0.6,5.7,1.8l0.9,0.6l-1,0.4c-5,2.2-17.9,8.6-16.9,12.6l0.1,0.3l-0.2,0.2    c-2.1,2.1-8.3,8.5-11.2,10.1c0.4,0.1,0.8,0.1,1.4,0.1c2.3,0,6.7-0.9,14.4-5.3l0.1-0.1l0.1,0l0.1,0c0.4,0,0.8,0.2,1,0.6    c0.3,0.5,0.5,1.6-1.4,4.9c0.4,0,0.9,0,1.5,0c3.5,0,9.4-0.6,10.3-4.6l0.1-0.5l0.6,0c0.8,0,8.4-0.3,14.9-9.9l0.1-0.1l0.1-0.1    c0.2-0.1,4.7-2.3,7.2-2.3c0.2,0,0.5,0,0.7,0.1l1.2,0.2l-1,0.7c-0.1,0.1-8.1,6.1-7.7,11l0,0.1c0.8-0.3,2.4-0.9,5.4-2.3l0.1,0l0.1,0    c0,0,0.1,0,0.3,0c1,0,5.7,0.4,7.6,7c0.8-0.9,2.2-2,4-2c1.5,0,2.9,0.8,4.2,2.3c1.4-1.6,6.1-6.4,11.2-6.4c1.2,0,2.3,0.2,3.3,0.7    l5.4-3v5c0.4,0.2,1.4,0.5,2.9,0.5c2,0,4.3-0.5,6.9-1.6l0.8-0.3v5.6l3.8,3.6l-0.6,0.9c0,0-2.5-0.9-4.3-0.9c-0.9,0-1.4,0.2-1.6,0.6    l-0.1,0.2l-0.1,0.1c-0.1,0.1-1.9,1.3-4.6,1.3c-1.5,0-3-0.4-4.4-1.3l-0.1-0.1l-0.1-0.1c0,0-1-1.4-2.3-1.4c-1,0-2,0.8-3,2.5    l-0.1,0.2l-0.2,0.1c-0.1,0-1.5,0.6-3.1,0.6c-0.6,0-1.2-0.1-1.7-0.2c0.1,1.3,0.2,3.6-0.6,4.6c-0.3,0.4-0.7,0.5-1.2,0.5    c-0.4,0-0.9-0.2-1.4-0.5l-0.2-0.1l-0.1-0.2c0,0-0.3-0.7-2-0.7c-1.4,0-3.2,0.5-5.5,1.4c-3,5.1-10.3,18.4-9.6,21.4    c0,0.1,0.1,0.2,0.1,0.2c0.4,0,3-0.8,10.3-13l1,0.5c-2.6,6.4-8.6,24-6.2,27.8l0.1,0.2l-0.1,0.2c0,0.1-3.4,10.4-0.1,15l0.1,0.2    l0,0.2c-0.1,2.6,0,9.8,1.5,11.3c0.2,0.2,0.3,0.2,0.4,0.2c0.1,0,0.2,0,0.4-0.1l0.6-0.3l0.2,0.7c0,0.1,1.4,6.1,4.9,6.1    c1.7,0,4.5-1.4,8.7-8.1l0.1-0.1l0.1-0.1c0.1,0,7.8-4.1-2.5-26.2l0-0.1l0-0.1c-0.1-0.3-1.3-8.1,1.7-16.4c-0.2-0.6-0.7-2.5,0-3.6    c0.2-0.3,0.7-0.7,1.6-0.7c0,0,0.1,0,0.1,0c-0.2-0.6-0.4-1.3-0.2-2.1c0.4-1.2,1.5-2.2,3.5-2.9l1.7-3.3l1,0.2v7.1    c1.1-0.7,2.9-2.6,2-7.4l-0.1-0.5l0.4-0.2c2.3-0.8,4.7-2.2,4.7-3c0-0.3-0.4-0.6-1.2-0.8l-0.3-0.1l0-0.3c0-0.3-0.3-2.8,0.9-4    c0.4-0.5,1-0.7,1.6-0.7c1.1,0,2.4,0.7,4.1,2c0.3-0.4,0.8-0.7,1.6-0.7c1.4,0,3.3,1.1,5.9,3.3c0.5,0,1.9,0.2,3.1,0.2    c1.1,0,1.6-0.1,1.8-0.2l0.3-0.1l0.2,0.3c0.1,0.1,2.3,2.6,1.8,4.8c-0.2,0.9-0.8,1.6-1.7,2.1c0,0.6,0,2.3,1.5,3.1l0.1,0.1l0.1,0.1    c0.1,0.2,3.2,5.6,0,9l-1.4,4.6l-0.4,0c0,0-2.3,0.3-2.9,1.9c-0.5,1.2,0.1,2.9,1.8,5c0.5-0.2,2.6-1.2,6.4-7.7l0.1-0.1l0.1-0.1    c0.1-0.1,2.1-1.2,4.1-1.2c1.1,0,2,0.3,2.6,1c0.9,0.9,1.3,2.5,1.2,4.6c0.5,2.7,2.1,9.9,3.8,11.6l0.1,0.1l0,0.1    c0.2,0.5,1.9,4.9,0.9,7.1c-0.3,0.6-0.7,0.9-1.2,1.1l-0.6,0.2l-0.1-0.6c-0.2-0.9-0.6-1.6-0.8-1.7c0,0-0.7,0.1-1.7,3.5l-0.1,0.2    l-0.2,0.1c-0.2,0.1-4.5,3.3-2.5,7.3l0.3,0.6l-0.6,0.2c-0.1,0-2.6,0.8-2.7,4.6l3.2,3.2l4.9-0.9l2,2.6c1.7-0.8,8-3.5,11.7-3.5    c0.3,0,0.6,0,0.8,0.1c1-1.8,5.4-9.2,11.8-9.2c0.1,0,0.2,0,0.3,0c4.1-2.9,8.5-6.3,8.9-7.1c0.1-0.4,0.6-1,3-3    c2.6-2.2,7.9-6.9,7.6-8.4c0-0.1,0-0.2-0.5-0.3l-0.1,0l-0.1-0.1c-0.5-0.5-4.8-4.7-3.6-7.6c0.6-1.6,2.6-2.3,6-2.3    c0.9,0,2,0.1,3.2,0.2c0.7-0.4,3.2-1.9,6.2-1.9c1.9,0,3.5,0.6,5,1.7c0.8-0.8,2.7-2.3,6-2.3c0.7,0,1.3,0.1,2,0.2    c0.3-1.7,1.5-6.2,5.1-6.2c0.4,0,0.8,0.1,1.2,0.2c0.4,0.1,0.8,0.2,1.1,0.2c0.6,0,0.7-0.3,0.8-0.4c0.4-1.1-1.3-3.8-2.3-4.6l-0.2-0.2    l0-0.3c0-0.1,0.3-3.6-3.2-4.7l-0.8-0.3l0.5-0.6c0.1-0.1,9.6-11,11.8-14.9c0.2-0.6,1.9-4.2,10.3-4.2c0.5,0,1.1,0,1.7,0    c0.4-1,1.9-3,8.3-3.7l21.5-4.3c-0.1-1.3-0.3-4.7,1-6.3c0.5-0.5,1.1-0.8,1.8-0.8c0.7,0,1.5,0.3,2.3,0.8h2    c0.1-2.3,0.7-11.2,5.6-13.2l0,0l0.1,0c0.3-0.1,0.7-0.2,0.7-0.3c0,0,0,0,0,0c0,0-0.4-0.8-4.8-2.1l-0.4-0.1v-0.4    c0-0.2,0-5.5,2.9-5.8c0.3-0.6,1-2.4-0.6-5.4l-0.1-0.2l0.1-0.2c0.6-2.4,3.7-14.5,6.1-15.4c0.3-0.1,0.5-0.2,0.7-0.2    c0.3,0,0.5,0.1,0.6,0.2c0.2,0.3,0.2,0.6,0.2,0.9c0,0.7-0.1,2,3.5,2.5c1.5-0.7,4-2.1,4.2-3.3c0.1-0.3,0-0.5-0.2-0.7l0.7-0.8    l8.2,4.1l6.1,22.2c0.4-0.1,1.1-0.3,1.8-0.3c1.8,0,4.9,1,5.5,7.6c0,0.3,0.1,0.6,0.5,0.6c0.3,0,1.1-0.2,2.6-1.4l0.3-0.2l0.3,0.2    c0.1,0.1,2.1,1.4,2.5,4.1c0.3,2.1-0.5,4.5-2.4,6.9l0,0l-7.1,5.7l-0.3-0.4c0,0,0,0,0,0c0,0-0.2-0.2-0.8-0.2c-0.8,0-2.6,0.5-5.9,3.8    l-0.5,0.5l-0.3-0.7c-0.3-0.6-1-1.5-1.4-1.5c-0.2,0-1.5,0.2-2,8.5l0,0.4l-0.4,0.1c0,0-3.9,1-3.6,3.2l0,0.3l-0.2,0.2    c-0.1,0.1-2.2,2.6-5.6,2.6c-0.3,0-0.6,0-0.9-0.1c-0.3,2.7-1.5,12.6-3.3,15c-0.2,0.4-1.4,3.3,0.8,6.1l0.2,0.3l-0.1,0.3    c-0.7,1.7-1.6,4.8-0.9,5.9c0.1,0.2,0.4,0.4,1,0.4c0.3,0,0.6-0.1,1-0.2c0,0,0.2-0.1,0.4-0.1c1,0,3.1,0.8,5.9,6.4l0,0.1l0,0.1    c0,0.1,0.2,0.7,1.1,0.7c0.8,0,2.3-0.4,5-2.6l0.7-0.5l1,4.3l-0.6,0.1c-2.5,0.2-6.7,1.2-7.1,2.9l-0.4,1.5l-0.6-1.4    c-0.3-0.6-1.1-1.9-1.7-1.9c-0.2,0-1.1,0.2-2,3.3l0,0.2l-0.1,0.1c-0.3,0.3-3,2.5-4.8,2.5c-0.2,0-0.3,0-0.5-0.1    c-0.4,0.4-1.3,1.4-1.8,2.4l-0.1,0.2l-0.2,0.1c-0.8,0.3-7.7,3.3-9.6,3.3c-0.1,0-0.2,0-0.2,0c-1,0.3-8.4,2.4-13.7,8.5    c-0.6,1.1-1.1,2.4-1.3,3c0.3-0.2,0.8-0.6,1.7-1.4c0.2-0.5,1.2-2.3,4.8-2.3c0.3,0,0.7,0,1,0c3.6-1.2,8.6-3.6,8.9-5l0.1-0.5l4.5,0.6    l-0.6,0.7c-0.4,0.5-10.3,13.2-22.5,13.5c-0.8,0.3-1.6,0.9-1.6,1.1c0,0,0,0,0,0c0,0,0.3,0.4,2.6,0.6l0.4,0l0.9,9.8    c0,0.5-0.9,10.3-4.6,13c-0.2,1.4-0.9,5.6-2.8,6.1l-0.6,0.1l-0.7-4.7c-1.2-0.1-4.6-0.6-8.9-3.8c0.4,1,1,2.1,1.9,2.9l0.1,0.1    l0.1,0.1c1.6,3.3,4.9,8.5,6.7,8.6l0.3,0l1.5,3.9l-0.2,8.5l-0.3,0.2c-0.2,0.1-4.5,2.5-4.1,8.4c0,0.7,0.4,6.4-1.3,8.2    c-0.3,0.4-0.7,0.5-1.2,0.5c-0.5,0-1-0.2-1.5-0.6l-0.2-0.1l0-0.2c-0.2-1.5-0.9-9.3,0.7-11c0.2-0.2,0.4-0.4,0.6-0.4    c0.3-0.5,0.7-1.5,0.5-2.2c-0.2-0.4-0.7-0.8-1.5-0.9l-0.6-0.1l0.1-0.6c0,0,0.3-1.1-0.4-2c-0.6-0.7-1.7-1.1-3.2-1.1    c-0.4,0-0.8,0-1.2,0.1c0,0,0,0,0,0c0,0-0.1,0-0.4,0c-0.9,0-3-0.5-3.9-4.8l-0.1-0.5l0.5-0.1c0.8-0.2,1.5-0.7,1.5-1    c0,0,0-0.4-1.6-1.1l-0.2-0.1l-1.1-2.2l2-0.3c-0.1-1.5-0.5-4-1.5-4.2l-0.7-0.1l0.3-0.6c1-2,1.7-4.1,1.8-4.9    c-0.2,0.1-0.6,0.4-1.3,1.1l-0.1,0.1l-0.1,0c-0.3,0.1-2.7,0.9-1.8,4.1c0.3,2,1,6.5,0.1,7.5c-0.1,0.1-0.2,0.2-0.3,0.2    c0.1,1.6,0.7,4.2,2.3,4.5l0.5,0.1l-0.1,0.5c0,0.1-1,7.7,4.1,8.8l0.5,0.1l-0.1,0.5c0,0-0.6,4.2,1,7.5l0.5,1l-1.1-0.3    c0,0-0.3-0.1-0.7-0.1c-0.2,0-0.7,0-0.8,0.3c-0.1,0.2-0.3,1.3,3.5,5.4l0.1,0.2v0.2c0,0.6-0.4,1.6-1.6,1.6c-0.7,0-1.6-0.4-2.8-1.2    l-0.1-0.1l-0.1-0.1c-1.5-2-3.2-3.8-3.9-4.1c0,0.1,0,0.3,0,0.6c1.8,2.5,5,6.3,6.6,6.9c0.5-1,2-3.4,4.2-3.4c0.4,0,0.9,0.1,1.3,0.3    l0.2,0.1l6.6,12.8c0.1,0.1,0.3,0.6,0.1,1.1c-0.1,0.1-0.3,0.4-0.8,0.4c-0.4,0-1.2-0.2-3.6-1.6l-0.1,0l0-0.1c0,0,0,0,0,0    c0,0-0.1,0-0.3,0c-0.5,0-1.6,0.2-3.8,1.7c-2.1,1.4-4,2.9-4.5,3.5c0.1,0,0.1,0,0.2,0c0.8,0,2.4-0.3,4.6-1c0.6-0.5,2.2-1.8,3.2-1.8    c0.4,0,0.7,0.2,0.8,0.5l0.1,0.2l0,0.2c0,0.2,0,0.4,0.1,0.5c0,0,0.1,0,0.1,0c0.2,0,0.7-0.1,2-1.1l0.4-0.3l0.3,0.3    c0.1,0.1,2.9,2.6,2.7,5c0,0.9-0.5,1.6-1.3,2.2l-0.1,0.1l-0.1,0c0,0-1.5,0.4-2.8,5.1L736,443l-0.3,0.1c-0.1,0-2.4,0.5-4.2,0.5    c-0.3,0-0.6,0-0.8,0c0.6,1.3,1.2,3.5,0.3,5.4c1.2,0.3,3.4,1.2,3.6,2.6c0.2,1.1-0.5,2.1-2.2,3.2l-0.1,0.1l-0.1,0    c-0.1,0-8.5,0.7-12.6,7.6l0,0.1l-0.1,0.1c0,0-4.8,4-3.9,9.1l0.1,0.6l-0.6,0c-3.1,0.1-7.8,0.8-8.2,2l0,0.1l-0.1,0.1    c-0.1,0.1-7.4,6.6-6.4,11.5l0.1,0.7h-0.7c-0.2,0.1-0.8,0.9-0.5,4l0.1,0.7l-0.7-0.2c0,0-0.2,0-0.6,0c-1.3,0-2.9,0.6-3.1,3.5l0,0.3    l-0.3,0.1c-0.9,0.4-3.4,1.9-3.4,3.2v0.4l-0.3,0.1c-1.6,0.6-3.8,2-3.6,2.8l0.2,0.7h-2.2c0.1,0.4,0.2,0.8,0.2,1.4    c-0.1,2-1.7,4.3-4.8,6.7c-0.4,0.7-3.3,6-4.7,14.3l0,0.1l0,0.1c0,0.1-2.7,6.1,2.2,18.3c0.1,0.2,7.2,18.6,11.7,21.1l0.1,0l0.1,0    c0.1,0.1,3.5,3.3,5.1,5.5l0.4,0.5l-0.6,0.3c0,0-2,1.3,1.5,8c0.5,0.7,12.7,18,11.8,23.6c-0.3,3.9-0.5,10.6,0.5,11.8l0.4,0.5    l-0.5,0.3c-0.1,0.1-3.1,2.1-1.9,6.8l0.1,0.2l-0.1,0.2c-0.1,0.2-2.8,4.1-7.1,5l-0.2,0l-0.2-0.1c0,0-0.7-0.3-1.5-0.3    c-0.9,0-1.3,0.4-1.5,1.2l-0.1,0.4c0,0-0.4,0-0.4,0c-0.4,0-1.3-0.1-2-0.9c-0.9-1-1.3-2.7-1.2-5c-1-2-3.9-6.7-6.3-6.7    c-0.1,0-0.3,0-0.4,0c-0.2,0.4-0.6,0.8-1.3,0.8c-1.2,0-2.7-1.5-4.6-4.5l-0.1-0.2l0-0.2c0-0.1,0.3-3.5-3.8-5.1l-0.4-0.2l0.1-0.4    c0.5-3.2,0.5-6.3,0-6.6c0,0-0.6,0.1-2.2,2.9l-0.4,0.6l-0.5-0.5c-5.7-6.2-8.6-9.7-8.6-10.4v-1.1l0.2-0.2c2.7-2.4,4.9-5,4.8-5.7    c-1.4-0.7-3.7-1.6-4.7-1.7c0.1,0.2,0.2,0.5,0.4,0.7c0.6,1,1.5,2.6,0.3,4.3l-0.4,0.5l-0.5-0.4c-0.2-0.2-4.6-4.2-3.4-10.7    c0.8-2.4,2.2-8.8,0.1-10.9c-0.6-0.1-1.7-0.6-2.6-3.2c-0.6-0.2-2.3-0.9-3.6-0.9c-0.3,0-0.8,0-0.9,0.3l-1,1.8l0-2.1    c0-1.2-0.3-3.1-1.1-3.2c-0.2,0-2.4-0.7-3.4-3.8c-0.8-0.2-3-1.1-5.1-3.9c-1.9-0.3-4-0.8-4.6-1.7c-1.1,0-4.5,0.3-5.6,3.8l0,0l0,0    c-0.1,0.2-3.3,5.7-12,6.2l-1.2,0.1l0.8-1c0,0,0.5-0.6,0.2-1.6c-0.3-1.1-1.7-2.8-6.3-4.6c-0.1-0.1-6.3-3.2-9-3.2    c-0.1,0-1.3-0.1-3.2-0.1c-3.6,0-8.9,0.4-13.4,2.3l-0.1,0l-0.1,0c-2.7,0.5-5.9,1.3-6.5,1.8l-0.1,0.1l-1-0.3c0-0.1,0-0.3,0.2-0.5    c0.6-1.2,1-2.9,0.5-3.8c-0.6-1.3-1.7-3.1-2.6-3.1c-0.3,0-1.3,0.4-2.1,5.1l-0.1,0.4l-4.1,0.2v1.3l-4.9,0.5l-0.1-0.5    c0-0.1-0.3-1.2-1.5-1.2c-0.8,0-1.7,0.4-2.9,1.1l-0.4,0.2l-0.3-0.3c0,0-0.6-0.6-1.6-0.6c-1.5,0-3,1.4-4.5,4l-0.1,0.1l-0.1,0.1    c-1.6,0.8-4.2,2.6-4.2,3.8c0,0.4,0.3,0.8,1,1.1l0,0l0,0c0,0,0.5,0.4,1.1,0.4c1.3,0,2-1.8,2.3-3.4l0.1-0.5l0.5,0    c0.1,0,1.6,0.1,2.4,1.3c0.6,0.8,0.7,2,0.3,3.3l-0.1,0.2l-0.2,0.1c-0.3,0.1-2.4,1.4-3.6,1.6c-0.3,0.7-0.9,2-0.5,2.8    c0.2,0.4,0.6,0.7,1.2,0.9c1.1,0.1,6.8,1,7.7,3.3c0.4,0.4,1.3,1.5,0.9,2.5c-0.3,0.7-1.1,1.1-2.6,1.1c-0.4,0-0.9,0-1.4-0.1l-0.3,0    l-0.1-0.2c0,0-2.3-3.5-5.7-3.5c-0.2,0-0.4,0-0.6,0l-0.4,0l-0.2-0.4c-0.2-0.5-0.9-1.7-1.7-2.2l-2.2,1.2c0.2,1.1,0.4,3.5-0.5,4.5    c-0.3,0.3-0.7,0.5-1.1,0.5c-0.6,0-1.2-0.3-2-1l-0.1-0.1l-0.1-0.1c-0.2-0.4-0.8-1.1-1.2-1.1c-0.3,0-0.7,0.4-0.9,0.7l-0.2,0.3    l-0.3,0l-0.1,0c-0.8,0-2.8,0.2-2.8,2.3v0.3l-0.3,0.2c0,0-0.9,0.5-2.3,0.5c-1.3,0-3.2-0.4-5.5-2.3l-0.3-0.2l0.1-0.3    c0,0,0.5-2.2-0.6-3.7c-0.7-0.9-1.9-1.3-3.6-1.3c-0.1,0-0.8,0-0.8,0l-0.1-0.5c0-0.1-0.4-2.8-2.5-2.8c-0.7,0-1.5,0.3-2.4,0.8    l-0.3,0.2l-0.3-0.3c-0.6-0.5-1.8-1.4-2.4-1.4c-0.2,0-0.2,0.1-0.3,0.1c-0.1,0.2-0.5,0.9,0.3,3.8l0.2,0.7l-0.7,0l-0.5,0    c-2.7,0-11.8-0.2-14.8-3.1c-0.4-0.1-1.7-0.4-3.7-0.4c-4.3,0-11.3,1.1-20.4,6.4l0.7,2l-0.4,0.2c-0.1,0-6,3.3-9,7.7l-0.1,0.1    l-0.2,0.1c-5.1,2-13.1,5.4-14.1,6.8l0,0l0,0c-1.8,1.5-7.5,6.2-9.3,6.4c-1.5,1.3-14.8,14-5.8,34.3l0.1,0.2l-0.1,0.2    C441.6,631.7,440.4,634.3,438,634.3z M111,375.9c0.3-0.8,0.5-1.8,0.3-2.2c0,0-0.1-0.1-0.4-0.1c-0.4,0-1.1,0.2-2.4,0.9l-0.3,0.8    L111,375.9z"></path></g></g><g class="st0"><line class="st2" x1="289.4" y1="359.4" x2="267.4" y2="525.1"></line><path class="st2" d="M524,272c0,0,2.3,0.8,2.6,1.8c0,0,0.9,2.4,3.5,2.5l7.3,1.7l2.9,0.5l2.8,1.6l9.3,1.3c0,0-1.8,2.7,4.7,3.1l1,8.8   l2,1.8"></path><polyline class="st2" points="525.8,341.9 535.7,341.6 544,341.2 552.8,340.7 562.1,340.3  "></polyline><path class="st2" d="M576.4,350.8c0,0,4.4,0.4,9.4-0.6h5.2l4.5-0.7l6.1,0.7l4.8-0.7l4-0.8l4.3-0.8l4.3-0.8"></path><path class="st2" d="M566.7,353v12.2l1.9,9.6V385l1.3,10.2c0,0-1.1,3.5,1,5.6c0,0,1.3,5.4-0.8,6.4c0,0-1.6,6.9-3.4,6.5l-0.8,7.8   c0,0-2.6,1.8-1.4,3.8c0.2,0.3,0.4,0.6,0.8,0.8c2.7,2.2-2.1,1.8-2.1,1.8s-4.6,0.2-2.4,4.6l-0.2,2.7c0,0-7.7-5.6-9.4,0.9"></path><path class="st2" d="M566.4,419.5l6.9-1.3l2.4,1.5l2.4,1c0,0,3.2-8,5.7-1.1c0,0,3.5,1.3,2.4-4.1l2.4-2.1v1.9l4.8,0.3v-3.3l5.9-5.9   l0.6-4.5c0,0,8.8-0.2,6.5-4.8l-0.6-7l-1.3-9.4l-0.6-10.2l-1.3-8.6l-1.6-6.2l0.5-5.3"></path><path class="st2" d="M606.4,394.6c0,0,7.9-2.3,8.5,4.1h5.3c0,0,0,4.9,3.8,0.6l3.2-0.2c0,0-0.3,4.3,3.4-1.5c0,0,3.8-3.1,3.2,3.5   c0,0,6.7,3.8,6.9-1.4l1.8-0.5c0,0-1.3-11.8,3.5-6.2c0,0,2.7,1.3,1.1-3.4c0,0-1.6-1.6,1.9-4.9c0,0-0.3-3.2,2.7,0   c0,0,2.3-2.5,5.3-7.3l0.1-9.6l1.7-5.3l-0.8-6.2l-1-7.3l-1.3-7.9l-0.8-4.1"></path><path class="st2" d="M637,402.5v5l3,1.5v2.3c0,0,3.8,5.3,6.4,5.7c0,0,2.4,4.5,6.7,4.9c0,0,4.9-5.1,5.6-1.4c0,0,3.4,2.4,4.8-4.5   c0,0,4.2,0.3,6.1-2.1c0,0,1.9-0.6,0.8-3.8c-1.1-3.2,0.4-1.2,0.4-1.2l1.9-6.6l2.6-4.7c0,0-0.5-9.4,3.5-1.6h3l1-7.3h2.9v-2.1l2.1-1.4   c0,0,0.6-5.3,2.2-4.1l1-4.5l7,3.4l1-2.6v-2.6c0,0-4.8-3-6.9-3.2c0,0-4,0.5-3.5,2.7l-4-0.5l-2.1,3.4h-2.6l-3,4.3l-1.9,0.2l-0.5-7.5"></path><polyline class="st2" points="629.8,435.6 637,430.4 637,426.4 646.4,417.1  "></polyline><path class="st2" d="M698.8,375.8c0,0,3.3-0.8,4.1,4.5c0,0,7.5-0.8,6.2,6c0,0-5.3,3.9,1.3,6.5l8.8,1.3"></path><path class="st2" d="M658.4,363.3l2.8,12.4l18.4-2.5l12.6-3.2l11.9-2l11.5-2.6l6.1-1c0,0,5.6,18.4,5.6,20.7l9.6-1"></path><path class="st2" d="M663.7,331v5.3l9.8-2.7L687,331l8.7-1.7l10-1.7l7.6-1.6c0,0,7.4-2.9,7.9,0.8l1.8-0.1c0,0,0.5,5.7,5.6,6.1   l2.9,1.2c0,0,5.6,2.7,9.8,3"></path><path class="st2" d="M729.7,333.3l-2,6.3l-1.4,2.2c0,0,2.1,2.1,0,3.1c0,0-1.2,0.8,0,3.4h2.5c0,0-1.7,3.1,3.6,5.1c0,0,4.1,0,0,3.6   c0,0-2.9,4-3.5,4.1c-0.6,0.1-3,3.4-3.1,4.4"></path><path class="st2" d="M731.8,267.5c0,0,0.5,10.8,2.4,10.8c0,0,0.6,3.9,0,6c0,0,1.2,4.8,2.7,5.3c0,0-1.9,3.9,2.4,4.6l3.2,11.7   l7.3-1.6v-3.7l1.1-3.7l-1.1-1.8l1.1-10.1v-6.2v-2.5c0,0,6.7-5.7,3-8.7l-1.1-6.4"></path><path class="st2" d="M757.3,255.8l4.8,15.1l3.7,12.5c0,0,0.5,8.6,4.1,6.8v2.5h3"></path><path class="st2" d="M772.9,296.7c0,0-4.6-1.1-6.4,3.4v1.8l-16.5,2.3"></path><path class="st2" d="M742.6,305.9l-0.1,12.8c0,0,2.9,14.1,1,17.2"></path><path class="st2" d="M742.5,318.6l25.8-6.1c0,0,3.6,5.6,5.9,7.7"></path><path class="st2" d="M763.4,313.7c0,0,2.8,8.7,1.6,12.7"></path><path class="st2" d="M479.2,498.2c0,0,7.5-2,7.5,1.6c0,0-0.7,19.8,0,21.8c0,0-0.9,7.1,3.1,7.9c0,0,2,4,1.1,4.6c0,0,4.9,4.4,3.7,9.3   c0,0,0,7.1-2.9,8.6c-2.9,1.5-0.9,1.8-0.9,1.8s3.7,2.9,0.7,7.9l-0.7,4"></path><path class="st2" d="M487,508.6c0,0,41.1-2,41.4,0v-5.3c0,0-2-6.8-1.1-11.7c0,0,6.6-1.8,3.3-3.5c0,0,0.4-6.4,4.2-4.4   c0,0,2-2.6,0-4.6c0,0-0.1-6.4,3.2-2.8c3.3,3.5,0.8-1.5,0.8-1.5l-0.4-3.6h28.7l2.4,1.5v14.1l-1.1,19.6l-0.2,18.3   c0,0,3.7,20.5,2.4,24.3"></path><path class="st2" d="M527.1,508.1c0,0,0.9,8.4,2.7,9.1l1.2,3.5h-1.8l0.6,2.6c0,0-7.2,7.9-6.5,19.4l26.2-1.3c0,0-1.5,8.2,2.2,9.3   l2,4.4"></path><path class="st2" d="M476.9,448.5l61.6-1.6c0,0,3.3,1.5,0,4.6l-2,3.7l8.1-0.5l-1,3.6l-0.2,4.4l-3.3,1.3c0,0,2.2,4.6,0.8,7.1"></path><path class="st2" d="M544.6,454.8c0,0,3.8-4.3,3-9.7c0,0,18.6,0,19.7-1.1v-3.4c0,0,19.1-0.7,22.7-1.8h12.4c0,0,12.7-2.2,16.3-1.8   c0,0,15.5-1.9,16.5-2l15-1.8c0,0,4.2-5.4,3.8,3.1c0,0-2.2-1.3-4.2,5.5c0,0-3.5-3.1-5,2.8c0,0-1.9,1-2.2-1.9l-3.4,2.7v3.3l-4.4,1.4   c0,0-1.1,2.7-5,3.4c0,0-4.3,2.9-4.2,3.1c0,0,1.4,1.8-3.7,4.2l-0.3,3.9l-17.4,1.9l-14.4,1.6l-18.2,1.5l-4.6,1.3"></path><path class="st2" d="M603.8,467.6l9.9,35.1l3.1,6.2v3.3c0,0,4.2-2.4,0.5,3.9c0,0-1,7.1,0.6,8.9l0.1,4.4c0,0,0.7,3.5,2.1,5.7   l-38.2,3.4v2.8l3.1,2.2l0.2,6.9"></path><path class="st2" d="M620.1,535l3.3,3.5l38.8-1.9v3.1h2.8l0.5-4.2c0,0-4.6-4.6,1.2-3.9l6.4,0.7"></path><path class="st2" d="M621.7,463.7l16.5-1.2c0,0-8.1,6.6,4.8,8.6l2.7,4.9c0,0,3.3,5,6.9,5.1c0,0,1.7,4.1,5.9,5.3   c0,0,1.2,4.7,6.6,6.3c0,0,2.8,3.3,3.4,6.6c0.1,0.3,0.1,0.6,0.1,0.9l2.9,0.9c0,0,3.6,2.3,2.4,7.7h4.8"></path><path class="st2" d="M638.2,462.5c0,0,9.9-6.3,11.7-5.4l11.9-0.1c0,0,7.8-2.2,9.8,3.6c0,0,12.5-2.6,14.9-1.7c0,0,16.4,9,18.2,12.2"></path><path class="st2" d="M653.8,433c0,0,69.7-9.7,78.8-14.7"></path><path class="st2" d="M503.3,271.1v11.6c0,0-6.8-0.6-7.4,8.7c0,0,4.9,0.4,2.5,5.1c0,0-1.5,6.6-0.2,9.3c0,0,5.9,1.9,7,4.7   c0,0,3.6,1.1,4.2,3.8l7.6,5.1l0.9,6.8h-17.3l-29.6,1.5l-18.2-0.2"></path><path class="st2" d="M451.8,345.1l2.6,7.7c0,0,3.1,4,2.3,6.3c0,0,2.5,2.5,2.5,7.4l1.5,10.2c0,0,1.3,5.9,2.5,5.7l1.6,5.7"></path><path class="st2" d="M461,377.7l52.8-1.8c0,0,6.8,8.7,4.9,0h2.8v-3.8c0,0,4.4-2.5,0-7.2c0,0-2.5-3.4,4-4.7c0,0,5.1,1.3,7-7.8   c0,0,1.9-3-3.4-5.1c0,0-0.6-3.8-3.8-4.4c0,0,1.3-2.8-4.2-3.6l-3.4-3.2l0.9-4.5c0,0,3.2-0.4-0.9-5.3"></path><path class="st2" d="M362.5,437.3l-6.1,84.8c0,0-45.6-1.1-48-3.5c0,0-8.3-3.5-3.7,5"></path><path class="st2" d="M378.2,385.9l86.6,2.2c0,0,1.5,3.2,5.6,2.3c0,0,4.4-1.6,1.1,4.4c0,0-1.5,6,4.6,7l1.3,38.5l-102.4-2.5"></path><path class="st2" d="M361.9,445.5l41.4,1.3c0,0-0.7,32.8-1.6,33.7c0,0,5.3,7.3,6.7,3.4c0,0,1-1.4,1,1c0,0,1.8,1.3,1.8-1.8   c0,0,2.1-1.8,2.1,4.6c0,0,10,0.5,10,2.5c0,0,1.3,3.1,1.3-1.3c0,0,1-1.6,1.1,0.8c0,0.1,0,0.2,0,0.3l2.1-0.2c0,0-0.6,2.2,2.3,2.3v0.2   c0,0-1.5,2.3,2.3,2.3c0,0,2,0,2-2l2.4,0.7c0,0,7.9,8.4,7.9,0.2c0,0,1.6-2.4,1.6,1.6l3.6,0c0,0,4.1,3,7.1,0l5.2-0.8c0,0,1-2.6,3.7,0   h3c0,0-1-5.3,4.3,0c0,0,6.8,9.6,6.8,0v-30.2l-3.2-16.5l0.8-7.4"></path><path class="st2" d="M219.2,207.3c0,0-11.5,43.4-10.2,47.1c0,0,0.2,6.1,3.4,7.6c0,0,2,3.1-0.7,5c0,0-4.5,6-5.3,6.8   c0,0,0.7,3.5-2,3.6c0,0-6.3,3.8-4.3,7.3c0,0-3.6,1.2,2.6,3l-9.8,36c0,0-83.8-18.5-88.4-22.6"></path><path class="st2" d="M198.6,448.2"></path><path class="st2" d="M193,323.6c0,0,64.5,15,74.3,14.6"></path><path class="st2" d="M156.6,315.6l-12.8,50.9l54.8,81.9c0,0,0.5,0.2,4.3-18c0,0,11.4,10.5,6.5-1.9l20.6-96.4"></path><path class="st2" d="M128.7,232.8c0,0,3.6-1,6,0c0,0-0.7,2.1,3.1,2.8c0,0,5.3,2.3,1.5,9.3c0,0,1.8,4.3,8.9,4.2c0.3,0,0.5,0,0.8,0   c0,0,0.7-3,4.1-0.8c0,0,5.1,1,6.9,3.1c0,0,4.3-1.2,6.8,0c0,0,1.5,1.3,5.8,0c0,0,8.9-0.5,10.4,0.6c0,0,8.8-0.4,9.8,1.7l16.7,3.3"></path><path class="st2" d="M230.2,209.5c0,0-2.6,15-3.3,16.5c0,0,4,1.8,1.7,9.6c0,0,1.2,3.8,3.6,4.5c0,0,2.8,8.9,5.8,10.7   c0,0,7.3,2.5,2,6.1c0,0-6.6,13.6-1.5,15.7c0,0,8.1-8.9,5.5,2.5c0,0,1.8,9.6,5,11.1c0,0,2.6-1.3,2.3,6.9c0,0-0.5,3.5,3-0.8   c0,0,3.6,1,7.1,0.3c0,0,3.3-0.2,5.5,1.8c0,0,5.1-8.9,7.8,2l1.2-9.1l84.3,10.2c0,0,1.8-10.2,2.3-15.4c0,0,1-13.9,1.1-17.9   c0-0.4,0-0.7,0-0.8c0-2,3.8-30.6,3-33.9"></path><path class="st2" d="M360,297.6c0,0-5.5,67.4-5.6,68.8c-0.2,1.3-90.1-10.6-90.1-10.6l10.2-58.2"></path><path class="st2" d="M444.1,233c0,0,3.3,3.6,1.2,8.1c0,0-0.3,11.1,1.7,12.5c0,0,1.8,0.9,1.3,9.8c0,0,0,7.9,1.8,11.7   c1.8,3.8,0,0.8,0,0.8s3.8,4.6,0.8,10.1l-88.6-3.8"></path><path class="st2" d="M357.2,332l59,3.5h11.1l4.3,3.8c0,0-0.7,2.8,5.5,0c0,0,4.1,0.7,4.8-0.7c0,0,3.6,3.3,6.4,3.5c0,0,7.6,6.8,3,0   c0,0,2.2-7.1,1.5-9.1c0,0-2.8-1-2-5.5h2.1V296c0,0-9.7-5.8-2-7.4l0-2.5"></path><path class="st2" d="M214.1,416.5c0,0,61.9,11.5,66.1,11.1c0,0,74.6,11.5,94.8,10.3c0,0,3.2-29.2,2-35.7   c-0.5-5.2,2.9-30.2,2.3-33.8l-25.1-2.1"></path><path class="st2" d="M517.3,379.4c0.5,2.6,0,7,0,7s0.3,4.3,3.1,5.6l6.8,6.6c0,0,3-0.3,1.7,6.1h6.9c0,0,1.2,5.1-2.1,11.4l6.7,6.8   l4.2,0.5c0,0,4.1,6.4,2.1,8.2c0,0,0,6.7,4.6,4.8c0,0,1.7-0.1,1.2,2.8l-0.5,3.8h-2.5l0.1,2.2"></path><path class="st2" d="M198.7,448.4c0,0,1.1,9.1,2.8,10.1c0,0,4.5,2.5,0,5.8c0,0-4.1,1.4-5.3,5.3c0,0,0.9,5.4-3.1,7.8v6.5   c0,0,8.9-2.2-3.4,7"></path></g></svg>