<svg width="97" height="60" xmlns="http://www.w3.org/2000/svg"><path d="M4.704.567l-.282 5.205-.563 1.893L2.54 11.26l-1.129 1.703v1.04l-.376.852.282 1.608-.47 1.325L0 19.018l.471 1.421L.19 22.71l1.317 3.028-.094 1.515.753 1.136-.471.946 1.318 2.839.188 2.082 1.693.756.752 1.136 1.318.285 1.317 1.986.283 1.988 2.727.379 1.976.094 3.011 2.271 3.575 1.893 2.163.474 3.387.379.19-.947 3.48.379.472.852 1.034.946.283.757 1.317 1.42.378 1.514.94.852 1.506.852.752-.756 1.036-1.136h1.785l1.505 1.419 1.13 2.84 1.223 1.134.093 1.325.847 1.515.658.379 1.036.284 1.317.19.94.284-.563-2.271.47-1.798 1.13-1.23 1.505-1.136 1.412-.757 1.506-1.23 1.411-.568 1.318-.19 1.787.38 1.6.095 1.41.85 1.13-.094.752-.756 1.223.946.377-.473-.94-.948-.189-1.04.846-.757 1.506-.095 1.223.095 1.035-.19 2.164-.379 1.881 1.136 1.694-.567.752-.38 1.412.758 1.41.946.472 3.029.47.946 1.224 1.325 1.318 1.798 1.693 1.23h1.034l.472-1.136v-1.892l-.658-1.988-.847-1.325-1.129-2.27-1.318-2.083-.658-1.892.094-1.608.564-1.515.94-1.042 1.035-1.135.847-1.23.472-1.23 1.504-.757.283-1.042.847-.851 1.6-.947-.472-.661-.376-.568 1.223-.189.189-.851-.564-1.042-.384-1.424-1.035-.757 1.13-.946.658-1.608-.094-1.325.376-1.23.563-1.42.378-.947-.847-1.136.847-.567 1.506-.378 1.128-1.042 1.036-1.325.94-1.04-1.035-1.42.471-.758-.564-.66.377-2.083 1.317-.757.377-1.23h.846L97 7.664l-1.317-.568-.283-.946-.658-.19-.94-2.934h-1.6l-.846-.283-.847 1.987.189 1.987-.564 1.514-.846.474-.192.567-5.269 1.515-1.412 1.702-.658.757-.282.947-3.763 1.23.376 1.514-1.787 1.798-1.599.38-1.787 1.702-1.506-.567.095-.757.846-1.04.188-2.556-1.034-3.501-1.976-.946-.659-.568-.564-.757-.658-.095-6.584-3.407-1.413 1.042-1.129-.474-1.223-.095-.94.473-.848-.661-.564.19-.94-1.231-1.412.662-1.223-.379s-.658-2.082-.658-1.798c0 .285-.376 1.04-.376 1.04l-6.586.19-4.422-.378-5.08-.284-5.176-.473-5.268-.948-4.61-.85-4.892-1.042-3.856-.85L7.153 0 7.06.946l-.282.756L4.704.567z" fill="#FFF" fill-rule="nonzero"/></svg>