<?xml version="1.0" encoding="utf-8"?>
<!-- Generator: Adobe Illustrator 23.0.6, SVG Export Plug-In . SVG Version: 6.00 Build 0)  -->
<svg version="1.1" xmlns="http://www.w3.org/2000/svg" xmlns:xlink="http://www.w3.org/1999/xlink" x="0px" y="0px"
	 viewBox="0 0 1966 648" style="enable-background:new 0 0 1966 648;" xml:space="preserve">
<style type="text/css">
	.st0{fill:#00B6CF;}
	.st1{fill:#C09C55;}
	.st2{fill:#FDB615;}
	.st3{fill:#5E54A4;}
	.st4{fill:#DF1C4D;}
	.st5{fill:#4C4D4D;}
	.st6{fill:#7D7D7D;}
	.st7{fill:#4F3613;}
	.st8{fill:#010101;}
	.st9{fill:#B1E1EB;}
	.st10{fill:#60CAE6;}
	.st11{clip-path:url(#SVGID_2_);fill:#FFFFFF;}
	.st12{clip-path:url(#SVGID_4_);fill:#FFFFFF;}
	.st13{clip-path:url(#SVGID_6_);fill:#FFFFFF;}
	.st14{clip-path:url(#SVGID_8_);fill:#FFFFFF;}
	.st15{clip-path:url(#SVGID_10_);fill:#FFFFFF;}
	.st16{clip-path:url(#SVGID_12_);fill:#FFFFFF;}
	.st17{clip-path:url(#SVGID_14_);fill:#FFFFFF;}
	.st18{clip-path:url(#SVGID_16_);fill:#FFFFFF;}
	.st19{clip-path:url(#SVGID_18_);fill:#FFFFFF;}
	.st20{fill:#FFFFFF;}
	.st21{clip-path:url(#SVGID_20_);fill:#4C4D4D;}
	.st22{fill:#CCCBCA;}
	.st23{fill:#1D2959;}
	.st24{fill:none;stroke:#000000;stroke-width:8;stroke-linecap:round;stroke-linejoin:round;stroke-miterlimit:10;}
	.st25{clip-path:url(#SVGID_22_);}
	.st26{fill:#F8971D;}
	.st27{clip-path:url(#SVGID_22_);fill:#DF1C4D;}
	.st28{clip-path:url(#SVGID_22_);fill:#5E54A4;}
	.st29{clip-path:url(#SVGID_24_);}
	.st30{clip-path:url(#SVGID_24_);fill:#F8971D;}
	.st31{fill:#2CBAA8;}
	.st32{clip-path:url(#SVGID_24_);fill:#DF1C4D;}
	.st33{fill:#009444;}
	.st34{fill:#8DC63F;}
	.st35{fill-rule:evenodd;clip-rule:evenodd;fill:#FDB615;}
	.st36{clip-path:url(#SVGID_26_);}
	.st37{clip-path:url(#SVGID_26_);fill:#00B6CF;}
	.st38{clip-path:url(#SVGID_28_);}
	.st39{clip-path:url(#SVGID_28_);fill:#FDB615;}
	.st40{fill:#00B6CF;stroke:#00B6CF;stroke-width:20;stroke-linecap:round;stroke-miterlimit:10;}
	.st41{fill:#F78F1E;}
	.st42{fill:none;stroke:#DF1C4D;stroke-miterlimit:10;}
	.st43{fill:#00A9BF;}
	.st44{fill:#058FB3;}
	.st45{fill:#FDF391;}
	.st46{fill:#C1D730;}
	.st47{fill:#FCEC13;}
	.st48{fill:#FBD81C;}
	.st49{fill:#11AE55;}
	.st50{fill:#0FA84C;}
	.st51{fill:#EC5283;}
	.st52{fill:#EF3F3B;}
	.st53{fill:#F04B39;}
	.st54{fill:#D9E25A;}
	.st55{fill:#F99D2B;}
	.st56{fill:#FCD502;}
	.st57{fill:#EE5963;}
	.st58{fill:#65CBE6;}
</style>
<g id="Layer_1">
	<rect x="-72" y="-70.9" class="st0" width="2103.6" height="784.4"/>
</g>
<g id="_x30_1_x5F_RUBBLE">
</g>
<g id="_x30_2_x5F_COUGHING">
</g>
<g id="_x30_3_x5F_THIRSTY">
</g>
<g id="_x30_4_x5F_HUNGRY">
</g>
<g id="_x30_5_x5F_FIRSTAID">
	<g transform="translate(300,300)">
		<path class="st4" d="M887.9-348.9c58.4,15.9,102.3,76.1,133.2,142.7c30.9,66.4,48.9,139.3,23.6,194.7
			c-25.5,55.4-94.3,93.2-138.8,161.6c-44.7,68.2-65,166.8-117.7,205.1c-52.7,38.2-137.7,15.9-188.6-37.9
			c-50.7-53.9-67.3-139.1-115.7-196.3c-48.4-57-128.8-85.7-178.8-145.6c-50.2-59.8-70-150.6-32.9-208.6
			c37-58.2,130.7-83.6,208.8-90.6c77.9-7,140,4.5,207.7-3.9C756.3-336.2,829.4-364.8,887.9-348.9z"/>
	</g>
	<path class="st2" d="M1302.2,496.2c-15.6-45.5,6.4-137,19.7-177.6c15.8-48.3,43.3-94.6,86.2-124.3c22.8-15.8,58-33.8,85.6-22.7
		c39.6,15.9,38.4,61.7,39.4,96.4c1.2,39.6,63.2,38.2,62.1-1.7c-2.7-90.4-41.1-179.6-149.4-155.2c-67.7,15.2-119.2,65-153.1,124.8
		c-6.6-34.2,2.8-86.2,9.4-106.7c14.1-44.3,46.1-79.6,94.7-79.1c39.9,0.5,41.5-61.6,1.7-62.1c-68-0.8-124.5,46.2-149.6,109
		c-17,42.5-29.7,113.2-15.1,164.8c-58.6-36.7-111.2-88.1-86.1-167.7c12.2-38.7-47.2-53.5-59.4-14.9c-17.7,56.1-6.2,111.3,24.2,158.2
		c27.9,42.9,63,66,104.8,88.9c-6.4,71.1,9.6,190.6,9.6,190.6c11.7,37.3,56.5,78.2,102.7,85.3c104.2,16,189.6-67.3,200-167.5
		c4.1-39.9-57.9-38-62.1,1.7c-3.7,36-20.4,69-52.7,89.1c-29.9,18.1-63.1,21.5-99.6,10.3"/>
	<polygon class="st2" points="1219.6,470.4 1092.4,474 1005.9,442.9 934.8,473.9 852.8,435.1 763.6,476.3 -74.8,482.5 -71.4,358.3 
		764,369.3 813,411.8 899.4,374.3 1007,416.2 1079.9,369.3 1220.4,372.2 	"/>
	<g>
		<polygon class="st8" points="894.8,306.2 862.3,169.3 822,205.4 785.2,107.6 764,117.3 816.5,232.9 850.5,197.9 889.9,308.2 		"/>
		<polygon class="st8" points="936.9,305.1 970.5,190.9 925.8,200.5 939.9,113.3 920.2,111.5 910.3,218.4 949.9,207 932.4,304.5 		
			"/>
		<polygon class="st8" points="768.9,294.2 706.2,233.8 693.7,248.8 774.7,316.8 787.6,278.3 856.8,347.1 859.8,343.8 786.2,252.6 
					"/>
	</g>
	<g>
		<polygon class="st8" points="939.4,503 972,639.9 1012.3,603.8 1049,701.6 1070.3,691.9 1017.7,576.3 983.8,611.3 944.4,501 		"/>
		<polygon class="st8" points="897.3,504.1 863.7,618.3 908.4,608.7 894.3,695.9 914,697.7 924,590.8 884.4,602.2 901.8,504.7 		"/>
	</g>
</g>
<g id="_x30_6_x5F_LOST_PET">
</g>
<g id="_x30_7_x5F_CHILLY">
</g>
<g id="_x30_8_x5F_CAUGHT_IN_CRACK">
</g>
<g id="_x30_9_x5F_WEATHER">
</g>
<g id="_x31_0_x5F_FIRES">
</g>
</svg>
