<?xml version="1.0" encoding="utf-8"?>
<!-- Generator: Adobe Illustrator 23.0.6, SVG Export Plug-In . SVG Version: 6.00 Build 0)  -->
<svg version="1.1" xmlns="http://www.w3.org/2000/svg" xmlns:xlink="http://www.w3.org/1999/xlink" x="0px" y="0px"
	 viewBox="0 0 1966 648" style="enable-background:new 0 0 1966 648;" xml:space="preserve">
<style type="text/css">
	.st0{fill:#00B6CF;}
	.st1{fill:#C09C55;}
	.st2{fill:#FDB615;}
	.st3{fill:#5E54A4;}
	.st4{fill:#DF1C4D;}
	.st5{fill:#4C4D4D;}
	.st6{fill:#7D7D7D;}
	.st7{fill:#4F3613;}
	.st8{fill:#010101;}
	.st9{fill:#B1E1EB;}
	.st10{fill:#60CAE6;}
	.st11{clip-path:url(#SVGID_2_);fill:#FFFFFF;}
	.st12{clip-path:url(#SVGID_4_);fill:#FFFFFF;}
	.st13{clip-path:url(#SVGID_6_);fill:#FFFFFF;}
	.st14{clip-path:url(#SVGID_8_);fill:#FFFFFF;}
	.st15{clip-path:url(#SVGID_10_);fill:#FFFFFF;}
	.st16{clip-path:url(#SVGID_12_);fill:#FFFFFF;}
	.st17{clip-path:url(#SVGID_14_);fill:#FFFFFF;}
	.st18{clip-path:url(#SVGID_16_);fill:#FFFFFF;}
	.st19{clip-path:url(#SVGID_18_);fill:#FFFFFF;}
	.st20{fill:#FFFFFF;}
	.st21{clip-path:url(#SVGID_20_);fill:#4C4D4D;}
	.st22{fill:#CCCBCA;}
	.st23{fill:#1D2959;}
	.st24{fill:none;stroke:#000000;stroke-width:8;stroke-linecap:round;stroke-linejoin:round;stroke-miterlimit:10;}
	.st25{clip-path:url(#SVGID_22_);}
	.st26{fill:#F8971D;}
	.st27{clip-path:url(#SVGID_22_);fill:#DF1C4D;}
	.st28{clip-path:url(#SVGID_22_);fill:#5E54A4;}
	.st29{clip-path:url(#SVGID_24_);}
	.st30{clip-path:url(#SVGID_24_);fill:#F8971D;}
	.st31{fill:#2CBAA8;}
	.st32{clip-path:url(#SVGID_24_);fill:#DF1C4D;}
	.st33{fill:#009444;}
	.st34{fill:#8DC63F;}
	.st35{fill-rule:evenodd;clip-rule:evenodd;fill:#FDB615;}
	.st36{clip-path:url(#SVGID_26_);}
	.st37{clip-path:url(#SVGID_26_);fill:#00B6CF;}
	.st38{clip-path:url(#SVGID_28_);}
	.st39{clip-path:url(#SVGID_28_);fill:#FDB615;}
	.st40{fill:#00B6CF;stroke:#00B6CF;stroke-width:20;stroke-linecap:round;stroke-miterlimit:10;}
	.st41{fill:#F78F1E;}
	.st42{fill:none;stroke:#DF1C4D;stroke-miterlimit:10;}
	.st43{fill:#00A9BF;}
	.st44{fill:#058FB3;}
	.st45{fill:#FDF391;}
	.st46{fill:#C1D730;}
	.st47{fill:#FCEC13;}
	.st48{fill:#FBD81C;}
	.st49{fill:#11AE55;}
	.st50{fill:#0FA84C;}
	.st51{fill:#EC5283;}
	.st52{fill:#EF3F3B;}
	.st53{fill:#F04B39;}
	.st54{fill:#D9E25A;}
	.st55{fill:#F99D2B;}
	.st56{fill:#FCD502;}
	.st57{fill:#EE5963;}
	.st58{fill:#65CBE6;}
</style>
<g id="Layer_1">
	<rect x="-63.5" y="-73.5" class="st3" width="2103.6" height="784.4"/>
</g>
<g id="_x30_1_x5F_RUBBLE">
</g>
<g id="_x30_2_x5F_COUGHING">
</g>
<g id="_x30_3_x5F_THIRSTY">
</g>
<g id="_x30_4_x5F_HUNGRY">
</g>
<g id="_x30_5_x5F_FIRSTAID">
</g>
<g id="_x30_6_x5F_LOST_PET">
</g>
<g id="_x30_7_x5F_CHILLY">
	<g>
		<defs>
			<rect id="SVGID_25_" x="-68.8" y="-73.5" width="2103.6" height="784.4"/>
		</defs>
		<clipPath id="SVGID_2_">
			<use xlink:href="#SVGID_25_"  style="overflow:visible;"/>
		</clipPath>
		<g style="clip-path:url(#SVGID_2_);">
			<path class="st8" d="M1191,163.3c-0.7,1.5-1.3,1.9-1.3,2c-0.8,0.7-4.1,1.6-8.9,1.6"/>
			<path class="st2" d="M1009.7,114.7c-43.2,52.1-82.5,96.5-117,132.4c-43.1,44.6-76.7,74.3-107.2,95.1v18.9v106.7v48.1V568h0
				c0,2.6,0.2,5.2,0.6,7.8c0,0.5,0,0.9,0,1.4v-0.1l26.5,353.9l-125.7,340.1c-17.9,48.4,6.8,102.3,55.3,120.2
				c10.7,4,21.7,5.9,32.4,5.9c38,0,73.8-23.4,87.7-61.1l132.8-359.2c4.7-12.8,6.6-25.8,5.5-39.4l-23.4-311.5h21l-3,40.3l20.3,270.1
				c1.2,15.9-0.9,30.8-6.4,45.8l-13.4,36.1l117.6,317.9c13.9,37.8,49.7,61.1,87.7,61.1c10.8,0,21.7-1.9,32.4-5.9
				c48.5-17.9,73.2-71.7,55.3-120.2l-125.8-340.1l26.6-353.9c0-0.5,0-1,0-1.5c0.3-2.5,0.6-5,0.6-7.6v-77.3c-5,0.2-9.9,0.3-14.7,0.3
				h-0.1h-0.1c-26.6-0.1-55.3-2.2-85.7-4.5c-34.9-2.6-71-5.2-108.1-5.2H980c-34.4,0-64.5,2.2-92,6.8c-4.1,0.7-8.3,1.1-12.4,1.1
				c-36.7,0-67.7-26.3-73.7-62.5c-3.3-19.7,1.3-39.5,12.9-55.8c11.6-16.3,28.9-27.1,48.6-30.3c35.7-6,74-8.9,117.1-8.9
				c46,0.1,88.6,3.2,126,6c26.4,1.9,49.3,3.7,66.8,3.7c0-0.6,0-1.3,0-1.9c0.1-48.5-4.8-105.2-11.3-159.5c3.3,0.5,6.5,0.9,9.6,1.3
				c9.4,35.3,16.8,86.2,16.7,158.2c0,5.4,0,10.9-0.1,16.5c-3.7,0.2-7.9,0.3-12.5,0.3c-42.4,0.3-115-9.6-195.2-9.7
				c-36.6,0-75.3,2.1-114.6,8.7c-32.6,5.5-54.6,36.3-49.2,68.9c5.5,32.6,36.3,54.6,68.9,49.2c30.7-5.1,62.9-7,94.8-7
				c70.8-0.1,138.6,9.4,195.2,9.7c18.9-0.1,36.9-1,56-5.6c18.5-4.6,41.6-14.1,58.7-37.2c11.1-15.1,16.5-34.1,16.9-50.6
				c0.5-15,0.7-29.3,0.7-43.1c-0.1-113.6-15.7-190-40.1-244.4c-24-54.2-59.7-85.9-90.9-99.3c-8.9-4-17.2-6.4-24.4-8
				c-9.5-9.3-20.1-19.5-31.7-29.7c22.2-28.5,35.4-64.3,35.4-103.3c0-93-75.4-168.4-168.4-168.4c-93,0-168.4,75.4-168.4,168.4
				c0,64,35.7,119.7,88.3,148.2c10.9-13.2,22-27,33.3-41.1c-0.1-0.9-0.3-1.8-0.2-2.7c0.1-9.2,4.4-11,20.5-22.3
				c62.2-21.2,131.2-14.5,122.8,92.1"/>
			<path class="st0" d="M676.8,504.8c0.2,0,0.3,0,0.5,0c3.2,0,6.7-0.2,10.2-0.7c4.1-0.5,7-4.3,6.5-8.4c-0.5-4.1-4.3-7-8.4-6.5
				c-3,0.4-5.8,0.5-8.4,0.5c-18.5-0.2-26.8-8.3-32.3-17c-2.6-4.4-4.1-8.9-5-12.3c-0.8-3.4-1-5.3-1-5.3c-0.3-4.1-4-7.2-8.1-6.8
				c-4.1,0.4-7.2,4-6.8,8.1l0,0c0.1,0.6,1,11.9,8,23.9C639,492.3,653.4,504.8,676.8,504.8z"/>
			<path class="st0" d="M668.8,539.7c6.1,0,12.6-0.5,19.6-1.7c4-0.7,6.8-4.5,6.1-8.6c-0.7-4.1-4.5-6.8-8.6-6.2
				c-6.3,1.1-11.9,1.5-17.1,1.5c-28.2-0.2-42.8-13.1-51.8-26.6c-4.4-6.7-7.1-13.6-8.7-18.7c-1.6-5.1-1.9-8.2-2-8.2
				c-0.6-4.1-4.4-7-8.4-6.4c-4.1,0.6-6.9,4.3-6.4,8.4h0c0.1,0.6,2.3,16.5,13,33c10.5,16.5,30.8,33.4,63.9,33.4
				C668.5,539.7,668.7,539.7,668.8,539.7z"/>
			<path class="st0" d="M1253.7,600.2c0.2,0,0.4,0,0.6,0c23.4,0,37.7-12.5,44.5-24.4c7.1-12,8-23.3,8-23.9c0.4-4.1-2.7-7.7-6.8-8.1
				c-4.1-0.4-7.7,2.7-8.1,6.8c0,0-0.1,1.9-1,5.2c-3.1,10.5-10.1,29.2-37.2,29.3c-2.6,0-5.4-0.2-8.3-0.6c-4.1-0.5-7.9,2.4-8.4,6.5
				c-0.5,4.1,2.4,7.9,6.5,8.4C1247,600,1250.4,600.2,1253.7,600.2z"/>
			<path class="st0" d="M1242.5,633.4c6.9,1.2,13.5,1.7,19.6,1.7c0.1,0,0.3,0,0.5,0c33.1,0,53.3-16.9,63.8-33.4
				c10.7-16.5,12.9-32.4,13-33c0.6-4.1-2.3-7.9-6.4-8.4c-4.1-0.6-7.9,2.3-8.4,6.4c0,0-0.4,3-2,8.2c-5.2,15.7-18.6,45.2-60.5,45.3
				c-5.2,0-10.9-0.4-17.1-1.5c-4.1-0.7-7.9,2.1-8.6,6.2C1235.7,628.9,1238.4,632.7,1242.5,633.4z"/>
			<path class="st2" d="M881.9,236.6c46.1-47.8,101.9-112.1,169.9-197.5c20.6-25.9,16.3-63.5-9.5-84.1
				c-25.9-20.6-63.5-16.3-84.1,9.5c-88.3,111-154.6,183.8-200.9,227c-3.3,3.1-6.5,6-9.6,8.8l-0.6-19.7
				c40.2-37.4,91.8-94.2,151.2-165.9c-14.9-8.4-28.5-18.8-40.5-30.9c-6.9-2.8-14.5-4.4-22.4-4.4v0c-20.6,0.1-38.5,6-53.7,13.7
				c-26.5,13.8-46.8,33-65.5,54.6c-27.8,32.5-51.1,71-68.8,109.4c-8.8,19.2-16.1,38.3-21.5,57c-5.3,18.8-9,36.9-9.2,56.7
				c0.1,12.6,1.4,26.3,8.2,42.1c6.4,15.6,21.9,33.6,42.2,41.3c0,0,0,0,0.1,0c0,0,0.1,0,0.1,0h0c0.6,0.2,1.1,0.4,1.7,0.6
				c1.4,0.5,2.7,1,4.1,1.4c8.5,2.6,16.9,3.7,24.5,3.7c21.9-0.6,38.4-6.6,54.5-15.1c5.3-2.8,10.5-5.8,15.9-9.1
				C799.9,315.7,835.7,284.4,881.9,236.6z"/>
			<polygon class="st20" points="627.5,644.1 641.7,652.3 644.7,647.2 630.4,638.9 649.9,633.7 648.4,628 623.1,634.7 597.4,619.9 
				623.1,605.1 648.4,611.8 649.9,606.1 630.4,600.8 644.7,592.6 641.7,587.4 627.4,595.7 632.7,576.2 626.9,574.7 620.1,599.9 
				594.5,614.7 594.5,585.1 612.9,566.6 608.7,562.4 594.5,576.6 594.5,560.2 588.5,560.2 588.5,576.6 574.2,562.4 570,566.6 
				588.5,585.1 588.5,614.7 562.8,599.9 556,574.7 550.3,576.2 555.5,595.7 541.3,587.4 538.3,592.6 552.5,600.8 533,606.1 
				534.6,611.8 559.8,605.1 585.5,619.9 559.8,634.7 534.6,628 533,633.7 552.5,638.9 538.3,647.2 541.2,652.3 555.5,644.1 
				550.3,663.6 556,665.1 562.8,639.9 588.5,625.1 588.5,654.7 570,673.2 574.2,677.4 588.5,663.2 588.5,679.6 594.5,679.6 
				594.5,663.2 608.7,677.4 612.9,673.2 594.5,654.7 594.5,625.1 620.1,639.9 626.9,665.1 632.7,663.6 			"/>
			<polygon class="st20" points="1418.6,466.8 1432.8,475 1435.8,469.8 1421.5,461.6 1441,456.4 1439.5,450.6 1414.2,457.4 
				1388.5,442.5 1414.2,427.7 1439.5,434.5 1441,428.7 1421.5,423.5 1435.8,415.3 1432.8,410.1 1418.5,418.3 1423.8,398.8 
				1418,397.3 1411.2,422.5 1385.6,437.4 1385.6,407.7 1404,389.2 1399.8,385 1385.6,399.3 1385.6,382.8 1379.6,382.8 1379.6,399.3 
				1365.3,385 1361.1,389.2 1379.6,407.7 1379.6,437.4 1353.9,422.5 1347.1,397.3 1341.4,398.8 1346.6,418.3 1332.4,410.1 
				1329.4,415.3 1343.6,423.5 1324.1,428.7 1325.7,434.5 1350.9,427.7 1376.6,442.5 1350.9,457.4 1325.7,450.6 1324.1,456.4 
				1343.6,461.6 1329.4,469.8 1332.4,475 1346.6,466.8 1341.4,486.2 1347.1,487.8 1353.9,462.5 1379.6,447.7 1379.6,477.4 
				1361.1,495.8 1365.3,500.1 1379.6,485.8 1379.6,502.2 1385.6,502.2 1385.6,485.8 1399.8,500.1 1404,495.8 1385.6,477.4 
				1385.6,447.7 1411.2,462.5 1418,487.8 1423.8,486.2 			"/>
			<polygon class="st20" points="496.3,371.7 510.6,379.9 513.5,374.7 499.3,366.5 518.8,361.3 517.2,355.5 492,362.3 466.3,347.5 
				492,332.7 517.2,339.4 518.8,333.6 499.3,328.4 513.5,320.2 510.6,315 496.3,323.3 501.5,303.8 495.8,302.2 489,327.5 
				463.3,342.3 463.3,312.7 481.8,294.2 477.6,290 463.3,304.2 463.3,287.8 457.4,287.8 457.4,304.2 443.1,290 438.9,294.2 
				457.4,312.7 457.4,342.3 431.7,327.5 424.9,302.2 419.1,303.8 424.4,323.3 410.1,315 407.1,320.2 421.4,328.4 401.9,333.6 
				403.5,339.4 428.7,332.7 454.4,347.5 428.7,362.3 403.5,355.5 401.9,361.3 421.4,366.5 407.1,374.7 410.1,379.9 424.4,371.7 
				419.1,391.2 424.9,392.7 431.7,367.5 457.4,352.7 457.4,382.3 438.9,400.8 443.1,405 457.4,390.8 457.4,407.2 463.3,407.2 
				463.3,390.8 477.6,405 481.8,400.8 463.3,382.3 463.3,352.7 489,367.5 495.8,392.7 501.5,391.2 			"/>
			<polygon class="st20" points="329.6,508.4 343.9,516.6 346.9,511.4 332.6,503.2 352.1,498 350.5,492.2 325.3,499 299.6,484.1 
				325.3,469.3 350.5,476.1 352.1,470.3 332.6,465.1 346.9,456.9 343.9,451.7 329.6,459.9 334.9,440.5 329.1,438.9 322.3,464.1 
				296.6,479 296.6,449.3 315.1,430.8 310.9,426.6 296.6,440.9 296.6,424.4 290.7,424.4 290.7,440.9 276.4,426.6 272.2,430.8 
				290.7,449.3 290.7,479 265,464.1 258.2,438.9 252.5,440.5 257.7,459.9 243.4,451.7 240.5,456.9 254.7,465.1 235.2,470.3 
				236.8,476.1 262,469.3 287.7,484.1 262,499 236.8,492.2 235.2,498 254.7,503.2 240.5,511.4 243.4,516.6 257.7,508.4 252.5,527.8 
				258.2,529.4 265,504.1 290.7,489.3 290.7,519 272.2,537.4 276.4,541.7 290.7,527.4 290.7,543.8 296.6,543.8 296.6,527.4 
				310.9,541.7 315.1,537.4 296.6,519 296.6,489.3 322.3,504.1 329.1,529.4 334.9,527.8 			"/>
			<polygon class="st20" points="1418.6,250.8 1432.8,259 1435.8,253.9 1421.5,245.6 1441,240.4 1439.5,234.7 1414.2,241.4 
				1388.5,226.6 1414.2,211.8 1439.5,218.5 1441,212.8 1421.5,207.5 1435.8,199.3 1432.8,194.1 1418.5,202.4 1423.8,182.9 
				1418,181.3 1411.2,206.6 1385.6,221.4 1385.6,191.8 1404,173.3 1399.8,169.1 1385.6,183.3 1385.6,166.9 1379.6,166.9 
				1379.6,183.3 1365.3,169.1 1361.1,173.3 1379.6,191.8 1379.6,221.4 1353.9,206.6 1347.1,181.4 1341.4,182.9 1346.6,202.4 
				1332.4,194.1 1329.4,199.3 1343.6,207.5 1324.1,212.8 1325.7,218.5 1350.9,211.8 1376.6,226.6 1350.9,241.4 1325.7,234.7 
				1324.1,240.4 1343.6,245.6 1329.4,253.9 1332.4,259 1346.6,250.8 1341.4,270.3 1347.1,271.8 1353.9,246.6 1379.6,231.8 
				1379.6,261.4 1361.1,279.9 1365.3,284.1 1379.6,269.9 1379.6,286.3 1385.6,286.3 1385.6,269.9 1399.8,284.1 1404,279.9 
				1385.6,261.4 1385.6,231.8 1411.2,246.6 1418,271.8 1423.8,270.3 			"/>
			<polygon class="st20" points="1663.5,348.2 1677.7,356.4 1680.7,351.3 1666.4,343.1 1685.9,337.8 1684.4,332.1 1659.1,338.8 
				1633.4,324 1659.1,309.2 1684.4,315.9 1685.9,310.2 1666.4,304.9 1680.7,296.7 1677.7,291.6 1663.4,299.8 1668.7,280.3 
				1662.9,278.8 1656.1,304 1630.5,318.8 1630.5,289.2 1648.9,270.7 1644.7,266.5 1630.5,280.7 1630.5,264.3 1624.5,264.3 
				1624.5,280.7 1610.2,266.5 1606,270.7 1624.5,289.2 1624.5,318.8 1598.8,304 1592,278.8 1586.3,280.3 1591.5,299.8 1577.3,291.6 
				1574.3,296.7 1588.5,304.9 1569,310.2 1570.6,315.9 1595.8,309.2 1621.5,324 1595.8,338.8 1570.6,332.1 1569,337.8 1588.5,343.1 
				1574.3,351.3 1577.3,356.4 1591.5,348.2 1586.3,367.7 1592,369.2 1598.8,344 1624.5,329.2 1624.5,358.8 1606,377.3 1610.2,381.5 
				1624.5,367.3 1624.5,383.7 1630.5,383.7 1630.5,367.3 1644.7,381.5 1648.9,377.3 1630.5,358.8 1630.5,329.2 1656.1,344 
				1662.9,369.2 1668.7,367.7 			"/>
			<polygon class="st20" points="103.1,348.2 117.4,356.4 120.4,351.3 106.1,343.1 125.6,337.8 124.1,332.1 98.8,338.8 73.1,324 
				98.8,309.2 124.1,315.9 125.6,310.2 106.1,304.9 120.4,296.7 117.4,291.6 103.1,299.8 108.4,280.3 102.6,278.8 95.8,304 
				70.1,318.8 70.1,289.2 88.6,270.7 84.4,266.5 70.1,280.7 70.1,264.3 64.2,264.3 64.2,280.7 49.9,266.5 45.7,270.7 64.2,289.2 
				64.2,318.8 38.5,304 31.7,278.8 26,280.3 31.2,299.8 17,291.6 14,296.7 28.2,304.9 8.7,310.2 10.3,315.9 35.5,309.2 61.2,324 
				35.5,338.8 10.3,332.1 8.7,337.8 28.2,343.1 14,351.3 16.9,356.4 31.2,348.2 26,367.7 31.7,369.2 38.5,344 64.2,329.2 
				64.2,358.8 45.7,377.3 49.9,381.5 64.2,367.3 64.2,383.7 70.1,383.7 70.1,367.3 84.4,381.5 88.6,377.3 70.1,358.8 70.1,329.2 
				95.8,344 102.6,369.2 108.4,367.7 			"/>
			<polygon class="st20" points="512.2,198.9 502,211.8 506.6,215.5 516.9,202.6 519.2,222.7 525.1,222 522.1,196 540.5,172.8 
				551.4,200.4 541,224.3 546.5,226.7 554.5,208.2 560.6,223.5 566.1,221.3 560.1,206 578.6,214 581,208.6 557,198.2 546.1,170.6 
				575.4,174.9 591,195.9 595.8,192.4 583.8,176.2 600,178.6 600.9,172.7 584.6,170.3 600.8,158.3 597.3,153.5 576.3,169 547,164.7 
				565.4,141.5 591.3,138.5 590.7,132.5 570.6,134.8 580.8,122 576.2,118.3 565.9,131.1 563.6,111.1 557.7,111.8 560.7,137.7 
				542.3,161 531.4,133.4 541.7,109.4 536.3,107.1 528.3,125.5 522.2,110.3 516.7,112.5 522.7,127.7 504.2,119.7 501.8,125.2 
				525.8,135.6 536.7,163.2 507.4,158.8 491.8,137.9 487,141.4 499,157.6 482.8,155.2 481.9,161.1 498.2,163.5 482,175.5 
				485.5,180.3 506.5,164.7 535.8,169.1 517.4,192.3 491.5,195.3 492.1,201.2 			"/>
			<polygon class="st20" points="1901.9,198.9 1891.7,211.8 1896.3,215.5 1906.6,202.6 1908.9,222.7 1914.8,222 1911.8,196 
				1930.2,172.8 1941.1,200.4 1930.7,224.3 1936.2,226.7 1944.2,208.2 1950.3,223.5 1955.8,221.3 1949.8,206 1968.3,214 
				1970.7,208.6 1946.7,198.2 1935.8,170.6 1965.1,174.9 1980.7,195.9 1985.5,192.4 1973.5,176.2 1989.7,178.6 1990.6,172.7 
				1974.3,170.3 1990.5,158.3 1987,153.5 1966,169 1936.7,164.7 1955.1,141.5 1981,138.5 1980.4,132.5 1960.3,134.8 1970.5,122 
				1965.9,118.3 1955.6,131.1 1953.3,111.1 1947.4,111.8 1950.4,137.7 1932,161 1921.1,133.4 1931.4,109.4 1926,107.1 1918,125.5 
				1911.9,110.3 1906.4,112.5 1912.4,127.7 1893.9,119.7 1891.5,125.2 1915.5,135.6 1926.4,163.2 1897.1,158.8 1881.5,137.9 
				1876.7,141.4 1888.7,157.6 1872.5,155.2 1871.6,161.1 1887.9,163.5 1871.7,175.5 1875.2,180.3 1896.2,164.7 1925.5,169.1 
				1907.1,192.3 1881.2,195.3 1881.8,201.2 			"/>
		</g>
		<path style="clip-path:url(#SVGID_2_);fill:#00B6CF;" d="M1241.5-10.8c-0.2,0-0.3,0-0.5,0c-3.2,0-6.7,0.2-10.2,0.7
			c-4.1,0.5-7,4.3-6.5,8.4c0.5,4.1,4.3,7,8.4,6.5c3-0.4,5.8-0.5,8.4-0.5c18.5,0.2,26.8,8.3,32.3,17c2.6,4.4,4.1,8.9,5,12.3
			c0.8,3.4,1,5.3,1,5.3c0.3,4.1,4,7.2,8.1,6.8c4.1-0.4,7.2-4,6.8-8.1l0,0c-0.1-0.6-1-11.9-8-23.9
			C1279.3,1.7,1264.9-10.8,1241.5-10.8z"/>
		<path style="clip-path:url(#SVGID_2_);fill:#00B6CF;" d="M1249.4-45.6c-6.1,0-12.6,0.5-19.6,1.7c-4,0.7-6.8,4.5-6.1,8.6
			c0.7,4.1,4.5,6.8,8.6,6.2c6.3-1.1,11.9-1.5,17.1-1.5c28.2,0.2,42.8,13.1,51.8,26.6c4.4,6.7,7.1,13.6,8.7,18.7
			c1.6,5.1,1.9,8.2,2,8.2c0.6,4.1,4.4,7,8.4,6.4c4.1-0.6,6.9-4.3,6.4-8.4h0c-0.1-0.6-2.3-16.5-13-33c-10.5-16.5-30.8-33.4-63.9-33.4
			C1249.7-45.6,1249.6-45.6,1249.4-45.6z"/>
		<path style="clip-path:url(#SVGID_2_);fill:#00B6CF;" d="M679.5-10.8c0.2,0,0.3,0,0.5,0c3.2,0,6.7,0.2,10.2,0.7
			c4.1,0.5,7,4.3,6.5,8.4c-0.5,4.1-4.3,7-8.4,6.5c-3-0.4-5.8-0.5-8.4-0.5c-18.5,0.2-26.8,8.3-32.3,17c-2.6,4.4-4.1,8.9-5,12.3
			c-0.8,3.4-1,5.3-1,5.3c-0.3,4.1-4,7.2-8.1,6.8c-4.1-0.4-7.2-4-6.8-8.1l0,0c0.1-0.6,1-11.9,8-23.9C641.7,1.7,656.1-10.8,679.5-10.8
			z"/>
		<path style="clip-path:url(#SVGID_2_);fill:#00B6CF;" d="M671.6-45.6c6.1,0,12.6,0.5,19.6,1.7c4,0.7,6.8,4.5,6.1,8.6
			c-0.7,4.1-4.5,6.8-8.6,6.2c-6.3-1.1-11.9-1.5-17.1-1.5c-28.2,0.2-42.8,13.1-51.8,26.6c-4.4,6.7-7.1,13.6-8.7,18.7
			c-1.6,5.1-1.9,8.2-2,8.2c-0.6,4.1-4.4,7-8.4,6.4c-4.1-0.6-6.9-4.3-6.4-8.4h0c0.1-0.6,2.3-16.5,13-33
			c10.5-16.5,30.8-33.4,63.9-33.4C671.3-45.6,671.4-45.6,671.6-45.6z"/>
	</g>
	<polygon class="st20" points="1323.2,718.9 1312.9,731.7 1317.6,735.4 1327.8,722.6 1330.1,742.6 1336.1,741.9 1333.1,715.9 
		1351.5,692.7 1362.4,720.3 1352,744.3 1357.5,746.6 1365.5,728.1 1371.6,743.4 1377.1,741.2 1371.1,725.9 1389.6,734 1391.9,728.5 
		1368,718.1 1357.1,690.5 1386.4,694.9 1402,715.8 1406.8,712.3 1394.8,696.1 1411,698.5 1411.9,692.6 1395.6,690.2 1411.8,678.2 
		1408.3,673.4 1387.3,688.9 1357.9,684.6 1376.4,661.4 1402.3,658.4 1401.6,652.5 1381.6,654.8 1391.8,641.9 1387.1,638.2 
		1376.9,651 1374.6,631 1368.7,631.7 1371.7,657.7 1353.3,680.9 1342.3,653.3 1352.7,629.3 1347.3,627 1339.2,645.5 1333.2,630.2 
		1327.6,632.4 1333.7,647.7 1315.2,639.7 1312.8,645.1 1336.8,655.5 1347.7,683.1 1318.4,678.8 1302.8,657.8 1298,661.3 1310,677.5 
		1293.8,675.1 1292.9,681 1309.1,683.4 1293,695.4 1296.5,700.2 1317.5,684.7 1346.8,689 1328.4,712.2 1302.4,715.2 1303.1,721.2 	
		"/>
</g>
<g id="_x30_8_x5F_CAUGHT_IN_CRACK">
</g>
<g id="_x30_9_x5F_WEATHER">
</g>
<g id="_x31_0_x5F_FIRES">
</g>
</svg>
