<?xml version="1.0" encoding="utf-8"?>
<!-- Generator: Adobe Illustrator 23.0.6, SVG Export Plug-In . SVG Version: 6.00 Build 0)  -->
<svg version="1.1" id="Layer_1" xmlns="http://www.w3.org/2000/svg" xmlns:xlink="http://www.w3.org/1999/xlink" x="0px" y="0px"
	 viewBox="0 0 1966 648" style="enable-background:new 0 0 1966 648;" xml:space="preserve">
<style type="text/css">
	.st0{fill:#5E54A4;}
	.st1{fill:#8DC63F;}
	.st2{fill:#FDB615;}
	.st3{fill:#009444;}
	.st4{fill-rule:evenodd;clip-rule:evenodd;fill:#FDB615;}
	.st5{fill:none;}
</style>
<g>
	<rect x="-63.5" y="-70.9" class="st0" width="2103.6" height="784.4"/>
</g>
<ellipse class="st1" cx="1221.8" cy="139.8" rx="12.9" ry="7.9"/>
<ellipse class="st1" cx="1180.3" cy="139.8" rx="12.9" ry="7.9"/>
<ellipse class="st1" cx="1197.4" cy="156.9" rx="12.9" ry="7.9"/>
<g>
	<path d="M1255.7,164.7l43.2-1.8l-0.1-3.1l-44.3,1.8c-0.2-0.4-0.4-0.9-0.5-1.3l44.3-6.2l-0.4-3l-45.1,6.3c-0.2-0.4-0.3-0.8-0.5-1.2
		l44.4-10.8l-0.7-3l-44.9,10.9c-11.7-28.4-21.2-46.9-21.2-46.9l-9.9,16.1h-42.8l-9.9-16.1c0,0-9.4,18.4-21.1,46.7l-44-10.7l-0.1,0.2
		l-0.9-0.2l-0.7,3l44.5,10.8c-0.1,0.3-0.3,0.7-0.4,1l-44.1-6.2l0,0.1l-0.9-0.1l-0.4,3l44.3,6.2c-0.2,0.4-0.3,0.9-0.5,1.3l-43.3-1.8
		v0l-1,0l-0.1,3.1l43.2,1.8c-10.8,27.4-22.8,61.7-30.9,97.1c-9.6,42.2-4.9,73.1,1.7,93.1h-12.9c-7.5,0-13.5,6.1-13.5,13.5
		c0,7.5,6.1,13.5,13.5,13.5h26.5h10.7h134.6c0,0,33.7-39.8,15.3-120.1C1278.5,226.4,1266.5,192.1,1255.7,164.7z M1176.5,147
		c-3.6-0.4-6.7-2.2-8.7-4.9c2-2.7,5.2-4.5,8.7-4.9V147z M1179.2,147v-9.9c3.5,0.4,6.7,2.2,8.7,4.9
		C1185.9,144.8,1182.8,146.6,1179.2,147z M1198.6,159.5l-5.3-9.1h10.6L1198.6,159.5z M1218,147c-3.6-0.4-6.7-2.2-8.8-4.9
		c2.1-2.7,5.2-4.6,8.8-4.9V147z M1220.8,147v-9.8c3.5,0.4,6.6,2.2,8.6,4.9C1227.4,144.8,1224.3,146.6,1220.8,147z"/>
</g>
<g id="_x30_1_x5F_RUBBLE">
</g>
<g id="_x30_2_x5F_COUGHING">
</g>
<g id="_x30_3_x5F_THIRSTY">
</g>
<g id="_x30_4_x5F_HUNGRY">
</g>
<g id="_x30_5_x5F_FIRSTAID">
</g>
<g id="_x30_6_x5F_LOST_PET">
	<g>
		<g>
			<path class="st2" d="M1084.8,237.6c1.6,1.5,4,1.9,6.2,2c2.7,0.1,5.4-0.2,8-0.5c5.1-0.7,10.1-1.7,15.1-2.8
				c8.8-1.9,17.8-2.6,26.7-4.2c9.1-1.6,18-3.6,27.1-5.4c10.1-1.9,20.2-3.5,30.4-4c3.2-0.2,3.2-5.2,0-5c-18,0.9-35.5,5-53.1,8.5
				c-9,1.7-18,2.6-27,4.2c-5.3,0.9-10.6,2.3-15.9,3.2c-3,0.5-5.8,0.9-9,1c-0.7,0-1.3,0-2,0c-0.3,0-0.6,0-0.9-0.1c-0.1,0-0.2,0-0.3,0
				c-0.5,0,0.2,0,0,0c-0.5-0.1-0.9-0.2-1.4-0.3c-0.1,0-0.2-0.1-0.2-0.1c0.8,0.3,0.2,0.1,0.1,0c0,0-0.1-0.1-0.2-0.1
				c-0.4-0.3,0.5,0.4,0.1,0.1C1086,231.8,1082.4,235.4,1084.8,237.6L1084.8,237.6z"/>
		</g>
	</g>
	<path class="st3" d="M919.6,400.6c0-150.7-122.2-272.9-272.9-272.9s-273,122.2-273,272.9"/>
	<path class="st3" d="M1048.2,400.6c0-93.9-76.1-170-170-170s-170,76.1-170,170"/>
	<g>
		<path class="st1" d="M147.2,286.6c24.1,0,46.9,6.5,66.9,18c29.6-44.1,76.4-73.5,129.5-76.2c1.6-0.1,3.3-0.1,4.9-0.2
			c1.1,0,2.2-0.1,3.3-0.1c0.1,0,0.3,0,0.4,0s0.3,0,0.4,0c1.1,0,2.2,0.1,3.3,0.1c1.6,0,3.3,0.1,4.9,0.2
			c53.1,2.7,99.9,32.1,129.5,76.2c20-11.5,42.7-18,66.9-18c65.6,0,120.9,48,138.4,113.8H522H182.2H8.7
			C26.3,334.7,81.6,286.6,147.2,286.6z"/>
	</g>
	<path class="st1" d="M1332.9,127.7c-86.9,0-164.3,40.6-214.3,103.9c-5.7-0.6-11.5-0.9-17.3-0.9c-93.9,0-170,76.1-170,170h128.6
		h211.4h334.5C1605.8,249.9,1483.6,127.7,1332.9,127.7z"/>
	<path class="st3" d="M1832.4,286.6c-24.1,0-46.9,6.5-66.9,18c-29.6-44.1-76.4-73.5-129.5-76.2c-1.6-0.1-3.3-0.1-4.9-0.2
		c-1.1,0-2.2-0.1-3.3-0.1c-0.1,0-0.3,0-0.4,0s-0.3,0-0.4,0c-1.1,0-2.2,0.1-3.3,0.1c-1.6,0-3.3,0.1-4.9,0.2
		c-53.1,2.7-99.9,32.1-129.5,76.2c-20-11.5-42.7-18-66.9-18c-65.6,0-120.9,48-138.4,113.8h173.5h339.7h173.5
		C1953.3,334.7,1898,286.6,1832.4,286.6z"/>
	<g>
		<g>
			<path class="st4" d="M1347.3,602.1c-0.2,61,74.9-38.4,18-19.3C1352.3,574.3,1338.4,587.6,1347.3,602.1z"/>
			<path class="st4" d="M1337.5,606.4c2.2-2.4,1.6-6.6-1.4-9.4c-3-2.8-7.2-3.1-9.5-0.7c-2.2,2.4-1.6,6.6,1.4,9.4
				C1331.1,608.5,1335.3,608.8,1337.5,606.4z"/>
			<path class="st4" d="M1338.6,588.3c2.6-2.8,1.4-8.1-2.6-11.9c-4-3.8-9.4-4.5-12-1.7s-1.4,8.1,2.6,11.9
				C1330.6,590.3,1336,591.1,1338.6,588.3z"/>
			<path class="st4" d="M1352.2,573.6c2.6-2.8,1.4-8.1-2.6-11.9c-4-3.8-9.4-4.5-12-1.7s-1.4,8.1,2.6,11.9
				C1344.2,575.6,1349.6,576.4,1352.2,573.6z"/>
			<path class="st4" d="M1359.4,560.9c-2.2,2.4-1.6,6.6,1.4,9.4c3,2.8,7.2,3.1,9.5,0.7c2.2-2.4,1.6-6.6-1.4-9.4
				S1361.7,558.5,1359.4,560.9z"/>
		</g>
		<path class="st4" d="M1376.9,518.3c-0.2,61,74.9-38.4,18-19.3C1381.9,490.5,1368,503.8,1376.9,518.3z"/>
		<path class="st4" d="M1367.2,522.9c2.2-2.4,1.6-6.6-1.4-9.4c-3-2.8-7.2-3.1-9.5-0.7c-2.2,2.4-1.6,6.6,1.4,9.4
			C1360.7,525,1364.9,525.3,1367.2,522.9z"/>
		<path class="st4" d="M1368.3,504.8c2.6-2.8,1.4-8.1-2.6-11.9s-9.4-4.5-12-1.7s-1.4,8.1,2.6,11.9
			C1360.3,506.8,1365.7,507.6,1368.3,504.8z"/>
		<path class="st4" d="M1381.9,490.1c2.6-2.8,1.4-8.1-2.6-11.9s-9.4-4.5-12-1.7s-1.4,8.1,2.6,11.9
			C1373.9,492.2,1379.3,492.9,1381.9,490.1z"/>
		<path class="st4" d="M1389.1,477.4c-2.2,2.4-1.6,6.6,1.4,9.4s7.2,3.1,9.5,0.7c2.2-2.4,1.6-6.6-1.4-9.4
			C1395.6,475.4,1391.3,475,1389.1,477.4z"/>
	</g>
	<g>
		<g>
			<path class="st4" d="M1552.5,609.9c33.8,50.8,40.9-73.5,4.2-26.1C1541.2,584,1537,602.8,1552.5,609.9z"/>
			<path class="st4" d="M1546.8,619c0.5-3.2-2.4-6.3-6.4-7c-4.1-0.6-7.8,1.4-8.3,4.7c-0.5,3.2,2.4,6.3,6.4,7
				C1542.6,624.2,1546.3,622.2,1546.8,619z"/>
			<path class="st4" d="M1537.6,603.2c0.6-3.8-3.3-7.5-8.8-8.4c-5.4-0.9-10.4,1.5-11,5.3s3.3,7.5,8.8,8.4S1537,607,1537.6,603.2z"/>
			<path class="st4" d="M1540.8,583.5c0.6-3.8-3.3-7.5-8.8-8.4c-5.4-0.9-10.4,1.5-11,5.3s3.3,7.5,8.8,8.4
				C1535.3,589.6,1540.2,587.3,1540.8,583.5z"/>
			<path class="st4" d="M1539.7,568.9c-0.5,3.2,2.4,6.3,6.4,7c4.1,0.6,7.8-1.4,8.3-4.7c0.5-3.2-2.4-6.3-6.4-7
				C1543.9,563.6,1540.2,565.7,1539.7,568.9z"/>
		</g>
		<path class="st4" d="M1530.5,523.8c33.8,50.8,40.9-73.5,4.2-26.1C1519.2,497.9,1515,516.7,1530.5,523.8z"/>
		<path class="st4" d="M1525,533.1c0.5-3.2-2.4-6.3-6.4-7c-4.1-0.6-7.8,1.4-8.3,4.7c-0.5,3.2,2.4,6.3,6.4,7
			C1520.8,538.4,1524.5,536.3,1525,533.1z"/>
		<path class="st4" d="M1515.9,517.4c0.6-3.8-3.3-7.5-8.8-8.4c-5.4-0.9-10.4,1.5-11,5.3c-0.6,3.8,3.3,7.5,8.8,8.4
			C1510.4,523.5,1515.3,521.1,1515.9,517.4z"/>
		<path class="st4" d="M1519,497.6c0.6-3.8-3.3-7.5-8.8-8.4c-5.4-0.9-10.4,1.5-11,5.3s3.3,7.5,8.8,8.4S1518.4,501.4,1519,497.6z"/>
		<path class="st4" d="M1517.9,483c-0.5,3.2,2.4,6.3,6.4,7c4.1,0.6,7.8-1.4,8.3-4.7c0.5-3.2-2.4-6.3-6.4-7
			C1522.1,477.7,1518.4,479.8,1517.9,483z"/>
	</g>
	<g>
		<g>
			<path class="st4" d="M1709,609.9c33.8,50.8,40.9-73.5,4.2-26.1C1697.6,584,1693.5,602.8,1709,609.9z"/>
			<path class="st4" d="M1703.3,619c0.5-3.2-2.4-6.3-6.4-7c-4.1-0.6-7.8,1.4-8.3,4.7c-0.5,3.2,2.4,6.3,6.4,7
				C1699,624.2,1702.7,622.2,1703.3,619z"/>
			<path class="st4" d="M1694.1,603.2c0.6-3.8-3.3-7.5-8.8-8.4c-5.4-0.9-10.4,1.5-11,5.3s3.3,7.5,8.8,8.4S1693.5,607,1694.1,603.2z"
				/>
			<path class="st4" d="M1697.2,583.5c0.6-3.8-3.3-7.5-8.8-8.4c-5.4-0.9-10.4,1.5-11,5.3s3.3,7.5,8.8,8.4
				C1691.7,589.6,1696.6,587.3,1697.2,583.5z"/>
			<path class="st4" d="M1696.2,568.9c-0.5,3.2,2.4,6.3,6.4,7c4.1,0.6,7.8-1.4,8.3-4.7c0.5-3.2-2.4-6.3-6.4-7
				C1700.4,563.6,1696.7,565.7,1696.2,568.9z"/>
		</g>
		<path class="st4" d="M1687,523.8c33.8,50.8,40.9-73.5,4.2-26.1C1675.6,497.9,1671.5,516.7,1687,523.8z"/>
		<path class="st4" d="M1681.5,533.1c0.5-3.2-2.4-6.3-6.4-7c-4.1-0.6-7.8,1.4-8.3,4.7c-0.5,3.2,2.4,6.3,6.4,7
			C1677.3,538.4,1681,536.3,1681.5,533.1z"/>
		<path class="st4" d="M1672.3,517.4c0.6-3.8-3.3-7.5-8.8-8.4c-5.4-0.9-10.4,1.5-11,5.3c-0.6,3.8,3.3,7.5,8.8,8.4
			C1666.8,523.5,1671.7,521.1,1672.3,517.4z"/>
		<path class="st4" d="M1675.5,497.6c0.6-3.8-3.3-7.5-8.8-8.4c-5.4-0.9-10.4,1.5-11,5.3s3.3,7.5,8.8,8.4S1674.9,501.4,1675.5,497.6z
			"/>
		<path class="st4" d="M1674.4,483c-0.5,3.2,2.4,6.3,6.4,7c4.1,0.6,7.8-1.4,8.3-4.7c0.5-3.2-2.4-6.3-6.4-7
			C1678.6,477.7,1674.9,479.8,1674.4,483z"/>
	</g>
	<g>
		<g>
			<path class="st4" d="M1851.8,609.9c33.8,50.8,40.9-73.5,4.2-26.1C1840.5,584,1836.4,602.8,1851.8,609.9z"/>
			<path class="st4" d="M1846.1,619c0.5-3.2-2.4-6.3-6.4-7c-4.1-0.6-7.8,1.4-8.3,4.7c-0.5,3.2,2.4,6.3,6.4,7
				C1841.9,624.2,1845.6,622.2,1846.1,619z"/>
			<path class="st4" d="M1837,603.2c0.6-3.8-3.3-7.5-8.8-8.4c-5.4-0.9-10.4,1.5-11,5.3s3.3,7.5,8.8,8.4S1836.4,607,1837,603.2z"/>
			<path class="st4" d="M1840.1,583.5c0.6-3.8-3.3-7.5-8.8-8.4c-5.4-0.9-10.4,1.5-11,5.3s3.3,7.5,8.8,8.4
				C1834.6,589.6,1839.5,587.3,1840.1,583.5z"/>
			<path class="st4" d="M1839.1,568.9c-0.5,3.2,2.4,6.3,6.4,7c4.1,0.6,7.8-1.4,8.3-4.7c0.5-3.2-2.4-6.3-6.4-7
				C1843.3,563.6,1839.6,565.7,1839.1,568.9z"/>
		</g>
		<path class="st4" d="M1829.8,523.8c33.8,50.8,40.9-73.5,4.2-26.1C1818.5,497.9,1814.4,516.7,1829.8,523.8z"/>
		<path class="st4" d="M1824.4,533.1c0.5-3.2-2.4-6.3-6.4-7c-4.1-0.6-7.8,1.4-8.3,4.7c-0.5,3.2,2.4,6.3,6.4,7
			C1820.1,538.4,1823.8,536.3,1824.4,533.1z"/>
		<path class="st4" d="M1815.2,517.4c0.6-3.8-3.3-7.5-8.8-8.4c-5.4-0.9-10.4,1.5-11,5.3c-0.6,3.8,3.3,7.5,8.8,8.4
			C1809.7,523.5,1814.6,521.1,1815.2,517.4z"/>
		<path class="st4" d="M1818.3,497.6c0.6-3.8-3.3-7.5-8.8-8.4c-5.4-0.9-10.4,1.5-11,5.3s3.3,7.5,8.8,8.4S1817.7,501.4,1818.3,497.6z
			"/>
		<path class="st4" d="M1817.3,483c-0.5,3.2,2.4,6.3,6.4,7c4.1,0.6,7.8-1.4,8.3-4.7c0.5-3.2-2.4-6.3-6.4-7
			C1821.5,477.7,1817.8,479.8,1817.3,483z"/>
	</g>
	<g>
		<g>
			<path class="st4" d="M1977.3,603.2c0.6-3.8-3.3-7.5-8.8-8.4c-5.4-0.9-10.4,1.5-11,5.3s3.3,7.5,8.8,8.4S1976.7,607,1977.3,603.2z"
				/>
			<path class="st4" d="M1980.5,583.5c0.6-3.8-3.3-7.5-8.8-8.4c-5.4-0.9-10.4,1.5-11,5.3s3.3,7.5,8.8,8.4
				C1975,589.6,1979.9,587.3,1980.5,583.5z"/>
		</g>
		<path class="st4" d="M1970.2,523.8c33.8,50.8,40.9-73.5,4.2-26.1C1958.9,497.9,1954.7,516.7,1970.2,523.8z"/>
		<path class="st4" d="M1964.7,533.1c0.5-3.2-2.4-6.3-6.4-7c-4.1-0.6-7.8,1.4-8.3,4.7c-0.5,3.2,2.4,6.3,6.4,7
			C1960.5,538.4,1964.2,536.3,1964.7,533.1z"/>
		<path class="st4" d="M1955.6,517.4c0.6-3.8-3.3-7.5-8.8-8.4c-5.4-0.9-10.4,1.5-11,5.3c-0.6,3.8,3.3,7.5,8.8,8.4
			C1950.1,523.5,1955,521.1,1955.6,517.4z"/>
		<path class="st4" d="M1958.7,497.6c0.6-3.8-3.3-7.5-8.8-8.4c-5.4-0.9-10.4,1.5-11,5.3s3.3,7.5,8.8,8.4S1958.1,501.4,1958.7,497.6z
			"/>
		<path class="st4" d="M1957.7,483c-0.5,3.2,2.4,6.3,6.4,7c4.1,0.6,7.8-1.4,8.3-4.7c0.5-3.2-2.4-6.3-6.4-7
			C1961.9,477.7,1958.2,479.8,1957.7,483z"/>
	</g>
	<g>
		<g>
			<path class="st4" d="M1202.1,524.8c-27.4,54.5,84.1-0.9,24.7-9.3C1219,502.1,1200.6,507.8,1202.1,524.8z"/>
			<path class="st4" d="M1191.4,524.3c3-1.1,4.3-5.2,2.9-9s-5.1-6-8.1-4.9s-4.3,5.2-2.9,9C1184.7,523.3,1188.4,525.5,1191.4,524.3z"
				/>
			<path class="st4" d="M1200.5,508.6c3.6-1.3,4.9-6.6,2.9-11.8c-1.9-5.2-6.4-8.3-10-6.9c-3.6,1.3-4.9,6.6-2.9,11.8
				C1192.5,506.8,1196.9,509.9,1200.5,508.6z"/>
			<path class="st4" d="M1219.2,501.5c3.6-1.3,4.9-6.6,2.9-11.8c-1.9-5.2-6.4-8.3-10-6.9c-3.6,1.3-4.9,6.6-2.9,11.8
				S1215.7,502.9,1219.2,501.5z"/>
			<path class="st4" d="M1231.4,493.4c-3,1.1-4.3,5.2-2.9,9s5.1,6,8.1,4.9s4.3-5.2,2.9-9C1238.1,494.4,1234.4,492.2,1231.4,493.4z"
				/>
		</g>
		<path class="st4" d="M1266,463c-27.4,54.5,84.1-0.9,24.7-9.3C1282.9,440.4,1264.5,446.1,1266,463z"/>
		<path class="st4" d="M1255.2,462.9c3-1.1,4.3-5.2,2.9-9s-5.1-6-8.1-4.9s-4.3,5.2-2.9,9S1252.2,464,1255.2,462.9z"/>
		<path class="st4" d="M1264.3,447.1c3.6-1.3,4.9-6.6,2.9-11.8c-1.9-5.2-6.4-8.3-10-6.9c-3.6,1.3-4.9,6.6-2.9,11.8
			S1260.7,448.5,1264.3,447.1z"/>
		<path class="st4" d="M1283,440.1c3.6-1.3,4.9-6.6,2.9-11.8c-1.9-5.2-6.4-8.3-10-6.9c-3.6,1.3-4.9,6.6-2.9,11.8
			C1275,438.3,1279.4,441.4,1283,440.1z"/>
		<path class="st4" d="M1295.2,431.9c-3,1.1-4.3,5.2-2.9,9s5.1,6,8.1,4.9s4.3-5.2,2.9-9C1301.8,432.9,1298.2,430.8,1295.2,431.9z"/>
	</g>
</g>
<g id="_x30_7_x5F_CHILLY">
	<g>
		<g>
			<defs>
				<rect id="SVGID_1_" x="-68.8" y="-937.5" width="2103.6" height="784.4"/>
			</defs>
			<clipPath id="SVGID_2_">
				<use xlink:href="#SVGID_1_"  style="overflow:visible;"/>
			</clipPath>
		</g>
	</g>
</g>
<g id="_x30_8_x5F_CAUGHT_IN_CRACK">
</g>
<g id="_x30_9_x5F_WEATHER">
</g>
<g id="_x31_0_x5F_FIRES">
</g>
<rect x="1127.3" y="106.5" class="st5" width="275.4" height="275.4"/>
</svg>
