<?xml version="1.0" encoding="utf-8"?>
<!-- Generator: Adobe Illustrator 23.0.6, SVG Export Plug-In . SVG Version: 6.00 Build 0)  -->
<svg version="1.1" xmlns="http://www.w3.org/2000/svg" xmlns:xlink="http://www.w3.org/1999/xlink" x="0px" y="0px"
	 viewBox="0 0 1966 648" style="enable-background:new 0 0 1966 648;" xml:space="preserve">
<style type="text/css">
	.st0{fill:#00B6CF;}
	.st1{fill:#C09C55;}
	.st2{fill:#FDB615;}
	.st3{fill:#5E54A4;}
	.st4{fill:#DF1C4D;}
	.st5{fill:#4C4D4D;}
	.st6{fill:#7D7D7D;}
	.st7{fill:#4F3613;}
	.st8{fill:#010101;}
	.st9{fill:#B1E1EB;}
	.st10{fill:#60CAE6;}
	.st11{clip-path:url(#SVGID_2_);fill:#FFFFFF;}
	.st12{clip-path:url(#SVGID_4_);fill:#FFFFFF;}
	.st13{clip-path:url(#SVGID_6_);fill:#FFFFFF;}
	.st14{clip-path:url(#SVGID_8_);fill:#FFFFFF;}
	.st15{clip-path:url(#SVGID_10_);fill:#FFFFFF;}
	.st16{clip-path:url(#SVGID_12_);fill:#FFFFFF;}
	.st17{clip-path:url(#SVGID_14_);fill:#FFFFFF;}
	.st18{clip-path:url(#SVGID_16_);fill:#FFFFFF;}
	.st19{clip-path:url(#SVGID_18_);fill:#FFFFFF;}
	.st20{fill:#FFFFFF;}
	.st21{clip-path:url(#SVGID_20_);fill:#4C4D4D;}
	.st22{fill:#CCCBCA;}
	.st23{fill:#1D2959;}
	.st24{fill:none;stroke:#000000;stroke-width:8;stroke-linecap:round;stroke-linejoin:round;stroke-miterlimit:10;}
	.st25{clip-path:url(#SVGID_22_);}
	.st26{fill:#F8971D;}
	.st27{clip-path:url(#SVGID_22_);fill:#DF1C4D;}
	.st28{clip-path:url(#SVGID_22_);fill:#5E54A4;}
	.st29{clip-path:url(#SVGID_24_);}
	.st30{clip-path:url(#SVGID_24_);fill:#F8971D;}
	.st31{fill:#2CBAA8;}
	.st32{clip-path:url(#SVGID_24_);fill:#DF1C4D;}
	.st33{fill:#009444;}
	.st34{fill:#8DC63F;}
	.st35{fill-rule:evenodd;clip-rule:evenodd;fill:#FDB615;}
	.st36{clip-path:url(#SVGID_26_);}
	.st37{clip-path:url(#SVGID_26_);fill:#00B6CF;}
	.st38{clip-path:url(#SVGID_28_);}
	.st39{clip-path:url(#SVGID_28_);fill:#FDB615;}
	.st40{fill:#00B6CF;stroke:#00B6CF;stroke-width:20;stroke-linecap:round;stroke-miterlimit:10;}
	.st41{fill:#F78F1E;}
	.st42{fill:none;stroke:#DF1C4D;stroke-miterlimit:10;}
	.st43{fill:#00A9BF;}
	.st44{fill:#058FB3;}
	.st45{fill:#FDF391;}
	.st46{fill:#C1D730;}
	.st47{fill:#FCEC13;}
	.st48{fill:#FBD81C;}
	.st49{fill:#11AE55;}
	.st50{fill:#0FA84C;}
	.st51{fill:#EC5283;}
	.st52{fill:#EF3F3B;}
	.st53{fill:#F04B39;}
	.st54{fill:#D9E25A;}
	.st55{fill:#F99D2B;}
	.st56{fill:#FCD502;}
	.st57{fill:#EE5963;}
	.st58{fill:#65CBE6;}
</style>
<g id="Layer_1">
	<rect x="-63.5" y="-72" class="st3" width="2103.6" height="784.4"/>
</g>
<g id="_x30_1_x5F_RUBBLE">
</g>
<g id="_x30_2_x5F_COUGHING">
</g>
<g id="_x30_3_x5F_THIRSTY">
</g>
<g id="_x30_4_x5F_HUNGRY">
</g>
<g id="_x30_5_x5F_FIRSTAID">
</g>
<g id="_x30_6_x5F_LOST_PET">
</g>
<g id="_x30_7_x5F_CHILLY">
</g>
<g id="_x30_8_x5F_CAUGHT_IN_CRACK">
</g>
<g id="_x30_9_x5F_WEATHER">
</g>
<g id="_x31_0_x5F_FIRES">
	<path class="st41" d="M845.5,230.1c0,0-410.1,431.7,36.9,468.2l299.2-19.7c0,0,155.6-289.3,29.7-357.9l-140.6,202.5l1.4-506.4
		L917.3,475.2L845.5,230.1z"/>
	<path class="st2" d="M815.5,348.9c0,0-137.5,323,90.3,349.5l268.2-17.7l31.7-222.4l-131.1,83.1l-41.2-291.1l-96.3,248L815.5,348.9z
		"/>
	<path class="st42" d="M898.8,511.3c0,0-71.8,168.8,47.2,182.6l140.1-9.2l16.6-116.2l-68.5,43.4l-21.5-152.1l-50.3,129.6
		L898.8,511.3z"/>
	<path class="st41" d="M1699.8,243.5c0,0,286.8,301.9-25.8,327.5l-209.3-13.8c0,0-108.8-202.3-20.8-250.3l98.3,141.6l-1-354.1
		l108.3,320.5L1699.8,243.5z"/>
	<path class="st2" d="M1720.8,326.5c0,0,96.2,225.9-63.1,244.4l-187.6-12.4L1448,403l91.7,58.1l28.8-203.5l67.4,173.4L1720.8,326.5z
		"/>
	<path class="st42" d="M1662.5,440.1c0,0,50.2,118-33,127.7l-98-6.5l-11.6-81.3l47.9,30.4l15-106.4l35.2,90.6L1662.5,440.1z"/>
	<path class="st41" d="M235.2,243.5c0,0-286.8,301.9,25.8,327.5l209.3-13.8c0,0,108.8-202.3,20.8-250.3l-98.3,141.6l1-354.1
		L285.4,414.8L235.2,243.5z"/>
	<path class="st2" d="M214.2,326.5c0,0-96.2,225.9,63.1,244.4l187.6-12.4L487,403l-91.7,58.1l-28.8-203.5L299.2,431L214.2,326.5z"/>
	<path class="st42" d="M272.5,440.1c0,0-50.2,118,33,127.7l98-6.5l11.6-81.3l-47.9,30.4l-15-106.4l-35.2,90.6L272.5,440.1z"/>
	<g>
		<g>
			<path class="st6" d="M490.2,241.6c-1.9,0.2-3.9,0-5.8-0.2c-0.7-0.1-0.5-0.1-1.3-0.2c-0.7-0.1-1.3-0.2-2-0.3
				c-1.4-0.2-2.8-0.5-4.1-0.7c-6.4-1.2-12.8-2.6-19.3-3.5c-10.7-1.5-26.2-3.2-33.4,7c-2.8,3.9-3.8,9.2-1.4,13.5
				c2.2,4.1,6.6,6.8,10.7,8.7c11.3,5.2,24.3,7.1,36.6,7.8c5.5,0.3,11.1,0.3,16.5-0.5c1.9-0.3,3.7-0.6,5.5-1.3
				c3.3-1.3,6.4-3.4,9.3-5.3c15.6-10.6,29.5-26.6,33.6-45.4c2-9.2,1.5-19-2.3-27.7c-2.7-6.3-7.8-11.2-13.4-15
				c-12.2-8.5-28.7-13-43.4-10c-3.4,0.7-6.7,1.9-9.7,3.6c-1.5,0.9-3,1.9-4.2,3c-1.2,1-1.4,2.6-1.3,4.1c0.4,5.4,5.2,9.2,9.4,11.8
				c5.7,3.6,12.2,6.1,18.7,8.1c6,1.9,12.3,3.3,18.6,3.8c7.5,0.5,14.8-2.5,21.4-5.8c9-4.5,17.3-10.6,24.6-17.5
				c12.6-12.1,20.1-28.2,24-45.1c3.7-16.1,4.8-34.7-2.6-50c-3.5-7.2-8.6-13.7-14-19.5c-6.1-6.5-13-12.3-20.5-17.2
				c-12.9-8.5-32.6-17.2-46.7-6.4C490,44,487,48,485,52.4c-1.4,3.1-2.3,6.6-1.1,9.9c1.2,3.1,3.7,5.3,6.5,7c3.8,2.3,7.9,4,12,5.6
				c19.2,7.6,40.3,9.7,60.7,6.8c10.1-1.4,20-4.2,29.4-8.1c8.7-3.6,17.3-8.1,24.3-14.4c11.6-10.4,17.6-25.3,19.8-40.5
				c2.3-16,1-32.3-1.4-48.2c-1.1-7.2-2.4-14.4-3.9-21.5c-0.6-3.2-5.5-1.8-4.8,1.3c3.4,17,6.3,34.2,6.3,51.5
				c-0.1,16.7-3,34.6-13.8,47.8c-6.1,7.5-14.1,12.6-22.7,16.8c-10.2,5-21.2,8.4-32.5,10.2c-22.4,3.6-45.6,0.4-66.2-9.1
				c-3-1.4-7-3.2-8.6-5.9c-0.7-1.1-0.9-2.1-0.7-3.6c0.2-1.7,1.1-3.6,2-5.2c2.4-4.3,5.9-8.1,10.5-10.1c4-1.7,8.5-1.8,12.8-1.1
				c8.9,1.5,17.3,5.7,24.7,10.7c8.2,5.4,15.6,12.1,22,19.5C565.9,78,570.7,85,573,92.9c2.7,9.1,2.8,18.7,1.8,28.1
				c-1.1,9.9-3.6,19.7-7.4,28.9c-3.4,8.4-8.1,16.4-14.4,23c-7.6,8-16.7,14.8-26.6,19.8c-4.6,2.3-9.5,4.1-14.6,5
				c-0.6,0.1,0.4,0-0.2,0c-0.3,0-0.5,0-0.8,0.1c-0.6,0-1.2,0-1.9,0c-1.4,0-2.8-0.2-4.1-0.3c-6.9-0.8-14.5-3-21.3-5.6
				c-5.9-2.3-12.4-5.1-16.4-9.9c-0.3-0.4-1.1-1.8-1.2-2.2c-0.1-0.2-0.1-0.5-0.2-0.7c-0.1-0.4,0,0.4,0-0.2c0-0.3,0-0.5,0-0.8
				c0-0.3,0.1,0.4,0,0.1c0-0.1,0.1-0.4,0.1-0.5c-0.2,0.4-0.4,0.7-0.6,1.1c8.1-7.1,20.2-7.4,30.2-5.3c10.8,2.3,21.8,7.4,29,15.9
				c8.3,9.7,8.2,24.5,4.2,36.1c-4.7,13.8-15,25.8-26.6,34.5c-2.9,2.2-5.9,4.1-9.1,5.9c-0.6,0.3-1.1,0.6-1.7,0.9
				c-0.4,0.2-0.6,0.3-0.2,0.1c-0.6,0.2-1.2,0.4-1.8,0.6c-0.7,0.2-1.4,0.3-2.1,0.5c-0.4,0.1-0.8,0.1-1.3,0.2c-0.1,0-0.3,0-0.4,0.1
				c0.6-0.1-0.4,0-0.5,0.1c-2,0.2-3.9,0.3-5.9,0.4c-9.4,0.3-18.9-0.7-28-2.6c-4.6-1-9.1-2.2-13.4-3.9c-3-1.2-6.6-3.1-8.8-5.3
				c-0.2-0.2-0.5-0.5-0.7-0.7c-0.1-0.1-0.3-0.3-0.4-0.5c0.4,0.5,0,0-0.1-0.1c-0.2-0.3-0.3-0.5-0.5-0.8c-0.2-0.3-0.5-1-0.3-0.6
				c-0.1-0.3-0.2-0.6-0.3-0.9c-0.1-0.2-0.2-1-0.1-0.4c0-0.4-0.1-0.7,0-1.1c0-0.2,0-0.3,0-0.5c0-0.7-0.1,0.3,0-0.2
				c0.4-2,0.9-3.4,2.1-5.1c0.5-0.6-0.2,0.2,0.1-0.2c0.1-0.2,0.3-0.3,0.4-0.5c0.3-0.4,0.7-0.7,1-1c0.5-0.4,1.2-0.9,2-1.3
				c3.3-1.8,7.6-2.4,11.6-2.4c4.9-0.1,9.8,0.4,14.6,1.2c9.2,1.4,18.3,3.9,27.5,4.7c1.3,0.1,2.7,0.2,4.1,0c1.3-0.2,2.5-1,2.5-2.5
				C492.7,242.8,491.5,241.4,490.2,241.6L490.2,241.6z"/>
		</g>
	</g>
	<g>
		<g>
			<path class="st6" d="M929,27.8c-4.4-2.7-9.8-3.6-14.8-2.3c-5.1,1.3-9.3,4.7-11.7,9.3c-5.7,11.1-1,25,7.5,33.4
				c3.8,3.8,8.6,7.3,13.7,9c3.1,1,6.6,1.3,9.9,1.3c3.4,0,7.4-0.5,10.1-3c2.8-2.5,3-7.1,0.4-9.9c-2.5-2.7-6.7-3.2-10.2-3.3
				c-3.9-0.1-7.9,0.3-11.6,1.2c-9.6,2.3-14.8,12.3-16.8,21.3c-1.3,5.8-1.5,12,0.1,17.8c1.4,5.2,4.3,9.7,8.3,13.3
				c3.8,3.5,8.2,6.4,12.9,8.8c4.1,2.1,8.9,4.1,13.6,3.9c4.4-0.1,8.9-1.6,12.8-3.5c3.9-2,7.5-5.1,7.9-9.7
				c0.7-9.1-10.9-11.1-17.6-11.7c-1.6-0.1-3.2-0.2-4.8-0.2c-3.3-0.1-6.5,0.7-9.6,1.5c-2.9,0.7-5.7,1.1-8.6,1.6
				c-2.3,0.4-4.5,1-6.4,2.3c-4.9,3.3-8.5,8.7-10.8,14.1c-2.3,5.4-3.6,11.4-3.5,17.3c0.3,12.5,6.5,24.2,12.4,35c2.5,4.6,5,9.2,8.8,13
				c3.3,3.3,7.2,5.8,11.5,7.6c9.8,4.1,21.6,6.2,31.7,2c4.9-2.1,9.1-5.5,12.2-9.8c1.9-2.7,3.3-6,3.1-9.3c-0.4-6.5-5.9-11-11.3-13.7
				c-6.6-3.2-14-4.9-21.3-5.3c-3.3-0.2-6.6-0.1-9.9,0.5c-4.7,0.9-9.2,3.2-13.3,5.5c-5.2,2.9-10.1,6.2-14.8,9.8
				c-4.8,3.7-9,8-12.4,13.1c-3.2,4.8-5.7,10.3-6.6,16c-0.2,1.3,0.3,2.7,1.7,3.1c1.2,0.3,2.9-0.4,3.1-1.7
				c1.6-10.4,8.5-19.8,16.7-26.1c4.2-3.3,8.7-6.3,13.3-9c3.9-2.3,8.2-4.5,12.6-5.6c0.6-0.1,1.2-0.2,1.7-0.3c0.7-0.1-0.2,0,0.5-0.1
				c0.3,0,0.7-0.1,1-0.1c1.5-0.1,2.9-0.2,4.4-0.1c3.5,0.1,6.1,0.4,9.2,1c3.2,0.6,6.3,1.5,9.2,2.7c0.4,0.2,1,0.4,1.8,0.8
				c0.7,0.3,1.4,0.7,2,1c0.6,0.3,1.2,0.7,1.8,1.1c0.3,0.2,0.5,0.4,0.8,0.5c0.1,0.1,0.3,0.2,0.4,0.3c0.1,0.1,0.1,0.1-0.1-0.1
				c0.1,0.1,0.2,0.2,0.3,0.3c0.5,0.4,0.9,0.8,1.3,1.2c0.2,0.2,0.4,0.5,0.7,0.7c0.1,0.1,0.2,0.2,0.2,0.3c0.1,0.1,0.2,0.2,0.2,0.3
				c-0.2-0.2-0.2-0.3-0.1-0.1c0.3,0.5,0.6,0.9,0.9,1.4c0.1,0.2,0.5,1,0.2,0.4c0.1,0.3,0.2,0.5,0.3,0.8c0.1,0.3,0.2,0.6,0.2,0.8
				c0,0.1,0.1,0.3,0.1,0.4c0.1,0.4,0-0.6,0-0.1c0,0.6,0,1.2,0,1.8c0.1-0.7-0.1,0.3-0.1,0.4c-0.1,0.3-0.1,0.6-0.2,0.9
				c-0.1,0.3-0.2,0.6-0.3,0.9c-0.2,0.7,0.2-0.5-0.1,0.2c-0.1,0.2-0.2,0.4-0.3,0.6c-1.7,3.4-4.6,6.3-8,8.4c-4.1,2.5-8.9,3.6-13.8,3.5
				c-4.8-0.1-9.5-1.2-14.1-2.7c-3.7-1.2-7.3-2.9-10.3-5.2c-3.4-2.6-6-6-8.2-9.7c-2.7-4.6-5.2-9.4-7.5-14.2c-4.7-9.7-8.3-20.3-6-31.2
				c1.1-5.1,3.1-10.1,6.3-14.3c1.5-1.9,3.2-3.8,5.2-5.1c1.6-1,3.5-1.3,5.4-1.6c2.6-0.4,5.2-0.8,7.8-1.4c2.7-0.7,5.4-1.4,8.3-1.3
				c1.5,0,3.1,0.1,4.6,0.2c1.9,0.2,2.9,0.3,4.7,0.6c0.8,0.2,1.6,0.4,2.5,0.6c0.4,0.1,0.8,0.3,1.2,0.4c0.2,0.1,0.3,0.1,0.5,0.2
				c0.5,0.2-0.2-0.1,0.3,0.1c0.7,0.3,1.4,0.7,2,1.2c-0.4-0.3,0.3,0.3,0.4,0.4c0.1,0.1,0.2,0.3,0.4,0.4c0.5,0.5-0.2-0.4,0.1,0.1
				c0.2,0.3,0.4,0.6,0.5,0.9c-0.2-0.5,0.1,0.3,0.1,0.5c0,0.1,0.1,0.6,0,0.1c0,0.1,0,0.3,0,0.5c0,0.2,0,0.5,0,0.7
				c0,0.5,0.1-0.2-0.1,0.4c0,0.2-0.3,0.9-0.2,0.8c0-0.1-0.3,0.5-0.4,0.7c-0.1,0.2-0.2,0.3-0.5,0.7c-0.4,0.4-0.8,0.8-1.2,1.1
				c-2.7,2.1-6.7,3.6-10.2,4.3c-0.5,0.1-0.9,0.2-1.4,0.2c0.4-0.1-0.1,0-0.1,0c-0.3,0-0.5,0.1-0.8,0.1c-0.8,0.1-1.6,0.1-2.4,0
				c-1.5-0.2-3.9-0.9-5.6-1.5c-4.3-1.6-8.3-4-11.9-6.7c-3.5-2.5-6.7-5.4-8.7-9.2c-4.6-8.5-3.5-19.6,0.7-28c1-2.1,2.2-4.1,3.8-5.8
				c0.6-0.7,1.3-1.4,2.1-1.9c0.5-0.3,0.9-0.6,1.4-0.9c0.2-0.1,0.4-0.2,0.6-0.3c0.7-0.4,0.2-0.1,0.2-0.1c1.2-0.4,2.4-0.8,3.7-1
				c1.9-0.4,2.9-0.5,4.7-0.7c1.8-0.1,3.6-0.2,5.4-0.1c0.4,0,0.8,0.1,1.2,0.1c0.5,0.1-0.6-0.1,0.2,0c0.2,0,0.3,0.1,0.5,0.1
				c0.8,0.2,1.6,0.4,2.4,0.7c-0.5-0.2,0.2,0.1,0.3,0.2c0.2,0.1,0.9,0.6,0.4,0.2c0.2,0.2,0.4,0.4,0.6,0.6c-0.5-0.6,0.2,0.6,0.1,0.2
				c-0.1-0.3,0.1,0.5,0.1,0.6c-0.1-0.5,0,0.5,0,0.6c0,0.5,0,0,0-0.1c0,0.2-0.1,0.4-0.1,0.5c0,0.1-0.2,0.4,0.1-0.1
				c-0.1,0.2-0.2,0.3-0.3,0.5c-0.3,0.5,0.3-0.3,0,0c-0.1,0.1-0.2,0.2-0.3,0.3c-0.4,0.5,0.2,0-0.4,0.3c-0.3,0.1-0.5,0.3-0.8,0.4
				c-0.4,0.2,0.6-0.2-0.1,0c-0.2,0.1-0.4,0.1-0.6,0.2c-0.7,0.2-1.4,0.4-2.1,0.5c-0.1,0-0.6,0.1-0.2,0c-0.2,0-0.3,0-0.5,0.1
				c-0.5,0-1,0.1-1.5,0.1c-1.6,0.1-3.2,0-4.8-0.2c-0.2,0-1.1-0.1-0.6-0.1c-0.4-0.1-0.7-0.1-1.1-0.2c-0.6-0.1-1.3-0.2-1.9-0.4
				c-4.1-1.1-7.8-3.8-10.9-6.6c-3.9-3.4-6.8-7.4-8.5-12.3c-1.7-5-2.3-10.5-0.2-15.4c1.7-3.9,4.8-6.9,9-8c3.8-1,7.7-0.3,11.1,1.8
				C929.2,33.8,931.7,29.5,929,27.8L929,27.8z"/>
		</g>
	</g>
	<g>
		<g>
			<path class="st6" d="M1112.5,326.7c8.5-0.2,17.2-0.8,25-4.5c7.2-3.4,12.6-9.6,17.1-16c3-4.2,5.7-8.7,8.3-13.2
				c2.8-5,5.3-10.2,7.1-15.6c3-9.5,3.5-21.6-3.7-29.5c-4.3-4.8-11-7.2-17.2-8.1c-6.5-1-13.4-0.9-19.5,1.7c-2.5,1.1-4.8,2.8-6.4,5.2
				c-1.6,2.5-2,5.6-1.4,8.5c0.6,3.2,2.1,5.8,4.7,7.7c2.9,2,6.4,3.2,9.7,4.2c7.3,2.2,14.9,3.4,22.5,4.2c9.1,1,18.5,0.5,26.9-3.5
				c9.3-4.4,16.5-12.6,21.4-21.6c5.1-9.3,8.4-19.7,9.2-30.3c0.4-4.9,0.1-9.9-1-14.6c-0.9-3.8-2.5-7.4-4.1-10.8
				c-4.1-8.4-9.4-16.3-15.7-23.1c-2.9-3.2-6.1-6.1-9.8-8.5c-3.4-2.2-7.1-3.5-11.2-3.9c-6.8-0.7-14,2-16.9,8.6
				c-2.7,6.2-0.9,13.3,3.6,18.2c2.7,2.9,6.3,4.9,10.1,6.1c4.6,1.4,9.6,2.1,14.4,1.8c8.2-0.4,15.2-4,21.2-9.5
				c5.8-5.4,10.3-11.9,15.5-17.7c2.7-3,5.5-5.9,8.7-8.5c1-0.9,0.9-2.6,0-3.5c-1-1-2.5-0.9-3.5,0c-6.1,4.9-10.9,11.1-15.8,17.1
				c-4.4,5.4-9,10.8-15,14.1c-2.8,1.6-6.3,2.7-9.5,3c-4.4,0.5-8.8-0.1-13.1-1.1c-3.3-0.8-6.4-2.3-8.7-4.5c-0.5-0.5-1-1.1-1.5-1.6
				c0.3,0.3-0.3-0.5-0.4-0.6c-0.2-0.3-0.4-0.7-0.6-1c-0.2-0.3-0.3-0.6-0.4-0.9c-0.1-0.2-0.2-0.3-0.2-0.5c-0.2-0.4,0.2,0.5,0-0.1
				c-0.2-0.7-0.4-1.3-0.6-2c-0.1-0.3-0.1-0.7-0.2-1c0.1,0.6,0-0.4,0-0.5c0-0.7,0-1.3,0-2c0-0.2,0-0.3,0-0.5c0-0.4-0.1,0.6,0,0
				c0.1-0.3,0.1-0.6,0.2-0.9c0.1-0.3,0.1-0.6,0.2-0.8c0.1-0.2,0.5-1.1,0.2-0.6c0.2-0.6,0.5-1.1,0.9-1.6c0.2-0.2,0.3-0.5,0.5-0.7
				c-0.4,0.5,0.4-0.4,0.5-0.5c0.2-0.2,0.5-0.5,0.7-0.7c0.1-0.1,0.2-0.2,0.3-0.3c0.5-0.4-0.3,0.2,0,0c0.6-0.4,1.2-0.8,1.9-1.1
				c0.1-0.1,0.3-0.1,0.4-0.2c-0.5,0.2,0,0,0.1,0c0.3-0.1,0.6-0.2,1-0.3c0.4-0.1,0.7-0.2,1.1-0.3c0.2,0,0.4-0.1,0.6-0.1
				c0.6-0.1,0,0,0.4-0.1c1.6-0.2,3.6-0.1,5,0.1c0.9,0.1,1.8,0.3,2.7,0.6c0.4,0.1,0.7,0.2,1.1,0.4c0.1,0.1,0.3,0.1,0.4,0.2
				c0.4,0.2-0.1-0.1,0.4,0.2c1.5,0.7,3,1.6,4.4,2.6c6.6,4.7,12.1,11.8,16.6,18.7c2.3,3.5,4.4,7.2,6.2,11c1.4,2.9,2.6,5.9,3.4,9.2
				c2.1,9.1,0.6,18.9-2.2,27.7c-2.8,8.7-7.1,17.4-13.4,24.1c-3.3,3.5-7.1,6.5-11.5,8.6c-4,1.9-8.4,3-12.8,3.3
				c-3.9,0.3-7.8,0.1-11.7-0.3c-0.6-0.1-1.2-0.1-1.8-0.2c-0.4,0-0.7-0.1-1.1-0.1c-0.2,0-0.3,0-0.5-0.1c-0.5-0.1,0.2,0-0.4-0.1
				c-1.7-0.2-3.4-0.5-5-0.8c-3.8-0.6-7.6-1.4-11.3-2.5c-3.4-0.9-6.2-1.8-9-3.6c-0.3-0.2-0.5-0.3-0.8-0.5c-0.1-0.1-0.3-0.2-0.4-0.3
				c0.4,0.3,0.2,0.1,0.1,0c-0.2-0.2-0.4-0.4-0.6-0.6c-0.1-0.1-0.2-0.2-0.3-0.3c-0.4-0.4,0.2,0.3,0-0.1c-0.1-0.2-0.2-0.4-0.3-0.6
				c-0.2-0.3,0.3,0.7,0,0c-0.1-0.1-0.1-0.3-0.2-0.4c-0.3-0.7-0.5-1.4-0.6-2.2c0-0.2-0.1-0.3-0.1-0.5c0.1,0.6,0,0.2,0,0.1
				c0-0.3-0.1-0.6-0.1-0.9c0-0.3,0-0.6,0-0.9c0-0.1,0-0.2,0-0.3c-0.1,0.7,0,0.1,0-0.1c0.1-0.2,0.1-0.5,0.2-0.7
				c0.1-0.2,0.4-1,0.1-0.3c0.2-0.5,0.5-0.9,0.8-1.4c0.4-0.6-0.3,0.2,0.2-0.3c0.2-0.2,0.4-0.4,0.6-0.6c0.2-0.2,0.4-0.4,0.6-0.6
				c0.5-0.4-0.2,0.1,0.3-0.2c0.5-0.3,1-0.7,1.5-0.9c0.2-0.1,0.5-0.2,0.8-0.4c0.1-0.1,0.3-0.1,0.4-0.2c-0.6,0.3,0,0,0.1,0
				c1.3-0.5,2.6-0.8,3.9-1.1c0.4-0.1,0.7-0.1,1.1-0.2c0.1,0,0.3,0,0.4-0.1c-0.5,0.1,0,0,0.1,0c0.8-0.1,1.6-0.2,2.3-0.2
				c1.5-0.1,3.1-0.1,4.6,0c0.7,0,1.4,0.1,2.1,0.2c0.8,0.1-0.5-0.1,0.3,0c0.2,0,0.3,0,0.5,0.1c0.4,0.1,0.9,0.1,1.3,0.2
				c1.5,0.3,3,0.7,4.5,1.1c0.7,0.2,1.4,0.5,2,0.7c0.1,0.1,0.3,0.1,0.4,0.2c0.7,0.3-0.4-0.2,0.2,0.1c0.3,0.1,0.7,0.3,1,0.5
				c1.3,0.6,2.5,1.3,3.6,2.2c0,0,0.5,0.4,0.2,0.2c-0.3-0.2,0.2,0.2,0.2,0.2c0.3,0.2,0.5,0.4,0.7,0.7c0.5,0.4,0.9,0.9,1.3,1.4
				c0.5,0.5-0.1-0.2,0.3,0.4c0.2,0.3,0.4,0.6,0.6,1c0.6,1.1,1.2,2.2,1.6,3.3c0.8,2.3,1.3,4.7,1.4,7.2c0.4,10.2-4.5,20-9.5,28.6
				c-4.3,7.4-8.9,14.9-15.2,20.7c-2.3,2.1-4.8,3.8-7.9,5.2c-0.2,0.1-0.4,0.2-0.6,0.3c0.4-0.2,0,0-0.1,0c-0.4,0.2-0.8,0.3-1.2,0.4
				c-0.8,0.3-1.7,0.6-2.6,0.8c-1.7,0.5-3.5,0.8-5.2,1.1c-3.8,0.6-8.2,0.8-12.3,0.9C1109.3,321.8,1109.3,326.8,1112.5,326.7
				L1112.5,326.7z"/>
		</g>
	</g>
	<g>
		<g>
			<path class="st6" d="M1497,319.2c3.6-3.8,5.4-8.9,6.3-13.9c1-5.7,1.2-11.6,0.9-17.4c-0.3-5.4-0.8-10.9-2.1-16.1
				c-1.5-6.3-4.2-12.4-7.7-17.9c-7.1-11.3-17.2-20.6-28.4-27.7c-5.8-3.7-12.1-7.1-18.9-8.1c-6.9-1.1-13.8,0-20.4,2.3
				c-4.7,1.7-9.8,3.3-14.1,5.9c-4.3,2.5-7.6,6.6-7.1,11.8c0.4,4.4,2.8,8.4,7.2,9.6c4.1,1.1,8.5-0.2,12.3-1.6
				c4.3-1.7,8.3-3.9,12.3-6.3c3.8-2.3,7.6-4.7,11-7.7c9.3-8.1,14.6-19.8,15.3-32.1c0.4-6.3-0.5-12.8-2.4-18.9
				c-1.9-6.2-4-12.4-6-18.5c-2-6.3-4.2-12.6-7.4-18.4c-3-5.6-7.2-10.7-11.9-15c-9.6-8.7-21.9-13.9-34.9-14.5
				c-10.3-0.4-21.2-1.7-31.3,1.4c-5,1.5-9.5,4.2-12.6,8.5c-0.7,1-1.9,2.4-1.9,3.7c0,1.4,1.2,3.2,1.9,4.4c1.5,2.7,3.4,5.2,5.4,7.4
				c4.2,4.6,9.4,8.5,15.3,10.8c5.4,2.1,11,2,16.4-0.1c10.1-4.1,17.1-13.1,22.3-22.4c2.7-4.9,5-10.1,7.1-15.3
				c2-5.1,4.2-10.2,5.7-15.5c4-13.9,1.5-28.1-4.4-41.1c-3-6.5-6.7-12.6-10.7-18.5c-4-5.9-8.3-11.8-13-17.2
				c-7.9-9.1-17.4-16.4-28.1-21.8c-11.5-5.9-23.8-10-36.1-14c-6.2-2-12.6-4.3-17.8-8.3c-1.1-0.8-2.5-1-3.5,0c-0.9,0.9-1.1,2.7,0,3.5
				c8,6.2,17.8,8.9,27.3,11.9c8.8,2.8,17.6,6.2,25.9,10.3c7.6,3.7,14.7,8.2,21,13.9c7.4,6.7,13.4,14.6,19.1,22.7
				c11.7,16.7,21.6,36.7,15.5,57.5c-1.1,3.8-2.7,7.6-4.1,11.3c-1.4,3.6-2.8,7.2-4.4,10.7c-3.3,7.2-7.2,14.5-12.8,20.2
				c-4.8,5-11.8,9.7-19.1,8.7c-8.4-1.1-16.1-7.6-20.8-14.4c-1.2-1.7-2.2-3.4-3-5.3c-0.1,0.6-0.2,1.3-0.3,1.9
				c5.9-10.8,20.2-10.7,30.8-10.3c6.2,0.2,12.6,0.2,18.6,1.5c7,1.5,13.5,4.6,19.2,8.8c5.7,4.2,10.8,9.7,14.3,15.8
				c3.7,6.4,6,13.5,8.2,20.5c1.1,3.6,2.2,7.2,3.4,10.8c1.1,3.3,2.3,6.6,3,10.1c1.4,6.7,1.5,13.7,0,20.4c-1.5,6.5-4.6,12.6-9.1,17.6
				c-3.7,4.1-8.2,7.1-12.9,10.1c-4.1,2.6-8.4,5.1-13,6.7c-2.1,0.8-4.3,1.4-6.4,1.4c-1,0-1.4,0-2.3-0.3c-0.6-0.2-1.3-0.6-1.7-1
				c-1.1-1.2-1.9-3.7-1.6-5.7c0.3-2.2,2.1-3.8,3.8-5c2.2-1.4,4.6-2.4,7-3.3c3.2-1.2,6.3-2.5,9.6-3.5c7.4-2.2,14.9-2.3,22.1,0.6
				c6.9,2.7,13.5,7.2,19.3,11.9c11.4,9.2,21.3,21.3,24.9,35.8c1.4,5.8,2,12,2.1,18c0.2,6.3-0.1,12.7-2.1,18.7
				c-0.8,2.3-2,4.6-3.7,6.4C1491.2,318,1494.7,321.5,1497,319.2L1497,319.2z"/>
		</g>
	</g>
</g>
</svg>
