<?xml version="1.0" encoding="utf-8"?>
<!-- Generator: Adobe Illustrator 23.0.6, SVG Export Plug-In . SVG Version: 6.00 Build 0)  -->
<svg version="1.1" xmlns="http://www.w3.org/2000/svg" xmlns:xlink="http://www.w3.org/1999/xlink" x="0px" y="0px"
	 viewBox="0 0 1966 648" style="enable-background:new 0 0 1966 648;" xml:space="preserve">
<style type="text/css">
	.st0{fill:#00B6CF;}
	.st1{fill:#C09C55;}
	.st2{fill:#FDB615;}
	.st3{fill:#5E54A4;}
	.st4{fill:#DF1C4D;}
	.st5{fill:#4C4D4D;}
	.st6{fill:#7D7D7D;}
	.st7{fill:#4F3613;}
	.st8{fill:#010101;}
	.st9{fill:#B1E1EB;}
	.st10{fill:#60CAE6;}
	.st11{clip-path:url(#SVGID_2_);fill:#FFFFFF;}
	.st12{clip-path:url(#SVGID_4_);fill:#FFFFFF;}
	.st13{clip-path:url(#SVGID_6_);fill:#FFFFFF;}
	.st14{clip-path:url(#SVGID_8_);fill:#FFFFFF;}
	.st15{clip-path:url(#SVGID_10_);fill:#FFFFFF;}
	.st16{clip-path:url(#SVGID_12_);fill:#FFFFFF;}
	.st17{clip-path:url(#SVGID_14_);fill:#FFFFFF;}
	.st18{clip-path:url(#SVGID_16_);fill:#FFFFFF;}
	.st19{clip-path:url(#SVGID_18_);fill:#FFFFFF;}
	.st20{fill:#FFFFFF;}
	.st21{clip-path:url(#SVGID_20_);fill:#4C4D4D;}
	.st22{fill:#CCCBCA;}
	.st23{fill:#1D2959;}
	.st24{fill:none;stroke:#000000;stroke-width:8;stroke-linecap:round;stroke-linejoin:round;stroke-miterlimit:10;}
	.st25{clip-path:url(#SVGID_22_);}
	.st26{fill:#F8971D;}
	.st27{clip-path:url(#SVGID_22_);fill:#DF1C4D;}
	.st28{clip-path:url(#SVGID_22_);fill:#5E54A4;}
	.st29{clip-path:url(#SVGID_24_);}
	.st30{clip-path:url(#SVGID_24_);fill:#F8971D;}
	.st31{fill:#2CBAA8;}
	.st32{clip-path:url(#SVGID_24_);fill:#DF1C4D;}
	.st33{fill:#009444;}
	.st34{fill:#8DC63F;}
	.st35{fill-rule:evenodd;clip-rule:evenodd;fill:#FDB615;}
	.st36{clip-path:url(#SVGID_26_);}
	.st37{clip-path:url(#SVGID_26_);fill:#00B6CF;}
	.st38{clip-path:url(#SVGID_28_);}
	.st39{clip-path:url(#SVGID_28_);fill:#FDB615;}
	.st40{fill:#00B6CF;stroke:#00B6CF;stroke-width:20;stroke-linecap:round;stroke-miterlimit:10;}
	.st41{fill:#F78F1E;}
	.st42{fill:none;stroke:#DF1C4D;stroke-miterlimit:10;}
	.st43{fill:#00A9BF;}
	.st44{fill:#058FB3;}
	.st45{fill:#FDF391;}
	.st46{fill:#C1D730;}
	.st47{fill:#FCEC13;}
	.st48{fill:#FBD81C;}
	.st49{fill:#11AE55;}
	.st50{fill:#0FA84C;}
	.st51{fill:#EC5283;}
	.st52{fill:#EF3F3B;}
	.st53{fill:#F04B39;}
	.st54{fill:#D9E25A;}
	.st55{fill:#F99D2B;}
	.st56{fill:#FCD502;}
	.st57{fill:#EE5963;}
	.st58{fill:#65CBE6;}
</style>
<g id="Layer_1">
	<rect x="-63.5" y="-74.1" class="st1" width="2103.6" height="784.4"/>
</g>
<g id="_x30_1_x5F_RUBBLE">
</g>
<g id="_x30_2_x5F_COUGHING">
	<g>
		<defs>
			<rect id="SVGID_19_" x="-2254" y="-71.7" width="2103.6" height="784.4"/>
		</defs>
		<clipPath id="SVGID_2_">
			<use xlink:href="#SVGID_19_"  style="overflow:visible;"/>
		</clipPath>
		<path style="clip-path:url(#SVGID_2_);fill:#4C4D4D;" d="M-1178.2,357.2c0,113.4,92.2,205.6,205.6,205.6
			c25.3,0,49.9-4.5,73.2-13.4C-848.8,635.9-756.8,689-656,689c46.5,0,92.1-11.5,132.8-33.2c56.8,46.1,127.9,71.3,201.3,71.3
			c108.8,0,210.8-56.1,269.4-147.3c16.9,5.6,34.6,8.5,52.7,8.5c92.4,0,167.6-75.2,167.6-167.6c0-92.4-75.2-167.6-167.6-167.6
			c-1,0-2,0-3.1,0c0.5-6.7,0.8-13.4,0.8-20.1C-2,98.7-111.3-10.6-245.7-10.6c-65.1,0-126.5,25.6-172.1,71.1
			C-450.5-12.3-524.3-61.3-605.5-61.3c-69.9,0-134.2,35.1-172,92.9c-22.8-18.2-51.3-28.3-80.8-28.3c-71.4,0-129.5,58.1-129.5,129.5
			c0,6.5,0.5,13,1.4,19.3C-1093.3,159.2-1178.2,248.5-1178.2,357.2z M-967.4,166.7c-1.7,0-3.4,0.1-5.1,0.1c1.5,0,3-0.1,4.6-0.1
			C-967.8,166.7-967.6,166.7-967.4,166.7z"/>
	</g>
</g>
<g id="_x30_3_x5F_THIRSTY">
</g>
<g id="_x30_4_x5F_HUNGRY">
</g>
<g id="_x30_5_x5F_FIRSTAID">
</g>
<g id="_x30_6_x5F_LOST_PET">
</g>
<g id="_x30_7_x5F_CHILLY">
</g>
<g id="_x30_8_x5F_CAUGHT_IN_CRACK">
</g>
<g id="_x30_9_x5F_WEATHER">
	<path class="st6" d="M659.3,69.2c0.6-3.8,0.9-7.6,0.9-11.5c0-42.3-34.4-76.8-76.8-76.8c-17.5,0-34.4,6-47.9,16.8
		c-22.4-34.2-60.5-55.1-102-55.1c-48.1,0-91.9,29-111.3,72.2c-27-27-63.4-42.2-102-42.2c-79.7,0-144.5,64.8-144.5,144.5
		c0,4,0.2,7.9,0.5,11.9c-0.6,0-1.2,0-1.8,0c-54.8,0-99.4,44.6-99.4,99.4c0,54.8,44.6,99.4,99.4,99.4c10.7,0,21.2-1.7,31.3-5
		c34.7,54.1,95.2,87.4,159.8,87.4c43.6,0,85.7-15,119.4-42.3c24.1,12.9,51.2,19.7,78.8,19.7c59.8,0,114.3-31.5,144.3-82.8
		c13.8,5.3,28.4,8,43.4,8c67.2,0,121.9-54.7,121.9-121.9C773,126.4,722.7,73.4,659.3,69.2z M648.4,77.9c0.9,0,1.8,0.1,2.7,0.1
		c-1,0-2-0.1-3-0.1C648.2,77.9,648.3,77.9,648.4,77.9z"/>
	<g>
		<polygon class="st2" points="460.6,180.7 514.4,381.9 449.7,381.9 514.4,540.1 465.7,540.1 514.4,698.3 369,461 419.2,461 
			310.9,302.8 385.8,302.8 316.1,180 		"/>
	</g>
	<path class="st6" d="M1222.1,174.3c0,67.2,54.7,121.9,121.9,121.9c15,0,29.6-2.7,43.4-8c30,51.3,84.5,82.8,144.3,82.8
		c27.6,0,54.6-6.8,78.8-19.7c33.7,27.3,75.8,42.3,119.4,42.3c64.5,0,125-33.3,159.8-87.4c10,3.3,20.5,5,31.3,5
		c54.8,0,99.4-44.6,99.4-99.4c0-54.8-44.6-99.4-99.4-99.4c-0.6,0-1.2,0-1.8,0c0.3-4,0.5-7.9,0.5-11.9c0-79.7-64.8-144.5-144.5-144.5
		c-38.6,0-75,15.2-102,42.2c-19.4-43.2-63.2-72.2-111.3-72.2c-41.5,0-79.6,20.8-102,55.1c-13.5-10.8-30.4-16.8-47.9-16.8
		c-42.3,0-76.8,34.4-76.8,76.8c0,3.9,0.3,7.7,0.9,11.5C1272.4,56.8,1222.1,109.8,1222.1,174.3z M1347.1,61.3c-1,0-2,0.1-3,0.1
		c0.9,0,1.8-0.1,2.7-0.1C1346.8,61.3,1347,61.3,1347.1,61.3z"/>
	<g>
		<polygon class="st2" points="1602.6,134.6 1548.7,335.8 1613.4,335.8 1548.7,494 1597.4,494 1548.7,652.2 1694.1,414.9 
			1643.9,414.9 1752.3,256.7 1677.4,256.7 1747,134 		"/>
	</g>
	<line class="st40" x1="822.9" y1="445.9" x2="792.1" y2="518.1"/>
	<line class="st40" x1="822.9" y1="592.8" x2="792.1" y2="665"/>
	<line class="st40" x1="733.7" y1="503.6" x2="702.9" y2="575.8"/>
	<line class="st40" x1="1087.1" y1="592.8" x2="1056.3" y2="665"/>
	<line class="st40" x1="997.9" y1="503.6" x2="967.1" y2="575.8"/>
	<path class="st22" d="M675.8,281.4c0,67.2,54.7,121.9,121.9,121.9c15,0,29.6-2.7,43.4-8c30,51.3,84.5,82.8,144.3,82.8
		c27.6,0,54.6-6.8,78.8-19.7c33.7,27.3,75.8,42.3,119.4,42.3c64.5,0,125-33.3,159.8-87.4c10,3.3,20.5,5,31.3,5
		c54.8,0,99.4-44.6,99.4-99.4c0-54.8-44.6-99.4-99.4-99.4c-0.6,0-1.2,0-1.8,0c0.3-4,0.5-7.9,0.5-11.9c0-79.7-64.8-144.5-144.5-144.5
		c-38.6,0-75,15.2-102,42.2c-19.4-43.2-63.2-72.2-111.3-72.2c-41.5,0-79.6,20.8-102,55.1c-13.5-10.8-30.4-16.8-47.9-16.8
		c-42.3,0-76.8,34.4-76.8,76.8c0,3.9,0.3,7.7,0.9,11.5C726.1,163.9,675.8,216.9,675.8,281.4z M800.8,168.4c-1,0-2,0.1-3,0.1
		c0.9,0,1.8-0.1,2.7-0.1C800.5,168.4,800.7,168.4,800.8,168.4z"/>
	<line class="st40" x1="1087.1" y1="445.9" x2="1056.3" y2="518.1"/>
	<line class="st40" x1="997" y1="393.1" x2="966.2" y2="465.3"/>
	<line class="st40" x1="907.8" y1="303.9" x2="877" y2="376.1"/>
	<line class="st40" x1="1262.5" y1="483.3" x2="1231.7" y2="555.5"/>
	<line class="st40" x1="1173.3" y1="394.1" x2="1142.5" y2="466.3"/>
</g>
<g id="_x31_0_x5F_FIRES">
</g>
</svg>
