<svg id="icons" enable-background="new 0 0 64 64" height="512" viewBox="0 0 64 64" width="512" xmlns="http://www.w3.org/2000/svg"><path d="m16.997 20.994h30.006c4.963 0 9-4.036 9-8.996 0-4.962-4.037-9-9-9h-30.006c-4.963 0-9 4.038-9 9 0 4.96 4.037 8.996 9 8.996zm0-15.996h30.006c3.859 0 7 3.14 7 7 0 3.857-3.141 6.996-7 6.996h-30.006c-3.859 0-7-3.139-7-6.996 0-3.86 3.141-7 7-7z"/><path d="m16.997 64.002h30.006c6.617 0 12-5.383 12-12v-40.004c0-6.617-5.383-12-12-12h-30.006c-6.617 0-12 5.383-12 12v40.004c0 6.617 5.383 12 12 12zm30.006-2h-30.006c-4.286 0-7.941-2.717-9.36-6.514 2.201 2.745 5.576 4.51 9.36 4.51h30.006c3.784 0 7.159-1.765 9.36-4.51-1.419 3.797-5.074 6.514-9.36 6.514zm0-36.008h-30.006c-4.286 0-7.94-2.715-9.36-6.51 2.201 2.744 5.576 4.508 9.36 4.508h30.006c3.784 0 7.159-1.764 9.36-4.508-1.419 3.795-5.074 6.51-9.36 6.51zm-30.006-23.996h30.006c5.514 0 10 4.486 10 10 0 5.511-4.486 9.994-10 9.994h-30.006c-5.514 0-10-4.483-10-9.994 0-5.514 4.486-10 10-10zm0 25.996h30.006c4.172 0 7.849-2.141 10-5.378v25.382c0 5.514-4.486 10-10 10h-30.006c-5.514 0-10-4.486-10-10v-25.382c2.151 3.238 5.828 5.378 10 5.378z"/><path d="m32 55.003c3.859 0 7-3.141 7-7v-12c0-.553-.447-1-1-1-.367 0-.729.041-1.094.071-.435-2.315-2.467-4.074-4.906-4.074-2.435 0-4.463 1.751-4.904 4.059-.362-.03-.726-.056-1.096-.056-.553 0-1 .447-1 1v12c0 3.859 3.141 7 7 7zm5-17.935v4.038c-.806-1.279-1.824-2.408-3.012-3.338.963-.375 1.977-.606 3.012-.7zm-2.064-1.683c-.661.159-1.31.355-1.936.615v-2.815c.974.346 1.72 1.171 1.936 2.2zm-3.936-2.2v2.821c-.621-.26-1.27-.461-1.935-.623.215-1.028.962-1.852 1.935-2.198zm-4 3.869c5.598.508 10 5.222 10 10.949 0 2.757-2.243 5-5 5s-5-2.243-5-5z"/><path d="m43 40h10.004c.553 0 1-.447 1-1s-.447-1-1-1h-10.004c-.553 0-1 .447-1 1s.447 1 1 1z"/><path d="m43 44h10.004c.553 0 1-.447 1-1s-.447-1-1-1h-10.004c-.553 0-1 .447-1 1s.447 1 1 1z"/><path d="m50.001 46h-3.998c-.553 0-1 .447-1 1s.447 1 1 1h3.998c.553 0 1-.447 1-1s-.447-1-1-1z"/><path d="m10.998 40h10.004c.553 0 1-.447 1-1s-.447-1-1-1h-10.004c-.553 0-1 .447-1 1s.447 1 1 1z"/><path d="m10.998 44h10.004c.553 0 1-.447 1-1s-.447-1-1-1h-10.004c-.553 0-1 .447-1 1s.447 1 1 1z"/><path d="m17.999 46h-3.998c-.553 0-1 .447-1 1s.447 1 1 1h3.998c.553 0 1-.447 1-1s-.447-1-1-1z"/></svg>