<svg id="icons" enable-background="new 0 0 64 64" height="512" viewBox="0 0 64 64" width="512" xmlns="http://www.w3.org/2000/svg"><path d="m5.995 48c0 6.07 4.93 11 11 11h30.01c6.08 0 11-4.93 11-11v4c0 6.08-4.92 11-11 11h-30.01c-6.07 0-11-4.92-11-11z" fill="#e6e9ed"/><path d="m5.995 12c0 6.07 4.93 10.99 11 10.99h30.01c6.08 0 11-4.92 11-10.99v4c0 6.07-4.92 10.99-11 10.99h-30.01c-6.07 0-11-4.92-11-10.99z" fill="#e6e9ed"/><path d="m38.005 48v-12c-.68 0-1.35.06-2 .17v-.17c0-2.21-1.79-4-4-4s-4 1.79-4 4v.17c-.65-.11-1.32-.17-2-.17v12c0 3.32 2.68 6 6 6 3.309 0 6-2.68 6-6zm20-32v32c0 6.07-4.92 11-11 11h-30.01c-6.07 0-11-4.93-11-11v-32c0 6.07 4.93 10.99 11 10.99h30.01c6.08 0 11-4.92 11-10.99z" fill="#ed5565"/><path d="m8.995 12c0 4.41 3.59 7.99 8 7.99h30.01c4.42 0 8-3.58 8-7.99 0-4.42-3.58-8-8-8h-30.01c-4.41 0-8 3.58-8 8zm38.01 10.99h-30.01c-6.07 0-11-4.92-11-10.99 0-6.08 4.93-11 11-11h30.01c6.08 0 11 4.92 11 11 0 6.07-4.92 10.99-11 10.99z" fill="#ccd1d9"/><path d="m47.005 4c4.42 0 8 3.58 8 8 0 4.41-3.58 7.99-8 7.99h-30.01c-4.41 0-8-3.58-8-7.99 0-4.42 3.59-8 8-8z" fill="#aab2bd"/><path d="m28.005 36c0-2.21 1.79-4 4-4v5.61c-1.22-.71-2.57-1.2-4-1.44z" fill="#f6bb42"/><path d="m36.005 36v.17c-1.44.24-2.79.74-4 1.44v-5.61c2.21 0 4 1.79 4 4z" fill="#f6bb42"/><path d="m38.005 36v12c0-4.44-2.41-8.32-6-10.39 1.21-.7 2.56-1.2 4-1.44.65-.11 1.32-.17 2-.17z" fill="#8cc152"/><path d="m28.005 36.17c1.43.24 2.78.73 4 1.44 3.59 2.069 6 5.949 6 10.39 0 3.32-2.69 6-6 6-3.32 0-6-2.68-6-6v-12c.68 0 1.349.06 2 .17z" fill="#a0d468"/><path d="m16.997 23.992c-6.617 0-12-5.38-12-11.994 0-6.617 5.383-12 12-12 .553 0 1 .448 1 1s-.447 1-1 1c-5.514 0-10 4.486-10 10 0 5.511 4.486 9.994 10 9.994.553 0 1 .448 1 1s-.447 1-1 1z"/><path d="m16.997 20.994c-4.963 0-9-4.036-9-8.996 0-4.962 4.037-9 9-9 .553 0 1 .448 1 1s-.447 1-1 1c-3.859 0-7 3.14-7 7 0 3.857 3.141 6.996 7 6.996.553 0 1 .448 1 1s-.447 1-1 1z"/><path d="m47.003 23.992c-.553 0-1-.448-1-1s.447-1 1-1c5.514 0 10-4.483 10-9.994 0-5.514-4.486-10-10-10-.553 0-1-.448-1-1s.447-1 1-1c6.617 0 12 5.383 12 12 0 6.614-5.383 11.994-12 11.994z"/><path d="m47.003 20.994c-.553 0-1-.448-1-1s.447-1 1-1c3.859 0 7-3.139 7-6.996 0-3.86-3.141-7-7-7-.553 0-1-.448-1-1s.447-1 1-1c4.963 0 9 4.038 9 9 0 4.96-4.037 8.996-9 8.996z"/><path d="m47.003 23.992h-30.006c-.553 0-1-.448-1-1s.447-1 1-1h30.006c.553 0 1 .448 1 1s-.447 1-1 1z"/><path d="m16.997 27.994c-6.617 0-12-5.38-12-11.994 0-.552.447-1 1-1s1 .448 1 1c0 5.511 4.486 9.994 10 9.994.553 0 1 .448 1 1s-.447 1-1 1z"/><path d="m47.003 27.994c-.553 0-1-.448-1-1s.447-1 1-1c5.514 0 10-4.483 10-9.994 0-.552.447-1 1-1s1 .448 1 1c0 6.614-5.383 11.994-12 11.994z"/><path d="m47.003 27.994h-30.006c-.553 0-1-.448-1-1s.447-1 1-1h30.006c.553 0 1 .448 1 1s-.447 1-1 1z"/><path d="m16.997 64.002c-6.617 0-12-5.383-12-12 0-.553.447-1 1-1s1 .447 1 1c0 5.514 4.486 10 10 10 .553 0 1 .447 1 1s-.447 1-1 1z"/><path d="m47.003 64.002c-.553 0-1-.447-1-1s.447-1 1-1c5.514 0 10-4.486 10-10 0-.553.447-1 1-1s1 .447 1 1c0 6.617-5.383 12-12 12z"/><path d="m47.003 64.002h-30.006c-.553 0-1-.447-1-1s.447-1 1-1h30.006c.553 0 1 .447 1 1s-.447 1-1 1z"/><path d="m16.997 59.998c-6.617 0-12-5.383-12-12 0-.553.447-1 1-1s1 .447 1 1c0 5.514 4.486 10 10 10 .553 0 1 .447 1 1s-.447 1-1 1z"/><path d="m47.003 59.998c-.553 0-1-.447-1-1s.447-1 1-1c5.514 0 10-4.486 10-10 0-.553.447-1 1-1s1 .447 1 1c0 6.617-5.383 12-12 12z"/><path d="m47.003 59.998h-30.006c-.553 0-1-.447-1-1s.447-1 1-1h30.006c.553 0 1 .447 1 1s-.447 1-1 1z"/><path d="m47.003 1.998h-30.006c-.553 0-1-.448-1-1s.447-1 1-1h30.006c.553 0 1 .448 1 1s-.447 1-1 1z"/><path d="m47.003 4.998h-30.006c-.553 0-1-.448-1-1s.447-1 1-1h30.006c.553 0 1 .448 1 1s-.447 1-1 1z"/><path d="m47.003 20.994h-30.006c-.553 0-1-.448-1-1s.447-1 1-1h30.006c.553 0 1 .448 1 1s-.447 1-1 1z"/><path d="m5.997 53.002c-.553 0-1-.447-1-1v-40.004c0-.552.447-1 1-1s1 .448 1 1v40.004c0 .553-.447 1-1 1z"/><path d="m58.003 53.002c-.553 0-1-.447-1-1v-40.004c0-.552.447-1 1-1s1 .448 1 1v40.004c0 .553-.447 1-1 1z"/><path d="m36 37c-.553 0-1-.447-1-1 0-1.654-1.346-3-3-3s-3 1.346-3 3c0 .553-.447 1-1 1s-1-.447-1-1c0-2.757 2.243-5 5-5s5 2.243 5 5c0 .553-.447 1-1 1z"/><path d="m32 55.003c-3.859 0-7-3.141-7-7 0-.553.447-1 1-1s1 .447 1 1c0 2.757 2.243 5 5 5s5-2.243 5-5c0-.553.447-1 1-1s1 .447 1 1c0 3.859-3.141 7-7 7z"/><path d="m38 49.003c-.553 0-1-.447-1-1 0-6.065-4.935-11-11-11-.553 0-1-.447-1-1s.447-1 1-1c7.168 0 13 5.832 13 13 0 .553-.447 1-1 1z"/><path d="m26 49.003c-.553 0-1-.447-1-1v-12c0-.553.447-1 1-1s1 .447 1 1v12c0 .553-.447 1-1 1z"/><path d="m32 38.605c-.346 0-.682-.179-.867-.5-.276-.478-.112-1.09.366-1.366 1.966-1.136 4.214-1.736 6.501-1.736.553 0 1 .447 1 1s-.447 1-1 1c-1.936 0-3.838.508-5.501 1.469-.157.091-.329.133-.499.133z"/><path d="m38 49.003c-.553 0-1-.447-1-1v-12c0-.553.447-1 1-1s1 .447 1 1v12c0 .553-.447 1-1 1z"/><path d="m32 38.605c-.553 0-1-.447-1-1v-5.605c0-.552.447-1 1-1s1 .448 1 1v5.605c0 .553-.447 1-1 1z"/><path d="m28 37.169c-.553 0-1-.447-1-1v-.169c0-.553.447-1 1-1s1 .447 1 1v.169c0 .553-.447 1-1 1z"/><path d="m36 37.169c-.553 0-1-.447-1-1v-.169c0-.553.447-1 1-1s1 .447 1 1v.169c0 .553-.447 1-1 1z"/><path d="m53.004 40h-10.004c-.553 0-1-.447-1-1s.447-1 1-1h10.004c.553 0 1 .447 1 1s-.447 1-1 1z"/><path d="m53.004 44h-10.004c-.553 0-1-.447-1-1s.447-1 1-1h10.004c.553 0 1 .447 1 1s-.447 1-1 1z"/><path d="m50.001 48h-3.998c-.553 0-1-.447-1-1s.447-1 1-1h3.998c.553 0 1 .447 1 1s-.447 1-1 1z"/><path d="m21.002 40h-10.004c-.553 0-1-.447-1-1s.447-1 1-1h10.004c.553 0 1 .447 1 1s-.447 1-1 1z"/><path d="m21.002 44h-10.004c-.553 0-1-.447-1-1s.447-1 1-1h10.004c.553 0 1 .447 1 1s-.447 1-1 1z"/><path d="m17.999 48h-3.998c-.553 0-1-.447-1-1s.447-1 1-1h3.998c.553 0 1 .447 1 1s-.447 1-1 1z"/></svg>