<?xml version="1.0" encoding="iso-8859-1"?>
<!-- Generator: Adobe Illustrator 19.0.0, SVG Export Plug-In . SVG Version: 6.00 Build 0)  -->
<svg version="1.1" id="Capa_1" xmlns="http://www.w3.org/2000/svg" xmlns:xlink="http://www.w3.org/1999/xlink" x="0px" y="0px"
	 viewBox="0 0 511.999 511.999" style="enable-background:new 0 0 511.999 511.999;" xml:space="preserve">
<path style="fill:#ED694A;" d="M370.043,166.492c-10.356-11.307-26.457-26.568-33.306,7.892
	c-2.329,11.715-7.772,20.747-12.435,28.02c-5.028-25.442-20.15-51.775-34.4-69.53c-5.332-6.643-24.253-33.05-27.889-77.229
	c-0.543-6.594-8.375-9.69-13.272-5.242c-46.814,42.496-72.509,100.944-73.463,166.744c0,0-19.494-16.431-30.083-46.999
	c-2.852-8.232-13.887-9.802-18.675-2.523c-0.919,1.397-1.771,2.797-2.54,4.157c-36.118,63.864-53.493,141.42-37.431,213.574
	c26.856,120.837,204.508,154.619,298.559,78.67C477.124,389.721,447.874,251.421,370.043,166.492z"/>
<g>
	<path style="fill:#D8553A;" d="M111.547,392.941c-15.875-72.926,0.929-151.237,36.199-216.102c-0.892-2.152-1.75-4.377-2.552-6.692
		c-2.852-8.232-13.887-9.802-18.675-2.523c-0.919,1.397-1.771,2.797-2.54,4.157C87.861,235.646,70.487,313.2,86.548,385.356
		c12.249,55.117,55.876,92.11,108.629,108.852C154.025,474.272,121.797,440.099,111.547,392.941z"/>
	<path style="fill:#D8553A;" d="M200.4,215.936c1.95-59.718,23.55-113.266,62.209-154.402c-0.265-2.265-0.463-4.291-0.591-5.828
		c-0.554-6.651-8.1-9.985-12.977-5.576c-45.216,40.88-72.775,98.736-73.764,167.016l8.463,6.572
		c4.168,3.237,9.815,3.096,13.795,0.131C199.911,221.835,200.251,218.797,200.4,215.936z"/>
</g>
<path style="fill:#F4A32C;" d="M341.648,254.825c-7.65-8.351-19.541-19.624-24.601,5.829c-1.72,8.654-5.741,15.324-9.185,20.696
	c-3.713-18.792-14.883-38.242-25.409-51.357c-3.938-4.907-17.914-24.411-20.599-57.042c-0.401-4.87-6.186-7.157-9.804-3.872
	c-34.577,31.389-53.557,74.56-54.262,123.16c0,0-14.398-12.136-22.22-34.714c-2.106-6.08-10.258-7.24-13.793-1.864
	c-0.679,1.032-1.308,2.066-1.876,3.07c-26.678,47.172-39.511,104.456-27.648,157.752c19.836,89.252,151.054,114.206,220.522,58.108
	C420.739,419.708,399.135,317.556,341.648,254.825z"/>
<path style="fill:#E89528;" d="M156.993,423.482c-10.505-52.098,0.375-107.999,23.442-154.549
	c-1.758-3.442-3.424-7.247-4.866-11.409c-2.106-6.081-10.258-7.24-13.793-1.864c-0.679,1.032-1.308,2.066-1.876,3.071
	c-26.678,47.172-39.511,104.456-27.648,157.751c9.226,41.51,42.547,69.102,82.54,81.11
	C186.377,483.343,164.005,458.308,156.993,423.482z"/>
<path style="fill:#F4D44E;" d="M315.725,335.468c-5.178-5.653-13.228-13.284-16.653,3.946c-1.165,5.858-3.886,10.374-6.218,14.009
	c-2.514-12.72-10.076-25.888-17.2-34.764c-2.666-3.322-12.126-16.524-13.944-38.614c-0.271-3.297-4.187-4.845-6.636-2.621
	c-23.407,21.248-36.254,50.473-36.731,83.371c0,0-9.747-8.216-15.041-23.5c-1.426-4.116-6.944-4.901-9.338-1.262
	c-0.46,0.699-0.885,1.399-1.27,2.078c-18.059,31.933-26.747,70.71-18.716,106.787c13.428,60.418,102.254,77.31,149.279,39.335
	c16.103-13.004,26.087-31.329,28.112-51.597C354.423,401.938,342.608,364.804,315.725,335.468z"/>
<path style="fill:#EAE9E8;" d="M291.668,410.303c-2.885-3.15-7.37-7.401-9.278,2.198c-0.649,3.264-2.165,5.78-3.464,7.806
	c-1.4-7.088-5.613-14.422-9.583-19.368c-1.485-1.851-6.756-9.207-7.769-21.513c-0.151-1.837-2.333-2.699-3.697-1.46
	c-13.04,11.837-20.198,28.12-20.464,46.449c0,0-5.431-4.577-8.38-13.092c-0.794-2.293-3.869-2.73-5.202-0.703
	c-0.256,0.389-0.493,0.779-0.708,1.158c-10.062,17.79-14.901,39.395-10.428,59.494c10.189,45.843,93.707,44.453,98.83-6.832
	C313.229,447.335,306.646,426.647,291.668,410.303z"/>
<path style="fill:#F7E7A1;" d="M232.089,480.369c-4.475-17.98,0.366-37.306,10.428-53.221c0.214-0.339,0.451-0.688,0.708-1.036
	c1.333-1.814,4.408-1.423,5.202,0.628c2.95,7.618,8.38,11.711,8.38,11.711c0.219-13.471,5.099-25.702,14.062-35.511
	c-2.004-2.775-8.137-9.47-9.293-23.517c-0.151-1.837-2.333-2.699-3.698-1.46c-13.04,11.837-20.198,28.12-20.464,46.449
	c0,0-5.431-4.578-8.381-13.092c-0.794-2.293-3.869-2.73-5.202-0.703c-0.256,0.389-0.493,0.779-0.708,1.158
	c-10.062,17.79-14.901,39.394-10.428,59.494c4.141,18.631,21.151,29.828,39.957,32.53
	C242.51,498.821,234.713,490.932,232.089,480.369z"/>
<g>
	<path style="fill:#D8553A;" d="M186.697,73.544c20.99-17.072,20.943-49.011,0-66.044C165.709,24.57,165.755,56.511,186.697,73.544z
		"/>
	<path style="fill:#D8553A;" d="M438.271,210.561c20.99-17.072,20.943-49.011,0-66.044
		C428.679,152.319,417.328,193.528,438.271,210.561z"/>
	<path style="fill:#D8553A;" d="M66.524,223.56c15.127-12.303,15.093-35.322,0-47.599C59.611,181.584,51.431,211.285,66.524,223.56z
		"/>
	<path style="fill:#D8553A;" d="M328.512,121.142c15.127-12.303,15.093-35.322,0-47.599
		C313.386,85.847,313.419,108.867,328.512,121.142z"/>
</g>
<path style="fill:#E89528;" d="M217.089,284.435c3.474-41.009,19.133-77.474,45.43-105.273c-0.265-2.015-0.49-4.083-0.665-6.21
	c-0.401-4.87-6.186-7.157-9.804-3.872c-27.4,24.873-44.985,57.15-51.463,93.66l-0.01-0.003c-0.48,2.708-1.077,6.653-1.453,9.752
	c0.001,0.002,0.002,0.005,0.003,0.007c-0.787,6.469-1.243,13.052-1.34,19.745C198.522,292.383,215.086,300.9,217.089,284.435z"/>
<g>
	<path style="fill:#E8C842;" d="M198.181,453.471c-7.14-33.704-1.059-69.645,13.065-100.786c-2.735-3.837-5.73-8.991-7.947-15.388
		c-1.426-4.116-6.944-4.901-9.338-1.262c-0.459,0.699-0.886,1.399-1.27,2.079c-18.06,31.933-26.747,70.71-18.716,106.787
		c6.289,28.295,29.115,47.042,56.437,55.081C214.509,489.422,202.479,473.794,198.181,453.471z"/>
	<path style="fill:#E8C842;" d="M244.111,346.067c2.367-16.912,9.284-35.547,20.172-51.126c-1.186-4.399-2.119-9.37-2.574-14.896
		c-0.271-3.297-4.188-4.845-6.637-2.621c-14.584,13.239-25.053,29.582-31,47.974l-0.016-0.003
		c-0.936,2.889-2.258,7.677-3.061,11.456c0.007-0.002,0.014-0.002,0.021-0.004c-1.643,7.71-2.556,15.711-2.676,23.95
		C231.44,362.429,242.273,359.186,244.111,346.067z"/>
</g>
<path d="M192.835,1.681c-2.756-2.242-6.709-2.242-9.465,0c-24.681,20.076-24.63,57.646,0,77.682c2.756,2.242,6.709,2.242,9.465,0
	c11.752-9.56,18.492-23.716,18.492-38.841C211.328,25.396,204.588,11.24,192.835,1.681z M188.103,63.08
	c-10.887-12.907-11.046-32.019,0-45.116C198.992,30.874,199.146,49.986,188.103,63.08z"/>
<path d="M444.409,138.698c-2.756-2.242-6.709-2.242-9.465,0c-24.632,20.035-24.681,57.606,0,77.682c2.756,2.242,6.709,2.242,9.465,0
	C469.137,196.267,468.994,158.695,444.409,138.698z M439.677,200.097c-10.888-12.909-11.047-32.019,0-45.116
	C450.565,167.89,450.724,186.999,439.677,200.097z"/>
<path d="M72.663,170.144c-2.757-2.242-6.708-2.242-9.465,0c-18.82,15.306-18.781,43.961,0,59.234c2.757,2.242,6.708,2.242,9.465,0
	C91.483,214.073,91.444,185.418,72.663,170.144z M67.931,212.53c-5.04-7.609-5.182-17.715,0-25.538
	C72.971,194.601,73.112,204.707,67.931,212.53z"/>
<path d="M334.651,126.961c18.82-15.305,18.782-43.96,0-59.234c-2.758-2.242-6.709-2.242-9.465,0
	c-18.82,15.308-18.78,43.959,0,59.234C327.941,129.203,331.895,129.203,334.651,126.961z M329.918,84.574
	c5.084,7.672,5.142,17.778,0,25.538C324.858,102.472,324.757,92.365,329.918,84.574z"/>
<path d="M297.157,128.178c-5.291-6.592-22.822-31.348-26.264-73.148c-1.052-12.783-16.289-18.808-25.787-10.18
	c-20.209,18.336-37.451,40.479-50.24,65.577c-1.88,3.691-0.413,8.207,3.278,10.088c3.688,1.877,8.206,0.412,10.087-3.277
	c11.74-23.041,27.708-43.813,46.958-61.282c0.296-0.272,0.722-0.105,0.756,0.305c3.79,46.048,23.55,73.876,29.515,81.307
	c13.833,17.235,28.214,42.613,32.894,66.29c1.305,6.611,10.034,8.27,13.67,2.594c5.186-8.087,10.93-17.788,13.478-30.606
	c2.739-13.781,6.302-15.142,6.337-15.151c6.221-1.717,50.983,46.701,71.597,107.265c1.339,3.935,5.615,6.015,9.517,4.683
	c3.921-1.334,6.018-5.595,4.683-9.517C425.055,226.167,404.081,191,376.983,161.43c-5.948-6.493-17.018-18.584-29.183-15.18
	c-8.343,2.333-13.905,11.059-17.01,26.674c-0.681,3.427-1.66,6.595-2.836,9.564c-5.546-15.606-14.293-31.663-26.461-48.629
	C300.235,132.104,298.817,130.247,297.157,128.178z"/>
<path d="M438.124,292.01c-4.067,0.781-6.731,4.712-5.95,8.78c12.329,64.199-3.235,121.74-54.075,160.275
	c48.683-61.48,23.011-153.986-29.516-211.307c-4.346-4.742-13.39-14.617-23.528-11.773c-10.343,2.892-12.625,15.857-14.299,22.75
	c-15.333-37.16-36.134-41.174-40.021-88.399c-0.911-11.063-14.099-16.271-22.318-8.81c-30.996,28.129-50.622,65.701-55.528,109.522
	c-3.129-4.8-6.349-10.823-8.828-17.978c-4.164-12.02-20.231-14.045-27.147-3.528c-0.753,1.145-1.472,2.321-2.138,3.498
	c-29.523,52.203-39.889,111.641-28.441,163.071c3.495,15.726,10.436,30.145,20.314,42.725
	c-26.629-19.684-44.429-45.851-51.377-77.11c-14.563-65.426-1.209-141.331,36.639-208.252c0.711-1.259,1.478-2.513,2.278-3.729
	c1.382-2.102,4.512-1.483,5.323,0.856c11.137,32.148,31.477,49.554,32.337,50.278c4.826,4.072,12.24,0.69,12.332-5.626
	c0.34-23.44,3.945-46.145,10.717-67.486c1.252-3.948-0.933-8.165-4.881-9.417c-3.948-1.255-8.165,0.932-9.417,4.88
	c-5.419,17.081-8.936,34.962-10.503,53.361c-5.494-7.352-11.855-17.748-16.412-30.9c-4.897-14.135-23.839-16.634-32.028-4.189
	c-0.983,1.495-1.925,3.038-2.801,4.586c-39.653,70.11-53.586,149.894-38.226,218.893c11.444,51.494,50.729,92.469,107.781,112.419
	c127.395,44.545,291.32-30.54,258.49-201.44C446.123,293.892,442.185,291.23,438.124,292.01z M292.559,487.352
	c-21.982,17.747-64.929,10.217-71.136-17.71c-3.279-14.728-1.049-31.584,6.095-47.231c2.991,4.715,5.991,7.336,6.469,7.738
	c4.822,4.066,12.24,0.699,12.332-5.626c0.185-12.723,4.037-24.205,11.214-33.609c4.352,14.61,12.996,18.468,15.442,30.849
	c1.305,6.611,10.032,8.269,13.67,2.595c1.192-1.859,2.376-3.877,3.293-6.235C306.355,437.989,314.057,469.991,292.559,487.352z
	 M347.016,470.659c27.968-42.47,10.323-102.416-24.355-140.257c-3.268-3.568-10.066-10.996-18.367-8.668
	c-5.403,1.512-8.193,6.354-9.678,10.534c-3.291-6.478-7.928-13.59-11.708-18.305c-1.763-2.196-10.645-14.185-12.318-34.533
	c-0.78-9.49-12.098-13.961-19.15-7.561c-19.658,17.838-32.767,41.259-37.366,68.511c-0.819-1.707-1.593-3.556-2.28-5.539
	c-3.466-10.007-16.888-11.746-22.687-2.933c-5.662,8.601-14.488,27.569-19.319,46.702c-1.014,4.016,1.419,8.094,5.435,9.107
	c4.02,1.016,8.094-1.419,9.108-5.436c3.316-13.132,8.355-25.945,14.992-38.126c6.08,14.24,15.172,22.019,15.593,22.373
	c4.819,4.065,12.24,0.701,12.332-5.626c0.413-28.459,10.524-53.678,29.267-73.055c3.197,19.827,11.873,31.985,14.697,35.503
	c6.557,8.162,13.482,20.343,15.692,31.525c1.303,6.601,10.026,8.281,13.669,2.595c7.212-11.24,6.683-15.578,8.098-19.89
	c0.722,0.644,1.678,1.583,2.933,2.953c38.031,41.501,50.776,108.517,4.286,140.903c11.439-24.157,1.513-55.691-17.283-76.201
	c-2.091-2.283-6.985-7.63-13.575-5.785c-1.684,0.471-3.145,1.328-4.379,2.566c-4.135-6.579-9.136-10.34-10.195-23.211
	c-0.662-8.032-10.248-11.813-16.213-6.396c-9.374,8.519-16.298,19.273-19.959,31.779c-4.599-3.778-11.785-3.054-15.311,2.306
	c-12.654,19.228-19.026,53.417-9.336,75c-23.35-15.861-30.112-38.12-29.737-66.236c0.055-4.142-3.258-7.544-7.399-7.599
	c-4.114-0.057-7.544,3.257-7.6,7.398c-0.257,19.32,2.705,39.188,13.205,55.508c-19.178-14.307-32.2-33.538-37.128-55.714
	c-10.653-47.857-0.865-103.416,26.855-152.43c0.502-0.887,1.045-1.775,1.639-2.695c0.001,0,0.035-0.009,0.083-0.009
	c0.098,0,0.256,0.037,0.333,0.26c8.4,24.249,23.82,37.444,24.473,37.994c4.833,4.072,12.241,0.689,12.332-5.626
	c0.636-43.876,16.467-84.057,49.404-115.48c3.482,32.592,17.562,52.399,21.915,57.822c10.02,12.474,20.511,30.969,23.899,48.113
	c1.302,6.598,10.025,8.28,13.67,2.594c12.839-20.024,9.104-27.187,13.559-32.793c1.055,0.395,3.443,1.895,8.383,7.286
	c0,0,0.001,0,0.001,0.001C393.508,320.983,413.66,419.98,347.016,470.659z"/>
<g>
</g>
<g>
</g>
<g>
</g>
<g>
</g>
<g>
</g>
<g>
</g>
<g>
</g>
<g>
</g>
<g>
</g>
<g>
</g>
<g>
</g>
<g>
</g>
<g>
</g>
<g>
</g>
<g>
</g>
</svg>
