<?xml version="1.0" encoding="iso-8859-1"?>
<!-- Generator: Adobe Illustrator 19.0.0, SVG Export Plug-In . SVG Version: 6.00 Build 0)  -->
<svg version="1.1" id="Capa_1" xmlns="http://www.w3.org/2000/svg" xmlns:xlink="http://www.w3.org/1999/xlink" x="0px" y="0px"
	 viewBox="0 0 512 512" style="enable-background:new 0 0 512 512;" xml:space="preserve">
<g>
	<g transform="translate(0 1)">
		<g>
			<rect x="68.267" y="323.267" style="fill:#607D8B;" width="34.133" height="76.8"/>
			<path style="fill:#607D8B;" d="M364.971,33.133l48.128,50.773c6.663,6.646,6.68,17.435,0.037,24.101
				c-6.643,6.666-17.432,6.688-24.101,0.048l-71.083-74.923H364.971z"/>
		</g>
		<path style="fill:#C52828;" d="M384,186.733v315.733H179.2V186.733c0.003-42.414,34.386-76.797,76.8-76.8h51.2
			C349.614,109.937,383.997,144.319,384,186.733z"/>
		<path style="fill:#F44335;" d="M358.4,186.733v315.733H179.2V186.733c0.003-42.414,34.386-76.797,76.8-76.8h25.6
			C324.014,109.937,358.397,144.319,358.4,186.733z"/>
		<path style="fill:#283593;" d="M460.8,41.667h-25.6c0.003-9.054-3.593-17.737-9.995-24.139s-15.085-9.997-24.139-9.995l25.6,0
			c9.054-0.003,17.737,3.593,24.139,9.995S460.803,32.613,460.8,41.667z"/>
		<g>
			<path style="fill:#3F51B5;" d="M435.2,41.667H315.733c0.002,9.053-3.593,17.737-9.995,24.139S290.654,75.802,281.6,75.8
				c-4.397,0.034-8.754-0.838-12.8-2.56c-15.144-6.112-23.827-22.104-20.704-38.133S265.269,7.514,281.6,7.533h119.467
				c9.054-0.003,17.737,3.593,24.139,9.995S435.203,32.613,435.2,41.667z"/>
			<path style="fill:#3F51B5;" d="M256,75.8v34.133h-42.667c-29.422-0.001-57.638,11.686-78.443,32.491
				c-20.804,20.804-32.492,49.021-32.491,78.443V331.8H68.267V212.333c-0.01-36.214,14.371-70.948,39.979-96.555
				S168.586,75.79,204.8,75.8H256z"/>
		</g>
		<path style="fill:#CFD8DC;" d="M104.277,493.933H66.389c-4.924-0.403-9.417-2.967-12.267-7.004
			c-2.85-4.036-3.764-9.128-2.496-13.903l16.64-81.493H102.4l16.64,81.493c1.268,4.775,0.354,9.867-2.496,13.903
			S109.202,493.531,104.277,493.933z"/>
		<rect x="179.2" y="195.267" style="fill:#D84315;" width="204.8" height="247.467"/>
		<rect x="179.2" y="195.267" style="fill:#FF5722;" width="179.2" height="247.467"/>
		<path style="fill:#607D8B;" d="M238.933,75.8v34.133h85.333V92.867c0-9.426-7.641-17.067-17.067-17.067H238.933"/>
	</g>
	<path d="M66.421,503.467h37.825c6.95-0.054,13.503-3.243,17.833-8.679c5.033-6.322,6.994-14.555,5.35-22.467l-16.496-80.64V221.867
		c0.078-53.055,40.63-97.281,93.479-101.948c-21.236,16.082-33.723,41.176-33.745,67.814v315.733c0,4.713,3.821,8.533,8.533,8.533
		H384c4.713,0,8.533-3.82,8.533-8.533V187.733c-0.047-37.25-24.213-70.18-59.733-81.398V93.867
		c-0.039-11.233-7.411-21.122-18.164-24.369c2.73-3.317,4.943-7.027,6.564-11.006l61.8,65.129
		c9.956,10.015,26.145,10.065,36.163,0.113s10.076-26.14,0.128-36.163L384.816,51.2H460.8c4.713,0,8.533-3.821,8.533-8.533
		C469.306,19.114,450.219,0.028,426.667,0H281.6c-23.553,0.028-42.639,19.114-42.667,42.667c0.032,9.262,3.107,18.257,8.752,25.6
		H204.8c-80.081,0.089-144.977,64.986-145.067,145.067V391.68l-16.496,80.628c-1.648,7.916,0.313,16.155,5.35,22.479
		C52.918,500.223,59.471,503.413,66.421,503.467z M108.854,484c-1.089,1.461-2.786,2.345-4.608,2.4H66.421
		c-1.822-0.055-3.519-0.939-4.608-2.4c-1.815-2.342-2.496-5.369-1.858-8.263l15.275-74.671h20.208l15.275,74.671v0.013
		C111.348,478.64,110.668,481.662,108.854,484z M93.867,384H76.8v-42.667h17.067V384z M375.467,435.2H187.733V204.8h187.733V435.2z
		 M187.733,494.933v-42.667h187.733v42.667H187.733z M375.467,187.733H187.733c0.043-37.685,30.582-68.224,68.267-68.267h51.2
		C344.885,119.51,375.424,150.049,375.467,187.733z M315.733,102.4h-68.267V85.333H307.2c4.71,0.006,8.527,3.823,8.533,8.533V102.4z
		 M407.104,99.517c1.619,1.587,2.528,3.76,2.521,6.027c-0.007,2.267-0.93,4.434-2.558,6.011c-3.337,3.044-8.424,3.112-11.842,0.158
		L337.812,51.2h23.491L407.104,99.517z M256,42.667c0.015-14.132,11.468-25.585,25.6-25.6h145.067
		c10.845,0.012,20.51,6.846,24.137,17.067H315.733c-4.713,0-8.533,3.821-8.533,8.533c0,14.138-11.462,25.6-25.6,25.6
		S256,56.805,256,42.667z M204.8,85.333h25.6V102.4h-17.067c-65.949,0.074-119.393,53.518-119.467,119.467v102.4H76.8V213.333
		C76.88,142.674,134.141,85.413,204.8,85.333z"/>
</g>
<g>
</g>
<g>
</g>
<g>
</g>
<g>
</g>
<g>
</g>
<g>
</g>
<g>
</g>
<g>
</g>
<g>
</g>
<g>
</g>
<g>
</g>
<g>
</g>
<g>
</g>
<g>
</g>
<g>
</g>
</svg>
