<?xml version="1.0" encoding="iso-8859-1"?>
<!-- Generator: Adobe Illustrator 19.0.0, SVG Export Plug-In . SVG Version: 6.00 Build 0)  -->
<svg version="1.1" id="Capa_1" xmlns="http://www.w3.org/2000/svg" xmlns:xlink="http://www.w3.org/1999/xlink" x="0px" y="0px"
	 viewBox="0 0 512 512" style="enable-background:new 0 0 512 512;" xml:space="preserve">
<g>
	<g>
		<path d="M396,236c-5.52,0-10,4.48-10,10s4.48,10,10,10c5.52,0,10-4.48,10-10S401.52,236,396,236z"/>
	</g>
</g>
<g>
	<g>
		<path d="M116,236c-5.52,0-10,4.48-10,10s4.48,10,10,10s10-4.48,10-10S121.52,236,116,236z"/>
	</g>
</g>
<g>
	<g>
		<path d="M346,276h-50v-50c0-5.522-4.478-10-10-10h-60c-5.522,0-10,4.478-10,10v50h-50c-5.522,0-10,4.478-10,10v60
			c0,5.522,4.478,10,10,10h50v50c0,5.522,4.478,10,10,10h60c5.522,0,10-4.478,10-10v-50h50c5.522,0,10-4.478,10-10v-60
			C356,280.478,351.522,276,346,276z M336,336h-50c-5.522,0-10,4.478-10,10v50h-40v-50c0-5.522-4.478-10-10-10h-50v-40h50
			c5.522,0,10-4.478,10-10v-50h40v50c0,5.522,4.478,10,10,10h50V336z"/>
	</g>
</g>
<g>
	<g>
		<path d="M462,136h-76V76c0-33.084-26.916-60-60-60H186c-33.084,0-60,26.916-60,60v60H50c-27.57,0-50,22.43-50,50v260
			c0,27.57,22.43,50,50,50h412c27.57,0,50-22.43,50-50V186C512,158.43,489.57,136,462,136z M146,76c0-22.056,17.944-40,40-40h140
			c22.056,0,40,17.944,40,40v60h-20V86c0-16.542-13.458-30-30-30H196c-16.542,0-30,13.458-30,30v50h-20V76z M326,86v50H186V86
			c0-5.514,4.486-10,10-10h120C321.514,76,326,80.486,326,86z M66,476H50c-16.542,0-30-13.458-30-30V186c0-16.542,13.458-30,30-30
			h16V476z M426,476h-20V286c0-5.522-4.478-10-10-10c-5.522,0-10,4.478-10,10v190H126V286c0-5.522-4.478-10-10-10
			c-5.522,0-10,4.478-10,10v190H86V156h20v50c0,5.522,4.478,10,10,10c5.522,0,10-4.478,10-10v-50h260v50c0,5.522,4.478,10,10,10
			c5.522,0,10-4.478,10-10v-50h20V476z M492,446c0,16.542-13.458,30-30,30h-16V156h16c16.542,0,30,13.458,30,30V446z"/>
	</g>
</g>
<g>
</g>
<g>
</g>
<g>
</g>
<g>
</g>
<g>
</g>
<g>
</g>
<g>
</g>
<g>
</g>
<g>
</g>
<g>
</g>
<g>
</g>
<g>
</g>
<g>
</g>
<g>
</g>
<g>
</g>
</svg>
