<svg id="Layer_35" enable-background="new 0 0 64 64" height="512" viewBox="0 0 64 64" width="512" xmlns="http://www.w3.org/2000/svg"><path d="m24.76 20.76 18.48 18.48c-1.33.49-2.76.76-4.21.76h-5.03l-10-10v-5.03c0-1.45.27-2.88.76-4.21z" fill="#fcd770"/><path d="m43.24 39.24-18.48-18.48c.6-1.59 1.53-3.05 2.75-4.27l9.49-9.49 20 20-9.49 9.49c-1.22 1.22-2.68 2.15-4.27 2.75z" fill="#e6e9ed"/><path d="m40 2 22 22c0 1.1-.45 2.1-1.17 2.83-.73.72-1.73 1.17-2.83 1.17l-1-1-20-20-1-1c0-2.21 1.79-4 4-4z" fill="#fcd770"/><path d="m34 40-19 19-10-10 19-19z" fill="#aab2bd"/><path d="m15 59-3 3c-2.76 0-5.26-1.12-7.07-2.93s-2.93-4.31-2.93-7.07l3-3z" fill="#fcd770"/><path d="m25.38 38.62c-.38-.38-.92-.62-1.5-.62-.56 0-1.1.22-1.5.62l-5.76 5.76c-.4.4-.62.94-.62 1.5 0 .58.24 1.12.62 1.5s.92.62 1.5.62c.56 0 1.1-.22 1.5-.62l5.76-5.76c.4-.4.62-.94.62-1.5 0-.58-.24-1.12-.62-1.5z" fill="#ff826e"/><path d="m40.414 1h-.414c-2.757 0-5 2.243-5 5v.414l.586.586-8.778 8.778c-2.455 2.455-3.808 5.72-3.808 9.193v4.615l-22 22v.414c0 6.065 4.935 11 11 11h.414l22-22h4.615c3.473 0 6.737-1.353 9.192-3.808l8.779-8.778.586.586h.414c2.757 0 5-2.243 5-5v-.414zm-7.828 39-17.586 17.586-8.586-8.586 17.586-17.586zm-20.991 20.991c-4.642-.207-8.379-3.944-8.586-8.586l1.991-1.991 8.586 8.586zm22.819-21.991-9.414-9.414v-4.615c0-.786.088-1.558.248-2.309l16.09 16.09c-.751.16-1.523.248-2.309.248zm12.394-3.222c-.977.976-2.109 1.738-3.335 2.28l-17.532-17.531c.542-1.226 1.304-2.358 2.28-3.335l8.779-8.778 18.586 18.586zm11.581-8.803-21.364-21.364c.175-1.343 1.243-2.411 2.586-2.586l21.363 21.363c-.174 1.344-1.242 2.412-2.585 2.587z"/><path d="m49.709 26.677h1.916v2h-1.916z" transform="matrix(.707 -.707 .707 .707 -4.731 43.933)"/><path d="m45.394 34.364 1.06-1.06-1.414-1.414-1.057 1.057c-.104.104-.21.204-.319.3l1.316 1.506c.14-.123.277-.253.414-.389z"/><path d="m46.868 29.476h2v2h-2z" transform="matrix(.707 -.707 .707 .707 -7.529 42.774)"/><path d="m29.636 18.606c-.567.567-1.056 1.205-1.452 1.896l1.734.996c.309-.538.689-1.035 1.132-1.478l.313-.313-1.414-1.414z"/><path d="m30.414 14h8.485v2h-8.485z" transform="matrix(.707 -.707 .707 .707 -.456 28.899)"/><path d="m18.121 49c.822 0 1.626-.333 2.207-.914l5.758-5.758c.581-.581.914-1.385.914-2.207 0-1.721-1.4-3.121-3.121-3.121-.822 0-1.626.333-2.207.914l-5.758 5.758c-.581.581-.914 1.385-.914 2.207 0 1.721 1.4 3.121 3.121 3.121zm4.965-9.672c.209-.209.498-.328.793-.328.618 0 1.121.503 1.121 1.121 0 .295-.119.584-.328.793l-2.172 2.172-1.586-1.586zm-5.758 5.758 2.172-2.172 1.586 1.586-2.172 2.172c-.209.209-.498.328-.793.328-.618 0-1.121-.503-1.121-1.121 0-.295.119-.584.328-.793z"/></svg>