<svg height="480pt" viewBox="-10 0 480 480" width="480pt" xmlns="http://www.w3.org/2000/svg"><path d="m339.585938 280c0 8.835938-7.164063 16-16 16-8.839844 0-16-7.164062-16-16s7.160156-16 16-16c8.835937 0 16 7.164062 16 16zm0 0" fill="#bdbfcc"/><path d="m451.585938 128.960938c0-20.921876-13.171876-39.207032-32.890626-49.472657.121094-1.417969.257813-2.839843.257813-4.289062 0-32.167969-31.042969-58.238281-69.335937-58.238281-15.761719 0-30.242188 4.464843-41.882813 11.902343-10.46875-12.742187-26.175781-20.863281-43.757813-20.863281-15.984374 0-30.417968 6.71875-40.785156 17.519531-10.367187-10.800781-24.800781-17.519531-40.785156-17.519531-20.007812 0-37.582031 10.511719-47.773438 26.40625-9.863281-5.351562-21.402343-8.484375-33.792968-8.484375-36.039063 0-65.253906 26.070313-65.253906 58.238281 0 9.863282 2.773437 19.152344 7.621093 27.296875-4.839843 7.941407-7.621093 16.925781-7.621093 26.464844 0 32.167969 31.039062 58.238281 69.335937 58.238281 2.8125 0 5.574219-.183594 8.300781-.457031 8.496094 21.28125 28.953125 36.296875 52.875 36.296875 15.980469 0 30.414063-6.71875 40.78125-17.519531 10.367188 10.800781 24.800782 17.519531 40.785156 17.519531 20.808594 0 38.960938-11.390625 48.945313-28.351562 9.976563 16.960937 28.125 28.351562 48.933594 28.351562 27.808593 0 50.953125-20.289062 56.03125-47.144531 28.882812-7.03125 50.011719-29.367188 50.011719-55.894531zm0 0" fill="#bdbfcc"/><path d="m227.585938 144h144l-24 24v8h-96v-8zm0 0" fill="#575757"/><path d="m355.585938 128-.914063-1.816406c-3.992187-7.984375-11.273437-13.617188-19.800781-16.261719-2.152344-.675781-3.949219-1.488281-4.855469-2.433594-6.398437-6.761719-14.640625-11.488281-23.960937-11.488281h-1.871094c-8.0625 0-15.800782 3.199219-21.503906 8.902344l-2.855469 2.859375c-2.710938 2.710937-16.398438 4.238281-20.238281 4.238281-10.25 5.121094-18.035157 14.105469-21.65625 24.96875l-2.34375 7.03125h128zm0 0" fill="#f5c24b"/><path d="m123.585938 88 7.109374 88h49.777344l7.113282-88zm0 0" fill="#b74040"/><path d="m259.585938 416h-21.304688c26.78125-12.9375 45.304688-40.265625 45.304688-72 0-44.183594-35.816407-80-80-80-44.1875 0-80 35.816406-80 80 0 31.734375 18.519531 59.0625 45.300781 72h-21.300781c-39.769532 0-72 16.230469-72 56h256c0-39.769531-32.234376-56-72-56zm0 0" fill="#7aa2d8"/><path d="m382.679688 434.574219 5.320312 15.953125c.726562 2.191406 2.382812 3.96875 4.519531 4.855468.984375.417969 2.023438.617188 3.066407.617188 1.222656 0 2.453124-.28125 3.574218-.839844l32-16-7.160156-14.3125-23.753906 11.871094-5.085938-15.246094c-.695312-2.089844-2.214844-3.800781-4.214844-4.730468-2.007812-.917969-4.296874-.988282-6.335937-.167969l-40 16 5.933594 14.859375zm0 0"/><path d="m40.214844 384.742188c-2 .929687-3.519532 2.640624-4.214844 4.730468l-5.089844 15.246094-23.75-11.871094-7.160156 14.3125 32 16c1.128906.558594 2.359375.839844 3.585938.839844 1.039062 0 2.078124-.199219 3.0625-.609375 2.144531-.886719 3.800781-2.664063 4.519531-4.855469l5.320312-15.949218 32.128907 12.847656 5.933593-14.859375-40-16c-2.03125-.820313-4.320312-.742188-6.335937.167969zm0 0"/><path d="m27.585938 464h16v16h-16zm0 0"/><path d="m331.585938 384h16v16h-16zm0 0"/><path d="m195.585938 312h-16c0 4.414062-3.585938 8-8 8-4.417969 0-8-3.585938-8-8h-16c0 13.230469 10.765624 24 24 24 13.230468 0 24-10.769531 24-24zm0 0"/><path d="m235.585938 336c13.230468 0 24-10.769531 24-24h-16c0 4.414062-3.585938 8-8 8-4.417969 0-8-3.585938-8-8h-16c0 13.230469 10.765624 24 24 24zm0 0"/><path d="m67.585938 472c0 4.425781 3.574218 8 8 8h256c4.421874 0 8-3.574219 8-8 0-38.902344-28.1875-62.585938-75.664063-63.9375 17.476563-16.320312 27.664063-39.214844 27.664063-64.0625 0-48.519531-39.480469-88-88-88-48.523438 0-88 39.480469-88 88 0 24.847656 10.183593 47.742188 27.660156 64.0625-47.476563 1.351562-75.660156 25.035156-75.660156 63.9375zm80-48h21.300781c3.738281 0 6.96875-2.574219 7.800781-6.214844.832031-3.632812-.960938-7.371094-4.320312-8.984375-25.160157-12.152343-40.78125-36.976562-40.78125-64.800781 0-39.703125 32.292968-72 72-72 39.703124 0 72 32.296875 72 72 0 27.824219-15.625 52.648438-40.785157 64.800781-3.359375 1.613281-5.160156 5.351563-4.320312 8.984375.832031 3.640625 4.0625 6.214844 7.800781 6.214844h21.304688c22.277343 0 58.644531 5.425781 63.46875 40h-238.941407c4.824219-34.574219 41.191407-40 63.472657-40zm0 0"/><path d="m203.585938 352c-17.648438 0-32 14.351562-32 32h16c0-8.824219 7.175781-16 16-16 8.820312 0 16 7.175781 16 16h16c0-17.648438-14.355469-32-32-32zm0 0"/><path d="m361.464844 122.023438c-4.90625-9.375-13.441406-16.40625-24.234375-19.757813-1.046875-.320313-1.613281-.570313-1.597657-.496094-8.640624-9.007812-18.863281-13.769531-29.578124-13.769531h-1.871094c-10.253906 0-19.902344 3.992188-27.160156 11.246094l-2.351563 2.355468c-2.679687 1.140626-11.640625 2.398438-15.085937 2.398438-1.242188 0-2.472657.289062-3.578126.839844-12.222656 6.121094-21.34375 16.625-25.664062 29.59375l-.519531 1.566406h-2.238281c-3.234376 0-6.160157 1.945312-7.394532 4.9375-1.238281 2.992188-.550781 6.429688 1.738282 8.71875l21.65625 21.65625v4.6875c0 4.425781 3.574218 8 8 8h96c4.421874 0 8-3.574219 8-8v-4.6875l21.652343-21.65625c2.289063-2.289062 2.976563-5.726562 1.738281-8.71875-1.234374-2.992188-4.160156-4.9375-7.390624-4.9375h-.425782l30.9375-43.351562-13.035156-9.296876zm-99.710938-2.128907c5.300782-.308593 18.847656-1.597656 23.734375-6.488281l2.847657-2.847656c4.230468-4.230469 9.855468-6.558594 15.839843-6.558594h1.871094c7.96875 0 14.28125 4.886719 18.160156 8.96875 1.832031 1.953125 4.480469 3.40625 8.296875 4.582031 6.808594 2.121094 12.144532 6.449219 15.007813 12.183594l.902343 1.824219c.011719.007812.011719.007812.011719.015625l2.214844 4.425781h-103.753906c3.113281-6.824219 8.265625-12.425781 14.867187-16.105469zm80.175782 42.449219c-1.503907 1.496094-2.34375 3.527344-2.34375 5.65625h-80c0-2.128906-.84375-4.160156-2.347657-5.65625l-10.34375-10.34375h105.378907zm0 0"/><path d="m155.824219 54.0625-6.480469 25.9375h-41.757812v16h8.613281l6.511719 80.640625c.34375 4.160156 3.808593 7.359375 7.984374 7.359375h49.785157c4.167969 0 7.640625-3.199219 7.976562-7.359375l6.511719-80.640625h8.617188v-16h-37.753907l4.007813-16h33.746094v-16h-40c-3.675782 0-6.867188 2.496094-7.761719 6.0625zm17.265625 113.9375h-35.019532l-5.8125-72h46.644532zm0 0"/><path d="m323.585938 256c-13.234376 0-24 10.769531-24 24s10.765624 24 24 24c13.230468 0 24-10.769531 24-24s-10.769532-24-24-24zm0 32c-4.417969 0-8-3.585938-8-8s3.582031-8 8-8c4.414062 0 8 3.585938 8 8s-3.585938 8-8 8zm0 0"/><path d="m426.960938 74.953125c-.160157-36.417969-34.792969-65.992187-77.335938-65.992187-14.367188 0-28.167969 3.351562-40.320312 9.757812-12.105469-11.964844-28.273438-18.71875-45.328126-18.71875-15.03125 0-29.25 5.152344-40.785156 14.625-11.527344-9.472656-25.75-14.625-40.785156-14.625-19.679688 0-38.03125 8.960938-50.335938 24.289062-9.765624-4.175781-20.429687-6.367187-31.230468-6.367187-40.398438 0-73.253906 29.710937-73.253906 66.238281 0 9.390625 2.230468 18.71875 6.492187 27.246094-4.261719 8.355469-6.492187 17.425781-6.492187 26.515625 0 36.519531 34.695312 66.230469 77.335937 66.230469 1.109375 0 2.214844-.023438 3.308594-.074219 11.105469 22.011719 33.226562 35.921875 57.859375 35.921875 15.039062 0 29.253906-5.152344 40.789062-14.625 11.527344 9.480469 25.746094 14.625 40.785156 14.625 19.105469 0 36.695313-8.28125 48.945313-22.609375 12.230469 14.328125 29.832031 22.609375 48.933594 22.609375 29.457031 0 55.097656-20.191406 62.761719-48.695312 30.4375-9.320313 51.28125-34.359376 51.28125-62.34375 0-21.730469-12.105469-41.585938-32.625-54.007813zm-27.273438 102.136719c-3.054688.742187-5.382812 3.199218-5.96875 6.277344-4.460938 23.542968-24.71875 40.632812-48.175781 40.632812-17.335938 0-33.054688-9.128906-42.039063-24.40625-1.441406-2.449219-4.0625-3.945312-6.894531-3.945312s-5.457031 1.503906-6.890625 3.945312c-9 15.277344-24.71875 24.40625-42.054688 24.40625-13.257812 0-25.695312-5.34375-35.007812-15.054688-1.503906-1.570312-3.59375-2.464843-5.777344-2.464843s-4.261718.886719-5.773437 2.464843c-9.320313 9.710938-21.753907 15.054688-35.015625 15.054688-20.019532 0-37.851563-12.273438-45.441406-31.265625-1.320313-3.300781-4.648438-5.34375-8.222657-4.992187-2.472656.25-4.96875.417968-7.503906.417968-33.824219 0-61.335937-22.535156-61.335937-50.238281 0-7.777344 2.167968-15.28125 6.453124-22.304687 1.546876-2.527344 1.5625-5.714844.050782-8.257813-4.320313-7.230469-6.503906-15.039063-6.503906-23.199219 0-27.703125 25.6875-50.230468 57.253906-50.230468 10.542968 0 20.902344 2.597656 29.976562 7.511718 3.695313 2.007813 8.28125.804688 10.542969-2.714844 9.136719-14.230468 24.472656-22.726562 41.046875-22.726562 13.257812 0 25.699219 5.34375 35.019531 15.054688 3.015625 3.144531 8.527344 3.144531 11.542969 0 9.320312-9.710938 21.75-15.054688 35.007812-15.054688 14.519532 0 28.214844 6.535156 37.582032 17.945312 2.5625 3.125 7.058594 3.855469 10.488281 1.664063 10.914063-6.96875 23.90625-10.648437 37.578125-10.648437 33.824219 0 61.335938 22.535156 61.335938 50.238281 0 1.128906-.113282 2.214843-.226563 3.578125-.277344 3.222656 1.402344 6.300781 4.273437 7.796875 17.886719 9.328125 28.578126 25.179687 28.578126 42.386719 0 22.039062-18.058594 41.832031-43.898438 48.128906zm0 0"/></svg>