<?xml version="1.0" encoding="iso-8859-1"?>
<!-- Generator: Adobe Illustrator 19.0.0, SVG Export Plug-In . SVG Version: 6.00 Build 0)  -->
<svg version="1.1" id="Capa_1" xmlns="http://www.w3.org/2000/svg" xmlns:xlink="http://www.w3.org/1999/xlink" x="0px" y="0px"
	 viewBox="0 0 512 512" style="enable-background:new 0 0 512 512;" xml:space="preserve">
<path style="fill:#DFEAEF;" d="M463.577,353.5H48.423V73.72c0-3.876,3.142-7.018,7.018-7.018h401.118
	c3.876,0,7.018,3.142,7.018,7.018L463.577,353.5L463.577,353.5z"/>
<path style="fill:#BFCFD6;" d="M456.559,66.701h-52.198c3.876,0,7.018,3.142,7.018,7.018v238.532c0,4.556-3.693,8.249-8.249,8.249
	H48.423v33h415.155v-33V73.72C463.577,69.844,460.435,66.701,456.559,66.701z"/>
<path style="fill:#35E5E5;" d="M79.423,300.55V101.962c0-2.353,1.908-4.261,4.261-4.261h344.633c2.353,0,4.261,1.908,4.261,4.261
	V300.55c0,2.353-1.908,4.261-4.261,4.261H83.684C81.33,304.811,79.423,302.904,79.423,300.55z"/>
<path style="fill:#28CEC9;" d="M428.316,97.702h-16.937v182.874c0,2.353-1.908,4.261-4.261,4.261H79.423v15.714
	c0,2.353,1.908,4.261,4.261,4.261h344.633c2.353,0,4.261-1.908,4.261-4.261V101.962C432.577,99.609,430.67,97.702,428.316,97.702z"
	/>
<path style="fill:#6F98A3;" d="M494.756,445.298H17.244c-5.382,0-9.744-4.363-9.744-9.744v-19.026h497v19.026
	C504.5,440.936,500.137,445.298,494.756,445.298z"/>
<polygon style="fill:#9EBECC;" points="504.5,416.529 7.5,416.529 48.423,335.811 463.577,335.811 "/>
<path style="fill:#86AEBC;" d="M463.577,335.811H404.91l26.893,53.044c3.006,5.929-1.302,12.944-7.95,12.944H14.967L7.5,416.529h497
	L463.577,335.811z"/>
<path style="fill:#DFEAEF;" d="M321.797,416.529l-9.789-35.496c-0.792-2.872-3.405-4.862-6.384-4.862h-99.247
	c-2.979,0-5.592,1.99-6.384,4.862l-9.789,35.496H321.797z"/>
<polygon style="fill:#BFCFD6;" points="194.265,401.799 190.203,416.529 321.797,416.529 317.735,401.799 "/>
<path d="M511.976,416.063c-0.005-0.075-0.004-0.149-0.011-0.224c-0.027-0.297-0.07-0.588-0.131-0.873
	c-0.006-0.028-0.015-0.056-0.022-0.084c-0.059-0.262-0.132-0.518-0.218-0.768c-0.023-0.067-0.048-0.132-0.073-0.198
	c-0.084-0.227-0.179-0.448-0.284-0.663c-0.018-0.038-0.03-0.077-0.049-0.115l-40.112-79.118V73.72
	c0-8.006-6.513-14.519-14.519-14.519H55.441c-8.006,0-14.519,6.513-14.519,14.519v260.298L0.811,413.136
	c-0.019,0.038-0.031,0.077-0.049,0.115c-0.105,0.215-0.199,0.436-0.284,0.662c-0.025,0.066-0.05,0.132-0.073,0.199
	c-0.085,0.251-0.159,0.508-0.218,0.77c-0.006,0.027-0.015,0.054-0.021,0.081c-0.061,0.286-0.104,0.577-0.131,0.874
	c-0.007,0.074-0.007,0.149-0.011,0.223C0.014,416.217,0,416.37,0,416.529v19.026c0,9.509,7.735,17.244,17.244,17.244h477.512
	c9.509,0,17.244-7.735,17.244-17.244v-19.026C512,416.37,511.986,416.217,511.976,416.063z M55.923,74.202h400.154v254.109H55.923
	V74.202z M53.029,343.311H458.97l33.318,65.717h-164.78l-8.271-29.989c-1.684-6.105-7.282-10.369-13.615-10.369h-99.246
	c-6.333,0-11.932,4.264-13.615,10.368l-8.271,29.99H19.711L53.029,343.311z M311.948,409.029H200.052l6.993-25.358h97.91
	L311.948,409.029z M497,435.554c0,1.237-1.007,2.244-2.244,2.244H17.244c-1.237,0-2.244-1.007-2.244-2.244v-11.526h175.203h131.594
	H497V435.554z"/>
<path d="M432.577,213.756c-4.143,0-7.5,3.357-7.5,7.5v76.055H86.923v-76.055c0-4.143-3.357-7.5-7.5-7.5s-7.5,3.357-7.5,7.5v79.294
	c0,6.485,5.275,11.761,11.761,11.761h344.633c6.485,0,11.761-5.275,11.761-11.761v-79.294
	C440.077,217.114,436.72,213.756,432.577,213.756z"/>
<path d="M428.316,90.202H83.684c-6.485,0-11.761,5.275-11.761,11.761v79.294c0,4.143,3.357,7.5,7.5,7.5s7.5-3.357,7.5-7.5v-76.055
	h338.154v76.055c0,4.143,3.357,7.5,7.5,7.5s7.5-3.357,7.5-7.5v-79.294C440.077,95.477,434.802,90.202,428.316,90.202z"/>
<g>
</g>
<g>
</g>
<g>
</g>
<g>
</g>
<g>
</g>
<g>
</g>
<g>
</g>
<g>
</g>
<g>
</g>
<g>
</g>
<g>
</g>
<g>
</g>
<g>
</g>
<g>
</g>
<g>
</g>
</svg>
