<svg id="icons" enable-background="new 0 0 64 64" height="512" viewBox="0 0 64 64" width="512" xmlns="http://www.w3.org/2000/svg"><path d="m47.005 4h-30.01c-4.42 0-8 3.58-8 8s3.58 8 8 8h30.01c4.41 0 8-3.58 8-8s-3.59-8-8-8z" fill="#aab2bd"/><path d="m5.995 48c0 6.08 4.93 11 11 11h30.01c6.07 0 11-4.92 11-11v4c0 6.08-4.93 11-11 11h-30.01c-6.07 0-11-4.92-11-11z" fill="#e6e9ed"/><g fill="#a0d468"><path d="m31.005 36c1.1 0 2 .89 2 2 0 1.1-.9 2-2 2-1.11 0-2-.9-2-2 0-1.11.89-2 2-2z"/><path d="m24.005 36c1.1 0 2 .89 2 2 0 1.1-.9 2-2 2-1.11 0-2-.9-2-2 0-1.11.89-2 2-2z"/><path d="m37.995 36c1.109 0 2 .89 2 2 0 1.1-.891 2-2 2-1.101 0-2-.9-2-2 0-1.11.9-2 2-2z"/></g><path d="m37.995 40c1.109 0 2-.9 2-2 0-1.11-.891-2-2-2-1.101 0-2 .89-2 2 0 1.1.9 2 2 2zm-13.99 0c1.1 0 2-.9 2-2 0-1.11-.9-2-2-2-1.11 0-2 .89-2 2 0 1.1.89 2 2 2zm7-4c-1.11 0-2 .89-2 2 0 1.1.89 2 2 2 1.1 0 2-.9 2-2 0-1.11-.901-2-2-2zm-15-2h24.99c2.21 0 4 1.79 4 4s-1.79 4-4 4h-16.99c-4.42 0-8-3.58-8-8z" fill="#8cc152"/><path d="m21.995 8c-2.2 0-4 1.79-4 4s1.8 4 4 4h-5c-2.21 0-4-1.79-4-4s1.79-4 4-4z" fill="#ccd1d9"/><path d="m44.995 38c0-2.21-1.79-4-4-4h-24.99c0 4.42 3.58 8 8 8h16.99c2.21 0 4-1.79 4-4zm13.01-22v32c0 6.08-4.93 11-11 11h-30.01c-6.07 0-11-4.92-11-11v-32c0 6.07 4.93 11 11 11h30.01c6.07 0 11-4.93 11-11z" fill="#fc6e51"/><path d="m5.995 12c0 6.07 4.93 10.99 11 10.99h30.01c6.07 0 11-4.92 11-10.99v4c0 6.07-4.93 11-11 11h-30.01c-6.07 0-11-4.93-11-11z" fill="#e6e9ed"/><path d="m47.005 22.99h-30.01c-6.07 0-11-4.92-11-10.99s4.93-11 11-11h30.01c6.07 0 11 4.93 11 11s-4.93 10.99-11 10.99zm-30.01-2.99h30.01c4.41 0 8-3.58 8-8s-3.59-8-8-8h-30.01c-4.42 0-8 3.58-8 8s3.58 8 8 8z" fill="#ccd1d9"/><path d="m16.997 23.992c-6.617 0-12-5.38-12-11.994 0-6.617 5.383-12 12-12 .553 0 1 .448 1 1s-.447 1-1 1c-5.514 0-10 4.486-10 10 0 5.511 4.486 9.994 10 9.994.553 0 1 .448 1 1s-.447 1-1 1z"/><path d="m16.997 20.994c-4.963 0-9-4.036-9-8.996 0-4.962 4.037-9 9-9 .553 0 1 .448 1 1s-.447 1-1 1c-3.859 0-7 3.14-7 7 0 3.857 3.141 6.996 7 6.996.553 0 1 .448 1 1s-.447 1-1 1z"/><path d="m16.998 16.994c-2.757 0-4.999-2.241-4.999-4.996 0-2.757 2.242-5 4.999-5 .553 0 1 .448 1 1s-.447 1-1 1c-1.653 0-2.999 1.346-2.999 3 0 1.652 1.346 2.996 2.999 2.996.553 0 1 .448 1 1s-.447 1-1 1z"/><path d="m23 16.996c-.553 0-1-.448-1-1s.447-1 1-1c1.654 0 3-1.346 3-3 0-1.653-1.346-2.998-3-2.998-.553 0-1-.448-1-1s.447-1 1-1c2.757 0 5 2.242 5 4.998 0 2.757-2.243 5-5 5z"/><path d="m22 16.994c-2.757 0-5-2.242-5-4.998 0-2.757 2.243-5 5-5 .553 0 1 .448 1 1s-.447 1-1 1c-1.654 0-3 1.346-3 3 0 1.653 1.346 2.998 3 2.998.553 0 1 .448 1 1s-.447 1-1 1z"/><path d="m47.003 23.992c-.553 0-1-.448-1-1s.447-1 1-1c5.514 0 10-4.483 10-9.994 0-5.514-4.486-10-10-10-.553 0-1-.448-1-1s.447-1 1-1c6.617 0 12 5.383 12 12 0 6.614-5.383 11.994-12 11.994z"/><path d="m47.003 20.994c-.553 0-1-.448-1-1s.447-1 1-1c3.859 0 7-3.139 7-6.996 0-3.86-3.141-7-7-7-.553 0-1-.448-1-1s.447-1 1-1c4.963 0 9 4.038 9 9 0 4.96-4.037 8.996-9 8.996z"/><path d="m47.003 23.992h-30.006c-.553 0-1-.448-1-1s.447-1 1-1h30.006c.553 0 1 .448 1 1s-.447 1-1 1z"/><path d="m16.997 27.994c-6.617 0-12-5.38-12-11.994 0-.552.447-1 1-1s1 .448 1 1c0 5.511 4.486 9.994 10 9.994.553 0 1 .448 1 1s-.447 1-1 1z"/><path d="m47.003 27.994c-.553 0-1-.448-1-1s.447-1 1-1c5.514 0 10-4.483 10-9.994 0-.552.447-1 1-1s1 .448 1 1c0 6.614-5.383 11.994-12 11.994z"/><path d="m47.003 27.994h-30.006c-.553 0-1-.448-1-1s.447-1 1-1h30.006c.553 0 1 .448 1 1s-.447 1-1 1z"/><path d="m16.997 64.002c-6.617 0-12-5.383-12-12 0-.553.447-1 1-1s1 .447 1 1c0 5.514 4.486 10 10 10 .553 0 1 .447 1 1s-.447 1-1 1z"/><path d="m47.003 64.002c-.553 0-1-.447-1-1s.447-1 1-1c5.514 0 10-4.486 10-10 0-.553.447-1 1-1s1 .447 1 1c0 6.617-5.383 12-12 12z"/><path d="m47.003 64.002h-30.006c-.553 0-1-.447-1-1s.447-1 1-1h30.006c.553 0 1 .447 1 1s-.447 1-1 1z"/><path d="m16.997 59.998c-6.617 0-12-5.383-12-12 0-.553.447-1 1-1s1 .447 1 1c0 5.514 4.486 10 10 10 .553 0 1 .447 1 1s-.447 1-1 1z"/><path d="m47.003 59.998c-.553 0-1-.447-1-1s.447-1 1-1c5.514 0 10-4.486 10-10 0-.553.447-1 1-1s1 .447 1 1c0 6.617-5.383 12-12 12z"/><path d="m47.003 59.998h-30.006c-.553 0-1-.447-1-1s.447-1 1-1h30.006c.553 0 1 .447 1 1s-.447 1-1 1z"/><path d="m47.003 1.998h-30.006c-.553 0-1-.448-1-1s.447-1 1-1h30.006c.553 0 1 .448 1 1s-.447 1-1 1z"/><path d="m47.003 4.998h-30.006c-.553 0-1-.448-1-1s.447-1 1-1h30.006c.553 0 1 .448 1 1s-.447 1-1 1z"/><path d="m47.003 20.994h-30.006c-.553 0-1-.448-1-1s.447-1 1-1h30.006c.553 0 1 .448 1 1s-.447 1-1 1z"/><path d="m5.997 53.002c-.553 0-1-.447-1-1v-40.004c0-.552.447-1 1-1s1 .448 1 1v40.004c0 .553-.447 1-1 1z"/><path d="m58.003 53.002c-.553 0-1-.447-1-1v-40.004c0-.552.447-1 1-1s1 .448 1 1v40.004c0 .553-.447 1-1 1z"/><path d="m23 9h-6.002c-.553 0-1-.448-1-1s.447-1 1-1h6.002c.553 0 1 .448 1 1s-.447 1-1 1z"/><path d="m23 16.993h-6c-.553 0-1-.448-1-1s.447-1 1-1h6c.553 0 1 .448 1 1s-.447 1-1 1z"/><path d="m24.001 40.996c-1.654 0-3-1.346-3-3s1.346-3 3-3 3 1.346 3 3-1.346 3-3 3zm0-4c-.552 0-1 .448-1 1s.448 1 1 1 1-.448 1-1-.448-1-1-1z"/><path d="m31.001 40.996c-1.654 0-3-1.346-3-3s1.346-3 3-3 3 1.346 3 3-1.346 3-3 3zm0-4c-.552 0-1 .448-1 1s.448 1 1 1 1-.448 1-1-.448-1-1-1z"/><path d="m37.999 40.996c-1.654 0-3-1.346-3-3s1.346-3 3-3 3 1.346 3 3-1.346 3-3 3zm0-4c-.552 0-1 .448-1 1s.448 1 1 1 1-.448 1-1-.448-1-1-1z"/><path d="m40.997 42.996c-.553 0-1-.447-1-1s.447-1 1-1c1.654 0 3-1.346 3-3s-1.346-3-3-3c-.553 0-1-.447-1-1s.447-1 1-1c2.757 0 5 2.243 5 5s-2.243 5-5 5z"/><path d="m24.003 42.996c-4.963 0-9-4.037-9-9 0-.553.447-1 1-1s1 .447 1 1c0 3.859 3.141 7 7 7 .553 0 1 .447 1 1s-.447 1-1 1z"/><path d="m40.997 34.996h-24.994c-.553 0-1-.447-1-1s.447-1 1-1h24.994c.553 0 1 .447 1 1s-.447 1-1 1z"/><path d="m40.993 42.996h-16.99c-.553 0-1-.447-1-1s.447-1 1-1h16.99c.553 0 1 .447 1 1s-.447 1-1 1z"/><path d="m47.999 38.996h-3.002c-.553 0-1-.447-1-1s.447-1 1-1h3.002c.553 0 1 .447 1 1s-.447 1-1 1z"/><path d="m48.003 38.993c-.553 0-1-.447-1-1s.447-1 1-1c.549 0 .996-.447.996-.997 0-.553.447-1 1-1s1 .447 1 1c0 1.652-1.344 2.997-2.996 2.997z"/><path d="m44.003 46.999h-24.006c-.553 0-1-.447-1-1s.447-1 1-1h24.006c.553 0 1 .447 1 1s-.447 1-1 1z"/><path d="m44.003 49.999h-24.006c-.553 0-1-.447-1-1s.447-1 1-1h24.006c.553 0 1 .447 1 1s-.447 1-1 1z"/><path d="m37.997 52.999h-11.994c-.553 0-1-.447-1-1s.447-1 1-1h11.994c.553 0 1 .447 1 1s-.447 1-1 1z"/></svg>