<svg id="icons" enable-background="new 0 0 64 64" height="512" viewBox="0 0 64 64" width="512" xmlns="http://www.w3.org/2000/svg"><path d="m23 6.998c-.004 0-.006.002-.01.002h-.97c-.007 0-.013-.004-.02-.004-.014 0-.025.004-.039.004h-4.953c-.004 0-.006-.002-.01-.002-2.757 0-4.999 2.243-4.999 5 0 2.755 2.242 4.996 4.999 4.996.002 0 .003-.001.005-.001h4.987c.004 0 .007.001.01.001.002 0 .003-.001.005-.001h.98c.005 0 .01.003.015.003 2.757 0 5-2.243 5-5 0-2.756-2.243-4.998-5-4.998zm-9.001 5c0-1.652 1.343-2.996 2.992-3 .003.001.005.002.007.002h1.024c-.632.837-1.022 1.868-1.022 2.996 0 1.129.391 2.159 1.024 2.997h-1.024c-.001 0-.002.001-.004.001-1.652-.001-2.997-1.345-2.997-2.996zm9.011 2.997c-.004 0-.006-.002-.01-.002h-1.01c-1.649-.005-2.99-1.347-2.99-2.997 0-1.641 1.325-2.975 2.961-2.996h1.039c.002 0 .004-.001.007-.001 1.651.003 2.993 1.346 2.993 2.997s-1.341 2.994-2.99 2.999z"/><path d="m47.003-.002h-30.006c-6.617 0-12 5.383-12 12v40.004c0 6.617 5.383 12 12 12h30.006c6.617 0 12-5.383 12-12v-40.004c0-6.617-5.383-12-12-12zm-30.006 23.994h30.006c3.784 0 7.159-1.764 9.36-4.508-1.419 3.795-5.074 6.51-9.36 6.51h-30.006c-4.286 0-7.94-2.715-9.36-6.51 2.201 2.744 5.576 4.508 9.36 4.508zm30.006 38.01h-30.006c-4.286 0-7.941-2.717-9.36-6.514 2.201 2.745 5.576 4.51 9.36 4.51h30.006c3.784 0 7.159-1.765 9.36-4.51-1.419 3.797-5.074 6.514-9.36 6.514zm10-14.004c0 5.514-4.486 10-10 10h-30.006c-5.514 0-10-4.486-10-10v-25.382c2.151 3.238 5.828 5.378 10 5.378h30.006c4.172 0 7.849-2.141 10-5.378zm-10-26.006h-30.006c-5.514 0-10-4.483-10-9.994 0-5.514 4.486-10 10-10h30.006c5.514 0 10 4.486 10 10 0 5.511-4.486 9.994-10 9.994z"/><path d="m47.003 2.998h-30.006c-4.963 0-9 4.038-9 9 0 4.96 4.037 8.996 9 8.996h30.006c4.963 0 9-4.036 9-8.996 0-4.962-4.037-9-9-9zm0 15.996h-30.006c-3.859 0-7-3.139-7-6.996 0-3.86 3.141-7 7-7h30.006c3.859 0 7 3.14 7 7 0 3.857-3.141 6.996-7 6.996z"/><path d="m34.001 37.996c0-1.654-1.346-3-3-3s-3 1.346-3 3 1.346 3 3 3 3-1.346 3-3zm-3 1c-.552 0-1-.448-1-1s.448-1 1-1 1 .448 1 1-.448 1-1 1z"/><path d="m40.999 37.996c0-1.654-1.346-3-3-3s-3 1.346-3 3 1.346 3 3 3 3-1.346 3-3zm-3 1c-.552 0-1-.448-1-1s.448-1 1-1 1 .448 1 1-.448 1-1 1z"/><path d="m49.999 34.996c-.553 0-1 .447-1 1 0 .55-.447.997-.996.997-.005 0-.01.003-.015.003h-2.092c-.465-2.279-2.485-4-4.899-4h-24.994c-.553 0-1 .447-1 1 0 4.963 4.037 9 9 9h16.99.002s.001 0 .002 0c2.414 0 4.435-1.721 4.899-4h2.103c.009 0 .017-.005.025-.005 1.643-.012 2.975-1.351 2.975-2.995 0-.553-.447-1-1-1zm-9.002 6c-.001 0-.001 0-.002 0s-.001 0-.002 0h-2.994-6.998-6.998-.001c1.653 0 2.999-1.346 2.999-3s-1.346-3-3-3-3 1.346-3 3c0 1.653 1.345 2.999 2.998 3-3.518-.002-6.429-2.615-6.916-6h6.918 7 6.998 2.998c1.654 0 3 1.346 3 3s-1.346 3-3 3zm-16.996-2c-.552 0-1-.448-1-1s.448-1 1-1 1 .448 1 1-.448 1-1 1z"/><path d="m44.003 44.999h-24.006c-.553 0-1 .447-1 1s.447 1 1 1h24.006c.553 0 1-.447 1-1s-.447-1-1-1z"/><path d="m44.003 47.999h-24.006c-.553 0-1 .447-1 1s.447 1 1 1h24.006c.553 0 1-.447 1-1s-.447-1-1-1z"/><path d="m37.997 50.999h-11.994c-.553 0-1 .447-1 1s.447 1 1 1h11.994c.553 0 1-.447 1-1s-.447-1-1-1z"/></svg>