<svg height="464pt" viewBox="0 0 464 464" width="464pt" xmlns="http://www.w3.org/2000/svg"><path d="m406.875 284.097656-94.878906 75.902344 56-88-56-24 72.488281-42.289062-56.488281-197.710938h-192l-45.335938 158.664062 77.335938-38.664062-80 88 24 56-59.34375 27.695312-44.65625 156.304688h448zm0 0" fill="#787780"/><g fill="#441052"><path d="m455.996094 464h-448c-2.507813 0-4.875-1.179688-6.382813-3.183594-1.511719-2.003906-1.996093-4.601562-1.304687-7.015625l44.65625-156.304687c.636718-2.230469 2.210937-4.074219 4.3125-5.054688l52.320312-24.441406-20.945312-48.871094c-1.234375-2.882812-.675782-6.21875 1.433594-8.535156l51.199218-56.304688-39.023437 19.511719c-2.839844 1.417969-6.246094 1.027344-8.6875-1-2.445313-2.023437-3.457031-5.300781-2.585938-8.351562l45.320313-158.648438c.980468-3.433593 4.117187-5.800781 7.6875-5.800781h192c3.570312 0 6.707031 2.367188 7.6875 5.800781l56.488281 197.710938c1.007813 3.515625-.496094 7.269531-3.65625 9.113281l-58.765625 34.277344 41.398438 17.746094c2.15625.921874 3.800781 2.75 4.492187 4.992187.695313 2.242187.367187 4.675781-.890625 6.65625l-30.152344 47.375 57.285156-45.824219c2.09375-1.671875 4.878907-2.1875 7.429688-1.375 2.550781.816406 4.523438 2.851563 5.261719 5.421875l49.109375 171.90625c.691406 2.414063.207031 5.011719-1.300782 7.015625-1.511718 2.003906-3.875 3.183594-6.386718 3.183594zm-437.390625-16h426.78125l-42.894531-150.152344-85.496094 68.398438c-3.054688 2.457031-7.4375 2.335937-10.351563-.28125-2.917969-2.617188-3.511719-6.960938-1.398437-10.261719l50.949218-80.054687-47.351562-20.296876c-2.777344-1.191406-4.648438-3.84375-4.832031-6.859374-.1875-3.019532 1.34375-5.882813 3.953125-7.402344l67.121094-39.152344-53.121094-185.9375h-179.9375l-38.679688 135.375 61.074219-30.535156c3.445313-1.730469 7.636719-.753906 9.964844 2.320312 2.328125 3.078125 2.128906 7.375-.46875 10.222656l-76.546875 84.21875 21.976562 51.269532c1.699219 3.980468-.074218 8.585937-4 10.402344l-56 26.152343zm0 0"/><path d="m231.996094 416c-4.417969 0-8-3.582031-8-8v-40c0-4.417969 3.582031-8 8-8 4.417968 0 8 3.582031 8 8v40c0 4.417969-3.582032 8-8 8zm0-80c-4.417969 0-8-3.582031-8-8v-40c0-4.417969 3.582031-8 8-8 4.417968 0 8 3.582031 8 8v40c0 4.417969-3.582032 8-8 8zm0-80c-4.417969 0-8-3.582031-8-8v-40c0-4.417969 3.582031-8 8-8 4.417968 0 8 3.582031 8 8v40c0 4.417969-3.582032 8-8 8zm0-80c-4.417969 0-8-3.582031-8-8v-40c0-4.417969 3.582031-8 8-8 4.417968 0 8 3.582031 8 8v40c0 4.417969-3.582032 8-8 8zm0-80c-4.417969 0-8-3.582031-8-8v-40c0-4.417969 3.582031-8 8-8 4.417968 0 8 3.582031 8 8v40c0 4.417969-3.582032 8-8 8zm0 0"/></g></svg>