<?xml version="1.0" encoding="iso-8859-1"?>
<!-- Generator: Adobe Illustrator 19.0.0, SVG Export Plug-In . SVG Version: 6.00 Build 0)  -->
<svg version="1.1" id="Capa_1" xmlns="http://www.w3.org/2000/svg" xmlns:xlink="http://www.w3.org/1999/xlink" x="0px" y="0px"
	 viewBox="0 0 512 512" style="enable-background:new 0 0 512 512;" xml:space="preserve">
<path style="fill:#2C353F;" d="M374.157,0H137.843c-12.747,0-23.084,10.337-23.084,23.084v153.468v70.621v241.743
	c0,12.747,10.337,23.084,23.084,23.084h236.323c12.738,0,23.075-10.337,23.075-23.084V247.172v-70.621V23.084
	C397.241,10.337,386.904,0,374.157,0z"/>
<rect x="114.759" y="52.966" style="fill:#659ED8;" width="282.483" height="370.759"/>
<g>
	<path style="fill:#C4CED3;" d="M300.138,35.31h-88.276c-4.873,0-8.828-3.955-8.828-8.828s3.955-8.828,8.828-8.828h88.276
		c4.873,0,8.828,3.955,8.828,8.828S305.011,35.31,300.138,35.31z"/>
	<path style="fill:#C4CED3;" d="M361.931,35.31h-8.828c-4.873,0-8.828-3.955-8.828-8.828s3.955-8.828,8.828-8.828h8.828
		c4.873,0,8.828,3.955,8.828,8.828S366.804,35.31,361.931,35.31z"/>
	<path style="fill:#C4CED3;" d="M266.955,485.517h-21.919c-8.572,0-15.519-6.947-15.519-15.528v-4.264
		c0-8.572,6.947-15.519,15.528-15.519h21.919c8.572,0,15.519,6.947,15.519,15.528v4.264
		C282.483,478.57,275.535,485.517,266.955,485.517z"/>
</g>
<g>
</g>
<g>
</g>
<g>
</g>
<g>
</g>
<g>
</g>
<g>
</g>
<g>
</g>
<g>
</g>
<g>
</g>
<g>
</g>
<g>
</g>
<g>
</g>
<g>
</g>
<g>
</g>
<g>
</g>
</svg>
