<svg height="512pt" viewBox="-27 0 512 512.001" width="512pt" xmlns="http://www.w3.org/2000/svg"><path d="m426.652344 133.316406 17.714844-11.683594c8.578124-5.65625 8.578124-18.246093 0-23.902343l-17.714844-11.683594c-4.886719-3.222656-7.320313-9.097656-6.144532-14.828125l4.265626-20.789062c2.066406-10.070313-6.835938-18.96875-16.902344-16.902344l-20.789063 4.261718c-5.734375 1.179688-11.605469-1.253906-14.828125-6.140624l-11.683594-17.714844c-5.660156-8.578125-18.246093-8.578125-23.902343 0l-11.683594 17.714844c-3.222656 4.886718-9.09375 7.320312-14.828125 6.144531l-20.789062-4.265625c-10.066407-2.066406-18.96875 6.832031-16.902344 16.902344l4.265625 20.789062c1.175781 5.734375-1.257813 11.605469-6.144531 14.828125l-17.714844 11.683594c-8.578125 5.65625-8.578125 18.246093 0 23.902343l17.714844 11.683594c4.886718 3.222656 7.320312 9.09375 6.140624 14.828125l-4.261718 20.789063c-2.066406 10.070312 6.832031 18.96875 16.902344 16.902344l20.789062-4.265626c5.730469-1.175781 11.605469 1.257813 14.828125 6.144532l11.683594 17.714844c5.65625 8.578124 18.246093 8.578124 23.902343 0l11.683594-17.714844c3.222656-4.886719 9.09375-7.320313 14.828125-6.144532l20.789063 4.265626c10.070312 2.066406 18.96875-6.832032 16.902344-16.902344l-4.265626-20.789063c-1.175781-5.734375 1.257813-11.605469 6.144532-14.828125zm0 0" fill="#e26e7e"/><path d="m409.328125 109.683594c0 33.527344-27.179687 60.707031-60.707031 60.707031-33.53125 0-60.710938-27.179687-60.710938-60.707031 0-33.53125 27.179688-60.710938 60.710938-60.710938 33.527344 0 60.707031 27.179688 60.707031 60.710938zm0 0" fill="#f7ef87"/><path d="m107.054688 504.5c-3.496094 0-7.003907-1.199219-9.871094-3.648438-6.367188-5.457031-7.113282-15.042968-1.65625-21.414062 21.191406-24.757812 25.261718-48.59375 12.804687-75.007812-3.578125-7.585938-.332031-16.636719 7.253907-20.214844 7.589843-3.578125 16.636718-.328125 20.214843 7.257812 8.976563 19.027344 11.867188 38.070313 8.597657 56.601563-3.09375 17.535156-11.773438 34.730469-25.800782 51.113281-3.003906 3.511719-7.257812 5.3125-11.542968 5.3125zm0 0" fill="#efd176"/><path d="m191.554688 500.375c-1.917969 0-3.867188-.367188-5.753907-1.136719-7.761719-3.179687-11.476562-12.046875-8.296875-19.8125 13.125-32.039062 8.488282-59.691406-2.871094-70.445312-6.089843-5.765625-6.355468-15.378907-.585937-21.472657 5.765625-6.089843 15.378906-6.351562 21.46875-.585937 26.234375 24.832031 23.972656 70.136719 10.097656 104.019531-2.40625 5.875-8.078125 9.433594-14.058593 9.433594zm0 0" fill="#efd176"/><path d="m256.714844 454.222656c-1.347656.203125-2.746094.226563-4.164063.050782-8.324219-1.042969-14.222656-8.636719-13.179687-16.957032.71875-5.769531 1.507812-11.660156 2.269531-17.359375 5.765625-43.09375 11.722656-87.65625-6.34375-105.859375-5.910156-5.953125-5.875-15.570312.078125-21.480468 5.953125-5.90625 15.570312-5.871094 21.480469.082031 28.597656 28.8125 21.628906 80.90625 14.890625 131.285156-.753906 5.636719-1.53125 11.464844-2.238282 17.105469-.863281 6.902344-6.234374 12.140625-12.792968 13.132812zm0 0" fill="#efd176"/><path d="m127.457031 109.382812c21.367188 21.367188 25.03125 54.632813 25.394531 71.707032.132813 6.203125-4.9375 11.277344-11.144531 11.144531-17.070312-.367187-50.339843-4.027344-71.707031-25.394531-21.367188-21.367188-25.03125-54.636719-25.394531-71.707032-.132813-6.207031 4.941406-11.277343 11.144531-11.144531 17.074219.363281 50.339844 4.027344 71.707031 25.394531zm0 0" fill="#8ee2cf"/><path d="m111.542969 158.425781c-1.917969 0-3.839844-.734375-5.304688-2.199219l-25.625-25.625c-2.929687-2.929687-2.929687-7.679687 0-10.609374 2.929688-2.925782 7.675781-2.925782 10.605469 0l25.625 25.628906c2.929688 2.929687 2.929688 7.679687 0 10.605468-1.460938 1.464844-3.382812 2.199219-5.300781 2.199219zm0 0" fill="#6fce91"/><path d="m210.960938 109.382812c-21.367188 21.367188-25.027344 54.632813-25.390626 71.707032-.132812 6.203125 4.9375 11.277344 11.140626 11.144531 17.074218-.367187 50.339843-4.027344 71.710937-25.394531 21.367187-21.367188 25.027344-54.636719 25.394531-71.707032.132813-6.207031-4.941406-11.277343-11.144531-11.144531-17.074219.363281-50.339844 4.027344-71.710937 25.394531zm0 0" fill="#8ee2cf"/><path d="m226.878906 158.425781c-1.921875 0-3.839844-.734375-5.304687-2.199219-2.929688-2.929687-2.929688-7.675781 0-10.605468l25.628906-25.628906c2.925781-2.925782 7.675781-2.925782 10.605469 0 2.929687 2.933593 2.929687 7.679687 0 10.609374l-25.628906 25.625c-1.464844 1.464844-3.382813 2.199219-5.300782 2.199219zm0 0" fill="#6fce91"/><path d="m209.839844 120.214844c0 30.21875-20.933594 56.332031-32.75 68.660156-4.292969 4.480469-11.464844 4.480469-15.757813 0-11.816406-12.332031-32.75-38.441406-32.75-68.660156 0-30.222656 20.933594-56.332032 32.75-68.664063 4.292969-4.480469 11.464844-4.480469 15.757813 0 11.816406 12.332031 32.746094 38.445313 32.75 68.664063zm0 0" fill="#8ee2cf"/><path d="m169.210938 145.835938c-4.140626 0-7.5-3.359376-7.5-7.5v-36.242188c0-4.144531 3.359374-7.5 7.5-7.5 4.140624 0 7.5 3.355469 7.5 7.5v36.242188c0 4.140624-3.359376 7.5-7.5 7.5zm0 0" fill="#6fce91"/><path d="m169.210938 164.179688c62.6875 0 107.496093 49.367187 113.503906 124.128906 6.246094 77.769531-23.007813 135.78125-113.503906 135.78125-90.496094 0-119.753907-58.011719-113.503907-135.78125 6.007813-74.761719 50.816407-124.128906 113.503907-124.128906zm0 0" fill="#f7ef87"/><g fill="#efd176"><path d="m131.738281 170.695312c-42.566406 15.710938-71.308593 58.800782-76.03125 117.613282-6.230469 77.554687 22.847657 135.453125 112.757813 135.773437-109.128906-66.765625-79.867188-187.226562-36.726563-253.386719zm0 0"/><path d="m170.339844 260.65625c-1.917969 0-3.839844-.734375-5.304688-2.195312-2.925781-2.933594-2.925781-7.679688 0-10.609376l11.019532-11.019531c2.929687-2.929687 7.679687-2.929687 10.609374 0l11.019532 11.019531c2.929687 2.929688 2.929687 7.679688 0 10.605469-2.929688 2.929688-7.679688 2.929688-10.605469.003907l-5.71875-5.71875-5.71875 5.71875c-1.464844 1.460937-3.382813 2.195312-5.300781 2.195312zm0 0"/><path d="m255.386719 260.65625c-1.917969 0-3.835938-.734375-5.300781-2.195312l-5.71875-5.71875-5.714844 5.71875c-2.929688 2.925781-7.679688 2.925781-10.609375-.003907-2.925781-2.929687-2.925781-7.675781 0-10.605469l11.023437-11.019531c2.929688-2.929687 7.675782-2.929687 10.605469 0l11.019531 11.019531c2.929688 2.929688 2.929688 7.679688 0 10.609376-1.464844 1.460937-3.382812 2.195312-5.304687 2.195312zm0 0"/><path d="m107.332031 260.65625c-1.917969 0-3.839843-.734375-5.304687-2.195312-2.929688-2.933594-2.929688-7.679688 0-10.609376l11.019531-11.019531c2.929687-2.929687 7.679687-2.929687 10.609375 0l11.019531 11.019531c2.929688 2.929688 2.929688 7.679688 0 10.605469-2.929687 2.929688-7.679687 2.929688-10.605469.003907l-5.71875-5.71875-5.71875 5.71875c-1.460937 1.460937-3.382812 2.195312-5.300781 2.195312zm0 0"/><path d="m223.882812 389.824219c-1.917968 0-3.835937-.730469-5.300781-2.195313l-5.71875-5.71875-5.714843 5.71875c-2.929688 2.925782-7.679688 2.929688-10.609376 0-2.925781-2.929687-2.925781-7.679687 0-10.609375l11.019532-11.019531c2.929687-2.929688 7.679687-2.929688 10.609375 0l11.019531 11.019531c2.929688 2.929688 2.929688 7.679688 0 10.609375-1.464844 1.464844-3.382812 2.195313-5.304688 2.195313zm0 0"/><path d="m160.875 389.824219c-1.917969 0-3.835938-.730469-5.300781-2.195313l-5.71875-5.71875-5.71875 5.71875c-2.925781 2.925782-7.675781 2.929688-10.605469 0-2.929688-2.929687-2.929688-7.679687 0-10.609375l11.019531-11.019531c2.929688-2.929688 7.679688-2.929688 10.609375 0l11.019532 11.019531c2.929687 2.929688 2.929687 7.679688 0 10.609375-1.464844 1.464844-3.382813 2.195313-5.304688 2.195313zm0 0"/></g><path d="m135.269531 325.53125c0-11.855469-12.066406-21.464844-26.953125-21.464844-14.886718 0-26.953125 9.609375-26.953125 21.464844 0 11.851562 12.066407 21.460938 26.953125 21.460938 14.886719 0 26.953125-9.609376 26.953125-21.460938zm0 0" fill="#eda1ab"/><path d="m281.355469 325.53125c0-11.855469-12.066407-21.464844-26.953125-21.464844-14.882813 0-26.949219 9.609375-26.949219 21.464844 0 11.851562 12.066406 21.460938 26.949219 21.460938 14.886718 0 26.953125-9.609376 26.953125-21.460938zm0 0" fill="#eda1ab"/><path d="m181.359375 338.90625c9.34375 0 17.660156 6.339844 22.894531-4.476562 5.308594-10.972657-6.582031-27.257813-22.894531-27.257813s-28.203125 16.285156-22.894531 27.257813c5.234375 10.816406 13.550781 4.476562 22.894531 4.476562zm0 0" fill="#4e5660"/><path d="m188.804688 334.257812c-4.769532-1.949218-10.121094-1.949218-14.890626 0-3.164062 1.292969-5.226562 4.367188-5.226562 7.78125v13.589844c0 6.996094 5.671875 12.671875 12.671875 12.671875s12.671875-5.675781 12.671875-12.671875v-13.589844c.003906-3.414062-2.0625-6.488281-5.226562-7.78125zm0 0" fill="#eda1ab"/><path d="m131.730469 278.320312h-24.570313c-10.320312 0-18.011718 9.519532-15.851562 19.609376l1.363281 6.34375c2.285156 10.667968 11.710937 18.285156 22.621094 18.285156h8.304687c10.910156 0 20.335938-7.617188 22.621094-18.285156l1.363281-6.34375c2.164063-10.09375-5.53125-19.609376-15.851562-19.609376zm0 0" fill="#4e5660"/><path d="m230.988281 278.320312h24.570313c10.320312 0 18.015625 9.519532 15.851562 19.609376l-1.363281 6.34375c-2.285156 10.667968-11.710937 18.285156-22.621094 18.285156h-8.304687c-10.910156 0-20.335938-7.617188-22.621094-18.285156l-1.363281-6.34375c-2.164063-10.09375 5.53125-19.609376 15.851562-19.609376zm0 0" fill="#4e5660"/><path d="m27.027344 441.808594c-2.546875 0-5.128906-.640625-7.5-1.988282-7.289063-4.148437-9.832032-13.421874-5.683594-20.710937 21.539062-37.847656 29.582031-71.863281 38.097656-107.871094l.679688-2.878906c1.929687-8.160156 10.113281-13.21875 18.277344-11.28125 8.160156 1.933594 13.210937 10.117187 11.28125 18.277344l-.679688 2.871093c-8.632812 36.511719-17.558594 74.265626-41.257812 115.90625-2.800782 4.917969-7.933594 7.675782-13.214844 7.675782zm0 0" fill="#f7ef87"/><path d="m63.921875 188.304688c4.171875-5.671876 12.652344-5.671876 16.828125 0 9.015625 12.25 22.042969 32.6875 22.042969 48.5 0 16.820312-13.636719 30.460937-30.457031 30.460937-16.824219 0-30.460938-13.636719-30.460938-30.460937 0-15.8125 13.03125-36.25 22.046875-48.5zm0 0" fill="#a3defe"/><path d="m26.71875 276.589844c3.640625-4.945313 11.03125-4.945313 14.671875 0 7.859375 10.675781 19.21875 28.492187 19.21875 42.277344 0 14.664062-11.890625 26.554687-26.554687 26.554687-14.664063 0-26.554688-11.890625-26.554688-26.554687 0-13.785157 11.359375-31.601563 19.21875-42.277344zm0 0" fill="#7acefa"/><path d="m161.1875 347.128906v8.5c0 11.121094 9.050781 20.171875 20.171875 20.171875 11.125 0 20.171875-9.050781 20.171875-20.171875v-8.503906c4.007812-1.546875 7.183594-4.695312 9.472656-9.429688 3.304688-6.832031 2.496094-15.351562-2.164062-22.785156-5.894532-9.398437-16.425782-15.234375-27.480469-15.234375s-21.582031 5.835938-27.480469 15.234375c-4.660156 7.433594-5.46875 15.953125-2.164062 22.785156 2.289062 4.734376 5.464844 7.886719 9.472656 9.433594zm25.347656 8.5c0 2.851563-2.324218 5.171875-5.175781 5.171875s-5.171875-2.320312-5.171875-5.171875v-13.589844c0-.367187.21875-.699218.558594-.835937 1.488281-.609375 3.050781-.914063 4.613281-.914063s3.125.304688 4.609375.910157c.34375.144531.5625.472656.5625.839843v13.589844zm-19.945312-32.746094c2.371094-3.789062 7.667968-8.207031 14.769531-8.207031 7.105469 0 12.398437 4.421875 14.773437 8.207031 1.898438 3.027344 2.410157 6.125 1.371094 8.28125-.035156.066407-.058594.113282-.089844.179688-1.5625-1.71875-3.515624-3.105469-5.769531-4.027344-6.632812-2.707031-13.933593-2.707031-20.566406 0-2.253906.921875-4.207031 2.308594-5.769531 4.027344-.03125-.066406-.054688-.113281-.089844-.179688-1.042969-2.15625-.53125-5.253906 1.371094-8.28125zm281.90625-231.414062-17.714844-11.683594c-2.339844-1.542968-3.488281-4.3125-2.925781-7.058594l4.265625-20.792968c1.476562-7.203125-.742188-14.609375-5.945313-19.808594-5.199219-5.199219-12.605469-7.425781-19.808593-5.945312l-20.789063 4.265624c-2.746094.558594-5.519531-.585937-7.0625-2.925781l-11.683594-17.714843c-4.050781-6.140626-10.859375-9.804688-18.210937-9.804688-7.355469 0-14.164063 3.664062-18.214844 9.804688l-11.683594 17.714843c-1.542968 2.34375-4.3125 3.492188-7.058594 2.925781l-20.789062-4.265624c-7.207031-1.480469-14.613281.746093-19.8125 5.945312s-7.421875 12.605469-5.945312 19.8125l4.265624 20.789062c.328126 1.601563.039063 3.261719-.738281 4.667969-16.503906 1.796875-37.683593 6.785157-54.851562 19.664063-6.714844-22.285156-21.496094-40.476563-31.289063-50.695313-3.503906-3.65625-8.222656-5.671875-13.292968-5.671875-5.070313 0-9.789063 2.015625-13.292969 5.671875-9.792969 10.21875-24.574219 28.410157-31.289063 50.695313-22.546875-16.910156-52.015625-20.210938-68.71875-20.570313-5.058594-.109375-9.828125 1.808594-13.414062 5.394531-3.582032 3.582032-5.496094 8.34375-5.386719 13.40625.398437 18.800782 4.519531 53.785157 27.585937 76.855469 1.601563 1.597657 3.292969 3.128907 5.058594 4.59375-4.738281.671875-8.972656 3.179688-11.875 7.121094-10.722656 14.566406-23.503906 35.578125-23.503906 52.945313 0 12.929687 6.503906 24.363281 16.40625 31.222656-.425781 2.363281-.816406 4.746094-1.160156 7.15625-.738282-1.042969-1.46875-2.0625-2.191406-3.042969-3.164063-4.296875-8.039063-6.761719-13.375-6.761719-5.335938 0-10.214844 2.464844-13.375 6.761719-9.433594 12.816406-20.679688 31.324219-20.679688 46.726563 0 18.597656 14.992188 33.753906 33.523438 34.039062-5.421876 18.355469-13.070313 39.421875-26.199219 62.492188-3 5.265624-3.765625 11.382812-2.160157 17.226562 1.601563 5.84375 5.386719 10.714844 10.652344 13.710938 3.417969 1.945312 7.292969 2.976562 11.210938 2.976562 8.140625 0 15.703125-4.398438 19.730468-11.46875 9.648438-16.953125 16.886719-33.226562 22.660157-49.011719 9.347656 13.109375 21.511719 23.230469 36.445312 30.324219 4.171875 15.160156 1.785157 29.164062-7.414062 43.804688-2.203125 3.507812-1.144531 8.136718 2.363281 10.339843 1.238281.777344 2.617188 1.148438 3.980469 1.148438 2.496093 0 4.933593-1.242188 6.359375-3.507813 9.40625-14.972656 13.101562-29.980468 11.195312-45.519531 5 1.484375 10.242188 2.703125 15.726563 3.652344.3125 5.96875-.039063 11.898437-1.0625 17.699219-2.859375 16.195312-10.972657 32.1875-24.109375 47.539062-1.464844 1.707031-3.597656 2.6875-5.847656 2.6875-1.292969 0-3.210938-.320312-4.996094-1.847656-.695313-.597656-1.273438-1.300782-1.714844-2.089844-2.015625-3.617188-6.585938-4.917969-10.203125-2.898438-3.617187 2.019532-4.914063 6.589844-2.894531 10.207032 1.304687 2.34375 3.007812 4.421875 5.058594 6.175781 4.109374 3.519531 9.347656 5.453125 14.746093 5.453125 6.644531 0 12.925781-2.890625 17.242188-7.933594 14.910156-17.414062 24.160156-35.8125 27.488281-54.6875 1.066406-6.054687 1.511719-12.222656 1.363281-18.425781 5.175781.417969 10.523438.636719 16.0625.636719 2.671875 0 5.300781-.050782 7.890625-.148438 1.519532 8.898438 1.910156 24.519532-6.535156 45.144532-4.742188 11.574218.820312 24.851562 12.398438 29.59375 2.75 1.125 5.640624 1.695312 8.589843 1.695312 9.25 0 17.492188-5.53125 21-14.09375 9.628907-23.511719 12.878907-48.699219 9.253907-70.289062 4.359374-1.542969 8.53125-3.304688 12.5-5.289063-.03125.253906-.066407.507813-.101563.757813-.722656 5.414062-1.542969 11.550781-2.277344 17.421874-.753906 6.011719.878907 11.957032 4.597657 16.742188s9.078124 7.835938 15.09375 8.585938c.945312.121093 1.894531.179687 2.839843.179687 1.132813 0 2.257813-.085937 3.375-.253906 9.996094-1.507813 17.855469-9.574219 19.113281-19.613281.703126-5.59375 1.476563-11.386719 2.230469-17.046876 3.164063-23.640624 6.421875-48.066406 5.988281-70.484374 5.375-19.023438 7.066407-41.332032 5.019532-66.78125-3.085938-38.40625-16.027344-71.101563-37.433594-94.558594-1.304688-1.433594-2.640625-2.824219-3.996094-4.171875 6.300782-2.828125 12.019532-6.171875 17.117188-10.027344 1.0625 3.070313 2.808594 5.90625 5.1875 8.285156 5.199218 5.199219 12.605468 7.421875 19.808594 5.941407l20.789062-4.265626c2.746094-.558593 5.519531.589844 7.0625 2.925782l11.683594 17.714844c4.046875 6.140624 10.855468 9.808593 18.210937 9.808593s14.164063-3.667969 18.214844-9.808593l11.679687-17.714844c1.542969-2.335938 4.316407-3.492188 7.066407-2.921875l2.433593.496093c4.058594.824219 8.023438-1.78125 8.851563-5.839843.832031-4.058594-1.78125-8.019531-5.839844-8.855469l-2.433593-.496094c-8.789063-1.800781-17.65625 1.871094-22.597657 9.359375l-11.679687 17.71875c-1.28125 1.945313-3.355469 3.0625-5.6875 3.0625-2.332032 0-4.40625-1.117187-5.691406-3.0625l-11.683594-17.71875c-4.941406-7.488281-13.808594-11.164062-22.597656-9.355469l-20.789063 4.261719c-2.285156.46875-4.539063-.207031-6.191406-1.855469-1.648438-1.648437-2.324219-3.90625-1.855469-6.191406l1.464844-7.136718c3.964844-5.414063 7.15625-11.207032 9.730468-17.117188 12.269532 19.320312 33.828126 31.707031 57.609376 31.707031 37.613281 0 68.210937-30.601562 68.210937-68.210937s-30.597656-68.210938-68.210937-68.210938c-25.199219 0-48.292969 14.117188-60.0625 35.910156-1.347657-.433593-2.75-.726562-4.191407-.835937.261719-2.257813.179688-4.566406-.285156-6.835937l-4.265625-20.785157c-.46875-2.285156.207031-4.542969 1.855469-6.191406 1.652343-1.648437 3.90625-2.320313 6.191406-1.859375l20.789063 4.265625c8.785156 1.800781 17.65625-1.871094 22.597656-9.359375l11.683594-17.714844c1.28125-1.945312 3.355468-3.0625 5.691406-3.0625 2.332031 0 4.40625 1.117188 5.6875 3.0625l11.683594 17.714844c4.941406 7.488281 13.808593 11.164062 22.597656 9.359375l20.789062-4.265625c2.285156-.460938 4.542969.210938 6.191406 1.859375 1.648438 1.648437 2.324219 3.902344 1.855469 6.191406l-4.265625 20.789063c-1.800781 8.785156 1.871094 17.65625 9.363282 22.59375l17.714843 11.683594c1.945313 1.285156 3.0625 3.359374 3.0625 5.691406 0 2.332031-1.117187 4.40625-3.0625 5.691406l-17.714843 11.683594c-7.492188 4.9375-11.164063 13.808594-9.363282 22.597656l4.265625 20.789062c.675781 3.296876-1.121093 5.472657-1.921875 6.253907-2.96875 2.890625-3.03125 7.640625-.140625 10.605469 1.46875 1.511718 3.417969 2.269531 5.371094 2.269531 1.886719 0 3.773437-.707031 5.230469-2.128907 5.355468-5.210937 7.65625-12.695312 6.15625-20.015624l-4.265625-20.789063c-.5625-2.746094.585937-5.519531 2.925781-7.0625l17.714844-11.683594c6.136718-4.046875 9.804687-10.855469 9.804687-18.210937 0-7.355469-3.664062-14.164063-9.804687-18.214844zm-148.488282-3.417969c8.480469-19.015625 27.609376-31.578125 48.613282-31.578125 29.339844 0 53.207031 23.867188 53.207031 53.207032 0 29.339843-23.867187 53.210937-53.207031 53.210937-23.417969 0-44.074219-15.382813-50.875-37.621094 2.574218-11.453125 3.398437-22.128906 3.566406-29.980469.054688-2.523437-.398438-4.972656-1.304688-7.238281zm-133.261718-31.308593c.875-.914063 1.917968-1.050782 2.464844-1.050782.542968 0 1.589843.136719 2.464843 1.050782 26.679688 27.84375 30.664063 51.71875 30.664063 63.472656 0 12.285156-3.898438 25.171875-11.578125 38.371094-6.957031-1.261719-14.152344-1.90625-21.550781-1.90625-7.410157 0-14.605469.636718-21.558594 1.894531-7.671875-13.191407-11.570313-26.078125-11.570313-38.359375 0-11.753906 3.984375-35.628906 30.664063-63.472656zm-114.640625 38.230468c-.027344-1.265625.613281-2.101562 1-2.484375.382812-.386719 1.21875-1.015625 2.484375-1 37.367187.796875 57.023437 14.035157 65.765625 22.417969-.175781 2.082031-.273438 4.183594-.273438 6.308594 0 13.769531 3.878907 27.917968 11.519531 42.171875-10.8125 3.566406-20.898437 8.785156-30.125 15.582031-11.050781-3.929688-20.183593-9.445312-27.171874-16.433594-19.363282-19.359375-22.847657-50.015625-23.199219-66.5625zm-2.730469 141.832032c0-10.222657 7.503906-26.277344 20.585938-44.050782.769531-1.046875 1.816406-1.203125 2.375-1.203125.554687 0 1.605468.15625 2.375 1.203125 13.082031 17.773438 20.582031 33.828125 20.582031 44.050782 0 12.660156-10.296875 22.960937-22.957031 22.960937-12.660157 0-22.960938-10.300781-22.960938-22.960937zm-34.371094 82.0625c0-8.710938 6.472656-22.5 17.757813-37.832032.398437-.542968.921875-.65625 1.292969-.65625.371093 0 .898437.113282 1.296874.65625 11.285157 15.332032 17.757813 29.121094 17.757813 37.832032 0 10.503906-8.546875 19.054687-19.054687 19.054687-10.503907 0-19.050782-8.550781-19.050782-19.054687zm183.667969 169.230468c-1.1875 2.902344-3.980469 4.777344-7.117187 4.777344-.996094 0-1.972657-.195312-2.910157-.578125-3.921875-1.605469-5.804687-6.105469-4.199219-10.027344 7.371094-17.996093 10.011719-36.429687 7.652344-52.007812 5.261719-.636719 10.328125-1.5 15.191406-2.597657 2.660157 18.386719-.40625 40.386719-8.617187 60.433594zm65.632813-65.050781c-.75 5.632813-1.527344 11.457031-2.238282 17.109375-.425781 3.40625-3.085937 6.140625-6.472656 6.648438-.691406.105468-1.402344.109374-2.109375.023437-2.039063-.253906-3.855469-1.289063-5.113281-2.910156-1.261719-1.621094-1.816406-3.636719-1.558594-5.671875.726562-5.808594 1.542969-11.910156 2.261719-17.296875.585937-4.375 1.167969-8.761719 1.730469-13.136719 3.910156-3.0625 7.554687-6.410156 10.917968-10.054688 2.378906-2.574218 4.601563-5.292968 6.691406-8.136718-1.121093 11.066406-2.625 22.328125-4.109374 33.425781zm10.015624-143c-.109374-.140625-.210937-.285156-.320312-.421875-4.523438-5.59375-11.246094-8.804688-18.441406-8.804688h-24.570313c-5.390625 0-10.511719 1.800782-14.644531 5.058594-8.929688-1.136718-20.554688-2.257812-34.984375-2.257812s-26.054687 1.121094-34.980469 2.257812c-4.132812-3.257812-9.257812-5.058594-14.648437-5.058594h-24.085938c-6.734375 0-13.289062 2.632813-17.859375 7.578126-5.308594 5.738281-7.429687 13.542968-5.808594 21.105468l1.359376 6.34375c3.03125 14.121094 15.511718 24.210938 29.957031 24.210938h8.304687c14.445313 0 26.929688-10.085938 29.957032-24.210938l1.359374-6.34375c.683594-3.191406.695313-6.417968.089844-9.519531 7.328125-.757813 16.097656-1.363281 26.355469-1.363281s19.027344.605468 26.355469 1.363281c-.605469 3.101563-.59375 6.328125.089844 9.519531l1.363281 6.34375c3.027343 14.125 15.507812 24.210938 29.953125 24.210938h8.308594c12.738281 0 24.085937-8.027344 28.582031-19.644532-.171875 14.878907-1.945313 28.265626-5.3125 40.105469-.191407.476563-.339844.976563-.433594 1.496094-4.21875 14.125-10.742187 26.011719-19.566406 35.570313-15.519531 16.816406-38.410157 26.386718-68.160157 28.535156-.117187.007812-.230468.015625-.34375.027344-4.195312.292968-8.523437.441406-12.984374.441406-45.859376 0-77.320313-15.546875-93.582032-46.214844 4.53125-14.6875 8.078125-29 11.433594-43.105469.960938-4.035156-1.53125-8.085937-5.570312-9.039062-4.027344-.953125-8.0625 1.53125-9.019532 5.554687-8.015625 33.664063-17.101562 68.523438-38.609375 106.390625-1.367187 2.40625-3.867187 4.0625-6.636719 4.132813-1.753906.046875-3.402343-.488282-4.871093-1.585938-.785157-.585937-1.460938-1.332031-1.945313-2.183594-1.414062-2.488281-1.394531-5.359374-.050781-7.71875 15.960937-28.039062 24.40625-53.976562 29.933594-74.023437 10.601562-5.777344 17.816406-17.023437 17.816406-29.925781 0-6.800782-2.195313-14.203125-5.453125-21.457032.128906-2.808593.296875-5.65625.523438-8.5.40625-5.035156 1.023437-10 1.804687-14.867187 2.378906.46875 4.835937.71875 7.351563.71875 20.929687 0 37.957031-17.027344 37.957031-37.957031 0-11.160156-5.277344-23.820313-11.894531-35.308594 3.125-3.273438 6.410156-6.285156 9.84375-9.03125.070312-.050781.136718-.109375.203124-.160156 10.894532-8.671875 23.289063-14.691406 36.835938-17.902344.242188-.039062.484375-.09375.726562-.160156 7.410157-1.695313 15.160157-2.566406 23.199219-2.566406 22.972657 0 43.328125 7.050781 59.9375 19.902343.421875.433594.902344.800781 1.410157 1.117188 23.265624 18.699219 38.925781 49 43.765624 87.347656zm-10.246093 16.308594-1.359375 6.347656c-1.535156 7.160156-7.964844 12.355469-15.289063 12.355469h-8.304687c-7.324219 0-13.753906-5.195313-15.289063-12.355469l-1.359375-6.347656c-.542968-2.527344.058594-5.125 1.640625-7.160157.296875-.28125.566407-.585937.8125-.917968 1.617188-1.570313 3.773438-2.457032 6.0625-2.457032h24.570313c2.644531 0 5.113281 1.179688 6.773437 3.234376 1.664063 2.054687 2.296875 4.71875 1.742188 7.300781zm-123.828125 0-1.359375 6.347656c-1.535157 7.160156-7.964844 12.355469-15.289063 12.355469h-8.304687c-7.324219 0-13.753907-5.195313-15.289063-12.355469l-1.359375-6.347656c-.554687-2.582031.078125-5.246094 1.742188-7.300781 1.664062-2.058594 4.132812-3.234376 6.773437-3.234376h24.570313c2.277343 0 4.425781.878907 6.039062 2.441407.257813.339843.539063.660156.851563.953125 1.570312 2.035156 2.167968 4.621094 1.625 7.140625zm142.585937-204.871094c1.238281-.003906 2.097657.617187 2.484375 1 .070313.074219.15625.171875.242188.277344.058594.082031.117187.164062.175781.242187.308594.457032.597656 1.109375.582031 1.96875-.230468 10.683594-1.476562 19.914063-3.335937 27.863282-.210938.558593-.359375 1.148437-.429688 1.753906-4.933593 19.648437-13.601562 31.109375-19.4375 36.945312-6.988281 6.992188-16.128906 12.507813-27.1875 16.4375-9.222656-6.789062-19.316406-11.996094-30.121093-15.566406 7.648437-14.261719 11.53125-28.414062 11.53125-42.191406 0-2.121094-.09375-4.21875-.269532-6.292969 15.921875-15.335937 39.007813-20.375 55.804688-21.878906.09375-.007813.183594-.015625.277344-.023438 3.558593-.316406 6.832031-.472656 9.683593-.535156zm0 0"/></svg>