<svg height="480pt" viewBox="0 0 480 480" width="480pt" xmlns="http://www.w3.org/2000/svg"><path d="m328 8c8.835938 0 16 7.164062 16 16v160h-32v-160c0-8.835938 7.164062-16 16-16zm0 0" fill="#5a6470"/><path d="m72 8c8.835938 0 16 7.164062 16 16v160h-32v-160c0-8.835938 7.164062-16 16-16zm0 0" fill="#5a6470"/><path d="m312 184h144c8.835938 0 16 7.164062 16 16v256c0 8.835938-7.164062 16-16 16h-144c-8.835938 0-16-7.164062-16-16v-256c0-8.835938 7.164062-16 16-16zm0 0" fill="#5f79ba"/><path d="m56 184h144c8.835938 0 16 7.164062 16 16v256c0 8.835938-7.164062 16-16 16h-144c-8.835938 0-16-7.164062-16-16v-256c0-8.835938 7.164062-16 16-16zm0 0" fill="#5f79ba"/><path d="m312 152h32v32h-32zm0 0" fill="#dd3e46"/><path d="m312 120h32v32h-32zm0 0" fill="#cfdfe8"/><path d="m280 216h16v96h-16c-8.835938 0-16-7.164062-16-16v-64c0-8.835938 7.164062-16 16-16zm0 0" fill="#dd3e46"/><path d="m312 24v24h32v-24c0-8.835938-7.164062-16-16-16s-16 7.164062-16 16zm0 0" fill="#dd3e46"/><path d="m400 152c8.835938 0 16 7.164062 16 16v16h-32v-16c0-8.835938 7.164062-16 16-16zm0 0" fill="#e97424"/><path d="m432 152c8.835938 0 16 7.164062 16 16v16h-32v-16c0-8.835938 7.164062-16 16-16zm0 0" fill="#ffd782"/><path d="m440 320h-112c-4.417969 0-8-3.582031-8-8s3.582031-8 8-8h112c4.417969 0 8 3.582031 8 8s-3.582031 8-8 8zm0 0" fill="#f4f4e6"/><path d="m440 352h-112c-4.417969 0-8-3.582031-8-8s3.582031-8 8-8h112c4.417969 0 8 3.582031 8 8s-3.582031 8-8 8zm0 0" fill="#f4f4e6"/><path d="m440 384h-112c-4.417969 0-8-3.582031-8-8s3.582031-8 8-8h112c4.417969 0 8 3.582031 8 8s-3.582031 8-8 8zm0 0" fill="#f4f4e6"/><path d="m440 416h-32c-4.417969 0-8-3.582031-8-8s3.582031-8 8-8h32c4.417969 0 8 3.582031 8 8s-3.582031 8-8 8zm0 0" fill="#f4f4e6"/><path d="m472 456v-16h-176v16c0 8.835938 7.164062 16 16 16h144c8.835938 0 16-7.164062 16-16zm0 0" fill="#dd3e46"/><path d="m56 152h32v32h-32zm0 0" fill="#dd3e46"/><path d="m56 120h32v32h-32zm0 0" fill="#cfdfe8"/><path d="m24 216h16v96h-16c-8.835938 0-16-7.164062-16-16v-64c0-8.835938 7.164062-16 16-16zm0 0" fill="#dd3e46"/><path d="m56 24v24h32v-24c0-8.835938-7.164062-16-16-16s-16 7.164062-16 16zm0 0" fill="#dd3e46"/><path d="m144 152c8.835938 0 16 7.164062 16 16v16h-32v-16c0-8.835938 7.164062-16 16-16zm0 0" fill="#e97424"/><path d="m176 152c8.835938 0 16 7.164062 16 16v16h-32v-16c0-8.835938 7.164062-16 16-16zm0 0" fill="#ffd782"/><path d="m216 456v-16h-176v16c0 8.835938 7.164062 16 16 16h144c8.835938 0 16-7.164062 16-16zm0 0" fill="#dd3e46"/><g fill="#f4f4e6"><path d="m72 216h112v56h-112zm0 0"/><path d="m88 312h-8c-4.417969 0-8-3.582031-8-8s3.582031-8 8-8h8c4.417969 0 8 3.582031 8 8s-3.582031 8-8 8zm0 0"/><path d="m128 312h-8c-4.417969 0-8-3.582031-8-8s3.582031-8 8-8h8c4.417969 0 8 3.582031 8 8s-3.582031 8-8 8zm0 0"/><path d="m168 312h-8c-4.417969 0-8-3.582031-8-8s3.582031-8 8-8h8c4.417969 0 8 3.582031 8 8s-3.582031 8-8 8zm0 0"/><path d="m88 344h-8c-4.417969 0-8-3.582031-8-8s3.582031-8 8-8h8c4.417969 0 8 3.582031 8 8s-3.582031 8-8 8zm0 0"/><path d="m128 344h-8c-4.417969 0-8-3.582031-8-8s3.582031-8 8-8h8c4.417969 0 8 3.582031 8 8s-3.582031 8-8 8zm0 0"/><path d="m168 344h-8c-4.417969 0-8-3.582031-8-8s3.582031-8 8-8h8c4.417969 0 8 3.582031 8 8s-3.582031 8-8 8zm0 0"/><path d="m328 216h112v56h-112zm0 0"/></g><path d="m456 176v-8c.042969-9.484375-5.53125-18.097656-14.199219-21.945312-8.667969-3.847657-18.792969-2.207032-25.800781 4.183593-7.007812-6.390625-17.132812-8.03125-25.800781-4.183593-8.667969 3.847656-14.242188 12.460937-14.199219 21.945312v8h-24v-152c0-13.253906-10.746094-24-24-24s-24 10.746094-24 24v153.472656c-9.554688 3.378906-15.957031 12.394532-16 22.527344v8h-8c-13.253906 0-24 10.746094-24 24v64c0 13.253906 10.746094 24 24 24h8v136c0 13.253906 10.746094 24 24 24h144c13.253906 0 24-10.746094 24-24v-256c0-13.253906-10.746094-24-24-24zm-24-16c4.417969 0 8 3.582031 8 8v8h-16v-8c0-4.417969 3.582031-8 8-8zm-40 8c0-4.417969 3.582031-8 8-8s8 3.582031 8 8v8h-16zm-56-24h-16v-16h16zm0-32h-16v-56h16zm-16 48h16v16h-16zm0-136c0-4.417969 3.582031-8 8-8s8 3.582031 8 8v16h-16zm-16 176c0-4.417969 3.582031-8 8-8h144c4.417969 0 8 3.582031 8 8v232h-160zm-24 104c-4.417969 0-8-3.582031-8-8v-64c0-4.417969 3.582031-8 8-8h8v80zm184 152c0 4.417969-3.582031 8-8 8h-144c-4.417969 0-8-3.582031-8-8v-8h160zm0 0"/><path d="m328 320h112c4.417969 0 8-3.582031 8-8s-3.582031-8-8-8h-112c-4.417969 0-8 3.582031-8 8s3.582031 8 8 8zm0 0"/><path d="m328 352h112c4.417969 0 8-3.582031 8-8s-3.582031-8-8-8h-112c-4.417969 0-8 3.582031-8 8s3.582031 8 8 8zm0 0"/><path d="m328 384h112c4.417969 0 8-3.582031 8-8s-3.582031-8-8-8h-112c-4.417969 0-8 3.582031-8 8s3.582031 8 8 8zm0 0"/><path d="m440 400h-32c-4.417969 0-8 3.582031-8 8s3.582031 8 8 8h32c4.417969 0 8-3.582031 8-8s-3.582031-8-8-8zm0 0"/><path d="m24 320h8v136c0 13.253906 10.746094 24 24 24h144c13.253906 0 24-10.746094 24-24v-256c0-13.253906-10.746094-24-24-24v-8c.042969-9.484375-5.53125-18.097656-14.199219-21.945312-8.667969-3.847657-18.792969-2.207032-25.800781 4.183593-7.007812-6.390625-17.132812-8.03125-25.800781-4.183593-8.667969 3.847656-14.242188 12.460937-14.199219 21.945312v8h-24v-152c0-13.253906-10.746094-24-24-24s-24 10.746094-24 24v153.472656c-9.554688 3.378906-15.957031 12.394532-16 22.527344v8h-8c-13.253906 0-24 10.746094-24 24v64c0 13.253906 10.746094 24 24 24zm184 136c0 4.417969-3.582031 8-8 8h-144c-4.417969 0-8-3.582031-8-8v-8h160zm-32-296c4.417969 0 8 3.582031 8 8v8h-16v-8c0-4.417969 3.582031-8 8-8zm-40 8c0-4.417969 3.582031-8 8-8s8 3.582031 8 8v8h-16zm-56-24h-16v-16h16zm0-32h-16v-56h16zm-16 48h16v16h-16zm0-136c0-4.417969 3.582031-8 8-8s8 3.582031 8 8v16h-16zm-16 176c0-4.417969 3.582031-8 8-8h144c4.417969 0 8 3.582031 8 8v232h-160zm-32 32c0-4.417969 3.582031-8 8-8h8v80h-8c-4.417969 0-8-3.582031-8-8zm0 0"/><path d="m72 280h112c4.417969 0 8-3.582031 8-8v-56c0-4.417969-3.582031-8-8-8h-112c-4.417969 0-8 3.582031-8 8v56c0 4.417969 3.582031 8 8 8zm8-56h96v40h-96zm0 0"/><path d="m88 296h-8c-4.417969 0-8 3.582031-8 8s3.582031 8 8 8h8c4.417969 0 8-3.582031 8-8s-3.582031-8-8-8zm0 0"/><path d="m128 296h-8c-4.417969 0-8 3.582031-8 8s3.582031 8 8 8h8c4.417969 0 8-3.582031 8-8s-3.582031-8-8-8zm0 0"/><path d="m168 296h-8c-4.417969 0-8 3.582031-8 8s3.582031 8 8 8h8c4.417969 0 8-3.582031 8-8s-3.582031-8-8-8zm0 0"/><path d="m88 328h-8c-4.417969 0-8 3.582031-8 8s3.582031 8 8 8h8c4.417969 0 8-3.582031 8-8s-3.582031-8-8-8zm0 0"/><path d="m128 328h-8c-4.417969 0-8 3.582031-8 8s3.582031 8 8 8h8c4.417969 0 8-3.582031 8-8s-3.582031-8-8-8zm0 0"/><path d="m168 328h-8c-4.417969 0-8 3.582031-8 8s3.582031 8 8 8h8c4.417969 0 8-3.582031 8-8s-3.582031-8-8-8zm0 0"/><path d="m328 280h112c4.417969 0 8-3.582031 8-8v-56c0-4.417969-3.582031-8-8-8h-112c-4.417969 0-8 3.582031-8 8v56c0 4.417969 3.582031 8 8 8zm8-56h96v40h-96zm0 0"/></svg>