<?xml version="1.0" encoding="iso-8859-1"?>
<!-- Generator: Adobe Illustrator 19.0.0, SVG Export Plug-In . SVG Version: 6.00 Build 0)  -->
<svg version="1.1" id="Capa_1" xmlns="http://www.w3.org/2000/svg" xmlns:xlink="http://www.w3.org/1999/xlink" x="0px" y="0px"
	 viewBox="0 0 512 512" style="enable-background:new 0 0 512 512;" xml:space="preserve">
<g>
	<g>
		<path d="M367.859,339.663c0-11.391-5.325-21.54-13.68-28.055c8.354-6.515,13.774-16.664,13.774-28.055
			c0-11.993-6.207-22.611-15.328-29.058c9.183-7.254,14.858-18.476,14.858-31.06V148.74l-71.909-93.632h15.8V0H200.156v55.108
			h16.801l-72.91,93.632v74.697c0,12.584,6.161,23.805,15.344,31.06c-9.121,6.447-14.968,17.064-14.968,29.058
			c0,11.391,5.451,21.54,13.805,28.055c-8.354,6.515-13.711,16.664-13.711,28.055c0,11.993,5.737,22.611,14.858,29.058
			c-9.183,7.254-15.328,18.476-15.328,31.06v64.125c0,21.823,18.256,40.078,40.078,40.078h40.078v-0.659
			c6.671,5.12,15.007,8.675,24.047,8.675h16.031c9.04,0,17.376-3.554,24.047-8.675v0.659h40.078
			c21.823,0,39.076-18.256,39.076-40.078v-64.125c0-12.584-5.66-23.805-14.843-31.06
			C361.761,362.275,367.859,351.657,367.859,339.663z M215.186,40.078V15.029h81.159v25.049H215.186z M235.919,55.108h40.692
			l68.596,89.174H167.323L235.919,55.108z M332.415,319.624c11.326,0,20.54,9.214,20.54,20.54s-9.214,20.54-20.54,20.54h-20.039
			v15.029h16.031c13.536,0,24.047,10.511,24.047,24.047v64.125c0,13.536-10.51,25.049-24.047,25.049h-28.18
			c2.325-6.012,3.632-11.134,3.632-17.033H288.83c0,13.536-11.012,25.049-24.548,25.049H248.25
			c-13.535,0-24.548-11.512-24.548-25.049h-15.029c0,5.9,1.307,11.022,3.632,17.033h-28.18c-13.535,0-25.049-11.512-25.049-25.049
			v-64.125c0-13.536,11.513-24.047,25.049-24.047h80.157v-15.029h-84.164c-11.326,0-20.54-9.214-20.54-20.54
			s9.214-20.54,20.54-20.54h84.164v-15.029h-84.164c-11.326,0-20.54-9.214-20.54-20.54s9.214-20.54,20.54-20.54h84.164v-15.029
			h-80.157c-13.535,0-25.049-11.512-25.049-25.049v-64.125h193.378v64.125c0,13.536-10.51,25.049-24.047,25.049h-16.031v15.029
			h20.039c11.326,0,20.54,9.214,20.54,20.54s-9.214,20.54-20.54,20.54h-20.039v15.029H332.415z"/>
	</g>
</g>
<g>
	<g>
		<rect x="200.16" y="112.219" width="16.031" height="15.029"/>
	</g>
</g>
<g>
	<g>
		<rect x="216.192" y="96.188" width="16.031" height="15.029"/>
	</g>
</g>
<g>
	<g>
		<rect x="280.317" y="304.595" width="16.031" height="15.029"/>
	</g>
</g>
<g>
	<g>
		<rect x="280.317" y="248.485" width="16.031" height="15.029"/>
	</g>
</g>
<g>
	<g>
		<rect x="280.317" y="360.704" width="16.031" height="15.029"/>
	</g>
</g>
<g>
</g>
<g>
</g>
<g>
</g>
<g>
</g>
<g>
</g>
<g>
</g>
<g>
</g>
<g>
</g>
<g>
</g>
<g>
</g>
<g>
</g>
<g>
</g>
<g>
</g>
<g>
</g>
<g>
</g>
</svg>
