<?xml version="1.0" encoding="utf-8"?>
<!-- Generator: Adobe Illustrator 23.1.1, SVG Export Plug-In . SVG Version: 6.00 Build 0)  -->
<svg version="1.1" id="Layer_1" xmlns="http://www.w3.org/2000/svg" xmlns:xlink="http://www.w3.org/1999/xlink" x="0px" y="0px"
	 viewBox="0 0 1966 648" style="enable-background:new 0 0 1966 648;" xml:space="preserve">
<style type="text/css">
	.st0{fill:#C09C55;}
	.st1{fill:#7D7D7D;}
	.st2{fill:#FDB615;}
	.st3{fill:none;stroke:#00B6CF;stroke-width:20;stroke-linecap:round;stroke-miterlimit:10;}
	.st4{fill:#CCCBCA;}
</style>
<title>ESV2_</title>
<g>
	<rect x="-63.5" y="-74.1" class="st0" width="2103.6" height="784.3"/>
</g>
<g id="_09_WEATHER">
	<path class="st1" d="M742.4,173.2c5.7-38-20.4-73.5-58.4-79.2c-19.2-2.9-38.7,2.3-53.8,14.4c-20.4-31.2-55.2-50-92.4-49.9
		c-43.6,0-83.3,26.3-100.9,65.4c-24.5-24.5-57.8-38.3-92.5-38.2c-72.2,0-131,58.8-131,131c0,3.6,0.1,7.2,0.4,10.8h-1.6
		c-49.7,0-90,40.4-90,90.1c0,49.7,40.4,90,90.1,90c9.6,0,19.1-1.5,28.2-4.5c51.2,80,157.6,103.3,237.5,52
		c5.4-3.4,10.5-7.2,15.5-11.2c71.8,38.3,161,13.1,202.1-57.1c57.1,21.6,120.9-7.1,142.5-64.2c21.6-57.1-7.1-120.9-64.2-142.5
		C763.8,176.3,753.2,173.9,742.4,173.2z M732.5,181.1c0.8,0,1.6,0.1,2.5,0.1c-0.9,0-1.8-0.1-2.8-0.1L732.5,181.1z"/>
	<polygon class="st2" points="554.6,273.9 598.7,438.4 545.8,438.4 598.7,567.7 558.8,567.7 598.7,697 479.8,503 520.8,503 
		432.2,373.7 493.5,373.7 436.5,273.4 	"/>
	<path class="st1" d="M1177.2,268.6c0,55.1,44.7,99.7,99.9,99.7c12.1,0,24-2.2,35.3-6.5c37.1,63.4,117.6,86.1,182.3,51.5
		c66.6,53.9,164.2,43.7,218.1-22.9c3.6-4.5,7-9.1,10.1-13.9c42.6,14.1,88.6-9,102.7-51.6s-9-88.6-51.6-102.7
		c-8.2-2.7-16.9-4.1-25.5-4.1h-1.5c0.3-3.2,0.4-6.5,0.4-9.7c0-65.3-52.9-118.2-118.2-118.2c-31.3,0-61.3,12.4-83.4,34.5
		c-16.2-35.7-51.7-58.8-91-59c-33.6-0.1-65,16.9-83.4,45c-27.1-21.6-66.6-17.2-88.2,9.8c-8.9,11.1-13.7,24.9-13.7,39.2
		c0,3.1,0.2,6.3,0.7,9.4C1217.8,172.7,1177.2,216.2,1177.2,268.6z M1279.3,176.3c-0.8,0-1.6,0.1-2.5,0.1c0.8,0,1.5-0.1,2.2-0.1
		H1279.3z"/>
	<polygon class="st2" points="1488.2,236.2 1444.2,400.7 1497.1,400.7 1444.2,530 1484,530 1444.2,659.3 1563,465.4 1522,465.4 
		1610.6,336 1549.4,336 1606.3,235.7 	"/>
	<line class="st3" x1="850.8" y1="490.7" x2="825.6" y2="549.7"/>
	<line class="st3" x1="850.8" y1="610.8" x2="825.6" y2="669.8"/>
	<line class="st3" x1="777.9" y1="537.9" x2="752.7" y2="596.9"/>
	<line class="st3" x1="1066.8" y1="610.8" x2="1041.6" y2="669.8"/>
	<line class="st3" x1="993.9" y1="537.9" x2="968.7" y2="596.9"/>
	<path class="st4" d="M730.5,356.2c0,55.1,44.7,99.7,99.8,99.7c12.1,0,24.1-2.2,35.4-6.5c37.1,63.4,117.6,86.2,182.3,51.6
		c66.6,53.9,164.2,43.6,218.2-22.9c3.6-4.5,7-9.1,10.1-13.9c42.6,14.1,88.6-9,102.7-51.5s-9-88.6-51.5-102.7
		c-8.3-2.7-16.9-4.1-25.6-4.1h-1.5c0.3-3.2,0.4-6.5,0.4-9.7c0-65.3-52.9-118.2-118.2-118.2c-31.3,0-61.3,12.4-83.4,34.5
		c-22.5-50.3-81.5-72.8-131.7-50.3c-17.4,7.8-32.2,20.4-42.7,36.3c-27.1-21.6-66.6-17.2-88.2,9.8c-8.9,11.1-13.7,24.9-13.7,39.2
		c0,3.1,0.2,6.3,0.7,9.4C771.2,260.3,730.6,303.8,730.5,356.2z M832.7,263.8c-0.8,0-1.7,0.1-2.5,0.1c0.8,0,1.5-0.1,2.2-0.1
		L832.7,263.8z"/>
	<line class="st3" x1="1066.8" y1="490.7" x2="1041.6" y2="549.7"/>
	<line class="st3" x1="993.2" y1="447.5" x2="968" y2="506.5"/>
	<line class="st3" x1="920.3" y1="374.6" x2="895.1" y2="433.6"/>
	<line class="st3" x1="1210.2" y1="521.3" x2="1185" y2="580.3"/>
	<line class="st3" x1="1137.3" y1="448.3" x2="1112.1" y2="507.4"/>
</g>
</svg>
