<?xml version="1.0" encoding="utf-8"?>
<!-- Generator: Adobe Illustrator 23.1.1, SVG Export Plug-In . SVG Version: 6.00 Build 0)  -->
<svg version="1.1" id="Layer_1" xmlns="http://www.w3.org/2000/svg" xmlns:xlink="http://www.w3.org/1999/xlink" x="0px" y="0px"
	 viewBox="0 0 1966 648" style="enable-background:new 0 0 1966 648;" xml:space="preserve">
<style type="text/css">
	.st0{fill:#5E54A4;}
	.st1{clip-path:url(#SVGID_2_);}
	.st2{fill:#DF1C4D;}
	.st3{fill:#F8971D;}
	.st4{fill:#2CBAA8;}
</style>
<title>ESV2_</title>
<g>
	<rect x="-72" y="-73.5" class="st0" width="2103.6" height="784.3"/>
</g>
<g id="_04_HUNGRY">
	<g>
		<defs>
			<rect id="SVGID_1_" x="-73.1" y="-71.1" width="2103.6" height="784.3"/>
		</defs>
		<clipPath id="SVGID_2_">
			<use xlink:href="#SVGID_1_"  style="overflow:visible;"/>
		</clipPath>
		<g class="st1">
			<path class="st2" d="M997.7,629.3c-77.4-1.9-142.2-1.3-208-15.7s-132.5-43.7-183.6-93.5s-86.8-120.3-88.3-190.8
				c-1.3-70.6,31.4-141.1,75.5-196.7S693,36.4,752.9,1c60.1-35.4,124.5-65.6,195-72.5s146.8,9.9,206.3,51.4
				c59.4,41.8,102,108.5,144.9,184.4s86.1,161.1,78.8,241.9s-65.1,157.2-138.9,193.2S1075,631.1,997.7,629.3z"/>
			<path class="st3" d="M1311.6-62.5c-29.7-45.1-64.5-74.1-96.6-90.1c-13.7-6.9-28.1-12.1-43.1-15.5
				c-31.8,84.8-113.6,65.3-209.4,65.3c-95,0-176.3,20.4-208.6-63.3l-0.4,0.1c-36.5,11-80.1,33-122.5,70.3
				C610-76.9,590-54.1,574.4-25.9c-16.3,29.1-25.2,61.8-26.1,95.2c0,1.4-0.2,2.8-0.2,4.2c-0.1,62.3,29.8,125.7,86,183.5
				c56.6,58.4,140.5,115.7,263.7,175.6c36.1,17.2,79.3,2,96.6-34.1c17.1-35.8,2.3-78.6-33.3-96.1c-113.5-55-184.1-105.7-222.8-146
				c-39-41-45.2-67-45.3-82.9c0-0.1,0-0.3,0-0.4c0.1-11.2,3.3-21.4,10.8-33.5c4-6.3,8.6-12.1,13.8-17.5v71.4
				c6,14.3,17.6,30.8,35.1,49.1c29.9,31.2,91.9,81.2,217.1,141.8c45.9,22.3,65,77.5,42.7,123.4c0,0,0,0,0,0
				c-15.5,31.7-47.7,51.9-83,52h-0.1c-14,0-27.8-3.2-40.3-9.3c-67-32.6-123.8-65.2-171.5-98.2v493.4h223.8V697.7h42v147.9h223.8
				v-799l0,0c6,12.5,11.4,25.3,16.1,38.3c25.5,70.7,47,186.7,46.9,367.8c0,49.9-1.6,104.7-5.1,165c-2.3,39.9,28.2,74.2,68.1,76.5
				c1.4,0.1,2.9,0.1,4.3,0.1c38.3,0,70-29.9,72.2-68.2c3.6-62.7,5.3-120.4,5.4-173.4C1414.7,179.6,1371.1,28.4,1311.6-62.5z"/>
			<path class="st4" d="M1523.6,501.4c2.6,4.5,1.1,10.3-3.4,13c0,0,0,0,0,0l-62.3,35.9c-2.3,1.4-3.1,4.3-1.8,6.7l2.9,5.1
				c1.4,2.3,4.3,3.1,6.7,1.8l62.3-35.9c4.5-2.6,10.3-1,12.9,3.5c2.6,4.5,1,10.3-3.5,13l-62.4,35.9c-2.3,1.4-3.1,4.3-1.8,6.7l2.9,5.1
				c1.4,2.3,4.3,3.1,6.7,1.8l62.4-35.9c4.5-2.6,10.3-1,12.9,3.5c2.6,4.5,1,10.3-3.5,13l0,0l-73.1,42.1c-10.5,6.2-24,2.6-30.2-7.9
				c-0.1-0.1-0.1-0.2-0.2-0.3l-2.3-4L1310,696c-12.4,8.1-29.1,4.6-37.3-7.8c-0.3-0.4-0.5-0.8-0.7-1.2l-0.3-0.6
				c-7.4-12.9-2.9-29.3,9.9-36.7c0.4-0.2,0.9-0.5,1.3-0.7l148.8-74.4l-2.4-4.2l0,0c-6.2-10.5-2.6-24,7.9-30.2
				c0.1-0.1,0.2-0.1,0.3-0.2l73.1-42.1C1515.1,495.3,1520.9,496.8,1523.6,501.4z"/>
			<path class="st4" d="M809.4,231.9c76.5-77.9,201.6-79,279.5-2.5c77.8,76.3,78.9,201.7,2.5,279.5s-201.7,78.9-279.4,2.5l5.9-6
				c74.4,73.1,194.4,72,267.5-2.4s72-194.4-2.4-267.5c-74.5-73.2-194.3-72.1-267.5,2.4L809.4,231.9z"/>
			<path class="st4" d="M842.5,264.7c58.5-59.6,154.2-60.4,213.8-1.9c59.6,58.5,60.4,154.2,1.9,213.8s-154.2,60.4-213.8,1.9
				c0,0,0,0,0,0l5.9-6c56.3,55.2,146.6,54.4,201.9-1.8l1.1-1.1c54-56.2,52.8-146-3-200.7c-56.2-55.1-146.7-54.3-201.9,1.8
				L842.5,264.7z"/>
			<path class="st4" d="M872.7,294.3c41.9-43.2,110.8-44.2,154-2.3c43.2,41.9,44.2,110.8,2.3,154l-0.9,0.9
				c-42.2,42.9-111.1,43.5-154,1.4l5.9-6c39.6,38.8,103.1,38.2,142-1.3c0.3-0.3,0.5-0.5,0.8-0.8c38.3-40.1,36.9-103.7-3.2-142
				c-39.7-37.9-102.4-37-140.9,2.1L872.7,294.3z"/>
			<path class="st4" d="M1090.7,510.6c-76.5,77.9-201.6,79-279.5,2.5c-77.8-76.4-78.9-201.7-2.5-279.5s201.7-78.9,279.5-2.5l-5.9,6
				c-74.4-73.1-194.4-72-267.5,2.4s-72,194.4,2.4,267.5c74.5,73.2,194.3,72.1,267.5-2.4c0,0,0,0,0,0L1090.7,510.6z"/>
			<path class="st4" d="M1057.6,477.8c-58.5,59.6-154.2,60.5-213.8,2s-60.5-154.2-2-213.8c58.5-59.6,154.2-60.5,213.8-2c0,0,0,0,0,0
				l-5.9,6c-56.3-55.2-146.6-54.4-201.9,1.8l-1.1,1.2c-54,56.2-52.8,146,3,200.7c56.2,55.1,146.7,54.3,201.9-1.8L1057.6,477.8z"/>
			<path class="st4" d="M1027.4,448.1c-41.9,43.1-110.8,44.2-154,2.3s-44.2-110.8-2.3-154l0.9-0.9c42.2-42.9,111.1-43.5,154-1.4
				l-5.9,6c-39.6-38.8-103.1-38.2-142,1.3c-0.3,0.3-0.5,0.5-0.8,0.8c-38.3,40.1-36.9,103.7,3.2,142c39.7,37.9,102.4,37,140.9-2.1
				L1027.4,448.1z"/>
			<path class="st3" d="M629.6-96.7C608.7-78,588.6-55.2,573-27.1c-16.3,29.2-25.2,61.8-26,95.2c0,1.4-0.2,2.8-0.2,4.2
				c-0.1,62.3,29.8,125.7,86,183.5c56.6,58.4,140.5,115.7,263.6,175.7c36.2,17.1,79.3,1.6,96.4-34.6c16.8-35.6,2.1-78.1-33.1-95.7
				c-113.5-55-184.1-105.7-222.8-146c-39-40.9-45.2-67-45.3-82.9c0-0.1,0-0.3,0-0.4c0.2-11.2,3.3-21.4,10.8-33.5
				c4-6.3,8.6-12.1,13.8-17.5"/>
		</g>
	</g>
</g>
</svg>
