<?xml version="1.0" encoding="utf-8"?>
<!-- Generator: Adobe Illustrator 23.0.6, SVG Export Plug-In . SVG Version: 6.00 Build 0)  -->
<svg version="1.1" xmlns="http://www.w3.org/2000/svg" xmlns:xlink="http://www.w3.org/1999/xlink" x="0px" y="0px"
	 viewBox="0 0 1966 648" style="enable-background:new 0 0 1966 648;" xml:space="preserve">
<style type="text/css">
	.st0{fill:#00B6CF;}
	.st1{fill:#C09C55;}
	.st2{fill:#FDB615;}
	.st3{fill:#5E54A4;}
	.st4{fill:#DF1C4D;}
	.st5{fill:#4C4D4D;}
	.st6{fill:#7D7D7D;}
	.st7{fill:#4F3613;}
	.st8{fill:#010101;}
	.st9{fill:#B1E1EB;}
	.st10{fill:#60CAE6;}
	.st11{clip-path:url(#SVGID_2_);fill:#FFFFFF;}
	.st12{clip-path:url(#SVGID_4_);fill:#FFFFFF;}
	.st13{clip-path:url(#SVGID_6_);fill:#FFFFFF;}
	.st14{clip-path:url(#SVGID_8_);fill:#FFFFFF;}
	.st15{clip-path:url(#SVGID_10_);fill:#FFFFFF;}
	.st16{clip-path:url(#SVGID_12_);fill:#FFFFFF;}
	.st17{clip-path:url(#SVGID_14_);fill:#FFFFFF;}
	.st18{clip-path:url(#SVGID_16_);fill:#FFFFFF;}
	.st19{clip-path:url(#SVGID_18_);fill:#FFFFFF;}
	.st20{fill:#FFFFFF;}
	.st21{clip-path:url(#SVGID_20_);fill:#4C4D4D;}
	.st22{fill:#CCCBCA;}
	.st23{fill:#1D2959;}
	.st24{fill:none;stroke:#000000;stroke-width:8;stroke-linecap:round;stroke-linejoin:round;stroke-miterlimit:10;}
	.st25{clip-path:url(#SVGID_22_);}
	.st26{fill:#F8971D;}
	.st27{clip-path:url(#SVGID_22_);fill:#DF1C4D;}
	.st28{clip-path:url(#SVGID_22_);fill:#5E54A4;}
	.st29{clip-path:url(#SVGID_24_);}
	.st30{clip-path:url(#SVGID_24_);fill:#F8971D;}
	.st31{fill:#2CBAA8;}
	.st32{clip-path:url(#SVGID_24_);fill:#DF1C4D;}
	.st33{fill:#009444;}
	.st34{fill:#8DC63F;}
	.st35{fill-rule:evenodd;clip-rule:evenodd;fill:#FDB615;}
	.st36{clip-path:url(#SVGID_26_);}
	.st37{clip-path:url(#SVGID_26_);fill:#00B6CF;}
	.st38{clip-path:url(#SVGID_28_);}
	.st39{clip-path:url(#SVGID_28_);fill:#FDB615;}
	.st40{fill:#00B6CF;stroke:#00B6CF;stroke-width:20;stroke-linecap:round;stroke-miterlimit:10;}
	.st41{fill:#F78F1E;}
	.st42{fill:none;stroke:#DF1C4D;stroke-miterlimit:10;}
	.st43{fill:#00A9BF;}
	.st44{fill:#058FB3;}
	.st45{fill:#FDF391;}
	.st46{fill:#C1D730;}
	.st47{fill:#FCEC13;}
	.st48{fill:#FBD81C;}
	.st49{fill:#11AE55;}
	.st50{fill:#0FA84C;}
	.st51{fill:#EC5283;}
	.st52{fill:#EF3F3B;}
	.st53{fill:#F04B39;}
	.st54{fill:#D9E25A;}
	.st55{fill:#F99D2B;}
	.st56{fill:#FCD502;}
	.st57{fill:#EE5963;}
	.st58{fill:#65CBE6;}
</style>
<g id="Layer_1">
	<rect x="-72" y="-72" class="st0" width="2103.6" height="784.4"/>
</g>
<g id="_x30_1_x5F_RUBBLE">
	<g transform="translate(300,300)">
		<path class="st5" d="M569.9-283.6c74.9-27.4,179.9-16.9,278.2,6.1c98.1,22.9,189.8,58.3,220.1,110.3
			c30.1,52.2-1.1,50.9,23.1,123.7c23.8,72.8,102.6,149.5,88.1,208.1s-122.8,99-228.3,97.2c-105.5-2.1-208.2-46.3-314.6-51.9
			c-106.3-5.5-216.3,27.8-327,21.4C198.4,225.1,86.9,179.3,65.8,118C44.4,56.6,113.4-20.2,185-75.1c71.5-54.7,145.7-7.4,205.5-56.5
			C449.9-180.6,494.8-256.1,569.9-283.6z"/>
	</g>
	<g>
		<polygon class="st6" points="1365.1,310.4 1373.9,283.8 1373.9,265.7 1337.6,257.7 1313.3,243.6 1293.7,258.8 1361.4,306.9 		"/>
		<path class="st7" d="M1125.8,193.4l12,15.6l0.7,0.2c7.9,2.5,13,9.8,13.1,17.7l9.4,12.2l62.9-26.2l50.8,33.2l-2.3-28.3l-41.5-39.4
			l-61-19.4c11.4-6.8,23-13.1,34.8-19l-9.7-13.1c-6.2,3.1-12.2,6.4-18.3,9.7L1141,88.7l16.4-12.2l-9.6-12.9l-45.3,33.7l-2-2.7
			l-12.9,9.6l44.5,59.9c-2.9,2-5.7,4-8.5,6l-11.9,6L1125.8,193.4z M1112.1,110.2l21.9-16.3l35,47c-7.9,4.5-15.7,9.3-23.4,14.2
			L1112.1,110.2z"/>
		<path class="st7" d="M991,149.6l58.4-8.5c-3.6-3.1-7.2-5.5-10.6-7.5c-7.7-4.5-14.1-6.3-17.4-9.2c-1-0.9-1.8-2.1-1.8-3.6
			c0.1-2.4,1.7-4.1,4-6.1c7.2-6,10.3-13.2,10.3-18.7c-0.1-4.5-1.9-7.4-5-8.4c-3-1-5.8-1.5-8-1.5c-2.2,0-3.7,0.5-5,1.7
			c-1.3,1.2-2.4,3.2-3.2,6.8c-0.4,3.1-3.3,4.9-5.8,4.7c-3.2,0-6.7-1.6-10.3-3c-3.5-1.4-7.1-2.7-9.2-2.7c-1.2,0-1.7,0.3-2.2,0.7
			c-0.5,0.5-1,1.6-1,3.8c0,0.8,0,1.5,0,2.2c0,4.6,0.5,8.3,0.5,11.5c0.1,3.6-0.8,7.2-4,9.7c-3.1,2.5-8,4.3-16.1,6.2
			c-3.3,0.8-5.3,1.6-6.3,2.3c-1,0.8-1,1-1,1.5c-0.1,0.9,1.2,3.1,2.9,5.7c1.6,2.6,3.4,5.8,3.5,9.8c0,1.3-0.2,2.7-0.7,4.1L991,149.6z"
			/>
		<polygon class="st8" points="1147,244.9 1153.3,242.3 1149.4,237.2 		"/>
		<path class="st6" d="M700.6,310.9l38,35l3.5-16.9l63.8,13.3l-9.9-31.9l125.6-38.9l11.6,37.4l28.9-70.2l37,15.2l19.6-62.5
			c3.1-9.9,13.6-15.4,23.5-12.3l82.2,25.7l-4.9-6.3l-43-53.1l-84.7,12.4l-159.6,9.5l-37.7,54.1L646.3,310L700.6,310.9z"/>
		<polygon class="st7" points="566.7,266.9 528.1,274.3 502,323.2 563.6,323.2 584.8,309 631,309.8 686.3,276.6 670.5,246.8 
			651.4,250.5 650.7,242.5 650.5,240.3 637,236.3 628.9,238.6 615.6,168.6 599.8,171.6 614.2,247.9 613,249.7 607,259.1 
			582.5,263.8 581,255.9 574.6,222.1 558.8,225.1 565.2,259 		"/>
		<path class="st1" d="M812.8,343.7l58.1,12.1l-0.4,2.1l32-46.6l25.4,0.3L917.6,279l-114,35.3L812.8,343.7z"/>
		<polyline class="st7" points="994.1,270 997.3,259.6 965.4,246.5 938.6,311.7 980.8,312.2 992.2,276 		"/>
		<path class="st7" d="M779.7,383.8l62.7,14.9l19.1-27.8l2.2-10.4l-116.8-24.3l-3,14.6L779.7,383.8z"/>
		<path class="st8" d="M1137.1,213.6l-96.3-30.2c-7.4-2.3-15.3,1.8-17.6,9.2l-37.5,119.6l4.9,0.1l10.1-32.4l40.8,12.8l3.9-5.7
			l14.1-5.8l-53.8-16.9l22-70.3c1.5-4.9,6.8-7.7,11.7-6.1l96.3,30.2c4.9,1.5,7.7,6.8,6.1,11.7l-6.2,19.7l3.6-1.5l2.1-0.9l5-16
			C1148.7,223.9,1144.5,216,1137.1,213.6z"/>
		
			<rect x="1037.6" y="228.1" transform="matrix(0.7064 -0.7079 0.7079 0.7064 145.3066 808.5015)" class="st8" width="19" height="2.1"/>
		
			<rect x="1045.1" y="235.6" transform="matrix(0.7062 -0.708 0.708 0.7062 142.2899 816.2183)" class="st8" width="19" height="2.1"/>
		
			<rect x="1023.9" y="231.6" transform="matrix(0.7066 -0.7076 0.7076 0.7066 143.8025 812.0289)" class="st8" width="54.5" height="2.1"/>
		<polygon class="st1" points="1388.5,395.7 1412,365 1356.3,313.2 1285.9,263.1 1223.1,222 1142.4,255.6 1050.7,293.5 1033.6,319 
			1087.3,329.2 1123.1,404.3 1140.1,415.7 1141.3,415.6 1219.2,399.3 1224.4,424.1 1311.8,439.1 		"/>
		<path class="st6" d="M1111.7,421.8l4.3-0.9c4.9-1,6.2-7.5,2-10.3l0,0c-0.8-0.6-1.5-1.4-2-2.3l-34.3-72l-83.3-15.8l-91.9-1.1
			l-55.7,81.3l23.4,5.6l4.6,37.5l72.5,14.7l69.9-11.3l81.4-10.6c3.3-0.4,5.5-3.6,4.8-6.8l-0.3-1.3
			C1106.6,425.4,1108.6,422.4,1111.7,421.8z"/>
		<path class="st1" d="M586.2,317.8l-79.9,53.4c-0.9,0.6-1.5,1.5-1.7,2.5L491,435.1c-0.5,2.2,0.9,4.4,3.2,4.8l133.6,26.2
			c0.5,0.1,1.1,0.1,1.6,0l20.2-4.1c1.6-0.3,2.8-1.5,3.1-3.1l8.9-39.7c0.5-2.2,2.6-3.5,4.8-3.1l104.8,23.5c2.2,0.5,3.5,2.6,3.1,4.8v0
			c-0.5,2.4,1.2,4.7,3.7,4.9l89.4,5.9c2.5,0.2,4.6-2,4.3-4.5l-4.3-35.2c-0.2-1.7-1.4-3-3.1-3.4l-87.4-20.8c-0.7-0.2-1.3-0.5-1.8-1
			L698.5,320c-0.7-0.7-1.7-1-2.7-1.1l-107.4-1.8C587.6,317.1,586.8,317.3,586.2,317.8z"/>
		<path class="st6" d="M760.1,480.1l7.8-34.9L667,422.5l-7.8,34.9L760.1,480.1z"/>
		<path class="st7" d="M1214.5,406.4l-101.2,21.2l7.3,35l101.2-21.2L1214.5,406.4z"/>
	</g>
	<path class="st9" d="M1314.3,553.1c-0.5,0.2-1,0.6-1.1,1.1c-0.2,0.5-0.1,1.1,0.3,1.5l5.3,6.7l-2,7.2c-0.2,0.9,0.2,1.7,1.1,2
		l13.1,4.5l-9.6,6.5c-0.5,0.3-0.8,0.9-0.7,1.5l0.7,8.1l-10.1,5.9c-0.4,0.2-0.7,0.7-0.8,1.2s0,1,0.4,1.4l5.7,6.9l-8.1,2.9
		c-0.6,0.2-1.1,0.8-1.1,1.5c-0.1,0.7,0.3,1.3,0.9,1.6c4.7,2.5,9.9,3.8,15.2,3.9c6.2,0.1,13.9-2.8,18.1-5.5c3-2,5.3-3.6,7.1-4.9
		c4.5-3.2,6.2-4.5,10.5-4.9c6-0.6,8.9-2.9,10.3-4.6c1,1.1,2.5,1.8,4.1,1.9l2.7,0c0.1,0,0.2,0,0.3,0c0.1,0,0.2,0,0.3,0l2.1,0
		c0,0,0,0,0,0l2.7,0c0,0,0,0,0,0l0.6,0c0.2,0,0.5-0.1,0.7-0.1c2.5-0.6,4.4-2.8,4.5-5.5l0-0.1c1.2-0.6,2.5-2,2.5-2.9l0.2-12.7
		c0-0.9-1.3-2.3-2.5-2.9l0-0.1c0-2.7-1.8-5-4.3-5.6c-0.2-0.1-0.4-0.2-0.7-0.2l-0.6,0l-2.7,0l-2.1,0c-0.1,0-0.2,0-0.3,0
		c-0.1,0-0.2,0-0.3,0l-2.7,0c-1.9,0-3.7,0.9-4.7,2.4c-1.5-1.7-4.4-3.6-9.6-4.2c-4.4-0.5-6.1-1.7-10.8-5.3c-1.7-1.3-3.8-2.8-6.5-4.7
		c-4.6-3.2-12.3-5.6-18-5.7C1320.9,551.6,1317.5,552.1,1314.3,553.1z M1374,572.5c-0.3,0.7-0.5,1.5-0.5,2.3l-0.3,18.8
		c0,0.8,0.2,1.6,0.5,2.3l-0.2,0c-1.3,0-2.3-1.1-2.3-2.4l0.3-18.8c0-1.3,1.1-2.3,2.4-2.3L1374,572.5z M1377.8,573
		c0.6,0.4,1,1.1,1,1.9l-0.3,18.8c0,0.8-0.4,1.5-1,1.9c-0.6-0.4-1-1.1-1-1.9l0.3-18.8C1376.8,574.1,1377.2,573.4,1377.8,573z
		 M1384.1,575l-0.3,18.8c0,1.3-1.1,2.3-2.4,2.3l-0.2,0c0.3-0.7,0.5-1.5,0.6-2.3l0.3-18.8c0-0.8-0.2-1.6-0.5-2.3l0.2,0
		C1383.1,572.7,1384.2,573.7,1384.1,575z"/>
	<polygon class="st10" points="715.8,585 719,579.8 712.1,564 736.6,581.3 	"/>
	<polygon class="st10" points="696.1,594.8 682.4,600.8 649.8,586.8 667,554.6 695.5,548.4 700.8,594.8 	"/>
	<polygon class="st10" points="719.9,597.8 746.5,589.6 769.2,597.6 760.8,628.2 720.8,605.1 	"/>
	<polygon class="st10" points="750.7,577.9 737.1,564.8 787.4,564.7 782.1,583.7 758.7,575.4 	"/>
	<polygon class="st9" points="715.3,584.9 713.7,578.3 711.5,563.9 731.4,579.9 	"/>
	<polygon class="st9" points="714.7,596.4 741.2,588.2 764,596.2 756,625.2 716,602.1 	"/>
	<polygon class="st9" points="747.9,573.8 736.6,564.7 783.2,565.2 779.3,579.6 755.9,571.3 	"/>
	<polygon class="st10" points="1237.3,577.3 1265.2,578.9 1270.3,594.6 1259.5,609.3 1233.4,585.7 	"/>
	<polygon class="st10" points="1150,581.9 1170.6,577.5 1159.9,610.9 1156,614.7 1140.1,597.9 	"/>
	<polygon class="st10" points="935,599.3 933.9,639.6 912.7,617.3 	"/>
	<polygon class="st10" points="1229.1,606.4 1232.6,592.5 1255.3,612.7 1224.9,643.7 	"/>
	<polygon class="st10" points="939.5,645.5 940.6,606.4 946.3,600.5 970.1,596.8 965.8,633.4 948.1,654.6 	"/>
	<polyline class="st9" points="683.8,598.9 653.2,586.2 670.3,554 693.3,549.6 698.3,594.9 	"/>
	<g>
		<defs>
			<polyline id="SVGID_1_" points="683.8,598.9 653.2,586.2 670.3,554 693.3,549.6 698.8,593.3 			"/>
		</defs>
		<clipPath id="SVGID_2_">
			<use xlink:href="#SVGID_1_"  style="overflow:visible;"/>
		</clipPath>
		<polygon class="st11" points="651.7,566.8 648.6,573.6 698.3,594.9 698.3,594.9 		"/>
	</g>
	<g>
		<defs>
			<polygon id="SVGID_3_" points="715.2,584.9 713.7,578.3 711.4,563.8 731.3,579.9 			"/>
		</defs>
		<clipPath id="SVGID_4_">
			<use xlink:href="#SVGID_3_"  style="overflow:visible;"/>
		</clipPath>
		<polygon class="st12" points="744.7,587.9 748.1,583.1 699.3,569.8 697.1,569.9 		"/>
	</g>
	<g>
		<defs>
			<polygon id="SVGID_5_" points="714.7,596.4 741.2,588.2 764,596.2 756,625.2 716,602.1 			"/>
		</defs>
		<clipPath id="SVGID_6_">
			<use xlink:href="#SVGID_5_"  style="overflow:visible;"/>
		</clipPath>
		<polygon class="st13" points="760,621.5 764.9,619.9 723.1,591.3 718.2,592.9 		"/>
	</g>
	<g>
		<defs>
			<polygon id="SVGID_7_" points="747.9,573.8 736.6,564.7 783.2,565.2 779.3,579.6 755.9,571.3 			"/>
		</defs>
		<clipPath id="SVGID_8_">
			<use xlink:href="#SVGID_7_"  style="overflow:visible;"/>
		</clipPath>
		<polygon class="st14" points="776.2,580.8 742.6,541.9 770.4,584.1 775.5,584.5 		"/>
	</g>
	<polygon class="st9" points="1237.3,577.3 1268.6,577.9 1273.8,593.5 1260.8,605.9 1236.9,584.6 	"/>
	<polygon class="st9" points="1153.5,580.9 1174.1,576.4 1162.3,608.7 1158.3,612.4 1143.5,596.8 	"/>
	<polygon class="st9" points="933.8,600.4 932.9,633.8 917.3,617.4 	"/>
	<polygon class="st9" points="1232.6,605.3 1233.7,593.7 1258.8,611.6 1228.4,640.4 	"/>
	<polygon class="st9" points="943,644.5 944,605.3 947.4,599.4 973.5,595.7 969.2,632.3 949.3,651.2 	"/>
	<g>
		<defs>
			<polygon id="SVGID_9_" points="1237,577.9 1268.3,578.5 1273.5,594.2 1260.5,606.5 1236.6,585.3 			"/>
		</defs>
		<clipPath id="SVGID_10_">
			<use xlink:href="#SVGID_9_"  style="overflow:visible;"/>
		</clipPath>
		<path class="st15" d="M1214.2,602.8L1214.2,602.8c0.9,1.7,3,2.4,4.8,1.5l52.3-27.5l-8.2,2.3c-0.1,0-0.2,0.1-0.3,0.1l-46.7,18.6
			C1214,598.6,1213.2,601,1214.2,602.8z"/>
	</g>
	<g>
		<defs>
			<polygon id="SVGID_11_" points="1153.2,581.5 1173.8,577 1162,609.3 1158,613 1143.3,597.4 			"/>
		</defs>
		<clipPath id="SVGID_12_">
			<use xlink:href="#SVGID_11_"  style="overflow:visible;"/>
		</clipPath>
		<polygon class="st16" points="1138.6,606.8 1144.2,611.8 1179.4,570.7 1179.4,570.7 		"/>
	</g>
	<g>
		<defs>
			<polygon id="SVGID_13_" points="933.5,601 932.6,634.4 917,618 			"/>
		</defs>
		<clipPath id="SVGID_14_">
			<use xlink:href="#SVGID_13_"  style="overflow:visible;"/>
		</clipPath>
		<polygon class="st17" points="914.9,652.5 922.2,654.1 936.1,593 932.5,600.9 		"/>
	</g>
	<g>
		<defs>
			<polygon id="SVGID_15_" points="1232.3,605.9 1233.5,594.3 1258.5,612.2 1228.2,641 			"/>
		</defs>
		<clipPath id="SVGID_16_">
			<use xlink:href="#SVGID_15_"  style="overflow:visible;"/>
		</clipPath>
		<polygon class="st18" points="1253.9,587.7 1246.9,585.3 1225.7,644.2 1230.3,636.8 		"/>
	</g>
	<g>
		<defs>
			<polygon id="SVGID_17_" points="942.7,645.1 943.8,606 947.2,600 973.3,596.3 969,632.9 949,651.8 			"/>
		</defs>
		<clipPath id="SVGID_18_">
			<use xlink:href="#SVGID_17_"  style="overflow:visible;"/>
		</clipPath>
		<polygon class="st19" points="947.4,653.3 954.7,654.9 968.6,593.9 965,601.8 		"/>
	</g>
	<polygon class="st20" points="1316.7,590.8 1330.1,578.3 1367.3,592.7 1366.9,597.1 	"/>
	<polygon class="st6" points="-5.2,345.2 -14,318.7 -14,300.5 22.4,292.5 46.6,278.4 66.2,293.6 -1.4,341.8 	"/>
	<polygon class="st5" points="-28.6,430.5 -52,399.8 3.7,348 74,297.9 136.9,256.8 217.6,290.4 309.2,328.4 326.3,353.8 272.6,364 
		236.9,439.1 219.9,450.6 218.6,450.4 140.8,434.1 135.6,458.9 48.1,473.9 	"/>
	<path class="st6" d="M485.6,441.1l-4.6,37.5l-72.5,14.7L338.7,482l-81.4-10.6c-3.3-0.4-5.5-3.6-4.8-6.8l0.3-1.3
		c0.6-3.1-1.3-6.1-4.4-6.7l-4.3-0.9c-4.9-1-6.2-7.5-2-10.3h0c0.8-0.6,1.5-1.4,2-2.3l34.3-72l83.3-15.8l91.9-1.1"/>
	<path class="st7" d="M138.1,476.3l101.2,21.2l7.3-35l-101.2-21.2L138.1,476.3z"/>
	<polygon class="st6" points="1451.8,430.5 1428.3,399.8 1484,348 1554.4,297.9 1617.2,256.8 1697.9,290.4 1789.6,328.4 
		1806.7,353.8 1753,364 1717.2,439.1 1700.2,450.6 1699,450.4 1621.1,434.1 1615.9,458.9 1528.5,473.9 	"/>
	<path class="st5" d="M1966,441.1l-4.6,37.5l-72.5,14.7l-69.9-11.3l-81.4-10.6c-3.3-0.4-5.5-3.6-4.8-6.8l0.3-1.3
		c0.6-3.1-1.3-6.1-4.4-6.7l-4.3-0.9c-4.9-1-6.2-7.5-2-10.3l0,0c0.8-0.6,1.5-1.4,2-2.3l34.3-72l83.3-15.8l91.9-1.1"/>
	<path class="st1" d="M1618.5,476.3l101.2,21.2l7.3-35l-101.2-21.2L1618.5,476.3z"/>
</g>
<g id="_x30_2_x5F_COUGHING">
</g>
<g id="_x30_3_x5F_THIRSTY">
</g>
<g id="_x30_4_x5F_HUNGRY">
</g>
<g id="_x30_5_x5F_FIRSTAID">
</g>
<g id="_x30_6_x5F_LOST_PET">
</g>
<g id="_x30_7_x5F_CHILLY">
</g>
<g id="_x30_8_x5F_CAUGHT_IN_CRACK">
</g>
<g id="_x30_9_x5F_WEATHER">
</g>
<g id="_x31_0_x5F_FIRES">
</g>
</svg>
