<svg xmlns="http://www.w3.org/2000/svg" xmlns:xlink="http://www.w3.org/1999/xlink" viewBox="0 0 1966 648"><defs><style>.cls-1,.cls-10{fill:none;}.cls-2{fill:#c09c55;}.cls-3{clip-path:url(#clip-path);}.cls-4{fill:#4c4d4d;}.cls-5{fill:#7d7d7d;}.cls-6{fill:#cccbca;}.cls-7{fill:#00b6cf;}.cls-8{fill:#fff;}.cls-9{fill:#1d2959;}.cls-10{stroke:#000;stroke-linecap:round;stroke-linejoin:round;stroke-width:8px;}</style><clipPath id="clip-path"><rect class="cls-1" x="-72" y="-71.71" width="2103.63" height="784.35"/></clipPath></defs><title>ESV2_</title><g id="Layer_1" data-name="Layer 1"><rect class="cls-2" x="-72" y="-74.1" width="2103.63" height="784.35"/></g><g id="_02_COUGHING" data-name="02_COUGHING"><g class="cls-3"><path class="cls-4" d="M-244.55,357.24c0,113.39,92.24,205.63,205.63,205.63A204.05,204.05,0,0,0,34.3,549.46,282,282,0,0,0,410.44,655.78a319.75,319.75,0,0,0,201.32,71.3c108.78,0,210.83-56.13,269.4-147.34a166.48,166.48,0,0,0,52.72,8.47c92.39,0,167.55-75.17,167.55-167.55S1026.27,253.1,933.88,253.1l-3.06,0q.81-10,.82-20.07c0-134.38-109.33-243.71-243.72-243.71a242.65,242.65,0,0,0-172,71.09C483.15-12.35,409.29-61.29,328.11-61.29a205.19,205.19,0,0,0-172,92.87A129.45,129.45,0,0,0-54.15,132.73a131.27,131.27,0,0,0,1.43,19.34C-159.69,159.19-244.55,248.49-244.55,357.24ZM-33.78,166.7c-1.73,0-3.4.14-5.14.14,1.55,0,3-.14,4.56-.14Z"/><path class="cls-4" d="M1003.82,357.24c0,113.39,92.25,205.63,205.64,205.63a204,204,0,0,0,73.21-13.41,282,282,0,0,0,376.14,106.32,319.78,319.78,0,0,0,201.33,71.3c108.78,0,210.83-56.13,269.39-147.34a166.57,166.57,0,0,0,52.72,8.47c92.39,0,167.56-75.17,167.56-167.55S2274.64,253.1,2182.25,253.1l-3.06,0q.82-10,.82-20.07c0-134.38-109.33-243.71-243.71-243.71a242.65,242.65,0,0,0-172.06,71.09c-32.72-72.79-106.58-121.73-187.76-121.73a205.2,205.2,0,0,0-172,92.87A129.83,129.83,0,0,0,1323.7,3.26c-71.4,0-129.48,58.08-129.48,129.47a129.93,129.93,0,0,0,1.44,19.34C1088.68,159.19,1003.82,248.49,1003.82,357.24ZM1214.59,166.7c-1.73,0-3.39.14-5.13.14,1.54,0,3-.14,4.55-.14Z"/></g><path class="cls-5" d="M414.66,357.24c0,113.39,92.24,205.63,205.63,205.63a204.05,204.05,0,0,0,73.22-13.41,282,282,0,0,0,376.13,106.32A319.78,319.78,0,0,0,1271,727.08c108.78,0,210.83-56.13,269.39-147.34a166.58,166.58,0,0,0,52.73,8.47c92.39,0,167.55-75.17,167.55-167.55S1685.48,253.1,1593.09,253.1l-3.06,0q.81-10,.82-20.07c0-134.38-109.33-243.71-243.72-243.71a242.63,242.63,0,0,0-172.05,71.09C1142.35-12.35,1068.49-61.29,987.32-61.29a205.19,205.19,0,0,0-172,92.87A129.45,129.45,0,0,0,605.06,132.73a131.27,131.27,0,0,0,1.43,19.34C499.52,159.19,414.66,248.49,414.66,357.24ZM625.42,166.7c-1.73,0-3.39.14-5.13.14,1.55,0,3-.14,4.56-.14Z"/><path class="cls-6" d="M1022.57,339.8a53.47,53.47,0,0,0,2-7.61,52.49,52.49,0,0,0-76.63-55.47,83.39,83.39,0,0,0-145.62-14.33,98.82,98.82,0,0,0-178.3,39q-.72,4-1.11,8.06l-1.22-.23a67.93,67.93,0,1,0-2.43,134.12,129.71,129.71,0,0,0,182.36,64.16,114.3,114.3,0,0,0,157.71-15.4,83.38,83.38,0,1,0,63.27-152.31Zm-8.37,4.52c.61.11,1.19.27,1.81.38-.7-.12-1.35-.32-2-.42Z"/><path class="cls-7" d="M1181.14,135.51C1045.3,23.54,737,161.12,737,161.12L875.1,229.83s-20.73,41.51-31.75,65.81l86.2,42.16c29,14.16,31.21,54.57,4,71.87l-98,62.33c19.83,43.37,63.37,80.1,147.72,96.62C1266.83,624.15,1317,247.48,1181.14,135.51Z"/><ellipse class="cls-8" cx="986.15" cy="207.79" rx="34.82" ry="57.59" transform="translate(174.99 805.87) rotate(-48.3)"/><circle class="cls-9" cx="986.15" cy="207.79" r="10.61"/><rect class="cls-7" x="986.4" y="142.49" width="138.06" height="48.7" transform="translate(378.39 -659.83) rotate(41.7)"/><rect class="cls-7" x="557.68" y="592.12" width="370.97" height="122.2" rx="47.62"/><rect class="cls-7" x="499.49" y="592.12" width="370.97" height="122.2" rx="47.62"/><line class="cls-10" x1="919.64" y1="349.7" x2="825.4" y2="312.74"/><line class="cls-10" x1="830.75" y1="443.77" x2="920.92" y2="384.34"/><line class="cls-10" x1="905.65" y1="368.77" x2="798.58" y2="370.3"/><path class="cls-7" d="M1302.89,717.59V682.77c0-114.09-156.63-136.58-270.72-136.58h0c-114.09,0-257.9,22.49-257.9,136.58v34.82Z"/></g></svg>