<?xml version="1.0" encoding="utf-8"?>
<!-- Generator: Adobe Illustrator 23.0.6, SVG Export Plug-In . SVG Version: 6.00 Build 0)  -->
<svg version="1.1" xmlns="http://www.w3.org/2000/svg" xmlns:xlink="http://www.w3.org/1999/xlink" x="0px" y="0px"
	 viewBox="0 0 1966 648" style="enable-background:new 0 0 1966 648;" xml:space="preserve">
<style type="text/css">
	.st0{fill:#00B6CF;}
	.st1{fill:#C09C55;}
	.st2{fill:#FDB615;}
	.st3{fill:#5E54A4;}
	.st4{fill:#DF1C4D;}
	.st5{fill:#4C4D4D;}
	.st6{fill:#7D7D7D;}
	.st7{fill:#4F3613;}
	.st8{fill:#010101;}
	.st9{fill:#B1E1EB;}
	.st10{fill:#60CAE6;}
	.st11{clip-path:url(#SVGID_2_);fill:#FFFFFF;}
	.st12{clip-path:url(#SVGID_4_);fill:#FFFFFF;}
	.st13{clip-path:url(#SVGID_6_);fill:#FFFFFF;}
	.st14{clip-path:url(#SVGID_8_);fill:#FFFFFF;}
	.st15{clip-path:url(#SVGID_10_);fill:#FFFFFF;}
	.st16{clip-path:url(#SVGID_12_);fill:#FFFFFF;}
	.st17{clip-path:url(#SVGID_14_);fill:#FFFFFF;}
	.st18{clip-path:url(#SVGID_16_);fill:#FFFFFF;}
	.st19{clip-path:url(#SVGID_18_);fill:#FFFFFF;}
	.st20{fill:#FFFFFF;}
	.st21{clip-path:url(#SVGID_20_);fill:#4C4D4D;}
	.st22{fill:#CCCBCA;}
	.st23{fill:#1D2959;}
	.st24{fill:none;stroke:#000000;stroke-width:8;stroke-linecap:round;stroke-linejoin:round;stroke-miterlimit:10;}
	.st25{clip-path:url(#SVGID_22_);}
	.st26{fill:#F8971D;}
	.st27{clip-path:url(#SVGID_22_);fill:#DF1C4D;}
	.st28{clip-path:url(#SVGID_22_);fill:#5E54A4;}
	.st29{clip-path:url(#SVGID_24_);}
	.st30{clip-path:url(#SVGID_24_);fill:#F8971D;}
	.st31{fill:#2CBAA8;}
	.st32{clip-path:url(#SVGID_24_);fill:#DF1C4D;}
	.st33{fill:#009444;}
	.st34{fill:#8DC63F;}
	.st35{fill-rule:evenodd;clip-rule:evenodd;fill:#FDB615;}
	.st36{clip-path:url(#SVGID_26_);}
	.st37{clip-path:url(#SVGID_26_);fill:#00B6CF;}
	.st38{clip-path:url(#SVGID_28_);}
	.st39{clip-path:url(#SVGID_28_);fill:#FDB615;}
	.st40{fill:#00B6CF;stroke:#00B6CF;stroke-width:20;stroke-linecap:round;stroke-miterlimit:10;}
	.st41{fill:#F78F1E;}
	.st42{fill:none;stroke:#DF1C4D;stroke-miterlimit:10;}
	.st43{fill:#00A9BF;}
	.st44{fill:#058FB3;}
	.st45{fill:#FDF391;}
	.st46{fill:#C1D730;}
	.st47{fill:#FCEC13;}
	.st48{fill:#FBD81C;}
	.st49{fill:#11AE55;}
	.st50{fill:#0FA84C;}
	.st51{fill:#EC5283;}
	.st52{fill:#EF3F3B;}
	.st53{fill:#F04B39;}
	.st54{fill:#D9E25A;}
	.st55{fill:#F99D2B;}
	.st56{fill:#FCD502;}
	.st57{fill:#EE5963;}
	.st58{fill:#65CBE6;}
</style>
<g id="Layer_1">
	<rect x="-72" y="-74.1" class="st1" width="2103.6" height="784.4"/>
</g>
<g id="_x30_1_x5F_RUBBLE">
</g>
<g id="_x30_2_x5F_COUGHING">
	<g>
		<defs>
			<rect id="SVGID_19_" x="-72" y="-71.7" width="2103.6" height="784.4"/>
		</defs>
		<clipPath id="SVGID_2_">
			<use xlink:href="#SVGID_19_"  style="overflow:visible;"/>
		</clipPath>
		<path style="clip-path:url(#SVGID_2_);fill:#4C4D4D;" d="M-244.6,357.2c0,113.4,92.2,205.6,205.6,205.6c25.3,0,49.9-4.5,73.2-13.4
			C84.8,635.9,176.8,689,277.6,689c46.5,0,92.1-11.5,132.8-33.2c56.8,46.1,127.9,71.3,201.3,71.3c108.8,0,210.8-56.1,269.4-147.3
			c16.9,5.6,34.6,8.5,52.7,8.5c92.4,0,167.6-75.2,167.6-167.6c0-92.4-75.2-167.6-167.6-167.6c-1,0-2,0-3.1,0
			c0.5-6.7,0.8-13.4,0.8-20.1c0-134.4-109.3-243.7-243.7-243.7c-65.1,0-126.5,25.6-172.1,71.1C483.1-12.3,409.3-61.3,328.1-61.3
			c-69.9,0-134.2,35.1-172,92.9C133.3,13.4,104.8,3.3,75.3,3.3C3.9,3.3-54.2,61.3-54.2,132.7c0,6.5,0.5,13,1.4,19.3
			C-159.7,159.2-244.6,248.5-244.6,357.2z M-33.8,166.7c-1.7,0-3.4,0.1-5.1,0.1c1.5,0,3-0.1,4.6-0.1
			C-34.2,166.7-34,166.7-33.8,166.7z"/>
		<path style="clip-path:url(#SVGID_2_);fill:#4C4D4D;" d="M1003.8,357.2c0,113.4,92.2,205.6,205.6,205.6c25.3,0,49.9-4.5,73.2-13.4
			C1333.2,635.9,1425.2,689,1526,689c46.5,0,92.2-11.5,132.8-33.2c56.8,46.1,127.9,71.3,201.3,71.3c108.8,0,210.8-56.1,269.4-147.3
			c16.9,5.6,34.6,8.5,52.7,8.5c92.4,0,167.6-75.2,167.6-167.6c0-92.4-75.2-167.6-167.6-167.6c-1,0-2,0-3.1,0
			c0.5-6.7,0.8-13.4,0.8-20.1c0-134.4-109.3-243.7-243.7-243.7c-65.1,0-126.5,25.6-172.1,71.1c-32.7-72.8-106.6-121.7-187.8-121.7
			c-69.9,0-134.2,35.1-172,92.9c-22.8-18.2-51.3-28.3-80.8-28.3c-71.4,0-129.5,58.1-129.5,129.5c0,6.5,0.5,13,1.4,19.3
			C1088.7,159.2,1003.8,248.5,1003.8,357.2z M1214.6,166.7c-1.7,0-3.4,0.1-5.1,0.1c1.5,0,3-0.1,4.6-0.1
			C1214.2,166.7,1214.4,166.7,1214.6,166.7z"/>
	</g>
	<path class="st6" d="M414.7,357.2c0,113.4,92.2,205.6,205.6,205.6c25.3,0,49.9-4.5,73.2-13.4C744,635.9,836,689,936.8,689
		c46.5,0,92.1-11.5,132.8-33.2c56.8,46.1,127.9,71.3,201.3,71.3c108.8,0,210.8-56.1,269.4-147.3c16.9,5.6,34.6,8.5,52.7,8.5
		c92.4,0,167.6-75.2,167.6-167.6c0-92.4-75.2-167.6-167.6-167.6c-1,0-2,0-3.1,0c0.5-6.7,0.8-13.4,0.8-20.1
		c0-134.4-109.3-243.7-243.7-243.7c-65.1,0-126.5,25.6-172.1,71.1c-32.7-72.8-106.6-121.7-187.8-121.7c-69.9,0-134.2,35.1-172,92.9
		C792.5,13.4,764,3.3,734.5,3.3c-71.4,0-129.5,58.1-129.5,129.5c0,6.5,0.5,13,1.4,19.3C499.5,159.2,414.7,248.5,414.7,357.2z
		 M625.4,166.7c-1.7,0-3.4,0.1-5.1,0.1c1.5,0,3-0.1,4.6-0.1C625,166.7,625.2,166.7,625.4,166.7z"/>
	<path class="st22" d="M1022.6,339.8c0.8-2.5,1.5-5,2-7.6c5.1-28.5-13.9-55.8-42.4-61c-11.8-2.1-23.9-0.1-34.3,5.5
		c-10.9-25.8-34.1-44.4-62-49.4c-32.4-5.8-65.4,8.4-83.7,35.1c-14.9-21.4-37.6-36-63.5-40.7c-53.6-9.7-105.1,26.1-114.8,79.7
		c-0.5,2.7-0.9,5.4-1.1,8.1c-0.4-0.1-0.8-0.2-1.2-0.2c-36.9-6.6-72.3,18-78.9,54.8c-6.6,36.9,18,72.3,54.8,78.9
		c7.2,1.3,14.5,1.4,21.6,0.4c16.8,40.6,53.5,70.3,96.9,78.1c29.3,5.3,59.5,0.3,85.5-14c14.7,11.6,32.1,19.5,50.6,22.8
		c40.2,7.2,80.7-7.3,107.1-38.2c8.7,5.2,18.1,8.8,28.3,10.6c45.2,8.1,88.7-22,96.8-67.3C1092.2,392.1,1064.7,350.3,1022.6,339.8z
		 M1014.2,344.3c0.6,0.1,1.2,0.3,1.8,0.4c-0.7-0.1-1.3-0.3-2-0.4C1014,344.3,1014.1,344.3,1014.2,344.3z"/>
	<path class="st0" d="M1181.1,135.5C1045.3,23.5,737,161.1,737,161.1l138.1,68.7c0,0-20.7,41.5-31.7,65.8l86.2,42.2
		c29,14.2,31.2,54.6,4,71.9l-98,62.3c19.8,43.4,63.4,80.1,147.7,96.6C1266.8,624.2,1317,247.5,1181.1,135.5z"/>
	<g>
		
			<ellipse transform="matrix(0.6652 -0.7466 0.7466 0.6652 174.9906 805.8657)" class="st20" cx="986.1" cy="207.8" rx="34.8" ry="57.6"/>
		<circle class="st23" cx="986.1" cy="207.8" r="10.6"/>
		
			<rect x="986.4" y="142.5" transform="matrix(0.7466 0.6652 -0.6652 0.7466 378.3861 -659.8266)" class="st0" width="138.1" height="48.7"/>
	</g>
	<path class="st0" d="M605.3,714.3H881c26.3,0,47.6-21.3,47.6-47.6v-27c0-26.3-21.3-47.6-47.6-47.6H605.3
		c-26.3,0-47.6,21.3-47.6,47.6v27C557.7,693,579,714.3,605.3,714.3z"/>
	<path class="st0" d="M547.1,714.3h275.7c26.3,0,47.6-21.3,47.6-47.6v-27c0-26.3-21.3-47.6-47.6-47.6H547.1
		c-26.3,0-47.6,21.3-47.6,47.6v27C499.5,693,520.8,714.3,547.1,714.3z"/>
	<line class="st24" x1="919.6" y1="349.7" x2="825.4" y2="312.7"/>
	<line class="st24" x1="830.8" y1="443.8" x2="920.9" y2="384.3"/>
	<line class="st24" x1="905.6" y1="368.8" x2="798.6" y2="370.3"/>
	<path class="st0" d="M1302.9,717.6v-34.8c0-114.1-156.6-136.6-270.7-136.6h0c-114.1,0-257.9,22.5-257.9,136.6v34.8H1302.9z"/>
</g>
<g id="_x30_3_x5F_THIRSTY">
</g>
<g id="_x30_4_x5F_HUNGRY">
</g>
<g id="_x30_5_x5F_FIRSTAID">
</g>
<g id="_x30_6_x5F_LOST_PET">
</g>
<g id="_x30_7_x5F_CHILLY">
</g>
<g id="_x30_8_x5F_CAUGHT_IN_CRACK">
</g>
<g id="_x30_9_x5F_WEATHER">
</g>
<g id="_x31_0_x5F_FIRES">
</g>
</svg>
