<svg xmlns="http://www.w3.org/2000/svg" viewBox="0 0 1966 648"><defs><style>.cls-1{fill:#5e54a4;}.cls-2{fill:#f78f1e;}.cls-3{fill:#fdb615;}.cls-4{fill:none;stroke:#df1c4d;stroke-miterlimit:10;}.cls-5{fill:#7d7d7d;}</style></defs><title>ESV2_</title><g id="Layer_1" data-name="Layer 1"><rect class="cls-1" x="-63.52" y="-72" width="2103.63" height="784.35"/></g><g id="_10_FIRES" data-name="10_FIRES"><path class="cls-2" d="M845.51,230.13S435.36,661.86,882.39,698.37l299.24-19.71s155.58-289.28,29.68-357.91L1070.72,523.2l1.41-506.37L917.31,475.15Z"/><path class="cls-3" d="M815.5,348.89s-137.5,323,90.25,349.48l268.18-17.67,31.71-222.4-131.11,83.08-41.16-291.06L937,498.32Z"/><path class="cls-4" d="M898.81,511.33S827,680.1,946,694l140.14-9.23,16.57-116.22-68.51,43.41-21.51-152.09L962.33,589.41Z"/><path class="cls-2" d="M1699.83,353.45S1986.66,655.38,1674,680.92l-209.28-13.79S1356,464.83,1444,416.83l98.32,141.58-1-354.13,108.27,320.53Z"/><path class="cls-3" d="M1720.81,436.51S1817,662.37,1657.7,680.92l-187.55-12.36L1448,513l91.69,58.1,28.79-203.54L1635.81,541Z"/><path class="cls-4" d="M1662.55,550.11s50.25,118-33,127.71l-98-6.45L1520,590.09l47.91,30.36,15-106.36,35.2,90.63Z"/><path class="cls-2" d="M235.2,353.45S-51.63,655.38,261,680.92l209.27-13.79s108.8-202.3,20.76-250.3L392.7,558.41l1-354.13L285.41,524.81Z"/><path class="cls-3" d="M214.21,436.51s-96.16,225.86,63.11,244.41l187.56-12.36L487.05,513l-91.69,58.1L366.58,367.58,299.21,541Z"/><path class="cls-4" d="M272.47,550.11s-50.24,118,33,127.71l98-6.45,11.59-81.28-47.91,30.36L352.09,514.09l-35.2,90.63Z"/><path class="cls-5" d="M490.16,351.57a24.07,24.07,0,0,1-5.75-.19c-.66-.08-.46-.06-1.3-.18l-2-.32c-1.38-.23-2.75-.48-4.13-.74-6.43-1.22-12.84-2.57-19.33-3.46-10.68-1.48-26.19-3.2-33.37,7-2.76,3.91-3.76,9.15-1.43,13.47,2.22,4.11,6.64,6.8,10.75,8.68,11.3,5.2,24.27,7.11,36.59,7.77a86,86,0,0,0,16.52-.49,25.64,25.64,0,0,0,5.48-1.26,46,46,0,0,0,9.3-5.35c15.57-10.59,29.52-26.6,33.65-45.39a45.36,45.36,0,0,0-2.31-27.71c-2.71-6.25-7.84-11.21-13.35-15.05-12.18-8.48-28.73-13-43.45-10a32.89,32.89,0,0,0-9.67,3.59,24.74,24.74,0,0,0-4.24,3,4.8,4.8,0,0,0-1.29,4.08c.37,5.35,5.22,9.19,9.4,11.83a78.05,78.05,0,0,0,18.7,8.11,82.51,82.51,0,0,0,18.65,3.75c7.47.5,14.83-2.47,21.4-5.75a101.28,101.28,0,0,0,24.58-17.55c12.63-12.09,20.14-28.23,24-45.11,3.72-16.13,4.8-34.7-2.62-50a80,80,0,0,0-14-19.46,113.54,113.54,0,0,0-20.52-17.23c-12.93-8.46-32.58-17.24-46.7-6.44a29.35,29.35,0,0,0-8.72,11.2c-1.4,3.1-2.3,6.64-1.06,10,1.16,3.1,3.74,5.28,6.49,7a77.36,77.36,0,0,0,12,5.61,120.91,120.91,0,0,0,90.13-1.31c8.65-3.63,17.27-8.08,24.3-14.4,11.6-10.43,17.64-25.3,19.8-40.5,2.28-16,1-32.27-1.4-48.2-1.08-7.2-2.43-14.36-3.86-21.51-.63-3.15-5.45-1.82-4.82,1.33,3.4,17,6.35,34.16,6.28,51.52-.07,16.67-3,34.55-13.85,47.85C613,167.15,605,172.21,596.4,176.41a116.2,116.2,0,0,1-32.46,10.16,114.69,114.69,0,0,1-66.2-9.13c-3-1.38-7-3.2-8.61-5.89a5.08,5.08,0,0,1-.71-3.58,15.89,15.89,0,0,1,2-5.23c2.43-4.34,5.85-8.13,10.53-10.06a23.4,23.4,0,0,1,12.81-1.11c8.93,1.49,17.25,5.74,24.73,10.71a107.72,107.72,0,0,1,22,19.51C565.86,188,570.68,195,573,202.92c2.69,9.06,2.83,18.74,1.82,28.07a107.23,107.23,0,0,1-7.4,28.87,73.08,73.08,0,0,1-14.39,22.95,96.59,96.59,0,0,1-26.57,19.79,54.88,54.88,0,0,1-14.56,5c-.61.11.45,0-.22,0l-.78.06c-.62,0-1.24,0-1.86,0-1.39,0-2.77-.16-4.14-.32a93.66,93.66,0,0,1-21.27-5.61c-5.87-2.26-12.37-5.12-16.36-9.91A10.92,10.92,0,0,1,466,289.7c-.07-.24-.13-.49-.19-.74-.1-.43,0,.4,0-.18,0-.25,0-.5,0-.75s.07.41,0,.1a1.58,1.58,0,0,1,.1-.48l-.64,1.11c8.08-7.08,20.18-7.36,30.18-5.26,10.77,2.25,21.77,7.4,29,15.9,8.29,9.72,8.22,24.46,4.24,36.06-4.74,13.84-15,25.82-26.62,34.47a84.37,84.37,0,0,1-9.06,5.92c-.56.32-1.14.62-1.71.94-.39.21-.6.26-.24.13-.6.22-1.2.42-1.81.59s-1.38.33-2.07.46c-.42.08-.85.14-1.27.21l-.44.06-.47.06c-2,.22-3.93.34-5.9.4a119.45,119.45,0,0,1-28-2.61,80.2,80.2,0,0,1-13.41-3.93,28.14,28.14,0,0,1-8.79-5.31l-.69-.74c-.13-.14-.25-.3-.37-.45.38.49,0,0-.07-.11-.17-.26-.34-.52-.49-.79s-.47-1-.33-.62c-.11-.31-.21-.61-.29-.93s-.17-1-.1-.38a7.6,7.6,0,0,1-.05-1.07c0-.15,0-.3,0-.45,0-.67-.08.35,0-.17a11.56,11.56,0,0,1,2.14-5.07c.47-.63-.16.18.14-.17.13-.15.26-.31.4-.46a14.35,14.35,0,0,1,1-1,11.76,11.76,0,0,1,2-1.34c3.31-1.81,7.64-2.35,11.65-2.43a85.3,85.3,0,0,1,14.62,1.16c9.19,1.41,18.28,3.95,27.54,4.74a20.4,20.4,0,0,0,4.06,0,2.57,2.57,0,0,0,2.5-2.5,2.52,2.52,0,0,0-2.5-2.5Z"/><path class="cls-5" d="M929,27.84a19.7,19.7,0,0,0-14.82-2.32,18.14,18.14,0,0,0-11.66,9.34c-5.74,11.14-1,25,7.49,33.38,3.82,3.75,8.55,7.26,13.68,9a30.82,30.82,0,0,0,9.87,1.31c3.45,0,7.42-.55,10.08-3a7.09,7.09,0,0,0,.4-9.85c-2.5-2.67-6.72-3.2-10.17-3.32a42.9,42.9,0,0,0-11.62,1.22c-9.64,2.34-14.81,12.3-16.84,21.3a36.59,36.59,0,0,0,.12,17.8A28.13,28.13,0,0,0,913.8,116a58.51,58.51,0,0,0,12.87,8.76c4.12,2.08,8.86,4.08,13.57,3.95A30.52,30.52,0,0,0,953,125.19c3.92-2,7.54-5,7.9-9.69.71-9-10.92-11.09-17.58-11.66-1.6-.14-3.21-.22-4.82-.25a36.6,36.6,0,0,0-9.63,1.53c-2.85.72-5.71,1.11-8.61,1.56a15.64,15.64,0,0,0-6.37,2.34c-4.92,3.34-8.51,8.73-10.81,14.12a42.2,42.2,0,0,0-3.47,17.3c.31,12.54,6.52,24.21,12.37,35,2.52,4.63,5,9.22,8.77,13A35,35,0,0,0,932.3,196c9.79,4.08,21.62,6.2,31.71,2a28.78,28.78,0,0,0,12.24-9.83,14.89,14.89,0,0,0,3.12-9.28c-.37-6.51-5.85-11-11.3-13.68a55.76,55.76,0,0,0-21.34-5.32,40.94,40.94,0,0,0-9.89.53c-4.69.88-9.2,3.17-13.35,5.45a117.91,117.91,0,0,0-14.76,9.78,54.91,54.91,0,0,0-12.42,13.12,40.29,40.29,0,0,0-6.61,16,2.59,2.59,0,0,0,1.75,3.08,2.53,2.53,0,0,0,3.08-1.75c1.56-10.42,8.51-19.76,16.68-26.1a117.3,117.3,0,0,1,13.33-9c4-2.27,8.17-4.52,12.63-5.57.58-.14,1.17-.24,1.75-.34.73-.13-.23,0,.52-.07l1-.1a40.42,40.42,0,0,1,4.4-.13,49.78,49.78,0,0,1,9.24,1,53.88,53.88,0,0,1,9.25,2.7c.44.17,1,.41,1.78.78s1.36.68,2,1.05,1.2.7,1.78,1.08l.78.54.42.31-.1-.08.32.26c.45.39.9.78,1.32,1.2.22.22.44.46.65.69s.16.2.25.29l.23.29c-.18-.24-.22-.29-.11-.14a14.5,14.5,0,0,1,.91,1.44c.08.16.46,1,.19.35a8,8,0,0,1,.29.82,6.45,6.45,0,0,1,.21.84c0,.14.06.28.08.43.07.37,0-.64,0-.06a15.28,15.28,0,0,1,0,1.79c.06-.71-.05.29-.09.45s-.14.57-.23.86-.19.58-.3.87c-.25.65.23-.46-.08.19-.1.2-.19.4-.3.6a22,22,0,0,1-8,8.38,25.64,25.64,0,0,1-13.77,3.51,47.6,47.6,0,0,1-14.1-2.7,34.91,34.91,0,0,1-10.32-5.15,32.73,32.73,0,0,1-8.17-9.69c-2.68-4.63-5.2-9.41-7.54-14.22-4.73-9.75-8.31-20.29-6-31.19A35.37,35.37,0,0,1,911.74,118,20.37,20.37,0,0,1,917,113a14,14,0,0,1,5.41-1.58,77,77,0,0,0,7.8-1.45,31.65,31.65,0,0,1,8.3-1.35c1.52,0,3,.1,4.57.22a35.11,35.11,0,0,1,4.74.65c.82.16,1.64.36,2.45.6q.63.18,1.23.39l.47.18c.54.21-.15-.08.32.13a13.14,13.14,0,0,1,2,1.16c-.39-.28.32.28.42.38s.25.25.37.38c.46.47-.23-.39.13.15a6.19,6.19,0,0,1,.52.9c-.23-.5.07.34.11.5s.08.61,0,.09a3.54,3.54,0,0,1,0,.46c0,.24,0,.48,0,.72,0,.51.09-.22-.06.35-.05.19-.28.88-.22.76s-.31.52-.43.71a4.28,4.28,0,0,1-.55.65,12.3,12.3,0,0,1-1.19,1.09,25.62,25.62,0,0,1-10.23,4.3c-.46.09-.92.18-1.38.24l-.13,0-.75.07a13.86,13.86,0,0,1-2.41,0,26.07,26.07,0,0,1-5.62-1.53,51.94,51.94,0,0,1-11.94-6.7,28.72,28.72,0,0,1-8.73-9.23c-4.63-8.49-3.45-19.6.73-28a24.47,24.47,0,0,1,3.81-5.77,16.27,16.27,0,0,1,2.07-1.91,11.91,11.91,0,0,1,1.43-.91l.6-.32.17-.09a29.19,29.19,0,0,1,3.69-1,31.73,31.73,0,0,1,4.71-.66,36.44,36.44,0,0,1,5.43,0c.39,0,.77.06,1.16.11s-.58-.1.21,0l.48.08a13.57,13.57,0,0,1,2.42.67c-.48-.19.17.09.33.18s1,.64.45.23a5.37,5.37,0,0,1,.64.62c-.52-.59.25.59.11.23s.1.48.12.61c-.09-.53,0,.45,0,.6,0,.46,0,0,0-.09,0,.18-.09.35-.14.53s-.19.39.06-.1l-.26.46c-.26.48.27-.27,0,0-.11.1-.21.21-.31.32-.45.47.22,0-.37.28-.25.14-.5.28-.76.41s.56-.19-.06,0c-.2.07-.39.15-.6.21a14.65,14.65,0,0,1-2.06.48c-.12,0-.63.09-.16,0l-.47.05c-.49,0-1,.08-1.46.1a32.9,32.9,0,0,1-4.76-.18c-.15,0-1.12-.15-.59-.07l-1.08-.17c-.64-.12-1.28-.25-1.91-.42-4-1.06-7.84-3.82-10.92-6.56a29.23,29.23,0,0,1-8.49-12.33c-1.74-5-2.31-10.49-.17-15.42a13.45,13.45,0,0,1,9-8,14.52,14.52,0,0,1,11.12,1.78c2.76,1.66,5.28-2.66,2.52-4.32Z"/><path class="cls-5" d="M1112.51,326.7c8.48-.15,17.25-.8,25-4.52,7.2-3.44,12.56-9.56,17.09-16A155.56,155.56,0,0,0,1162.9,293a84.16,84.16,0,0,0,7.07-15.63c3-9.55,3.46-21.56-3.69-29.49-4.29-4.76-11-7.16-17.19-8.15-6.47-1-13.42-.93-19.51,1.72a14.3,14.3,0,0,0-6.38,5.17,11.7,11.7,0,0,0-1.43,8.5,11.41,11.41,0,0,0,4.74,7.7,32.92,32.92,0,0,0,9.72,4.23,124.28,124.28,0,0,0,22.48,4.22c9.15,1,18.51.47,26.93-3.54,9.32-4.45,16.46-12.65,21.38-21.56a75,75,0,0,0,9.23-30.26,48.06,48.06,0,0,0-1-14.65,52.42,52.42,0,0,0-4.14-10.85,97.15,97.15,0,0,0-15.68-23.13,52.36,52.36,0,0,0-9.76-8.5,24.66,24.66,0,0,0-11.2-3.9c-6.77-.69-14,2-16.87,8.57-2.72,6.2-.95,13.31,3.57,18.18a22.8,22.8,0,0,0,10.06,6.06,41.7,41.7,0,0,0,14.38,1.84c8.16-.45,15.25-4,21.16-9.55,5.75-5.36,10.29-11.86,15.48-17.74a73.28,73.28,0,0,1,8.68-8.49,2.53,2.53,0,0,0,0-3.54,2.57,2.57,0,0,0-3.54,0c-6.06,4.94-10.9,11.07-15.85,17.08-4.43,5.39-9,10.8-15,14.09a25.8,25.8,0,0,1-9.49,3,38,38,0,0,1-13.08-1.13,17.12,17.12,0,0,1-10.14-6.14c.28.35-.33-.47-.4-.58-.22-.34-.43-.68-.63-1s-.31-.57-.45-.86-.15-.32-.22-.48c-.17-.38.19.55,0-.09a17.23,17.23,0,0,1-.61-2c-.07-.33-.13-.67-.19-1,.11.65,0-.39,0-.53a13,13,0,0,1,0-2c0-.16,0-.32.05-.48,0-.4-.12.61,0,0,.06-.32.11-.63.19-.95s.15-.55.24-.83.45-1.14.19-.56a12.32,12.32,0,0,1,.86-1.6c.15-.24.32-.48.49-.71-.37.49.36-.4.49-.53s.46-.46.71-.68c.09-.09.2-.17.3-.26.49-.41-.28.2.05,0a14.56,14.56,0,0,1,1.86-1.12l.38-.18c-.46.21,0,0,.11,0,.31-.12.63-.23,1-.33s.74-.2,1.12-.28l.58-.12a1.44,1.44,0,0,1,.43-.06,20.26,20.26,0,0,1,5,.12,24,24,0,0,1,2.65.57c.37.11.74.23,1.1.36l.44.17a2.19,2.19,0,0,1,.41.18,30.55,30.55,0,0,1,4.41,2.6c6.57,4.67,12.14,11.81,16.61,18.7a95,95,0,0,1,6.22,11,44.75,44.75,0,0,1,3.36,9.18c2.08,9.12.58,19-2.2,27.75s-7.09,17.38-13.41,24.08a40.2,40.2,0,0,1-11.46,8.64,35.24,35.24,0,0,1-12.75,3.32,65.33,65.33,0,0,1-11.7-.28c-.61-.06-1.23-.13-1.84-.21l-1.08-.13-.45-.06c-.46-.06.23,0-.39,0-1.68-.23-3.36-.49-5-.77a114.49,114.49,0,0,1-11.28-2.46,33.24,33.24,0,0,1-9-3.56l-.77-.5-.39-.28c.43.33.15.11.07,0s-.45-.39-.65-.6l-.29-.31c-.43-.43.19.33,0-.06l-.34-.59c-.17-.3.25.66,0,0,0-.15-.11-.3-.16-.44a14.85,14.85,0,0,1-.63-2.19l-.09-.49c.1.55,0,.21,0,.08,0-.31,0-.62-.06-.94s0-.59,0-.89c0-.12,0-.24,0-.35-.07.72,0,.07,0-.1s.11-.48.18-.72.39-1,.09-.33a10.82,10.82,0,0,1,.79-1.41c.35-.58-.27.22.21-.27.19-.2.36-.41.56-.6s.42-.38.63-.57c.47-.41-.22.11.32-.24s1-.65,1.53-.93l.76-.37.43-.19c-.59.25,0,0,.12,0a26.51,26.51,0,0,1,3.92-1.1l1.06-.19.43-.07c-.53.08,0,0,.1,0,.78-.08,1.56-.15,2.34-.19a39.56,39.56,0,0,1,4.62,0c.7,0,1.4.12,2.1.2s-.5-.07.27,0l.47.07,1.27.21a38.78,38.78,0,0,1,4.52,1.13c.68.22,1.36.46,2,.72l.42.16c.69.28-.45-.2.22.1l1,.46a24,24,0,0,1,3.62,2.15s.53.41.23.17.21.18.22.18l.74.65c.47.44.9.91,1.32,1.39s-.1-.19.29.39c.21.32.42.64.62,1a19.65,19.65,0,0,1,1.61,3.33,23.38,23.38,0,0,1,1.43,7.16c.38,10.21-4.52,20-9.54,28.61-4.29,7.36-8.87,14.92-15.23,20.67a30.24,30.24,0,0,1-7.86,5.16l-.57.25c.35-.15,0,0-.09,0q-.58.24-1.17.45c-.84.31-1.7.58-2.56.82a46,46,0,0,1-5.21,1.13,91.13,91.13,0,0,1-12.33.89c-3.21.06-3.22,5.06,0,5Z"/><path class="cls-5" d="M1497,429.21c3.62-3.75,5.42-8.86,6.33-13.9a74.54,74.54,0,0,0,.85-17.4,91.9,91.9,0,0,0-2.07-16.11,59.79,59.79,0,0,0-7.67-17.9c-7.09-11.28-17.21-20.56-28.41-27.66-5.8-3.68-12.06-7.05-18.92-8.15s-13.8,0-20.38,2.34c-4.72,1.65-9.83,3.34-14.14,5.9s-7.64,6.57-7.1,11.79c.45,4.36,2.76,8.45,7.21,9.64,4.06,1.09,8.52-.15,12.32-1.64a79.55,79.55,0,0,0,12.25-6.29,77.39,77.39,0,0,0,11-7.7,46.05,46.05,0,0,0,15.29-32.07,54.75,54.75,0,0,0-2.36-18.86c-1.88-6.2-4-12.37-6-18.53a110.27,110.27,0,0,0-7.36-18.39,56.7,56.7,0,0,0-11.95-15A55.55,55.55,0,0,0,1401,224.85c-10.31-.43-21.24-1.66-31.28,1.4a24,24,0,0,0-12.61,8.48c-.74,1-1.9,2.42-1.89,3.71,0,1.44,1.19,3.2,1.88,4.43a41.1,41.1,0,0,0,5.42,7.43,40.18,40.18,0,0,0,15.32,10.75,22,22,0,0,0,16.37-.14c10.14-4.08,17.14-13.14,22.27-22.45a139.91,139.91,0,0,0,7.09-15.33,160.92,160.92,0,0,0,5.71-15.46c4-13.88,1.52-28.13-4.35-41.08a123.34,123.34,0,0,0-10.71-18.53,187.32,187.32,0,0,0-13-17.18,93.73,93.73,0,0,0-28.12-21.82c-11.53-5.89-23.78-10-36.06-14-6.21-2-12.59-4.28-17.8-8.32a2.59,2.59,0,0,0-3.54,0,2.53,2.53,0,0,0,0,3.54c8,6.19,17.78,8.86,27.28,11.9a189.83,189.83,0,0,1,25.92,10.32,91.22,91.22,0,0,1,21,13.89c7.38,6.66,13.41,14.6,19.08,22.72,11.68,16.73,21.56,36.71,15.47,57.48-1.13,3.83-2.67,7.57-4.1,11.29s-2.84,7.17-4.44,10.67c-3.32,7.24-7.25,14.46-12.81,20.23-4.81,5-11.8,9.68-19.08,8.7-8.41-1.13-16.15-7.65-20.82-14.42a29.65,29.65,0,0,1-3-5.32l-.25,1.92c5.86-10.75,20.15-10.66,30.81-10.29,6.2.21,12.57.17,18.64,1.5a50.78,50.78,0,0,1,19.23,8.79,52.73,52.73,0,0,1,14.28,15.83c3.68,6.4,6,13.51,8.23,20.52,1.15,3.61,2.24,7.24,3.43,10.85a101.77,101.77,0,0,1,3,10.09,46.54,46.54,0,0,1,0,20.41,40.07,40.07,0,0,1-9.09,17.58c-3.71,4.12-8.2,7.15-12.87,10a69.77,69.77,0,0,1-13,6.7,20,20,0,0,1-6.44,1.42,6,6,0,0,1-2.3-.28,4.13,4.13,0,0,1-1.72-1.05,7.58,7.58,0,0,1-1.59-5.67c.34-2.21,2.06-3.84,3.85-5a36.15,36.15,0,0,1,7-3.34c3.16-1.2,6.3-2.5,9.55-3.47,7.44-2.21,14.86-2.28,22.14.6,6.93,2.74,13.51,7.25,19.28,11.91,11.39,9.22,21.28,21.33,24.86,35.79a84.94,84.94,0,0,1,2.13,18c.17,6.26-.1,12.74-2.14,18.71a17,17,0,0,1-3.69,6.36c-2.24,2.32,1.3,5.86,3.53,3.54Z"/></g></svg>