<?xml version="1.0" encoding="utf-8"?>
<!-- Generator: Adobe Illustrator 23.1.1, SVG Export Plug-In . SVG Version: 6.00 Build 0)  -->
<svg version="1.1" id="Layer_1" xmlns="http://www.w3.org/2000/svg" xmlns:xlink="http://www.w3.org/1999/xlink" x="0px" y="0px"
	 viewBox="0 0 1966 648" style="enable-background:new 0 0 1966 648;" xml:space="preserve">
<style type="text/css">
	.st0{fill:#DF1C4D;}
	.st1{clip-path:url(#SVGID_2_);}
	.st2{fill:#010101;}
	.st3{fill:#FDB615;}
</style>
<title>ESV2_</title>
<g>
	<rect x="-67.5" y="-66.4" class="st0" width="2103.6" height="784.3"/>
</g>
<g id="_08_CAUGHT_IN_CRACK">
	<g>
		<defs>
			<rect id="SVGID_1_" x="-68.5" y="-68.8" width="2103.6" height="784.3"/>
		</defs>
		<clipPath id="SVGID_2_">
			<use xlink:href="#SVGID_1_"  style="overflow:visible;"/>
		</clipPath>
		<g class="st1">
			<path class="st2" d="M1453.6,253L882.2,64.6l619-246l-11.8,1.6L709.1,59.8l497.4,187.6c0,0-182.4,95-1078.6,526h493.4
				l379.2-237.1l293,237.1h371.7l-567.6-297.8L1453.6,253z"/>
			<path class="st3" d="M766.4,470.2c-15.4,5.3-46.3-2.1-60-6.6c-16.3-5.4-32-14.6-42-29.1c-5.3-7.7-11.4-19.6-7.7-28.9
				c5.4-13.4,20.9-13,32.6-13.3c13.4-0.4,12.9-21.4-0.6-21c-30.5,0.9-60.7,13.9-52.5,50.5c5.2,22.9,22,40.3,42.2,51.7
				c-11.5,2.2-29.1-1-36.1-3.2c-15-4.8-26.9-15.6-26.7-32c0.2-13.5-20.8-14-21-0.6c-0.3,23,15.6,42.1,36.8,50.6
				c14.4,5.8,38.2,10,55.7,5.1c-12.4,19.8-29.8,37.6-56.7,29.1c-13.1-4.1-18.1,16-5,20.1c18.9,6,37.6,2.1,53.5-8.2
				c14.5-9.4,22.3-21.3,30-35.4c24,2.2,64.4-3.2,64.4-3.2c12.6-3.9,26.4-19.1,28.8-34.7c5.4-35.2-22.8-64.1-56.6-67.6
				c-13.5-1.4-12.8,19.6,0.6,21c12.2,1.3,23.3,6.9,30.1,17.8c6.1,10.1,7.3,21.3,3.5,33.7"/>
			<polygon class="st3" points="757.7,498.2 761.8,679.8 719.8,709.7 727.9,497.9 			"/>
			<path class="st3" d="M1005.7,296.8c15.4,5.3,46.3-2.1,60-6.6c16.3-5.4,32-14.6,42-29.1c5.4-7.7,11.4-19.6,7.7-28.9
				c-5.4-13.4-20.9-13-32.6-13.3c-13.4-0.4-12.9-21.4,0.6-21c30.5,0.9,60.7,13.9,52.4,50.5c-5.2,22.9-22,40.3-42.2,51.7
				c11.6,2.2,29.2-1,36.1-3.2c15-4.8,26.9-15.6,26.7-32c-0.2-13.5,20.8-14,21-0.6c0.3,23-15.6,42.1-36.8,50.6
				c-14.4,5.8-38.2,10-55.7,5.1c12.4,19.8,29.8,37.6,56.7,29.1c13.1-4.1,18.1,16,5,20.1c-18.9,6-37.6,2.1-53.5-8.2
				c-14.5-9.4-22.3-21.3-30-35.4c-24,2.1-64.4-3.3-64.4-3.3c-12.6-3.9-26.4-19.1-28.8-34.7c-5.4-35.2,22.8-64.1,56.6-67.6
				c13.5-1.4,12.8,19.6-0.6,21c-12.2,1.3-23.3,6.9-30.1,17.8c-6.1,10.1-7.3,21.3-3.5,33.7"/>
			<polygon class="st3" points="1014.4,324.7 1010.3,542.4 1052.3,575.2 1044.2,324.4 			"/>
		</g>
	</g>
</g>
</svg>
