<?xml version="1.0" encoding="utf-8"?>
<!-- Generator: Adobe Illustrator 23.1.1, SVG Export Plug-In . SVG Version: 6.00 Build 0)  -->
<svg version="1.1" id="Layer_1" xmlns="http://www.w3.org/2000/svg" xmlns:xlink="http://www.w3.org/1999/xlink" x="0px" y="0px"
	 viewBox="0 0 1966 648" style="enable-background:new 0 0 1966 648;" xml:space="preserve">
<style type="text/css">
	.st0{fill:#5E54A4;}
	.st1{clip-path:url(#SVGID_2_);}
	.st2{fill:#010101;}
	.st3{fill:#FDB615;}
	.st4{fill:#00B6CF;}
	.st5{fill:#FFFFFF;}
</style>
<title>ESV2_</title>
<g>
	<rect x="-63.5" y="-73.5" class="st0" width="2103.6" height="784.3"/>
</g>
<g id="_07_CHILLY">
	<g>
		<defs>
			<rect id="SVGID_1_" x="-68.8" y="-71.5" width="2103.6" height="783.3"/>
		</defs>
		<clipPath id="SVGID_2_">
			<use xlink:href="#SVGID_1_"  style="overflow:visible;"/>
		</clipPath>
		<g class="st1">
			<path class="st2" d="M1191,229.3c-0.3,0.7-0.8,1.4-1.3,2c-0.8,0.7-4.1,1.6-8.9,1.6"/>
			<path class="st3" d="M1009.7,180.7c-43.2,52.1-82.5,96.5-117,132.4c-43.1,44.6-76.7,74.3-107.2,95.1V634l0,0
				c0,2.6,0.2,5.2,0.6,7.8c0,0.5,0,0.9,0,1.4v0l26.5,353.9l-125.7,340.1c-18.1,48.4,6.4,102.3,54.7,120.4
				c48.4,18.1,102.3-6.4,120.4-54.7c0.1-0.3,0.2-0.5,0.3-0.8l132.8-359.2c4.7-12.6,6.6-26,5.5-39.4l-23.3-311.5h21l-3,40.3
				l20.3,270.1c1.2,15.5-1,31.2-6.4,45.8l-13.4,36.1l117.6,317.9c18.1,48.4,72.1,72.9,120.4,54.7c48.1-18,72.6-71.4,55-119.6
				l-125.8-340.1l26.6-353.9c0-0.5,0-1,0-1.5c0.4-2.5,0.6-5.1,0.6-7.6v-77.3c-5,0.2-9.9,0.3-14.7,0.3h-0.1
				c-26.6-0.1-55.3-2.2-85.7-4.5c-34.9-2.6-71-5.2-108.1-5.2H980c-34.4,0-64.5,2.2-92,6.8c-40.8,6.8-79.3-20.7-86.1-61.4
				s20.7-79.3,61.4-86.1c35.7-6,74-8.9,117-8.9c46,0.1,88.6,3.2,126,6c26.4,1.9,49.3,3.6,66.8,3.7v-1.9
				c0.1-48.5-4.8-105.2-11.3-159.5c3.2,0.5,6.5,0.9,9.6,1.3c9.4,35.3,16.8,86.2,16.7,158.3c0,5.4,0,10.9-0.1,16.5
				c-3.7,0.2-7.9,0.3-12.5,0.3c-42.3,0.3-115-9.5-195.2-9.7c-36.6,0-75.3,2.1-114.6,8.7c-32.6,5.2-54.9,35.9-49.7,68.6
				c5.2,32.6,35.9,54.9,68.6,49.7c0.3,0,0.6-0.1,0.8-0.1c30.7-5.1,62.9-7,94.8-7c70.8-0.1,138.6,9.4,195.2,9.7
				c18.9-0.1,36.9-1,56-5.6c18.5-4.6,41.6-14.1,58.7-37.2c11.1-15.1,16.6-34.1,16.9-50.6c0.5-15,0.7-29.3,0.7-43.1
				c-0.1-113.6-15.7-190-40.1-244.4c-24-54.2-59.8-85.9-90.9-99.3c-7.8-3.5-16-6.2-24.4-8c-9.5-9.3-20.1-19.5-31.7-29.7
				c23-29.5,35.5-65.9,35.5-103.3c0-93-75.4-168.4-168.4-168.4c0,0,0,0,0,0c-93,0-168.4,75.4-168.4,168.4c0,0,0,0,0,0
				c0,61.9,33.9,118.7,88.3,148.2c10.9-13.2,22-27,33.3-41.1c-0.1-0.9-0.2-1.8-0.2-2.7c0.1-9.2,4.4-11,20.5-22.2
				c62.2-21.2,131.2-14.5,122.8,92.1"/>
			<path class="st4" d="M676.8,570.8h0.5c3.4,0,6.8-0.2,10.2-0.7c4.1-0.4,7.1-4.1,6.6-8.2c-0.4-4.1-4.1-7.1-8.2-6.6
				c-0.1,0-0.2,0-0.3,0c-2.8,0.4-5.6,0.5-8.4,0.5c-18.5-0.2-26.8-8.3-32.3-17c-2.2-3.8-3.9-8-5-12.3c-0.4-1.7-0.8-3.5-1-5.3
				c-0.3-4.1-4-7.2-8.1-6.8s-7.2,4-6.8,8.1l0,0c1,8.4,3.7,16.6,8,23.9C639,558.3,653.3,570.8,676.8,570.8z"/>
			<path class="st4" d="M668.8,605.7c6.6,0,13.1-0.6,19.6-1.7c4.1-0.7,6.8-4.5,6.2-8.6s-4.5-6.8-8.6-6.2c-5.7,1-11.4,1.5-17.1,1.5
				c-28.2-0.2-42.8-13.1-51.8-26.6c-5.3-8.2-9-17.3-10.7-26.9c-0.6-4.1-4.3-7-8.4-6.4c-4.1,0.6-7,4.3-6.4,8.4l0,0
				c2.1,11.8,6.5,23,13,33c10.5,16.5,30.8,33.4,63.9,33.4L668.8,605.7z"/>
			<path class="st4" d="M1224.9,606.5c0.2,0,0.4,0,0.6,0c23.4,0,37.7-12.5,44.6-24.4c4.3-7.3,7-15.5,8-23.9c0.3-4.1-2.7-7.7-6.8-8.1
				c-4.1-0.3-7.7,2.7-8.1,6.8c-0.2,1.8-0.5,3.5-1,5.2c-3.1,10.5-10.1,29.2-37.2,29.3c-2.8,0-5.6-0.2-8.3-0.5
				c-4.1-0.5-7.8,2.4-8.3,6.5c-0.5,4.1,2.4,7.8,6.5,8.3C1218,606.3,1221.5,606.5,1224.9,606.5z"/>
			<path class="st4" d="M1213.8,639.7c6.5,1.1,13,1.7,19.6,1.7h0.5c33.1,0,53.3-16.9,63.8-33.4c6.5-10,10.9-21.2,13-33
				c0.4-4.1-2.5-7.8-6.6-8.2c-3.9-0.4-7.5,2.3-8.2,6.2c-0.5,2.8-1.1,5.5-2,8.2c-5.2,15.8-18.6,45.2-60.5,45.3
				c-5.7,0-11.5-0.5-17.1-1.5c-4.1-0.7-7.9,2.1-8.6,6.2C1207,635.3,1209.7,639.1,1213.8,639.7L1213.8,639.7L1213.8,639.7z"/>
			<path class="st3" d="M881.9,302.6c46.1-47.8,101.9-112.1,169.9-197.4c20.6-25.9,16.3-63.5-9.6-84.1
				c-25.9-20.6-63.5-16.3-84.1,9.5c-88.3,111-154.6,183.8-200.9,227c-3.3,3.1-6.5,6-9.6,8.8l-0.6-19.7
				c40.2-37.4,91.8-94.2,151.2-166c-14.9-8.4-28.5-18.8-40.5-30.9c-7.1-2.9-14.7-4.4-22.4-4.4l0,0c-20.6,0.1-38.5,6-53.7,13.7
				c-26.5,13.8-46.8,33-65.5,54.6c-27.8,32.5-51.1,71-68.8,109.4c-8.6,18.4-15.8,37.5-21.5,57c-5.3,18.8-9,36.9-9.2,56.7
				c0.1,12.6,1.4,26.3,8.2,42.1c6.4,15.6,21.9,33.6,42.2,41.3h0h0.1l0,0c0.6,0.2,1.1,0.4,1.7,0.6c1.4,0.5,2.7,1,4.1,1.4
				c7.9,2.5,16.2,3.8,24.5,3.8c21.8-0.6,38.4-6.6,54.5-15.1c5.3-2.8,10.5-5.8,15.9-9C799.9,381.6,835.7,350.4,881.9,302.6z"/>
			<polygon class="st5" points="627.5,710.1 641.7,718.3 644.7,713.2 630.4,704.9 649.9,699.7 648.4,694 623.1,700.7 597.4,685.9 
				623.1,671.1 648.4,677.8 649.9,672 630.4,666.8 644.7,658.6 641.7,653.5 627.5,661.7 632.7,642.2 626.9,640.7 620.1,665.9 
				594.5,680.7 594.5,651.1 612.9,632.6 608.7,628.4 594.5,642.6 594.5,626.2 588.5,626.2 588.5,642.6 574.2,628.4 570,632.6 
				588.5,651.1 588.5,680.7 562.8,665.9 556,640.7 550.3,642.2 555.5,661.7 541.2,653.5 538.3,658.6 552.5,666.8 533,672.1 
				534.6,677.8 559.8,671.1 585.5,685.9 559.8,700.7 534.6,694 533,699.7 552.5,704.9 538.3,713.2 541.2,718.3 555.5,710.1 
				550.3,729.6 556,731.1 562.8,705.9 588.5,691.1 588.5,720.7 570,739.2 574.2,743.4 588.5,729.2 588.5,745.6 594.5,745.6 
				594.5,729.2 608.7,743.4 612.9,739.2 594.5,720.7 594.5,691.1 620.1,705.9 626.9,731.1 632.7,729.6 			"/>
			<polygon class="st5" points="1418.6,532.8 1432.8,541 1435.8,535.8 1421.5,527.6 1441,522.4 1439.5,516.6 1414.2,523.4 
				1388.5,508.5 1414.2,493.7 1439.5,500.5 1441,494.7 1421.5,489.5 1435.8,481.3 1432.8,476.1 1418.6,484.3 1423.8,464.8 
				1418,463.3 1411.2,488.5 1385.6,503.4 1385.6,473.7 1404,455.2 1399.8,451 1385.6,465.3 1385.6,448.8 1379.6,448.8 1379.6,465.3 
				1365.3,451 1361.1,455.2 1379.6,473.7 1379.6,503.4 1353.9,488.5 1347.1,463.3 1341.4,464.8 1346.6,484.3 1332.4,476.1 
				1329.4,481.3 1343.6,489.5 1324.1,494.7 1325.7,500.5 1350.9,493.7 1376.6,508.5 1350.9,523.4 1325.7,516.6 1324.1,522.4 
				1343.6,527.6 1329.4,535.8 1332.3,541 1346.6,532.8 1341.4,552.2 1347.1,553.8 1353.9,528.5 1379.6,513.7 1379.6,543.4 
				1361.1,561.8 1365.3,566.1 1379.6,551.8 1379.6,568.2 1385.6,568.2 1385.6,551.8 1399.8,566.1 1404,561.8 1385.6,543.4 
				1385.6,513.7 1411.2,528.5 1418,553.8 1423.8,552.2 			"/>
			<polygon class="st5" points="496.3,437.7 510.6,445.9 513.5,440.8 499.3,432.5 518.8,427.3 517.2,421.5 492,428.3 466.3,413.5 
				492,398.6 517.2,405.4 518.8,399.6 499.3,394.4 513.5,386.2 510.6,381 496.3,389.3 501.5,369.8 495.8,368.2 489,393.5 
				463.3,408.3 463.3,378.7 481.8,360.2 477.6,356 463.3,370.2 463.3,353.8 457.4,353.8 457.4,370.2 443.1,356 438.9,360.2 
				457.4,378.7 457.4,408.3 431.7,393.5 424.9,368.2 419.1,369.8 424.4,389.3 410.1,381 407.1,386.2 421.4,394.4 401.9,399.6 
				403.5,405.4 428.7,398.6 454.4,413.5 428.7,428.3 403.5,421.5 401.9,427.3 421.4,432.5 407.1,440.8 410.1,445.9 424.4,437.7 
				419.1,457.2 424.9,458.7 431.7,433.5 457.4,418.6 457.4,448.3 438.9,466.8 443.1,471 457.4,456.8 457.4,473.2 463.3,473.2 
				463.3,456.8 477.6,471 481.8,466.8 463.3,448.3 463.3,418.6 489,433.5 495.8,458.7 501.5,457.2 			"/>
			<polygon class="st5" points="329.6,574.4 343.9,582.6 346.9,577.4 332.6,569.2 352.1,564 350.5,558.2 325.3,565 299.6,550.1 
				325.3,535.3 350.5,542.1 352.1,536.3 332.6,531.1 346.9,522.9 343.9,517.7 329.6,525.9 334.9,506.5 329.1,504.9 322.3,530.1 
				296.6,545 296.6,515.3 315.1,496.8 310.9,492.6 296.6,506.9 296.6,490.4 290.7,490.4 290.7,506.9 276.4,492.6 272.2,496.8 
				290.7,515.3 290.7,545 265,530.1 258.2,504.9 252.5,506.5 257.7,525.9 243.4,517.7 240.5,522.9 254.7,531.1 235.2,536.3 
				236.8,542.1 262,535.3 287.7,550.1 262,565 236.8,558.2 235.2,564 254.7,569.2 240.5,577.4 243.4,582.6 257.7,574.4 252.5,593.8 
				258.2,595.4 265,570.1 290.7,555.3 290.7,585 272.2,603.4 276.4,607.7 290.7,593.4 290.7,609.8 296.6,609.8 296.6,593.4 
				310.9,607.7 315.1,603.4 296.6,585 296.6,555.3 322.3,570.1 329.1,595.4 334.9,593.8 			"/>
			<polygon class="st5" points="1418.6,316.8 1432.8,325 1435.8,319.9 1421.5,311.6 1441,306.4 1439.5,300.6 1414.2,307.4 
				1388.5,292.6 1414.2,277.8 1439.5,284.5 1441,278.8 1421.5,273.5 1435.8,265.3 1432.8,260.1 1418.6,268.4 1423.8,248.9 
				1418,247.4 1411.2,272.6 1385.6,287.4 1385.6,257.8 1404,239.3 1399.8,235.1 1385.6,249.3 1385.6,232.9 1379.6,232.9 
				1379.6,249.3 1365.3,235.1 1361.1,239.3 1379.6,257.8 1379.6,287.4 1353.9,272.6 1347.1,247.4 1341.4,248.9 1346.6,268.4 
				1332.4,260.1 1329.4,265.3 1343.6,273.5 1324.1,278.8 1325.7,284.5 1350.9,277.8 1376.6,292.6 1350.9,307.4 1325.7,300.6 
				1324.1,306.4 1343.6,311.6 1329.4,319.9 1332.3,325 1346.6,316.8 1341.4,336.3 1347.1,337.8 1353.9,312.6 1379.6,297.8 
				1379.6,327.4 1361.1,345.9 1365.3,350.1 1379.6,335.9 1379.6,352.3 1385.6,352.3 1385.6,335.9 1399.8,350.1 1404,345.9 
				1385.6,327.4 1385.6,297.8 1411.2,312.6 1418,337.8 1423.8,336.3 			"/>
			<polygon class="st5" points="1663.5,414.2 1677.7,422.4 1680.7,417.3 1666.4,409 1685.9,403.8 1684.4,398.1 1659.1,404.8 
				1633.4,390 1659.1,375.2 1684.4,381.9 1685.9,376.2 1666.4,371 1680.7,362.7 1677.7,357.6 1663.4,365.8 1668.7,346.3 
				1662.9,344.8 1656.1,370 1630.5,384.8 1630.5,355.2 1648.9,336.7 1644.7,332.5 1630.5,346.7 1630.5,330.3 1624.5,330.3 
				1624.5,346.7 1610.2,332.5 1606,336.7 1624.5,355.2 1624.5,384.8 1598.8,370 1592,344.8 1586.3,346.3 1591.5,365.8 1577.3,357.6 
				1574.3,362.7 1588.5,371 1569,376.2 1570.6,381.9 1595.8,375.2 1621.5,390 1595.8,404.8 1570.6,398.1 1569,403.8 1588.5,409 
				1574.3,417.3 1577.2,422.4 1591.5,414.2 1586.3,433.7 1592,435.2 1598.8,410 1624.5,395.2 1624.5,424.8 1606,443.3 1610.2,447.5 
				1624.5,433.3 1624.5,449.7 1630.5,449.7 1630.5,433.3 1644.7,447.5 1648.9,443.3 1630.5,424.8 1630.5,395.2 1656.1,410 
				1662.9,435.2 1668.7,433.7 			"/>
			<polygon class="st5" points="103.2,414.2 117.4,422.4 120.4,417.3 106.1,409 125.6,403.8 124.1,398.1 98.8,404.8 73.1,390 
				98.8,375.2 124.1,381.9 125.6,376.2 106.1,371 120.4,362.7 117.4,357.6 103.1,365.8 108.4,346.3 102.6,344.8 95.8,370 
				70.2,384.8 70.2,355.2 88.6,336.7 84.4,332.5 70.2,346.7 70.2,330.3 64.2,330.3 64.2,346.7 49.9,332.5 45.7,336.7 64.2,355.2 
				64.2,384.8 38.5,370 31.7,344.8 26,346.3 31.2,365.8 17,357.6 14,362.7 28.2,371 8.7,376.2 10.3,381.9 35.5,375.2 61.2,390 
				35.5,404.8 10.3,398.1 8.7,403.8 28.2,409 14,417.3 17,422.4 31.2,414.2 26,433.7 31.7,435.2 38.5,410 64.2,395.2 64.2,424.8 
				45.7,443.3 49.9,447.5 64.2,433.3 64.2,449.7 70.2,449.7 70.2,433.3 84.4,447.5 88.6,443.3 70.2,424.8 70.2,395.2 95.8,410 
				102.6,435.2 108.4,433.7 			"/>
			<polygon class="st5" points="512.2,264.9 502,277.8 506.6,281.5 516.8,268.6 519.2,288.7 525.1,288 522.1,262 540.5,238.8 
				551.4,266.4 541,290.3 546.5,292.7 554.5,274.2 560.6,289.5 566.1,287.3 560.1,272 578.6,280 581,274.6 557,264.2 546.1,236.6 
				575.4,240.9 591,261.9 595.8,258.4 583.8,242.2 600,244.6 600.9,238.7 584.6,236.3 600.8,224.2 597.3,219.5 576.3,235 547,230.7 
				565.4,207.4 591.3,204.5 590.7,198.5 570.6,200.8 580.8,188 576.2,184.2 566,197.1 563.6,177.1 557.7,177.8 560.7,203.7 
				542.3,227 531.4,199.4 541.8,175.4 536.3,173.1 528.2,191.6 522.2,176.3 516.7,178.5 522.7,193.7 504.2,185.7 501.8,191.2 
				525.8,201.6 536.7,229.2 507.4,224.8 491.8,203.9 487,207.4 499,223.6 482.8,221.2 481.9,227.1 498.2,229.5 482,241.5 
				485.5,246.3 506.5,230.7 535.8,235.1 517.4,258.3 491.5,261.3 492.1,267.2 			"/>
			<polygon class="st5" points="1901.9,264.9 1891.7,277.8 1896.3,281.5 1906.6,268.6 1908.9,288.7 1914.8,288 1911.8,262 
				1930.2,238.8 1941.1,266.4 1930.8,290.3 1936.2,292.7 1944.2,274.2 1950.3,289.5 1955.8,287.3 1949.8,272 1968.3,280 
				1970.7,274.6 1946.7,264.2 1935.8,236.6 1965.1,240.9 1980.7,261.9 1985.5,258.4 1973.5,242.2 1989.7,244.6 1990.6,238.7 
				1974.3,236.3 1990.5,224.2 1987,219.5 1966,235 1936.7,230.7 1955.1,207.4 1981,204.5 1980.3,198.5 1960.3,200.8 1970.5,188 
				1965.9,184.2 1955.7,197.1 1953.3,177.1 1947.4,177.8 1950.4,203.7 1932,227 1921.1,199.4 1931.4,175.4 1926,173.1 1917.9,191.6 
				1911.9,176.3 1906.4,178.5 1912.4,193.7 1893.9,185.7 1891.5,191.2 1915.5,201.6 1926.4,229.2 1897.1,224.8 1881.5,203.9 
				1876.7,207.4 1888.7,223.6 1872.5,221.2 1871.6,227.1 1887.9,229.5 1871.7,241.5 1875.2,246.3 1896.2,230.7 1925.6,235.1 
				1907.1,258.3 1881.2,261.3 1881.8,267.2 			"/>
			<path class="st4" d="M1241.5,55.2h-0.5c-3.4,0-6.8,0.2-10.2,0.7c-4.1,0.4-7.1,4.1-6.6,8.2c0.4,4.1,4.1,7.1,8.2,6.6
				c0.1,0,0.2,0,0.3,0c2.8-0.3,5.6-0.5,8.4-0.5c18.5,0.2,26.8,8.3,32.3,17c2.2,3.8,3.9,8,5,12.3c0.4,1.7,0.8,3.5,1,5.2
				c0.3,4.1,4,7.2,8.1,6.8c4.1-0.3,7.2-4,6.8-8.1l0,0c-1-8.4-3.7-16.6-8-23.9C1279.3,67.7,1264.9,55.2,1241.5,55.2z"/>
			<path class="st4" d="M1249.4,20.4c-6.6,0-13.1,0.6-19.6,1.7c-4.1,0.7-6.8,4.5-6.2,8.6c0.7,4.1,4.5,6.8,8.6,6.2
				c5.7-1,11.4-1.5,17.1-1.5c28.2,0.2,42.8,13.1,51.8,26.6c3.8,5.8,6.7,12.1,8.7,18.8c0.8,2.7,1.5,5.4,2,8.2c0.6,4.1,4.3,7,8.4,6.4
				s7-4.3,6.4-8.4l0,0c-2.1-11.8-6.5-23-13-33c-10.5-16.5-30.8-33.4-63.9-33.4L1249.4,20.4z"/>
			<path class="st4" d="M679.5,55.2h0.5c3.4,0,6.8,0.2,10.2,0.7c4.1,0.6,6.9,4.4,6.3,8.5c-0.6,4-4.2,6.8-8.2,6.4
				c-2.8-0.3-5.6-0.5-8.4-0.5c-18.5,0.2-26.8,8.3-32.3,17c-2.2,3.8-3.9,8-5,12.3c-0.4,1.7-0.8,3.5-1,5.2c-0.3,4.1-4,7.2-8.1,6.8
				s-7.2-4-6.8-8.1l0,0l0,0c1-8.4,3.7-16.6,8-23.9C641.7,67.7,656.1,55.2,679.5,55.2z"/>
			<path class="st4" d="M671.6,20.4c6.6,0,13.1,0.6,19.6,1.7c4.1,0.7,6.8,4.5,6.2,8.6s-4.5,6.8-8.6,6.2c-5.7-1-11.4-1.5-17.1-1.5
				c-28.2,0.2-42.8,13.1-51.8,26.6c-3.8,5.8-6.7,12.1-8.7,18.8c-0.8,2.7-1.5,5.4-2,8.2c-0.6,4.1-4.3,7-8.4,6.4
				c-4.1-0.6-7-4.3-6.4-8.4l0,0l0,0c2.1-11.8,6.5-23,13-33c10.5-16.5,30.7-33.4,63.8-33.4H671.6z"/>
		</g>
	</g>
	<polygon class="st5" points="1323.2,714.9 1312.9,727.7 1317.6,731.4 1327.8,718.6 1330.1,738.6 1336.1,737.9 1333.1,712 
		1351.5,688.7 1362.4,716.3 1352,740.3 1357.5,742.6 1365.5,724.1 1371.6,739.4 1377.1,737.2 1371.1,721.9 1389.6,730 1391.9,724.5 
		1368,714.1 1357.1,686.5 1386.4,690.9 1402,711.8 1406.8,708.3 1394.8,692.1 1411,694.5 1411.9,688.6 1395.6,686.2 1411.8,674.2 
		1408.2,669.4 1387.3,685 1357.9,680.6 1376.4,657.4 1402.3,654.4 1401.6,648.5 1381.6,650.8 1391.8,637.9 1387.1,634.2 1376.9,647 
		1374.6,627 1368.7,627.7 1371.7,653.7 1353.2,676.9 1342.3,649.3 1352.7,625.3 1347.2,623 1339.2,641.5 1333.2,626.2 1327.6,628.4 
		1333.7,643.7 1315.2,635.7 1312.8,641.1 1336.8,651.5 1347.7,679.1 1318.4,674.8 1302.8,653.8 1298,657.3 1310,673.5 1293.8,671.1 
		1292.9,677 1309.1,679.4 1292.9,691.4 1296.5,696.2 1317.5,680.7 1346.8,685 1328.4,708.2 1302.4,711.2 1303.1,717.2 	"/>
</g>
</svg>
