<svg xmlns="http://www.w3.org/2000/svg" xmlns:xlink="http://www.w3.org/1999/xlink" viewBox="0 0 1966 648"><defs><style>.cls-1{fill:none;}.cls-2{fill:#00b6cf;}.cls-3{fill:#4c4d4d;}.cls-4{fill:#7d7d7d;}.cls-5{fill:#4f3613;}.cls-6{fill:#010101;}.cls-7{fill:#c09c55;}.cls-8{fill:#b1e1eb;}.cls-9{fill:#60cae6;}.cls-10{clip-path:url(#clip-path);}.cls-11{fill:#fff;}.cls-12{clip-path:url(#clip-path-2);}.cls-13{clip-path:url(#clip-path-3);}.cls-14{clip-path:url(#clip-path-4);}.cls-15{clip-path:url(#clip-path-5);}.cls-16{fill:#f8971d;}</style><clipPath id="clip-path"><polyline class="cls-1" points="683.84 668.92 653.16 656.17 670.31 623.97 693.31 619.6 698.75 663.32"/></clipPath><clipPath id="clip-path-2"><polygon class="cls-1" points="715.23 654.87 713.69 648.33 711.44 633.85 731.34 649.89 715.23 654.87"/></clipPath><clipPath id="clip-path-3"><polygon class="cls-1" points="747.88 643.78 736.56 634.66 783.24 635.22 779.3 649.56 755.89 641.31 747.88 643.78"/></clipPath><clipPath id="clip-path-4"><polygon class="cls-1" points="1237.04 647.92 1268.35 648.48 1273.52 664.15 1260.5 676.49 1236.58 655.26 1237.04 647.92"/></clipPath><clipPath id="clip-path-5"><polygon class="cls-1" points="1153.18 651.47 1173.8 647.02 1162 679.3 1158.05 683.05 1143.25 667.44 1153.18 651.47"/></clipPath></defs><title>ESV2_</title><g id="Layer_1" data-name="Layer 1"><rect class="cls-2" x="-72" y="-72" width="2103.63" height="784.35"/></g><g id="_01_RUBBLE" data-name="01_RUBBLE"><path class="cls-3" d="M869.87,86.36c74.91-27.41,179.9-16.93,278.23,6.11,98.15,22.91,189.81,58.27,220.06,110.32,30.08,52.17-1.08,50.92,23,123.7,23.78,72.79,102.65,149.49,88.07,208.1s-122.82,99-228.35,97.2c-105.53-2.07-208.18-46.29-314.61-51.94-106.25-5.53-216.28,27.76-327,21.42C498.35,595.05,386.88,549.33,365.81,488c-21.43-61.38,47.54-138.19,119.22-193,71.49-54.7,145.68-7.41,205.47-56.47C749.93,189.41,794.77,113.89,869.87,86.36Z"/><polygon class="cls-4" points="1365.1 380.42 1373.92 353.84 1373.9 335.68 1337.57 327.65 1313.34 313.56 1293.73 328.75 1361.36 376.95 1365.1 380.42"/><path class="cls-5" d="M1125.8,263.39l12,15.56.72.22a18.76,18.76,0,0,1,13.13,17.7l9.41,12.17,62.86-26.15,50.77,33.22-2.34-28.25-41.51-39.39-61-19.45q17-10.12,34.81-19l-9.73-13.09c-6.16,3.11-12.23,6.36-18.25,9.69L1141,158.69l16.4-12.19-9.59-12.88-45.27,33.66-2-2.73-12.88,9.58L1132.17,234c-2.87,2-5.69,4-8.52,6l-11.94,6Zm-13.66-83.23L1134,163.91l35,47q-11.87,6.81-23.38,14.2Z"/><path class="cls-5" d="M991,219.58l58.42-8.53a67.79,67.79,0,0,0-10.57-7.45c-7.71-4.49-14.08-6.33-17.42-9.23a5,5,0,0,1-1.79-3.63c.09-2.42,1.65-4.09,4-6.13,7.23-6,10.32-13.24,10.3-18.68,0-4.48-1.9-7.39-5-8.36a28.13,28.13,0,0,0-8-1.54,7.09,7.09,0,0,0-5,1.68c-1.29,1.17-2.44,3.24-3.15,6.78a5.55,5.55,0,0,1-5.77,4.73c-3.24,0-6.73-1.57-10.3-2.95s-7.05-2.71-9.22-2.66a2.73,2.73,0,0,0-2.2.74c-.46.5-1,1.61-1,3.82,0,.77,0,1.52,0,2.25,0,4.64.47,8.28.48,11.51.06,3.63-.77,7.17-4,9.73s-8,4.29-16.14,6.24a19.79,19.79,0,0,0-6.34,2.34c-1,.77-1,1-1,1.47-.11.86,1.18,3.08,2.85,5.66s3.44,5.83,3.45,9.78a12.17,12.17,0,0,1-.72,4.12Z"/><polygon class="cls-6" points="1146.97 314.91 1153.34 312.26 1149.4 307.15 1146.97 314.91"/><path class="cls-4" d="M700.61,380.91l38,35L742.18,399,806,412.27l-9.91-31.95L921.64,341.4l11.59,37.38,28.91-70.21,37,15.24,19.58-62.54A18.76,18.76,0,0,1,1042.2,249l82.16,25.74-4.9-6.33-43-53.15-84.66,12.37-159.62,9.52-37.65,54.13L646.27,380Z"/><polygon class="cls-5" points="566.69 336.88 528.08 344.34 501.96 393.24 563.6 393.16 584.81 378.99 630.98 379.75 686.34 346.62 670.52 316.84 651.35 320.54 650.67 312.45 650.49 310.32 637.04 306.3 628.89 308.64 615.61 238.62 599.75 241.62 614.22 317.89 613.04 319.72 606.98 329.11 582.54 333.83 581.03 325.9 574.63 292.1 558.76 295.11 565.19 328.96 566.69 336.88"/><path class="cls-7" d="M812.75,413.68l58.13,12.1-.45,2.12,32-46.61,25.36.3L917.65,349l-114,35.34Z"/><polyline class="cls-5" points="994.06 339.99 997.32 329.6 965.43 316.47 938.56 381.73 980.83 382.24 992.18 345.98"/><path class="cls-5" d="M779.74,453.78l62.72,14.92,19.09-27.85,2.16-10.38L746.87,406.15l-3,14.57Z"/><path class="cls-6" d="M1137.13,283.65l-96.33-30.18a14.06,14.06,0,0,0-17.61,9.2L985.72,382.3l4.88.06L1000.75,350l40.78,12.78,3.85-5.73,14.07-5.83-53.81-16.86,22-70.27a9.36,9.36,0,0,1,11.74-6.13l96.34,30.18a9.36,9.36,0,0,1,6.13,11.73l-6.18,19.75,3.59-1.49,2-.85,5-16A14,14,0,0,0,1137.13,283.65Z"/><rect class="cls-6" x="1037.63" y="298.08" width="19.02" height="2.06" transform="translate(95.76 829.06) rotate(-45.06)"/><rect class="cls-6" x="1045.12" y="305.63" width="19.02" height="2.06" transform="translate(92.73 836.78) rotate(-45.07)"/><rect class="cls-6" x="1023.88" y="301.58" width="54.49" height="2.05" transform="translate(94.27 832.57) rotate(-45.04)"/><polygon class="cls-7" points="1388.5 465.73 1411.97 434.96 1356.27 383.22 1285.93 333.1 1223.1 291.98 1142.38 325.56 1050.72 363.55 1033.62 388.97 1087.33 399.17 1123.08 474.27 1140.05 485.73 1141.32 485.57 1219.16 469.27 1224.36 494.11 1311.84 509.1 1388.5 465.73"/><path class="cls-4" d="M1111.66,491.78l4.34-.91a5.69,5.69,0,0,0,2-10.28h0a5.78,5.78,0,0,1-2-2.27l-34.27-72-83.27-15.82-91.91-1.11L850.88,470.7l23.42,5.57,4.55,37.53,72.5,14.69,69.89-11.31,81.44-10.57a5.69,5.69,0,0,0,4.84-6.81l-.26-1.28A5.69,5.69,0,0,1,1111.66,491.78Z"/><path class="cls-7" d="M586.15,387.8l-79.88,53.4a4,4,0,0,0-1.7,2.48L491,505.1a4,4,0,0,0,3.16,4.83l133.6,26.17a4.05,4.05,0,0,0,1.59,0L649.51,532a4.05,4.05,0,0,0,3.13-3.07l8.91-39.73a4,4,0,0,1,4.82-3.05l104.85,23.54a4,4,0,0,1,3,4.83h0a4,4,0,0,0,3.67,4.91l89.36,5.93a4,4,0,0,0,4.27-4.51l-4.26-35.2a4.06,4.06,0,0,0-3.08-3.44l-87.38-20.78a4,4,0,0,1-1.8-1L698.53,390a4,4,0,0,0-2.67-1.06l-107.4-1.79A4.06,4.06,0,0,0,586.15,387.8Z"/><path class="cls-4" d="M760.07,550.06l7.85-34.94L667,492.45l-7.84,34.94Z"/><path class="cls-5" d="M1214.47,476.44l-101.22,21.2,7.34,35.05,101.22-21.19Z"/><path class="cls-8" d="M1314.27,623.06a1.67,1.67,0,0,0-.84,2.64l5.34,6.73-2,7.25a1.67,1.67,0,0,0,1.07,2l13.11,4.48-9.57,6.53a1.66,1.66,0,0,0-.72,1.52l.67,8.06-10.12,5.9a1.66,1.66,0,0,0-.81,1.15,1.71,1.71,0,0,0,.36,1.36l5.72,6.86-8.1,2.91a1.66,1.66,0,0,0-1.1,1.46,1.63,1.63,0,0,0,.88,1.59,33.39,33.39,0,0,0,15.23,3.88c6.16.08,13.93-2.79,18.11-5.53,3-2,5.29-3.61,7.11-4.92,4.52-3.24,6.21-4.45,10.51-4.88,6-.6,8.89-2.89,10.28-4.6a5.67,5.67,0,0,0,4.11,1.87l2.65,0,.29,0a2.85,2.85,0,0,0,.29,0l2.1,0h0l2.65,0h.59a1.66,1.66,0,0,0,.7-.15,5.68,5.68,0,0,0,4.47-5.46v-.12c1.19-.61,2.53-2,2.54-2.88l.18-12.73c0-.93-1.29-2.31-2.47-3v-.11a5.67,5.67,0,0,0-4.31-5.58,1.55,1.55,0,0,0-.71-.17h-.58l-2.66,0-2.1,0-.29,0c-.1,0-.19,0-.29,0l-2.66,0a5.68,5.68,0,0,0-4.72,2.41c-1.51-1.66-4.36-3.59-9.61-4.21-4.44-.52-6.06-1.72-10.85-5.28-1.68-1.26-3.79-2.82-6.49-4.7a36.68,36.68,0,0,0-18-5.73A33.6,33.6,0,0,0,1314.27,623.06ZM1374,642.54a5.66,5.66,0,0,0-.55,2.33l-.26,18.79a5.58,5.58,0,0,0,.49,2.34h-.18a2.33,2.33,0,0,1-2.3-2.37l.26-18.79a2.35,2.35,0,0,1,2.37-2.31Zm3.82.47a2.32,2.32,0,0,1,1,1.93l-.26,18.79a1.21,1.21,0,1,1-2,0l.26-18.79A2.33,2.33,0,0,1,1377.83,643Zm6.31,2-.26,18.79a2.35,2.35,0,0,1-2.36,2.31h-.18a5.82,5.82,0,0,0,.55-2.33l.26-18.79a5.58,5.58,0,0,0-.49-2.34h.17A2.34,2.34,0,0,1,1384.14,645Z"/><polygon class="cls-9" points="715.84 655.04 718.99 649.78 712.05 634.02 736.64 651.35 715.84 655.04"/><polygon class="cls-9" points="696.13 664.78 682.4 670.84 649.83 656.8 666.98 624.6 695.53 618.39 700.84 664.79 696.13 664.78"/><polygon class="cls-9" points="750.72 647.92 737.14 634.82 787.37 634.68 782.14 653.7 758.73 645.45 750.72 647.92"/><polygon class="cls-8" points="715.27 654.88 713.73 648.34 711.48 633.86 731.38 649.9 715.27 654.88"/><polygon class="cls-8" points="747.88 643.78 736.56 634.66 783.24 635.22 779.3 649.56 755.89 641.31 747.88 643.78"/><polygon class="cls-9" points="1237.33 647.31 1265.16 648.92 1270.34 664.59 1259.55 679.28 1233.4 655.7 1237.33 647.31"/><polygon class="cls-9" points="1149.99 651.91 1170.62 647.46 1159.93 680.91 1155.97 684.66 1140.07 667.88 1149.99 651.91"/><polyline class="cls-8" points="683.84 668.92 653.16 656.17 670.31 623.97 693.31 619.6 698.33 664.89"/><g class="cls-10"><polygon class="cls-11" points="651.71 636.79 648.6 643.57 698.33 664.89 698.33 664.89 651.71 636.79"/></g><g class="cls-12"><polygon class="cls-11" points="744.66 657.92 748.14 653.14 699.3 639.85 697.11 639.95 744.66 657.92"/></g><g class="cls-13"><polygon class="cls-11" points="776.25 650.77 742.57 611.86 770.38 654.15 775.54 654.55 776.25 650.77"/></g><polygon class="cls-8" points="1237.33 647.31 1268.63 647.86 1273.8 663.54 1260.78 675.88 1236.87 654.65 1237.33 647.31"/><polygon class="cls-8" points="1153.46 650.86 1174.08 646.4 1162.28 678.68 1158.33 682.43 1143.53 666.82 1153.46 650.86"/><g class="cls-14"><path class="cls-11" d="M1214.2,672.81h0a3.53,3.53,0,0,0,4.75,1.46l52.33-27.49-8.22,2.33-.35.12L1216,667.86A3.53,3.53,0,0,0,1214.2,672.81Z"/></g><g class="cls-15"><polygon class="cls-11" points="1138.64 676.76 1144.18 681.75 1179.39 640.68 1179.39 640.68 1138.64 676.76"/></g><polygon class="cls-4" points="-5.15 415.24 -13.97 388.66 -13.95 370.5 22.38 362.48 46.61 348.38 66.22 363.57 -1.41 411.77 -5.15 415.24"/><polygon class="cls-3" points="-28.55 500.55 -52.02 469.78 3.68 418.05 74.02 367.93 136.85 326.8 217.57 360.38 309.23 398.37 326.33 423.79 272.62 433.99 236.87 509.09 219.9 520.55 218.63 520.4 140.79 504.1 135.59 528.93 48.11 543.92 -28.55 500.55"/><path class="cls-4" d="M485.65,511.1l-4.55,37.52-72.5,14.69L338.71,552l-81.44-10.56a5.7,5.7,0,0,1-4.84-6.82l.26-1.27a5.68,5.68,0,0,0-4.4-6.74L244,525.7a5.69,5.69,0,0,1-2-10.29h0a5.72,5.72,0,0,0,1.95-2.27l34.27-72,83.27-15.81,91.91-1.12"/><path class="cls-5" d="M138.14,546.32l101.22,21.19,7.34-35L145.48,511.27Z"/><polygon class="cls-4" points="1451.8 500.55 1428.33 469.78 1484.03 418.05 1554.37 367.93 1617.21 326.8 1697.93 360.38 1789.58 398.37 1806.68 423.79 1752.97 433.99 1717.22 509.09 1700.25 520.55 1698.98 520.4 1621.14 504.1 1615.94 528.93 1528.46 543.92 1451.8 500.55"/><path class="cls-3" d="M1966,511.1l-4.55,37.52L1889,563.31,1819.06,552l-81.44-10.56a5.7,5.7,0,0,1-4.84-6.82l.26-1.27a5.68,5.68,0,0,0-4.4-6.74l-4.34-.91a5.69,5.69,0,0,1-2-10.29h0a5.72,5.72,0,0,0,2-2.27l34.27-72,83.27-15.81,91.91-1.12"/><path class="cls-7" d="M1618.49,546.32l101.22,21.19,7.34-35-101.22-21.19Z"/></g><g id="_10_FIRES" data-name="10_FIRES"><circle class="cls-16" cx="258" cy="273.23" r="113.4"/><path class="cls-16" d="M687.45,547a44.83,44.83,0,0,0-62-13.2c-55,35.7-96.36,50.78-122.91,44.82C481.8,574,465.12,556,439.62,527.05c-28.76-32.67-64.55-73.32-122.63-95.31a44.49,44.49,0,0,0-12.8-2.79c-47.19-14.08-105-17.85-142,19.14-10.09,10.09-36,29.9-36,108.27V718.05H384.4l-8.93-128.12c28.72,32.56,59,65.38,107.38,76.25a143.91,143.91,0,0,0,31.7,3.46c45.1,0,96.78-19.73,159.7-60.56A44.85,44.85,0,0,0,687.45,547Z"/></g></svg>