<?xml version="1.0" encoding="utf-8"?>
<!-- Generator: Adobe Illustrator 23.1.1, SVG Export Plug-In . SVG Version: 6.00 Build 0)  -->
<svg version="1.1" id="Layer_1" xmlns="http://www.w3.org/2000/svg" xmlns:xlink="http://www.w3.org/1999/xlink" x="0px" y="0px"
	 viewBox="0 0 1966 648" style="enable-background:new 0 0 1966 648;" xml:space="preserve">
<style type="text/css">
	.st0{fill:#1F1A4E;}
	.st1{fill:#FDB615;}
	.st2{fill:#8DC63F;}
	.st3{fill:#009444;}
	.st4{fill:none;}
	.st5{fill:#010101;}
	.st6{fill-rule:evenodd;clip-rule:evenodd;fill:#FDB615;}
</style>
<title>ESV2_</title>
<g>
	<rect x="-63.5" y="-70.9" class="st0" width="2103.6" height="794.3"/>
</g>
<g id="_06_LOST_PET">
	<path class="st1" d="M1084.8,347.6c1.6,1.5,4,1.9,6.2,2c2.7,0.1,5.4-0.1,8-0.5c5.1-0.7,10.1-1.7,15.1-2.8
		c8.8-1.9,17.8-2.6,26.7-4.2c9.1-1.6,18-3.6,27.1-5.4c10-2,20.2-3.4,30.4-4c3.2-0.2,3.2-5.2,0-5c-18,0.9-35.5,5-53.1,8.5
		c-9,1.8-18,2.6-27,4.2c-5.3,0.9-10.6,2.2-15.9,3.2c-3,0.5-6,0.9-9,1c-0.7,0-1.3,0-2,0c-0.3,0-0.6,0-0.9,0h-0.3c-0.5,0,0.2,0,0,0
		c-0.5-0.1-0.9-0.2-1.4-0.3l-0.2-0.1c0.8,0.3,0.2,0.1,0.1,0s-0.1-0.1-0.2-0.1c-0.4-0.3,0.4,0.4,0.1,0.1
		C1086,341.9,1082.5,345.4,1084.8,347.6L1084.8,347.6z"/>
	<ellipse class="st2" cx="1115.1" cy="196.4" rx="16.3" ry="12.2"/>
	<ellipse class="st2" cx="1166.6" cy="196.4" rx="16.3" ry="12.2"/>
	<path class="st3" d="M919.6,510.6c0-150.7-122.2-273-272.9-273s-273,122.2-273,273"/>
	<rect x="962.1" y="152.5" class="st4" width="352.3" height="352.3"/>
	<path class="st5" d="M1211.2,227l55.3-2.2l-0.2-3.9l-56.6,2.3l-0.7-1.7l56.7-8l-0.5-3.9l-57.6,8.1c-0.2-0.5-0.4-1-0.6-1.5
		l56.8-13.8l-0.9-3.8l-57.4,14c-15-36.4-27.1-60.1-27.1-60.1l-12.7,20.6h-54.8l-12.7-20.6c0,0-12,23.6-27,59.8l-56.3-13.7l-0.1,0.3
		l-1.2-0.3l-0.9,3.8l56.8,13.9l-0.5,1.3l-56.5-7.9v0.2l-1.2-0.2l-0.5,3.9l56.7,8c-0.2,0.5-0.4,1.1-0.7,1.6l-55.4-2.3l0,0h-1.2
		l-0.2,3.9l55.3,2.2c-13.9,35-29.1,78.9-39.5,124.1c-12.3,54-6.3,93.6,2.2,119.1h-16.5c-9.5-0.2-17.5,7.3-17.7,16.9
		c-0.2,9.5,7.3,17.5,16.9,17.7c0.3,0,0.6,0,0.8,0h219.8c0,0,43.1-50.9,19.6-153.6C1240.4,305.9,1225.1,262,1211.2,227z
		 M1109.9,204.3c-4.4-0.5-8.5-2.8-11.1-6.3c2.7-3.5,6.7-5.8,11.1-6.3V204.3z M1113.5,204.3v-12.6c4.4,0.5,8.5,2.8,11.1,6.3
		C1121.9,201.6,1117.9,203.8,1113.5,204.3z M1138.2,220.3l-6.8-11.7h13.6L1138.2,220.3z M1163.1,204.3c-4.5-0.5-8.5-2.7-11.2-6.3
		c2.7-3.6,6.8-5.9,11.2-6.3V204.3z M1166.6,204.3v-12.6c4.4,0.5,8.3,2.8,11,6.3C1175,201.5,1171,203.8,1166.6,204.3L1166.6,204.3z"
		/>
	<path class="st3" d="M1048.2,510.6c-1.9-93.9-79.5-168.4-173.4-166.5c-91.2,1.9-164.7,75.3-166.5,166.5"/>
	<path class="st2" d="M147.2,396.6c23.5,0,46.5,6.2,66.9,18c29.6-44.1,76.4-73.5,129.5-76.2c1.6-0.1,3.3-0.1,4.9-0.2
		c1.1,0,2.2-0.1,3.3-0.1h0.8c1.1,0,2.2,0.1,3.2,0.1c1.6,0,3.3,0.1,4.9,0.2c53.1,2.7,99.9,32.1,129.5,76.2c20.3-11.8,43.4-18,66.8-18
		c65.6,0,120.9,48,138.5,113.8H8.7C26.3,444.7,81.6,396.6,147.2,396.6z"/>
	<path class="st2" d="M1332.9,237.6c-83.6-0.1-162.5,38.2-214.3,103.9c-93.4-9.5-176.9,58.6-186.4,152c-0.6,5.7-0.9,11.4-0.9,17.1
		h674.5C1605.8,359.9,1483.6,237.6,1332.9,237.6z"/>
	<path class="st3" d="M1832.4,396.6c-23.5,0-46.5,6.2-66.9,18c-29.6-44.1-76.4-73.5-129.5-76.2c-1.6-0.1-3.3-0.1-4.9-0.2
		c-1.1,0-2.2-0.1-3.2-0.1h-0.8c-1.1,0-2.2,0.1-3.2,0.1c-1.6,0-3.3,0.1-4.9,0.2c-53.1,2.7-99.9,32.1-129.5,76.2
		c-20.3-11.8-43.4-18-66.8-18c-65.6,0-120.9,48-138.4,113.8h686.7C1953.3,444.7,1898,396.6,1832.4,396.6z"/>
	<path class="st6" d="M1376.8,628.3c-0.2,61,74.9-38.4,18-19.3C1381.9,600.5,1368,613.8,1376.8,628.3z"/>
	<path class="st6" d="M1367.2,633c2.2-2.4,1.6-6.6-1.4-9.4s-7.2-3.1-9.4-0.7s-1.6,6.6,1.4,9.4S1364.9,635.3,1367.2,633z"/>
	<path class="st6" d="M1368.3,614.8c2.6-2.8,1.4-8.1-2.6-11.9s-9.4-4.5-12-1.7s-1.4,8.1,2.6,11.9S1365.7,617.6,1368.3,614.8z"/>
	<path class="st6" d="M1381.9,600.1c2.6-2.8,1.4-8.1-2.6-11.9s-9.4-4.5-12-1.7s-1.4,8.1,2.6,11.9S1379.3,602.9,1381.9,600.1z"/>
	<path class="st6" d="M1389.1,587.4c-2.2,2.4-1.6,6.6,1.4,9.4s7.2,3.1,9.4,0.7s1.6-6.6-1.4-9.4S1391.3,585,1389.1,587.4z"/>
	<path class="st6" d="M1530.5,633.8c33.8,50.8,40.9-73.5,4.2-26.1C1519.2,607.9,1515,626.7,1530.5,633.8z"/>
	<path class="st6" d="M1525,643.1c0.5-3.2-2.3-6.3-6.4-7s-7.8,1.4-8.3,4.7s2.4,6.3,6.4,7S1524.5,646.3,1525,643.1z"/>
	<path class="st6" d="M1515.9,627.4c0.6-3.8-3.3-7.5-8.8-8.4s-10.4,1.5-11,5.3s3.3,7.5,8.8,8.4S1515.3,631.2,1515.9,627.4z"/>
	<path class="st6" d="M1519,607.6c0.6-3.8-3.3-7.5-8.8-8.4s-10.3,1.5-11,5.3s3.3,7.5,8.8,8.4S1518.4,611.4,1519,607.6z"/>
	<path class="st6" d="M1517.9,593c-0.5,3.2,2.4,6.3,6.4,7s7.8-1.4,8.3-4.7s-2.4-6.3-6.4-7S1518.4,589.8,1517.9,593z"/>
	<path class="st6" d="M1687,633.8c33.8,50.8,40.9-73.5,4.2-26.1C1675.6,607.9,1671.5,626.7,1687,633.8z"/>
	<path class="st6" d="M1681.5,643.1c0.5-3.2-2.4-6.3-6.4-7s-7.8,1.4-8.3,4.7s2.4,6.3,6.4,7S1681,646.3,1681.5,643.1z"/>
	<path class="st6" d="M1672.3,627.4c0.6-3.8-3.3-7.5-8.8-8.4s-10.3,1.5-11,5.3s3.3,7.5,8.8,8.4S1671.7,631.2,1672.3,627.4z"/>
	<path class="st6" d="M1675.5,607.6c0.6-3.8-3.3-7.5-8.8-8.4s-10.3,1.5-11,5.3s3.3,7.5,8.8,8.4S1674.9,611.4,1675.5,607.6z"/>
	<path class="st6" d="M1674.4,593c-0.5,3.2,2.4,6.3,6.4,7s7.8-1.4,8.3-4.7s-2.4-6.3-6.4-7S1674.9,589.8,1674.4,593z"/>
	<path class="st6" d="M1829.8,633.8c33.8,50.8,40.9-73.5,4.2-26.1C1818.5,607.9,1814.4,626.7,1829.8,633.8z"/>
	<path class="st6" d="M1824.3,643.1c0.5-3.2-2.4-6.3-6.4-7s-7.8,1.4-8.3,4.7s2.4,6.3,6.4,7S1823.8,646.3,1824.3,643.1z"/>
	<path class="st6" d="M1815.2,627.4c0.6-3.8-3.3-7.5-8.8-8.4s-10.3,1.5-11,5.3s3.3,7.5,8.8,8.4S1814.6,631.2,1815.2,627.4z"/>
	<path class="st6" d="M1818.3,607.6c0.6-3.8-3.3-7.5-8.8-8.4s-10.3,1.5-11,5.3s3.3,7.5,8.8,8.4S1817.7,611.4,1818.3,607.6z"/>
	<path class="st6" d="M1817.3,593c-0.5,3.2,2.3,6.3,6.4,7s7.8-1.4,8.3-4.7s-2.4-6.3-6.4-7S1817.8,589.8,1817.3,593z"/>
	<path class="st6" d="M1970.2,633.8c33.8,50.8,40.9-73.5,4.2-26.1C1958.9,607.9,1954.7,626.7,1970.2,633.8z"/>
	<path class="st6" d="M1964.7,643.1c0.5-3.2-2.4-6.3-6.4-7s-7.8,1.4-8.3,4.7s2.3,6.3,6.4,7S1964.2,646.3,1964.7,643.1z"/>
	<path class="st6" d="M1955.6,627.4c0.6-3.8-3.3-7.5-8.8-8.4s-10.3,1.5-11,5.3s3.3,7.5,8.8,8.4S1955,631.2,1955.6,627.4z"/>
	<path class="st6" d="M1958.7,607.6c0.6-3.8-3.3-7.5-8.8-8.4s-10.4,1.5-11,5.3s3.3,7.5,8.8,8.4S1958.1,611.4,1958.7,607.6z"/>
	<path class="st6" d="M1957.7,593c-0.5,3.2,2.4,6.3,6.4,7s7.8-1.4,8.3-4.7s-2.4-6.3-6.4-7S1958.2,589.8,1957.7,593z"/>
	<path class="st6" d="M1202.1,634.8c-27.4,54.5,84.1-0.9,24.7-9.3C1219,612.1,1200.6,617.8,1202.1,634.8z"/>
	<path class="st6" d="M1191.4,634.3c3-1.1,4.3-5.2,2.9-9s-5.1-6-8.1-4.9s-4.3,5.2-2.9,9S1188.4,635.5,1191.4,634.3z"/>
	<path class="st6" d="M1200.5,618.6c3.6-1.3,4.9-6.6,3-11.8s-6.4-8.2-10-6.9s-4.9,6.6-2.9,11.8S1197,619.9,1200.5,618.6z"/>
	<path class="st6" d="M1219.2,611.5c3.6-1.3,4.9-6.6,2.9-11.8s-6.4-8.3-10-6.9s-4.9,6.6-3,11.8S1215.7,612.9,1219.2,611.5z"/>
	<path class="st6" d="M1231.4,603.4c-3,1.2-4.3,5.2-2.9,9s5.1,6,8.1,4.9s4.3-5.2,2.9-9S1234.4,602.2,1231.4,603.4z"/>
	<path class="st6" d="M1266,573c-27.4,54.5,84.1-1,24.7-9.3C1282.9,550.3,1264.5,556.1,1266,573z"/>
	<path class="st6" d="M1255.2,572.9c3-1.1,4.3-5.2,2.9-9s-5.1-6-8.1-4.9s-4.3,5.2-2.9,9S1252.2,574,1255.2,572.9z"/>
	<path class="st6" d="M1264.3,557.1c3.6-1.3,4.9-6.6,2.9-11.8s-6.4-8.2-10-6.9s-4.9,6.6-3,11.8S1260.7,558.5,1264.3,557.1z"/>
	<path class="st6" d="M1283,550.1c3.6-1.3,4.9-6.6,3-11.8s-6.4-8.3-10-6.9s-4.9,6.6-3,11.8S1279.4,551.4,1283,550.1z"/>
	<path class="st6" d="M1295.2,541.9c-3.1,1.2-4.3,5.2-2.9,9s5.1,6,8.1,4.9s4.3-5.2,2.9-9S1298.2,540.8,1295.2,541.9z"/>
</g>
</svg>
