<svg xmlns="http://www.w3.org/2000/svg" viewBox="0 0 1966 648"><defs><style>.cls-1{fill:#00b6cf;}.cls-2{fill:#df1c4d;}.cls-3{fill:#fdb615;}.cls-4{fill:#010101;}</style></defs><title>ESV2_</title><g id="Layer_1" data-name="Layer 1"><rect class="cls-1" x="-72" y="-70.86" width="2103.63" height="784.35"/></g><g id="_05_FIRSTAID" data-name="05_FIRSTAID"><path class="cls-2" d="M1188,134.73c58.41,15.9,102.35,76.09,133.25,142.71,30.9,66.45,48.94,139.32,23.57,194.69-25.54,55.38-94.31,93.24-138.78,161.65-44.66,68.23-65,166.83-117.71,205.05S950.57,854.73,899.66,801C848.93,747,832.32,661.83,783.92,604.67c-48.41-57-128.78-85.74-178.8-145.57-50.19-59.84-70-150.58-32.86-208.63,37-58.23,130.75-83.59,208.8-90.56,77.88-7,140,4.47,207.73-3.93C1056.31,147.41,1129.36,118.83,1188,134.73Z"/><path class="cls-3" d="M1302.2,596.18c-15.64-45.46,6.37-137,19.68-177.63,15.82-48.32,43.33-94.58,86.22-124.32,22.84-15.84,58-33.77,85.57-22.68,39.56,15.89,38.38,61.72,39.41,96.37,1.17,39.65,63.23,38.23,62.05-1.68-2.67-90.37-41.06-179.57-149.39-155.21-67.72,15.23-119.17,65-153,124.75-6.6-34.19,2.85-86.24,9.38-106.7,14.11-44.27,46.11-79.62,94.68-79.07,39.89.45,41.51-61.61,1.68-62.06-68-.76-124.5,46.21-149.62,109.05-17,42.52-29.66,113.16-15.1,164.77-58.57-36.68-111.19-88.12-86.09-167.73,12.21-38.73-47.21-53.51-59.39-14.88-17.67,56.05-6.21,111.34,24.22,158.24,27.86,42.92,63,66,104.8,88.91-6.38,71.12,9.63,190.55,9.63,190.55,11.66,37.34,56.53,78.21,102.7,85.31,104.19,16,189.61-67.33,200-167.5,4.15-39.91-57.92-38-62,1.68-3.75,36-20.38,69-52.68,89.09q-44.83,27.1-99.62,10.29"/><polygon class="cls-3" points="1219.6 570.39 1092.4 574.01 1005.89 542.88 934.81 573.89 852.75 535.07 763.61 576.35 -74.8 582.55 -71.44 458.31 763.99 469.33 812.99 511.84 899.41 474.29 1006.99 516.2 1079.88 469.33 1220.44 472.23 1219.6 570.39"/><polygon class="cls-4" points="894.83 406.19 862.25 269.31 821.99 305.38 785.24 207.59 763.99 217.34 816.54 332.87 850.45 297.93 889.87 408.2 894.83 406.19"/><polygon class="cls-4" points="936.91 405.11 970.54 290.93 925.8 300.51 939.94 213.27 920.24 211.49 910.26 318.4 949.85 307 932.44 404.51 936.91 405.11"/><polygon class="cls-4" points="768.9 394.16 706.2 333.84 693.7 348.81 774.67 416.77 787.64 378.34 856.84 447.08 859.84 443.82 786.24 352.6 768.9 394.16"/><polygon class="cls-4" points="939.41 603.01 971.99 739.89 1012.26 703.82 1049 801.61 1070.26 791.86 1017.7 676.33 983.79 711.27 944.37 601 939.41 603.01"/><polygon class="cls-4" points="897.33 604.09 863.7 718.27 908.45 708.68 894.3 795.93 914.01 797.71 923.99 690.8 884.39 702.2 901.8 604.69 897.33 604.09"/></g></svg>