<svg width="422" height="74" xmlns="http://www.w3.org/2000/svg"><g fill="none" fill-rule="evenodd"><path d="M262 37h158M2 36h158" stroke="#EE495C" stroke-width="4" stroke-linecap="square"/><g fill="#EE495C" fill-rule="nonzero"><path d="M216.708.437a5.968 5.968 0 0 0-6.379 3.467C208.59 1.542 205.797 0 202.645 0c-3.528 0-6.607 1.928-8.26 4.781-.031 0-.064-.007-.095-.007-5.187 0-9.412 4.16-9.536 9.317a7.182 7.182 0 0 0-3.368 4.454c-3.67 1.388-6.192 4.94-6.192 8.907 0 1.474.344 2.926 1.005 4.247A10.697 10.697 0 0 0 174 38.194c0 2.75 1.065 5.384 2.937 7.37a10.693 10.693 0 0 0-.55 3.371c0 5.305 3.891 9.807 9.097 10.608a8.311 8.311 0 0 0 5.27 4.57c.437 5.523 5.063 9.887 10.698 9.887 3.561 0 6.715-1.75 8.67-4.427a5.983 5.983 0 0 0 6.587 3.989C234.839 70.755 248 55.377 248 37S234.84 3.245 216.708.437zm-15.256 71.176c-4.606 0-8.355-3.749-8.355-8.355s3.749-8.355 8.355-8.355v-2.387c-5.363 0-9.807 3.953-10.603 9.096a5.934 5.934 0 0 1-3.72-5.515 5.975 5.975 0 0 1 5.968-5.968v-2.387c-4.606 0-8.355 3.749-8.355 8.355 0 .289.018.573.046.854a8.363 8.363 0 0 1-6.014-8.016c0-4.605 3.75-8.354 8.355-8.354v-2.387c-3.815 0-7.162 2.004-9.069 5.009a8.355 8.355 0 0 1-1.673-5.01c0-2.05.76-4.026 2.139-5.566l.594-.665-.469-.76a7.152 7.152 0 0 1-1.07-3.75c0-2.601 1.45-4.964 3.65-6.216.465 3.503 3.463 6.216 7.092 6.216v-2.387a4.779 4.779 0 0 1-4.775-4.775 4.779 4.779 0 0 1 4.775-4.774 4.779 4.779 0 0 1 4.774 4.774h2.387a7.168 7.168 0 0 0-7.161-7.161c-.375 0-.74.038-1.1.093a7.168 7.168 0 0 1 6.172-5.999 9.518 9.518 0 0 0-.298 2.325c0 5.265 4.283 9.549 9.548 9.549V16.71a7.168 7.168 0 0 1-7.161-7.162 7.168 7.168 0 0 1 7.161-7.16 7.168 7.168 0 0 1 7.161 7.16v53.71c0 4.606-3.748 8.355-8.354 8.355zm14.89-.41a3.586 3.586 0 0 1-2.896-.824 3.576 3.576 0 0 1-1.252-2.72V6.34a3.597 3.597 0 0 1 4.149-3.545c16.686 2.586 29.27 17.29 29.27 34.205s-12.584 31.62-29.27 34.204z"/><path d="M223 28.4V20h-2.286v8.4c0 .662-.512 1.2-1.143 1.2H215V32h4.571c1.89 0 3.429-1.615 3.429-3.6zM221.5 18c1.93 0 3.5-1.57 3.5-3.5s-1.57-3.5-3.5-3.5-3.5 1.57-3.5 3.5 1.57 3.5 3.5 3.5zm0-4.667a1.167 1.167 0 1 1 0 2.335 1.167 1.167 0 0 1 0-2.335zM220.714 45.6V54H223v-8.4c0-1.985-1.538-3.6-3.429-3.6H215v2.4h4.571c.631 0 1.143.538 1.143 1.2zM221.5 56c-1.93 0-3.5 1.57-3.5 3.5s1.57 3.5 3.5 3.5 3.5-1.57 3.5-3.5-1.57-3.5-3.5-3.5zm0 4.667a1.167 1.167 0 1 1 0-2.335 1.167 1.167 0 0 1 0 2.335zM230.6 32.75c0 2.068-1.615 3.75-3.6 3.75h-12V39h12c3.308 0 6-2.804 6-6.25V29h-2.4v3.75zM231.5 19c-1.93 0-3.5 1.57-3.5 3.5s1.57 3.5 3.5 3.5 3.5-1.57 3.5-3.5-1.57-3.5-3.5-3.5zm0 4.667a1.167 1.167 0 1 1 0-2.335 1.167 1.167 0 0 1 0 2.335zM230 42h2v12h-2zM236 25h2v19h-2zM203 8h2v2h-2zM197 36h2v2h-2zM204 62h2v2h-2zM184 44h2v2h-2zM205 27h2v2h-2zM182 30h2v2h-2z"/></g></g></svg>
