<?xml version="1.0" encoding="utf-8"?>
<!-- Generator: Adobe Illustrator 23.1.1, SVG Export Plug-In . SVG Version: 6.00 Build 0)  -->
<svg version="1.1" id="Layer_1" xmlns="http://www.w3.org/2000/svg" xmlns:xlink="http://www.w3.org/1999/xlink" x="0px" y="0px"
	 viewBox="0 0 360 360" style="enable-background:new 0 0 360 360;" xml:space="preserve">
<style type="text/css">
	.st0{fill:#FDB615;}
	.st1{fill:none;}
	.st2{fill:#6E54A3;stroke:#6E54A3;stroke-miterlimit:10;}
	.st3{fill:#EF5666;}
	.st4{fill:#E7DE1F;}
	.st5{fill:#868686;stroke:#868686;stroke-width:5;stroke-miterlimit:10;}
	.st6{fill:#6E54A2;}
	.st7{fill:#FFFFFF;}
</style>
<circle class="st0" cx="180" cy="180.5" r="174.2"/>
<path id="SVGID_x5F_13_x5F__1_" class="st1" d="M324.1,184.5c0,79.8-64.7,144.5-144.5,144.5S35.1,264.3,35.1,184.5S99.8,40,179.6,40
	S324.1,104.7,324.1,184.5z"/>
<g>
	<path class="st2" d="M24.5,160.3c-0.1,0.7-0.4,1.3-1,1.8c-0.5,0.5-1.2,0.6-2.1,0.5c-0.7-0.1-1.3-0.4-1.7-1c-0.4-0.6-0.6-1.2-0.5-2
		s0.4-1.3,1-1.8c0.6-0.4,1.2-0.6,1.9-0.5c0.8,0.1,1.4,0.5,1.8,1.1C24.4,159,24.6,159.6,24.5,160.3z"/>
	<path class="st2" d="M26.6,148.6c-0.2,0.7-0.5,1.3-1.1,1.7c-0.6,0.4-1.3,0.5-2.1,0.3c-0.7-0.2-1.2-0.5-1.6-1.1
		c-0.4-0.6-0.5-1.3-0.3-2c0.2-0.7,0.5-1.3,1.2-1.7s1.3-0.5,2-0.4c0.8,0.2,1.4,0.6,1.7,1.2S26.8,148,26.6,148.6z"/>
	<path class="st2" d="M29.7,137.2c-0.2,0.7-0.6,1.2-1.2,1.6s-1.3,0.4-2.1,0.2c-0.7-0.2-1.2-0.6-1.5-1.3c-0.3-0.6-0.4-1.3-0.2-2
		c0.2-0.7,0.6-1.2,1.3-1.6c0.6-0.3,1.3-0.4,2-0.2c0.8,0.2,1.3,0.7,1.6,1.3S29.9,136.5,29.7,137.2z"/>
	<path class="st2" d="M33.6,126c-0.3,0.7-0.7,1.2-1.3,1.5c-0.6,0.3-1.3,0.3-2.1,0c-0.7-0.3-1.1-0.7-1.4-1.4c-0.3-0.7-0.3-1.3,0-2
		c0.3-0.7,0.7-1.2,1.4-1.5s1.3-0.3,2-0.1c0.8,0.3,1.3,0.8,1.5,1.4C33.8,124.7,33.8,125.3,33.6,126z"/>
	<path class="st2" d="M38.3,115.1c-0.3,0.7-0.8,1.1-1.5,1.4c-0.7,0.3-1.4,0.2-2.1-0.1c-0.6-0.3-1.1-0.8-1.3-1.5
		c-0.2-0.7-0.2-1.3,0.1-2c0.3-0.7,0.8-1.1,1.5-1.4c0.7-0.2,1.4-0.2,2,0.1c0.7,0.4,1.2,0.9,1.4,1.6C38.7,113.9,38.6,114.5,38.3,115.1
		z"/>
	<path class="st2" d="M43.9,104.7c-0.4,0.6-0.9,1.1-1.6,1.3c-0.7,0.2-1.4,0.1-2.1-0.3c-0.6-0.4-1-0.9-1.2-1.6
		c-0.2-0.7-0.1-1.4,0.3-2c0.4-0.6,0.9-1.1,1.6-1.2c0.7-0.2,1.4-0.1,2,0.3c0.7,0.4,1.2,1,1.3,1.7C44.4,103.4,44.3,104.1,43.9,104.7z"
		/>
	<path class="st2" d="M57.6,80.1l-4.3,5.4l3.4,2.7l3.6-4.5c0.3-0.4,0.7-0.7,1-0.7c0.3-0.1,0.7,0,1,0.3c0.3,0.2,0.5,0.6,0.5,0.9
		c0,0.4-0.1,0.7-0.5,1.1l-3.6,4.5l4.4,3.5c0.6,0.4,0.9,0.9,0.9,1.4c0.1,0.5-0.1,0.9-0.4,1.3c-0.3,0.4-0.7,0.6-1.2,0.7
		c-0.5,0-1-0.2-1.5-0.6l-10.3-8.2c-0.4-0.3-0.7-0.6-0.8-0.9s-0.2-0.6-0.1-1c0.1-0.3,0.3-0.7,0.6-1.1l5.1-6.4
		c0.3-0.4,0.7-0.7,1.1-0.7c0.4-0.1,0.7,0,1,0.3c0.3,0.3,0.5,0.6,0.5,0.9C58.1,79.2,58,79.6,57.6,80.1z"/>
	<path class="st2" d="M71.9,83.2l-9.8-9.3c-0.5-0.5-0.8-1-0.8-1.4c0-0.5,0.1-0.9,0.5-1.3c0.4-0.4,0.8-0.6,1.3-0.6s1,0.3,1.5,0.7
		l9.8,9.3c0.5,0.5,0.8,1,0.8,1.5c0,0.5-0.1,0.9-0.5,1.3c-0.3,0.4-0.8,0.5-1.2,0.5S72.4,83.7,71.9,83.2z"/>
	<path class="st2" d="M78.3,69.3l-0.9,0.8l3.6,4.2c0.5,0.6,0.7,1.1,0.7,1.5c0,0.5-0.2,0.9-0.6,1.2c-0.4,0.4-0.9,0.5-1.3,0.4
		c-0.5-0.1-0.9-0.4-1.4-0.9l-8.6-10C69.2,66,69,65.4,69,65c0-0.5,0.3-1,0.9-1.4l4.3-3.7c0.6-0.5,1.1-0.9,1.6-1.2
		c0.5-0.3,0.9-0.5,1.4-0.7c0.6-0.2,1.1-0.2,1.7-0.2c0.6,0,1.1,0.2,1.7,0.5c0.5,0.3,1,0.7,1.4,1.1c0.8,1,1.2,2,1.2,3
		c0,1.1-0.5,2.2-1.4,3.4c0.7-0.2,1.4-0.2,2.3-0.1s1.7,0.3,2.5,0.6c0.8,0.3,1.5,0.5,2.1,0.8c0.6,0.3,0.9,0.5,1.1,0.7
		c0.1,0.2,0.2,0.4,0.3,0.7s0,0.5-0.1,0.8s-0.3,0.5-0.5,0.7c-0.3,0.3-0.6,0.4-0.9,0.4c-0.3,0-0.6,0-1-0.1S86.6,70,86,69.8L83.4,69
		c-0.9-0.3-1.7-0.5-2.3-0.6s-1.1,0-1.5,0.1C79.2,68.6,78.7,68.9,78.3,69.3z M75.1,62.5l-2.4,2.1l3.1,3.6l2.4-2
		c0.6-0.5,1.1-1.1,1.5-1.5c0.3-0.5,0.5-1,0.5-1.4c0-0.5-0.2-0.9-0.6-1.4c-0.3-0.4-0.7-0.6-1.1-0.7c-0.4-0.1-0.9-0.1-1.3,0
		C76.6,61.3,76,61.7,75.1,62.5z"/>
	<path class="st2" d="M95.5,47.5L89,51.9l2.3,3.5l6-4c0.4-0.3,0.8-0.4,1.2-0.4c0.4,0.1,0.6,0.2,0.8,0.6c0.2,0.3,0.3,0.7,0.2,1
		c-0.1,0.3-0.3,0.7-0.8,1l-6,4l2.7,4.1l6.8-4.5c0.5-0.3,0.9-0.4,1.2-0.4c0.4,0.1,0.7,0.3,0.9,0.6c0.2,0.3,0.3,0.7,0.2,1.1
		c-0.1,0.4-0.4,0.7-0.8,1l-7.9,5.2c-0.6,0.4-1.2,0.6-1.6,0.5s-0.9-0.5-1.3-1.1l-7.1-10.8c-0.3-0.4-0.4-0.8-0.5-1.1s0-0.7,0.2-1
		c0.2-0.3,0.5-0.6,0.9-0.9l7.7-5.1c0.5-0.3,0.9-0.4,1.2-0.4c0.4,0.1,0.7,0.3,0.9,0.6c0.2,0.3,0.3,0.7,0.2,1
		C96.3,46.9,96,47.2,95.5,47.5z"/>
	<path class="st2" d="M120.8,34.9l-7.2,3.1l1.7,3.9l6.6-2.9c0.5-0.2,0.9-0.3,1.2-0.1c0.3,0.1,0.6,0.4,0.7,0.7c0.2,0.4,0.2,0.7,0,1
		c-0.1,0.3-0.5,0.6-1,0.8l-6.6,2.9l1.9,4.5l7.4-3.2c0.5-0.2,0.9-0.3,1.3-0.1c0.4,0.1,0.6,0.4,0.8,0.8c0.2,0.4,0.2,0.7,0,1.1
		c-0.2,0.3-0.5,0.6-1,0.8l-8.7,3.7c-0.7,0.3-1.3,0.4-1.7,0.2c-0.4-0.2-0.8-0.6-1.1-1.3l-5.1-11.9c-0.2-0.5-0.3-0.9-0.3-1.2
		c0-0.3,0.1-0.7,0.4-0.9c0.2-0.3,0.6-0.5,1-0.7l8.4-3.6c0.5-0.2,0.9-0.3,1.3-0.1c0.3,0.1,0.6,0.4,0.8,0.7c0.2,0.4,0.2,0.7,0,1.1
		S121.3,34.7,120.8,34.9z"/>
	<path class="st2" d="M131,43l2.1-6.5l-4.5-3.9c-0.4-0.4-0.8-0.7-1-1c-0.2-0.3-0.4-0.6-0.5-0.9c-0.1-0.3,0-0.6,0.2-1
		c0.2-0.3,0.5-0.6,0.9-0.7c0.5-0.1,0.9-0.1,1.2,0.1c0.3,0.2,0.8,0.6,1.5,1.2l3.7,3.3l1.5-4.8c0.1-0.4,0.2-0.7,0.3-1
		c0.1-0.3,0.2-0.5,0.3-0.7c0.1-0.2,0.2-0.4,0.4-0.5c0.2-0.1,0.3-0.2,0.6-0.3c0.4-0.1,0.8-0.1,1.1,0.1c0.3,0.2,0.6,0.4,0.7,0.8
		c0.1,0.5,0.1,1.3-0.3,2.3l-1.8,5.8l5.1,4.3c0.5,0.4,0.8,0.7,1,1c0.2,0.3,0.4,0.5,0.5,0.8c0.1,0.3,0.1,0.5,0,0.8
		c-0.1,0.3-0.2,0.5-0.4,0.7s-0.4,0.3-0.7,0.4c-0.3,0.1-0.6,0.1-0.9,0c-0.3-0.1-0.5-0.2-0.7-0.3c-0.2-0.2-0.6-0.5-1.1-0.9l-4.3-3.7
		l-1.7,5.6c-0.1,0.4-0.2,0.8-0.3,0.9c-0.1,0.2-0.1,0.4-0.2,0.5s-0.2,0.3-0.4,0.5s-0.4,0.2-0.6,0.3c-0.4,0.1-0.8,0.1-1.1-0.1
		c-0.3-0.2-0.6-0.5-0.7-1C130.6,44.7,130.7,44,131,43z"/>
	<path class="st2" d="M156.6,25.7l-3.7,0.7l2.2,12.3c0.1,0.7,0.1,1.3-0.2,1.7c-0.3,0.4-0.6,0.6-1.1,0.7c-0.5,0.1-1,0-1.3-0.3
		c-0.4-0.3-0.6-0.8-0.8-1.5l-2.2-12.3l-3.7,0.7c-0.6,0.1-1,0.1-1.4-0.2c-0.3-0.2-0.5-0.5-0.6-0.9c-0.1-0.4,0-0.8,0.3-1.1
		c0.3-0.3,0.7-0.5,1.2-0.6l10.9-1.9c0.6-0.1,1.1-0.1,1.4,0.2c0.3,0.2,0.5,0.5,0.6,1c0.1,0.4,0,0.8-0.3,1.1
		C157.6,25.4,157.2,25.6,156.6,25.7z"/>
	<path class="st2" d="M164.8,37.4l-1.1-13.5c-0.1-0.7,0.1-1.2,0.3-1.6c0.3-0.4,0.7-0.6,1.2-0.6c0.5,0,1,0.1,1.3,0.4s0.6,0.8,0.6,1.5
		l1.1,13.5c0.1,0.7-0.1,1.3-0.4,1.6c-0.3,0.4-0.7,0.6-1.2,0.6c-0.5,0-0.9-0.1-1.3-0.4C165,38.6,164.8,38.1,164.8,37.4z"/>
	<path class="st2" d="M178.8,23.1l6.5,10.2l0.2-10.2c0-0.7,0.2-1.2,0.5-1.5c0.3-0.3,0.7-0.5,1.2-0.5c0.5,0,0.9,0.2,1.2,0.5
		s0.4,0.8,0.4,1.5l-0.2,13.5c0,1.5-0.7,2.3-1.9,2.2c-0.3,0-0.6-0.1-0.8-0.1c-0.2-0.1-0.5-0.2-0.7-0.4s-0.4-0.4-0.6-0.7
		c-0.2-0.3-0.4-0.5-0.5-0.8l-6.4-10.1l-0.2,10.1c0,0.7-0.2,1.1-0.5,1.5s-0.7,0.5-1.2,0.5c-0.5,0-0.9-0.2-1.2-0.5
		c-0.3-0.3-0.4-0.8-0.4-1.5l0.2-13.3c0-0.6,0.1-1,0.2-1.3c0.2-0.3,0.4-0.6,0.8-0.8c0.3-0.2,0.7-0.3,1.1-0.3c0.3,0,0.6,0.1,0.8,0.2
		c0.2,0.1,0.4,0.2,0.6,0.4c0.2,0.2,0.3,0.4,0.5,0.7C178.5,22.5,178.6,22.8,178.8,23.1z"/>
	<path class="st2" d="M210.4,34.6l-0.5,3.3c-0.1,0.4-0.2,0.8-0.3,1c-0.1,0.2-0.3,0.5-0.6,0.6c-0.3,0.2-0.6,0.3-1,0.5
		c-1.1,0.4-2.2,0.6-3.2,0.8s-2,0.1-3.2-0.1c-1.3-0.2-2.5-0.6-3.5-1.2s-1.8-1.3-2.5-2.2c-0.6-0.9-1.1-1.9-1.3-3.1
		c-0.2-1.2-0.2-2.4,0-3.7c0.2-1.3,0.6-2.5,1.2-3.5c0.6-1,1.3-1.9,2.2-2.5c0.9-0.6,1.9-1.1,3.1-1.3c1.2-0.2,2.4-0.2,3.8,0
		c1.1,0.2,2.1,0.5,3,0.9c0.8,0.4,1.5,0.9,2,1.5c0.5,0.5,0.8,1.1,1,1.7c0.2,0.6,0.3,1,0.2,1.4c-0.1,0.4-0.3,0.8-0.7,1
		c-0.4,0.3-0.8,0.3-1.2,0.3c-0.2,0-0.5-0.1-0.7-0.3s-0.4-0.3-0.5-0.6c-0.3-0.7-0.6-1.3-0.8-1.7c-0.2-0.4-0.6-0.7-1.1-1
		c-0.5-0.3-1.1-0.5-1.9-0.6c-0.8-0.1-1.5-0.1-2.2,0.1c-0.7,0.2-1.3,0.5-1.8,0.9s-1,1-1.3,1.8S198.1,30,198,31
		c-0.3,2-0.1,3.6,0.7,4.8c0.7,1.2,1.9,2,3.6,2.2c0.8,0.1,1.6,0.1,2.3,0c0.7-0.1,1.5-0.3,2.3-0.6l0.4-2.8l-2.7-0.4
		c-0.6-0.1-1.1-0.3-1.4-0.5s-0.4-0.6-0.3-1.1c0.1-0.4,0.2-0.7,0.6-0.9s0.7-0.3,1.2-0.2l3.9,0.6c0.5,0.1,0.9,0.2,1.2,0.3
		c0.3,0.1,0.6,0.4,0.7,0.7C210.5,33.6,210.5,34,210.4,34.6z"/>
	<path class="st2" d="M216.2,35.9l2.4-7.9c0.2-0.7,0.5-1.1,0.9-1.4c0.4-0.2,0.9-0.3,1.3-0.1c0.5,0.2,0.9,0.4,1.1,0.9
		c0.2,0.4,0.2,1,0,1.7l-2.5,8.1c-0.3,0.9-0.4,1.7-0.4,2.4c0,0.7,0.2,1.3,0.7,1.8c0.4,0.5,1.1,0.9,2,1.2c1.3,0.4,2.3,0.3,3.1-0.2
		c0.7-0.5,1.3-1.5,1.8-2.9l2.5-8.2c0.2-0.7,0.5-1.1,0.9-1.4s0.9-0.3,1.4-0.1s0.9,0.4,1.1,0.9c0.2,0.4,0.2,1,0,1.7l-2.4,7.9
		c-0.4,1.3-0.8,2.3-1.4,3.1c-0.5,0.8-1.2,1.4-2.1,1.8c-0.8,0.4-1.6,0.6-2.5,0.6s-1.8-0.1-2.9-0.5c-1.3-0.4-2.3-0.9-3.1-1.4
		s-1.4-1.2-1.8-1.9s-0.6-1.6-0.6-2.6C215.6,38.2,215.8,37.1,216.2,35.9z"/>
	<path class="st2" d="M233.8,47.4l5.2-12.5c0.3-0.6,0.6-1.1,1.1-1.3c0.4-0.2,0.9-0.2,1.3,0c0.5,0.2,0.8,0.5,1,1
		c0.2,0.4,0.1,1-0.2,1.7l-5.2,12.5c-0.3,0.7-0.6,1.1-1.1,1.3s-0.9,0.2-1.4,0c-0.5-0.2-0.8-0.5-0.9-1C233.5,48.6,233.6,48,233.8,47.4
		z"/>
	<path class="st2" d="M255.6,54.3c-0.5,0.9-1.2,1.6-2,2.1c-0.9,0.5-1.9,0.7-3,0.6c-1.1-0.1-2.3-0.4-3.6-1.1
		c-1.5-0.8-2.6-1.7-3.2-2.8c-0.5-0.8-0.7-1.6-0.8-2.5c-0.1-0.9,0.1-1.7,0.4-2.3c0.2-0.4,0.5-0.6,0.9-0.7c0.4-0.1,0.8-0.1,1.2,0.1
		c0.3,0.2,0.5,0.4,0.7,0.7c0.1,0.3,0.1,0.7,0.1,1.2c-0.1,0.6-0.1,1.1,0,1.5c0.1,0.4,0.2,0.9,0.5,1.3s0.8,0.8,1.4,1.2
		c0.9,0.5,1.8,0.7,2.6,0.6s1.4-0.5,1.7-1.1c0.3-0.5,0.3-1,0.2-1.5s-0.4-0.9-0.8-1.4c-0.4-0.4-1-0.9-1.7-1.6c-1-0.8-1.7-1.6-2.3-2.4
		c-0.6-0.7-0.9-1.5-1-2.3s0.1-1.7,0.5-2.5c0.4-0.8,1.1-1.5,1.9-1.9c0.8-0.4,1.7-0.5,2.8-0.4c1,0.1,2.2,0.5,3.3,1.1
		c0.9,0.5,1.7,1,2.2,1.6c0.6,0.6,1,1.2,1.2,1.8s0.4,1.2,0.3,1.7c0,0.5-0.1,1-0.3,1.4c-0.2,0.4-0.5,0.6-0.9,0.8
		c-0.4,0.2-0.8,0.1-1.2-0.1c-0.4-0.2-0.6-0.4-0.7-0.7c-0.1-0.3-0.1-0.7-0.1-1.2c0-0.7-0.1-1.3-0.3-1.9s-0.7-1-1.6-1.5
		c-0.8-0.4-1.5-0.6-2.2-0.5c-0.7,0.1-1.1,0.4-1.4,0.9c-0.2,0.3-0.2,0.6-0.2,0.9c0,0.3,0.2,0.6,0.4,0.9s0.4,0.6,0.7,0.8
		s0.7,0.6,1.3,1.2c0.7,0.7,1.4,1.3,2,1.9c0.6,0.6,1,1.2,1.3,1.8s0.4,1.2,0.4,1.9C256.2,52.8,256,53.5,255.6,54.3z"/>
	<path class="st2" d="M268.8,50.8l-2.9,4l6.1,4.4l2.9-4c0.4-0.6,0.8-0.9,1.3-1c0.5-0.1,0.9,0,1.3,0.3c0.4,0.3,0.7,0.7,0.7,1.2
		c0.1,0.5-0.1,1-0.5,1.6l-7.9,11c-0.4,0.6-0.9,0.9-1.3,1c-0.5,0.1-0.9,0-1.3-0.3c-0.4-0.3-0.7-0.7-0.7-1.2s0.1-1,0.5-1.6l3.4-4.7
		l-6.1-4.4l-3.4,4.7c-0.4,0.6-0.9,0.9-1.3,1c-0.5,0.1-0.9,0-1.3-0.3c-0.4-0.3-0.7-0.7-0.7-1.2c0-0.5,0.1-1,0.5-1.6l7.9-11
		c0.4-0.6,0.8-0.9,1.3-1c0.5-0.1,0.9,0,1.3,0.3c0.4,0.3,0.7,0.7,0.7,1.2C269.4,49.7,269.2,50.2,268.8,50.8z"/>
	<path class="st2" d="M291.1,70.3l-5.7-5.3l-2.9,3.1l5.3,4.9c0.4,0.4,0.6,0.7,0.6,1.1c0,0.4-0.1,0.7-0.4,1s-0.6,0.4-0.9,0.4
		s-0.7-0.2-1.1-0.5l-5.3-4.9l-3.3,3.6l5.9,5.5c0.4,0.4,0.6,0.7,0.6,1.1c0,0.4-0.1,0.7-0.4,1c-0.3,0.3-0.6,0.4-1,0.4
		s-0.8-0.2-1.2-0.6l-6.9-6.4c-0.6-0.5-0.8-1-0.9-1.5c0-0.5,0.2-1,0.7-1.5l8.8-9.4c0.3-0.4,0.7-0.6,1-0.7s0.7-0.1,1,0s0.7,0.3,1,0.7
		l6.7,6.3c0.4,0.4,0.6,0.7,0.7,1.1s-0.1,0.7-0.4,1c-0.3,0.3-0.6,0.4-1,0.4C291.8,70.8,291.5,70.6,291.1,70.3z"/>
	<path class="st2" d="M294.2,84.2l-0.8-0.9l-4.2,3.5c-0.6,0.5-1.1,0.7-1.5,0.7c-0.5,0-0.9-0.2-1.2-0.6c-0.4-0.4-0.5-0.9-0.4-1.3
		c0.1-0.5,0.4-0.9,0.9-1.4l10.2-8.5c0.6-0.5,1.1-0.7,1.6-0.7c0.5,0,1,0.4,1.4,0.9l3.6,4.3c0.5,0.6,0.9,1.1,1.2,1.6
		c0.3,0.5,0.5,0.9,0.7,1.4c0.2,0.6,0.2,1.1,0.2,1.7c-0.1,0.6-0.2,1.1-0.5,1.7c-0.3,0.5-0.7,1-1.2,1.4c-1,0.8-2,1.2-3.1,1.1
		c-1.1-0.1-2.2-0.6-3.4-1.5c0.1,0.7,0.1,1.4,0,2.3c-0.1,0.8-0.3,1.7-0.6,2.5c-0.3,0.8-0.6,1.5-0.8,2c-0.3,0.6-0.5,0.9-0.7,1.1
		c-0.2,0.1-0.4,0.2-0.7,0.3c-0.3,0-0.5,0-0.8-0.1c-0.3-0.1-0.5-0.3-0.7-0.5c-0.3-0.3-0.4-0.6-0.4-0.9c0-0.3,0-0.6,0.1-1
		s0.2-0.8,0.5-1.4l0.9-2.6c0.3-0.9,0.5-1.7,0.6-2.3c0.1-0.6,0.1-1.1-0.1-1.5C294.9,85.2,294.6,84.7,294.2,84.2z M301,81.2l-2.1-2.5
		l-3.6,3l2,2.4c0.5,0.6,1,1.1,1.5,1.5s0.9,0.5,1.4,0.5c0.5,0,0.9-0.2,1.4-0.6c0.4-0.3,0.6-0.7,0.7-1.1c0.1-0.4,0.1-0.9,0-1.3
		C302.2,82.7,301.8,82.1,301,81.2z"/>
	<path class="st2" d="M314,104.9c-0.4-0.6-0.5-1.3-0.3-2c0.1-0.7,0.6-1.2,1.3-1.7c0.6-0.4,1.3-0.4,2-0.3c0.7,0.2,1.2,0.6,1.6,1.2
		c0.4,0.6,0.5,1.3,0.3,2c-0.2,0.7-0.6,1.2-1.2,1.6c-0.7,0.4-1.4,0.5-2.1,0.3C314.9,105.9,314.4,105.5,314,104.9z"/>
	<path class="st2" d="M320.2,116.7c-0.3-0.7-0.4-1.3-0.2-2c0.2-0.7,0.7-1.2,1.4-1.6c0.6-0.3,1.3-0.3,2-0.1c0.7,0.2,1.2,0.7,1.5,1.4
		c0.3,0.7,0.4,1.3,0.1,2s-0.7,1.2-1.3,1.5c-0.8,0.4-1.5,0.4-2.1,0.1S320.5,117.4,320.2,116.7z"/>
	<path class="st2" d="M325.9,130.5c-0.2-0.7-0.2-1.4,0-2c0.3-0.7,0.8-1.1,1.6-1.4c0.7-0.2,1.3-0.2,2,0.1s1.1,0.8,1.4,1.5
		c0.2,0.7,0.2,1.4-0.1,2c-0.3,0.7-0.8,1.1-1.5,1.4c-0.8,0.3-1.5,0.3-2.1-0.1C326.5,131.6,326.1,131.1,325.9,130.5z"/>
	<path class="st2" d="M329.8,143.2c-0.2-0.7-0.1-1.4,0.2-2c0.3-0.6,0.9-1.1,1.7-1.3c0.7-0.2,1.3-0.1,2,0.3s1,0.9,1.2,1.6
		c0.2,0.7,0.1,1.4-0.3,2c-0.4,0.6-0.9,1-1.6,1.2c-0.8,0.2-1.5,0.1-2.1-0.3C330.4,144.4,330,143.9,329.8,143.2z"/>
	<path class="st2" d="M332.6,156.2c-0.1-0.7,0-1.4,0.4-2c0.4-0.6,1-1,1.8-1.1c0.7-0.1,1.4,0,1.9,0.4c0.6,0.4,1,1,1.1,1.7
		s0,1.4-0.4,2c-0.4,0.6-1,1-1.7,1.1c-0.8,0.1-1.5,0-2.1-0.4S332.8,156.9,332.6,156.2z"/>
	<path class="st2" d="M334.4,169.5c-0.1-0.7,0.1-1.4,0.5-1.9c0.4-0.6,1.1-0.9,1.9-1c0.7-0.1,1.3,0.1,1.9,0.6
		c0.6,0.5,0.9,1.1,0.9,1.8c0.1,0.7-0.1,1.4-0.6,1.9s-1.1,0.9-1.8,0.9c-0.8,0.1-1.5-0.1-2-0.6C334.7,170.8,334.4,170.2,334.4,169.5z"
		/>
	<path class="st2" d="M334.9,181.2c0-0.7,0.2-1.4,0.7-1.9c0.5-0.5,1.1-0.8,2-0.8c0.7,0,1.3,0.2,1.9,0.7c0.5,0.5,0.8,1.1,0.8,1.9
		c0,0.7-0.2,1.4-0.7,1.9c-0.5,0.5-1.1,0.8-1.8,0.8c-0.8,0-1.5-0.2-2-0.8C335.2,182.5,334.9,181.9,334.9,181.2z"/>
	<path class="st2" d="M334.6,193.1c0-0.7,0.3-1.3,0.8-1.8c0.5-0.5,1.2-0.7,2-0.7c0.7,0,1.3,0.3,1.8,0.9c0.5,0.5,0.7,1.2,0.7,1.9
		c0,0.7-0.3,1.3-0.9,1.8s-1.2,0.7-1.9,0.7c-0.8-0.1-1.5-0.4-1.9-0.9S334.6,193.8,334.6,193.1z"/>
	<path class="st2" d="M333.4,204.9c0.1-0.7,0.4-1.3,1-1.8s1.2-0.6,2.1-0.5c0.7,0.1,1.3,0.4,1.7,1c0.4,0.6,0.6,1.2,0.5,2
		s-0.4,1.3-1,1.8c-0.6,0.4-1.2,0.6-1.9,0.5c-0.8-0.1-1.4-0.5-1.8-1C333.5,206.3,333.3,205.6,333.4,204.9z"/>
	<path class="st2" d="M331.3,216.6c0.2-0.7,0.5-1.3,1.1-1.7c0.6-0.4,1.3-0.5,2.1-0.4c0.7,0.2,1.2,0.5,1.6,1.1s0.5,1.3,0.4,2
		c-0.2,0.7-0.5,1.3-1.2,1.7s-1.3,0.5-2,0.4c-0.8-0.2-1.4-0.6-1.7-1.2C331.3,218,331.2,217.3,331.3,216.6z"/>
	<path class="st2" d="M328.3,228.1c0.2-0.7,0.6-1.2,1.2-1.6c0.6-0.4,1.3-0.4,2.1-0.2c0.7,0.2,1.2,0.6,1.5,1.3s0.4,1.3,0.2,2
		c-0.2,0.7-0.6,1.2-1.3,1.6c-0.6,0.4-1.3,0.4-2,0.2c-0.8-0.2-1.3-0.7-1.7-1.3C328.2,229.4,328.1,228.8,328.3,228.1z"/>
	<path class="st2" d="M324.5,239.3c0.3-0.7,0.7-1.2,1.3-1.5c0.6-0.3,1.3-0.3,2.1,0c0.7,0.3,1.2,0.7,1.4,1.4c0.3,0.7,0.3,1.3,0,2
		c-0.3,0.7-0.7,1.2-1.4,1.5c-0.7,0.3-1.3,0.3-2,0.1c-0.8-0.3-1.3-0.8-1.5-1.4C324.2,240.6,324.2,240,324.5,239.3z"/>
	<path class="st2" d="M319.8,250.2c0.3-0.7,0.8-1.1,1.4-1.4c0.6-0.3,1.4-0.2,2.1,0.1c0.6,0.3,1.1,0.8,1.3,1.5c0.2,0.7,0.2,1.3-0.1,2
		c-0.3,0.7-0.8,1.1-1.5,1.4c-0.7,0.3-1.4,0.2-2-0.1c-0.8-0.4-1.2-0.9-1.4-1.6C319.4,251.5,319.5,250.8,319.8,250.2z"/>
	<path class="st2" d="M314.3,260.7c0.4-0.6,0.9-1.1,1.5-1.3c0.7-0.2,1.4-0.1,2.1,0.3c0.6,0.4,1,0.9,1.2,1.6c0.2,0.7,0.1,1.4-0.3,2
		c-0.4,0.6-0.9,1.1-1.6,1.3c-0.7,0.2-1.4,0.1-2-0.2c-0.7-0.4-1.2-1-1.3-1.7C313.8,261.9,313.9,261.3,314.3,260.7z"/>
	<path class="st2" d="M308,270.7c0.4-0.6,1-1,1.6-1.2c0.7-0.2,1.4,0,2.1,0.5c0.6,0.4,1,1,1.1,1.7c0.1,0.7,0,1.4-0.4,2
		c-0.4,0.6-1,1-1.7,1.1s-1.4,0-2-0.4c-0.7-0.5-1.1-1.1-1.2-1.7C307.5,271.9,307.6,271.3,308,270.7z"/>
	<path class="st2" d="M301,280.3c0.5-0.6,1-0.9,1.7-1c0.7-0.1,1.4,0.1,2,0.6c0.6,0.4,0.9,1,1,1.7c0.1,0.7-0.1,1.4-0.6,1.9
		c-0.5,0.6-1.1,0.9-1.8,1s-1.4-0.1-1.9-0.5c-0.7-0.5-1-1.1-1-1.8C300.3,281.4,300.5,280.8,301,280.3z"/>
	<path class="st2" d="M293.2,289.2c0.5-0.5,1.1-0.8,1.8-0.9s1.4,0.2,2,0.8c0.5,0.5,0.8,1.1,0.8,1.8c0,0.7-0.2,1.4-0.7,1.9
		c-0.5,0.5-1.1,0.8-1.8,0.9s-1.4-0.2-1.9-0.7c-0.6-0.6-0.9-1.2-0.9-1.9C292.5,290.4,292.8,289.8,293.2,289.2z"/>
	<path class="st2" d="M284.9,297.6c0.5-0.5,1.2-0.7,1.9-0.8s1.3,0.3,1.9,0.9c0.5,0.5,0.7,1.1,0.7,1.9s-0.3,1.3-0.8,1.8
		c-0.5,0.5-1.2,0.7-1.9,0.7c-0.7,0-1.3-0.3-1.8-0.8c-0.6-0.6-0.8-1.3-0.8-2C284,298.7,284.3,298.1,284.9,297.6z"/>
	<path class="st2" d="M275.9,305.3c0.6-0.5,1.2-0.7,1.9-0.6c0.7,0,1.3,0.4,1.8,1c0.4,0.6,0.6,1.2,0.6,1.9c-0.1,0.7-0.4,1.3-1,1.8
		s-1.2,0.7-2,0.6c-0.7-0.1-1.3-0.4-1.8-1c-0.5-0.7-0.7-1.3-0.6-2C275,306.3,275.3,305.8,275.9,305.3z"/>
	<path class="st2" d="M266.3,312.3c0.6-0.4,1.3-0.6,2-0.5s1.3,0.5,1.8,1.2c0.4,0.6,0.5,1.2,0.4,2c-0.1,0.7-0.5,1.3-1.1,1.7
		s-1.3,0.6-2,0.4c-0.7-0.1-1.3-0.5-1.7-1.1c-0.5-0.7-0.6-1.4-0.5-2.1C265.3,313.3,265.7,312.7,266.3,312.3z"/>
	<path class="st2" d="M256.2,318.6c0.6-0.4,1.3-0.5,2-0.3c0.7,0.1,1.2,0.6,1.7,1.3c0.4,0.6,0.4,1.3,0.3,2c-0.2,0.7-0.6,1.2-1.2,1.6
		c-0.6,0.4-1.3,0.5-2,0.3s-1.2-0.6-1.6-1.2c-0.4-0.7-0.5-1.4-0.3-2.1C255.2,319.5,255.6,319,256.2,318.6z"/>
	<path class="st2" d="M245.7,324.1c0.7-0.3,1.3-0.4,2-0.2c0.7,0.2,1.2,0.7,1.6,1.4c0.3,0.6,0.3,1.3,0.1,2c-0.2,0.7-0.7,1.2-1.4,1.5
		c-0.7,0.3-1.3,0.4-2,0.1c-0.7-0.2-1.2-0.7-1.5-1.3c-0.4-0.8-0.4-1.5-0.1-2.1C244.7,324.9,245.1,324.4,245.7,324.1z"/>
	<path class="st2" d="M234.8,328.8c0.7-0.3,1.3-0.3,2,0s1.1,0.8,1.4,1.6c0.3,0.7,0.2,1.3,0,2s-0.8,1.1-1.5,1.4s-1.4,0.3-2,0
		c-0.7-0.3-1.1-0.8-1.4-1.5c-0.3-0.8-0.3-1.5,0-2.1C233.7,329.5,234.2,329,234.8,328.8z"/>
	<path class="st2" d="M223.6,332.6c0.7-0.2,1.4-0.2,2,0.1s1.1,0.9,1.3,1.7c0.2,0.7,0.1,1.3-0.2,2c-0.3,0.6-0.9,1.1-1.6,1.3
		c-0.7,0.2-1.4,0.1-2-0.2s-1.1-0.9-1.3-1.6c-0.2-0.8-0.2-1.5,0.2-2.1C222.4,333.2,222.9,332.8,223.6,332.6z"/>
	<path class="st2" d="M212.1,335.6c0.7-0.2,1.4-0.1,2,0.3c0.6,0.3,1,0.9,1.2,1.8c0.2,0.7,0,1.4-0.3,2c-0.4,0.6-0.9,1-1.7,1.2
		c-0.7,0.2-1.4,0-2-0.3c-0.6-0.4-1-0.9-1.2-1.6c-0.2-0.8-0.1-1.5,0.3-2.1C210.9,336.1,211.5,335.7,212.1,335.6z"/>
	<path class="st2" d="M200.5,337.6c0.7-0.1,1.4,0,2,0.4s0.9,1,1.1,1.8c0.1,0.7-0.1,1.4-0.5,1.9c-0.4,0.6-1,0.9-1.7,1
		c-0.7,0.1-1.4-0.1-2-0.5c-0.6-0.4-0.9-1-1-1.7c-0.1-0.8,0.1-1.5,0.5-2C199.2,338,199.8,337.7,200.5,337.6z"/>
	<path class="st2" d="M188.7,338.8c0.7,0,1.4,0.2,1.9,0.6c0.6,0.4,0.9,1.1,0.9,1.9c0,0.7-0.2,1.3-0.6,1.9c-0.5,0.5-1.1,0.8-1.8,0.9
		c-0.7,0-1.4-0.2-1.9-0.6c-0.6-0.5-0.9-1.1-0.9-1.8c-0.1-0.8,0.2-1.5,0.7-2S188,338.8,188.7,338.8z"/>
	<path class="st2" d="M176.8,339.1c0.7,0,1.3,0.3,1.9,0.7c0.5,0.5,0.8,1.1,0.8,2c0,0.7-0.3,1.3-0.8,1.8c-0.5,0.5-1.1,0.8-1.9,0.7
		c-0.7,0-1.4-0.3-1.9-0.8c-0.5-0.5-0.8-1.1-0.8-1.9c0-0.8,0.3-1.5,0.8-1.9C175.5,339.3,176.1,339.1,176.8,339.1z"/>
	<path class="st2" d="M165,338.5c0.7,0.1,1.3,0.4,1.8,0.9c0.5,0.5,0.7,1.2,0.6,2c-0.1,0.7-0.4,1.3-0.9,1.8c-0.5,0.5-1.2,0.7-1.9,0.6
		s-1.3-0.4-1.8-0.9c-0.5-0.6-0.7-1.2-0.6-1.9c0.1-0.8,0.4-1.5,1-1.9C163.7,338.6,164.3,338.4,165,338.5z"/>
	<path class="st2" d="M153.2,337c0.7,0.1,1.3,0.5,1.7,1s0.6,1.2,0.5,2.1c-0.1,0.7-0.5,1.3-1,1.7c-0.6,0.4-1.2,0.6-2,0.5
		c-0.7-0.1-1.3-0.5-1.7-1.1c-0.4-0.6-0.6-1.2-0.5-2c0.1-0.8,0.5-1.4,1.1-1.8S152.5,336.9,153.2,337z"/>
	<path class="st2" d="M141.6,334.6c0.7,0.2,1.3,0.5,1.7,1.1c0.4,0.6,0.5,1.3,0.3,2.1c-0.2,0.7-0.6,1.2-1.2,1.6
		c-0.6,0.4-1.3,0.5-2,0.3c-0.7-0.2-1.3-0.6-1.7-1.2s-0.5-1.3-0.3-2c0.2-0.8,0.6-1.4,1.2-1.7C140.3,334.5,140.9,334.5,141.6,334.6z"
		/>
	<path class="st2" d="M130.2,331.4c0.7,0.2,1.2,0.6,1.6,1.3c0.4,0.6,0.4,1.3,0.1,2.1c-0.2,0.7-0.7,1.2-1.3,1.5
		c-0.6,0.3-1.3,0.4-2,0.2c-0.7-0.2-1.2-0.7-1.6-1.3c-0.3-0.6-0.4-1.3-0.2-2c0.3-0.8,0.7-1.3,1.4-1.6
		C128.9,331.2,129.6,331.1,130.2,331.4z"/>
	<path class="st2" d="M119.1,327.3c0.7,0.3,1.2,0.7,1.5,1.4c0.3,0.6,0.3,1.3,0,2.1c-0.3,0.7-0.7,1.1-1.4,1.4c-0.7,0.3-1.3,0.3-2,0
		c-0.7-0.3-1.2-0.8-1.5-1.4c-0.3-0.7-0.3-1.3,0-2c0.3-0.8,0.8-1.3,1.5-1.5C117.8,327,118.5,327,119.1,327.3z"/>
	<path class="st2" d="M108.4,322.3c0.6,0.3,1.1,0.8,1.4,1.5c0.3,0.7,0.2,1.4-0.2,2.1c-0.3,0.6-0.8,1.1-1.5,1.3
		c-0.7,0.2-1.4,0.2-2-0.2c-0.7-0.3-1.1-0.8-1.3-1.5s-0.2-1.4,0.1-2c0.4-0.7,0.9-1.2,1.6-1.4C107.1,321.9,107.7,322,108.4,322.3z"/>
	<path class="st2" d="M98,316.5c0.6,0.4,1,0.9,1.2,1.6c0.2,0.7,0.1,1.4-0.3,2.1c-0.4,0.6-0.9,1-1.6,1.2c-0.7,0.2-1.4,0.1-2-0.3
		c-0.6-0.4-1-0.9-1.2-1.6s-0.1-1.4,0.3-2c0.4-0.7,1-1.1,1.7-1.3C96.7,316,97.4,316.2,98,316.5z"/>
	<path class="st2" d="M88.1,310c0.6,0.4,1,1,1.1,1.7c0.2,0.7,0,1.4-0.5,2.1c-0.4,0.6-1,0.9-1.7,1.1c-0.7,0.1-1.4,0-2-0.5
		c-0.6-0.4-1-1-1.1-1.7c-0.1-0.7,0-1.4,0.4-2c0.5-0.7,1.1-1.1,1.8-1.1S87.5,309.6,88.1,310z"/>
	<path class="st2" d="M78.7,302.7c0.6,0.5,0.9,1,1,1.7c0.1,0.7-0.1,1.4-0.7,2c-0.5,0.5-1,0.9-1.8,0.9c-0.7,0.1-1.4-0.1-1.9-0.6
		c-0.6-0.5-0.9-1.1-1-1.8c-0.1-0.7,0.1-1.4,0.6-1.9c0.5-0.6,1.2-1,1.9-1C77.6,302.1,78.2,302.3,78.7,302.7z"/>
	<path class="st2" d="M70,294.8c0.5,0.5,0.8,1.1,0.9,1.8c0.1,0.7-0.2,1.4-0.8,2c-0.5,0.5-1.1,0.8-1.8,0.8c-0.7,0-1.3-0.2-1.9-0.7
		s-0.8-1.1-0.8-1.9c0-0.7,0.2-1.4,0.7-1.9c0.6-0.6,1.2-0.9,1.9-0.9C68.8,294,69.4,294.3,70,294.8z"/>
	<path class="st2" d="M61.8,286.2c0.5,0.5,0.7,1.2,0.7,1.9c0,0.7-0.3,1.3-1,1.9c-0.5,0.5-1.2,0.7-1.9,0.7c-0.7,0-1.3-0.3-1.8-0.9
		s-0.7-1.2-0.7-1.9c0-0.7,0.3-1.3,0.9-1.8c0.6-0.5,1.3-0.8,2-0.7C60.7,285.4,61.3,285.7,61.8,286.2z"/>
	<path class="st2" d="M54.3,277c0.4,0.6,0.6,1.2,0.6,1.9c-0.1,0.7-0.4,1.3-1.1,1.8c-0.6,0.4-1.2,0.6-1.9,0.5c-0.7-0.1-1.3-0.4-1.7-1
		s-0.6-1.2-0.5-2s0.4-1.3,1-1.7c0.7-0.5,1.3-0.7,2-0.6C53.3,276.1,53.9,276.5,54.3,277z"/>
	<path class="st2" d="M47.5,267.3c0.4,0.6,0.5,1.3,0.4,2c-0.1,0.7-0.5,1.3-1.2,1.7c-0.6,0.4-1.3,0.5-2,0.4c-0.7-0.1-1.3-0.5-1.7-1.1
		c-0.4-0.6-0.5-1.3-0.4-2c0.1-0.7,0.5-1.3,1.1-1.7c0.7-0.5,1.4-0.6,2.1-0.4C46.6,266.3,47.1,266.7,47.5,267.3z"/>
	<path class="st2" d="M41.5,257.1c0.3,0.6,0.4,1.3,0.3,2c-0.2,0.7-0.6,1.2-1.4,1.6c-0.6,0.3-1.3,0.4-2,0.2c-0.7-0.2-1.2-0.6-1.6-1.3
		c-0.4-0.6-0.4-1.3-0.2-2c0.2-0.7,0.6-1.2,1.3-1.6c0.7-0.4,1.4-0.5,2.1-0.2C40.7,256.1,41.2,256.5,41.5,257.1z"/>
	<path class="st2" d="M36.3,246.5c0.3,0.7,0.3,1.3,0.1,2c-0.2,0.7-0.7,1.2-1.5,1.5c-0.7,0.3-1.3,0.3-2,0.1c-0.7-0.2-1.2-0.7-1.5-1.4
		c-0.3-0.7-0.3-1.4-0.1-2c0.3-0.7,0.7-1.2,1.4-1.5c0.8-0.3,1.5-0.4,2.1-0.1C35.5,245.4,36,245.8,36.3,246.5z"/>
	<path class="st2" d="M31.9,235.5c0.2,0.7,0.2,1.4,0,2s-0.8,1.1-1.6,1.4c-0.7,0.2-1.3,0.2-2-0.1c-0.7-0.3-1.1-0.8-1.4-1.5
		c-0.2-0.7-0.2-1.4,0.1-2c0.3-0.7,0.8-1.1,1.5-1.4c0.8-0.3,1.5-0.3,2.1,0.1C31.2,234.3,31.6,234.8,31.9,235.5z"/>
	<path class="st2" d="M28.3,224.1c0.2,0.7,0.1,1.4-0.2,2c-0.3,0.6-0.9,1.1-1.7,1.3c-0.7,0.2-1.3,0.1-2-0.2s-1-0.9-1.2-1.6
		c-0.2-0.7-0.1-1.4,0.2-2c0.4-0.6,0.9-1.1,1.6-1.2c0.8-0.2,1.5-0.1,2.1,0.2C27.7,222.9,28.1,223.5,28.3,224.1z"/>
	<path class="st2" d="M25.6,212.6c0.1,0.7,0,1.4-0.3,2s-1,1-1.8,1.1c-0.7,0.1-1.4,0-2-0.4s-1-1-1.1-1.7c-0.1-0.7,0-1.4,0.4-2
		s1-1,1.7-1.1c0.8-0.2,1.5,0,2.1,0.4C25.1,211.4,25.5,211.9,25.6,212.6z"/>
	<path class="st2" d="M23.8,200.9c0.1,0.7-0.1,1.4-0.5,1.9s-1,0.9-1.9,1c-0.7,0.1-1.3-0.1-1.9-0.5c-0.6-0.4-0.9-1-1-1.8
		c-0.1-0.7,0.1-1.4,0.5-2c0.4-0.6,1-0.9,1.8-1c0.8-0.1,1.5,0.1,2,0.6C23.4,199.6,23.8,200.2,23.8,200.9z"/>
	<path class="st2" d="M22.9,189.1c0,0.7-0.2,1.4-0.6,1.9s-1.1,0.8-1.9,0.9c-0.7,0-1.3-0.2-1.9-0.7c-0.5-0.5-0.8-1.1-0.8-1.8
		c0-0.7,0.2-1.4,0.7-1.9c0.5-0.5,1.1-0.8,1.8-0.9c0.8,0,1.5,0.2,2,0.7S22.9,188.4,22.9,189.1z"/>
	<path class="st2" d="M22.9,177.2c0,0.7-0.3,1.3-0.8,1.9c-0.5,0.5-1.2,0.7-2,0.7c-0.7,0-1.3-0.3-1.8-0.8c-0.5-0.5-0.7-1.2-0.7-1.9
		s0.3-1.4,0.8-1.9c0.5-0.5,1.2-0.7,1.9-0.7c0.8,0,1.5,0.3,1.9,0.9C22.7,175.9,23,176.5,22.9,177.2z"/>
</g>
<g>
	<path class="st3" d="M213.3,313.2h-76V119.5c0-21,17-38,38-38h0c21,0,38,17,38,38V313.2z"/>
	<path class="st4" d="M180.8,84.3V64.9h49.1c3.9,0,4.6,5.5,0.8,6.5L180.8,84.3z"/>
	<path class="st4" d="M180.8,76.5v19.4h49.1c3.9,0,4.6-5.5,0.8-6.5L180.8,76.5z"/>
	<circle class="st5" cx="175.8" cy="80.5" r="15"/>
	<path class="st6" d="M192.6,160.4c0,15,11.4,29,24.4,30.2c16.9,1.5,34.6-13.5,51.2-14.2v34.7c-14.9,0.6-30.3-11.6-45.2-12.8
		c-11.1-0.9-18.4-4.2-26-12.8c-6-6.8-11.6-16.5-9-25.5"/>
	<path class="st7" d="M159.2,262.4h-9c-7.2,0-13-5.8-13-13v-97.5c0-7.2,5.8-13,13-13h9c7.2,0,13,5.8,13,13v97.5
		C172.2,256.6,166.4,262.4,159.2,262.4z"/>
	<path class="st6" d="M194,137.9c-0.1-4.9-1.7-9.2-5.6-12.3c-10.1-8-25.9-4.5-37.5-3.3c-11.2,1.2-41.9,2.9-33.4-17.6
		c5.9-14,26.3-19.5,39.9-19.8c3.2-0.1,3.2-5.1,0-5c-14,0.3-29.8,5.1-39.7,15.6c-8.9,9.5-8.8,24.6,4.2,30.1
		c14.9,6.3,32.4,0.3,47.8,0.1c6.5-0.1,16.1,0.8,18.6,8.1c1.4,4.2,0.3,9.6,0,14c-0.3,4.6-0.6,9.1-0.9,13.7c-0.2,3.2,4.8,3.2,5,0
		C193,153.7,194.2,145.7,194,137.9z"/>
</g>
</svg>
