<svg xmlns="http://www.w3.org/2000/svg" id="Layer_1" viewBox="0 0 700 700"><style>.st0{fill:#fdb614}.st2{fill:#f05867}.st36{fill:#6f55a4;stroke:#6f55a4;stroke-miterlimit:10}</style><switch><g><circle class="st0" cx="349.6" cy="339.6" r="335.1"/><circle class="st0" cx="350.9" cy="340.9" r="237.6"/><path class="st2" d="M245.9 355h86.8v31h-86.8z"/><path d="M358.4 304.6v-96c0-10.6-8.7-19.2-19.2-19.2-3.8 0-7.7 1.2-10.6 3.3v-31c0-10.6-8.7-19.2-19.2-19.2-4.4 0-8.7 1.5-11.7 4-2.7-7.3-9.8-12.7-18.1-12.7-10.6 0-19.2 8.7-19.2 19.2v1.2c-3.1-2.1-6.7-3.3-10.6-3.3-10.6 0-19.2 8.7-19.2 19.2v5.4c-1.5 7.7-.8 16.5 0 24.6v45.4c-3.8-7.9-8.7-15.6-14-20.8-6.9-6.9-20.6-7.3-28.1-1-2.5 2.1-9.6 10 .2 23.7 9.2 12.7 16.4 41.2 16.4 57.3 0 34.2 22.3 49.6 29.8 53.9v18.7c0 7.1 5.8 12.9 12.9 12.9H333c7.1 0 12.9-5.8 12.9-12.9v-20c12.7-17.4 12.7-19.3 12.5-52.7zm-98.1 68.2c0 2.3-1.9 4.2-4.2 4.2-2.3 0-4.2-1.9-4.2-4.2v-4.2c0-2.3 1.9-4.2 4.2-4.2 2.3 0 4.2 1.9 4.2 4.2v4.2zm17.2 0c0 2.3-1.9 4.2-4.2 4.2-2.3 0-4.2-1.9-4.2-4.2v-4.2c0-2.3 1.9-4.2 4.2-4.2 2.3 0 4.2 1.9 4.2 4.2v4.2zm17.1 0c0 2.3-1.9 4.2-4.2 4.2s-4.2-1.9-4.2-4.2v-4.2c0-2.3 1.9-4.2 4.2-4.2s4.2 1.9 4.2 4.2v4.2zm16.9 0c0 2.3-1.9 4.2-4.2 4.2-2.3 0-4.2-1.9-4.2-4.2v-4.2c0-2.3 1.9-4.2 4.2-4.2 2.3 0 4.2 1.9 4.2 4.2v4.2zm17.1 0c0 2.3-1.9 4.2-4.2 4.2s-4.2-1.9-4.2-4.2v-4.2c0-2.3 1.9-4.2 4.2-4.2s4.2 1.9 4.2 4.2v4.2z" fill-rule="evenodd" clip-rule="evenodd" fill="#fff"/><path class="st2" d="M380.2 313v60c-4.8 1.5-8.7 3.8-11.2 8.7-1.9 3.8-1.9 8.3-.6 12.1-23.7 19.4-62.9 20.2-91.6 28.5-8.7 2.5-28.3 7.3-26.2 19.6h-10.4l-11.9 68.9h244.9V312.6h-93.1v.4zm-5.8 129.1c1.9-.2 3.8-.4 5.6-1v1h-5.6z"/><path d="M374.4 359c0 30.2-42.1 54.8-69.6 54.8h-5c-41.2 0-74.6 33.5-74.6 74.6v30c0 2.7 2.3 5 5 5h10c2.7 0 5-2.3 5-5v-5h10v5c0 2.7 2.3 5 5 5h10c2.7 0 5-2.3 5-5v-5h10v5c0 2.7 2.3 5 5 5h10c2.7 0 5-2.3 5-5v-5h10v5c0 2.7 2.3 5 5 5h10c2.7 0 5-2.3 5-5v-5h10v5c0 2.7 2.3 5 5 5h10c2.7 0 5-2.3 5-5v-5h10v5c0 2.7 2.3 5 5 5h10c2.7 0 5-2.3 5-5v-5h10v5c0 2.7 2.3 5 5 5h10c2.7 0 5-2.3 5-5v-5h10v5c0 2.7 2.3 5 5 5h10c2.7 0 5-2.3 5-5v-5h10v5c0 2.7 2.3 5 5 5h10c2.7 0 5-2.3 5-5V335.3l19.4-38.9c.8-1.5.8-3.5-.2-4.8-1-1.5-2.5-2.3-4.2-2.3h-20c-2.7 0-5 2.3-5 5v10H375m99 199.2H234.9v-10H474v10zm0-19.9H235.1c2.7-33.7 30.8-59.6 64.6-59.8h5c3.3 0 6.5-.4 9.8-1l10-2.1c6-1.7 11.7-4 17.3-6.7l4.6 10.8c-1 .8 10.2-4 9.2-3.8l-5-11.7c4.6-2.9 9-6.2 13.1-9.8l9.2 10.2c-.6 1.2 8.1-7.1 7.3-6.7l-9.6-10.4c3.5-4 6.5-8.5 8.8-13.3l11.5 5.4c-.2 2.3 5.4-10.2 4.2-9l-12.5-5.8c1-3.3 1.3-6.7 1.3-10.4v-5h11c1.2 3.1.8-12.1 0-10h-11v-20.2h89.6v159.5h.5zM484.1 313v-13.9h6.9l-6.9 13.9z" fill="#6f55a4"/><path d="M329.6 373.8c0 2.3-1.9 4.2-4.2 4.2s-4.2-1.9-4.2-4.2v-4.2c0-2.3 1.9-4.2 4.2-4.2s4.2 1.9 4.2 4.2v4.2zm-17.1 0c0 2.3-1.9 4.2-4.2 4.2-2.3 0-4.2-1.9-4.2-4.2v-4.2c0-2.3 1.9-4.2 4.2-4.2 2.3 0 4.2 1.9 4.2 4.2v4.2zm-16.9 0c0 2.3-1.9 4.2-4.2 4.2s-4.2-1.9-4.2-4.2v-4.2c0-2.3 1.9-4.2 4.2-4.2s4.2 1.9 4.2 4.2v4.2zm-17.1 0c0 2.3-1.9 4.2-4.2 4.2-2.3 0-4.2-1.9-4.2-4.2v-4.2c0-2.3 1.9-4.2 4.2-4.2 2.3 0 4.2 1.9 4.2 4.2v4.2zm-17.2 0c0 2.3-1.9 4.2-4.2 4.2-2.3 0-4.2-1.9-4.2-4.2v-4.2c0-2.3 1.9-4.2 4.2-4.2 2.3 0 4.2 1.9 4.2 4.2v4.2zm-46.9-68.2c0-15.6-6.7-46.9-17.9-62.1-2.7-3.8-5.2-9-1.5-12.1 4-3.5 12.9-3.1 16.5.6 10.6 10.6 20 33.5 20 43.9 0 2.3 1.9 4.2 4.2 4.2 2.3 0 4.2-1.9 4.2-4.2V171.3c0-6 4.8-10.6 10.6-10.6 6 0 10.6 4.8 10.6 10.6v78.9c0 2.3 1.9 4.2 4.2 4.2 2.3 0 4.2-1.9 4.2-4.2v-96c0-6 4.8-10.6 10.6-10.6 6 0 10.6 4.8 10.6 10.6v100.3c0 2.3 1.9 4.2 4.2 4.2s4.2-1.9 4.2-4.2v-92.1c.2-5.8 5-10.2 10.6-10.2 6 0 10.6 4.8 10.6 10.6v100.1c0 2.3 1.9 4.2 4.2 4.2 2.3 0 4.2-1.9 4.2-4.2v-53.7c.2-5.8 5-10.2 10.6-10.2 6 0 10.6 4.8 10.6 10.6v96c0 31.5 0 32.7-10.8 46.9h-98.3c-4.3-2.3-26.4-15.2-26.4-46.9zm145 0v-96c0-10.6-8.7-19.2-19.2-19.2-3.8 0-7.7 1.2-10.6 3.3v-31c0-10.6-8.7-19.2-19.2-19.2-4.4 0-8.7 1.5-11.7 4-2.7-7.3-9.8-12.7-18.1-12.7-10.6 0-19.2 8.7-19.2 19.2v1.2c-3.1-2.1-6.7-3.3-10.6-3.3-10.6 0-19.2 8.7-19.2 19.2v75.4c-3.8-7.9-8.7-15.6-14-20.8-6.9-6.9-20.6-7.3-28.1-1-2.5 2.1-9.6 10 .2 23.7 9.2 12.7 16.4 41.2 16.4 57.3 0 34.2 22.3 49.6 29.8 53.9v18.7c0 7.1 5.8 12.9 12.9 12.9H334c7.1 0 12.9-5.8 12.9-12.9v-20c12.7-17.4 12.7-19.3 12.5-52.7z" fill-rule="evenodd" clip-rule="evenodd" fill="#6f55a4" transform="translate(-1 -1)"/><path d="M626.8 347.3c0 153.5-124.5 278-278 278s-278-124.5-278-278 124.5-278 278-278 278 124.5 278 278z" fill="none" id="SVGID_x5F_13_x5F_"/><path class="st36" d="M50.4 300.6c-.2 1.4-.8 2.5-1.9 3.4-1 .9-2.4 1.2-4 1-1.4-.2-2.5-.8-3.3-2-.8-1.1-1.2-2.4-1-3.8.2-1.4.9-2.5 2-3.4 1.1-.9 2.4-1.2 3.7-1 1.6.2 2.8.9 3.5 2 .9 1.2 1.2 2.5 1 3.8zM54.6 278.2c-.3 1.4-1 2.4-2.1 3.2-1.1.8-2.4 1-4 .7-1.3-.3-2.4-1-3.1-2.2-.8-1.2-1-2.4-.7-3.8s1.1-2.5 2.2-3.2c1.2-.8 2.4-1 3.8-.7 1.6.4 2.7 1.1 3.3 2.3.7 1.1.9 2.4.6 3.7zM60.4 256.2c-.4 1.3-1.2 2.4-2.4 3.1-1.2.7-2.5.8-4.1.3-1.3-.4-2.3-1.2-3-2.4-.7-1.2-.8-2.5-.4-3.9s1.2-2.4 2.5-3c1.2-.7 2.5-.8 3.9-.4 1.5.5 2.6 1.3 3.2 2.5.6 1.2.7 2.5.3 3.8zM67.9 234.7c-.5 1.3-1.4 2.3-2.6 2.9-1.2.6-2.6.6-4.1 0-1.3-.5-2.2-1.4-2.8-2.7-.6-1.3-.6-2.6-.1-3.9.5-1.3 1.4-2.3 2.7-2.8s2.6-.6 3.9-.1c1.5.6 2.5 1.5 3 2.8.5 1.3.5 2.5 0 3.8zM77.1 213.8c-.6 1.3-1.5 2.1-2.8 2.7-1.3.5-2.6.4-4.1-.3-1.2-.6-2.1-1.6-2.6-2.9-.5-1.3-.4-2.6.2-3.9.6-1.3 1.6-2.2 2.9-2.6 1.3-.5 2.6-.4 3.9.2 1.4.7 2.4 1.7 2.7 3 .5 1.3.4 2.5-.2 3.8zM87.8 193.6c-.7 1.2-1.7 2-3 2.4-1.3.4-2.6.2-4-.6-1.2-.7-2-1.7-2.3-3-.4-1.3-.2-2.6.5-3.8.7-1.2 1.7-2 3.1-2.4 1.4-.4 2.6-.2 3.8.5 1.4.8 2.2 1.9 2.5 3.2.3 1.3.1 2.5-.6 3.7zM132.2 147.3l4.9 4c.6.5 1.1 1 1.4 1.5.3.4.4 1 .5 1.6 0 .6 0 1.3-.2 2.1-.4 2.2-1 4.2-1.8 6-.8 1.7-1.9 3.5-3.3 5.1-1.6 2-3.4 3.5-5.3 4.6-1.9 1.1-3.9 1.8-6 2-2.1.2-4.2-.1-6.3-.8-2.1-.7-4.2-1.9-6.2-3.6-2-1.6-3.6-3.4-4.7-5.4-1.2-1.9-1.8-4-2-6.1s.1-4.2.8-6.4c.7-2.1 2-4.3 3.7-6.4 1.4-1.7 2.9-3 4.4-4 1.5-.9 3-1.5 4.4-1.8 1.4-.3 2.6-.3 3.7 0 1.1.2 2 .6 2.6 1.1.6.5 1 1.2 1.1 2.1.1.9-.2 1.6-.7 2.3-.3.4-.7.7-1.1.9s-.9.3-1.4.3c-1.5-.2-2.7-.3-3.6-.2-.9 0-1.8.3-2.8.7-1 .5-1.9 1.3-2.9 2.4-1 1.2-1.7 2.4-2 3.7-.4 1.3-.4 2.6-.2 3.9.2 1.3.8 2.6 1.6 3.9.8 1.3 2 2.5 3.3 3.6 3 2.5 5.9 3.7 8.6 3.6 2.7 0 5.1-1.3 7.2-3.8 1-1.2 1.8-2.4 2.3-3.8.6-1.3 1-2.7 1.3-4.3l-4.1-3.4-3.3 4c-.8 1-1.5 1.6-2.2 1.8-.7.3-1.4.1-2.1-.5-.6-.5-.9-1.1-.9-1.8s.2-1.4.8-2.1l4.8-5.9c.6-.7 1.2-1.3 1.7-1.7.5-.4 1.2-.6 1.8-.5.6.2 1.4.6 2.2 1.3zM133.9 123.1l16.5 17.5 9.9-9.3c.8-.7 1.6-1.1 2.4-1.1.8 0 1.4.3 2 .8.6.6.8 1.3.7 2-.1.8-.5 1.5-1.3 2.3l-11.8 11.1c-1.1 1-2 1.5-3 1.5-.9 0-1.9-.6-2.8-1.6L129 127.7c-.9-1-1.4-1.9-1.4-2.8 0-.9.3-1.7 1.1-2.4.7-.7 1.6-1 2.5-.9.8 0 1.7.5 2.7 1.5zM162.2 93.8c2.8-2 5.5-3.2 8.3-3.6 2.8-.3 5.5.1 8 1.4s4.8 3.4 6.9 6.1c1.5 2.1 2.6 4.1 3.3 6.2.7 2.1.9 4.2.7 6.2-.2 2.1-.9 4-2 5.9-1.1 1.9-2.7 3.5-4.8 5.1-2.1 1.5-4.2 2.6-6.3 3.1-2.1.5-4.2.6-6.2.2-2-.4-3.9-1.3-5.8-2.6-1.8-1.3-3.5-2.9-5-4.9-1.5-2-2.6-4.1-3.3-6.3s-.9-4.2-.7-6.2c.2-2 .9-3.9 2-5.7 1.3-1.7 2.9-3.4 4.9-4.9zm17.8 8c-1.4-1.9-3-3.4-4.7-4.4-1.7-1-3.4-1.4-5.1-1.2-1.7.1-3.3.8-4.8 1.9-1.1.8-1.9 1.7-2.5 2.8-.6 1.1-1 2.3-1.1 3.5-.1 1.3.1 2.6.6 4.1.5 1.5 1.3 3 2.4 4.5 1.1 1.5 2.3 2.7 3.6 3.7 1.3.9 2.6 1.6 3.9 1.8 1.3.3 2.5.3 3.7 0 1.2-.3 2.3-.8 3.4-1.6 1.4-1 2.4-2.3 3-3.8.6-1.5.8-3.3.4-5.2-.3-1.9-1.3-4-2.8-6.1zM191.9 79.3L209.2 95l-4.3-23.2c-.2-1.2-.4-2.1-.4-2.6s0-1 .2-1.6c.2-.5.7-1 1.3-1.4.5-.3 1-.4 1.6-.4.6 0 1.1.2 1.6.4.5.3.8.6 1.1 1 .2.3.3.6.4 1 .1.4.2.8.3 1.1.1.4.1.8.2 1.2l3.5 22.8c.2.9.3 1.7.4 2.5.1.8.1 1.5.1 2.2s-.3 1.3-.6 1.9c-.4.6-.9 1.1-1.7 1.6-.8.4-1.5.7-2.3.6-.7 0-1.4-.2-2-.5-.6-.3-1.2-.7-1.8-1.2-.6-.5-1.2-1-1.9-1.6l-17.3-14.9c-.3-.3-.6-.5-.9-.8l-.9-.9c-.3-.3-.5-.6-.7-.9-.4-.7-.4-1.4-.2-2.3.2-.9.8-1.5 1.6-2 1-.6 1.9-.6 2.6-.3.7.8 1.6 1.5 2.8 2.6zM242.4 56.9l-14 5.6 3 7.5 12.9-5.2c.9-.4 1.7-.5 2.4-.2s1.1.7 1.4 1.4c.3.7.3 1.4 0 2s-.9 1.1-1.9 1.5l-12.9 5.2 3.5 8.7 14.5-5.8c1-.4 1.8-.5 2.5-.2s1.2.8 1.5 1.5c.3.7.3 1.4 0 2.1-.3.7-1 1.2-1.9 1.6l-16.9 6.8c-1.4.5-2.4.6-3.3.3-.8-.4-1.5-1.2-2.1-2.5l-9.3-23c-.4-.9-.5-1.7-.5-2.3 0-.7.3-1.2.7-1.7.5-.5 1.1-.9 2-1.3l16.4-6.6c1-.4 1.8-.5 2.5-.2.7.2 1.1.7 1.4 1.4.3.7.3 1.4 0 2-.2.4-.9 1-1.9 1.4zM286.1 62.7c.5 1.9.5 3.8-.1 5.6-.6 1.8-1.7 3.4-3.4 4.8s-3.8 2.4-6.5 3.1c-3.2.8-5.9.9-8.3.3-1.7-.5-3.2-1.3-4.5-2.5s-2.1-2.5-2.5-3.8c-.2-.8-.1-1.5.3-2.2.4-.7 1-1.2 1.9-1.4.7-.2 1.3-.1 1.9.2s1.2.8 1.7 1.6c.7.9 1.3 1.6 2 2.2.7.6 1.5.9 2.4 1.2 1 .2 2.2.1 3.6-.2 1.9-.5 3.4-1.4 4.3-2.6 1-1.2 1.3-2.5.9-3.8-.3-1.1-.8-1.8-1.7-2.3-.8-.5-1.8-.8-2.9-.8-1.1-.1-2.6-.1-4.4 0-2.4.1-4.5 0-6.3-.4-1.7-.3-3.2-1-4.5-2-1.2-1-2.1-2.4-2.6-4.3-.5-1.8-.4-3.4.2-5.1.6-1.6 1.7-3 3.3-4.3 1.6-1.2 3.7-2.2 6.1-2.8 2-.5 3.7-.7 5.3-.6 1.6.1 2.9.4 4.1 1 1.2.6 2.1 1.2 2.7 2 .7.8 1.1 1.6 1.3 2.4.2.8.1 1.5-.3 2.3-.4.8-1 1.3-1.8 1.5-.7.2-1.4.2-1.8-.1-.5-.3-1.1-.8-1.7-1.5-.9-1.1-1.8-1.8-2.8-2.3-1-.5-2.4-.4-4.2 0-1.7.4-2.9 1.2-3.7 2.2-.8 1-1.1 2-.8 3.1.2.6.5 1.1 1 1.5.5.4 1.1.6 1.8.8.7.2 1.4.3 2.1.3h3.3c1.9-.1 3.7 0 5.3.1 1.6.1 3 .4 4.2.9 1.2.5 2.3 1.2 3.1 2.1.9.9 1.6 2.2 2 3.8zM333.5 62.9l-1.9-4-13.4 1-1.2 4.3c-.5 1.7-.9 2.8-1.3 3.5-.4.6-1.1 1-2.1 1-.8.1-1.6-.2-2.3-.7-.7-.6-1.1-1.2-1.1-2 0-.5 0-.9.1-1.4.1-.5.3-1.2.6-2.1l6.8-22.1c.2-.6.4-1.4.7-2.3.3-.9.6-1.6.9-2.2.3-.6.8-1.1 1.4-1.5.6-.4 1.3-.6 2.3-.7.9-.1 1.7 0 2.4.3.6.3 1.2.7 1.6 1.2.4.5.8 1.1 1.1 1.7.3.6.7 1.4 1.2 2.5L339.6 60c.8 1.6 1.2 2.7 1.3 3.5.1.8-.2 1.5-.8 2.2-.6.7-1.3 1.1-2.2 1.1-.5 0-1 0-1.4-.2-.4-.2-.7-.4-1-.7-.3-.3-.6-.8-.9-1.4-.6-.5-.9-1.1-1.1-1.6zm-14-8.1l9.8-.8-6-13.2-3.8 14zM359.2 37L371 57.1l1.1-19.6c.1-1.3.4-2.2 1-2.8.6-.6 1.3-.9 2.3-.8 1 .1 1.7.4 2.2 1.1.5.7.7 1.6.7 2.9l-1.4 26c-.2 2.9-1.4 4.3-3.8 4.1-.6 0-1.1-.1-1.6-.3-.5-.2-.9-.5-1.3-.9s-.8-.9-1.1-1.4c-.3-.5-.7-1.1-1-1.6l-11.5-19.9-1.1 19.3c-.1 1.3-.4 2.2-1 2.8-.6.6-1.4.9-2.3.8-.9-.1-1.7-.4-2.2-1.1-.5-.7-.8-1.6-.7-2.9l1.4-25.5c.1-1.1.2-1.9.5-2.5.3-.7.8-1.2 1.5-1.6.7-.4 1.4-.6 2.2-.5.6 0 1.1.2 1.5.4.4.2.8.5 1.1.8s.6.8.9 1.3c.1.6.4 1.2.8 1.8zM397.1 37.2l8.6 1.6c2.2.4 4.1 1 5.6 1.7s2.8 1.8 3.9 3.2c2.8 3.5 3.7 8.3 2.5 14.2-.4 1.9-.9 3.7-1.5 5.2s-1.5 2.9-2.4 4c-1 1.2-2.1 2.1-3.4 2.9-1 .6-2.1 1.1-3.2 1.3-1.1.3-2.3.4-3.5.4-1.2 0-2.6-.2-4.1-.5l-8.6-1.6c-1.2-.2-2.1-.6-2.6-1.1-.5-.5-.8-1.1-.9-1.8-.1-.7 0-1.6.2-2.6l4.6-23.8c.3-1.4.8-2.4 1.5-2.9.8-.4 1.9-.5 3.3-.2zm1.6 5.7l-4.2 22 5 1c1.1.2 2 .3 2.6.4.6.1 1.3 0 2-.1s1.3-.3 1.9-.7c2.6-1.4 4.3-4.4 5.1-9 .6-3.2.6-5.7-.1-7.5-.7-1.8-1.7-3-3-3.7-1.3-.7-3-1.3-5-1.6l-4.3-.8zM451.1 86.4l-9.4-3.7c-1.4-.5-2.2-1.2-2.5-2.1s-.2-1.9.3-3.2l9.2-23.1c.5-1.4 1.2-2.2 2.1-2.6.8-.4 1.9-.3 3.2.3l10 4c1.5.6 2.7 1.2 3.7 1.8 1 .6 1.8 1.3 2.5 2.2.6.7 1 1.5 1.3 2.4.3.9.4 1.8.4 2.7 0 .9-.2 1.8-.6 2.7-1.2 3.1-3.7 4.7-7.3 4.9 3.5 2.9 4.5 6.2 3.1 9.9-.7 1.7-1.7 3.1-3.2 4.1-1.4 1-3 1.6-4.8 1.6-1.1 0-2.3-.1-3.6-.5-1.3-.3-2.7-.8-4.4-1.4zm5-13.8l-6.5-2.6-3.6 9 6.7 2.7c4.2 1.7 6.9 1 8.1-2 .6-1.5.5-2.9-.3-4-.7-1.3-2.2-2.3-4.4-3.1zm-1.5-15l-3.2 7.9 5.7 2.3c1.5.6 2.8.9 3.8 1 1 0 1.8-.3 2.6-.9.6-.4 1-1 1.3-1.8.6-1.6.5-2.8-.4-3.7-.9-.9-2.5-1.9-4.7-2.8l-5.1-2zM500.7 73c3 1.7 5.2 3.7 6.6 6.2 1.5 2.4 2.1 5.1 1.9 7.9-.2 2.9-1.1 5.8-2.8 8.8-1.3 2.2-2.7 4.1-4.3 5.5-1.6 1.5-3.4 2.5-5.4 3.2-2 .7-4 .8-6.2.5-2.2-.3-4.4-1.1-6.6-2.4-2.2-1.3-4.1-2.8-5.4-4.5-1.4-1.7-2.3-3.6-2.7-5.6-.4-2-.4-4.1 0-6.3s1.3-4.4 2.5-6.5c1.3-2.2 2.7-4.1 4.4-5.5 1.7-1.5 3.5-2.5 5.4-3.1 1.9-.6 4-.8 6.1-.5 2.1.3 4.3 1.1 6.5 2.3zm-.1 19.5c1.2-2.1 1.9-4.1 2.1-6.1.2-1.9-.1-3.6-.9-5.2-.8-1.5-2-2.7-3.7-3.6-1.2-.7-2.4-1-3.6-1.2-1.2-.1-2.4 0-3.6.5-1.2.4-2.4 1.2-3.5 2.3-1.1 1.1-2.2 2.4-3.1 4-.9 1.6-1.6 3.2-1.9 4.8-.3 1.6-.4 3-.1 4.3.3 1.3.8 2.4 1.5 3.4s1.7 1.8 2.8 2.5c1.5.8 3.1 1.2 4.7 1.2 1.7 0 3.3-.6 4.9-1.8 1.7-1.1 3.1-2.8 4.4-5.1zM537.5 97.5c2.7 2.1 4.6 4.4 5.7 7 1.1 2.6 1.4 5.3.8 8.1-.6 2.8-1.9 5.6-4 8.3-1.6 2-3.3 3.6-5.1 4.9-1.8 1.2-3.7 2-5.8 2.4-2 .4-4.1.3-6.2-.3-2.1-.6-4.2-1.7-6.2-3.3-2-1.6-3.6-3.3-4.7-5.2-1.1-1.9-1.7-3.9-1.9-5.9-.2-2 .1-4.1.9-6.2.7-2.1 1.9-4.2 3.4-6.1 1.6-2 3.3-3.6 5.1-4.9 1.9-1.2 3.8-2 5.8-2.3 2-.3 4-.2 6.1.4 2.1.5 4.1 1.6 6.1 3.1zm-2.8 19.3c1.5-1.9 2.4-3.8 2.9-5.7.5-1.9.4-3.6-.2-5.2-.6-1.6-1.6-3-3.1-4.1-1.1-.8-2.2-1.4-3.4-1.7-1.2-.3-2.4-.3-3.7-.1s-2.5.8-3.8 1.7c-1.3.9-2.5 2.1-3.6 3.6s-2 3-2.6 4.5c-.6 1.5-.8 2.9-.7 4.2.1 1.3.4 2.5 1 3.6s1.4 2 2.5 2.8c1.4 1 2.9 1.7 4.5 1.9 1.7.2 3.4-.2 5.1-1 1.8-1 3.5-2.5 5.1-4.5zM569.7 134.5l-5.2-5.1-16.9 17.1c-1 1-1.9 1.5-2.8 1.5-.9 0-1.7-.3-2.4-1s-1-1.5-1-2.4c0-.9.5-1.9 1.5-2.8l16.9-17.1-5.2-5.1c-.8-.8-1.2-1.6-1.3-2.3 0-.7.2-1.4.8-2 .6-.6 1.3-.9 2-.8.8.1 1.5.5 2.3 1.2l15.1 15c.8.8 1.3 1.6 1.3 2.4 0 .8-.2 1.4-.8 2s-1.3.9-2 .8c-.7-.2-1.5-.6-2.3-1.4zM580.9 175.4c-1.6 1.2-3.3 2-5.2 2.2-1.9.2-3.8-.2-5.7-1.2-1.9-1-3.8-2.5-5.5-4.7-2-2.5-3.2-5-3.6-7.5-.2-1.7-.1-3.4.5-5.1.6-1.7 1.4-2.9 2.5-3.8.6-.5 1.4-.7 2.2-.6.8.1 1.5.5 2 1.1.4.6.6 1.2.6 1.8 0 .7-.3 1.4-.8 2.2-.6 1-1 1.9-1.2 2.7-.2.8-.3 1.7-.1 2.7.2 1 .7 2 1.6 3.2 1.2 1.6 2.6 2.5 4.1 2.9 1.5.4 2.8.2 3.9-.7.9-.7 1.3-1.5 1.5-2.5.1-.9 0-1.9-.4-3s-1-2.4-1.8-4c-1-2.2-1.8-4.2-2.2-5.9-.4-1.7-.4-3.3 0-4.9.4-1.5 1.4-2.9 2.9-4.1 1.4-1.1 3-1.8 4.7-1.9 1.7-.1 3.5.3 5.2 1.3 1.8 1 3.4 2.5 5 4.5 1.3 1.6 2.2 3.1 2.7 4.6.5 1.5.8 2.8.7 4.1 0 1.3-.3 2.4-.7 3.3-.4.9-1 1.7-1.7 2.2-.6.5-1.4.7-2.2.7-.9 0-1.5-.4-2.1-1.1-.5-.6-.7-1.2-.6-1.7.1-.6.3-1.3.7-2.2.6-1.2.9-2.4.9-3.5s-.5-2.4-1.7-3.8c-1.1-1.4-2.2-2.2-3.5-2.6-1.3-.4-2.3-.2-3.1.5-.5.4-.9.9-1 1.5-.2.6-.2 1.2 0 1.9.1.7.3 1.4.6 2 .2.6.7 1.6 1.3 3 .8 1.7 1.5 3.3 2 4.9.5 1.5.8 2.9.9 4.2.1 1.3-.2 2.5-.7 3.7-.5 1.5-1.4 2.6-2.7 3.6zM610 198.7c-.7-1.2-.9-2.5-.6-3.8.3-1.3 1.2-2.4 2.6-3.2 1.2-.7 2.5-.8 3.8-.5 1.3.4 2.4 1.2 3 2.4.7 1.2.8 2.5.5 3.9-.4 1.4-1.2 2.4-2.4 3-1.4.8-2.7 1-4 .5-1.3-.3-2.2-1.1-2.9-2.3zM621.5 221.7c-.6-1.3-.7-2.6-.2-3.9.4-1.3 1.4-2.3 2.8-2.9 1.3-.6 2.5-.6 3.8-.1 1.3.5 2.2 1.4 2.8 2.7.6 1.3.6 2.6.1 3.9-.5 1.3-1.4 2.3-2.6 2.8-1.5.7-2.8.7-4.1.2s-2.1-1.5-2.6-2.7zM631.9 248.3c-.4-1.3-.4-2.6.1-3.9.5-1.3 1.6-2.1 3.1-2.7 1.3-.4 2.6-.4 3.8.2 1.2.6 2.1 1.6 2.6 2.9.5 1.3.4 2.6-.2 3.9-.6 1.3-1.6 2.1-2.9 2.6-1.5.5-2.9.4-4.1-.2-1.1-.6-1.9-1.6-2.4-2.8zM639.1 272.9c-.3-1.4-.2-2.6.5-3.8.6-1.2 1.7-2 3.3-2.4 1.3-.3 2.6-.1 3.8.6 1.2.7 2 1.7 2.3 3.1.3 1.4.1 2.7-.6 3.9-.7 1.2-1.8 2-3.1 2.3-1.6.4-2.9.2-4-.6-1.2-.7-1.9-1.8-2.2-3.1zM644.1 298c-.2-1.4 0-2.6.8-3.8.7-1.1 1.9-1.8 3.5-2.1 1.4-.2 2.6.1 3.7.9s1.8 1.9 2 3.3c.2 1.4-.1 2.7-.9 3.8-.8 1.1-1.9 1.8-3.3 2-1.6.2-2.9-.1-4-.9-1-.7-1.6-1.8-1.8-3.2zM646.9 323.6c-.1-1.4.3-2.6 1.1-3.7s2.1-1.7 3.7-1.8c1.4-.1 2.6.3 3.6 1.2 1.1.9 1.6 2.1 1.7 3.5.1 1.4-.3 2.7-1.2 3.7-.9 1.1-2.1 1.6-3.5 1.7-1.6.1-2.9-.3-3.9-1.2-.8-1-1.4-2.1-1.5-3.4zM647.6 346.4c0-1.4.5-2.6 1.4-3.6.9-1 2.2-1.5 3.8-1.5 1.4 0 2.6.5 3.5 1.5 1 1 1.5 2.2 1.4 3.6 0 1.4-.5 2.6-1.5 3.6s-2.2 1.5-3.6 1.4c-1.6 0-2.8-.5-3.7-1.6-.8-.8-1.3-2-1.3-3.4zM646.6 369.1c.1-1.4.7-2.6 1.6-3.5 1-.9 2.3-1.3 3.9-1.2 1.4.1 2.5.7 3.4 1.7.9 1 1.3 2.3 1.2 3.7-.1 1.4-.7 2.6-1.8 3.5-1.1.9-2.3 1.3-3.7 1.2-1.6-.1-2.8-.7-3.6-1.8-.7-1-1.1-2.2-1-3.6zM643.9 391.7c.2-1.4.9-2.5 1.9-3.4 1.1-.9 2.4-1.2 4-.9 1.4.2 2.5.9 3.3 2 .8 1.1 1.1 2.4.9 3.8-.2 1.4-.9 2.5-2 3.4-1.1.8-2.4 1.1-3.8.9-1.6-.3-2.7-.9-3.5-2.1-.7-1.1-1-2.3-.8-3.7zM639.5 414.1c.3-1.4 1-2.4 2.2-3.2 1.1-.8 2.5-1 4-.6 1.3.3 2.4 1.1 3.1 2.2.7 1.2.9 2.4.6 3.8-.3 1.4-1.1 2.4-2.3 3.2-1.2.7-2.5 1-3.8.6-1.6-.4-2.7-1.1-3.3-2.3-.6-1.1-.8-2.4-.5-3.7zM633.4 436.1c.4-1.3 1.2-2.3 2.4-3 1.2-.7 2.5-.8 4.1-.3 1.3.4 2.3 1.2 2.9 2.5.6 1.2.8 2.5.3 3.9-.4 1.4-1.3 2.4-2.5 3-1.2.7-2.5.8-3.9.3-1.5-.5-2.6-1.3-3.1-2.6s-.6-2.5-.2-3.8zM625.6 457.5c.5-1.3 1.4-2.2 2.6-2.8 1.2-.6 2.6-.6 4.1 0 1.3.5 2.2 1.4 2.7 2.7.6 1.3.6 2.6 0 3.9-.5 1.3-1.4 2.3-2.7 2.8-1.3.6-2.6.6-3.9 0-1.5-.6-2.5-1.5-2.9-2.8s-.4-2.5.1-3.8zM616.2 478.3c.6-1.3 1.6-2.1 2.8-2.6 1.3-.5 2.6-.4 4.1.3 1.2.6 2.1 1.6 2.5 2.9.5 1.3.4 2.6-.3 3.9-.6 1.3-1.6 2.1-2.9 2.6-1.3.5-2.6.4-3.9-.2-1.4-.7-2.3-1.7-2.7-3-.3-1.4-.2-2.7.4-3.9zM605.2 498.3c.7-1.2 1.7-2 3-2.4 1.3-.4 2.6-.2 4 .6 1.2.7 1.9 1.7 2.3 3.1.4 1.3.2 2.6-.6 3.8-.7 1.2-1.8 2-3.1 2.4-1.4.4-2.6.2-3.8-.5-1.4-.8-2.2-1.9-2.5-3.2-.2-1.4 0-2.6.7-3.8zM592.8 517.4c.8-1.1 1.9-1.9 3.2-2.2 1.3-.3 2.6 0 4 .9 1.1.8 1.8 1.9 2.1 3.2.2 1.4 0 2.6-.9 3.8-.8 1.2-1.9 1.9-3.3 2.1-1.4.3-2.6 0-3.8-.8-1.3-.9-2-2.1-2.2-3.4-.2-1.3.1-2.5.9-3.6zM578.9 535.5c.9-1.1 2-1.7 3.3-1.9 1.3-.2 2.6.2 3.9 1.2 1.1.9 1.7 2 1.8 3.4.1 1.4-.2 2.6-1.1 3.7-.9 1.1-2.1 1.7-3.4 1.9-1.4.1-2.6-.2-3.7-1.1-1.2-1-1.9-2.2-1.9-3.6-.1-1.4.3-2.6 1.1-3.6zM563.8 552.5c1-1 2.1-1.6 3.5-1.7 1.4-.1 2.6.4 3.8 1.5 1 1 1.5 2.1 1.5 3.5s-.4 2.6-1.4 3.6c-1 1-2.2 1.6-3.6 1.6s-2.6-.4-3.6-1.4c-1.2-1.1-1.7-2.3-1.7-3.7.1-1.3.5-2.4 1.5-3.4zM547.4 568.3c1-.9 2.2-1.4 3.6-1.4s2.6.6 3.7 1.8c.9 1 1.3 2.2 1.3 3.6-.1 1.4-.6 2.6-1.7 3.5-1.1.9-2.3 1.4-3.7 1.3-1.4-.1-2.6-.6-3.5-1.7-1.1-1.2-1.5-2.5-1.4-3.8.1-1.3.7-2.4 1.7-3.3zM529.8 582.8c1.1-.8 2.3-1.2 3.7-1.1 1.4.1 2.5.8 3.5 2.1.8 1.1 1.2 2.3 1 3.7-.2 1.4-.8 2.5-1.9 3.4-1.1.9-2.4 1.2-3.8 1-1.4-.2-2.5-.8-3.4-1.9-1-1.3-1.3-2.6-1.1-3.9.3-1.4.9-2.4 2-3.3zM511.2 596c1.2-.8 2.4-1 3.8-.8 1.3.2 2.5 1 3.3 2.3.8 1.2 1 2.4.7 3.8-.3 1.4-1 2.4-2.2 3.2-1.2.8-2.5 1-3.8.8-1.4-.3-2.4-1-3.2-2.2-.9-1.3-1.1-2.7-.8-4 .3-1.3 1.1-2.4 2.2-3.1zM491.7 607.7c1.2-.7 2.5-.9 3.8-.6 1.3.3 2.4 1.2 3.2 2.6.7 1.2.8 2.5.4 3.8s-1.2 2.3-2.4 3c-1.2.7-2.5.8-3.9.5-1.4-.4-2.4-1.2-3-2.4-.8-1.4-.9-2.7-.5-4 .4-1.3 1.2-2.2 2.4-2.9zM471.3 617.9c1.3-.6 2.6-.7 3.9-.3 1.3.4 2.3 1.3 2.9 2.8.6 1.3.6 2.5.1 3.8-.5 1.3-1.4 2.2-2.7 2.8-1.3.6-2.6.6-3.9.2-1.3-.5-2.3-1.4-2.8-2.6-.7-1.5-.7-2.8-.2-4.1.5-1.1 1.4-2 2.7-2.6zM450.1 626.5c1.3-.5 2.6-.5 3.9 0 1.3.5 2.2 1.5 2.7 3 .5 1.3.4 2.6-.2 3.8-.6 1.3-1.5 2.1-2.9 2.6-1.3.5-2.6.4-3.9-.1-1.3-.6-2.2-1.5-2.6-2.8-.5-1.5-.5-2.9.1-4.1.7-1.1 1.7-1.9 2.9-2.4zM428.4 633.5c1.3-.4 2.6-.3 3.8.3 1.2.6 2 1.7 2.5 3.2.4 1.3.2 2.6-.4 3.8-.7 1.2-1.7 2-3.1 2.4-1.4.4-2.7.2-3.9-.4-1.2-.7-2-1.7-2.4-3-.4-1.5-.3-2.9.4-4 .8-1.2 1.8-1.9 3.1-2.3zM406.2 638.8c1.4-.3 2.6-.1 3.8.6 1.2.7 1.9 1.8 2.2 3.4.3 1.3 0 2.6-.7 3.8-.8 1.2-1.8 1.9-3.2 2.2-1.4.3-2.7 0-3.9-.7-1.2-.8-1.9-1.8-2.2-3.2-.3-1.6-.1-2.9.7-4 .9-1.1 2-1.8 3.3-2.1zM383.7 642.4c1.4-.2 2.6.1 3.8.9 1.1.8 1.8 2 2 3.6.2 1.4-.2 2.6-1 3.7s-2 1.7-3.4 1.9c-1.4.2-2.7-.2-3.8-1-1.1-.9-1.8-2-1.9-3.4-.2-1.6.2-2.9 1-3.9.9-1 2-1.6 3.3-1.8zM361 644.3c1.4-.1 2.6.3 3.7 1.2s1.6 2.1 1.7 3.7c.1 1.4-.4 2.6-1.3 3.6s-2.1 1.6-3.5 1.6c-1.4.1-2.7-.4-3.7-1.3s-1.6-2.1-1.7-3.5c-.1-1.6.4-2.9 1.3-3.8 1-1 2.2-1.5 3.5-1.5zM338.2 644.4c1.4 0 2.6.5 3.6 1.5 1 .9 1.5 2.2 1.4 3.8 0 1.4-.6 2.5-1.6 3.5s-2.2 1.4-3.6 1.4-2.6-.6-3.6-1.6-1.4-2.2-1.4-3.6c0-1.6.6-2.8 1.6-3.7 1.1-.9 2.3-1.3 3.6-1.3zM315.5 642.9c1.4.1 2.5.7 3.5 1.7.9 1 1.3 2.3 1.1 3.9-.1 1.4-.7 2.5-1.8 3.4s-2.3 1.3-3.7 1.1c-1.4-.1-2.6-.8-3.5-1.8-.9-1.1-1.3-2.3-1.1-3.7.2-1.6.8-2.8 1.9-3.6s2.2-1.2 3.6-1zM292.9 639.6c1.4.3 2.5.9 3.3 2 .8 1.1 1.1 2.4.8 4-.2 1.4-.9 2.4-2.1 3.2-1.1.8-2.4 1.1-3.8.8-1.4-.3-2.5-1-3.3-2.1-.8-1.1-1.1-2.4-.8-3.8.3-1.6 1-2.7 2.2-3.4 1.1-.7 2.4-.9 3.7-.7zM270.7 634.7c1.4.4 2.4 1.1 3.2 2.2.8 1.1.9 2.5.5 4.1a4.8 4.8 0 0 1-2.3 3.1c-1.2.7-2.5.9-3.8.5-1.4-.4-2.4-1.1-3.1-2.4-.7-1.2-.9-2.5-.5-3.8.4-1.5 1.2-2.6 2.4-3.3 1-.7 2.2-.8 3.6-.4zM248.8 628c1.3.5 2.3 1.3 3 2.5.7 1.2.7 2.5.2 4.1-.5 1.3-1.3 2.3-2.5 2.9-1.2.6-2.5.7-3.9.2s-2.3-1.3-3-2.6c-.6-1.3-.7-2.5-.2-3.9.5-1.5 1.4-2.5 2.7-3.1 1.2-.5 2.5-.6 3.7-.1zM227.6 619.7c1.3.6 2.2 1.5 2.8 2.7.6 1.2.5 2.6-.1 4.1-.5 1.3-1.5 2.2-2.8 2.7-1.3.5-2.6.5-3.9-.1s-2.2-1.5-2.7-2.8c-.5-1.3-.5-2.6 0-3.9.6-1.5 1.6-2.4 2.9-2.9 1.3-.4 2.6-.3 3.8.2zM207 609.8c1.2.7 2.1 1.6 2.6 2.9.5 1.3.3 2.6-.4 4.1-.6 1.2-1.6 2-2.9 2.5-1.3.4-2.6.3-3.9-.4-1.3-.7-2.1-1.7-2.5-3-.4-1.3-.3-2.6.3-3.9.7-1.4 1.8-2.3 3.1-2.6 1.3-.4 2.6-.3 3.7.4zM187.3 598.4c1.2.7 2 1.8 2.3 3.1.4 1.3.1 2.6-.7 4-.7 1.2-1.8 1.9-3.1 2.2-1.3.3-2.6.1-3.8-.7-1.2-.8-2-1.8-2.3-3.2-.3-1.4-.1-2.6.6-3.8.9-1.4 1.9-2.1 3.3-2.4 1.4-.2 2.6 0 3.7.8zM168.5 585.5c1.1.8 1.8 1.9 2.1 3.2.3 1.3-.1 2.6-1 3.9-.8 1.1-1.9 1.8-3.3 2-1.4.2-2.6-.1-3.8-.9-1.1-.8-1.8-2-2-3.3-.2-1.4.1-2.6.9-3.8 1-1.3 2.1-2 3.5-2.1 1.3-.2 2.6.2 3.6 1zM150.8 571.2c1.1.9 1.7 2 1.8 3.4.2 1.3-.3 2.6-1.3 3.9-.9 1-2 1.6-3.4 1.7-1.4.1-2.6-.3-3.7-1.2-1.1-.9-1.7-2.1-1.8-3.5-.1-1.4.3-2.6 1.2-3.7 1.1-1.2 2.3-1.8 3.6-1.9 1.4 0 2.6.4 3.6 1.3zM134.1 555.6c1 1 1.5 2.2 1.6 3.5.1 1.4-.5 2.6-1.6 3.7-1 1-2.2 1.5-3.5 1.5s-2.6-.5-3.6-1.5-1.5-2.2-1.5-3.6.5-2.6 1.5-3.6c1.1-1.1 2.4-1.7 3.7-1.6 1.3.1 2.5.7 3.4 1.6zM118.7 538.8c.9 1.1 1.3 2.3 1.3 3.6 0 1.4-.7 2.6-1.9 3.6-1 .9-2.3 1.3-3.6 1.2-1.4-.1-2.5-.7-3.5-1.8-.9-1.1-1.3-2.3-1.2-3.7.1-1.4.7-2.6 1.7-3.5 1.2-1 2.5-1.5 3.8-1.3 1.5.3 2.6.9 3.4 1.9zM104.6 520.9c.8 1.1 1.2 2.4 1 3.7-.1 1.4-.9 2.5-2.2 3.5-1.1.8-2.4 1.1-3.7.9-1.4-.2-2.5-.9-3.3-2-.8-1.1-1.2-2.4-1-3.8.2-1.4.9-2.5 2-3.3 1.3-.9 2.6-1.3 3.9-1 1.5.2 2.5.9 3.3 2zM91.9 502c.7 1.2 1 2.5.8 3.8-.2 1.3-1 2.4-2.4 3.3-1.2.7-2.4.9-3.8.6-1.4-.3-2.4-1.1-3.2-2.3-.7-1.2-1-2.5-.7-3.9.3-1.4 1.1-2.4 2.2-3.2 1.4-.8 2.7-1.1 4-.7 1.4.5 2.4 1.2 3.1 2.4zM80.7 482.1c.6 1.2.8 2.5.5 3.8-.3 1.3-1.2 2.3-2.7 3.1-1.2.6-2.5.7-3.8.3-1.3-.4-2.3-1.2-3-2.5-.7-1.3-.8-2.6-.4-3.9.4-1.3 1.2-2.3 2.5-3 1.4-.7 2.8-.9 4-.4 1.3.6 2.2 1.4 2.9 2.6zM71 461.5c.5 1.3.6 2.6.2 3.9-.4 1.3-1.4 2.2-2.9 2.9-1.3.5-2.5.6-3.8 0-1.3-.5-2.2-1.4-2.8-2.7-.6-1.3-.6-2.6-.1-3.9.5-1.3 1.4-2.2 2.7-2.8 1.5-.6 2.8-.7 4.1-.1 1.2.5 2 1.5 2.6 2.7zM62.9 440.2c.4 1.3.4 2.6-.1 3.9-.5 1.2-1.6 2.1-3.1 2.7-1.3.4-2.6.4-3.8-.2-1.2-.6-2.1-1.6-2.6-2.9-.5-1.3-.4-2.7.2-3.9.6-1.3 1.6-2.1 2.9-2.6 1.5-.5 2.9-.4 4.1.2 1.1.5 1.9 1.5 2.4 2.8zM56.4 418.3c.3 1.4.2 2.6-.4 3.8-.6 1.2-1.7 2-3.3 2.4-1.3.3-2.6.2-3.8-.5-1.2-.7-2-1.7-2.3-3.1-.3-1.4-.2-2.7.5-3.9.7-1.2 1.7-2 3.1-2.3 1.6-.4 2.9-.2 4 .5 1.2.8 1.9 1.8 2.2 3.1zM51.7 396c.2 1.4 0 2.6-.7 3.8-.7 1.2-1.9 1.9-3.5 2.1-1.4.2-2.6 0-3.7-.8s-1.8-1.9-2.1-3.3c-.2-1.4 0-2.7.8-3.8.8-1.2 1.9-1.9 3.3-2.1 1.6-.3 2.9 0 4 .8 1 .9 1.6 2 1.9 3.3zM48.6 373.4c.1 1.4-.2 2.6-1 3.7s-2 1.7-3.6 1.9c-1.4.1-2.6-.2-3.7-1.1-1.1-.9-1.7-2-1.8-3.4-.1-1.4.2-2.7 1.1-3.8.9-1.1 2-1.7 3.4-1.8 1.6-.2 2.9.2 3.9 1.1 1 .9 1.6 2 1.7 3.4zM47.3 350.7c0 1.4-.4 2.6-1.3 3.6s-2.1 1.6-3.8 1.6c-1.4 0-2.6-.4-3.6-1.4-1-.9-1.5-2.1-1.6-3.6 0-1.4.4-2.6 1.4-3.7 1-1 2.1-1.5 3.5-1.6 1.6 0 2.9.4 3.8 1.4 1.1 1.2 1.6 2.3 1.6 3.7zM47.7 327.9c-.1 1.4-.6 2.6-1.5 3.5-1 1-2.2 1.4-3.9 1.3-1.4-.1-2.5-.6-3.5-1.6-.9-1-1.4-2.2-1.3-3.7.1-1.4.6-2.6 1.7-3.6 1-.9 2.2-1.4 3.6-1.3 1.6.1 2.8.7 3.7 1.7.9 1.1 1.3 2.3 1.2 3.7z"/></g></switch></svg>