<svg width="150" height="150" viewBox="0 0 150 150" fill="none" xmlns="http://www.w3.org/2000/svg">
<path d="M75 150C116.421 150 150 116.421 150 74.9995C150 33.5782 116.421 -0.000488281 75 -0.000488281C33.5786 -0.000488281 0 33.5782 0 74.9995C0 116.421 33.5786 150 75 150Z" fill="#DCDBDB"/>
<path d="M8.52722 66.2035C8.48245 66.5168 8.34817 66.763 8.10197 66.9644C7.87816 67.1659 7.56482 67.233 7.20672 67.1882C6.89338 67.1435 6.64718 67.0092 6.46813 66.7406C6.28908 66.4944 6.19955 66.2035 6.24432 65.8901C6.28908 65.5768 6.44575 65.3306 6.69194 65.1292C6.93814 64.9277 7.2291 64.8606 7.52006 64.9053C7.87816 64.9501 8.14673 65.1068 8.3034 65.353C8.50484 65.6215 8.57198 65.8901 8.52722 66.2035Z" fill="#606161" stroke="#606161" stroke-miterlimit="10"/>
<path d="M9.44498 61.1899C9.37783 61.5032 9.22116 61.7271 8.97497 61.9061C8.72877 62.0852 8.43782 62.1299 8.07971 62.0628C7.78876 61.9956 7.54256 61.839 7.38589 61.5704C7.20684 61.3018 7.16208 61.0332 7.22922 60.7199C7.29637 60.4066 7.47542 60.1604 7.72161 60.0037C7.99019 59.8246 8.25876 59.7799 8.5721 59.847C8.93021 59.9365 9.1764 60.0932 9.31069 60.3618C9.44498 60.6304 9.51212 60.8766 9.44498 61.1899Z" fill="#606161" stroke="#606161" stroke-miterlimit="10"/>
<path d="M10.7653 56.2436C10.6758 56.5346 10.4967 56.7808 10.2282 56.9375C9.95958 57.0941 9.66862 57.1165 9.31052 57.0046C9.01956 56.9151 8.79575 56.736 8.63908 56.4675C8.48241 56.1989 8.46003 55.9079 8.54956 55.5946C8.63908 55.2812 8.81813 55.0574 9.10909 54.9231C9.37767 54.7665 9.66862 54.7441 9.98196 54.8336C10.3177 54.9455 10.5639 55.1246 10.6982 55.3931C10.8325 55.6617 10.8548 55.9527 10.7653 56.2436Z" fill="#606161" stroke="#606161" stroke-miterlimit="10"/>
<path d="M12.4443 51.4315C12.3324 51.7225 12.131 51.9463 11.8624 52.0806C11.5938 52.2149 11.2805 52.2149 10.9447 52.0806C10.6538 51.9687 10.4523 51.7673 10.3181 51.4763C10.1838 51.1853 10.1838 50.8944 10.2957 50.6034C10.4076 50.3125 10.609 50.0887 10.9 49.9768C11.1909 49.8425 11.4819 49.8425 11.7728 49.9544C12.1086 50.0887 12.3324 50.2901 12.4443 50.5811C12.5562 50.872 12.5562 51.163 12.4443 51.4315Z" fill="#606161" stroke="#606161" stroke-miterlimit="10"/>
<path d="M14.4811 46.7536C14.3468 47.0445 14.1454 47.2236 13.8544 47.3579C13.5634 47.4698 13.2725 47.4474 12.9368 47.2907C12.6682 47.1564 12.4668 46.9326 12.3549 46.6417C12.2429 46.3507 12.2653 46.0598 12.3996 45.7688C12.5339 45.4778 12.7577 45.2764 13.0487 45.1869C13.3396 45.075 13.6306 45.0974 13.9216 45.2316C14.2349 45.3883 14.4587 45.6121 14.5258 45.9031C14.6378 46.2164 14.6154 46.485 14.4811 46.7536Z" fill="#606161" stroke="#606161" stroke-miterlimit="10"/>
<path d="M16.8755 42.2551C16.7188 42.5236 16.495 42.7027 16.2041 42.7922C15.9131 42.8818 15.6222 42.837 15.3088 42.6579C15.0402 42.5013 14.8612 42.2775 14.794 41.9865C14.7045 41.6955 14.7493 41.4046 14.9059 41.136C15.0626 40.8674 15.2864 40.6884 15.5998 40.5989C15.9131 40.5093 16.1817 40.5541 16.4503 40.7108C16.7636 40.8898 16.9427 41.136 17.0098 41.427C17.0769 41.7179 17.0322 41.9865 16.8755 42.2551Z" fill="#606161" stroke="#606161" stroke-miterlimit="10"/>
<path d="M19.6063 37.9353C19.4272 38.2038 19.2034 38.3605 18.8901 38.4277C18.5767 38.4948 18.3082 38.4277 17.9948 38.2262C17.7486 38.0472 17.592 37.8234 17.5248 37.51C17.4577 37.1967 17.5248 36.9281 17.7039 36.6595C17.8829 36.391 18.1291 36.2343 18.4424 36.1671C18.7558 36.1 19.0244 36.1671 19.2929 36.3462C19.5839 36.5476 19.7629 36.7938 19.8077 37.1072C19.8525 37.4205 19.7853 37.6891 19.6063 37.9353Z" fill="#606161" stroke="#606161" stroke-miterlimit="10"/>
<path d="M22.6723 33.8397C22.4708 34.0859 22.2246 34.2202 21.9337 34.2874C21.6427 34.3321 21.3518 34.2426 21.0608 34.0188C20.8146 33.8174 20.6803 33.5712 20.6356 33.2578C20.5908 32.9445 20.6803 32.6759 20.8818 32.4297C21.0832 32.1835 21.3294 32.0492 21.6427 32.0045C21.9561 31.9597 22.2246 32.0492 22.4708 32.2507C22.7394 32.4745 22.8961 32.743 22.9185 33.034C22.9408 33.3473 22.8513 33.6159 22.6723 33.8397Z" fill="#606161" stroke="#606161" stroke-miterlimit="10"/>
<path d="M26.0071 30.0127C25.7833 30.2365 25.5371 30.3708 25.2237 30.3931C24.9104 30.4155 24.6418 30.3036 24.3732 30.0574C24.1494 29.856 24.0375 29.5874 24.0151 29.2741C23.9928 28.9607 24.1047 28.6922 24.3285 28.4683C24.5523 28.2445 24.8209 28.1102 25.1342 28.1102C25.4475 28.0879 25.7161 28.1998 25.9399 28.4012C26.2085 28.6474 26.3204 28.916 26.3204 29.2293C26.3204 29.5203 26.2309 29.7888 26.0071 30.0127Z" fill="#606161" stroke="#606161" stroke-miterlimit="10"/>
<path d="M29.6552 26.4314C29.4313 26.6328 29.1628 26.7447 28.8494 26.7447C28.5361 26.7447 28.2675 26.6104 28.0213 26.3419C27.8199 26.1181 27.708 25.8495 27.7304 25.5361C27.7304 25.2228 27.8647 24.9542 28.0885 24.7528C28.3123 24.529 28.6032 24.4395 28.9166 24.4395C29.2299 24.4395 29.4985 24.5737 29.6999 24.7976C29.9461 25.0661 30.058 25.3347 30.0133 25.648C29.9909 25.9614 29.8566 26.2076 29.6552 26.4314Z" fill="#606161" stroke="#606161" stroke-miterlimit="10"/>
<path d="M33.5272 23.1185C33.281 23.32 33.0124 23.4095 32.6991 23.3871C32.3857 23.3647 32.1395 23.2081 31.9157 22.9395C31.7367 22.6933 31.6471 22.4247 31.6695 22.1114C31.6919 21.798 31.8486 21.5518 32.0948 21.3504C32.341 21.149 32.6319 21.0818 32.9453 21.1042C33.2586 21.149 33.5048 21.2833 33.7062 21.5295C33.93 21.8204 34.0196 22.1114 33.9524 22.4023C33.8853 22.6933 33.7734 22.9395 33.5272 23.1185Z" fill="#606161" stroke="#606161" stroke-miterlimit="10"/>
<path d="M37.668 20.1198C37.3994 20.2988 37.1308 20.366 36.8175 20.3212C36.5265 20.2765 36.258 20.0974 36.0565 19.8064C35.8775 19.5602 35.8327 19.2693 35.8775 18.956C35.9446 18.6426 36.1013 18.4188 36.3475 18.2397C36.6161 18.0607 36.907 17.9936 37.198 18.0607C37.5113 18.1278 37.7575 18.2845 37.9142 18.5307C38.1156 18.8217 38.1828 19.135 38.0932 19.426C38.0932 19.7169 37.9142 19.9631 37.668 20.1198Z" fill="#606161" stroke="#606161" stroke-miterlimit="10"/>
<path d="M42.0099 17.4566C41.7414 17.6133 41.4504 17.658 41.1595 17.5909C40.8685 17.5238 40.6223 17.3447 40.4432 17.009C40.2866 16.7404 40.2642 16.4494 40.3313 16.1585C40.4209 15.8675 40.5999 15.6213 40.8685 15.4647C41.1371 15.308 41.428 15.2632 41.7414 15.3528C42.0547 15.4423 42.2785 15.599 42.4352 15.8899C42.6142 16.2032 42.659 16.4942 42.5471 16.7852C42.4576 17.0761 42.2785 17.2999 42.0099 17.4566Z" fill="#606161" stroke="#606161" stroke-miterlimit="10"/>
<path d="M46.5531 15.1062C46.2621 15.2405 45.9936 15.2628 45.6802 15.1733C45.3893 15.0838 45.1654 14.8824 45.0088 14.5466C44.8745 14.2781 44.8745 13.9871 44.964 13.6961C45.0759 13.4052 45.255 13.1814 45.5459 13.0471C45.8369 12.9128 46.1278 12.8904 46.4188 13.0023C46.7098 13.1142 46.9336 13.2933 47.0679 13.5842C47.2245 13.92 47.2469 14.2109 47.1126 14.5019C47.0231 14.7704 46.8217 14.9719 46.5531 15.1062Z" fill="#606161" stroke="#606161" stroke-miterlimit="10"/>
<path d="M51.2532 13.1372C50.9623 13.2491 50.6713 13.2491 50.3804 13.1372C50.0894 13.0253 49.888 12.8015 49.7537 12.4658C49.6418 12.1748 49.6418 11.8839 49.7761 11.6153C49.9104 11.3243 50.1118 11.1229 50.4027 11.011C50.6937 10.8991 50.9847 10.8991 51.2756 11.0334C51.5666 11.1677 51.768 11.3691 51.8799 11.6601C52.0142 11.9958 51.9918 12.3091 51.8575 12.5777C51.7456 12.8239 51.5218 13.0253 51.2532 13.1372Z" fill="#606161" stroke="#606161" stroke-miterlimit="10"/>
<path d="M102.887 14.8605C102.596 14.7262 102.395 14.5247 102.283 14.2562C102.171 13.9876 102.171 13.6743 102.328 13.3385C102.462 13.0476 102.663 12.8685 102.954 12.7566C103.245 12.6447 103.536 12.6447 103.827 12.779C104.118 12.9133 104.32 13.1147 104.432 13.4057C104.543 13.6966 104.543 13.9876 104.409 14.2786C104.252 14.6143 104.051 14.8157 103.76 14.9052C103.447 14.9948 103.178 14.9724 102.887 14.8605Z" fill="#606161" stroke="#606161" stroke-miterlimit="10"/>
<path d="M107.453 17.1435C107.185 16.9868 106.983 16.763 106.894 16.4945C106.782 16.2035 106.827 15.9125 107.006 15.5768C107.162 15.3082 107.386 15.1292 107.677 15.0397C107.968 14.9501 108.259 14.9725 108.55 15.1292C108.819 15.2859 109.02 15.5097 109.11 15.8006C109.199 16.0916 109.177 16.3825 109.02 16.6735C108.841 16.9868 108.617 17.1883 108.326 17.2554C107.99 17.3226 107.722 17.3002 107.453 17.1435Z" fill="#606161" stroke="#606161" stroke-miterlimit="10"/>
<path d="M111.818 19.784C111.549 19.6049 111.392 19.3811 111.303 19.0901C111.213 18.7992 111.28 18.5082 111.482 18.1949C111.661 17.9487 111.885 17.7696 112.198 17.7025C112.511 17.6353 112.78 17.6801 113.049 17.8592C113.317 18.0382 113.474 18.2844 113.541 18.5754C113.608 18.8887 113.563 19.1573 113.384 19.4259C113.183 19.7168 112.937 19.8959 112.646 19.9406C112.355 20.0078 112.064 19.9406 111.818 19.784Z" fill="#606161" stroke="#606161" stroke-miterlimit="10"/>
<path d="M115.98 22.7379C115.734 22.5365 115.578 22.3127 115.533 21.9994C115.466 21.7084 115.555 21.4174 115.779 21.1265C115.958 20.8803 116.204 20.746 116.518 20.7012C116.831 20.6565 117.099 20.7236 117.346 20.9251C117.592 21.1265 117.749 21.3727 117.793 21.686C117.838 21.9994 117.771 22.2679 117.569 22.5141C117.346 22.8051 117.099 22.9618 116.786 22.9841C116.495 23.0065 116.204 22.917 115.98 22.7379Z" fill="#606161" stroke="#606161" stroke-miterlimit="10"/>
<path d="M119.897 26.006C119.673 25.8046 119.539 25.536 119.494 25.2451C119.45 24.9541 119.562 24.6631 119.808 24.3946C120.009 24.1707 120.278 24.0365 120.591 24.0141C120.904 23.9917 121.173 24.0812 121.419 24.305C121.665 24.5065 121.777 24.775 121.8 25.0884C121.822 25.4017 121.733 25.6703 121.509 25.9165C121.263 26.1851 120.994 26.3194 120.703 26.3194C120.39 26.3194 120.121 26.2075 119.897 26.006Z" fill="#606161" stroke="#606161" stroke-miterlimit="10"/>
<path d="M123.567 29.5644C123.344 29.3406 123.232 29.0721 123.232 28.7811C123.209 28.4678 123.344 28.1992 123.612 27.953C123.836 27.7292 124.105 27.6396 124.418 27.6396C124.731 27.6396 125 27.7516 125.224 27.9977C125.447 28.2216 125.559 28.4901 125.559 28.8035C125.559 29.1168 125.447 29.3854 125.224 29.6092C124.955 29.8554 124.686 29.9673 124.373 29.9449C124.037 29.9002 123.769 29.7883 123.567 29.5644Z" fill="#606161" stroke="#606161" stroke-miterlimit="10"/>
<path d="M126.947 33.3698C126.746 33.1237 126.656 32.8551 126.656 32.5417C126.679 32.2284 126.813 31.9822 127.104 31.736C127.35 31.5346 127.619 31.445 127.932 31.4898C128.245 31.5346 128.492 31.6465 128.693 31.8927C128.895 32.1389 128.984 32.4074 128.962 32.7208C128.939 33.0341 128.805 33.2803 128.559 33.4818C128.29 33.7056 127.999 33.7951 127.686 33.7503C127.373 33.7503 127.126 33.616 126.947 33.3698Z" fill="#606161" stroke="#606161" stroke-miterlimit="10"/>
<path d="M130.036 37.4426C129.857 37.1964 129.79 36.9055 129.812 36.6145C129.857 36.3235 130.014 36.055 130.305 35.8535C130.551 35.6745 130.842 35.6073 131.133 35.6521C131.446 35.6969 131.692 35.8535 131.871 36.1221C132.051 36.3907 132.118 36.6593 132.073 36.9726C132.028 37.2859 131.871 37.5321 131.603 37.7112C131.312 37.9126 131.021 37.9798 130.73 37.9126C130.439 37.8455 130.215 37.6888 130.036 37.4426Z" fill="#606161" stroke="#606161" stroke-miterlimit="10"/>
<path d="M132.811 41.718C132.654 41.4494 132.61 41.1585 132.654 40.8675C132.721 40.5766 132.9 40.3304 133.214 40.1513C133.482 39.9947 133.751 39.9499 134.064 40.017C134.355 40.0842 134.601 40.2632 134.758 40.5318C134.915 40.8004 134.96 41.0913 134.892 41.4047C134.825 41.718 134.646 41.9418 134.378 42.0985C134.064 42.2776 133.773 42.3223 133.482 42.2328C133.169 42.1656 132.945 41.9866 132.811 41.718Z" fill="#606161" stroke="#606161" stroke-miterlimit="10"/>
<path d="M135.228 46.2165C135.094 45.9256 135.049 45.657 135.139 45.366C135.228 45.0751 135.43 44.8513 135.743 44.6946C136.012 44.5603 136.303 44.5379 136.594 44.6274C136.885 44.717 137.108 44.9184 137.243 45.2094C137.377 45.5003 137.399 45.7913 137.31 46.0822C137.22 46.3732 137.019 46.597 136.75 46.7313C136.437 46.888 136.124 46.9103 135.855 46.7984C135.586 46.6642 135.363 46.4851 135.228 46.2165Z" fill="#606161" stroke="#606161" stroke-miterlimit="10"/>
<path d="M137.332 50.8721C137.22 50.5811 137.198 50.2901 137.31 49.9992C137.422 49.7082 137.623 49.5068 137.959 49.3725C138.25 49.2606 138.541 49.2606 138.809 49.3725C139.1 49.4844 139.302 49.7082 139.414 49.9992C139.526 50.2901 139.526 50.5811 139.414 50.8721C139.302 51.163 139.1 51.3644 138.809 51.4764C138.474 51.6106 138.183 51.6106 137.892 51.4764C137.645 51.3644 137.444 51.1406 137.332 50.8721Z" fill="#606161" stroke="#606161" stroke-miterlimit="10"/>
<path d="M139.056 55.6618C138.966 55.3709 138.966 55.0799 139.1 54.789C139.235 54.5204 139.458 54.3189 139.817 54.207C140.107 54.1175 140.398 54.1399 140.667 54.2742C140.936 54.4085 141.137 54.6323 141.227 54.9456C141.316 55.259 141.294 55.5499 141.159 55.8185C141.025 56.1095 140.801 56.2885 140.51 56.378C140.175 56.4899 139.861 56.4676 139.615 56.3109C139.324 56.1766 139.145 55.9528 139.056 55.6618Z" fill="#606161" stroke="#606161" stroke-miterlimit="10"/>
<path d="M140.421 60.5854C140.354 60.2721 140.376 60.0035 140.533 59.7349C140.667 59.4663 140.935 59.2873 141.271 59.2202C141.562 59.153 141.853 59.1978 142.122 59.3544C142.39 59.5111 142.547 59.7573 142.636 60.0483C142.704 60.3616 142.659 60.6526 142.502 60.9211C142.345 61.1897 142.099 61.3688 141.808 61.4359C141.45 61.5254 141.159 61.4807 140.913 61.3016C140.645 61.1002 140.488 60.8764 140.421 60.5854Z" fill="#606161" stroke="#606161" stroke-miterlimit="10"/>
<path d="M141.383 65.5986C141.338 65.2852 141.383 65.0167 141.562 64.7481C141.741 64.4795 141.988 64.3452 142.346 64.2781C142.659 64.2333 142.928 64.3005 143.174 64.4795C143.42 64.6586 143.577 64.9048 143.621 65.2181C143.666 65.5314 143.599 65.8224 143.42 66.0686C143.241 66.3148 142.995 66.4715 142.681 66.5162C142.323 66.561 142.032 66.4938 141.786 66.3148C141.585 66.1357 141.428 65.8895 141.383 65.5986Z" fill="#606161" stroke="#606161" stroke-miterlimit="10"/>
<path d="M141.988 70.6572C141.965 70.3438 142.032 70.0753 142.234 69.8291C142.435 69.5829 142.681 69.4486 143.062 69.4262C143.375 69.4038 143.644 69.4934 143.89 69.6948C144.136 69.8962 144.271 70.1424 144.293 70.4781C144.315 70.7915 144.226 71.0824 144.024 71.3062C143.823 71.5524 143.577 71.6867 143.263 71.7091C142.905 71.7315 142.614 71.642 142.39 71.4405C142.122 71.2167 142.01 70.9705 141.988 70.6572Z" fill="#606161" stroke="#606161" stroke-miterlimit="10"/>
<path d="M142.189 75.6702C142.189 75.3568 142.279 75.0883 142.48 74.8645C142.682 74.6406 142.95 74.5063 143.331 74.5063C143.644 74.5063 143.913 74.5959 144.136 74.8197C144.36 75.0435 144.472 75.2897 144.472 75.6254C144.472 75.9388 144.383 76.2073 144.159 76.4535C143.935 76.6773 143.689 76.7892 143.375 76.8116C143.017 76.8116 142.726 76.6997 142.525 76.4983C142.301 76.2297 142.189 75.9835 142.189 75.6702Z" fill="#606161" stroke="#606161" stroke-miterlimit="10"/>
<path d="M142.01 80.8635C142.032 80.5501 142.144 80.2816 142.368 80.0801C142.592 79.8787 142.883 79.7668 143.241 79.8116C143.554 79.8339 143.8 79.9682 144.002 80.192C144.203 80.4158 144.293 80.7068 144.27 81.0201C144.248 81.3335 144.114 81.6021 143.89 81.8035C143.666 82.0049 143.375 82.0945 143.062 82.0721C142.704 82.0497 142.435 81.9154 142.234 81.6692C142.077 81.4454 141.987 81.1544 142.01 80.8635Z" fill="#606161" stroke="#606161" stroke-miterlimit="10"/>
<path d="M141.45 85.9209C141.495 85.6075 141.629 85.3614 141.875 85.1599C142.099 84.9585 142.413 84.8913 142.771 84.9361C143.084 84.9809 143.33 85.1375 143.509 85.3837C143.688 85.6299 143.778 85.9209 143.711 86.2342C143.666 86.5476 143.509 86.7938 143.263 86.9952C143.017 87.1742 142.726 87.2638 142.435 87.219C142.077 87.1742 141.808 87.0176 141.652 86.7714C141.495 86.5252 141.405 86.2342 141.45 85.9209Z" fill="#606161" stroke="#606161" stroke-miterlimit="10"/>
<path d="M140.51 90.9343C140.578 90.621 140.734 90.3972 140.98 90.2181C141.227 90.0391 141.518 89.9943 141.876 90.0838C142.167 90.151 142.413 90.3076 142.57 90.5762C142.749 90.8448 142.793 91.1134 142.726 91.4267C142.659 91.74 142.48 91.9862 142.234 92.1429C141.965 92.322 141.697 92.3667 141.383 92.2996C141.025 92.2101 140.779 92.0534 140.645 91.7848C140.488 91.5162 140.443 91.2477 140.51 90.9343Z" fill="#606161" stroke="#606161" stroke-miterlimit="10"/>
<path d="M139.19 95.8807C139.279 95.5898 139.459 95.3436 139.727 95.1869C139.996 95.0302 140.287 95.0078 140.645 95.1197C140.936 95.2093 141.16 95.3883 141.316 95.6569C141.473 95.9255 141.495 96.2164 141.406 96.5298C141.316 96.8431 141.137 97.0669 140.846 97.2012C140.578 97.3579 140.287 97.3803 139.973 97.2907C139.638 97.1788 139.391 96.9998 139.257 96.7088C139.123 96.4626 139.1 96.1717 139.19 95.8807Z" fill="#606161" stroke="#606161" stroke-miterlimit="10"/>
<path d="M137.511 100.693C137.623 100.402 137.825 100.178 138.093 100.044C138.362 99.9093 138.675 99.9093 139.011 100.044C139.302 100.155 139.503 100.357 139.637 100.648C139.772 100.939 139.772 101.23 139.66 101.521C139.548 101.812 139.346 102.036 139.055 102.147C138.765 102.282 138.474 102.282 138.183 102.17C137.847 102.036 137.623 101.834 137.511 101.543C137.399 101.252 137.399 100.961 137.511 100.693Z" fill="#606161" stroke="#606161" stroke-miterlimit="10"/>
<path d="M135.452 105.371C135.586 105.08 135.788 104.901 136.079 104.766C136.37 104.654 136.661 104.677 136.996 104.833C137.265 104.968 137.466 105.191 137.578 105.482C137.69 105.773 137.668 106.064 137.533 106.355C137.399 106.646 137.175 106.848 136.884 106.937C136.593 107.049 136.302 107.027 136.012 106.892C135.698 106.736 135.497 106.512 135.407 106.221C135.295 105.908 135.318 105.639 135.452 105.371Z" fill="#606161" stroke="#606161" stroke-miterlimit="10"/>
<path d="M133.035 109.87C133.192 109.601 133.416 109.422 133.707 109.332C133.998 109.243 134.288 109.288 134.602 109.467C134.87 109.623 135.049 109.847 135.117 110.138C135.206 110.429 135.161 110.72 135.005 110.989C134.848 111.257 134.602 111.436 134.311 111.526C133.998 111.615 133.729 111.571 133.46 111.414C133.147 111.235 132.968 110.989 132.901 110.698C132.834 110.407 132.878 110.138 133.035 109.87Z" fill="#606161" stroke="#606161" stroke-miterlimit="10"/>
<path d="M130.305 114.166C130.484 113.898 130.73 113.741 131.021 113.674C131.312 113.607 131.603 113.674 131.916 113.876C132.162 114.055 132.319 114.301 132.386 114.592C132.453 114.905 132.386 115.174 132.207 115.442C132.028 115.711 131.782 115.867 131.468 115.935C131.155 116.002 130.886 115.935 130.618 115.756C130.327 115.554 130.148 115.308 130.126 114.995C130.058 114.681 130.126 114.413 130.305 114.166Z" fill="#606161" stroke="#606161" stroke-miterlimit="10"/>
<path d="M127.238 118.263C127.439 118.016 127.686 117.882 127.977 117.815C128.268 117.77 128.559 117.86 128.849 118.083C129.096 118.285 129.23 118.531 129.252 118.844C129.297 119.158 129.208 119.426 129.006 119.673C128.805 119.919 128.559 120.053 128.245 120.098C127.932 120.143 127.663 120.053 127.417 119.852C127.148 119.628 126.992 119.359 126.969 119.068C126.947 118.755 127.037 118.486 127.238 118.263Z" fill="#606161" stroke="#606161" stroke-miterlimit="10"/>
<path d="M123.881 122.09C124.105 121.866 124.351 121.732 124.664 121.709C124.978 121.687 125.246 121.799 125.515 122.045C125.739 122.246 125.851 122.515 125.873 122.828C125.895 123.142 125.783 123.41 125.56 123.634C125.336 123.858 125.067 123.992 124.754 123.992C124.441 124.015 124.172 123.903 123.948 123.679C123.68 123.433 123.568 123.164 123.568 122.851C123.568 122.582 123.68 122.314 123.881 122.09Z" fill="#606161" stroke="#606161" stroke-miterlimit="10"/>
<path d="M120.233 125.671C120.457 125.469 120.725 125.357 121.038 125.357C121.352 125.357 121.62 125.492 121.867 125.76C122.068 125.984 122.18 126.253 122.158 126.566C122.158 126.879 122.023 127.148 121.799 127.349C121.576 127.573 121.285 127.663 120.971 127.663C120.658 127.663 120.389 127.528 120.188 127.305C119.942 127.036 119.83 126.767 119.875 126.454C119.897 126.118 120.009 125.872 120.233 125.671Z" fill="#606161" stroke="#606161" stroke-miterlimit="10"/>
<path d="M116.339 128.96C116.585 128.759 116.854 128.692 117.167 128.692C117.48 128.714 117.726 128.871 117.95 129.14C118.129 129.386 118.219 129.654 118.174 129.968C118.129 130.281 117.995 130.527 117.749 130.729C117.503 130.93 117.212 130.997 116.898 130.975C116.585 130.93 116.339 130.796 116.137 130.55C115.914 130.259 115.824 129.968 115.891 129.677C115.958 129.386 116.115 129.14 116.339 128.96Z" fill="#606161" stroke="#606161" stroke-miterlimit="10"/>
<path d="M112.198 131.959C112.466 131.78 112.735 131.713 113.048 131.758C113.339 131.803 113.608 131.982 113.809 132.273C113.988 132.519 114.033 132.81 113.988 133.123C113.944 133.437 113.765 133.66 113.496 133.84C113.227 134.019 112.936 134.086 112.645 134.019C112.332 133.951 112.086 133.795 111.929 133.549C111.728 133.258 111.661 132.944 111.75 132.653C111.795 132.34 111.952 132.116 112.198 131.959Z" fill="#606161" stroke="#606161" stroke-miterlimit="10"/>
<path d="M107.856 134.601C108.125 134.444 108.416 134.399 108.706 134.466C108.997 134.533 109.244 134.712 109.423 135.048C109.579 135.317 109.602 135.608 109.535 135.899C109.445 136.19 109.266 136.436 108.997 136.592C108.729 136.749 108.438 136.794 108.125 136.704C107.811 136.615 107.587 136.436 107.431 136.167C107.252 135.854 107.207 135.563 107.319 135.272C107.408 134.981 107.587 134.757 107.856 134.601Z" fill="#606161" stroke="#606161" stroke-miterlimit="10"/>
<path d="M103.313 136.951C103.604 136.817 103.895 136.794 104.186 136.884C104.477 136.973 104.7 137.175 104.857 137.51C104.991 137.779 104.991 138.07 104.902 138.361C104.79 138.652 104.611 138.876 104.32 139.01C104.029 139.144 103.738 139.167 103.447 139.055C103.156 138.943 102.932 138.764 102.798 138.473C102.641 138.137 102.619 137.846 102.753 137.555C102.888 137.264 103.044 137.063 103.313 136.951Z" fill="#606161" stroke="#606161" stroke-miterlimit="10"/>
<path d="M98.6123 138.92C98.9032 138.808 99.1942 138.808 99.4852 138.92C99.7761 139.032 99.9775 139.256 100.112 139.592C100.224 139.883 100.201 140.174 100.089 140.442C99.9552 140.733 99.7537 140.935 99.4628 141.047C99.1718 141.158 98.8809 141.158 98.5899 141.024C98.2989 140.89 98.0975 140.688 97.9856 140.398C97.8513 140.062 97.8737 139.748 98.008 139.48C98.1199 139.211 98.3213 139.032 98.6123 138.92Z" fill="#606161" stroke="#606161" stroke-miterlimit="10"/>
<path d="M93.7555 140.532C94.0465 140.442 94.3375 140.465 94.6284 140.599C94.9194 140.733 95.0984 140.979 95.188 141.315C95.2775 141.606 95.2327 141.897 95.0984 142.166C94.9418 142.434 94.7179 142.613 94.427 142.703C94.1136 142.792 93.8227 142.77 93.5541 142.613C93.2855 142.457 93.0841 142.233 93.017 141.942C92.9274 141.606 92.9498 141.293 93.1065 141.047C93.2408 140.778 93.4646 140.599 93.7555 140.532Z" fill="#606161" stroke="#606161" stroke-miterlimit="10"/>
<path d="M88.8092 141.763C89.1226 141.695 89.3912 141.74 89.6597 141.897C89.9283 142.054 90.085 142.3 90.1745 142.658C90.2417 142.949 90.1745 143.24 90.0178 143.508C89.8612 143.777 89.615 143.934 89.3016 144.001C88.9883 144.068 88.6973 144.023 88.4288 143.844C88.1602 143.665 88.0035 143.441 87.9364 143.128C87.8692 142.77 87.914 142.479 88.093 142.233C88.2721 141.986 88.5183 141.83 88.8092 141.763Z" fill="#606161" stroke="#606161" stroke-miterlimit="10"/>
<path d="M83.7961 142.613C84.1095 142.568 84.3781 142.635 84.6466 142.814C84.8928 142.994 85.0495 143.24 85.0943 143.62C85.139 143.934 85.0719 144.202 84.8704 144.448C84.6914 144.695 84.4228 144.851 84.1095 144.874C83.7961 144.896 83.5052 144.851 83.259 144.65C83.0128 144.471 82.8561 144.202 82.8114 143.911C82.7666 143.553 82.8337 143.262 83.0352 143.038C83.2366 142.792 83.4828 142.658 83.7961 142.613Z" fill="#606161" stroke="#606161" stroke-miterlimit="10"/>
<path d="M78.7151 143.083C79.0284 143.061 79.297 143.151 79.5432 143.352C79.7894 143.531 79.9013 143.822 79.9237 144.18C79.9461 144.493 79.8565 144.762 79.6327 144.986C79.4313 145.21 79.1627 145.344 78.8494 145.366C78.536 145.389 78.2451 145.299 78.0213 145.075C77.7751 144.874 77.6632 144.605 77.6408 144.292C77.6184 143.934 77.7079 143.643 77.9317 143.442C78.1556 143.218 78.4018 143.106 78.7151 143.083Z" fill="#606161" stroke="#606161" stroke-miterlimit="10"/>
<path d="M73.6124 143.173C73.9257 143.173 74.1943 143.285 74.4181 143.486C74.6419 143.688 74.7539 143.979 74.7315 144.337C74.7315 144.65 74.6196 144.896 74.3957 145.12C74.1719 145.344 73.9034 145.433 73.59 145.433C73.2767 145.433 73.0081 145.321 72.7843 145.098C72.5605 144.874 72.4486 144.605 72.471 144.292C72.471 143.934 72.6052 143.665 72.8291 143.464C73.0305 143.262 73.2991 143.173 73.6124 143.173Z" fill="#606161" stroke="#606161" stroke-miterlimit="10"/>
<path d="M68.5096 142.882C68.8229 142.904 69.0691 143.039 69.2929 143.262C69.4944 143.486 69.5839 143.777 69.5615 144.135C69.5391 144.449 69.4049 144.695 69.1587 144.896C68.9125 145.098 68.6439 145.187 68.3305 145.143C68.0172 145.12 67.7486 144.986 67.5472 144.74C67.3458 144.493 67.2562 144.225 67.2786 143.912C67.3234 143.553 67.4577 143.285 67.7039 143.106C67.9277 142.927 68.1963 142.837 68.5096 142.882Z" fill="#606161" stroke="#606161" stroke-miterlimit="10"/>
<path d="M63.4513 142.188C63.7647 142.233 64.0108 142.39 64.1899 142.613C64.369 142.86 64.4361 143.151 64.3913 143.509C64.3466 143.822 64.1899 144.046 63.9437 144.225C63.6975 144.404 63.4066 144.471 63.0932 144.426C62.7799 144.382 62.5337 144.225 62.3546 143.956C62.1756 143.688 62.1084 143.419 62.1532 143.106C62.2203 142.748 62.377 142.502 62.6232 142.322C62.8694 142.188 63.1604 142.143 63.4513 142.188Z" fill="#606161" stroke="#606161" stroke-miterlimit="10"/>
<path d="M58.4603 141.136C58.7737 141.203 58.9975 141.382 59.1765 141.628C59.3556 141.875 59.378 142.188 59.2885 142.524C59.2213 142.815 59.0423 143.061 58.7737 143.217C58.5051 143.374 58.2141 143.419 57.9232 143.352C57.6098 143.285 57.386 143.106 57.207 142.837C57.0503 142.568 57.0056 142.277 57.0727 141.986C57.1622 141.628 57.3413 141.405 57.6098 141.248C57.9008 141.091 58.1694 141.046 58.4603 141.136Z" fill="#606161" stroke="#606161" stroke-miterlimit="10"/>
<path d="M53.5586 139.681C53.8495 139.771 54.0733 139.972 54.23 140.218C54.3867 140.487 54.409 140.778 54.2748 141.136C54.1852 141.427 53.9838 141.651 53.7152 141.785C53.4466 141.919 53.1557 141.942 52.8424 141.852C52.5514 141.74 52.3276 141.561 52.1709 141.27C52.0366 141.002 52.0142 140.711 52.1038 140.397C52.2157 140.062 52.4171 139.838 52.6857 139.703C52.999 139.614 53.2676 139.591 53.5586 139.681Z" fill="#606161" stroke="#606161" stroke-miterlimit="10"/>
<path d="M56.5303 11.3949C56.2415 11.4911 55.9501 11.4755 55.6561 11.3481C55.3621 11.2206 55.1774 10.9786 55.08 10.6451C54.9838 10.3563 55.0218 10.0643 55.1498 9.79272C55.3001 9.52057 55.5197 9.33635 55.8085 9.24008C56.1197 9.14329 56.4111 9.15891 56.6832 9.30929C56.9554 9.45966 57.162 9.67873 57.2359 9.96805C57.3332 10.3016 57.3181 10.6154 57.1672 10.8651C57.0392 11.1368 56.8196 11.321 56.5303 11.3949Z" fill="#606161" stroke="#606161" stroke-miterlimit="10"/>
<path d="M61.4466 10.0494C61.135 10.1238 60.8654 10.0853 60.5933 9.93492C60.3211 9.78454 60.1588 9.54205 60.0609 9.18613C59.987 8.89681 60.0474 8.60437 60.1978 8.33222C60.3481 8.06007 60.5906 7.89772 60.9023 7.8233C61.214 7.74889 61.5059 7.78687 61.7786 7.95963C62.0513 8.13238 62.2131 8.35249 62.2875 8.66419C62.363 9.02063 62.325 9.31255 62.1517 9.56284C61.9784 9.81314 61.736 9.97549 61.4466 10.0494Z" fill="#606161" stroke="#606161" stroke-miterlimit="10"/>
<path d="M66.4386 9.08303C66.1264 9.13507 65.8563 9.07419 65.5836 8.90144C65.3333 8.72816 65.171 8.48568 65.1174 8.10634C65.0653 7.79413 65.1262 7.52406 65.3219 7.27325C65.4951 7.02295 65.76 6.86007 66.0727 6.83041C66.3855 6.80074 66.6774 6.83873 66.9282 7.03438C67.1785 7.20765 67.3414 7.47252 67.3929 7.76236C67.446 8.11932 67.3856 8.41176 67.1894 8.6402C66.9938 8.89101 66.7508 9.03099 66.4386 9.08303Z" fill="#606161" stroke="#606161" stroke-miterlimit="10"/>
<path d="M71.5073 8.49486C71.1946 8.52452 70.924 8.44128 70.6732 8.24563C70.4229 8.07235 70.3042 7.78407 70.2735 7.42659C70.2438 7.11385 70.3271 6.84326 70.5456 6.6143C70.7418 6.38586 71.0072 6.24537 71.3199 6.21571C71.6327 6.18604 71.9256 6.26877 72.1546 6.48732C72.4054 6.68297 72.5235 6.94887 72.5532 7.26161C72.5839 7.61909 72.5012 7.91205 72.2821 8.11863C72.0635 8.34759 71.82 8.46519 71.5073 8.49486Z" fill="#606161" stroke="#606161" stroke-miterlimit="10"/>
<path d="M76.6065 8.2859C76.2933 8.29318 76.0222 8.18755 75.7937 7.99138C75.5653 7.79521 75.4467 7.50693 75.4607 7.14841C75.4534 6.83515 75.5596 6.58642 75.7781 6.35746C75.9967 6.1285 76.2631 6.03275 76.5763 6.02546C76.8896 6.01817 77.1607 6.1238 77.3896 6.34235C77.6186 6.56089 77.7367 6.8268 77.7216 7.14058C77.73 7.49858 77.602 7.77021 77.3829 7.9768C77.1862 8.18286 76.9198 8.27861 76.6065 8.2859Z" fill="#606161" stroke="#606161" stroke-miterlimit="10"/>
<path d="M81.7147 8.45823C81.4009 8.44314 81.1517 8.31461 80.9227 8.09607C80.7161 7.877 80.6199 7.58821 80.6339 7.22968C80.649 6.91591 80.7775 6.66665 81.019 6.45955C81.2604 6.25244 81.5268 6.1567 81.8411 6.19416C82.1549 6.20925 82.4265 6.33725 82.6336 6.57869C82.8407 6.82013 82.9365 7.08656 82.9214 7.40033C82.885 7.75938 82.757 8.031 82.515 8.21573C82.2954 8.39994 82.029 8.49569 81.7147 8.45823Z" fill="#606161" stroke="#606161" stroke-miterlimit="10"/>
<path d="M86.7878 9.03423C86.4735 8.99677 86.2237 8.84588 86.0395 8.62629C85.8548 8.38433 85.7809 8.09501 85.8173 7.73597C85.8548 7.42167 86.0062 7.19427 86.2481 7.00954C86.4901 6.82481 86.7794 6.75091 87.0937 6.78837C87.408 6.82583 87.6578 6.97674 87.843 7.24108C88.0283 7.50542 88.1017 7.77236 88.0642 8.08666C88.0054 8.44622 87.8545 8.696 87.6125 8.88072C87.3695 9.0207 87.0797 9.07222 86.7878 9.03423Z" fill="#606161" stroke="#606161" stroke-miterlimit="10"/>
<path d="M92.8019 9.96979C92.4871 9.90995 92.2592 9.73615 92.0745 9.49419C91.8897 9.25223 91.8601 8.93949 91.9418 8.60178C92.0021 8.30934 92.1754 8.05905 92.4402 7.89618C92.7051 7.7333 92.9949 7.68179 93.2874 7.74214C93.6022 7.80198 93.8301 7.97577 94.0154 8.24011C94.1782 8.50497 94.2298 8.79481 94.1694 9.08725C94.0882 9.44734 93.9144 9.67525 93.6496 9.83813C93.3623 10.0015 93.0949 10.0525 92.8019 9.96979Z" fill="#606161" stroke="#606161" stroke-miterlimit="10"/>
<path d="M97.7362 12.3111C97.4432 12.2284 97.2148 12.0322 97.0524 11.7897C96.8896 11.5249 96.8604 11.2345 96.9863 10.8734C97.0691 10.5804 97.2652 10.352 97.5306 10.2115C97.796 10.071 98.0864 10.0418 98.4017 10.1241C98.6952 10.2292 98.9231 10.403 99.0865 10.6902C99.227 10.9556 99.2561 11.2459 99.1739 11.5613C99.0699 11.8995 98.8737 12.1279 98.6083 12.2684C98.2971 12.3652 98.0291 12.3939 97.7362 12.3111Z" fill="#606161" stroke="#606161" stroke-miterlimit="10"/>
<path d="M48.7916 137.868C49.0826 137.98 49.284 138.182 49.4183 138.473C49.5526 138.741 49.5526 139.054 49.3959 139.39C49.284 139.681 49.0826 139.883 48.7916 139.994C48.5007 140.106 48.2097 140.106 47.9187 139.994C47.6278 139.86 47.4263 139.659 47.2921 139.368C47.1802 139.077 47.1802 138.786 47.2921 138.495C47.4263 138.159 47.6502 137.958 47.9411 137.846C48.2321 137.756 48.5007 137.756 48.7916 137.868Z" fill="#606161" stroke="#606161" stroke-miterlimit="10"/>
<path d="M44.1809 135.697C44.4495 135.831 44.6509 136.055 44.7628 136.346C44.8747 136.637 44.8524 136.928 44.6733 137.264C44.539 137.532 44.3152 137.734 44.0243 137.823C43.7333 137.913 43.4423 137.891 43.1514 137.756C42.8604 137.6 42.6814 137.398 42.5695 137.085C42.4799 136.794 42.5023 136.503 42.6366 136.212C42.7933 135.899 43.0395 135.697 43.3304 135.608C43.6214 135.518 43.9123 135.563 44.1809 135.697Z" fill="#606161" stroke="#606161" stroke-miterlimit="10"/>
<path d="M39.7269 133.19C39.9955 133.347 40.1745 133.593 40.264 133.884C40.3536 134.175 40.3088 134.466 40.1074 134.779C39.9507 135.048 39.7045 135.205 39.4135 135.294C39.1226 135.361 38.8316 135.317 38.5631 135.16C38.2945 135.003 38.1154 134.757 38.0483 134.444C37.9811 134.13 38.0259 133.862 38.1826 133.593C38.3616 133.28 38.6078 133.101 38.9212 133.056C39.1897 132.989 39.4807 133.034 39.7269 133.19Z" fill="#606161" stroke="#606161" stroke-miterlimit="10"/>
<path d="M35.4969 130.348C35.743 130.527 35.8997 130.773 35.9669 131.064C36.034 131.355 35.9669 131.646 35.743 131.96C35.564 132.206 35.3178 132.362 35.0045 132.407C34.6911 132.452 34.4225 132.385 34.154 132.206C33.9078 132.027 33.7511 131.78 33.684 131.467C33.6392 131.154 33.7063 130.885 33.8854 130.617C34.0868 130.326 34.3554 130.169 34.6464 130.124C34.9821 130.102 35.2507 130.169 35.4969 130.348Z" fill="#606161" stroke="#606161" stroke-miterlimit="10"/>
<path d="M31.4907 127.192C31.7368 127.394 31.8711 127.64 31.9159 127.953C31.9607 128.244 31.8711 128.535 31.6249 128.826C31.4235 129.05 31.1773 129.184 30.864 129.229C30.5506 129.251 30.2821 129.162 30.0359 128.96C29.7897 128.759 29.6554 128.49 29.633 128.177C29.6106 127.864 29.7001 127.595 29.9016 127.349C30.1254 127.08 30.394 126.924 30.7073 126.924C30.9983 126.901 31.2668 126.991 31.4907 127.192Z" fill="#606161" stroke="#606161" stroke-miterlimit="10"/>
<path d="M27.7307 123.745C27.9545 123.969 28.0664 124.238 28.0888 124.529C28.1112 124.842 27.9993 125.111 27.7307 125.379C27.5069 125.603 27.2607 125.715 26.9474 125.715C26.634 125.715 26.3654 125.603 26.1416 125.379C25.9178 125.155 25.8059 124.887 25.8059 124.573C25.8059 124.26 25.9178 123.992 26.1192 123.768C26.3654 123.522 26.6564 123.387 26.9474 123.41C27.2607 123.41 27.5069 123.522 27.7307 123.745Z" fill="#606161" stroke="#606161" stroke-miterlimit="10"/>
<path d="M24.2392 120.03C24.4406 120.276 24.5525 120.545 24.5525 120.836C24.5525 121.149 24.4182 121.418 24.1272 121.642C23.9034 121.843 23.6349 121.933 23.3215 121.91C23.0082 121.888 22.762 121.754 22.5382 121.53C22.3367 121.284 22.2248 121.015 22.2472 120.702C22.2696 120.388 22.4039 120.12 22.6277 119.918C22.8963 119.695 23.1872 119.583 23.4782 119.627C23.7915 119.672 24.0377 119.784 24.2392 120.03Z" fill="#606161" stroke="#606161" stroke-miterlimit="10"/>
<path d="M21.0387 116.047C21.2177 116.293 21.3072 116.584 21.2849 116.875C21.2625 117.188 21.1058 117.434 20.8149 117.658C20.5687 117.837 20.3001 117.904 19.9867 117.882C19.6734 117.837 19.4272 117.703 19.2482 117.434C19.0691 117.188 18.9796 116.897 19.0243 116.584C19.0691 116.271 19.2034 116.024 19.472 115.845C19.7629 115.622 20.0539 115.554 20.3448 115.622C20.6358 115.644 20.8596 115.801 21.0387 116.047Z" fill="#606161" stroke="#606161" stroke-miterlimit="10"/>
<path d="M18.1514 111.839C18.3081 112.107 18.3752 112.376 18.3304 112.689C18.2857 112.98 18.1066 113.226 17.7933 113.428C17.5247 113.584 17.2561 113.651 16.9428 113.584C16.6295 113.517 16.4056 113.361 16.2266 113.092C16.0475 112.823 16.0028 112.532 16.0699 112.219C16.1371 111.906 16.2937 111.682 16.5623 111.503C16.8756 111.301 17.1666 111.257 17.4576 111.346C17.7709 111.413 17.9947 111.592 18.1514 111.839Z" fill="#606161" stroke="#606161" stroke-miterlimit="10"/>
<path d="M15.5999 107.43C15.7566 107.698 15.7789 107.989 15.7118 108.28C15.6447 108.571 15.4432 108.817 15.1299 108.974C14.8613 109.108 14.5704 109.153 14.2794 109.064C13.9884 108.974 13.7646 108.795 13.608 108.504C13.4513 108.213 13.4289 107.922 13.5184 107.631C13.608 107.34 13.787 107.116 14.0556 106.96C14.3689 106.803 14.6823 106.758 14.9508 106.87C15.2418 106.96 15.4656 107.161 15.5999 107.43Z" fill="#606161" stroke="#606161" stroke-miterlimit="10"/>
<path d="M13.3841 102.819C13.5184 103.11 13.5184 103.401 13.4289 103.692C13.3394 103.983 13.1156 104.207 12.7798 104.341C12.4889 104.475 12.2203 104.475 11.9294 104.363C11.6384 104.252 11.437 104.05 11.3027 103.759C11.1684 103.468 11.1684 103.177 11.2803 102.886C11.3922 102.595 11.5936 102.394 11.8846 102.26C12.2203 102.125 12.5113 102.103 12.8022 102.237C13.0708 102.349 13.2722 102.551 13.3841 102.819Z" fill="#606161" stroke="#606161" stroke-miterlimit="10"/>
<path d="M11.5268 98.0742C11.6387 98.3652 11.6163 98.6561 11.5044 98.9471C11.3925 99.238 11.1687 99.4171 10.8106 99.5514C10.5196 99.6633 10.2287 99.6409 9.96009 99.5066C9.66913 99.3723 9.49008 99.1485 9.37817 98.8576C9.26626 98.5666 9.28864 98.2756 9.42293 97.9847C9.55722 97.6937 9.78103 97.5147 10.072 97.4028C10.4077 97.2909 10.7211 97.2909 10.9896 97.4475C11.2582 97.6042 11.4149 97.7833 11.5268 98.0742Z" fill="#606161" stroke="#606161" stroke-miterlimit="10"/>
<path d="M10.027 93.195C10.1165 93.5084 10.0718 93.7769 9.93748 94.0455C9.8032 94.3141 9.557 94.4932 9.1989 94.5827C8.90794 94.6722 8.61698 94.6274 8.34841 94.4708C8.07983 94.3141 7.90078 94.0903 7.81125 93.7769C7.72173 93.4636 7.76649 93.1727 7.92316 92.9041C8.07983 92.6355 8.30364 92.4564 8.61698 92.3669C8.9527 92.2774 9.26604 92.3222 9.51224 92.4788C9.78081 92.6803 9.95986 92.9041 10.027 93.195Z" fill="#606161" stroke="#606161" stroke-miterlimit="10"/>
<path d="M8.90772 88.204C8.97487 88.5173 8.90772 88.7859 8.75105 89.0545C8.59438 89.3231 8.32581 89.4797 7.99008 89.5469C7.67675 89.5916 7.40817 89.5469 7.13959 89.3678C6.87102 89.1888 6.71435 88.9426 6.66958 88.6292C6.60244 88.3159 6.66958 88.0249 6.84863 87.7787C7.02769 87.5102 7.27388 87.3535 7.56484 87.3087C7.92294 87.2416 8.2139 87.3087 8.46009 87.4878C8.70629 87.6668 8.86296 87.913 8.90772 88.204Z" fill="#606161" stroke="#606161" stroke-miterlimit="10"/>
<path d="M8.1919 83.1683C8.21428 83.4816 8.14714 83.7502 7.96809 83.9964C7.78904 84.2426 7.52046 84.3769 7.16236 84.4216C6.84902 84.444 6.58044 84.3769 6.33425 84.1754C6.08805 83.974 5.95376 83.7278 5.909 83.4145C5.86424 83.1011 5.95376 82.8102 6.1552 82.564C6.35663 82.3178 6.60282 82.1835 6.91616 82.1387C7.27427 82.094 7.56522 82.1835 7.78904 82.3849C8.03523 82.6087 8.14714 82.8549 8.1919 83.1683Z" fill="#606161" stroke="#606161" stroke-miterlimit="10"/>
<path d="M7.83352 78.0655C7.83352 78.3789 7.74399 78.6474 7.56494 78.8936C7.36351 79.1174 7.09493 79.2517 6.73683 79.2517C6.42349 79.2517 6.15491 79.1622 5.9311 78.9608C5.70729 78.7593 5.573 78.4908 5.573 78.1774C5.573 77.8641 5.66252 77.5955 5.88634 77.3493C6.08777 77.1255 6.35635 76.9912 6.66969 76.9912C7.02779 76.9912 7.31874 77.0807 7.52018 77.3045C7.72161 77.506 7.83352 77.7522 7.83352 78.0655Z" fill="#606161" stroke="#606161" stroke-miterlimit="10"/>
<path d="M7.87825 72.9622C7.85587 73.2755 7.74397 73.5441 7.54253 73.7679C7.3411 73.9917 7.05014 74.0812 6.66966 74.0812C6.35632 74.0589 6.11012 73.9469 5.88631 73.7231C5.68488 73.4993 5.57297 73.2307 5.59535 72.9174C5.61773 72.6041 5.72964 72.3355 5.95346 72.1117C6.17727 71.8879 6.44585 71.7983 6.75919 71.8207C7.11729 71.8431 7.38586 71.955 7.5873 72.2012C7.78873 72.4026 7.87825 72.6712 7.87825 72.9622Z" fill="#606161" stroke="#606161" stroke-miterlimit="10"/>
<path d="M81.5918 90.957H65.0879C64.86 87.5065 65.0553 84.6257 65.6738 82.3145C66.2923 79.9707 67.1224 78.0339 68.1641 76.5039C69.2383 74.9414 70.4264 73.6882 71.7285 72.7441C73.0632 71.7676 74.349 70.9375 75.5859 70.2539C76.8555 69.5378 77.9622 68.8542 78.9062 68.2031C79.8828 67.5521 80.5501 66.7383 80.9082 65.7617C81.1361 65.1758 81.2012 64.5085 81.1035 63.7598C81.0059 62.9785 80.6641 62.2461 80.0781 61.5625C79.5247 60.8789 78.6784 60.3092 77.5391 59.8535C76.4323 59.3652 74.9837 59.1211 73.1934 59.1211C72.0215 59.1211 70.6217 59.235 68.9941 59.4629C67.3991 59.6582 65.7227 59.9837 63.9648 60.4395C62.207 60.8626 60.4655 61.3997 58.7402 62.0508C57.0475 62.6693 55.5176 63.3854 54.1504 64.1992L52.002 45.0586C53.2064 44.3424 54.5573 43.61 56.0547 42.8613C57.5846 42.0801 59.2611 41.3965 61.084 40.8105C62.9069 40.1921 64.8926 39.6875 67.041 39.2969C69.1895 38.9062 71.5007 38.7109 73.9746 38.7109C77.9785 38.7109 81.7546 39.2643 85.3027 40.3711C88.8835 41.4779 92.0085 43.1055 94.6777 45.2539C97.347 47.4023 99.4629 50.0553 101.025 53.2129C102.588 56.3379 103.369 59.9349 103.369 64.0039C103.369 67.0964 102.93 69.5866 102.051 71.4746C101.172 73.3301 100.049 74.86 98.6816 76.0645C97.3145 77.2689 95.7845 78.278 94.0918 79.0918C92.3991 79.9056 90.7389 80.8008 89.1113 81.7773C87.5163 82.7214 86.0352 83.8932 84.668 85.293C83.3333 86.6927 82.3079 88.5807 81.5918 90.957ZM84.0332 103.848C84.0332 105.28 83.7565 106.615 83.2031 107.852C82.6497 109.089 81.901 110.163 80.957 111.074C80.0456 112.018 78.9714 112.751 77.7344 113.271C76.4974 113.825 75.179 114.102 73.7793 114.102C72.347 114.102 71.0124 113.825 69.7754 113.271C68.5384 112.751 67.4479 112.018 66.5039 111.074C65.5924 110.163 64.86 109.089 64.3066 107.852C63.7858 106.615 63.5254 105.28 63.5254 103.848C63.5254 102.448 63.7858 101.113 64.3066 99.8438C64.86 98.5742 65.5924 97.4837 66.5039 96.5723C67.4479 95.6283 68.5384 94.8796 69.7754 94.3262C71.0124 93.7728 72.347 93.4961 73.7793 93.4961C75.179 93.4961 76.4974 93.7728 77.7344 94.3262C78.9714 94.8796 80.0456 95.6283 80.957 96.5723C81.901 97.4837 82.6497 98.5742 83.2031 99.8438C83.7565 101.113 84.0332 102.448 84.0332 103.848Z" fill="#4F4F4F"/>
</svg>
