<svg xmlns="http://www.w3.org/2000/svg" id="Layer_1" viewBox="0 0 700 700"><style>.st0{fill:#dcdbdb}.st2{fill:#606161;stroke:#606161;stroke-miterlimit:10}</style><switch><g><circle class="st0" cx="349.6" cy="360.1" r="335.1"/><circle class="st0" cx="350.9" cy="361.4" r="237.6"/><path d="M523.9 366.6c-1-1.3-5.4-2.3-8.7-2.3-.4 6.3-1.3 12.7-2.3 19 4.6-4 8.7-8.7 10-11 1.5-2 1.9-4.7 1-5.7zm-336.3 0c-2.7.4-7.3 2.7-10.4 6.3-9.6 10.4-16.7 30.4-14.6 38.7 4.6 15.4-3.3 32.3-10 47.1-4 8.7-8.1 16.7-8.1 22.7-1.3 41.4 22.3 59.4 42.1 67.1 32.7 13.1 74.8 5.4 88.1-9 17.7-20 40-30.4 61.4-37.1-80.8-6.5-144.8-64.6-148.5-135.8zm327.2-13.7c4.6.4 13.7 1 18.1 7.7 3.3 4.6 3.3 11.3-.4 17.7-2.7 5-15 17.7-24 23.7-16.4 45.8-58.1 82.1-110.8 95.8-8.7 2.7-17.7 5-27.7 7.3-29.4 6.7-62.7 15-87.1 42.1-10.4 11.7-33.7 19.4-59.1 19.4-13.7 0-28.1-2.3-41.4-7.7-32.3-12.7-50-40.4-49.1-77.5.4-8.1 4.6-17.3 9-27.3 6-13.1 12.7-28.1 9.6-39.4-3.7-12.7 6-36.4 16.7-49.1 7.7-8.7 14-10.4 18.7-10 3.3-51.4 56.4-103.1 100.8-137.9 24-18.7 45-28.1 63.1-28.1s39 9 63.1 27.7c44.4 34.5 96.5 85.2 100.5 135.6z" fill="#fff"/><path class="st2" d="M396 243.1c16 8.1 29 16 29.4 16.4l-6.7 11.3c-20-12.3-56.4-31.7-68.1-31.7-11.3 0-48.1 19.4-68.1 31.7l-6.7-11.3c.4 0 13.7-8.1 29.4-16.4 32.7-16.7 42.1-16.7 45.4-16.7s12.6 0 45.4 16.7zM413.6 442H290.2c-1.7 0-3.7 1.3-3.7 3.7 0 1.7 1.3 3.7 3.7 3.7h123.5c1.7 0 3.7-1.3 3.7-3.7-.1-2.3-1.8-4.3-3.8-3.7zm0 19.4H289.8c-8.7 0-16-7.3-16-16s7.3-16 16-16h123.5c8.7 0 16 7.3 16 16-.3 8.7-7 15.7-15.7 16zM416.9 314.9H293.4c-1.7 0-3.7 1.3-3.7 3.7 0 1.7 1.3 3.7 3.7 3.7h123.5c1.7 0 3.7-1.7 3.7-3.7 0-2.4-2-3.7-3.7-3.7zm0 19.4H293c-8.7 0-16-7.3-16-16s7.3-16 16-16h123.5c9 0 16 7.3 16 16-.2 8.9-7.1 16-15.6 16zM258.4 418.7c-8.7 0-16-7.3-16-16s7.3-16 16-16H445c8.7 0 16 6.7 16 16 0 9.2-7.3 16-16 16H258.4zM445 399.3H259c-1.7 0-3.7 1.3-3.7 3.7 0 1.7 1.3 3.7 3.7 3.7h186.6c1.7 0 3.7-1.3 3.7-3.7-.3-2-2-3.7-4.3-3.7zM456 376.6H248c-8.7 0-16-7.3-16-16s7.3-16 16-16h208c8.7 0 16 7.3 16 16-.3 8.7-7.6 16-16 16zm-211.6-16c0 1.7 1.3 3.7 3.7 3.7H456c1.7 0 3.7-1.7 3.7-3.7s-1.3-3.7-3.7-3.7H248c-2.3.1-4 2-3.6 3.7z"/><path d="M523.9 366.6c-1-1.3-5.4-2.3-8.7-2.3-.4 6.3-1.3 12.7-2.3 19 4.6-4 8.7-8.7 10-11 1.5-2 1.9-4.7 1-5.7zm-336.3 0c-2.7.4-7.3 2.7-10.4 6.3-9.6 10.4-16.7 30.4-14.6 38.7 4.6 15.4-3.3 32.3-10 47.1-4 8.7-8.1 16.7-8.1 22.7-1.3 41.4 22.3 59.4 42.1 67.1 32.7 13.1 74.8 5.4 88.1-9 17.7-20 40-30.4 61.4-37.1-80.8-6.5-144.8-64.6-148.5-135.8zm163.9-164.3c-15 0-33.7 8.7-54.8 25.4-73.5 57.7-93.1 99.8-95.2 126.6h6V351c0-2.7 2.3-4.6 4.6-4.6h1c2.7 0 4.6 2.3 4.6 4.6v23.1c0 2.7-2.3 4.6-4.6 4.6h-1c-2.7 0-4.6-2.3-4.6-4.6v-3.3h-6c6.7 66.2 71.8 118.5 150.2 118.5 78.5 0 143.5-52.1 150.2-118.5h-8.1v3.3c0 2.7-2.3 4.6-4.6 4.6h-.4c-2.7 0-4.6-2.3-4.6-4.6V351c0-2.7 2.3-4.6 4.6-4.6h.4c2.7 0 4.6 2.3 4.6 4.6v3.3h8.1c-2.3-26.7-21.4-69.1-95.2-126.6-21.5-16.7-40.2-25.4-55.2-25.4zm163.3 150.6c4.6.4 13.7 1 18.1 7.7 3.3 4.6 3.3 11.3-.4 17.7-2.7 5-15 17.7-24 23.7-16.4 45.8-58.1 82.1-110.8 95.8-8.7 2.7-17.7 5-27.7 7.3-29.4 6.7-62.7 15-87.1 42.1-10.4 11.7-33.7 19.4-59.1 19.4-13.7 0-28.1-2.3-41.4-7.7-32.3-12.7-50-40.4-49.1-77.5.4-8.1 4.6-17.3 9-27.3 6-13.1 12.7-28.1 9.6-39.4-3.7-12.7 6-36.4 16.7-49.1 7.7-8.7 14-10.4 18.7-10 3.3-51.4 56.4-103.1 100.8-137.9 24-18.7 45-28.1 63.1-28.1s39 9 63.1 27.7c44.4 34.5 96.5 85.2 100.5 135.6z" fill="#606161"/><path d="M626.8 370.3c0 153.5-124.5 278-278 278s-278-124.5-278-278 124.5-278 278-278 278 124.5 278 278z" fill="none" id="SVGID_x5F_14_x5F_"/><path class="st2" d="M58.1 316.7c-.2 1.4-.8 2.5-1.9 3.4-1 .9-2.4 1.2-4 1-1.4-.2-2.5-.8-3.3-2-.8-1.1-1.2-2.4-1-3.8.2-1.4.9-2.5 2-3.4 1.1-.9 2.4-1.2 3.7-1 1.6.2 2.8.9 3.5 2 .9 1.2 1.2 2.5 1 3.8zM62.3 294.3c-.3 1.4-1 2.4-2.1 3.2-1.1.8-2.4 1-4 .7-1.3-.3-2.4-1-3.1-2.2-.8-1.2-1-2.4-.7-3.8.3-1.4 1.1-2.5 2.2-3.2 1.2-.8 2.4-1 3.8-.7 1.6.4 2.7 1.1 3.3 2.3.7 1.1.9 2.4.6 3.7zM68.1 272.2c-.4 1.3-1.2 2.4-2.4 3.1s-2.5.8-4.1.3c-1.3-.4-2.3-1.2-3-2.4-.7-1.2-.8-2.5-.4-3.9s1.2-2.4 2.5-3c1.2-.7 2.5-.8 3.9-.4 1.5.5 2.6 1.3 3.2 2.5.6 1.3.7 2.6.3 3.8zM75.6 250.8c-.5 1.3-1.4 2.3-2.6 2.9-1.2.6-2.6.6-4.1 0-1.3-.5-2.2-1.4-2.8-2.7-.6-1.3-.6-2.6-.1-3.9.5-1.3 1.4-2.3 2.7-2.8 1.3-.6 2.6-.6 3.9-.1 1.5.6 2.5 1.5 3 2.8.5 1.2.5 2.5 0 3.8zM84.8 229.8c-.6 1.3-1.5 2.1-2.8 2.7-1.3.5-2.6.4-4.1-.3-1.2-.6-2.1-1.6-2.6-2.9-.5-1.3-.4-2.6.2-3.9.6-1.3 1.6-2.2 2.9-2.6 1.3-.5 2.6-.4 3.9.2 1.4.7 2.4 1.7 2.7 3 .5 1.4.4 2.6-.2 3.8zM95.5 209.7c-.7 1.2-1.7 2-3 2.4-1.3.4-2.6.2-4-.6-1.2-.7-2-1.7-2.3-3-.4-1.3-.2-2.6.5-3.8.7-1.2 1.7-2 3.1-2.4 1.4-.4 2.6-.2 3.8.5 1.4.8 2.2 1.9 2.5 3.2.3 1.3.1 2.5-.6 3.7zM107.7 190.5c-.8 1.2-1.8 1.9-3.2 2.2-1.3.3-2.6 0-4-.9-1.1-.8-1.8-1.8-2.1-3.2-.3-1.4 0-2.6.8-3.8.8-1.2 1.9-1.9 3.3-2.2 1.4-.3 2.6 0 3.8.8 1.3.9 2.1 2 2.3 3.4.1 1.3-.1 2.5-.9 3.7zM121.3 172.2c-.9 1.1-2 1.7-3.3 2-1.3.2-2.6-.2-3.9-1.2-1.1-.9-1.7-2-1.9-3.4-.2-1.4.2-2.6 1.1-3.7.9-1.1 2-1.7 3.4-1.9 1.4-.2 2.6.2 3.7 1.1 1.2 1 1.9 2.2 2 3.5.2 1.3-.2 2.5-1.1 3.6zM136.3 155c-1 1-2.1 1.6-3.5 1.7-1.4.1-2.6-.4-3.8-1.5-1-.9-1.5-2.1-1.6-3.5-.1-1.4.4-2.6 1.4-3.6 1-1 2.2-1.6 3.6-1.6 1.4-.1 2.6.4 3.6 1.3 1.2 1.1 1.7 2.3 1.7 3.7 0 1.3-.5 2.5-1.4 3.5zM152.5 139c-1 .9-2.2 1.4-3.6 1.4s-2.6-.6-3.7-1.8c-.9-1-1.4-2.2-1.3-3.6 0-1.4.6-2.6 1.6-3.5 1-1 2.3-1.4 3.7-1.4 1.4 0 2.6.6 3.5 1.6 1.1 1.2 1.6 2.4 1.4 3.8 0 1.4-.6 2.6-1.6 3.5zM169.9 124.2c-1.1.9-2.3 1.3-3.7 1.2-1.4-.1-2.5-.8-3.5-2-.8-1.1-1.2-2.3-1.1-3.7.1-1.4.8-2.5 1.9-3.4 1.1-.9 2.4-1.2 3.8-1.1 1.4.2 2.5.8 3.4 1.9 1 1.3 1.4 2.6 1.1 3.9-.2 1.3-.9 2.4-1.9 3.2zM196 93l7.6-4.2c2-1.1 3.8-1.9 5.4-2.3s3.3-.4 5-.1c4.4.9 8.1 4 11 9.2 1 1.7 1.7 3.4 2.2 5 .5 1.6.7 3.1.8 4.6 0 1.5-.2 3-.7 4.4-.4 1.1-.9 2.2-1.6 3.1-.7.9-1.5 1.8-2.5 2.5-1 .8-2.1 1.5-3.4 2.2l-7.6 4.2c-1.1.6-2 .9-2.7.9s-1.3-.3-1.8-.8-1-1.2-1.5-2.1l-11.8-21.2c-.7-1.3-.9-2.3-.7-3.2.3-.7 1-1.5 2.3-2.2zm4.8 3.4l10.9 19.6 4.4-2.5c1-.5 1.7-1 2.2-1.4.5-.4 1-.8 1.5-1.3s.8-1.1 1-1.7c1-2.7.4-6.1-1.8-10.2-1.6-2.8-3.2-4.7-4.9-5.7-1.6-.9-3.2-1.3-4.7-.9-1.5.3-3.1 1-4.9 2l-3.7 2.1zM236.3 93.7l-5.8-14.8c-.5-1.3-.6-2.3-.3-3.2.3-.9.9-1.5 1.9-1.8 1-.4 1.9-.4 2.7 0 .8.4 1.5 1.2 2 2.5l5.9 15.1c.7 1.7 1.4 3.1 2.3 4.1.8 1 1.9 1.6 3.1 1.9 1.2.3 2.7 0 4.5-.6 2.4-.9 3.9-2.3 4.4-4 .5-1.7.2-3.8-.8-6.5l-6-15.3c-.5-1.3-.6-2.3-.3-3.2.3-.8.9-1.4 1.9-1.8.9-.4 1.8-.4 2.6 0s1.5 1.2 2 2.5l5.8 14.8c.9 2.4 1.5 4.5 1.6 6.3.2 1.8-.2 3.6-1 5.3-.7 1.5-1.7 2.7-3 3.8s-2.9 2-4.9 2.7c-2.4.9-4.5 1.5-6.4 1.6-1.9.2-3.6-.1-5.1-.7-1.5-.7-2.8-1.7-4-3.2-1.2-1.3-2.2-3.2-3.1-5.5zM299.1 77.7c.5 1.9.4 3.8-.2 5.6-.6 1.8-1.8 3.4-3.5 4.7-1.7 1.3-3.9 2.3-6.5 3-3.2.8-5.9.8-8.3.1-1.7-.5-3.1-1.4-4.4-2.6-1.3-1.2-2.1-2.5-2.4-3.9-.2-.8-.1-1.5.3-2.2.4-.7 1-1.1 1.9-1.4.7-.2 1.3-.1 1.9.2.6.3 1.1.9 1.7 1.7.7.9 1.3 1.7 2 2.2s1.5 1 2.4 1.2c1 .2 2.2.2 3.6-.2 1.9-.5 3.4-1.3 4.4-2.5 1-1.2 1.3-2.5 1-3.8-.3-1.1-.8-1.8-1.6-2.4-.8-.5-1.8-.8-2.9-.9-1.1-.1-2.6-.1-4.4-.1-2.4 0-4.5-.1-6.3-.5-1.7-.3-3.2-1-4.4-2-1.2-1-2.1-2.5-2.5-4.3-.4-1.8-.3-3.5.3-5.1.6-1.6 1.8-3 3.4-4.2 1.6-1.2 3.7-2.1 6.2-2.7 2-.5 3.7-.7 5.3-.5 1.6.1 2.9.5 4.1 1.1 1.1.6 2.1 1.3 2.7 2 .7.8 1.1 1.6 1.3 2.4.2.8.1 1.5-.3 2.3-.4.8-1 1.2-1.8 1.4-.7.2-1.4.1-1.8-.1-.5-.3-1-.8-1.7-1.5-.9-1.1-1.8-1.8-2.8-2.3-1-.5-2.4-.5-4.2 0-1.7.4-2.9 1.1-3.8 2.1-.8 1-1.1 2-.9 3 .2.6.5 1.2.9 1.5.5.4 1 .7 1.7.8.7.2 1.4.3 2.1.3.7 0 1.8.1 3.3.1 1.9 0 3.7 0 5.3.2 1.6.2 3 .5 4.2.9 1.2.5 2.2 1.2 3.1 2.2.6 1.3 1.2 2.6 1.6 4.2zM328.2 56l-7.2.9 2.9 23.8c.2 1.4 0 2.4-.5 3.2-.5.7-1.3 1.2-2.3 1.3-1 .1-1.8-.1-2.5-.7s-1.1-1.6-1.3-2.9l-2.9-23.8-7.2.9c-1.1.1-2 0-2.6-.4-.6-.4-1-1.1-1.1-1.9-.1-.9.1-1.6.6-2.1.5-.6 1.3-.9 2.4-1l21.1-2.6c1.1-.1 2 0 2.7.4.6.4 1 1.1 1.1 1.9.1.8-.1 1.5-.6 2.1-.6.4-1.5.7-2.6.9zM369 77.8l-4-21.3-1.5 22.8c-.1 1.3-.4 2.2-1 2.8-.6.6-1.4.9-2.3.8-.9-.1-1.6-.4-2.1-1.1-.5-.7-.8-1.6-.7-2.9l1.7-26.1c.1-1.4.5-2.4 1.3-2.8.8-.5 1.8-.6 3.1-.6l2.1.1c1.2.1 2.1.2 2.7.5.5.3.9.7 1.2 1.3.2.6.5 1.6.7 2.9l3.6 18.4 5.9-17.8c.4-1.3.8-2.2 1.1-2.8.3-.6.7-.9 1.3-1.1.6-.2 1.5-.2 2.7-.2l2.1.1c1.3.1 2.3.4 3 .9.7.6 1 1.5.9 3l-1.7 26.1c-.1 1.3-.4 2.2-1 2.8-.6.6-1.4.9-2.3.8-.9-.1-1.6-.4-2.1-1.1-.5-.7-.8-1.6-.7-2.9l1.5-22.8-6.6 20.7c-.4 1.3-.8 2.3-1 3-.3.6-.7 1.2-1.3 1.7-.6.5-1.4.7-2.5.6-.8 0-1.4-.3-1.9-.6-.5-.4-.9-.8-1.2-1.4-.3-.5-.5-1.1-.6-1.8-.2-.6-.3-1.3-.4-2zM420.3 86.2l-.7-4.4-13.2-2.7-2.4 3.8c-.9 1.5-1.7 2.5-2.2 3-.5.5-1.3.6-2.3.4-.8-.2-1.5-.6-2-1.4-.5-.7-.7-1.5-.5-2.2.1-.4.3-.9.5-1.3s.6-1 1.1-1.8l12.6-19.3c.4-.6.8-1.2 1.3-2s1-1.4 1.5-1.9 1.1-.8 1.8-1.1 1.5-.2 2.4-.1c.9.2 1.6.5 2.2 1 .5.5.9 1 1.2 1.6.3.6.5 1.3.6 2 .1.7.3 1.6.5 2.7l4.2 22.6c.3 1.7.4 2.9.3 3.7-.2.8-.6 1.4-1.4 1.9s-1.6.7-2.5.5c-.5-.1-.9-.3-1.3-.5-.3-.3-.6-.6-.8-.9-.2-.4-.4-.9-.5-1.6-.2-.8-.3-1.5-.4-2zm-11.2-11.7l9.7 2-2.1-14.4-7.6 12.4zM461.2 92.4c-.6 1.9-1.7 3.4-3.2 4.6-1.5 1.2-3.3 1.9-5.5 2.1-2.2.2-4.5-.1-7.1-1-3.1-1.1-5.4-2.5-7-4.4-1.1-1.3-1.9-2.8-2.3-4.5s-.4-3.2.1-4.5c.3-.8.8-1.3 1.5-1.7.7-.4 1.5-.4 2.3-.1.7.2 1.2.6 1.5 1.2.3.6.5 1.4.5 2.3.1 1.1.2 2.1.4 2.9.2.8.7 1.6 1.4 2.3.7.7 1.7 1.3 3.1 1.8 1.9.6 3.6.7 5 .3 1.5-.5 2.4-1.4 2.9-2.7.4-1 .3-2-.1-2.9-.4-.9-1.1-1.6-1.9-2.3-.9-.7-2.1-1.5-3.6-2.5-2.1-1.3-3.7-2.6-5-3.8-1.3-1.2-2.1-2.6-2.6-4.1-.5-1.5-.4-3.2.2-5 .6-1.7 1.6-3.1 3-4.1 1.4-1 3.1-1.6 5.1-1.7 2-.1 4.2.2 6.6 1.1 1.9.7 3.5 1.5 4.7 2.4 1.2 1 2.2 2 2.8 3.1.7 1.1 1 2.2 1.2 3.2.1 1 .1 1.9-.2 2.8-.3.8-.8 1.3-1.5 1.8-.7.4-1.5.5-2.3.2-.7-.2-1.2-.6-1.5-1.1-.3-.5-.5-1.2-.6-2.2-.2-1.4-.5-2.5-1.1-3.5-.6-.9-1.7-1.7-3.5-2.3-1.6-.6-3.1-.7-4.3-.3-1.2.4-2 1.1-2.4 2.1-.2.6-.2 1.2 0 1.8.2.6.5 1.1 1 1.7.5.5 1 1 1.5 1.4.5.4 1.5 1 2.8 1.8 1.6 1 3.1 2 4.3 3 1.3 1 2.3 2 3 3.1.8 1.1 1.2 2.2 1.4 3.5.1 1.2-.1 2.6-.6 4.2zM485.2 81.6L480.1 92l17.9-6.5c.9-.3 1.6-.5 2.1-.6s1.1 0 1.8.4c.9.4 1.4 1 1.7 1.8.3.8.2 1.5-.1 2.2-.4.9-1.3 1.5-2.6 1.9l-10.7 3.3 2.5 16.2c.2 1.1.3 2.1.2 2.9 0 .8-.2 1.5-.5 2-.3.7-.9 1.1-1.6 1.3-.8.2-1.6.1-2.5-.3-.8-.4-1.4-.9-1.8-1.5-.3-.6-.6-1.3-.6-2.1-.1-.8-.1-1.5-.2-2.1L484 96.5l-7.2 2.3-3 6.1c-.6 1.2-1.4 2-2.2 2.3-.9.3-1.7.3-2.6-.2-.5-.3-.9-.6-1.3-1.1-.3-.5-.5-1-.6-1.6 0-.5.1-1 .3-1.5.2-.5.5-1.2 1-2.2l10.9-22c.6-1.2 1.3-2 2.1-2.3.8-.3 1.7-.3 2.6.2.9.4 1.5 1.1 1.7 2 .3.9.1 1.9-.5 3.1zM532.1 118c-1.1-.8-1.8-1.9-2.1-3.2s0-2.6 1-4c.8-1.1 1.9-1.8 3.3-2 1.4-.2 2.6.1 3.8.9 1.1.8 1.8 1.9 2.1 3.3.2 1.4-.1 2.6-.9 3.8-.9 1.3-2.1 2-3.4 2.2-1.5.1-2.7-.2-3.8-1zM550 132.1c-1.1-.9-1.7-2-1.9-3.4-.2-1.3.2-2.6 1.3-3.9.9-1 2-1.6 3.4-1.8 1.4-.1 2.6.3 3.7 1.2 1.1.9 1.7 2.1 1.8 3.5.1 1.4-.3 2.6-1.2 3.7-1 1.2-2.2 1.8-3.6 1.9-1.3.1-2.5-.3-3.5-1.2zM566.8 147.5c-1-1-1.5-2.2-1.6-3.5s.4-2.6 1.6-3.8c1-1 2.1-1.5 3.5-1.5s2.6.5 3.6 1.5 1.5 2.2 1.5 3.6-.5 2.6-1.4 3.6c-1.1 1.1-2.4 1.7-3.7 1.6-1.4 0-2.6-.5-3.5-1.5zM583.3 165.3c-.9-1.1-1.4-2.3-1.3-3.6 0-1.4.7-2.6 1.9-3.6 1-.9 2.3-1.3 3.6-1.2 1.4.1 2.5.7 3.5 1.8.9 1.1 1.3 2.3 1.2 3.7-.1 1.4-.7 2.6-1.7 3.5-1.2 1-2.5 1.5-3.8 1.3-1.4-.3-2.6-.9-3.4-1.9zM598.3 184.3c-.8-1.1-1.2-2.4-1-3.7.1-1.3.9-2.5 2.2-3.5 1.1-.8 2.4-1.1 3.7-.9 1.4.2 2.5.9 3.3 2 .8 1.1 1.1 2.4.9 3.8-.2 1.4-.9 2.5-2 3.3-1.3.9-2.6 1.3-3.9 1-1.4-.2-2.4-.9-3.2-2zM613.2 206.9c-.7-1.2-.9-2.5-.7-3.8.3-1.3 1.1-2.4 2.5-3.2 1.2-.7 2.4-.9 3.8-.6 1.3.3 2.4 1.1 3.1 2.3.7 1.2.9 2.5.6 3.9s-1.1 2.4-2.3 3.1c-1.4.8-2.7 1-4 .6-1.3-.3-2.3-1.1-3-2.3zM626 230.9c-.6-1.3-.7-2.5-.3-3.8.4-1.3 1.3-2.3 2.8-3 1.2-.6 2.5-.7 3.8-.2 1.3.4 2.3 1.3 2.9 2.6.6 1.3.7 2.6.2 3.9-.5 1.3-1.3 2.3-2.6 2.9-1.4.7-2.8.8-4.1.3-1.2-.7-2.1-1.5-2.7-2.7zM636.6 255.8c-.5-1.3-.5-2.6 0-3.9.5-1.3 1.5-2.2 3-2.7 1.3-.5 2.6-.4 3.8.1 1.3.6 2.1 1.5 2.6 2.8.5 1.3.5 2.6-.1 3.9-.6 1.3-1.5 2.2-2.8 2.7-1.5.6-2.9.5-4.1-.1-1.1-.6-2-1.6-2.4-2.8zM645.2 283c-.4-1.4-.2-2.6.4-3.8.6-1.2 1.7-2 3.3-2.4 1.3-.4 2.6-.2 3.8.5 1.2.7 2 1.7 2.4 3.1.4 1.4.2 2.7-.5 3.9-.7 1.2-1.7 2-3.1 2.4-1.5.4-2.9.3-4-.5-1.2-.9-1.9-1.9-2.3-3.2zM650.5 306.6c-.2-1.4 0-2.6.7-3.8.7-1.2 1.9-1.9 3.5-2.2 1.4-.2 2.6 0 3.8.8s1.9 1.9 2.1 3.3c.3 1.4 0 2.7-.8 3.8-.8 1.2-1.9 1.9-3.2 2.1-1.6.3-2.9 0-4-.8-1.2-.8-1.8-1.8-2.1-3.2zM653.9 330.6c-.1-1.4.2-2.6 1-3.7s2-1.7 3.6-1.9c1.4-.1 2.6.2 3.7 1.1 1.1.9 1.7 2 1.8 3.4.1 1.4-.2 2.7-1.1 3.8-.9 1.1-2 1.7-3.4 1.8-1.6.2-2.9-.2-3.9-1.1s-1.6-2.1-1.7-3.4zM655.3 354.8c0-1.4.4-2.6 1.3-3.6s2.1-1.6 3.8-1.6c1.4 0 2.6.4 3.6 1.4 1 1 1.5 2.1 1.6 3.6s-.4 2.6-1.4 3.7c-1 1-2.1 1.5-3.5 1.6-1.6 0-2.9-.4-3.8-1.4-1.1-1.2-1.6-2.3-1.6-3.7zM654.8 379c.1-1.4.6-2.6 1.6-3.5 1-1 2.3-1.4 3.9-1.3 1.4.1 2.5.6 3.5 1.7.9 1 1.4 2.3 1.3 3.7-.1 1.4-.6 2.6-1.7 3.5-1 .9-2.3 1.4-3.7 1.3-1.6-.1-2.8-.7-3.7-1.7-.9-1.1-1.3-2.3-1.2-3.7zM652.3 403.1c.2-1.4.8-2.5 1.8-3.4 1-.9 2.4-1.2 4-1 1.4.2 2.5.8 3.3 1.9s1.2 2.4 1 3.8c-.2 1.4-.9 2.5-2 3.4-1.1.9-2.4 1.2-3.7 1-1.6-.2-2.8-.9-3.5-2-.8-1.1-1.1-2.4-.9-3.7zM647.9 427c.3-1.4 1-2.4 2.1-3.2 1.1-.8 2.4-1 4-.6 1.3.3 2.4 1 3.1 2.2.8 1.2 1 2.4.7 3.8-.3 1.4-1.1 2.5-2.2 3.2-1.2.8-2.4 1-3.8.7-1.6-.4-2.7-1.1-3.3-2.3-.7-1.3-.9-2.5-.6-3.8zM642.1 449c.4-1.3 1.2-2.4 2.4-3.1 1.2-.7 2.5-.8 4.1-.3 1.3.4 2.3 1.2 3 2.4.7 1.2.8 2.5.4 3.9s-1.2 2.4-2.5 3c-1.2.7-2.5.8-3.9.4-1.5-.5-2.6-1.3-3.2-2.5-.6-1.3-.7-2.5-.3-3.8zM634.5 470.5c.5-1.3 1.4-2.3 2.6-2.9 1.2-.6 2.6-.6 4.1 0 1.3.5 2.2 1.4 2.8 2.7.6 1.3.6 2.6.1 3.9-.5 1.3-1.4 2.3-2.7 2.8-1.3.6-2.6.6-3.9.1-1.5-.6-2.5-1.5-3-2.8s-.5-2.5 0-3.8zM625.4 491.4c.6-1.3 1.5-2.1 2.8-2.7 1.3-.5 2.6-.4 4.1.3 1.2.6 2.1 1.6 2.6 2.9.5 1.3.4 2.6-.2 3.9-.6 1.3-1.6 2.2-2.9 2.6-1.3.5-2.6.4-3.9-.2-1.4-.7-2.4-1.7-2.7-3-.5-1.4-.4-2.6.2-3.8zM614.6 511.5c.7-1.2 1.7-2 3-2.4 1.3-.4 2.6-.2 4 .6 1.2.7 2 1.7 2.3 3 .4 1.3.2 2.6-.5 3.8-.7 1.2-1.7 2-3.1 2.4-1.4.4-2.6.2-3.8-.5-1.4-.8-2.2-1.9-2.5-3.2-.3-1.3-.1-2.5.6-3.7zM602.4 530.8c.8-1.2 1.9-1.9 3.2-2.2 1.3-.3 2.6 0 4 .9 1.1.8 1.8 1.9 2.1 3.2.3 1.4 0 2.6-.8 3.8-.8 1.2-1.9 1.9-3.3 2.2-1.4.3-2.6 0-3.8-.8-1.3-.9-2.1-2-2.2-3.4-.3-1.4 0-2.6.8-3.7zM588.7 549c.9-1.1 2-1.7 3.3-2 1.3-.2 2.6.2 3.9 1.2 1.1.9 1.7 2 1.8 3.4.2 1.4-.2 2.6-1.1 3.7-.9 1.1-2 1.7-3.4 1.9-1.4.2-2.6-.2-3.7-1.1-1.2-1-1.9-2.2-2-3.5 0-1.3.4-2.5 1.2-3.6zM573.8 566.2c1-1 2.1-1.6 3.5-1.7 1.4-.1 2.6.4 3.8 1.5 1 .9 1.5 2.1 1.6 3.5.1 1.4-.4 2.6-1.4 3.6-1 1-2.2 1.6-3.6 1.6-1.4.1-2.6-.4-3.6-1.3-1.2-1.1-1.7-2.3-1.7-3.7 0-1.4.4-2.5 1.4-3.5zM557.5 582.2c1-.9 2.2-1.4 3.6-1.4s2.6.6 3.7 1.8c.9 1 1.4 2.2 1.3 3.6 0 1.4-.6 2.6-1.6 3.5-1 1-2.3 1.4-3.7 1.4-1.4 0-2.6-.6-3.5-1.6-1.1-1.2-1.6-2.4-1.4-3.8.1-1.5.6-2.6 1.6-3.5zM540.1 596.9c1.1-.9 2.3-1.3 3.7-1.2 1.4.1 2.5.8 3.5 2 .8 1.1 1.2 2.3 1 3.7-.2 1.4-.8 2.5-1.9 3.4-1.1.9-2.4 1.2-3.8 1.1-1.4-.2-2.5-.8-3.4-1.9-1-1.3-1.4-2.6-1.1-3.9.3-1.3.9-2.3 2-3.2zM521.6 610.3c1.2-.8 2.4-1.1 3.8-.9 1.3.2 2.5 1 3.4 2.3.8 1.1 1 2.4.8 3.8-.3 1.4-1 2.4-2.2 3.2-1.2.8-2.5 1.1-3.8.8-1.4-.3-2.5-1-3.2-2.1-.9-1.3-1.2-2.7-.8-4 .2-1.3.9-2.4 2-3.1zM502.2 622.2c1.2-.7 2.5-.9 3.8-.6s2.4 1.1 3.2 2.6c.7 1.2.8 2.5.5 3.8-.4 1.3-1.2 2.4-2.4 3.1-1.2.7-2.5.9-3.9.5s-2.4-1.2-3.1-2.4c-.8-1.4-1-2.7-.5-4 .4-1.4 1.2-2.3 2.4-3zM482 632.6c1.3-.6 2.6-.7 3.9-.3 1.3.4 2.3 1.3 3 2.8.6 1.2.6 2.5.2 3.8-.5 1.3-1.3 2.3-2.6 2.9-1.3.6-2.6.7-3.9.2-1.3-.5-2.3-1.3-2.9-2.6-.7-1.5-.8-2.8-.2-4.1.4-1.2 1.2-2.1 2.5-2.7zM460.9 641.5c1.3-.5 2.6-.5 3.9 0 1.3.5 2.2 1.5 2.8 3 .5 1.3.4 2.6-.1 3.8-.6 1.3-1.5 2.2-2.8 2.7-1.3.5-2.6.5-3.9-.1-1.3-.6-2.2-1.5-2.7-2.8-.6-1.5-.5-2.9.1-4.1.5-1.2 1.5-2.1 2.7-2.5zM439.3 648.7c1.3-.4 2.6-.3 3.9.3 1.2.6 2.1 1.7 2.5 3.2.4 1.3.3 2.6-.4 3.8-.7 1.2-1.7 2-3 2.4-1.4.4-2.7.3-3.9-.4-1.2-.7-2.1-1.7-2.4-3-.4-1.5-.3-2.9.4-4 .6-1.2 1.6-1.9 2.9-2.3zM417.2 654.2c1.4-.3 2.6-.1 3.8.6 1.2.7 1.9 1.8 2.3 3.4.3 1.3.1 2.6-.7 3.8-.7 1.2-1.8 1.9-3.2 2.2-1.4.3-2.7.1-3.9-.7-1.2-.8-1.9-1.8-2.2-3.2-.3-1.6-.1-2.9.7-4 .8-1.1 1.8-1.8 3.2-2.1zM394.7 658.1c1.4-.2 2.6.1 3.8.9 1.1.8 1.8 1.9 2 3.6.2 1.4-.1 2.6-1 3.7-.8 1.1-1.9 1.8-3.4 1.9-1.4.2-2.7-.1-3.8-1-1.1-.8-1.8-2-2-3.3-.2-1.6.1-2.9 1-3.9 1-1.2 2.1-1.8 3.4-1.9zM372 660.2c1.4-.1 2.6.3 3.7 1.1s1.6 2.1 1.7 3.7c.1 1.4-.3 2.6-1.3 3.6-.9 1-2.1 1.6-3.5 1.7-1.4.1-2.7-.3-3.7-1.3-1.1-.9-1.6-2.1-1.7-3.5-.1-1.6.3-2.9 1.3-3.8 1-.9 2.2-1.4 3.5-1.5zM349.2 660.6c1.4 0 2.6.5 3.6 1.4 1 .9 1.5 2.2 1.4 3.8 0 1.4-.5 2.5-1.5 3.5s-2.2 1.4-3.6 1.4-2.6-.5-3.6-1.5-1.5-2.2-1.4-3.6c0-1.6.6-2.8 1.6-3.7 1-.9 2.2-1.3 3.5-1.3zM326.4 659.3c1.4.1 2.5.7 3.5 1.7s1.3 2.3 1.2 3.9c-.1 1.4-.7 2.5-1.8 3.4-1.1.9-2.3 1.3-3.7 1.1-1.4-.1-2.6-.7-3.5-1.8-.9-1.1-1.3-2.3-1.2-3.7.2-1.6.8-2.8 1.9-3.6 1.1-.8 2.3-1.1 3.6-1zM303.9 656.3c1.4.2 2.5.9 3.3 1.9.8 1.1 1.1 2.4.9 4-.2 1.4-.9 2.4-2 3.3-1.1.8-2.4 1.1-3.8.9-1.4-.2-2.5-.9-3.3-2.1s-1.1-2.4-.9-3.8c.3-1.6 1-2.7 2.1-3.5 1.1-.7 2.4-.9 3.7-.7zM281.5 651.6c1.4.3 2.4 1.1 3.2 2.2.8 1.1.9 2.5.6 4a4.8 4.8 0 0 1-2.3 3.1c-1.2.7-2.5.9-3.8.6-1.4-.3-2.4-1.1-3.2-2.3-.7-1.2-.9-2.5-.6-3.8.4-1.6 1.2-2.6 2.4-3.3 1.2-.7 2.4-.9 3.7-.5zM259.7 645.1c1.3.4 2.3 1.3 3 2.4.7 1.2.8 2.5.2 4.1-.4 1.3-1.3 2.3-2.5 2.9-1.2.6-2.5.7-3.9.3-1.3-.5-2.3-1.3-3-2.6-.6-1.2-.7-2.5-.3-3.9.5-1.5 1.4-2.5 2.6-3.1 1.3-.4 2.6-.5 3.9-.1zM238.3 637.1c1.3.5 2.2 1.4 2.8 2.7.6 1.2.6 2.6-.1 4.1-.5 1.3-1.4 2.2-2.7 2.7s-2.6.5-3.9 0c-1.3-.6-2.2-1.5-2.8-2.8-.5-1.3-.5-2.6 0-3.9.6-1.5 1.6-2.4 2.9-2.9 1.3-.5 2.6-.5 3.8.1zM217.7 627.4c1.2.6 2.1 1.6 2.6 2.9s.4 2.6-.4 4.1c-.6 1.2-1.6 2.1-2.9 2.5-1.3.4-2.6.3-3.9-.3-1.3-.7-2.1-1.6-2.6-3-.4-1.3-.3-2.6.3-3.9.7-1.4 1.8-2.3 3.1-2.7 1.4-.3 2.6-.2 3.8.4zM197.8 616.2c1.2.7 2 1.7 2.4 3 .4 1.3.2 2.6-.7 4-.7 1.2-1.8 1.9-3.1 2.3-1.3.3-2.6.1-3.8-.6-1.2-.7-2-1.8-2.3-3.2-.3-1.4-.1-2.6.6-3.8.8-1.4 1.9-2.2 3.3-2.4 1.2-.3 2.5 0 3.6.7zM178.9 603.5c1.1.8 1.8 1.9 2.1 3.2.3 1.3 0 2.6-1 4-.8 1.1-1.9 1.8-3.3 2-1.4.2-2.6-.1-3.8-.9-1.1-.8-1.8-1.9-2.1-3.3-.2-1.4.1-2.6.9-3.8.9-1.3 2.1-2 3.4-2.2 1.5-.1 2.7.2 3.8 1zM161 589.4c1.1.9 1.7 2 1.9 3.4.2 1.3-.2 2.6-1.3 3.9-.9 1-2 1.6-3.4 1.8-1.4.1-2.6-.3-3.7-1.2-1.1-.9-1.7-2.1-1.8-3.5-.1-1.4.3-2.6 1.2-3.7 1-1.2 2.2-1.9 3.6-1.9 1.3-.1 2.5.3 3.5 1.2zM144.2 574c1 1 1.5 2.1 1.6 3.5s-.4 2.6-1.6 3.8c-1 1-2.1 1.5-3.5 1.5s-2.6-.5-3.6-1.5-1.5-2.2-1.6-3.6c0-1.4.5-2.6 1.4-3.6 1.1-1.1 2.4-1.7 3.7-1.6 1.5.1 2.6.6 3.6 1.5zM128.6 557.4c.9 1.1 1.4 2.3 1.4 3.6 0 1.4-.6 2.6-1.9 3.6-1 .9-2.2 1.3-3.6 1.2s-2.5-.7-3.5-1.7-1.4-2.3-1.3-3.7c.1-1.4.6-2.6 1.7-3.5 1.2-1.1 2.5-1.5 3.8-1.3 1.4.2 2.5.8 3.4 1.8zM114.3 539.7c.8 1.1 1.2 2.4 1.1 3.7-.1 1.4-.8 2.5-2.1 3.5-1.1.8-2.3 1.1-3.7 1-1.4-.2-2.5-.8-3.3-2-.8-1.1-1.2-2.4-1-3.8.2-1.4.8-2.5 2-3.3 1.3-1 2.6-1.3 3.9-1 1.2.1 2.3.8 3.1 1.9zM101.4 520.9c.7 1.2 1 2.4.8 3.8-.2 1.3-1 2.4-2.4 3.3-1.2.7-2.4 1-3.8.7-1.4-.3-2.4-1-3.2-2.2-.8-1.2-1-2.5-.7-3.9.3-1.4 1-2.4 2.2-3.2 1.4-.9 2.7-1.1 4-.7 1.3.3 2.3 1 3.1 2.2zM89.9 501.2c.7 1.2.8 2.5.5 3.8s-1.2 2.4-2.6 3.1c-1.2.6-2.5.8-3.8.4-1.3-.4-2.3-1.2-3-2.5-.7-1.3-.8-2.6-.4-3.9.4-1.3 1.2-2.3 2.4-3 1.4-.8 2.8-.9 4-.4 1.3.4 2.3 1.3 2.9 2.5zM80 480.6c.6 1.3.6 2.6.2 3.9-.4 1.3-1.4 2.3-2.9 2.9-1.3.6-2.5.6-3.8.1-1.3-.5-2.2-1.4-2.8-2.7-.6-1.3-.6-2.6-.1-3.9.5-1.3 1.4-2.2 2.7-2.8 1.5-.6 2.8-.7 4.1-.1 1.1.5 2 1.4 2.6 2.6zM71.6 459.4c.5 1.3.4 2.6-.1 3.9s-1.5 2.1-3.1 2.7c-1.3.5-2.6.4-3.8-.2-1.3-.6-2.1-1.6-2.6-2.9-.5-1.3-.4-2.6.2-3.9.6-1.3 1.6-2.1 2.9-2.6 1.5-.5 2.9-.5 4.1.2 1.2.6 2 1.5 2.4 2.8zM65 437.6c.4 1.4.2 2.6-.4 3.8-.6 1.2-1.7 2-3.3 2.4-1.3.4-2.6.2-3.8-.5-1.2-.7-2-1.7-2.4-3.1-.4-1.4-.2-2.7.5-3.9.7-1.2 1.7-2 3.1-2.4 1.5-.4 2.9-.2 4 .5s1.9 1.9 2.3 3.2zM60 415.4c.3 1.4 0 2.6-.7 3.8-.7 1.2-1.9 1.9-3.4 2.2-1.4.2-2.6 0-3.8-.8-1.2-.8-1.9-1.9-2.1-3.3-.3-1.4 0-2.7.8-3.8.8-1.2 1.9-1.9 3.2-2.1 1.6-.3 2.9 0 4 .8 1 .8 1.7 1.8 2 3.2zM56.7 392.8c.1 1.4-.2 2.6-1 3.7s-2 1.7-3.6 1.9c-1.4.1-2.6-.2-3.7-1.1-1.1-.9-1.7-2-1.9-3.4-.2-1.4.2-2.7 1.1-3.8.9-1.1 2-1.7 3.4-1.9 1.6-.2 2.9.2 3.9 1.1 1 1 1.6 2.1 1.8 3.5zM55.1 370.1c0 1.4-.4 2.6-1.2 3.7-.9 1-2.1 1.6-3.7 1.6-1.4 0-2.6-.4-3.6-1.3S45 372 45 370.6s.4-2.6 1.4-3.7c.9-1 2.1-1.6 3.5-1.6 1.6-.1 2.9.4 3.8 1.4.9.8 1.3 2 1.4 3.4zM55.2 347.2c-.1 1.4-.6 2.6-1.5 3.6s-2.2 1.4-3.8 1.4c-1.4-.1-2.5-.6-3.5-1.6-.9-1-1.4-2.2-1.3-3.6.1-1.4.6-2.6 1.6-3.6s2.2-1.4 3.6-1.3c1.6.1 2.8.6 3.7 1.7.9.9 1.3 2.1 1.2 3.4z"/></g></switch></svg>