<?xml version="1.0" encoding="utf-8"?>
<!-- Generator: Adobe Illustrator 23.1.1, SVG Export Plug-In . SVG Version: 6.00 Build 0)  -->
<svg version="1.1" id="Layer_1" xmlns="http://www.w3.org/2000/svg" xmlns:xlink="http://www.w3.org/1999/xlink" x="0px" y="0px"
	 viewBox="0 0 360 360" style="enable-background:new 0 0 360 360;" xml:space="preserve">
<style type="text/css">
	.st0{fill:#DBDBDA;}
	.st1{font-family:'ArialMT';}
	.st2{font-size:12px;}
	.st3{fill:none;}
	.st4{fill:#606161;}
	.st5{fill:#FFFFFF;}
	.st6{fill:#868686;stroke:#868686;stroke-width:5;stroke-miterlimit:10;}
</style>
<circle class="st0" cx="180" cy="180" r="174.2"/>
<text class="st1 st2"> </text>
<text class="st1 st2"> </text>
<text class="st1 st2"> </text>
<text class="st1 st2"> </text>
<text class="st1 st2"> </text>
<text class="st1 st2"> </text>
<text class="st1 st2"> </text>
<path id="SVGID_x5F_13_x5F_" class="st3" d="M324.1,184c0,79.8-64.7,144.5-144.5,144.5S35.1,263.8,35.1,184S99.8,39.5,179.6,39.5
	S324.1,104.2,324.1,184z"/>
<text class="st1 st2"> </text>
<text class="st1 st2"> </text>
<g>
	<path class="st4" d="M24.5,159.8c-0.1,0.7-0.4,1.3-1,1.8c-0.5,0.5-1.2,0.6-2.1,0.5c-0.7-0.1-1.3-0.4-1.7-1c-0.4-0.6-0.6-1.2-0.5-2
		s0.4-1.3,1-1.8c0.6-0.4,1.2-0.6,1.9-0.5c0.8,0.1,1.4,0.5,1.8,1.1C24.4,158.4,24.6,159.1,24.5,159.8z"/>
	<path class="st4" d="M26.6,148.1c-0.2,0.7-0.5,1.3-1.1,1.7s-1.3,0.5-2.1,0.3c-0.7-0.2-1.2-0.5-1.6-1.1s-0.5-1.3-0.3-2
		s0.5-1.3,1.2-1.7s1.3-0.5,2-0.4c0.8,0.2,1.4,0.6,1.7,1.2S26.8,147.4,26.6,148.1z"/>
	<path class="st4" d="M29.7,136.6c-0.2,0.7-0.6,1.2-1.2,1.6s-1.3,0.4-2.1,0.2c-0.7-0.2-1.2-0.6-1.5-1.3c-0.3-0.6-0.4-1.3-0.2-2
		c0.2-0.7,0.6-1.2,1.3-1.6c0.6-0.3,1.3-0.4,2-0.2c0.8,0.2,1.3,0.7,1.6,1.3S29.9,136,29.7,136.6z"/>
	<path class="st4" d="M33.6,125.4c-0.3,0.7-0.7,1.2-1.3,1.5c-0.6,0.3-1.3,0.3-2.1,0c-0.7-0.3-1.1-0.7-1.4-1.4c-0.3-0.7-0.3-1.3,0-2
		s0.7-1.2,1.4-1.5s1.3-0.3,2-0.1c0.8,0.3,1.3,0.8,1.5,1.4C33.8,124.1,33.8,124.8,33.6,125.4z"/>
	<path class="st4" d="M38.3,114.6c-0.3,0.7-0.8,1.1-1.5,1.4s-1.4,0.2-2.1-0.1c-0.6-0.3-1.1-0.8-1.3-1.5s-0.2-1.3,0.1-2
		s0.8-1.1,1.5-1.4c0.7-0.2,1.4-0.2,2,0.1c0.7,0.4,1.2,0.9,1.4,1.6C38.7,113.3,38.6,114,38.3,114.6z"/>
	<path class="st4" d="M43.9,104.1c-0.4,0.6-0.9,1.1-1.6,1.3c-0.7,0.2-1.4,0.1-2.1-0.3c-0.6-0.4-1-0.9-1.2-1.6s-0.1-1.4,0.3-2
		c0.4-0.6,0.9-1.1,1.6-1.2c0.7-0.2,1.4-0.1,2,0.3c0.7,0.4,1.2,1,1.3,1.7C44.4,102.9,44.3,103.5,43.9,104.1z"/>
	<path class="st4" d="M57.6,79.5l-4.3,5.4l3.4,2.7l3.6-4.5c0.3-0.4,0.7-0.7,1-0.7c0.3-0.1,0.7,0,1,0.3c0.3,0.2,0.5,0.6,0.5,0.9
		c0,0.4-0.1,0.7-0.5,1.1l-3.6,4.5l4.4,3.5c0.6,0.4,0.9,0.9,0.9,1.4c0.1,0.5-0.1,0.9-0.4,1.3c-0.3,0.4-0.7,0.6-1.2,0.7
		c-0.5,0-1-0.2-1.5-0.6l-10.3-8.2c-0.4-0.3-0.7-0.6-0.8-0.9s-0.2-0.6-0.1-1c0.1-0.3,0.3-0.7,0.6-1.1l5.1-6.4
		c0.3-0.4,0.7-0.7,1.1-0.7c0.4-0.1,0.7,0,1,0.3s0.5,0.6,0.5,0.9C58.1,78.7,58,79.1,57.6,79.5z"/>
	<path class="st4" d="M71.9,82.7l-9.8-9.3c-0.5-0.5-0.8-1-0.8-1.4c0-0.5,0.1-0.9,0.5-1.3s0.8-0.6,1.3-0.6s1,0.3,1.5,0.7l9.8,9.3
		c0.5,0.5,0.8,1,0.8,1.5s-0.1,0.9-0.5,1.3c-0.3,0.4-0.8,0.5-1.2,0.5S72.4,83.2,71.9,82.7z"/>
	<path class="st4" d="M78.3,68.7l-0.9,0.8l3.6,4.2c0.5,0.6,0.7,1.1,0.7,1.5c0,0.5-0.2,0.9-0.6,1.2c-0.4,0.4-0.9,0.5-1.3,0.4
		c-0.5-0.1-0.9-0.4-1.4-0.9l-8.6-10c-0.5-0.6-0.7-1.1-0.7-1.6s0.3-1,0.9-1.4l4.3-3.7c0.6-0.5,1.1-0.9,1.6-1.2s0.9-0.5,1.4-0.7
		c0.6-0.2,1.1-0.2,1.7-0.2s1.1,0.2,1.7,0.5c0.5,0.3,1,0.7,1.4,1.1c0.8,1,1.2,2,1.2,3c0,1.1-0.5,2.2-1.4,3.4c0.7-0.2,1.4-0.2,2.3-0.1
		s1.7,0.3,2.5,0.6c0.8,0.3,1.5,0.5,2.1,0.8s0.9,0.5,1.1,0.7c0.1,0.2,0.2,0.4,0.3,0.7s0,0.5-0.1,0.8s-0.3,0.5-0.5,0.7
		c-0.3,0.3-0.6,0.4-0.9,0.4s-0.6,0-1-0.1s-0.8-0.2-1.4-0.4l-2.6-0.8c-0.9-0.3-1.7-0.5-2.3-0.6s-1.1,0-1.5,0.1
		C79.2,68.1,78.7,68.3,78.3,68.7z M75.1,62l-2.4,2.1l3.1,3.6l2.4-2c0.6-0.5,1.1-1.1,1.5-1.5c0.3-0.5,0.5-1,0.5-1.4
		c0-0.5-0.2-0.9-0.6-1.4c-0.3-0.4-0.7-0.6-1.1-0.7c-0.4-0.1-0.9-0.1-1.3,0C76.6,60.7,76,61.2,75.1,62z"/>
	<path class="st4" d="M95.5,47L89,51.3l2.3,3.5l6-4c0.4-0.3,0.8-0.4,1.2-0.4c0.4,0.1,0.6,0.2,0.8,0.6c0.2,0.3,0.3,0.7,0.2,1
		c-0.1,0.3-0.3,0.7-0.8,1l-6,4l2.7,4.1l6.8-4.5c0.5-0.3,0.9-0.4,1.2-0.4c0.4,0.1,0.7,0.3,0.9,0.6c0.2,0.3,0.3,0.7,0.2,1.1
		c-0.1,0.4-0.4,0.7-0.8,1l-7.9,5.2c-0.6,0.4-1.2,0.6-1.6,0.5s-0.9-0.5-1.3-1.1l-7.1-10.8c-0.3-0.4-0.4-0.8-0.5-1.1s0-0.7,0.2-1
		s0.5-0.6,0.9-0.9l7.7-5.1c0.5-0.3,0.9-0.4,1.2-0.4c0.4,0.1,0.7,0.3,0.9,0.6c0.2,0.3,0.3,0.7,0.2,1C96.3,46.4,96,46.7,95.5,47z"/>
	<path class="st4" d="M120.8,34.4l-7.2,3.1l1.7,3.9l6.6-2.9c0.5-0.2,0.9-0.3,1.2-0.1c0.3,0.1,0.6,0.4,0.7,0.7c0.2,0.4,0.2,0.7,0,1
		c-0.1,0.3-0.5,0.6-1,0.8l-6.6,2.9l1.9,4.5l7.4-3.2c0.5-0.2,0.9-0.3,1.3-0.1c0.4,0.1,0.6,0.4,0.8,0.8c0.2,0.4,0.2,0.7,0,1.1
		c-0.2,0.3-0.5,0.6-1,0.8l-8.7,3.7c-0.7,0.3-1.3,0.4-1.7,0.2c-0.4-0.2-0.8-0.6-1.1-1.3L110,38.4c-0.2-0.5-0.3-0.9-0.3-1.2
		s0.1-0.7,0.4-0.9c0.2-0.3,0.6-0.5,1-0.7l8.4-3.6c0.5-0.2,0.9-0.3,1.3-0.1c0.3,0.1,0.6,0.4,0.8,0.7c0.2,0.4,0.2,0.7,0,1.1
		S121.3,34.1,120.8,34.4z"/>
	<path class="st4" d="M131,42.5l2-6.5l-4.5-3.9c-0.4-0.4-0.8-0.7-1-1s-0.4-0.6-0.5-0.9s0-0.6,0.2-1c0.2-0.3,0.5-0.6,0.9-0.7
		c0.5-0.1,0.9-0.1,1.2,0.1s0.8,0.6,1.5,1.2l3.7,3.3l1.5-4.8c0.1-0.4,0.2-0.7,0.3-1s0.2-0.5,0.3-0.7s0.2-0.4,0.4-0.5s0.3-0.2,0.6-0.3
		c0.4-0.1,0.8-0.1,1.1,0.1s0.6,0.4,0.7,0.8c0.1,0.5,0.1,1.3-0.3,2.3l-1.8,5.8l5.1,4.3c0.5,0.4,0.8,0.7,1,1s0.4,0.5,0.5,0.8
		s0.1,0.5,0,0.8s-0.2,0.5-0.4,0.7s-0.4,0.3-0.7,0.4c-0.3,0.1-0.6,0.1-0.9,0c-0.3-0.1-0.5-0.2-0.7-0.3c-0.2-0.2-0.6-0.5-1.1-0.9
		l-4.3-3.7l-1.7,5.6c-0.1,0.4-0.2,0.8-0.3,0.9c-0.1,0.2-0.1,0.4-0.2,0.5s-0.2,0.3-0.4,0.5s-0.4,0.2-0.6,0.3
		c-0.4,0.1-0.8,0.1-1.1-0.1c-0.3-0.2-0.6-0.5-0.7-1C130.6,44.2,130.7,43.4,131,42.5z"/>
	<path class="st4" d="M156.6,25.1l-3.7,0.7l2.2,12.3c0.1,0.7,0.1,1.3-0.2,1.7s-0.6,0.6-1.1,0.7c-0.5,0.1-1,0-1.3-0.3
		c-0.4-0.3-0.6-0.8-0.8-1.5l-2.2-12.3l-3.7,0.7c-0.6,0.1-1,0.1-1.4-0.2c-0.3-0.2-0.5-0.5-0.6-0.9s0-0.8,0.3-1.1
		c0.3-0.3,0.7-0.5,1.2-0.6l10.9-1.9c0.6-0.1,1.1-0.1,1.4,0.2c0.3,0.2,0.5,0.5,0.6,1c0.1,0.4,0,0.8-0.3,1.1
		C157.6,24.8,157.2,25,156.6,25.1z"/>
	<path class="st4" d="M164.8,36.8l-1.1-13.5c-0.1-0.7,0.1-1.2,0.3-1.6c0.3-0.4,0.7-0.6,1.2-0.6s1,0.1,1.3,0.4s0.6,0.8,0.6,1.5
		l1.1,13.5c0.1,0.7-0.1,1.3-0.4,1.6c-0.3,0.4-0.7,0.6-1.2,0.6s-0.9-0.1-1.3-0.4C165,38,164.8,37.5,164.8,36.8z"/>
	<path class="st4" d="M178.8,22.6l6.5,10.2l0.2-10.2c0-0.7,0.2-1.2,0.5-1.5s0.7-0.5,1.2-0.5s0.9,0.2,1.2,0.5s0.4,0.8,0.4,1.5
		l-0.2,13.5c0,1.5-0.7,2.3-1.9,2.2c-0.3,0-0.6-0.1-0.8-0.1c-0.2-0.1-0.5-0.2-0.7-0.4s-0.4-0.4-0.6-0.7c-0.2-0.3-0.4-0.5-0.5-0.8
		l-6.4-10.1l-0.2,10.1c0,0.7-0.2,1.1-0.5,1.5s-0.7,0.5-1.2,0.5s-0.9-0.2-1.2-0.5s-0.4-0.8-0.4-1.5l0.2-13.3c0-0.6,0.1-1,0.2-1.3
		c0.2-0.3,0.4-0.6,0.8-0.8c0.3-0.2,0.7-0.3,1.1-0.3c0.3,0,0.6,0.1,0.8,0.2s0.4,0.2,0.6,0.4c0.2,0.2,0.3,0.4,0.5,0.7
		C178.5,22,178.6,22.3,178.8,22.6z"/>
	<path class="st4" d="M210.4,34.1l-0.5,3.3c-0.1,0.4-0.2,0.8-0.3,1s-0.3,0.5-0.6,0.6c-0.3,0.2-0.6,0.3-1,0.5
		c-1.1,0.4-2.2,0.6-3.2,0.8s-2,0.1-3.2-0.1c-1.3-0.2-2.5-0.6-3.5-1.2s-1.8-1.3-2.5-2.2c-0.6-0.9-1.1-1.9-1.3-3.1
		c-0.2-1.2-0.2-2.4,0-3.7c0.2-1.3,0.6-2.5,1.2-3.5c0.6-1,1.3-1.9,2.2-2.5s1.9-1.1,3.1-1.3c1.2-0.2,2.4-0.2,3.8,0
		c1.1,0.2,2.1,0.5,3,0.9c0.8,0.4,1.5,0.9,2,1.5c0.5,0.5,0.8,1.1,1,1.7s0.3,1,0.2,1.4s-0.3,0.8-0.7,1c-0.4,0.3-0.8,0.3-1.2,0.3
		c-0.2,0-0.5-0.1-0.7-0.3s-0.4-0.3-0.5-0.6c-0.3-0.7-0.6-1.3-0.8-1.7c-0.2-0.4-0.6-0.7-1.1-1s-1.1-0.5-1.9-0.6
		c-0.8-0.1-1.5-0.1-2.2,0.1s-1.3,0.5-1.8,0.9s-1,1-1.3,1.8s-0.6,1.5-0.7,2.5c-0.3,2-0.1,3.6,0.7,4.8c0.7,1.2,1.9,2,3.6,2.2
		c0.8,0.1,1.6,0.1,2.3,0s1.5-0.3,2.3-0.6l0.4-2.8l-2.7-0.4c-0.6-0.1-1.1-0.3-1.4-0.5s-0.4-0.6-0.3-1.1c0.1-0.4,0.2-0.7,0.6-0.9
		s0.7-0.3,1.2-0.2l3.9,0.6c0.5,0.1,0.9,0.2,1.2,0.3s0.6,0.4,0.7,0.7C210.5,33,210.5,33.5,210.4,34.1z"/>
	<path class="st4" d="M216.2,35.3l2.4-7.9c0.2-0.7,0.5-1.1,0.9-1.4c0.4-0.2,0.9-0.3,1.3-0.1c0.5,0.2,0.9,0.4,1.1,0.9
		c0.2,0.4,0.2,1,0,1.7l-2.5,8.1c-0.3,0.9-0.4,1.7-0.4,2.4s0.2,1.3,0.7,1.8c0.4,0.5,1.1,0.9,2,1.2c1.3,0.4,2.3,0.3,3.1-0.2
		c0.7-0.5,1.3-1.5,1.8-2.9l2.5-8.2c0.2-0.7,0.5-1.1,0.9-1.4s0.9-0.3,1.4-0.1s0.9,0.4,1.1,0.9c0.2,0.4,0.2,1,0,1.7l-2.4,7.9
		c-0.4,1.3-0.8,2.3-1.4,3.1c-0.5,0.8-1.2,1.4-2.1,1.8c-0.8,0.4-1.6,0.6-2.5,0.6s-1.8-0.1-2.9-0.5c-1.3-0.4-2.3-0.9-3.1-1.4
		s-1.4-1.2-1.8-1.9s-0.6-1.6-0.6-2.6C215.6,37.7,215.8,36.6,216.2,35.3z"/>
	<path class="st4" d="M233.8,46.8l5.2-12.5c0.3-0.6,0.6-1.1,1.1-1.3c0.4-0.2,0.9-0.2,1.3,0c0.5,0.2,0.8,0.5,1,1
		c0.2,0.4,0.1,1-0.2,1.7L237,48.2c-0.3,0.7-0.6,1.1-1.1,1.3s-0.9,0.2-1.4,0s-0.8-0.5-0.9-1C233.5,48,233.6,47.5,233.8,46.8z"/>
	<path class="st4" d="M255.6,53.8c-0.5,0.9-1.2,1.6-2,2.1c-0.9,0.5-1.9,0.7-3,0.6c-1.1-0.1-2.3-0.4-3.6-1.1
		c-1.5-0.8-2.6-1.7-3.2-2.8c-0.5-0.8-0.7-1.6-0.8-2.5s0.1-1.7,0.4-2.3c0.2-0.4,0.5-0.6,0.9-0.7c0.4-0.1,0.8-0.1,1.2,0.1
		c0.3,0.2,0.5,0.4,0.7,0.7c0.1,0.3,0.1,0.7,0.1,1.2c-0.1,0.6-0.1,1.1,0,1.5s0.2,0.9,0.5,1.3s0.8,0.8,1.4,1.2
		c0.9,0.5,1.8,0.7,2.6,0.6s1.4-0.5,1.7-1.1c0.3-0.5,0.3-1,0.2-1.5s-0.4-0.9-0.8-1.4c-0.4-0.4-1-0.9-1.7-1.6c-1-0.8-1.7-1.6-2.3-2.4
		c-0.6-0.7-0.9-1.5-1-2.3s0.1-1.7,0.5-2.5s1.1-1.5,1.9-1.9c0.8-0.4,1.7-0.5,2.8-0.4c1,0.1,2.2,0.5,3.3,1.1c0.9,0.5,1.7,1,2.2,1.6
		c0.6,0.6,1,1.2,1.2,1.8s0.4,1.2,0.3,1.7c0,0.5-0.1,1-0.3,1.4c-0.2,0.4-0.5,0.6-0.9,0.8s-0.8,0.1-1.2-0.1c-0.4-0.2-0.6-0.4-0.7-0.7
		c-0.1-0.3-0.1-0.7-0.1-1.2c0-0.7-0.1-1.3-0.3-1.9s-0.7-1-1.6-1.5c-0.8-0.4-1.5-0.6-2.2-0.5s-1.1,0.4-1.4,0.9
		c-0.2,0.3-0.2,0.6-0.2,0.9c0,0.3,0.2,0.6,0.4,0.9s0.4,0.6,0.7,0.8s0.7,0.6,1.3,1.2c0.7,0.7,1.4,1.3,2,1.9c0.6,0.6,1,1.2,1.3,1.8
		s0.4,1.2,0.4,1.9C256.2,52.3,256,53,255.6,53.8z"/>
	<path class="st4" d="M268.8,50.2l-2.9,4l6.1,4.4l2.9-4c0.4-0.6,0.8-0.9,1.3-1s0.9,0,1.3,0.3s0.7,0.7,0.7,1.2c0.1,0.5-0.1,1-0.5,1.6
		l-7.9,11c-0.4,0.6-0.9,0.9-1.3,1c-0.5,0.1-0.9,0-1.3-0.3s-0.7-0.7-0.7-1.2s0.1-1,0.5-1.6l3.4-4.7l-6.1-4.4l-3.4,4.7
		c-0.4,0.6-0.9,0.9-1.3,1c-0.5,0.1-0.9,0-1.3-0.3s-0.7-0.7-0.7-1.2s0.1-1,0.5-1.6l7.9-11c0.4-0.6,0.8-0.9,1.3-1s0.9,0,1.3,0.3
		s0.7,0.7,0.7,1.2C269.4,49.1,269.2,49.7,268.8,50.2z"/>
	<path class="st4" d="M291.1,69.7l-5.7-5.3l-2.9,3.1l5.3,4.9c0.4,0.4,0.6,0.7,0.6,1.1s-0.1,0.7-0.4,1s-0.6,0.4-0.9,0.4
		s-0.7-0.2-1.1-0.5l-5.3-4.9l-3.3,3.6l5.9,5.5c0.4,0.4,0.6,0.7,0.6,1.1s-0.1,0.7-0.4,1s-0.6,0.4-1,0.4s-0.8-0.2-1.2-0.6l-6.9-6.4
		c-0.6-0.5-0.8-1-0.9-1.5c0-0.5,0.2-1,0.7-1.5l8.8-9.4c0.3-0.4,0.7-0.6,1-0.7s0.7-0.1,1,0s0.7,0.3,1,0.7l6.7,6.3
		c0.4,0.4,0.6,0.7,0.7,1.1s-0.1,0.7-0.4,1s-0.6,0.4-1,0.4C291.8,70.3,291.5,70.1,291.1,69.7z"/>
	<path class="st4" d="M294.2,83.7l-0.8-0.9l-4.2,3.5c-0.6,0.5-1.1,0.7-1.5,0.7c-0.5,0-0.9-0.2-1.2-0.6c-0.4-0.4-0.5-0.9-0.4-1.3
		c0.1-0.5,0.4-0.9,0.9-1.4l10.2-8.5c0.6-0.5,1.1-0.7,1.6-0.7s1,0.4,1.4,0.9l3.6,4.3c0.5,0.6,0.9,1.1,1.2,1.6
		c0.3,0.5,0.5,0.9,0.7,1.4c0.2,0.6,0.2,1.1,0.2,1.7c-0.1,0.6-0.2,1.1-0.5,1.7c-0.3,0.5-0.7,1-1.2,1.4c-1,0.8-2,1.2-3.1,1.1
		s-2.2-0.6-3.4-1.5c0.1,0.7,0.1,1.4,0,2.3c-0.1,0.8-0.3,1.7-0.6,2.5c-0.3,0.8-0.6,1.5-0.8,2c-0.3,0.6-0.5,0.9-0.7,1.1
		c-0.2,0.1-0.4,0.2-0.7,0.3c-0.3,0-0.5,0-0.8-0.1s-0.5-0.3-0.7-0.5c-0.3-0.3-0.4-0.6-0.4-0.9s0-0.6,0.1-1s0.2-0.8,0.5-1.4l0.9-2.6
		c0.3-0.9,0.5-1.7,0.6-2.3c0.1-0.6,0.1-1.1-0.1-1.5C294.9,84.6,294.6,84.2,294.2,83.7z M301,80.6l-2.1-2.5l-3.6,3l2,2.4
		c0.5,0.6,1,1.1,1.5,1.5s0.9,0.5,1.4,0.5s0.9-0.2,1.4-0.6c0.4-0.3,0.6-0.7,0.7-1.1s0.1-0.9,0-1.3C302.2,82.2,301.8,81.5,301,80.6z"
		/>
	<path class="st4" d="M314,104.4c-0.4-0.6-0.5-1.3-0.3-2c0.1-0.7,0.6-1.2,1.3-1.7c0.6-0.4,1.3-0.4,2-0.3c0.7,0.2,1.2,0.6,1.6,1.2
		s0.5,1.3,0.3,2s-0.6,1.2-1.2,1.6c-0.7,0.4-1.4,0.5-2.1,0.3C314.9,105.4,314.4,105,314,104.4z"/>
	<path class="st4" d="M320.2,116.2c-0.3-0.7-0.4-1.3-0.2-2c0.2-0.7,0.7-1.2,1.4-1.6c0.6-0.3,1.3-0.3,2-0.1c0.7,0.2,1.2,0.7,1.5,1.4
		c0.3,0.7,0.4,1.3,0.1,2s-0.7,1.2-1.3,1.5c-0.8,0.4-1.5,0.4-2.1,0.1S320.5,116.8,320.2,116.2z"/>
	<path class="st4" d="M325.9,129.9c-0.2-0.7-0.2-1.4,0-2c0.3-0.7,0.8-1.1,1.6-1.4c0.7-0.2,1.3-0.2,2,0.1s1.1,0.8,1.4,1.5
		c0.2,0.7,0.2,1.4-0.1,2c-0.3,0.7-0.8,1.1-1.5,1.4c-0.8,0.3-1.5,0.3-2.1-0.1C326.5,131.1,326.1,130.6,325.9,129.9z"/>
	<path class="st4" d="M329.8,142.7c-0.2-0.7-0.1-1.4,0.2-2c0.3-0.6,0.9-1.1,1.7-1.3c0.7-0.2,1.3-0.1,2,0.3s1,0.9,1.2,1.6
		c0.2,0.7,0.1,1.4-0.3,2s-0.9,1-1.6,1.2c-0.8,0.2-1.5,0.1-2.1-0.3C330.4,143.9,330,143.3,329.8,142.7z"/>
	<path class="st4" d="M332.6,155.7c-0.1-0.7,0-1.4,0.4-2s1-1,1.8-1.1c0.7-0.1,1.4,0,1.9,0.4c0.6,0.4,1,1,1.1,1.7s0,1.4-0.4,2
		s-1,1-1.7,1.1c-0.8,0.1-1.5,0-2.1-0.4S332.8,156.4,332.6,155.7z"/>
	<path class="st4" d="M334.4,168.9c-0.1-0.7,0.1-1.4,0.5-1.9c0.4-0.6,1.1-0.9,1.9-1c0.7-0.1,1.3,0.1,1.9,0.6s0.9,1.1,0.9,1.8
		c0.1,0.7-0.1,1.4-0.6,1.9s-1.1,0.9-1.8,0.9c-0.8,0.1-1.5-0.1-2-0.6C334.7,170.2,334.4,169.6,334.4,168.9z"/>
	<path class="st4" d="M334.9,180.7c0-0.7,0.2-1.4,0.7-1.9s1.1-0.8,2-0.8c0.7,0,1.3,0.2,1.9,0.7c0.5,0.5,0.8,1.1,0.8,1.9
		c0,0.7-0.2,1.4-0.7,1.9s-1.1,0.8-1.8,0.8c-0.8,0-1.5-0.2-2-0.8C335.2,182,334.9,181.4,334.9,180.7z"/>
	<path class="st4" d="M334.6,192.6c0-0.7,0.3-1.3,0.8-1.8s1.2-0.7,2-0.7c0.7,0,1.3,0.3,1.8,0.9c0.5,0.5,0.7,1.2,0.7,1.9
		s-0.3,1.3-0.9,1.8s-1.2,0.7-1.9,0.7c-0.8-0.1-1.5-0.4-1.9-0.9S334.6,193.3,334.6,192.6z"/>
	<path class="st4" d="M333.4,204.4c0.1-0.7,0.4-1.3,1-1.8s1.2-0.6,2.1-0.5c0.7,0.1,1.3,0.4,1.7,1c0.4,0.6,0.6,1.2,0.5,2
		s-0.4,1.3-1,1.8c-0.6,0.4-1.2,0.6-1.9,0.5c-0.8-0.1-1.4-0.5-1.8-1C333.5,205.7,333.3,205.1,333.4,204.4z"/>
	<path class="st4" d="M331.3,216.1c0.2-0.7,0.5-1.3,1.1-1.7s1.3-0.5,2.1-0.4c0.7,0.2,1.2,0.5,1.6,1.1s0.5,1.3,0.4,2
		c-0.2,0.7-0.5,1.3-1.2,1.7s-1.3,0.5-2,0.4c-0.8-0.2-1.4-0.6-1.7-1.2C331.3,217.4,331.2,216.8,331.3,216.1z"/>
	<path class="st4" d="M328.3,227.5c0.2-0.7,0.6-1.2,1.2-1.6c0.6-0.4,1.3-0.4,2.1-0.2c0.7,0.2,1.2,0.6,1.5,1.3s0.4,1.3,0.2,2
		c-0.2,0.7-0.6,1.2-1.3,1.6c-0.6,0.4-1.3,0.4-2,0.2c-0.8-0.2-1.3-0.7-1.7-1.3C328.2,228.9,328.1,228.2,328.3,227.5z"/>
	<path class="st4" d="M324.5,238.8c0.3-0.7,0.7-1.2,1.3-1.5c0.6-0.3,1.3-0.3,2.1,0c0.7,0.3,1.2,0.7,1.4,1.4c0.3,0.7,0.3,1.3,0,2
		s-0.7,1.2-1.4,1.5c-0.7,0.3-1.3,0.3-2,0.1c-0.8-0.3-1.3-0.8-1.5-1.4C324.2,240.1,324.2,239.4,324.5,238.8z"/>
	<path class="st4" d="M319.8,249.7c0.3-0.7,0.8-1.1,1.4-1.4c0.6-0.3,1.4-0.2,2.1,0.1c0.6,0.3,1.1,0.8,1.3,1.5c0.2,0.7,0.2,1.3-0.1,2
		c-0.3,0.7-0.8,1.1-1.5,1.4c-0.7,0.3-1.4,0.2-2-0.1c-0.8-0.4-1.2-0.9-1.4-1.6C319.4,250.9,319.5,250.3,319.8,249.7z"/>
	<path class="st4" d="M314.3,260.1c0.4-0.6,0.9-1.1,1.5-1.3c0.7-0.2,1.4-0.1,2.1,0.3c0.6,0.4,1,0.9,1.2,1.6s0.1,1.4-0.3,2
		s-0.9,1.1-1.6,1.3c-0.7,0.2-1.4,0.1-2-0.2c-0.7-0.4-1.2-1-1.3-1.7C313.8,261.4,313.9,260.7,314.3,260.1z"/>
	<path class="st4" d="M308,270.2c0.4-0.6,1-1,1.6-1.2c0.7-0.2,1.4,0,2.1,0.5c0.6,0.4,1,1,1.1,1.7s0,1.4-0.4,2s-1,1-1.7,1.1
		s-1.4,0-2-0.4c-0.7-0.5-1.1-1.1-1.2-1.7C307.5,271.4,307.6,270.8,308,270.2z"/>
	<path class="st4" d="M301,279.7c0.5-0.6,1-0.9,1.7-1s1.4,0.1,2,0.6c0.6,0.4,0.9,1,1,1.7s-0.1,1.4-0.6,1.9c-0.5,0.6-1.1,0.9-1.8,1
		s-1.4-0.1-1.9-0.5c-0.7-0.5-1-1.1-1-1.8C300.3,280.9,300.5,280.3,301,279.7z"/>
	<path class="st4" d="M293.2,288.7c0.5-0.5,1.1-0.8,1.8-0.9s1.4,0.2,2,0.8c0.5,0.5,0.8,1.1,0.8,1.8c0,0.7-0.2,1.4-0.7,1.9
		s-1.1,0.8-1.8,0.9s-1.4-0.2-1.9-0.7c-0.6-0.6-0.9-1.2-0.9-1.9C292.5,289.8,292.8,289.2,293.2,288.7z"/>
	<path class="st4" d="M284.9,297.1c0.5-0.5,1.2-0.7,1.9-0.8s1.3,0.3,1.9,0.9c0.5,0.5,0.7,1.1,0.7,1.9s-0.3,1.3-0.8,1.8
		s-1.2,0.7-1.9,0.7c-0.7,0-1.3-0.3-1.8-0.8c-0.6-0.6-0.8-1.3-0.8-2C284,298.1,284.3,297.5,284.9,297.1z"/>
	<path class="st4" d="M275.9,304.8c0.6-0.5,1.2-0.7,1.9-0.6c0.7,0,1.3,0.4,1.8,1c0.4,0.6,0.6,1.2,0.6,1.9c-0.1,0.7-0.4,1.3-1,1.8
		s-1.2,0.7-2,0.6c-0.7-0.1-1.3-0.4-1.8-1c-0.5-0.7-0.7-1.3-0.6-2C275,305.8,275.3,305.2,275.9,304.8z"/>
	<path class="st4" d="M266.3,311.8c0.6-0.4,1.3-0.6,2-0.5s1.3,0.5,1.8,1.2c0.4,0.6,0.5,1.2,0.4,2c-0.1,0.7-0.5,1.3-1.1,1.7
		s-1.3,0.6-2,0.4c-0.7-0.1-1.3-0.5-1.7-1.1c-0.5-0.7-0.6-1.4-0.5-2.1C265.3,312.7,265.7,312.2,266.3,311.8z"/>
	<path class="st4" d="M256.2,318.1c0.6-0.4,1.3-0.5,2-0.3c0.7,0.1,1.2,0.6,1.7,1.3c0.4,0.6,0.4,1.3,0.3,2c-0.2,0.7-0.6,1.2-1.2,1.6
		s-1.3,0.5-2,0.3s-1.2-0.6-1.6-1.2c-0.4-0.7-0.5-1.4-0.3-2.1C255.2,318.9,255.6,318.4,256.2,318.1z"/>
	<path class="st4" d="M245.7,323.5c0.7-0.3,1.3-0.4,2-0.2c0.7,0.2,1.2,0.7,1.6,1.4c0.3,0.6,0.3,1.3,0.1,2s-0.7,1.2-1.4,1.5
		s-1.3,0.4-2,0.1c-0.7-0.2-1.2-0.7-1.5-1.3c-0.4-0.8-0.4-1.5-0.1-2.1S245.1,323.8,245.7,323.5z"/>
	<path class="st4" d="M234.8,328.2c0.7-0.3,1.3-0.3,2,0s1.1,0.8,1.4,1.6c0.3,0.7,0.2,1.3,0,2s-0.8,1.1-1.5,1.4s-1.4,0.3-2,0
		c-0.7-0.3-1.1-0.8-1.4-1.5c-0.3-0.8-0.3-1.5,0-2.1C233.7,328.9,234.2,328.5,234.8,328.2z"/>
	<path class="st4" d="M223.6,332c0.7-0.2,1.4-0.2,2,0.1s1.1,0.9,1.3,1.7c0.2,0.7,0.1,1.3-0.2,2c-0.3,0.6-0.9,1.1-1.6,1.3
		c-0.7,0.2-1.4,0.1-2-0.2s-1.1-0.9-1.3-1.6c-0.2-0.8-0.2-1.5,0.2-2.1C222.4,332.7,222.9,332.3,223.6,332z"/>
	<path class="st4" d="M212.1,335c0.7-0.2,1.4-0.1,2,0.3c0.6,0.3,1,0.9,1.2,1.8c0.2,0.7,0,1.4-0.3,2c-0.4,0.6-0.9,1-1.7,1.2
		c-0.7,0.2-1.4,0-2-0.3c-0.6-0.4-1-0.9-1.2-1.6c-0.2-0.8-0.1-1.5,0.3-2.1C210.9,335.5,211.5,335.2,212.1,335z"/>
	<path class="st4" d="M200.5,337.1c0.7-0.1,1.4,0,2,0.4s0.9,1,1.1,1.8c0.1,0.7-0.1,1.4-0.5,1.9c-0.4,0.6-1,0.9-1.7,1s-1.4-0.1-2-0.5
		s-0.9-1-1-1.7c-0.1-0.8,0.1-1.5,0.5-2C199.2,337.5,199.8,337.2,200.5,337.1z"/>
	<path class="st4" d="M188.7,338.3c0.7,0,1.4,0.2,1.9,0.6c0.6,0.4,0.9,1.1,0.9,1.9c0,0.7-0.2,1.3-0.6,1.9c-0.5,0.5-1.1,0.8-1.8,0.9
		c-0.7,0-1.4-0.2-1.9-0.6c-0.6-0.5-0.9-1.1-0.9-1.8c-0.1-0.8,0.2-1.5,0.7-2S188,338.3,188.7,338.3z"/>
	<path class="st4" d="M176.8,338.5c0.7,0,1.3,0.3,1.9,0.7c0.5,0.5,0.8,1.1,0.8,2c0,0.7-0.3,1.3-0.8,1.8s-1.1,0.8-1.9,0.7
		c-0.7,0-1.4-0.3-1.9-0.8s-0.8-1.1-0.8-1.9s0.3-1.5,0.8-1.9C175.5,338.8,176.1,338.5,176.8,338.5z"/>
	<path class="st4" d="M165,338c0.7,0.1,1.3,0.4,1.8,0.9s0.7,1.2,0.6,2c-0.1,0.7-0.4,1.3-0.9,1.8s-1.2,0.7-1.9,0.6s-1.3-0.4-1.8-0.9
		c-0.5-0.6-0.7-1.2-0.6-1.9c0.1-0.8,0.4-1.5,1-1.9C163.7,338.1,164.3,337.9,165,338z"/>
	<path class="st4" d="M153.2,336.5c0.7,0.1,1.3,0.5,1.7,1s0.6,1.2,0.5,2.1c-0.1,0.7-0.5,1.3-1,1.7c-0.6,0.4-1.2,0.6-2,0.5
		c-0.7-0.1-1.3-0.5-1.7-1.1s-0.6-1.2-0.5-2s0.5-1.4,1.1-1.8S152.5,336.3,153.2,336.5z"/>
	<path class="st4" d="M141.6,334.1c0.7,0.2,1.3,0.5,1.7,1.1s0.5,1.3,0.3,2.1c-0.2,0.7-0.6,1.2-1.2,1.6c-0.6,0.4-1.3,0.5-2,0.3
		s-1.3-0.6-1.7-1.2s-0.5-1.3-0.3-2c0.2-0.8,0.6-1.4,1.2-1.7C140.3,334,140.9,333.9,141.6,334.1z"/>
	<path class="st4" d="M130.2,330.8c0.7,0.2,1.2,0.6,1.6,1.3c0.4,0.6,0.4,1.3,0.1,2.1c-0.2,0.7-0.7,1.2-1.3,1.5s-1.3,0.4-2,0.2
		c-0.7-0.2-1.2-0.7-1.6-1.3c-0.3-0.6-0.4-1.3-0.2-2c0.3-0.8,0.7-1.3,1.4-1.6C128.9,330.6,129.6,330.6,130.2,330.8z"/>
	<path class="st4" d="M119.1,326.7c0.7,0.3,1.2,0.7,1.5,1.4c0.3,0.6,0.3,1.3,0,2.1c-0.3,0.7-0.7,1.1-1.4,1.4c-0.7,0.3-1.3,0.3-2,0
		s-1.2-0.8-1.5-1.4c-0.3-0.7-0.3-1.3,0-2c0.3-0.8,0.8-1.3,1.5-1.5C117.8,326.4,118.5,326.4,119.1,326.7z"/>
	<path class="st4" d="M108.4,321.8c0.6,0.3,1.1,0.8,1.4,1.5s0.2,1.4-0.2,2.1c-0.3,0.6-0.8,1.1-1.5,1.3c-0.7,0.2-1.4,0.2-2-0.2
		c-0.7-0.3-1.1-0.8-1.3-1.5s-0.2-1.4,0.1-2c0.4-0.7,0.9-1.2,1.6-1.4C107.1,321.4,107.7,321.4,108.4,321.8z"/>
	<path class="st4" d="M98,316c0.6,0.4,1,0.9,1.2,1.6s0.1,1.4-0.3,2.1c-0.4,0.6-0.9,1-1.6,1.2s-1.4,0.1-2-0.3s-1-0.9-1.2-1.6
		s-0.1-1.4,0.3-2c0.4-0.7,1-1.1,1.7-1.3C96.7,315.5,97.4,315.6,98,316z"/>
	<path class="st4" d="M88.1,309.5c0.6,0.4,1,1,1.1,1.7c0.2,0.7,0,1.4-0.5,2.1c-0.4,0.6-1,0.9-1.7,1.1c-0.7,0.1-1.4,0-2-0.5
		c-0.6-0.4-1-1-1.1-1.7s0-1.4,0.4-2c0.5-0.7,1.1-1.1,1.8-1.1S87.5,309,88.1,309.5z"/>
	<path class="st4" d="M78.7,302.2c0.6,0.5,0.9,1,1,1.7s-0.1,1.4-0.7,2c-0.5,0.5-1,0.9-1.8,0.9c-0.7,0.1-1.4-0.1-1.9-0.6
		c-0.6-0.5-0.9-1.1-1-1.8c-0.1-0.7,0.1-1.4,0.6-1.9c0.5-0.6,1.2-1,1.9-1C77.6,301.5,78.2,301.7,78.7,302.2z"/>
	<path class="st4" d="M70,294.2c0.5,0.5,0.8,1.1,0.9,1.8c0.1,0.7-0.2,1.4-0.8,2c-0.5,0.5-1.1,0.8-1.8,0.8c-0.7,0-1.3-0.2-1.9-0.7
		s-0.8-1.1-0.8-1.9c0-0.7,0.2-1.4,0.7-1.9c0.6-0.6,1.2-0.9,1.9-0.9C68.8,293.5,69.4,293.8,70,294.2z"/>
	<path class="st4" d="M61.8,285.7c0.5,0.5,0.7,1.2,0.7,1.9c0,0.7-0.3,1.3-1,1.9c-0.5,0.5-1.2,0.7-1.9,0.7s-1.3-0.3-1.8-0.9
		s-0.7-1.2-0.7-1.9c0-0.7,0.3-1.3,0.9-1.8c0.6-0.5,1.3-0.8,2-0.7C60.7,284.8,61.3,285.1,61.8,285.7z"/>
	<path class="st4" d="M54.3,276.5c0.4,0.6,0.6,1.2,0.6,1.9c-0.1,0.7-0.4,1.3-1.1,1.8c-0.6,0.4-1.2,0.6-1.9,0.5s-1.3-0.4-1.7-1
		s-0.6-1.2-0.5-2s0.4-1.3,1-1.7c0.7-0.5,1.3-0.7,2-0.6C53.3,275.6,53.9,275.9,54.3,276.5z"/>
	<path class="st4" d="M47.5,266.8c0.4,0.6,0.5,1.3,0.4,2s-0.5,1.3-1.2,1.7c-0.6,0.4-1.3,0.5-2,0.4s-1.3-0.5-1.7-1.1s-0.5-1.3-0.4-2
		s0.5-1.3,1.1-1.7c0.7-0.5,1.4-0.6,2.1-0.4C46.6,265.8,47.1,266.2,47.5,266.8z"/>
	<path class="st4" d="M41.5,256.6c0.3,0.6,0.4,1.3,0.3,2c-0.2,0.7-0.6,1.2-1.4,1.6c-0.6,0.3-1.3,0.4-2,0.2c-0.7-0.2-1.2-0.6-1.6-1.3
		c-0.4-0.6-0.4-1.3-0.2-2s0.6-1.2,1.3-1.6c0.7-0.4,1.4-0.5,2.1-0.2C40.7,255.5,41.2,255.9,41.5,256.6z"/>
	<path class="st4" d="M36.3,245.9c0.3,0.7,0.3,1.3,0.1,2s-0.7,1.2-1.5,1.5c-0.7,0.3-1.3,0.3-2,0.1s-1.2-0.7-1.5-1.4s-0.3-1.4-0.1-2
		c0.3-0.7,0.7-1.2,1.4-1.5c0.8-0.3,1.5-0.4,2.1-0.1C35.5,244.8,36,245.3,36.3,245.9z"/>
	<path class="st4" d="M31.9,234.9c0.2,0.7,0.2,1.4,0,2s-0.8,1.1-1.6,1.4c-0.7,0.2-1.3,0.2-2-0.1s-1.1-0.8-1.4-1.5
		c-0.2-0.7-0.2-1.4,0.1-2c0.3-0.7,0.8-1.1,1.5-1.4c0.8-0.3,1.5-0.3,2.1,0.1S31.6,234.3,31.9,234.9z"/>
	<path class="st4" d="M28.3,223.6c0.2,0.7,0.1,1.4-0.2,2c-0.3,0.6-0.9,1.1-1.7,1.3c-0.7,0.2-1.3,0.1-2-0.2s-1-0.9-1.2-1.6
		c-0.2-0.7-0.1-1.4,0.2-2c0.4-0.6,0.9-1.1,1.6-1.2c0.8-0.2,1.5-0.1,2.1,0.2C27.7,222.4,28.1,222.9,28.3,223.6z"/>
	<path class="st4" d="M25.6,212.1c0.1,0.7,0,1.4-0.3,2s-1,1-1.8,1.1c-0.7,0.1-1.4,0-2-0.4s-1-1-1.1-1.7s0-1.4,0.4-2s1-1,1.7-1.1
		c0.8-0.2,1.5,0,2.1,0.4C25.1,210.8,25.5,211.4,25.6,212.1z"/>
	<path class="st4" d="M23.8,200.3c0.1,0.7-0.1,1.4-0.5,1.9s-1,0.9-1.9,1c-0.7,0.1-1.3-0.1-1.9-0.5s-0.9-1-1-1.8
		c-0.1-0.7,0.1-1.4,0.5-2s1-0.9,1.8-1s1.5,0.1,2,0.6C23.4,199.1,23.8,199.6,23.8,200.3z"/>
	<path class="st4" d="M22.9,188.5c0,0.7-0.2,1.4-0.6,1.9s-1.1,0.8-1.9,0.9c-0.7,0-1.3-0.2-1.9-0.7c-0.5-0.5-0.8-1.1-0.8-1.8
		s0.2-1.4,0.7-1.9s1.1-0.8,1.8-0.9c0.8,0,1.5,0.2,2,0.7S22.9,187.8,22.9,188.5z"/>
	<path class="st4" d="M22.9,176.7c0,0.7-0.3,1.3-0.8,1.9c-0.5,0.5-1.2,0.7-2,0.7c-0.7,0-1.3-0.3-1.8-0.8s-0.7-1.2-0.7-1.9
		s0.3-1.4,0.8-1.9s1.2-0.7,1.9-0.7c0.8,0,1.5,0.3,1.9,0.9C22.7,175.3,23,176,22.9,176.7z"/>
</g>
<g>
	<path class="st4" d="M213.3,312.6h-76V119c0-21,17-38,38-38l0,0c21,0,38,17,38,38V312.6z"/>
	<path class="st5" d="M180.8,83.7V64.4h49.1c3.9,0,4.6,5.5,0.8,6.5L180.8,83.7z"/>
	<path class="st5" d="M180.8,75.9v19.4h49.1c3.9,0,4.6-5.5,0.8-6.5L180.8,75.9z"/>
	<circle class="st6" cx="175.8" cy="80" r="15"/>
	<path class="st6" d="M192.6,159.9c0,15,11.4,29,24.4,30.2c16.9,1.5,34.6-13.5,51.2-14.2v34.7c-14.9,0.6-30.3-11.6-45.2-12.8
		c-11.1-0.9-18.4-4.2-26-12.8c-6-6.8-11.6-16.5-9-25.5"/>
	<path class="st5" d="M159.2,261.8h-9c-7.2,0-13-5.8-13-13v-97.5c0-7.2,5.8-13,13-13h9c7.2,0,13,5.8,13,13v97.5
		C172.2,256,166.4,261.8,159.2,261.8z"/>
	<path class="st6" d="M194,137.3c-0.1-4.9-1.7-9.2-5.6-12.3c-10.1-8-25.9-4.5-37.5-3.3c-11.2,1.2-41.9,2.9-33.4-17.6
		c5.9-14,26.3-19.5,39.9-19.8c3.2-0.1,3.2-5.1,0-5c-14,0.3-29.8,5.1-39.7,15.6c-8.9,9.5-8.8,24.6,4.2,30.1
		c14.9,6.3,32.4,0.3,47.8,0.1c6.5-0.1,16.1,0.8,18.6,8.1c1.4,4.2,0.3,9.6,0,14c-0.3,4.6-0.6,9.1-0.9,13.7c-0.2,3.2,4.8,3.2,5,0
		C193,153.2,194.2,145.1,194,137.3z"/>
</g>
<text class="st1 st2"> </text>
</svg>
