<svg width="89" height="76" viewBox="0 0 89 76" xmlns="http://www.w3.org/2000/svg"><path d="M44.508 75.5l-1.213-.922c-.186-.141-18.723-14.301-35.49-31.07-9.713-9.713-9.713-25.514 0-35.227C12.508 3.576 18.762.986 25.414.986c6.654 0 12.91 2.59 17.613 7.295.516.514 1.01 1.055 1.48 1.615.469-.561.963-1.102 1.477-1.615C50.691 3.576 56.945.986 63.599.986c6.654 0 12.908 2.59 17.611 7.295 9.711 9.713 9.711 25.516 0 35.227-16.77 16.77-35.309 30.93-35.492 31.07l-1.21.922zM24.942593 4.32976732c-5.7252617 0-11.108074 2.22899694-15.15492358 6.27789708-8.35822589 8.3582259-8.35822589 21.9598236 0 30.3180495C24.2617954 55.3998399 40.0442011 67.9638364 44.519625 71.456c4.4733733-3.4921636 20.2578296-16.0561601 34.7319556-30.5302861 8.3582259-8.3582259 8.3582259-21.9598236 0-30.3180495-4.0489002-4.04890014-9.4317125-6.27789708-15.1569742-6.27789708-5.7252617 0-11.1101246 2.22899694-15.1610753 6.27789708-1.0017157 1.0037663-1.9142306 2.1182648-2.7078109 3.3106859l-1.7060952 2.5673451-1.7081458-2.5673451c-.792555-1.1913958-1.7040446-2.3069196-2.7098615-3.3106859-4.0489001-4.04890014-9.4317124-6.27789708-15.1590247-6.27789708z" fill="#000" fill-rule="nonzero"/></svg>