<!--?xml version="1.0" encoding="UTF-8" standalone="no"?--><svg width="100%" height="100%" viewBox="0 0 343 157" version="1.1" xmlns="http://www.w3.org/2000/svg" xmlns:xlink="http://www.w3.org/1999/xlink" xml:space="preserve" style="fill-rule: evenodd; clip-rule: evenodd; stroke-linejoin: round; stroke-miterlimit: 1.41421;"><path id="civic-logo-wht" width="342.631" height="156.396" style="fill:none;" d="M0.112 0.085 L342.743 0.085 L342.743 156.481 L0.112 156.481 Z" class="INKjzPSw_0"></path><g id="logo-set"><path width="15.834" height="65.502" style="fill:#fff;fill-rule:nonzero;stroke:#fff;stroke-width:0.24px;" d="M109.299 36.724 L125.13300000000001 36.724 L125.13300000000001 102.226 L109.299 102.226 Z" class="INKjzPSw_1"></path><path d="M140.634,36.724l16.5,0l10.5,40.001l10.334,-40.001l16.667,0l-20,65.502l-14.001,0l-20,-65.502Z" style="fill:#fff;fill-rule:nonzero;stroke:#fff;stroke-width:0.24px;" class="INKjzPSw_2"></path><path width="15.834" height="65.502" style="fill:#fff;fill-rule:nonzero;stroke:#fff;stroke-width:0.24px;" d="M212.636 36.724 L228.47 36.724 L228.47 102.226 L212.636 102.226 Z" class="INKjzPSw_3"></path><path d="M60.131,81.725c-6.833,-6.833 -6.833,-17.833 0,-24.5c3.334,-3.334 7.667,-5 12.334,-5c4.667,0 9,1.833 12.334,5l11.5,-11.501c-6.333,-6.333 -14.834,-9.833 -23.834,-9.833c-9,0 -17.5,3.5 -23.834,9.833c-13.167,13.167 -13.167,34.501 0,47.502c6.667,6.5 15.167,9.833 23.834,9.833c8.667,0 17.167,-3.333 23.834,-9.833l-11.5,-11.501c-6.834,6.667 -17.834,6.667 -24.668,0Z" style="fill:#fff;fill-rule:nonzero;stroke:#fff;stroke-width:0.24px;" class="INKjzPSw_4"></path><path d="M264.131,81.725c-6.833,-6.833 -6.833,-17.833 0,-24.5c3.334,-3.334 7.667,-5 12.334,-5c4.667,0 9,1.833 12.334,5l11.5,-11.501c-6.333,-6.333 -14.834,-9.833 -23.834,-9.833c-9,0 -17.5,3.5 -23.834,9.833c-13.167,13.167 -13.167,34.501 0,47.502c6.667,6.5 15.167,9.833 23.834,9.833c8.667,0 17.167,-3.333 23.834,-9.833l-11.5,-11.501c-6.834,6.667 -17.834,6.667 -24.668,0Z" style="fill:#ee495c;fill-rule:nonzero;stroke:#ee495c;stroke-width:0.24px;" class="INKjzPSw_5"></path><path d="M294.781,87.335c-8.492,8.512 -24.739,11.704 -36.798,-0.211c-6.483,-6.406 -12.338,-22.634 0.713,-35.951" style="fill:none;stroke:#fff;stroke-width:16.5px;" class="INKjzPSw_6"></path><path d="M326.639,123.56l-40.001,0l-15.167,15l-15.001,-15l-28.5,0l-213.34,0l0,-110.17l-10.334,-10.334l0,130.671l247.841,0l19.334,19.5l19.5,-19.5l46.002,0l-10.334,-10.167Z" style="fill:#fff;fill-rule:nonzero;stroke:#fff;stroke-width:0.24px;" class="INKjzPSw_7"></path><path d="M4.296,3.056l10.334,10.334l312.009,0l0,110.17l10.334,10.167l0,-130.671l-332.677,0Z" style="fill:#ee495c;fill-rule:nonzero;" class="INKjzPSw_8"></path></g><style>.INKjzPSw_0{stroke-dasharray:999 1001;stroke-dashoffset:1000;animation:INKjzPSw_draw 933ms ease 0ms forwards;}.INKjzPSw_1{stroke-dasharray:163 165;stroke-dashoffset:164;animation:INKjzPSw_draw 933ms ease 58ms forwards;}.INKjzPSw_2{stroke-dasharray:267 269;stroke-dashoffset:268;animation:INKjzPSw_draw 933ms ease 116ms forwards;}.INKjzPSw_3{stroke-dasharray:163 165;stroke-dashoffset:164;animation:INKjzPSw_draw 933ms ease 175ms forwards;}.INKjzPSw_4{stroke-dasharray:274 276;stroke-dashoffset:275;animation:INKjzPSw_draw 933ms ease 233ms forwards;}.INKjzPSw_5{stroke-dasharray:274 276;stroke-dashoffset:275;animation:INKjzPSw_draw 933ms ease 291ms forwards;}.INKjzPSw_6{stroke-dasharray:81 83;stroke-dashoffset:82;animation:INKjzPSw_draw 933ms ease 350ms forwards;}.INKjzPSw_7{stroke-dasharray:944 946;stroke-dashoffset:945;animation:INKjzPSw_draw 933ms ease 408ms forwards;}.INKjzPSw_8{stroke-dasharray:915 917;stroke-dashoffset:916;animation:INKjzPSw_draw 933ms ease 466ms forwards;}@keyframes INKjzPSw_draw{100%{stroke-dashoffset:0;}}@keyframes INKjzPSw_fade{0%{stroke-opacity:1;}92.85714285714286%{stroke-opacity:1;}100%{stroke-opacity:0;}}</style></svg>