
<svg version="1.1" id="Layer_1" xmlns="http://www.w3.org/2000/svg" xmlns:xlink="http://www.w3.org/1999/xlink" x="0px" y="0px"
	 viewBox="0 0 408.9 184.5" enable-background="new 0 0 408.9 184.5" xml:space="preserve">
<path fill="#220F25" d="M129.1,41.4h19.5V122h-19.5V41.4z"/>
<path fill="#220F25" d="M167.6,41.4h20.4l12.9,49.1l12.6-49.1H234L209.3,122h-17.2L167.6,41.4z"/>
<path fill="#220F25" d="M256.1,41.4h19.5V122h-19.5V41.4z"/>
<path fill="#220F25" d="M68.7,96.7c-8.3-8.3-8.3-21.8,0-30.2c4-4,9.4-6.2,15.1-6.2c5.7,0,11.1,2.2,15.1,6.2L113,52.4
	c-7.8-7.8-18.2-12.1-29.2-12.1c-11,0-21.4,4.3-29.2,12.1c-16.1,16.1-16.1,42.3,0,58.4c8.1,8.1,18.6,12.1,29.2,12.1s21.2-4,29.2-12.1
	L98.9,96.7C90.6,105,77,105,68.7,96.7z"/>
<path fill="#EE495C" d="M334.6,40.3c-11,0-21.4,4.3-29.2,12.1l14.1,14.1c4-4,9.4-6.2,15.1-6.2c5.7,0,11.1,2.2,15.1,6.2l14.1-14.1
	C356,44.6,345.6,40.3,334.6,40.3z"/>
<path fill="#220F25" d="M334.6,122.9c-10.6,0-21.2-4-29.2-12.1c-16.1-16.1-16.1-42.3,0-58.4l14.1,14.1c-8.3,8.3-8.3,21.8,0,30.2
	c8.3,8.3,21.8,8.3,30.2,0l14.1,14.1C355.8,118.9,345.2,122.9,334.6,122.9L334.6,122.9z"/>
<polygon fill="#220F25" points="396.2,148 347.1,148 328.6,166.6 310,148 274.9,148 12.7,148 12.7,12.7 12.7,12.7 12.7,12.7 0,0 
	0,0 0,0 0,160.7 275.3,160.7 304.8,160.7 328.6,184.5 352.4,160.7 408.9,160.7 "/>
<polygon fill="#EE495C" points="0,0 12.7,12.7 396.2,12.7 396.2,148 396.2,148 408.9,160.7 408.9,160.7 408.9,0 "/>
<g>
	<g>
		<path fill="#FFFFFF" d="M-1376.2-1456.7h13.8v57h-13.8V-1456.7z"/>
	</g>
	<g>
		<path fill="#FFFFFF" d="M-1349-1456.7h14.4l9.1,34.7l8.9-34.7h14.5l-17.4,57h-12.2L-1349-1456.7z"/>
	</g>
	<g>
		<path fill="#FFFFFF" d="M-1286.4-1456.7h13.8v57h-13.8V-1456.7z"/>
	</g>
	<path fill="#FFFFFF" d="M-1418.9-1417.6c-5.9-5.9-5.9-15.4,0-21.3c2.8-2.8,6.6-4.4,10.7-4.4c4,0,7.8,1.6,10.7,4.4l10-10
		c-5.5-5.5-12.8-8.6-20.7-8.6c-7.8,0-15.1,3-20.7,8.6c-11.4,11.4-11.4,29.9,0,41.3c5.7,5.7,13.2,8.5,20.7,8.5c7.5,0,15-2.8,20.7-8.5
		l-10-10C-1403.4-1411.7-1413-1411.7-1418.9-1417.6z"/>
	<path fill="#FFFFFF" d="M-1231-1456.5c7.2,0,14,2.7,19.2,7.6l-8.6,8.6c-2.9-2.6-6.7-4-10.6-4c-4,0-7.7,1.4-10.6,4l-8.6-8.6
		C-1244.9-1453.8-1238.2-1456.5-1231-1456.5 M-1231-1457.5c-7.8,0-15.1,3-20.7,8.6l10,10c2.8-2.8,6.6-4.4,10.7-4.4s7.8,1.6,10.7,4.4
		l10-10C-1215.8-1454.4-1223.2-1457.5-1231-1457.5L-1231-1457.5z"/>
	<path fill="#FFFFFF" d="M-1231-1399.1c-7.5,0-15-2.8-20.7-8.5c-11.4-11.4-11.4-29.9,0-41.3l10,10c-5.9,5.9-5.9,15.4,0,21.3
		c5.9,5.9,15.4,5.9,21.3,0l10,10C-1216-1401.9-1223.5-1399.1-1231-1399.1L-1231-1399.1z"/>
	<polygon fill="#FFFFFF" points="-1187.4,-1381.3 -1222.1,-1381.3 -1235.2,-1368.2 -1248.3,-1381.3 -1273.1,-1381.3 
		-1458.5,-1381.3 -1458.5,-1476.9 -1458.5,-1476.9 -1458.5,-1476.9 -1467.4,-1485.9 -1467.4,-1485.9 -1467.4,-1485.9 
		-1467.4,-1372.3 -1272.9,-1372.3 -1252.1,-1372.3 -1235.2,-1355.5 -1218.4,-1372.3 -1178.4,-1372.3 	"/>
	<path fill="#FFFFFF" d="M-1179.4-1484.9v110.2l-7-7v-95.3v-1h-1h-270.7l-7-7H-1179.4 M-1178.4-1485.9h-289l9,9h271.1v95.7h0l9,9h0
		V-1485.9L-1178.4-1485.9z"/>
</g>
<g>
	<path fill="#220F25" d="M2014.2,1263.1h9.5v39.3h-9.5V1263.1z"/>
	<path fill="#220F25" d="M2033,1263.1h9.9l6.3,24l6.2-24h10l-12,39.3h-8.4L2033,1263.1z"/>
	<path fill="#220F25" d="M2076.2,1263.1h9.5v39.3h-9.5V1263.1z"/>
	<path fill="#220F25" d="M1984.8,1290.1c-4.1-4.1-4.1-10.7,0-14.7c2-2,4.6-3,7.4-3c2.8,0,5.4,1.1,7.4,3l6.9-6.9
		c-3.8-3.8-8.9-5.9-14.3-5.9c-5.4,0-10.5,2.1-14.3,5.9c-7.9,7.9-7.9,20.7,0,28.5c3.9,3.9,9.1,5.9,14.3,5.9c5.2,0,10.3-2,14.3-5.9
		l-6.9-6.9C1995.4,1294.1,1988.8,1294.1,1984.8,1290.1z"/>
	<path fill="#EE495C" d="M2114.5,1262.6c-5.4,0-10.5,2.1-14.3,5.9l6.9,6.9c2-2,4.6-3,7.4-3s5.4,1.1,7.4,3l6.9-6.9
		C2125,1264.6,2119.9,1262.6,2114.5,1262.6z"/>
	<path fill="#220F25" d="M2114.5,1302.9c-5.2,0-10.3-2-14.3-5.9c-7.9-7.9-7.9-20.7,0-28.5l6.9,6.9c-4.1,4.1-4.1,10.7,0,14.7
		c4.1,4.1,10.7,4.1,14.7,0l6.9,6.9C2124.8,1300.9,2119.7,1302.9,2114.5,1302.9L2114.5,1302.9z"/>
	<polygon fill="#220F25" points="2144.6,1315.2 2120.6,1315.2 2111.6,1324.2 2102.5,1315.2 2085.4,1315.2 1957.4,1315.2 
		1957.4,1249.1 1957.4,1249.1 1957.4,1249.1 1951.2,1242.9 1951.2,1242.9 1951.2,1242.9 1951.2,1321.4 2085.6,1321.4 2099.9,1321.4 
		2111.6,1333 2123.2,1321.4 2150.8,1321.4 	"/>
	<polygon fill="#EE495C" points="1951.2,1242.9 1957.4,1249.1 2144.6,1249.1 2144.6,1315.2 2144.6,1315.2 2150.8,1321.4 
		2150.8,1321.4 2150.8,1242.9 	"/>
</g>
</svg>
