<svg width="70" height="80" viewBox="0 0 70 80" xmlns="http://www.w3.org/2000/svg"><g fill-rule="nonzero" fill="none"><path d="M37.3 17.7c-4.8 0-9.2 1.9-12.6 5.2l6.1 6.1c1.7-1.7 4.1-2.7 6.5-2.7 2.4 0 4.8 1 6.5 2.7l6.1-6.1c-3.4-3.3-7.8-5.2-12.6-5.2z" fill="#FFF"/><path d="M37.3 53.4c-4.6 0-9.1-1.7-12.6-5.2-7-7-7-18.3 0-25.2l6.1 6.1c-3.6 3.6-3.6 9.4 0 13 3.6 3.6 9.4 3.6 13 0l6.1 6.1c-3.5 3.4-8 5.2-12.6 5.2z" fill="#EE495C"/><path fill="#EE495C" d="M63.9 64.2H42.7l-8 8.1-8-8.1H5.5V5.8L0 .3v69.4h24.4L34.7 80 45 69.7h24.4z"/><path fill="#FFF" d="M0 .3l5.5 5.5h58.4v58.4l5.5 5.5V.3z"/></g></svg>
