<?xml version="1.0" encoding="utf-8"?>
<!-- Generator: Adobe Illustrator 19.2.1, SVG Export Plug-In . SVG Version: 6.00 Build 0)  -->
<svg version="1.1" id="Layer_1" xmlns="http://www.w3.org/2000/svg" xmlns:xlink="http://www.w3.org/1999/xlink" x="0px" y="0px"
	 viewBox="0 0 300 80" enable-background="new 0 0 300 80" xml:space="preserve">
<g>
	<path fill="#FFFFFF" d="M37.3,17.7c-4.8,0-9.2,1.9-12.6,5.2l6.1,6.1c1.7-1.7,4.1-2.7,6.5-2.7s4.8,1,6.5,2.7l6.1-6.1
		C46.5,19.6,42.1,17.7,37.3,17.7z"/>
	<path fill="#EE495C" d="M37.3,53.4c-4.6,0-9.1-1.7-12.6-5.2c-7-7-7-18.3,0-25.2l6.1,6.1c-3.6,3.6-3.6,9.4,0,13
		c3.6,3.6,9.4,3.6,13,0l6.1,6.1C46.4,51.6,41.9,53.4,37.3,53.4L37.3,53.4z"/>
	<polygon fill="#EE495C" points="63.9,64.2 42.7,64.2 34.7,72.3 26.7,64.2 5.5,64.2 5.5,5.8 0,0.3 0,69.7 24.4,69.7 34.7,80 
		45,69.7 69.4,69.7 	"/>
	<polygon fill="#FFFFFF" points="0,0.3 0,0.3 5.5,5.8 5.5,5.8 63.9,5.8 63.9,64.2 63.9,64.2 69.4,69.7 69.4,69.7 69.4,0.3 	"/>
	<path fill="#FFFFFF" d="M115.1,33.7v10.7h-2v-4.4h-4.3v4.4h-2V33.7h2v4.5h4.3v-4.5H115.1z"/>
	<path fill="#FFFFFF" d="M122.4,43.4c-0.5,0.7-1.5,1.1-2.2,1.1c-1.9,0-3.7-1.5-3.7-3.8c0-2.3,1.8-3.8,3.7-3.8c0.7,0,1.7,0.2,2.2,1.1
		v-0.9h1.9v7.2h-1.9V43.4z M120.4,42.7c1,0,2-0.7,2-2c0-1.3-1-2-2-2c-1,0-2,0.8-2,2C118.4,41.9,119.4,42.7,120.4,42.7z"/>
	<path fill="#FFFFFF" d="M129.5,37c1.2,0,2.3,0.5,3,1.4l-1.5,1.1c-0.3-0.5-0.9-0.7-1.5-0.7c-1.1,0-2,0.7-2,1.9c0,1.2,1,2,2,2
		c0.6,0,1.2-0.3,1.5-0.7l1.5,1.1c-0.7,0.9-1.8,1.4-3,1.4c-2.1,0-3.9-1.5-3.9-3.8C125.6,38.4,127.5,37,129.5,37z"/>
	<path fill="#FFFFFF" d="M135.6,41.3v3.1h-1.9V33.2h1.9v6.1l2-2.2h2.4l-3,3.2l3.7,4.1h-2.4L135.6,41.3z"/>
	<path fill="#FFFFFF" d="M150.6,33.6c3,0,5.4,2.4,5.4,5.5c0,3-2.4,5.5-5.4,5.5s-5.4-2.5-5.4-5.5C145.2,36,147.6,33.6,150.6,33.6z
		 M150.6,42.6c1.9,0,3.4-1.6,3.4-3.5s-1.5-3.5-3.4-3.5c-1.9,0-3.4,1.6-3.4,3.5S148.7,42.6,150.6,42.6z"/>
	<path fill="#FFFFFF" d="M159.5,44.4h-1.9v-7.2h1.9v1.7c0.4-1.3,1.2-1.9,2-1.9c0.5,0,0.9,0.1,1.2,0.3l-0.3,1.7
		c-0.4-0.2-0.9-0.2-1.1-0.2c-1.3,0-1.8,1.1-1.8,3.1V44.4z"/>
	<path fill="#FFFFFF" d="M170.6,41.4h-5.5c0.1,1,0.9,1.5,2,1.5c0.7,0,1.5-0.3,1.8-0.9c0.4,0.2,1,0.5,1.4,0.8c-0.7,1.2-2,1.7-3.4,1.7
		c-2.1,0-3.7-1.5-3.7-3.8c0-2.3,1.7-3.7,3.7-3.7c2.1,0,3.7,1.5,3.7,3.7C170.6,40.9,170.6,41.2,170.6,41.4z M168.8,40.1
		c-0.1-1-0.9-1.5-1.8-1.5c-1,0-1.8,0.6-1.9,1.5H168.8z"/>
	<path fill="#FFFFFF" d="M175.3,46.2c1.8,0,2.3-1.4,2.2-2.9c-0.4,0.7-1.4,1.1-2.3,1.1c-1.9,0-3.6-1.5-3.6-3.7c0-2.3,1.7-3.8,3.6-3.8
		c0.9,0,1.9,0.4,2.3,1.1v-1h1.8v6.2c0,3.2-1.5,4.6-4,4.6c-1.5,0-2.8-0.8-3.5-2.1c0.4-0.2,1.1-0.6,1.5-0.8
		C173.6,45.8,174.5,46.2,175.3,46.2z M175.4,38.8c-1.1,0-2,0.8-2,2c0,1.2,0.9,2,2,2c1,0,2-0.8,2-2C177.4,39.5,176.5,38.8,175.4,38.8
		z"/>
	<path fill="#FFFFFF" d="M180.7,40.7c0-2.3,1.7-3.7,3.8-3.7c2,0,3.8,1.5,3.8,3.7c0,2.3-1.7,3.8-3.8,3.8
		C182.4,44.5,180.7,43,180.7,40.7z M186.3,40.7c0-1.1-0.9-1.9-1.9-1.9c-1,0-1.9,0.7-1.9,1.9c0,1.2,0.9,1.9,1.9,1.9
		C185.5,42.7,186.3,41.9,186.3,40.7z"/>
	<path fill="#FFFFFF" d="M191.5,44.4h-1.9v-7.2h1.9v1.1c0.4-0.8,1.3-1.2,2.2-1.2c1.7,0,2.7,1.1,2.7,3.1v4.3c-0.3,0-1.6,0-1.9,0v-3.9
		c0-1.1-0.6-1.6-1.4-1.6c-0.9,0-1.6,0.4-1.6,1.7V44.4z"/>
	<path fill="#FFFFFF" d="M91.8,45.2V43c0-0.2-0.1-0.4-0.2-0.5c-0.1-0.1-0.3-0.2-0.5-0.2h-0.9v0.9h0.6c0.1,0,0.2,0.1,0.2,0.2v1.9
		c0,0.2,0.1,0.3,0.2,0.4c0.1,0.1,0.2,0.2,0.4,0.2h0V46h0c-0.2,0-0.3,0.1-0.4,0.2c-0.1,0.1-0.2,0.2-0.2,0.4v1.9
		c0,0.1-0.1,0.2-0.2,0.2h-0.6v0.9H91c0.2,0,0.4-0.1,0.5-0.2c0.1-0.1,0.2-0.3,0.2-0.5v-2.2c0-0.1,0.1-0.2,0.2-0.2h0.5v-1H92
		C91.8,45.4,91.8,45.3,91.8,45.2z"/>
	<path fill="#FFFFFF" d="M87.1,42.5c-0.1,0.1-0.2,0.3-0.2,0.5v2.2c0,0.1-0.1,0.2-0.2,0.2h-0.5v1h0.5c0.1,0,0.2,0.1,0.2,0.2v2.2
		c0,0.2,0.1,0.4,0.2,0.5c0.1,0.1,0.3,0.2,0.5,0.2h0.9v-0.9H88c-0.1,0-0.2-0.1-0.2-0.2v-1.9c0-0.2-0.1-0.3-0.2-0.4
		C87.6,46,87.4,46,87.3,46h0v-0.1h0c0.2,0,0.3-0.1,0.4-0.2c0.1-0.1,0.2-0.2,0.2-0.4v-1.9c0-0.1,0.1-0.2,0.2-0.2h0.6v-0.9h-0.9
		C87.4,42.3,87.3,42.3,87.1,42.5z"/>
	<path fill="#FFFFFF" d="M99.1,43.7l-1.4-2.6c-0.1-0.2-0.1-0.3,0.1-0.4l0.5-0.3l-0.6-1.3l-0.5,0.3c-0.2,0.1-0.3,0-0.4-0.1l-0.6-1.2
		l0.7-0.4c0.3-0.1,0.4-0.3,0.5-0.6c0.1-0.2,0.1-0.5-0.1-0.8L96,33.8c-0.1-0.2-0.1-0.3,0.1-0.4l0.5-0.3L96,31.9l-0.5,0.3
		c-0.2,0.1-0.3,0-0.4-0.1l-1.3-2.5c0.2-0.1,0.3-0.3,0.3-0.5c0.1-0.2,0.1-0.5-0.1-0.8l-1.4-2.6c-0.1-0.2-0.1-0.3,0.1-0.4l0.5-0.3
		l-0.6-1.3L92.2,24c-0.2,0.1-0.3,0-0.4-0.1l-1.4-2.6c0-0.1-0.1-0.2-0.2-0.2c-0.5-0.7-1.6-0.7-2,0.1c-0.1,0.2-0.2,0.4-0.2,0.4h0
		l-1.2,2.4c-0.1,0.2-0.2,0.2-0.4,0.1L86,23.8L85.3,25l0.5,0.3c0.2,0.1,0.2,0.2,0.1,0.4l-1.4,2.6c-0.1,0.3-0.2,0.5-0.1,0.8
		c0.1,0.2,0.2,0.3,0.3,0.5L83.6,32c-0.1,0.2-0.2,0.2-0.4,0.1l-0.5-0.3L82,33.1l0.5,0.3c0.2,0.1,0.2,0.2,0.1,0.4l-1.4,2.6
		c-0.1,0.3-0.2,0.5-0.1,0.8c0.1,0.3,0.3,0.4,0.5,0.6l0.7,0.4l-0.6,1.2c-0.1,0.2-0.2,0.2-0.4,0.1l-0.5-0.3l-0.6,1.3l0.5,0.3
		c0.2,0.1,0.2,0.2,0.1,0.4l-1.4,2.6c-0.1,0.3-0.2,0.5-0.1,0.8c0.1,0.3,0.3,0.4,0.5,0.6l1.1,0.6l0.5-1L81,44.2
		c-0.2-0.1-0.2-0.2-0.1-0.4l1.2-2.3c0.1-0.2,0.1-0.4,0.1-0.6c-0.1-0.2-0.2-0.3-0.4-0.4l-0.1,0l0.1-0.2l0.1,0
		c0.2,0.1,0.4,0.1,0.6,0.1c0.2-0.1,0.3-0.2,0.4-0.4l1.2-2.3c0.1-0.2,0.2-0.2,0.4-0.1l0.7,0.4l0.5-1l-1.1-0.6
		c-0.3-0.1-0.5-0.2-0.8-0.1c-0.2,0.1-0.4,0.3-0.6,0.5L83,37.1l-0.3-0.1c-0.2-0.1-0.2-0.2-0.1-0.4l1.2-2.3c0.1-0.2,0.1-0.4,0.1-0.6
		c-0.1-0.2-0.2-0.3-0.4-0.4l-0.1,0l0.1-0.2l0.1,0c0.2,0.1,0.4,0.1,0.6,0.1c0.2-0.1,0.3-0.2,0.4-0.4l1.2-2.3c0.1-0.2,0.2-0.2,0.4-0.1
		l0.7,0.4l0.5-1l-0.7-0.4l0,0L86,28.8c-0.2-0.1-0.2-0.2-0.1-0.4l1.2-2.3c0.1-0.2,0.1-0.4,0.1-0.6c-0.1-0.2-0.2-0.3-0.4-0.4l-0.1,0
		l0.1-0.2l0.1,0c0.2,0.1,0.4,0.1,0.6,0.1c0.2-0.1,0.3-0.2,0.4-0.4l1.2-2.3c0-0.1,0.1-0.1,0.1-0.2c0,0,0,0,0.1,0c0,0,0,0,0,0
		c0,0,0,0,0,0c0,0,0,0,0.1,0c0.1,0,0.1,0.1,0.1,0.2l1.2,2.3c0.1,0.2,0.2,0.3,0.4,0.4c0.2,0.1,0.4,0,0.6-0.1l0.1,0L92,25l-0.1,0
		c-0.2,0.1-0.3,0.3-0.4,0.4c-0.1,0.2,0,0.4,0.1,0.6l1.2,2.3c0.1,0.2,0.1,0.3-0.1,0.4L92,29.2l0,0l-0.7,0.4l0.5,1l0.7-0.4
		c0.2-0.1,0.3,0,0.4,0.1l1.2,2.3c0.1,0.2,0.2,0.3,0.4,0.4c0.2,0.1,0.4,0,0.6-0.1l0.1,0l0.1,0.2l-0.1,0c-0.2,0.1-0.3,0.3-0.4,0.4
		c-0.1,0.2,0,0.4,0.1,0.6l1.2,2.3c0.1,0.2,0.1,0.3-0.1,0.4l-0.3,0.1l-0.2-0.4c-0.1-0.3-0.3-0.4-0.6-0.5c-0.2-0.1-0.5-0.1-0.8,0.1
		L93,36.9l0.5,1l0.7-0.4c0.2-0.1,0.3,0,0.4,0.1l1.2,2.3c0.1,0.2,0.2,0.3,0.4,0.4c0.2,0.1,0.4,0,0.6-0.1l0.1,0l0.1,0.2l-0.1,0
		c-0.2,0.1-0.3,0.3-0.4,0.4c-0.1,0.2,0,0.4,0.1,0.6l1.2,2.3c0.1,0.2,0.1,0.3-0.1,0.4L97,44.6l0.5,1l1.1-0.6c0.3-0.1,0.4-0.3,0.5-0.6
		C99.3,44.2,99.2,44,99.1,43.7z"/>
	<path fill="#FFFFFF" d="M110.2,26.3c0.8,0.2,1.2,0.9,1.2,1.6c0,1-0.7,1.9-2,1.9h-2.7v-6.6h2.5c1.1,0,1.8,0.7,1.8,1.7
		C111,25.5,110.8,26.1,110.2,26.3z M109.2,25.9c0.5,0,0.8-0.4,0.8-0.9c0-0.5-0.3-0.8-0.9-0.8h-1.4v1.8H109.2z M107.7,26.8v2.1h1.6
		c0.6,0,1-0.5,1-1c0-0.5-0.4-1.1-1-1.1H107.7z"/>
	<path fill="#FFFFFF" d="M115.8,25.3h1v4.4h-1v-0.6c-0.3,0.5-0.9,0.7-1.3,0.7c-1.1,0-1.7-0.7-1.7-1.9v-2.6h1v2.5
		c0,0.7,0.4,1.1,0.9,1.1c0.6,0,1.1-0.3,1.1-1.2V25.3z"/>
	<path fill="#FFFFFF" d="M119,22.9c0.4,0,0.6,0.3,0.6,0.6c0,0.4-0.3,0.6-0.6,0.6c-0.4,0-0.7-0.3-0.7-0.6
		C118.4,23.2,118.7,22.9,119,22.9z M119.5,25.3h-1v4.4h1V25.3z"/>
	<path fill="#FFFFFF" d="M121.3,22.9h1v6.9h-1V22.9z"/>
	<path fill="#FFFFFF" d="M125.3,25.3h0.9v0.8h-0.9v3.6h-1v-3.6h-0.8v-0.8h0.8v-1.7h1V25.3z"/>
	<path fill="#FFFFFF" d="M133.8,26.3c0.8,0.2,1.2,0.9,1.2,1.6c0,1-0.7,1.9-2,1.9h-2.7v-6.6h2.5c1.1,0,1.8,0.7,1.8,1.7
		C134.7,25.5,134.5,26.1,133.8,26.3z M132.8,25.9c0.5,0,0.8-0.4,0.8-0.9c0-0.5-0.3-0.8-0.9-0.8h-1.4v1.8H132.8z M131.4,26.8v2.1h1.6
		c0.6,0,1-0.5,1-1c0-0.5-0.4-1.1-1-1.1H131.4z"/>
	<path fill="#FFFFFF" d="M137.7,32h-1l1-2.4l-1.8-4.2h1l1.2,3l1.2-3h1L137.7,32z"/>
</g>
</svg>
