<svg xmlns="http://www.w3.org/2000/svg" id="Layer_1" viewBox="0 0 700 700"><style/><switch><g><circle cx="350" cy="350" r="221.6" fill="#5e54a4"/><path fill="#fff" d="M280.6 431.6l-26 32.8 11.9 9.4 26-32.8 5.9 51 15.1-1.8-7.6-66 46.9-59.2 27.7 70.2-26.4 61.1 14 6 20.4-47.1 15.3 38.9 14.2-5.6-15.4-38.9 47.1 20.4 6-13.9-61-26.5-27.8-70.2 74.7 11.1 39.6 53.4 12.2-9.1-30.6-41.2 41.4 6.2 2.3-15.1-41.4-6.1 41.2-30.6-9.1-12.2-53.4 39.7-74.7-11.1 46.9-59.1 66.1-7.7-1.7-15.1-51 5.9 26-32.8-11.9-9.4-26 32.8-5.9-51-15.1 1.8 7.6 66-46.9 59.2-27.8-70.2 26.5-61.1-14-6-20.4 47.1-15.3-38.9-14.2 5.6 15.4 38.9-47.1-20.4-6 13.9 61 26.5 27.8 70.1-74.7-11-39.6-53.4-12.2 9.1 30.6 41.2-41.4-6.2-2.3 15.1 41.4 6.1-41.2 30.6 9.1 12.2 53.4-39.7 74.7 11.1-46.9 59.1-66.1 7.7 1.7 15.1z"/></g></switch></svg>