<svg xmlns="http://www.w3.org/2000/svg" id="Layer_1" viewBox="0 0 700 700"><style>.st4{fill:#00b6cf}.st7{fill:#fff;stroke:#fff;stroke-width:4;stroke-linecap:round;stroke-miterlimit:10}</style><switch><g><circle cx="357.4" cy="350" r="221.6" fill="#f78f1e"/><path d="M413.6 353.7c.4-1.3.8-2.7 1-4.1 2.7-15.2-7.4-29.8-22.6-32.5-6.3-1.1-12.7-.1-18.3 2.9-5.8-13.7-18.2-23.7-33-26.3-17.3-3.1-34.8 4.5-44.6 18.7-7.9-11.4-20-19.2-33.9-21.7-28.6-5.1-56 13.9-61.2 42.5-.3 1.4-.5 2.9-.6 4.3-.2 0-.4-.1-.6-.1-19.7-3.5-38.5 9.6-42.1 29.2-3.5 19.7 9.6 38.5 29.2 42.1 3.9.7 7.7.8 11.5.2 9 21.6 28.5 37.5 51.7 41.7 15.6 2.8 31.7.2 45.6-7.5 7.8 6.2 17.1 10.4 27 12.2 21.4 3.9 43-3.9 57.1-20.4 4.6 2.8 9.7 4.7 15.1 5.7 24.1 4.3 47.3-11.7 51.6-35.9 4.2-23.2-10.5-45.4-32.9-51zm-4.5 2.4c.3.1.6.1 1 .2-.4-.1-.7-.2-1.1-.2h.1z" fill="#4c4d4d"/><path class="st4" d="M498.1 244.8c-72.4-59.7-236.8 13.7-236.8 13.7l73.6 36.6s-11 22.1-16.9 35.1l45.9 22.5c15.4 7.5 16.6 29.1 2.1 38.3l-52.2 33.2c10.6 23.1 33.8 42.7 78.7 51.5 151.3 29.6 178-171.2 105.6-230.9z"/><ellipse transform="rotate(-48.3 394.166 283.328)" cx="394.1" cy="283.3" rx="18.6" ry="30.7" fill="#fff"/><circle cx="394.1" cy="283.3" r="5.7" fill="#1d2959"/><path transform="rotate(41.7 431.088 261.489)" class="st4" d="M394.3 248.5h73.6v26h-73.6z"/><path class="st7" d="M333.6 359l-50.3-19.7M284.4 409.1l48.1-31.7M322.7 369.1l-57.1.8"/></g></switch></svg>