<svg id="b6b2bf13-7d0d-497d-9eb8-1a9307121cc0" data-name="e73e879e-5b35-4b39-89ff-131efe4008b3" xmlns="http://www.w3.org/2000/svg" xmlns:xlink="http://www.w3.org/1999/xlink" viewBox="0 0 700 700"><defs><clipPath id="a60a2fcc-f452-4c5a-9f75-1a3b178da58f"><circle cx="350" cy="350" r="221.6" style="fill:none"/></clipPath></defs><title>hole-04</title><g style="clip-path:url(#a60a2fcc-f452-4c5a-9f75-1a3b178da58f)"><circle cx="350" cy="350" r="221.6" style="fill:#df1c4d"/></g><g style="clip-path:url(#a60a2fcc-f452-4c5a-9f75-1a3b178da58f)"><path d="M154.4,454.3a201.08,201.08,0,0,0,13.1,21.8,223,223,0,0,0,23.6,28.4,217.89,217.89,0,0,0,22,19.7A223.47,223.47,0,0,0,239,541.9c24.2-16.4,81.1-55.1,105.3-71.6q52.65-35.85,105.2-71.6l118.4-89.5c-.9-4.9-2.2-11-4.1-17.9a205.11,205.11,0,0,0-8.4-24.8,212.47,212.47,0,0,0-10.9-22.8c-3.4-6.1-6.6-11.3-9.2-15.3q-74.85,46.5-150.6,91.9Q270.4,388.7,154.4,454.3Z" style="fill:#010101"/></g><g style="clip-path:url(#a60a2fcc-f452-4c5a-9f75-1a3b178da58f)"><path d="M299.7,348.6c-11.3,3.9-34-1.6-44.1-4.9-12-3.9-23.5-10.8-30.9-21.4-3.9-5.7-8.4-14.4-5.6-21.2,3.9-9.8,15.3-9.5,23.9-9.8,9.8-.3,9.5-15.7-.4-15.4-22.4.7-44.6,10.2-38.5,37.1,3.8,16.8,16.1,29.6,31,38-8.5,1.6-21.4-.7-26.5-2.3-11-3.5-19.8-11.4-19.6-23.5.1-9.9-15.3-10.3-15.4-.4-.2,16.9,11.5,30.9,27.1,37.1,10.6,4.2,28.1,7.4,40.9,3.7-9.1,14.5-21.9,27.6-41.6,21.4-9.6-3-13.3,11.7-3.7,14.7,13.9,4.4,27.6,1.5,39.3-6,10.7-6.9,16.4-15.6,22.1-26,17.7,1.6,47.3-2.4,47.3-2.4,9.3-2.9,19.4-14,21.2-25.5,4-25.9-16.7-47.1-41.6-49.6-9.9-1-9.4,14.4.4,15.4,8.9.9,17.1,5.1,22.1,13.1,4.5,7.4,5.3,15.7,2.6,24.7" style="fill:#fdb615"/></g><g style="clip-path:url(#a60a2fcc-f452-4c5a-9f75-1a3b178da58f)"><path d="M293.3,369.1l3,133.4-30.8,22,5.9-155.6ZM444,248.6c-11.3,3.9-34-1.6-44.1-4.9-12-3.9-23.5-10.8-30.9-21.4-3.9-5.7-8.4-14.4-5.6-21.2,3.9-9.8,15.3-9.5,23.9-9.8,9.8-.3,9.5-15.7-.4-15.4-22.4.7-44.6,10.2-38.5,37.1,3.8,16.8,16.1,29.6,31,38-8.5,1.6-21.4-.7-26.5-2.3-11-3.5-19.8-11.4-19.6-23.5.1-9.9-15.3-10.3-15.4-.4-.2,16.9,11.5,30.9,27.1,37.1,10.6,4.2,28.1,7.4,40.9,3.7-9.1,14.5-21.9,27.6-41.6,21.4-9.6-3-13.3,11.7-3.7,14.7,13.9,4.4,27.6,1.5,39.3-6,10.7-6.9,16.4-15.6,22.1-26,17.7,1.6,47.3-2.4,47.3-2.4,9.3-2.9,19.4-14,21.2-25.5,4-25.9-16.7-47.1-41.6-49.6-9.9-1-9.4,14.4.4,15.4,8.9.9,17.1,5.1,22.1,13.1,4.5,7.4,5.3,15.7,2.6,24.7" style="fill:#fdb615"/></g><g style="clip-path:url(#a60a2fcc-f452-4c5a-9f75-1a3b178da58f)"><path d="M437.6,269.1l3,133.4-30.8,21.9,5.9-155.5Z" style="fill:#fdb615"/></g></svg>