<svg xmlns="http://www.w3.org/2000/svg" id="Layer_1" viewBox="115 128 444 444"><style>.st19{fill-rule:evenodd;clip-rule:evenodd;fill:#fdb615}</style><switch><g><circle cx="338.3" cy="350" r="221.6" fill="#df1c4d"/><path class="st19" d="M238.7 415.2c-92.1 124.4 210.6 34 65.8-12.5-13.7-36.8-62.1-30.5-65.8 12.5zM212.3 409.4c8.1-1.6 13.1-11.1 11.1-21.3-2-10.2-10.1-17.2-18.2-15.7-8.1 1.6-13.1 11.1-11.1 21.3 1.9 10.2 10.1 17.3 18.2 15.7zM241.9 374c9.5-1.8 15.1-14.4 12.5-28.2-2.6-13.7-12.5-23.4-22-21.6-9.5 1.8-15.1 14.4-12.5 28.2 2.6 13.8 12.4 23.4 22 21.6zM291.6 364.5c9.5-1.8 15.1-14.4 12.5-28.2-2.6-13.7-12.5-23.4-22-21.6-9.5 1.8-15.1 14.4-12.5 28.2 2.7 13.7 12.5 23.4 22 21.6zM325.5 349.4c-8.1 1.6-13.1 11.1-11.1 21.3 2 10.2 10.1 17.2 18.2 15.7 8.1-1.6 13.1-11.1 11.1-21.3-1.9-10.3-10.1-17.3-18.2-15.7z"/><path class="st19" d="M387.4 302.1c-92.1 124.4 210.6 34 65.8-12.5-13.8-36.9-62.1-30.6-65.8 12.5zM360.6 297c8.1-1.6 13.1-11.1 11.1-21.3-2-10.2-10.1-17.2-18.2-15.7-8.1 1.6-13.1 11.1-11.1 21.3 1.9 10.2 10.1 17.3 18.2 15.7zM390.2 261.6c9.5-1.8 15.1-14.4 12.5-28.2-2.6-13.7-12.5-23.4-22-21.6-9.5 1.8-15.1 14.4-12.5 28.2 2.6 13.8 12.4 23.4 22 21.6zM439.9 252.1c9.5-1.8 15.1-14.4 12.5-28.2-2.6-13.7-12.5-23.4-22-21.6-9.5 1.8-15.1 14.4-12.5 28.2 2.7 13.7 12.5 23.4 22 21.6zM473.8 236.9c-8.1 1.6-13.1 11.1-11.1 21.3 2 10.2 10.1 17.2 18.2 15.7 8.1-1.6 13.1-11.1 11.1-21.3-1.9-10.2-10.1-17.2-18.2-15.7z"/></g></switch></svg>