<svg xmlns="http://www.w3.org/2000/svg" xmlns:xlink="http://www.w3.org/1999/xlink" id="Layer_1" viewBox="135 127 444 444"><style/><switch><g><circle cx="357.4" cy="350" r="221.6" fill="#df1c4d"/><path d="M452.1 186.2s-45.8 26.5-57.2 33.5c-8.5 5.2-16.1 11-22.7 17.2-19.2 18-26.6 36.7-29.4 49.3-1.9 8.1-2.5 15.3-2.9 20.6-.1 1-.2 1.9-.2 2.8 0 .3 0 .6-.1.9l-99.2 68-.5-.1c-4.7-1.1-9.5-.3-13.6 2.2 0 0-11.7 7-19.7 12.2-8.5 5.5-2.7 27.2 8.6 46.5 12.5 21.3 31.6 39.8 41.2 33.8l19.7-12.2c4-2.5 6.9-6.6 8-11.2l.1-.5 104.9-58.8c2.3.9 5.3 2.1 7 2.7 9.7 3.8 22.9 8 39.6 7.5 18.8-.5 38.5-7 58.5-19.3 1.2-.8 2.1-1.9 2.6-3.3l13.1-49.6-44.2 2.8 39.7-33.3-27.3-13 6.6-16.6-24-4.8 25.4-35.6-30.9-2-3.1-39.7zM245.4 424.3c10.9 17.9 15 35.4 9.2 38.9-5.8 3.5-19.4-8.1-30.3-26.1-10.9-18-15-35.4-9.2-38.9 5.8-3.5 19.4 8.2 30.3 26.1zM483 372.4c1.1 2 .4 4.6-1.6 5.7-15.7 8.9-30.9 13.6-45.3 13.9-13.7.4-24.3-3-33-6.4l-.5-.2c-1.8-.7-4.6-1.8-6.8-2.7l-7.3-2.7-98.7 55.4c-2 1.1-4.6.4-5.7-1.6-1-1.7-.6-3.8.8-5.1.2-.2.5-.4.8-.6l104-56.6 9.2 3.4c2.2.8 5.1 2 7 2.7l.5.2c7.8 3 17.5 6.1 29.7 5.8 13-.3 26.9-4.6 41.4-12.8 1.8-1.2 4.4-.5 5.5 1.6z" fill="#b1e1eb"/><defs><path id="SVGID_1_" d="M230.4 405.1l71.2 17.4 207.8-173.9-25.6-75.1L233 389.8z"/></defs><clipPath id="SVGID_2_"><use xlink:href="#SVGID_1_" overflow="visible"/></clipPath><path clip-path="url(#SVGID_2_)" fill="#fff" d="M345.6 331.8l143.8-67.4-241.6 158.2-7.6-9z"/></g></switch></svg>