<svg xmlns="http://www.w3.org/2000/svg" xmlns:xlink="http://www.w3.org/1999/xlink" id="Layer_1" viewBox="110 128 444 444"><style>.st1{fill:#5e54a4}.st2{fill:#df1c4d}.st4{fill:#00b6cf}</style><switch><g><circle cx="333.6" cy="351.4" r="221.6" fill="#f78f1e"/><ellipse transform="rotate(-57.289 391.536 410.549)" class="st2" cx="391.5" cy="410.5" rx="13.8" ry="56.8"/><path class="st1" d="M220.2 220.9c81.2-52.1 166.4-30 238.3-8.6 28.6 8.5 32 47.6 5.3 60.8l-28.4 14.1s14.6 29.2 22.3 46.3l-60.6 29.7c-20.4 10-22 38.4-2.8 50.5l68.9 43.8c-13.9 30.5-44.6 56.3-103.9 68C159.9 564.6 116 287.8 220.2 220.9z"/><ellipse transform="rotate(-41.7 357.373 271.772)" cx="357.4" cy="271.8" rx="40.5" ry="24.5" fill="#fff"/><circle cx="357.4" cy="271.8" r="7.5" fill="#1d2959"/><path transform="scale(-1) rotate(-41.7 -673.019 897.03)" class="st1" d="M293.1 239.2h97.1v34.3h-97.1z"/><path class="st2" d="M375.7 485.8c-7.3-7.8-6.8-19.9 1-27.1l31.4-28.7c7.9-7.2 20.2-6.8 27.5 1 7.3 7.8 6.8 19.9-1 27.1l-31.4 28.7c-7.9 7.2-20.2 6.7-27.5-1z"/><ellipse class="st4" cx="475.6" cy="385.5" rx="41.5" ry="44.5"/><path class="st4" d="M529.9 319.7l-12.7 67.4-48.1-45.6z"/><path fill="none" d="M-352.4 136.9h1359.9V644H-352.4z"/><g><defs><circle id="SVGID_3_" cx="-422" cy="350" r="221.6"/></defs><clipPath id="SVGID_2_"><use xlink:href="#SVGID_3_" overflow="visible"/></clipPath><g clip-path="url(#SVGID_2_)"><path d="M137.6 50.7l-139 10.1S-305.6 315-963.8 631.5l319.9-14.2 321.4-218.7L137.6 50.7z" fill="#010101"/></g></g></g></switch></svg>