<svg width="74" height="428" viewBox="0 0 74 428" xmlns="http://www.w3.org/2000/svg"><g fill="none" fill-rule="evenodd"><path d="M35.5 2.5v158M35.5 267.5v158" stroke="#EE495C" stroke-width="4" stroke-linecap="square"/><g fill="#EE495C" fill-rule="nonzero"><path d="M42.7075484 175.43683871c-1.7318387-.27212903-3.4863549.23154839-4.8159678 1.3713871-.679129.58125806-1.2066774 1.29977419-1.5623548 2.09587096C34.5890323 176.54206452 31.7973226 175 28.6451613 175c-3.528129 0-6.6074839 1.92758065-8.2605484 4.78135484-.0310323-.00119355-.0632581-.00716129-.0942903-.00716129-5.1871613 0-9.4123226 4.15951613-9.5364516 9.31683875-1.65545165.9572258-2.88958068 2.5553871-3.36819358 4.4543225-3.66896774 1.3880968-6.19212903 4.9400968-6.19212903 8.9062581 0 1.4740323.34493548 2.9265806 1.00496774 4.2478387C.7746129 208.5661613 0 210.8410645 0 213.1935484c0 2.751129 1.06464516 5.3840968 2.93732258 7.3701613-.35209677 1.062258-.55022581 2.1937419-.55022581 3.3717742 0 5.304129 3.89096775 9.8061935 9.09722583 10.6070645.9858709 2.1865806 2.886 3.8790322 5.2695161 4.5700968C17.1906774 244.6363871 21.816871 249 27.4516129 249c3.5615484 0 6.7149032-1.7497419 8.6699355-4.426871.3401613 1.0037742.9452903 1.910871 1.7700322 2.6174516 1.0944839.9381291 2.4766129 1.443 3.8969355 1.443.3055484 0 .6134839-.0238709.9202258-.0716129C60.8399355 245.7547419 74 230.3770645 74 212c0-18.3770645-13.1600645-33.75474194-31.2924516-36.56316129zM27.4516129 246.6129032c-4.6059032 0-8.3548387-3.7489355-8.3548387-8.3548387s3.7489355-8.3548387 8.3548387-8.3548387v-2.3870968c-5.3626129 0-9.8061935 3.9530323-10.6022903 9.0960323-2.2116452-.8939678-3.7202903-3.0363871-3.7202903-5.5153871 0-3.2906129 2.677129-5.9677419 5.9677419-5.9677419v-2.3870968c-4.6059032 0-8.3548387 3.7489355-8.3548387 8.3548387 0 .2888387.0179032.5729032.0465484.8545806-3.50425809-1.0204838-6.01429035-4.2585806-6.01429035-8.0158709 0-4.6059033 3.74893548-8.3548387 8.35483875-8.3548387v-2.3870968c-3.81458069 0-7.16248391 2.0039677-9.06858069 5.0093226-1.07538709-1.4346452-1.67335484-3.1891613-1.67335484-5.0093226 0-2.0505161.76029033-4.0270323 2.13883871-5.5667097l.5943871-.6648064-.46906452-.7590968c-.69941935-1.1350645-1.0706129-2.4324516-1.0706129-3.7513226 0-2.6007419 1.45016129-4.9639677 3.64987097-6.216.46548387 3.5030645 3.46367737 6.216 7.09206447 6.216v-2.3870968c-2.6329677 0-4.7741935-2.1412258-4.7741935-4.7741935 0-2.6329678 2.1412258-4.7741936 4.7741935-4.7741936 2.6329678 0 4.7741936 2.1412258 4.7741936 4.7741936h2.3870968c0-3.9494516-3.2118387-7.1612903-7.1612904-7.1612903-.3747741 0-.74.0381935-1.1004516.0930967.4869678-3.1354516 3.0089355-5.60132255 6.1730323-5.99877416-.1873871.74596774-.2983871 1.52177419-.2983871 2.32503226 0 5.2647419 4.2836452 9.5483871 9.5483871 9.5483871v-2.3870968c-3.9494516 0-7.1612903-3.2118387-7.1612903-7.1612903 0-3.94945162 3.2118387-7.16129033 7.1612903-7.16129033s7.1612903 3.21183871 7.1612903 7.16129033v53.7096774c0 4.6059032-3.7489355 8.3548387-8.3548387 8.3548387zm14.8907097-.4093871c-1.0383871.1659033-2.0982581-.1396451-2.896742-.8247419-.7960967-.6815161-1.2520322-1.6733548-1.2520322-2.7189032v-61.31974197c0-1.04674193.4559355-2.03738709 1.2520322-2.71890322.6576452-.56454839 1.4895484-.86890323 2.3441291-.86890323.1838064 0 .3688064.01432258.5526129.04296774C59.0293226 180.38051613 71.6129032 195.0850323 71.6129032 212c0 16.9149677-12.5835806 31.6194839-29.2705806 34.2035161z"/><path d="M49 203.4V195h-2.2857143v8.4c0 .6624-.512 1.2-1.1428571 1.2H41v2.4h4.5714286C47.4617143 207 49 205.3848 49 203.4zM47.5 193c1.9296667 0 3.5-1.5703333 3.5-3.5s-1.5703333-3.5-3.5-3.5-3.5 1.5703333-3.5 3.5 1.5703333 3.5 3.5 3.5zm0-4.6666667c.644 0 1.1666667.5226667 1.1666667 1.1666667 0 .644-.5226667 1.1666667-1.1666667 1.1666667-.644 0-1.1666667-.5226667-1.1666667-1.1666667 0-.644.5226667-1.1666667 1.1666667-1.1666667zM46.7142857 220.6v8.4H49v-8.4c0-1.9848-1.5382857-3.6-3.4285714-3.6H41v2.4h4.5714286c.6308571 0 1.1428571.5376 1.1428571 1.2zM47.5 231c-1.9296667 0-3.5 1.5703333-3.5 3.5s1.5703333 3.5 3.5 3.5 3.5-1.5703333 3.5-3.5-1.5703333-3.5-3.5-3.5zm0 4.6666667c-.644 0-1.1666667-.5226667-1.1666667-1.1666667 0-.644.5226667-1.1666667 1.1666667-1.1666667.644 0 1.1666667.5226667 1.1666667 1.1666667 0 .644-.5226667 1.1666667-1.1666667 1.1666667zM56.6 207.75c0 2.0675-1.6152 3.75-3.6 3.75H41v2.5h12c3.3084 0 6-2.80375 6-6.25V204h-2.4v3.75zM57.5 194c-1.9296667 0-3.5 1.5703333-3.5 3.5s1.5703333 3.5 3.5 3.5 3.5-1.5703333 3.5-3.5-1.5703333-3.5-3.5-3.5zm0 4.6666667c-.644 0-1.1666667-.5226667-1.1666667-1.1666667 0-.644.5226667-1.1666667 1.1666667-1.1666667.644 0 1.1666667.5226667 1.1666667 1.1666667 0 .644-.5226667 1.1666667-1.1666667 1.1666667zM56 217h2v12h-2zM62 200h2v19h-2zM29 183h2v2h-2zM23 211h2v2h-2zM30 237h2v2h-2zM10 219h2v2h-2zM31 202h2v2h-2zM8 205h2v2H8z"/></g></g></svg>