<?xml version="1.0" encoding="UTF-8"?>
<svg width="49px" height="80px" viewBox="0 0 49 80" version="1.1" xmlns="http://www.w3.org/2000/svg" xmlns:xlink="http://www.w3.org/1999/xlink">
    <!-- Generator: Sketch 43.2 (39069) - http://www.bohemiancoding.com/sketch -->
    <title>arrow-left</title>
    <desc>Created with Sketch.</desc>
    <defs></defs>
    <g id="Desktop" stroke="none" stroke-width="1" fill="none" fill-rule="evenodd">
        <g id="desktop/h11/women" transform="translate(-60.000000, -774.000000)" fill="#4A4A4A">
            <path d="M123.4711,798.196704 L86.3356114,837.430592 C85.8544317,837.9389 85.1371176,838.273066 84.5,838.273066 C83.8628824,838.273066 83.1455683,837.9389 82.6643886,837.430592 L45.5289001,798.196704 C45.0477204,797.688396 44.726934,796.935346 44.726934,796.262308 C44.726934,795.584563 45.0477204,794.831514 45.5289001,794.323205 L49.5075433,790.11554 C49.988723,789.607232 50.630296,789.273066 51.3431548,789.273066 C51.9847277,789.273066 52.6975865,789.607232 53.1787662,790.11554 L84.5,823.20266 L115.821234,790.11554 C116.302414,789.607232 117.015272,789.273066 117.656845,789.273066 C118.293963,789.273066 119.011277,789.607232 119.492457,790.11554 L123.4711,794.323205 C123.95228,794.831514 124.273066,795.584563 124.273066,796.262308 C124.273066,796.935346 123.95228,797.688396 123.4711,798.196704" id="arrow-left" transform="translate(84.500000, 813.773066) scale(1, -1) rotate(90.000000) translate(-84.500000, -813.773066) "></path>
        </g>
    </g>
</svg>