<?xml version="1.0" encoding="UTF-8"?>
<svg width="48px" height="95px" viewBox="0 0 48 95" version="1.1" xmlns="http://www.w3.org/2000/svg" xmlns:xlink="http://www.w3.org/1999/xlink">
    <!-- Generator: Sketch 43.1 (39012) - http://www.bohemiancoding.com/sketch -->
    <title>Downtown/Old Town/ Pearl</title>
    <desc>Created with Sketch.</desc>
    <defs></defs>
    <g id="Symbols" stroke="none" stroke-width="1" fill="none" fill-rule="evenodd">
        <g id="Downtown/Old-Town/-Pearl" stroke-width="3" stroke="#FFFFFF" fill="#75568D">
            <polygon id="Fill-7" points="17.5489625 0.508724558 17.8066982 0.764164643 18.3232617 1.2728892 18.5809975 1.78269157 18.8387332 2.29141612 19.6130324 2.80121849 19.8707681 3.05558077 20.1295959 3.05558077 20.3873316 3.31102085 20.9038952 3.56538313 21.1616309 3.81974541 21.4193666 3.81974541 21.6771023 4.32954778 22.4514015 4.83827233 23.7422643 5.85787706 24.7742992 6.62204171 26.065162 7.64056863 27.0971969 7.89493091 27.3549327 8.15037099 27.6126684 8.40473327 27.8714962 8.65909555 27.8714962 9.16889791 28.1292319 9.42326019 28.3869676 9.67762247 28.6457954 9.93306256 28.9035311 9.93306256 29.1612668 10.4417871 29.4190025 10.9515895 29.6778304 11.2059518 29.9355661 11.9701164 30.1933018 12.2244787 30.1933018 12.734281 30.4521296 13.2440834 30.967601 14.2626103 31.2264288 14.7713349 31.4841645 15.026775 31.7419003 15.5354995 32.0007281 16.0453019 32.2584638 16.2996642 32.5161995 16.5551043 32.5161995 17.0638288 32.7739352 17.0638288 33.032763 17.0638288 33.2904987 17.3192689 33.5482344 17.5736312 33.8070622 18.0834336 34.064798 18.3377958 34.064798 18.8465204 34.3225337 19.1019605 34.3225337 19.610685 34.5813615 19.610685 34.8390972 20.3748497 35.0968329 20.884652 35.6133964 22.1575412 36.1288679 22.6673436 36.3876957 23.4315082 36.9031671 24.1956729 37.4197306 24.9598375 37.935202 25.4685621 38.1940299 25.9783645 38.7095013 26.4881668 39.4838005 27.2523315 39.7426283 27.5066937 39.4838005 27.761056 41.8066982 30.3079122 42.0644339 30.05355 42.5809975 30.3079122 43.097561 30.8177146 43.3552967 31.3264392 43.8707681 32.0906038 44.6450673 32.6004062 45.6781944 33.6189331 45.9359301 33.6189331 46.7102293 34.63746 46.9679651 35.1472624 47.4845286 36.4212294 47.4845286 36.9299539 47.4845286 37.4397563 47.7422643 37.9484809 47.7422643 38.4582832 47.7422643 39.9866125 47.7422643 40.7507772 47.7422643 41.2595017 48 41.5149418 48 42.2791064 47.7422643 43.0432711 47.7422643 43.8074357 47.4845286 44.3161603 47.2257008 45.0803249 47.2257008 46.0988519 46.9679651 46.3542919 46.7102293 46.8630165 46.4514015 47.1184566 46.4514015 47.8815434 46.4514015 48.6457081 45.9359301 51.1925643 45.6781944 51.9567289 45.4193666 52.4665313 45.4193666 53.2306959 45.1616309 53.7404983 45.4193666 53.9948606 45.4193666 54.5035851 45.1616309 54.7590252 45.1616309 55.2677498 45.1616309 55.7775521 44.9038952 56.2873545 44.6450673 56.5417168 44.3873316 57.3058814 44.3873316 57.814606 44.1295959 58.0700461 43.8707681 58.3244083 44.1295959 58.8342107 43.8707681 59.088573 43.8707681 59.5983753 43.6130324 59.8527376 43.6130324 60.36254 43.3552967 60.8712646 43.3552967 61.6354292 43.097561 62.9093962 42.8387332 64.4366477 42.3232617 66.2204171 41.8066982 68.5118332 41.5489625 69.0216355 41.5489625 69.7858002 41.5489625 70.2956026 41.2901347 70.5499648 41.2901347 71.0586894 41.2901347 71.5684918 41.2901347 72.0782941 41.2901347 72.5870187 41.2901347 73.096821 41.2901347 73.6066234 41.2901347 74.115348 41.5489625 74.6251503 41.8066982 75.1338749 41.8066982 75.6436772 42.0644339 76.1534796 42.0644339 76.6622042 42.0644339 77.1720065 42.0644339 77.6807311 42.0644339 78.4448957 42.3232617 78.9546981 42.5809975 79.7188627 42.8387332 80.2286651 42.8387332 80.7373897 42.8387332 81.247192 43.097561 81.5015543 43.3552967 82.5200812 43.3552967 83.0298836 43.6130324 83.2842459 43.8707681 84.0484105 43.6130324 84.3027728 42.8387332 84.8125752 36.1288679 90.4160899 34.064798 92.1987815 32.7739352 93.4716707 32.5161995 93.7271108 32.0007281 93.9814731 31.4841645 94.4912754 30.7098653 94.7456377 30.1933018 95 29.6778304 95 29.4190025 95 28.9035311 95 28.3869676 95 27.8714962 95 27.6126684 95 27.3549327 95 26.8383691 95 26.5806334 95 26.3228977 95 25.8063342 94.7456377 22.9679651 94.2358354 22.7102293 94.2358354 22.4514015 94.2358354 20.6450673 93.9814731 19.6130324 93.7271108 18.5809975 93.4716707 17.8066982 93.4716707 17.032399 93.2173084 16.7746633 92.9629462 16.5158355 92.9629462 15.7415362 92.7085839 15.4838005 92.4531438 14.9683291 91.9444192 14.1940299 91.4346169 12.3876957 90.1606499 11.0968329 88.6333984 10.5802694 88.3779583 9.80706225 87.6137937 7.99963597 85.5767398 7.48416454 85.0669374 5.41900255 83.0298836 3.61266837 81.247192 3.09719694 80.4830274 2.58063342 79.7188627 2.06406989 78.9546981 1.54859847 77.9361712 0.774299236 75.8980395 0.257735712 74.6251503 0 73.3511833 0 72.8424588 0 72.3326564 0 71.822854 0 71.0586894 0 70.5499648 0.257735712 69.5314379 0.257735712 69.0216355 1.03203495 67.238944 1.29086276 66.2204171 1.80633418 65.2008123 2.58063342 63.1637585 3.35493265 61.3810669 4.90353112 57.5602437 5.67783036 56.0319144 6.19330178 54.5035851 6.96760102 52.212169 7.22642883 51.9567289 7.74190025 50.4294774 7.99963597 49.9196751 7.99963597 48.9011481 7.99963597 48.3913458 7.99963597 47.6271811 7.74190025 46.0988519 7.48416454 45.3346872 6.70986531 43.2976334 6.4521296 42.5334687 6.19330178 41.5149418 6.19330178 41.0051394 6.19330178 40.2409748 5.93556607 39.4768101 5.93556607 35.911427 5.93556607 35.4016247 5.93556607 30.3079122 5.93556607 29.5437476 5.93556607 27.5066937 5.93556607 25.7240022 5.93556607 23.6858705 5.93556607 21.6488167 5.93556607 19.8661251 5.93556607 17.8279935 5.93556607 15.7909396 5.93556607 15.2811373 6.19330178 14.7713349 6.19330178 14.2626103 6.4521296 13.752808 7.22642883 11.7157541 7.74190025 11.2059518 8.7739352 10.1874248 9.29049873 9.42326019 9.80706225 8.91345783 13.935202 4.32954778 16.5158355 0.508724558 17.032399 0"></polygon>
        </g>
    </g>
</svg>