<?xml version="1.0" encoding="UTF-8"?>
<svg width="251px" height="277px" viewBox="0 0 251 277" version="1.1" xmlns="http://www.w3.org/2000/svg" xmlns:xlink="http://www.w3.org/1999/xlink">
    <!-- Generator: Sketch 43.1 (39012) - http://www.bohemiancoding.com/sketch -->
    <title>Gresham</title>
    <desc>Created with Sketch.</desc>
    <defs></defs>
    <g id="Symbols" stroke="none" stroke-width="1" fill="none" fill-rule="evenodd">
        <g id="Gresham" stroke-width="3" stroke="#FFFFFF" fill="#75568D">
            <g id="gresham">
                <path d="M46.5192998,0 L55.4657766,1.53196253 L58.5323057,2.04189646 L65.9449771,3.31889202 L66.9671535,3.31889202 L75.9136303,3.82990632 L75.9136303,5.61683581 L75.9136303,8.16974656 L75.9136303,8.42471353 L76.168904,8.42471353 L76.4241777,8.42471353 L76.680533,8.42471353 L76.9358067,8.42471353 L77.1910803,8.42471353 L77.4474357,8.42471353 L77.7027093,8.42471353 L77.957983,8.42471353 L77.957983,8.16974656 L78.2132567,8.16974656 L78.469612,8.16974656 L78.7248857,8.16974656 L78.469612,9.44566175 L77.4474357,9.70170909 L77.1910803,9.70170909 L76.9358067,9.70170909 L76.680533,9.70170909 L76.4241777,9.70170909 L76.4241777,10.211643 L76.4241777,11.7436055 L76.4241777,12.2546198 L76.4241777,12.5095868 L76.4241777,12.7645538 L76.4241777,13.0206011 L76.680533,13.530535 L76.9358067,13.7865824 L77.1910803,14.2965163 L77.4474357,14.5525636 L77.7027093,14.8075306 L79.2365147,16.3394931 L79.4917884,16.5944601 L80.0034174,17.1054744 L80.2586911,17.3604414 L80.5139647,17.6154083 L82.3030438,20.4243664 L82.5593991,20.6793334 L82.3030438,21.1903477 L81.5361411,22.7212298 L81.0255937,24.7642067 L80.7692384,25.0191736 L80.5139647,25.7851549 L80.2586911,26.8061031 L80.2586911,27.8281317 L80.2586911,30.3810425 L80.2586911,30.8909764 L79.747062,31.1470237 L78.9801594,31.1470237 L78.2132567,31.1470237 L78.2132567,31.4019907 L78.2132567,31.6569577 L80.2586911,31.6569577 L81.5361411,31.6569577 L81.7924964,31.6569577 L82.0477701,31.6569577 L82.0477701,31.9119246 L82.0477701,32.4229389 L82.0477701,33.1889202 L82.0477701,33.6999345 L82.0477701,34.2098684 L81.7924964,34.7208827 L81.7924964,35.2308166 L81.7924964,35.7418309 L81.7924964,36.2528452 L81.7924964,36.5078122 L82.0477701,36.5078122 L82.3030438,36.5078122 L82.3030438,36.7627792 L82.5593991,36.7627792 L83.0699464,36.7627792 L83.8368491,37.0188265 L86.3928308,38.0397747 L86.3928308,38.805756 L86.1375572,45.44354 L86.1375572,45.698507 L87.1597335,45.953474 L87.6713625,46.2095213 L88.1819099,46.2095213 L87.9266362,48.5063847 L89.4604415,48.5063847 L89.4604415,50.2943946 L89.2040862,52.336291 L87.9266362,52.0813241 L87.9266362,53.3572392 L87.9266362,53.8682535 L87.6713625,55.4002161 L87.6713625,55.91015 L87.6713625,57.1871456 L87.6713625,58.4630608 L87.6713625,58.7191081 L87.6713625,59.229042 L87.6713625,59.7400563 L87.1597335,59.4850894 L86.6481045,59.4850894 L84.8590255,59.229042 L84.3484781,58.9740751 L82.0477701,58.4630608 L81.5361411,58.4630608 L81.2808674,62.2929671 L81.2808674,62.547934 L81.2808674,63.5699626 L81.2808674,63.8249296 L81.2808674,64.0798966 L81.2808674,64.5909109 L81.2808674,65.3568921 L81.2808674,65.8668261 L81.2808674,66.6328073 L81.2808674,66.8888547 L81.2808674,67.3987886 L81.2808674,67.6537555 L81.2808674,67.9098029 L81.2808674,69.1857181 L81.0255937,69.1857181 L81.0255937,69.9516993 L81.2808674,69.9516993 L81.5361411,69.9516993 L81.5361411,70.2077467 L81.5361411,70.4627136 L81.5361411,70.7176806 L81.5361411,70.9726476 L81.5361411,71.2286949 L81.5361411,71.4836619 L81.5361411,71.7386288 L81.5361411,72.2496431 L81.5361411,72.5046101 L81.5361411,72.7606574 L81.5361411,73.0156244 L81.5361411,73.2705914 L81.5361411,73.7816057 L81.2808674,75.0575208 L81.2808674,75.8235021 L81.2808674,76.0795494 L81.5361411,76.0795494 L81.5361411,76.5894834 L81.5361411,76.8455307 L81.2808674,78.6324602 L81.2808674,79.9083754 L81.2808674,80.1644227 L81.2808674,83.9932487 L81.2808674,85.0141969 L81.2808674,85.5252112 L81.2808674,85.7801782 L81.2808674,86.0362255 L81.2808674,86.5461594 L81.2808674,86.8022068 L81.2808674,87.0571737 L81.2808674,87.3121407 L81.0255937,87.5671077 L81.0255937,88.078122 L81.0255937,88.3330889 L81.0255937,88.5891363 L81.2808674,88.5891363 L81.2808674,88.8441032 L81.2808674,89.0990702 L81.2808674,89.3551175 L81.2808674,89.6100845 L81.0255937,89.6100845 L81.0255937,89.8650514 L81.2808674,90.3760657 L81.5361411,90.8859997 L81.7924964,90.8859997 L82.5593991,90.8859997 L83.3252201,90.8859997 L83.3252201,90.3760657 L84.0921228,90.3760657 L84.8590255,90.3760657 L85.3706545,90.3760657 L85.8822835,90.3760657 L85.8822835,90.8859997 L85.8822835,91.6519809 L85.8822835,91.9080283 L85.8822835,92.4179622 L85.8822835,92.9289765 L85.3706545,92.9289765 L84.8590255,92.9289765 L84.8590255,93.6949578 L84.8590255,94.715906 L84.8590255,94.970873 L85.8822835,94.460939 L85.8822835,94.715906 L86.1375572,94.460939 L89.4604415,93.4399908 L89.7157152,93.1839435 L89.9709889,93.1839435 L90.2273442,93.1839435 L90.4826179,92.9289765 L90.7378916,92.9289765 L90.9942469,92.9289765 L91.2495206,92.6740095 L91.5047942,92.6740095 L91.7600679,92.6740095 L92.0164233,92.6740095 L92.2716969,92.6740095 L92.5269706,92.6740095 L92.7833259,92.6740095 L92.7833259,92.4179622 L93.0385996,92.4179622 L93.2938733,92.4179622 L93.5502286,92.4179622 L93.8055023,92.4179622 L96.6167577,92.6740095 L98.150563,92.6740095 L106.073782,92.9289765 L108.119216,92.9289765 L108.629764,92.9289765 L116.809338,93.1839435 L117.320967,93.1839435 L118.087869,93.1839435 L118.598417,93.1839435 L120.899125,93.1839435 L121.154398,93.1839435 L121.666027,93.1839435 L124.732556,93.1839435 L124.988912,93.1839435 L125.244185,93.1839435 L125.499459,93.1839435 L135.468112,93.6949578 L135.979741,93.6949578 L139.302626,93.6949578 L142.62551,93.9499247 L145.181492,93.9499247 L145.436766,93.9499247 L147.737474,93.9499247 L149.526553,94.2048917 L155.915966,94.2048917 L158.471948,94.460939 L160.517382,94.460939 L162.051187,94.460939 L162.306461,94.460939 L163.328637,94.460939 L164.350814,94.460939 L164.607169,94.460939 L164.862443,94.460939 L164.862443,94.715906 L164.862443,101.098723 L164.607169,103.906601 L164.862443,103.906601 L165.117717,103.906601 L165.37299,103.906601 L165.629346,103.906601 L165.884619,103.906601 L166.396248,103.906601 L166.651522,103.906601 L166.906796,103.906601 L167.418425,103.906601 L167.928972,103.906601 L168.185327,103.906601 L168.440601,103.906601 L168.695875,103.906601 L168.95223,103.906601 L169.207504,103.906601 L169.462777,103.906601 L169.719133,103.906601 L170.22968,103.906601 L170.486035,103.906601 L171.251856,103.906601 L171.763485,103.906601 L172.018759,103.906601 L172.530388,104.161568 L173.042017,104.161568 L173.297291,104.161568 L173.297291,104.672582 L173.297291,104.927549 L173.042017,104.927549 L172.785662,104.927549 L172.785662,105.183596 L172.785662,105.438563 L172.785662,105.69353 L172.785662,105.949578 L172.785662,106.715559 L172.785662,106.970526 L172.785662,107.225493 L172.785662,107.991474 L172.018759,107.991474 L171.763485,107.991474 L170.996583,107.736507 L170.741309,107.736507 L170.22968,107.736507 L169.719133,107.736507 L169.719133,107.991474 L169.719133,108.246441 L169.719133,109.012422 L169.719133,109.523437 L169.719133,110.799352 L169.719133,111.310366 L169.462777,112.076347 L169.462777,112.331314 L169.462777,113.097296 L169.462777,113.353343 L169.462777,113.60831 L169.462777,113.863277 L169.462777,114.118244 L169.462777,114.374291 L169.462777,114.884225 L169.462777,115.140272 L169.462777,115.395239 L169.462777,115.650206 L169.462777,115.906254 L169.462777,116.927202 L169.462777,118.203117 L169.462777,118.459164 L170.486035,118.459164 L172.018759,118.459164 L173.552564,118.459164 L178.664528,118.714131 L178.919801,118.714131 L183.265944,118.714131 L184.28812,118.969098 L187.611005,118.969098 L189.910631,118.969098 L190.166986,118.969098 L192.466613,119.225146 L192.722968,119.225146 L192.978242,119.225146 L192.978242,119.480113 L193.233515,119.480113 L193.489871,119.480113 L193.745144,119.480113 L194.000418,119.480113 L194.256773,119.480113 L194.512047,119.480113 L194.512047,119.73508 L194.767321,119.73508 L195.023676,119.73508 L195.27895,119.73508 L196.301126,119.73508 L196.301126,119.991127 L197.323302,119.991127 L197.579658,119.991127 L197.834931,119.991127 L197.834931,120.246094 L198.090205,120.246094 L198.345479,120.246094 L198.601834,120.246094 L198.857108,120.246094 L199.112381,120.246094 L199.368737,120.246094 L199.62401,120.246094 L199.879284,120.246094 L200.135639,120.246094 L200.390913,120.246094 L200.646187,120.246094 L200.90146,120.246094 L201.157816,120.246094 L201.668363,120.246094 L202.435266,120.246094 L204.735974,119.991127 L204.991248,119.991127 L205.247603,119.991127 L205.502877,119.991127 L205.75815,119.991127 L206.014506,119.991127 L206.269779,119.991127 L210.359566,120.246094 L210.103211,121.522009 L208.058858,123.819953 L206.014506,125.096948 L205.502877,126.372864 L204.991248,127.649859 L204.991248,127.904826 L204.735974,127.904826 L204.735974,128.159793 L204.735974,128.41584 L204.4807,128.41584 L204.4807,128.670807 L204.224345,128.670807 L204.224345,128.925774 L203.969071,128.925774 L203.713798,128.925774 L203.713798,129.181822 L203.457442,129.181822 L203.202169,129.181822 L202.946895,131.734732 L203.457442,132.500714 L203.202169,133.265615 L202.946895,133.521662 L202.691621,133.776629 L202.179992,133.776629 L201.413089,133.521662 L199.368737,134.287643 L199.112381,135.308591 L201.157816,135.563558 L201.413089,136.074573 L201.924718,137.861502 L201.924718,140.925427 L203.457442,141.946376 L203.457442,142.201342 L203.969071,142.967324 L204.991248,143.478338 L204.991248,144.754253 L204.4807,145.520234 L204.735974,145.776282 L206.269779,145.776282 L207.036682,145.520234 L207.036682,145.776282 L207.036682,147.818178 L207.036682,148.329193 L207.036682,148.58416 L207.036682,149.095174 L207.036682,149.860075 L206.780327,152.924 L207.547229,152.924 L209.336308,152.924 L209.336308,154.200995 L209.336308,155.987925 L209.336308,156.242892 L209.336308,156.753906 L209.336308,157.26384 L209.336308,157.774854 L209.336308,158.029821 L209.336308,158.285869 L209.336308,158.540836 L209.336308,159.306817 L211.126469,161.348713 L211.637016,162.114695 L212.148645,162.625709 L212.403919,162.880676 L212.915548,163.39169 L214.704627,165.689634 L215.215174,166.454535 L215.982077,166.454535 L216.493706,166.454535 L217.260609,166.454535 L217.260609,166.965549 L217.260609,167.73153 L217.260609,168.497512 L217.005335,170.795455 L218.027511,171.561437 L218.027511,171.816404 L218.027511,172.071371 L217.771156,173.603333 L217.771156,173.8583 L217.771156,174.114347 L218.027511,174.114347 L218.027511,175.64631 L221.350396,175.901277 L221.860943,175.901277 L221.605669,178.454188 L221.605669,179.98615 L221.605669,181.77308 L221.605669,182.284094 L221.605669,182.539061 L221.605669,182.794028 L221.605669,183.814976 L221.605669,185.602986 L221.605669,185.857953 L221.350396,187.133868 L221.350396,187.644882 L221.350396,188.155897 L221.350396,189.431812 L221.350396,189.686779 L221.350396,190.708808 L221.350396,191.218741 L221.350396,194.282667 L221.09404,197.856526 L221.605669,198.112573 L222.372572,198.112573 L222.627846,198.112573 L222.627846,199.643455 L223.139475,199.643455 L223.650022,199.643455 L231.062694,199.899502 L232.596499,199.899502 L234.130304,200.154469 L234.640852,200.154469 L235.152481,200.154469 L235.919383,200.154469 L236.431012,200.154469 L236.94156,200.154469 L237.453189,200.154469 L237.963736,200.154469 L238.220091,200.154469 L239.497541,200.154469 L241.031347,200.409436 L241.031347,201.431465 L241.031347,202.452413 L241.28662,202.452413 L243.0757,202.452413 L243.0757,203.218394 L243.332055,203.218394 L246.398584,203.218394 L246.398584,204.750357 L245.631681,204.750357 L245.631681,206.026272 L245.631681,207.04722 L245.631681,207.813202 L245.631681,208.324216 L245.631681,208.83415 L245.631681,209.600131 L245.631681,210.111145 L245.631681,210.366112 L246.910213,210.366112 L247.42076,210.366112 L250.743645,210.366112 L251,210.366112 L250.743645,215.471934 L250.743645,216.237915 L250.743645,218.280892 L250.743645,218.535859 L250.743645,220.322788 L250.743645,221.344817 L250.488371,224.152695 L250.488371,226.705605 L250.488371,230.024497 L250.488371,230.279464 L250.233097,230.535512 L250.233097,231.301493 L250.233097,232.322441 L250.233097,237.68323 L250.233097,238.449211 L250.233097,238.704178 L250.233097,239.215192 L249.976742,239.726207 L249.976742,239.981174 L249.976742,240.23614 L249.976742,240.747155 L249.976742,241.768103 L249.976742,244.577061 L249.976742,245.598009 L249.976742,247.384939 L249.976742,248.15092 L249.721468,248.405887 L249.721468,248.660854 L248.187663,248.660854 L245.121134,248.660854 L244.864779,248.660854 L243.587329,248.660854 L242.053523,248.660854 L241.79825,248.660854 L240.264444,248.660854 L240.00917,248.660854 L240.00917,247.639906 L239.242268,247.384939 L237.196833,247.384939 L235.152481,247.384939 L234.897207,247.384939 L234.897207,247.129972 L231.829596,247.129972 L231.829596,247.384939 L231.829596,249.426835 L231.829596,249.93785 L230.80742,249.93785 L230.80742,247.384939 L230.80742,247.129972 L230.040517,247.129972 L230.040517,246.107943 L230.040517,245.086995 L230.040517,244.832028 L229.528888,244.832028 L228.761986,244.577061 L227.484536,244.577061 L226.717633,244.577061 L226.462359,244.577061 L225.439101,244.577061 L222.88312,244.577061 L222.88312,244.832028 L222.88312,245.086995 L220.838767,245.086995 L220.327138,245.086995 L220.071864,245.086995 L219.81659,244.832028 L219.561317,244.577061 L215.982077,244.577061 L214.704627,244.577061 L213.170822,244.577061 L213.170822,245.341962 L213.170822,245.852976 L212.403919,245.852976 L211.893372,245.852976 L211.381743,245.852976 L211.126469,245.852976 L210.359566,245.852976 L210.103211,245.852976 L210.103211,246.107943 L209.336308,246.107943 L205.247603,245.852976 L205.247603,245.341962 L205.247603,245.086995 L205.247603,244.577061 L205.247603,244.066047 L205.247603,243.555032 L205.247603,243.300066 L202.691621,243.300066 L200.646187,243.300066 L200.390913,243.300066 L200.390913,241.768103 L195.534223,241.768103 L194.000418,241.768103 L193.745144,241.768103 L193.745144,241.513136 L193.745144,239.981174 L193.745144,239.470159 L193.233515,239.470159 L192.978242,239.470159 L192.211339,239.470159 L191.189163,239.470159 L190.933889,239.470159 L190.166986,239.470159 L189.655357,239.470159 L189.400084,239.470159 L188.888455,239.470159 L188.633181,239.470159 L187.866278,239.470159 L189.655357,241.768103 L189.400084,241.768103 L189.400084,243.555032 L185.821926,243.81108 L185.821926,239.470159 L184.28812,239.215192 L183.521218,239.215192 L183.521218,239.470159 L182.754315,239.470159 L182.754315,239.726207 L181.476865,239.726207 L180.453607,239.726207 L180.198333,239.726207 L180.198333,239.215192 L180.198333,238.704178 L180.198333,238.449211 L180.198333,238.194244 L179.686704,238.194244 L176.620175,237.939277 L176.36382,237.939277 L175.597999,237.939277 L175.341643,237.939277 L175.08637,237.939277 L173.807838,237.939277 L172.785662,237.939277 L171.763485,237.939277 L169.974406,237.68323 L167.163151,237.68323 L162.817008,237.428263 L160.517382,237.428263 L160.517382,237.939277 L160.517382,239.470159 L160.261027,241.002122 L160.261027,241.513136 L160.261027,242.534084 L160.261027,243.045099 L160.261027,243.555032 L160.261027,244.577061 L160.517382,244.577061 L160.517382,244.832028 L160.517382,245.341962 L160.261027,246.107943 L160.261027,246.873925 L160.261027,247.129972 L160.261027,247.639906 L160.261027,248.405887 L160.261027,249.93785 L160.261027,250.703831 L160.261027,251.724779 L160.261027,252.235793 L160.005753,252.235793 L160.005753,254.788704 L160.261027,254.788704 L160.261027,257.086648 L160.261027,257.852629 L160.005753,261.171521 L160.005753,261.936422 L160.005753,262.192469 L159.750479,262.192469 L159.750479,264.234366 L159.750479,266.021295 L159.495206,267.043324 L159.495206,270.106169 L159.23885,277 L158.983577,277 L158.728303,277 L158.471948,277 L158.216674,277 L157.705045,277 L156.939224,277 L154.126887,277 L152.849437,277 L151.060358,277 L150.548729,277 L149.014924,277 L147.737474,277 L145.692039,277 L143.90296,277 L142.369155,277 L140.835349,277 L140.324802,277 L139.813173,277 L139.04627,277 L138.790997,277 L138.535723,277 L138.024094,277 L137.76882,277 L135.979741,277 L134.445936,277 L133.167404,277 L132.656857,277 L131.634681,277 L130.611423,277 L129.078699,277 L128.055441,277 L126.777991,277 L125.499459,277 L123.965654,277 L122.688204,277 L122.176575,277 L119.365319,277 L119.110046,277 L117.831514,277 L116.554064,277 L115.275532,277 L113.998082,277 L111.952648,277 L111.952648,276.743953 L111.952648,276.488986 L111.952648,276.234019 L111.952648,275.977971 L111.952648,275.723004 L112.209003,274.191042 L112.209003,273.681108 L112.464277,271.893098 L112.719551,270.617183 L112.719551,270.362216 L112.975906,267.809305 L112.975906,267.043324 L112.464277,267.043324 L111.697374,267.043324 L109.653022,267.043324 L106.073782,267.298291 L104.796332,267.298291 L103.5178,267.298291 L102.495624,267.298291 L99.9396421,267.298291 L97.3836603,267.298291 L95.3393076,267.298291 L89.9709889,267.298291 L90.2273442,261.936422 L90.2273442,260.915474 L90.2273442,260.660507 L90.2273442,260.149493 L82.0477701,259.894526 L82.0477701,260.149493 L81.2808674,260.149493 L80.2586911,260.149493 L80.2586911,260.660507 L77.957983,260.660507 L77.957983,261.681455 L77.957983,263.213418 L77.7027093,263.213418 L77.7027093,266.787277 L80.0034174,267.043324 L80.0034174,270.362216 L79.747062,277 L74.6350986,276.743953 L71.3122142,276.488986 L69.5231352,276.488986 L64.6664454,276.234019 L61.0882874,275.977971 L59.8108374,275.977971 L56.9985003,275.977971 L56.7432266,275.977971 L45.2407681,275.468037 L45.2407681,269.08522 L43.7080444,269.08522 L43.7080444,266.021295 L43.7080444,264.74538 L43.9633181,262.958451 L43.9633181,262.192469 L40.38516,261.936422 L40.38516,260.149493 L39.873531,260.149493 L37.572823,260.149493 L37.0622756,260.149493 L37.0622756,259.383511 L37.0622756,258.873577 L37.3175493,258.61753 L39.6182574,258.107596 L39.6182574,255.298638 L39.873531,253.767756 L39.873531,253.001775 L39.873531,250.703831 L39.873531,250.192817 L39.873531,248.15092 L39.873531,247.895953 L39.873531,245.341962 L35.0168413,245.341962 L32.4608596,245.341962 L32.7172149,238.960225 L31.4386832,238.960225 L31.6939569,235.8963 L31.4386832,235.8963 L30.1612332,235.8963 L29.6496042,235.641333 L29.9048778,235.385286 L28.6274278,235.385286 L27.0936225,235.385286 L25.8150908,235.385286 L24.0260117,235.385286 L23.7707381,235.385286 L23.7707381,234.875352 L24.0260117,234.109371 L24.0260117,229.003549 L24.0260117,227.21662 L24.2823671,224.918676 L25.8150908,225.173643 L27.3488961,225.173643 L29.1379752,225.173643 L30.4165069,225.173643 L30.4165069,223.897728 L30.4165069,222.365765 L29.6496042,222.365765 L28.6274278,222.365765 L28.1157988,222.365765 L27.3488961,222.365765 L26.8383488,222.365765 L26.0714461,222.365765 L25.0492698,222.109718 L23.7707381,222.109718 L23.2591091,222.109718 L21.981659,222.109718 L21.7263854,222.109718 L21.7263854,220.833803 L21.7263854,220.578836 L21.7263854,220.322788 L21.7263854,220.067821 L21.7263854,219.30184 L21.7263854,216.237915 L21.7263854,215.216967 L21.7263854,214.707033 L21.981659,211.643108 L21.981659,210.111145 L22.2369327,210.111145 L30.6717805,210.366112 L30.6717805,209.856178 L30.9281359,206.026272 L30.9281359,205.515258 L30.1612332,205.515258 L28.6274278,205.515258 L28.6274278,203.218394 L28.6274278,201.431465 L28.3710725,201.431465 L28.3710725,199.643455 L28.3710725,199.133521 L28.3710725,198.622507 L28.3710725,198.112573 L28.3710725,197.601559 L28.3710725,197.346592 L28.3710725,196.835577 L28.3710725,196.58061 L28.3710725,196.324563 L28.3710725,195.814629 L28.3710725,195.559662 L27.6052515,195.559662 L26.8383488,195.559662 L26.8383488,195.303615 L26.8383488,195.048648 L26.8383488,194.793681 L26.8383488,193.261718 L26.8383488,192.23969 L26.8383488,191.729756 L26.8383488,191.474789 L26.8383488,190.963775 L26.8383488,190.45276 L26.8383488,190.197793 L26.8383488,189.942826 L27.0936225,189.942826 L27.0936225,189.686779 L27.0936225,188.410864 L27.0936225,185.602986 L27.6052515,185.602986 L28.1157988,185.602986 L28.8827015,185.602986 L29.1379752,185.602986 L29.3943305,185.602986 L30.1612332,185.602986 L30.6717805,185.602986 L30.9281359,185.602986 L31.1834095,185.602986 L31.4386832,185.602986 L31.9503122,185.602986 L32.4608596,185.602986 L32.9724886,185.602986 L33.7393912,185.602986 L33.7393912,184.071024 L33.7393912,183.814976 L33.7393912,183.305042 L33.7393912,183.048995 L33.7393912,182.028047 L33.9946649,181.262065 L33.9946649,180.752131 L33.2277622,180.752131 L32.7172149,180.752131 L31.9503122,180.752131 L31.4386832,180.752131 L30.9281359,180.752131 L30.6717805,180.752131 L30.1612332,180.496084 L28.8827015,180.496084 L28.6274278,180.496084 L28.1157988,180.496084 L27.8605251,180.496084 L27.6052515,180.496084 L27.0936225,180.496084 L26.8383488,180.496084 L26.5819935,180.496084 L25.5598171,180.496084 L25.3045434,180.496084 L24.0260117,180.496084 L24.0260117,175.64631 L24.0260117,175.390263 L24.2823671,175.390263 L25.5598171,175.390263 L25.8150908,175.390263 L27.0936225,175.390263 L27.3488961,175.390263 L28.1157988,175.64631 L28.6274278,175.64631 L29.1379752,175.64631 L29.1379752,175.390263 L29.1379752,174.624281 L29.1379752,174.369314 L29.1379752,173.8583 L29.1379752,173.603333 L29.1379752,173.348366 L29.1379752,173.092319 L29.1379752,172.837352 L29.1379752,172.582385 L29.1379752,172.327418 L29.1379752,172.071371 L29.1379752,171.816404 L29.1379752,171.561437 L29.1379752,171.305389 L29.1379752,170.795455 L29.1379752,170.539408 L29.1379752,170.284441 L29.1379752,169.773427 L28.8827015,169.773427 L28.8827015,169.263493 L28.8827015,168.752479 L28.6274278,168.752479 L28.6274278,168.497512 L28.6274278,168.242545 L28.6274278,167.986497 L28.6274278,167.73153 L28.6274278,167.476563 L28.6274278,167.220516 L29.1379752,167.220516 L29.1379752,166.965549 L29.1379752,166.454535 L29.1379752,166.199568 L29.1379752,165.944601 L29.1379752,165.689634 L29.1379752,165.433587 L29.1379752,165.17862 L28.6274278,165.17862 L28.3710725,165.17862 L28.1157988,165.17862 L27.3488961,165.17862 L27.0936225,165.17862 L26.8383488,165.17862 L26.8383488,164.412638 L26.8383488,164.157671 L26.8383488,163.646657 L26.8383488,163.135643 L26.8383488,162.880676 L26.8383488,162.370742 L26.8383488,162.114695 L26.8383488,161.859728 L26.8383488,161.348713 L26.8383488,161.093746 L26.8383488,160.582732 L26.3267198,160.582732 L26.0714461,160.582732 L26.0714461,159.816751 L26.3267198,159.816751 L26.3267198,159.05185 L26.3267198,158.795803 L26.5819935,158.795803 L26.8383488,158.795803 L26.8383488,158.285869 L26.8383488,157.774854 L26.8383488,157.519887 L26.8383488,157.26384 L26.8383488,157.008873 L26.8383488,156.753906 L27.0936225,155.476911 L27.8605251,155.476911 L27.8605251,155.221944 L27.8605251,154.710929 L27.8605251,154.200995 L27.8605251,153.435014 L27.8605251,153.178967 L27.8605251,152.924 L27.8605251,152.669033 L27.8605251,152.158019 L27.8605251,151.648085 L27.8605251,151.392037 L27.6052515,151.392037 L27.0936225,151.392037 L27.3488961,150.882103 L27.3488961,150.626056 L27.3488961,150.371089 L27.3488961,149.860075 L27.3488961,149.605108 L27.3488961,148.839127 L27.3488961,148.329193 L27.3488961,148.073145 L27.3488961,147.307164 L27.3488961,146.79723 L27.3488961,146.541183 L27.3488961,146.031249 L27.3488961,145.776282 L27.3488961,145.520234 L27.3488961,145.010301 L27.3488961,144.244319 L27.3488961,143.988272 L27.3488961,143.478338 L27.3488961,142.712357 L27.3488961,142.45739 L27.3488961,141.946376 L27.3488961,141.691409 L27.3488961,141.180394 L27.3488961,140.925427 L27.3488961,140.414413 L27.3488961,139.648432 L27.8605251,139.648432 L28.3710725,139.648432 L28.6274278,138.88245 L28.8827015,138.88245 L29.1379752,138.88245 L29.1379752,138.372517 L29.1379752,138.116469 L28.8827015,138.116469 L28.3710725,138.116469 L28.6274278,137.606535 L28.6274278,137.350488 L27.8605251,137.350488 L27.3488961,137.350488 L27.3488961,137.095521 L27.3488961,136.840554 L27.3488961,136.584507 L27.3488961,136.32954 L27.3488961,135.819606 L27.6052515,135.053624 L27.3488961,135.053624 L27.3488961,134.287643 L27.3488961,134.031596 L27.3488961,133.776629 L27.3488961,133.521662 L27.3488961,133.265615 L27.3488961,133.010648 L27.3488961,132.500714 L27.3488961,132.244666 L27.3488961,131.989699 L27.3488961,131.734732 L27.3488961,131.223718 L27.3488961,130.968751 L27.3488961,130.712704 L27.3488961,130.457737 L27.3488961,130.20277 L27.3488961,129.947803 L27.3488961,129.691756 L27.3488961,129.436789 L27.3488961,128.925774 L27.6052515,128.41584 L27.6052515,128.159793 L27.6052515,127.904826 L27.6052515,127.649859 L27.6052515,127.393812 L27.6052515,127.138845 L27.6052515,126.883878 L27.6052515,126.627831 L27.6052515,126.372864 L27.6052515,126.117897 L27.6052515,125.606882 L27.6052515,124.840901 L27.3488961,124.840901 L27.3488961,124.585934 L27.3488961,124.330967 L27.3488961,124.07492 L27.3488961,123.819953 L27.3488961,123.564986 L27.3488961,123.308939 L27.3488961,123.053972 L27.3488961,122.544038 L27.6052515,122.28799 L27.6052515,121.522009 L27.6052515,121.267042 L27.6052515,121.012075 L27.6052515,120.756028 L27.6052515,120.246094 L28.1157988,120.246094 L28.1157988,119.991127 L28.1157988,119.480113 L28.1157988,119.225146 L28.1157988,118.969098 L28.1157988,118.714131 L28.1157988,118.459164 L28.1157988,118.203117 L28.1157988,117.693183 L28.3710725,117.437136 L28.3710725,117.182169 L28.3710725,116.927202 L28.3710725,116.672235 L28.3710725,116.161221 L28.1157988,116.161221 L27.6052515,116.161221 L26.8383488,116.161221 L26.5819935,116.161221 L25.8150908,116.161221 L25.5598171,116.161221 L25.3045434,116.161221 L25.3045434,117.693183 L24.5376408,117.693183 L24.5376408,117.437136 L24.5376408,117.182169 L24.5376408,116.672235 L24.0260117,116.672235 L23.7707381,116.672235 L23.7707381,116.416188 L23.5154644,116.416188 L23.2591091,116.416188 L23.0038354,116.416188 L22.4932881,116.416188 L22.4932881,116.161221 L21.981659,116.161221 L21.7263854,116.161221 L21.7263854,116.416188 L21.47003,116.416188 L21.2147564,116.416188 L19.9373063,116.416188 L19.9373063,117.94815 L19.4256773,117.94815 L19.1704037,117.693183 L18.6587747,117.693183 L18.403501,117.693183 L18.403501,117.94815 L18.1471456,117.94815 L17.3813246,117.693183 L16.8696956,117.693183 L16.614422,117.693183 L16.3580666,117.693183 L15.8475193,117.693183 L15.8475193,117.182169 L15.8475193,116.416188 L15.8475193,115.906254 L15.8475193,115.650206 L15.0806166,115.650206 L14.5689876,115.650206 L14.5689876,115.395239 L14.0584402,115.395239 L13.8020849,115.395239 L13.8020849,115.650206 L13.0351822,115.650206 L12.7799086,115.650206 L12.5246349,115.650206 L12.5246349,115.395239 L11.5024585,115.395239 L11.2461032,115.395239 L10.2239268,115.395239 L10.2239268,115.906254 L10.2239268,116.416188 L9.96865317,116.416188 L9.71229783,116.416188 L8.69012148,116.416188 L8.69012148,115.906254 L8.43484781,115.906254 L7.66794513,115.650206 L7.41267146,115.650206 L7.41267146,115.906254 L7.41267146,116.161221 L6.90104245,116.161221 L6.64576878,116.161221 L6.64576878,116.672235 L6.39049511,116.672235 L6.13413977,116.672235 L6.13413977,116.416188 L6.13413977,116.161221 L5.62359243,116.161221 L5.36723709,116.161221 L4.34506074,116.161221 L3.83343173,116.161221 L3.32288439,116.161221 L3.32288439,115.906254 L2.81125538,115.906254 L2.0443527,115.906254 L2.0443527,115.650206 L2.0443527,115.395239 L2.0443527,114.629258 L1.27745002,114.629258 L1.02217635,114.629258 L1.02217635,114.118244 L1.02217635,113.863277 L1.27745002,113.097296 L1.27745002,112.587362 L1.27745002,111.82138 L0,111.82138 L0,110.799352 L0,110.289418 L0.255273671,110.034451 L0.255273671,109.012422 L0.255273671,107.991474 L0.255273671,107.48046 L0.255273671,107.225493 L0.255273671,106.970526 L0.255273671,106.459512 L0.255273671,106.204545 L0.255273671,105.438563 L0.255273671,104.161568 L0.255273671,103.14062 L0.511629009,102.119671 L0.511629009,101.35369 L0.511629009,100.332742 L0.511629009,99.3117936 L0.511629009,98.8007793 L0.511629009,98.289765 L0.511629009,98.034798 L0.511629009,97.5237837 L0.511629009,96.5028355 L1.53380536,96.5028355 L1.78907903,96.5028355 L2.0443527,96.5028355 L2.0443527,96.2478685 L2.0443527,95.9929015 L2.0443527,95.7368542 L2.0443527,95.2269203 L2.0443527,94.460939 L2.0443527,94.2048917 L2.0443527,93.9499247 L1.78907903,93.9499247 L1.53380536,93.9499247 L1.27745002,93.9499247 L0.76690268,93.9499247 L0,93.6949578 L0,93.4399908 L0,92.9289765 L0,92.4179622 L0.76690268,92.4179622 L1.53380536,92.4179622 L2.30070804,92.4179622 L3.06761072,92.4179622 L3.06761072,91.6519809 L0.76690268,91.397014 L1.02217635,90.6310327 L1.02217635,89.8650514 L1.02217635,89.0990702 L1.02217635,88.3330889 L1.27745002,87.5671077 L1.27745002,86.8022068 L1.27745002,86.0362255 L1.27745002,85.2702442 L1.78907903,85.5252112 L2.30070804,85.5252112 L2.81125538,85.5252112 L2.81125538,85.0141969 L3.06761072,84.7592299 L3.06761072,84.2482156 L3.32288439,83.7382817 L2.55598171,83.4833147 L2.30070804,83.4833147 L2.30070804,82.7173335 L2.30070804,81.9513522 L1.78907903,81.9513522 L1.53380536,81.9513522 L1.78907903,81.185371 L1.53380536,81.185371 L0.511629009,81.185371 L0.511629009,80.6743567 L0.76690268,80.1644227 L0.76690268,79.6534084 L1.02217635,78.8874272 L1.78907903,78.8874272 L2.0443527,78.8874272 L2.81125538,79.1423941 L3.32288439,79.1423941 L4.08978707,79.1423941 L4.34506074,77.8664789 L4.08978707,77.8664789 L3.06761072,77.8664789 L2.81125538,77.8664789 L2.81125538,77.3554646 L2.81125538,76.8455307 L3.06761072,76.8455307 L3.57815806,76.8455307 L4.34506074,76.8455307 L4.34506074,76.3345164 L4.34506074,75.5685351 L4.34506074,74.5475869 L4.34506074,74.0365726 L4.34506074,73.0156244 L4.34506074,72.7606574 L4.60033441,72.2496431 L4.60033441,71.7386288 L4.60033441,70.4627136 L4.60033441,69.1857181 L4.60033441,67.6537555 L4.85668975,67.6537555 L4.85668975,66.6328073 L4.60033441,66.6328073 L4.60033441,66.1228734 L4.85668975,65.6118591 L4.85668975,65.1008448 L4.85668975,64.3348635 L4.85668975,63.8249296 L4.85668975,63.5699626 L4.85668975,63.0589483 L4.85668975,62.547934 L5.11196342,60.5060376 L5.11196342,58.4630608 L4.85668975,58.4630608 L4.85668975,57.9531268 L5.11196342,57.1871456 L5.11196342,56.6761313 L5.11196342,55.4002161 L5.11196342,54.8892018 L5.11196342,54.3781875 L4.85668975,54.3781875 L4.85668975,53.1022723 L4.85668975,52.8473053 L4.85668975,52.591258 L5.11196342,52.0813241 L5.11196342,51.3153428 L4.85668975,51.3153428 L4.85668975,51.0592955 L4.85668975,50.5493615 L4.85668975,50.0383472 L4.85668975,49.017399 L5.36723709,49.017399 L5.62359243,49.017399 L5.8788661,49.017399 L13.0351822,49.017399 L13.0351822,47.9964508 L13.0351822,45.953474 L13.0351822,45.698507 L13.0351822,45.44354 L13.0351822,45.1874927 L13.0351822,44.4215114 L13.0351822,43.9115775 L13.0351822,43.6566105 L13.0351822,43.1455962 L13.0351822,42.8906293 L13.0351822,42.6345819 L13.0351822,42.124648 L13.2915376,41.3586667 L13.2915376,40.8476524 L13.2915376,40.0816712 L13.2915376,39.8267042 L13.2915376,39.5717372 L13.2915376,39.0607229 L13.2915376,38.5497087 L13.2915376,38.0397747 L13.2915376,37.5287604 L13.2915376,37.2737935 L13.2915376,37.0188265 L13.2915376,36.7627792 L13.2915376,36.2528452 L13.2915376,35.7418309 L13.2915376,35.2308166 L13.2915376,34.7208827 L13.2915376,34.2098684 L13.2915376,33.6999345 L13.2915376,33.1889202 L14.0584402,33.4438871 L14.0584402,33.1889202 L14.0584402,32.6779059 L14.0584402,31.1470237 L14.0584402,30.8909764 L14.0584402,30.3810425 L14.0584402,30.1249951 L17.3813246,30.6360094 L20.9594827,31.1470237 L24.7929144,31.9119246 L25.0492698,31.9119246 L35.5284703,33.6999345 L39.361902,34.4659157 L41.6626101,34.7208827 L41.6626101,33.9549014 L41.6626101,33.4438871 L41.6626101,33.1889202 L41.9189654,33.1889202 L42.1742391,33.1889202 L42.4295127,33.1889202 L45.4971235,33.4438871 L45.7523971,33.4438871 L45.7523971,33.1889202 L45.7523971,32.9339532 L45.7523971,32.4229389 L50.3527315,32.1679719 L50.3527315,32.4229389 L50.3527315,32.6779059 L50.6090869,32.4229389 L50.8643605,32.4229389 L51.1196342,32.1679719 L51.1196342,31.9119246 L51.1196342,31.6569577 L51.1196342,31.4019907 L50.8643605,31.1470237 L50.8643605,30.3810425 L50.6090869,30.1249951 L50.6090869,29.8700282 L50.6090869,29.6150612 L50.6090869,29.3590139 L50.6090869,27.5720844 L50.8643605,27.5720844 L52.1428922,27.5720844 L52.1428922,26.2961692 L50.8643605,26.0401218 L50.6090869,26.0401218 L51.1196342,9.95667605 L51.1196342,9.70170909 L51.1196342,7.9147796 L51.1196342,6.12676974 L51.1196342,5.61683581 L50.3527315,5.61683581 L49.3305552,5.61683581 L49.0752815,5.61683581 L48.8200078,5.61683581 L48.0531052,5.61683581 L46.5192998,5.87180277 L46.5192998,4.85085454 L46.5192998,0.254966965 L46.5192998,0 Z M156.939224,237.428263 L156.172321,237.428263 L155.405419,237.428263 L154.89379,237.428263 L154.126887,237.428263 L153.104711,237.428263 L152.082534,237.428263 L151.827261,237.428263 L150.548729,237.428263 L150.293455,237.428263 L150.0371,237.428263 L148.75965,237.428263 L147.225845,237.428263 L140.069528,237.428263 L139.813173,240.492188 L139.813173,242.02307 L139.813173,240.492188 L146.970571,240.23614 L146.970571,245.852976 L139.813173,247.129972 L139.813173,247.384939 L139.813173,250.703831 L139.813173,251.214845 L139.557899,255.554685 L139.557899,256.064619 L139.557899,256.320667 L139.557899,257.086648 L141.346978,257.086648 L142.369155,257.086648 L142.62551,257.086648 L143.647686,257.086648 L144.158234,256.830601 L145.692039,256.830601 L145.692039,256.575634 L145.948395,256.320667 L146.714216,255.554685 L146.970571,255.298638 L148.75965,255.298638 L148.75965,255.043671 L149.014924,254.788704 L150.548729,253.767756 L150.548729,253.511709 L150.548729,253.256742 L150.804003,253.256742 L150.804003,253.001775 L150.804003,252.745727 L150.548729,252.745727 L150.548729,252.49076 L150.548729,252.235793 L150.804003,251.979746 L151.060358,251.724779 L151.315632,251.469812 L151.570905,251.214845 L151.570905,250.958798 L151.827261,250.958798 L152.082534,250.703831 L152.337808,250.448864 L152.337808,250.192817 L152.593082,249.93785 L152.849437,249.682883 L153.104711,249.426835 L153.104711,249.171868 L153.359984,249.171868 L153.359984,248.916901 L153.61634,248.660854 L153.61634,248.405887 L153.871613,248.405887 L153.871613,248.15092 L153.871613,247.895953 L154.126887,247.639906 L154.126887,247.384939 L154.126887,247.129972 L154.89379,247.384939 L155.149063,246.363991 L155.149063,246.107943 L155.405419,245.852976 L155.149063,245.598009 L155.149063,245.341962 L155.405419,245.341962 L155.660692,245.086995 L155.660692,244.832028 L155.915966,244.832028 L156.682869,245.086995 L159.23885,245.086995 L159.750479,245.086995 L160.005753,244.832028 L160.005753,244.321014 L160.005753,244.066047 L160.005753,243.300066 L160.005753,243.045099 L158.983577,243.045099 L157.194498,242.789051 L156.939224,242.789051 L157.194498,241.768103 L157.449771,241.258169 L157.449771,240.747155 L157.449771,240.492188 L157.449771,239.981174 L157.449771,239.470159 L157.449771,238.960225 L156.939224,237.428263 Z M154.89379,257.852629 L154.89379,259.383511 L156.172321,259.383511 L158.216674,259.383511 L159.495206,259.383511 L159.495206,258.61753 L159.495206,257.852629 L159.750479,257.086648 L159.495206,257.086648 L156.427595,257.086648 L154.89379,257.086648 L154.89379,257.852629 Z M51.1196342,273.681108 L52.6534396,273.681108 L53.9319713,273.681108 L53.9319713,275.723004 L55.2094213,275.723004 L56.487953,275.723004 L56.487953,273.681108 L56.487953,271.383164 L53.4203423,271.383164 L51.1196342,271.127117 L51.1196342,273.681108 Z M49.5869105,273.936075 L49.5869105,273.170094 L48.5636525,272.915127 L48.5636525,273.936075 L48.5636525,275.468037 L49.5869105,275.468037 L49.5869105,273.936075 Z" id="Fill-9"></path>
            </g>
        </g>
    </g>
</svg>