<svg xmlns="http://www.w3.org/2000/svg" xmlns:xlink="http://www.w3.org/1999/xlink" version="1.1" x="0px" y="0px" viewBox="0 0 100 100" enable-background="new 0 0 100 100" xml:space="preserve"><g><rect x="-330" width="185" height="99"></rect><rect x="-138" y="-36" width="100" height="30"></rect><text transform="matrix(1 0 0 1 -72 -19.5)" fill="#000000" font-family="'Helvetica'" font-size="2.4">http://thenounproject.com</text><text transform="matrix(1 0 0 1 -130.834 -24.5)"><tspan x="0" y="0" fill="#000000" font-family="'Helvetica-Bold'" font-size="6.1578">The Noun Project</tspan><tspan x="1.12" y="4.8" fill="#000000" font-family="'Helvetica-Bold'" font-size="4">Icon Template</tspan></text><text transform="matrix(1 0 0 1 -316.5 10.5)" fill="#000000" font-family="'Helvetica-Bold'" font-size="6.1578">Reminders</text><line fill="#000000" stroke="#FFFFFF" stroke-miterlimit="10" x1="-130" y1="-14.5" x2="-120" y2="-14.5"></line><line fill="#000000" stroke="#FFFFFF" stroke-miterlimit="10" x1="-317" y1="16.5" x2="-300" y2="16.5"></line><g><g><g><rect x="-308.802" y="31.318" fill="#000000" width="8.721" height="8.642"></rect><path fill="#000000" d="M-302.455,42.312h4.747v-4.703h-4.747V42.312z M-297.266,42.749h-5.63V37.17h5.63V42.749      L-297.266,42.749z M-304.221,44.062h8.279v-8.203h-8.279V44.062L-304.221,44.062z M-295.5,44.5h-9.163v-9.079h9.163V44.5      L-295.5,44.5z"></path><polygon fill="#000000" points="-304.149,44.133 -304.292,43.991 -296.013,35.787 -295.871,35.929     "></polygon></g></g></g><rect x="-317" y="58" fill="none" width="35" height="32.5"></rect><text transform="matrix(1 0 0 1 -317 60.1299)"><tspan x="0" y="0" fill="#000000" font-family="'Helvetica-Bold'" font-size="3">Strokes</tspan><tspan x="0" y="5" fill="#000000" font-family="'Helvetica'" font-size="2.4">Try to keep strokes at 4px</tspan><tspan x="0" y="10" fill="#000000" font-family="'Helvetica'" font-size="2.4">Minimum stroke weight is 2px</tspan><tspan x="0" y="14.5" fill="#000000" font-family="'Helvetica'" font-size="2.4">For thicker strokes use even </tspan><tspan x="0" y="17.5" fill="#000000" font-family="'Helvetica'" font-size="2.4">numbers: 6px, 8px etc.</tspan><tspan x="0" y="22" fill="#000000" font-family="'Helvetica-Bold'" font-size="2.4">Remember to expand strokes </tspan><tspan x="0" y="25" fill="#000000" font-family="'Helvetica-Bold'" font-size="2.4">before saving as an SVG </tspan></text><rect x="-274.5" y="58" fill="none" width="35" height="32.5"></rect><text transform="matrix(1 0 0 1 -274.5 60.1299)"><tspan x="0" y="0" fill="#000000" font-family="'Helvetica-Bold'" font-size="3">Size</tspan><tspan x="0" y="5" fill="#000000" font-family="'Helvetica'" font-size="2.4">Cannot be wider or taller than </tspan><tspan x="0" y="8.5" fill="#000000" font-family="'Helvetica'" font-size="2.4">100px (artboard size)</tspan><tspan x="0" y="13.5" fill="#000000" font-family="'Helvetica'" font-size="2.4">Scale your icon to fill as much of </tspan><tspan x="0" y="16.5" fill="#000000" font-family="'Helvetica'" font-size="2.4">the artboard as possible</tspan></text><rect x="-232" y="58" fill="none" width="35" height="32.5"></rect><text transform="matrix(1 0 0 1 -232 60.1299)"><tspan x="0" y="0" fill="#000000" font-family="'Helvetica-Bold'" font-size="3">Ungroup</tspan><tspan x="0" y="5" fill="#000000" font-family="'Helvetica'" font-size="2.4">If your design has more than one </tspan><tspan x="0" y="8" fill="#000000" font-family="'Helvetica'" font-size="2.4">shape, make sure to ungroup</tspan></text><rect x="-188" y="58" fill="none" width="35" height="32.5"></rect><text transform="matrix(1 0 0 1 -188 60.1299)"><tspan x="0" y="0" fill="#000000" font-family="'Helvetica-Bold'" font-size="3">Save as</tspan><tspan x="0" y="5" fill="#000000" font-family="'Helvetica'" font-size="2.4">Save as .SVG and make sure “Use </tspan><tspan x="0" y="8" fill="#000000" font-family="'Helvetica'" font-size="2.4">Artboards” is checked</tspan></text><text transform="matrix(1.0074 0 0 1 -263.542 30.5933)" fill="#000000" font-family="'Helvetica'" font-size="2.5731">100px</text><text transform="matrix(1.0074 0 0 1 -179 39)" fill="#000000" font-family="'Helvetica-Bold'" font-size="5.1462">.SVG</text><rect x="-264.514" y="34.815" fill="#000000" width="10.261" height="10.185"></rect><rect x="-264.477" y="31.766" fill="#000000" width="0.522" height="2.337"></rect><rect x="-254.813" y="31.766" fill="#000000" width="0.523" height="2.337"></rect><rect x="-265" y="32.337" fill="#000000" width="11.233" height="0.572"></rect><g><rect x="-221.805" y="33.844" fill="#000000" width="10.305" height="10.156"></rect><rect x="-214.809" y="28.707" fill="#000000" width="3.308" height="3.261"></rect></g><rect x="-316.5" y="22.5" fill="#000000" stroke="#FFFFFF" stroke-miterlimit="10" width="30" height="30"></rect><rect x="-274.5" y="22.5" fill="#000000" stroke="#FFFFFF" stroke-miterlimit="10" width="30" height="30"></rect><rect x="-231.5" y="22.5" fill="#000000" stroke="#FFFFFF" stroke-miterlimit="10" width="30" height="30"></rect><rect x="-187.5" y="22.5" fill="#000000" stroke="#FFFFFF" stroke-miterlimit="10" width="30" height="30"></rect></g><g><path fill-rule="evenodd" clip-rule="evenodd" d="M-59.151,83.382c0.06,0.652,0.017,1.313,0.017,2.067c1.064,0,2.599,0,3.698,0   c0.042-0.911,0.084-1.825,0.135-2.913c2.961,0.311,5.561,0.41,8.313,1.498c0.016,0.157,0.032,0.314,0.05,0.473   c-0.691,0.231-1.367,0.593-2.076,0.674c-4.241,0.481-8.482,1.145-12.737,1.29c-11.02,0.377-22.047,0.717-33.07,0.696   c-11.177-0.021-22.367-0.22-33.49-1.578c-1.229-0.15-2.441-0.448-3.654-0.712c-0.282-0.061-0.532-0.263-1.033-0.521   c1.38-1.098,2.86-1.092,4.228-1.28c2.498-0.344,5.016-0.549,7.53-0.736c0.742-0.056,1.072-0.358,1.35-1.006   c2.419-5.634,3.622-11.532,3.881-17.635c0.231-5.412-0.132-10.787-1.167-16.109c-0.043-0.223-0.103-0.442-0.136-0.585   c-1.332,0.471-2.587,1.117-3.917,1.353c-6.315,1.122-11.453-4.934-9.377-11.012c0.229-0.67,0.19-1.084-0.25-1.651   c-2.682-3.441-2.303-8.317,0.875-11.303c0.499-0.468,0.708-0.897,0.692-1.589c-0.12-5.449,3.955-9.236,9.372-8.813   c0.405,0.032,0.97-0.219,1.243-0.529c3.48-3.95,8.688-4.261,12.618-0.758c0.277,0.248,0.917,0.363,1.259,0.224   c6.399-2.6,12.577,2.044,11.928,8.968c-0.036,0.391,0.222,0.966,0.535,1.208c4.774,3.694,4.752,10.172-0.088,13.84   c-0.443,0.336-0.771,0.575-0.668,1.288c0.498,3.47-0.718,6.318-3.584,8.288c-2.835,1.95-5.881,1.983-8.934,0.382   c-0.198-0.104-0.408-0.189-0.823-0.379c-0.37,2.203-0.804,4.277-1.056,6.373c-1.129,9.397-0.177,18.584,2.856,27.561   c0.314,0.93,0.751,1.169,1.667,1.108c1.345-0.088,2.112-0.022,3.598-0.022c0,1.313,0.033,2.815,0.033,4.175   c1.122,0,3.031,0,4.165,0c0-1.055-0.072-2.23-0.072-2.23s0.308-0.007,0.101-0.044c0.265,0.065,0.11-0.056,0.11-0.056   s0.123-0.25,0.152,0.056c1.028,0,2.754,0.088,3.819,0.088c0.043-0.565,0.059-1.404,0.12-2.206   c9.434,0.196,18.083,0.345,27.494,0.542c0.114,0.546,0.034,1.418,0.127,1.854c0.942,0,3.066,0.043,3.774,0.043   c0.071-0.409-0.017-1.7-0.017-1.7s0.136,0.02,0.366-0.038"></path><path fill-rule="evenodd" clip-rule="evenodd" d="M-54.116,74.481c-0.692,0.06-1.221-0.007-1.854,0.048c0,2.68,0,5.313,0,7.948   c0,0.465,0.004,0.93,0.006,1.396c0.005,1.564,0.072,1.177-1.426,1.229c-0.954,0.034-1.354,0.072-1.337-0.911   c0.054-3.178,0.021-6.357,0.021-9.635c-0.469,0-0.862,0-1.409,0c0,2.417,0.014,4.813-0.013,7.209   c-0.005,0.431-0.11,1.198-0.279,1.23c-0.7,0.133-1.451,0.099-2.163-0.013c-0.133-0.021-0.235-0.673-0.237-1.035   c-0.021-2.441-0.012-4.882-0.012-7.41c-9.659,0-19.228,0-28.942,0c0,2.842,0,5.653,0,8.43c-0.25,0.079-0.355,0.134-0.465,0.145   c-2.262,0.224-2.284,0.188-2.262-2.043c0.02-2.163,0.004-4.327,0.004-6.548c-0.477,0-0.805,0-1.289,0   c0,2.313-0.001,4.589,0.002,6.865c0.001,0.933-0.039,1.869,0.037,2.794c0.101,1.223-0.604,1.248-1.526,1.267   c-0.934,0.02-1.302-0.212-1.278-1.226c0.065-2.834,0.025-5.671,0.021-8.506c0-0.378-0.031-0.758-0.05-1.192   c-0.438-0.044-0.584-0.03-1.27-0.042c0-0.836,0.078-1.303,0.212-1.906c1.435-2.076,3.048-4.128,3.048-4.128   s2.277,0.022,4.246,0.022c11.576,0,23.151,0.013,34.726-0.022c0.424-0.002,1.068,0,1.068,0s0.499,0.652,0.683,1.109   c0.483,1.206,1.113,2.354,1.622,3.55C-54.092,73.438-54.156,73.969-54.116,74.481z"></path><path fill-rule="evenodd" clip-rule="evenodd" d="M-56.541,61.927c0,0.833,0,1.104,0,2.011c-13.339,0-26.652,0-40.037,0   c0-0.843,0-1.11,0-2.011C-83.238,61.927-69.922,61.927-56.541,61.927z"></path><path fill-rule="evenodd" clip-rule="evenodd" d="M-56.541,65.192c0,0.887,0.035,1.277,0.035,2.228   c-0.408,0.021-0.814,0.063-1.22,0.063c-12.535,0.004-25.053-0.106-37.587-0.058c-0.534,0.002-1.227,0.021-1.227,0.021   s-0.03-0.396-0.035-0.926c-0.005-0.599,0-1.405,0-1.405s0.765-0.002,1.23,0c12.535,0.045,25.069,0.025,37.604,0.025   C-57.362,65.14-56.985,65.172-56.541,65.192z"></path><path fill-rule="evenodd" clip-rule="evenodd" d="M-96.443,58.295c13.328,0,26.56,0,39.88,0c0,0.88-0.008,1.444-0.008,2.407   c-0.463,0-0.878,0-1.293,0c-12.271-0.001-24.543,0-36.813-0.002c-1.022,0-1.796,0.002-1.796,0.002S-96.512,59.703-96.443,58.295z"></path><path fill-rule="evenodd" clip-rule="evenodd" d="M-61.699,13.395c10.42,0.001,18.675,8.269,18.699,18.726   c0.024,10.146-8.45,18.543-18.704,18.538c-10.394-0.005-18.649-8.32-18.644-18.773C-80.342,21.6-72.064,13.394-61.699,13.395z    M-53.19,17.844l0.041,0.04c-0.238-0.183-0.455-0.409-0.719-0.542c-5.739-2.875-11.445-2.77-16.832,0.708   c-5.459,3.525-7.998,8.739-7.631,15.247c0.145,2.567,0.907,5.003,2.377,7.268c0.694-2.295,1.525-3.121,3.271-3.136   c3.651-0.034,7.303-0.036,10.953,0.001c1.926,0.02,3.104,1.245,3.131,3.167c0.025,1.864-0.003,3.729,0.01,5.593   c0.004,0.678,0.055,1.356,0.089,2.125c0.583-0.133,0.999-0.207,1.4-0.325c9.987-2.953,14.886-13.844,10.389-23.236   C-48.127,21.799-50.201,19.368-53.19,17.844z M-62.114,41.216c-0.071,0.001-0.627,0.001-0.698,0.001c0,2.429,0,4.857,0,7.286   c0.071,0,0.627,0,0.698,0C-62.114,46.074-62.114,43.645-62.114,41.216z"></path><path fill-rule="evenodd" clip-rule="evenodd" fill="#000000" d="M-62.598,41.215c0,2.429,0,4.858,0,7.287   c-0.072,0-0.144,0.001-0.215,0.001c0-2.429,0-4.857,0-7.286C-62.741,41.217-62.67,41.216-62.598,41.215z"></path><path fill-rule="evenodd" clip-rule="evenodd" fill="#000000" d="M-72.435,41.215c0,2.429,0.107,2.372,0.107,4.801   c-0.071,0-0.25,0-0.321,0.001c0-2.429,0-2.371,0-4.8C-72.577,41.217-72.506,41.216-72.435,41.215z"></path><path fill-rule="evenodd" clip-rule="evenodd" fill="#000000" d="M-72.041,41.216c0,2.429,0,2.371,0,4.8   c-0.071,0-0.321,0-0.394,0.001c0-2.429,0-2.371,0-4.8C-72.362,41.217-72.112,41.217-72.041,41.216z"></path><path fill-rule="evenodd" clip-rule="evenodd" d="M-67.155,36.996c-2.805,0.018-4.968-2.094-4.999-4.88   c-0.031-2.784,2.113-4.979,4.887-5.002c2.867-0.023,5.119,2.165,5.094,4.945C-62.2,34.81-64.388,36.979-67.155,36.996z"></path><text transform="matrix(1 0 0 1 -61.25 33.6265)" font-family="'MyriadPro-Bold'" font-size="9.5212">Z</text><text transform="matrix(1 0 0 1 -57.1309 25.0513)" font-family="'MyriadPro-Bold'" font-size="6.5673">Z</text><text transform="matrix(1 0 0 1 -52.7363 28.332)" font-family="'MyriadPro-Bold'" font-size="4.6813">Z</text><rect x="-78.8" y="30.54" transform="matrix(0.7092 0.705 -0.705 0.7092 4.3242 52.3125)" fill-rule="evenodd" clip-rule="evenodd" width="35.1" height="1.715"></rect><path fill-rule="evenodd" clip-rule="evenodd" d="M83.229,86.041c0.063,0.682,0.018,1.373,0.018,2.161c1.113,0,2.719,0,3.868,0   c0.044-0.952,0.088-1.908,0.141-3.047c3.097,0.326,5.815,0.43,8.692,1.567c0.018,0.165,0.035,0.33,0.053,0.494   c-0.723,0.242-1.43,0.62-2.17,0.704c-4.437,0.504-8.871,1.197-13.322,1.35c-11.523,0.395-23.056,0.75-34.583,0.729   c-11.689-0.022-23.392-0.23-35.023-1.65c-1.285-0.157-2.553-0.469-3.821-0.744C6.786,87.541,6.523,87.329,6,87.059   c1.443-1.147,2.991-1.143,4.421-1.339c2.612-0.359,5.245-0.574,7.875-0.77c0.776-0.059,1.121-0.376,1.412-1.053   c2.53-5.891,3.788-12.061,4.06-18.442c0.24-5.66-0.139-11.28-1.222-16.847c-0.045-0.232-0.107-0.462-0.143-0.611   c-1.392,0.492-2.706,1.167-4.095,1.414c-6.605,1.172-11.978-5.16-9.807-11.517c0.239-0.699,0.198-1.134-0.262-1.726   c-2.806-3.6-2.408-8.697,0.914-11.82c0.521-0.489,0.739-0.938,0.724-1.661c-0.125-5.699,4.136-9.66,9.801-9.216   c0.424,0.032,1.013-0.229,1.3-0.555c3.639-4.131,9.084-4.456,13.194-0.791c0.291,0.259,0.959,0.379,1.317,0.233   c6.691-2.719,13.152,2.139,12.474,9.379c-0.038,0.408,0.231,1.011,0.559,1.264c4.993,3.862,4.971,10.638-0.092,14.474   c-0.463,0.351-0.806,0.601-0.698,1.346c0.521,3.629-0.751,6.608-3.748,8.668c-2.965,2.038-6.15,2.074-9.344,0.399   c-0.207-0.108-0.426-0.197-0.86-0.396c-0.388,2.304-0.841,4.473-1.104,6.664c-1.181,9.828-0.185,19.435,2.987,28.823   c0.328,0.971,0.786,1.221,1.744,1.159c1.406-0.093,2.209-0.024,3.763-0.024c0,1.373,0.035,2.943,0.035,4.366   c1.173,0,3.17-0.001,4.355-0.001c0-1.102-0.075-2.332-0.075-2.332s0.322-0.008,0.105-0.046c0.276,0.068,0.115-0.058,0.115-0.058   s0.129-0.263,0.159,0.058c1.075,0,2.88,0.092,3.994,0.092c0.044-0.591,0.061-1.468,0.124-2.308   c9.866,0.206,18.911,0.362,28.752,0.567c0.12,0.571,0.037,1.482,0.133,1.938c0.986,0,3.207,0.046,3.947,0.046   c0.075-0.429-0.017-1.779-0.017-1.779s0.142,0.021,0.383-0.039"></path><path fill-rule="evenodd" clip-rule="evenodd" d="M88.495,76.732c-0.725,0.063-1.276-0.007-1.938,0.05c0,2.803,0,5.558,0,8.313   c0,0.486,0.004,0.973,0.006,1.459c0.006,1.636,0.075,1.23-1.491,1.286c-0.997,0.035-1.415,0.075-1.397-0.952   c0.056-3.324,0.021-6.65,0.021-10.077c-0.489,0-0.901,0-1.473,0c0,2.528,0.014,5.034-0.014,7.54   c-0.005,0.45-0.115,1.253-0.292,1.286c-0.732,0.14-1.518,0.103-2.262-0.014c-0.14-0.021-0.246-0.703-0.249-1.082   c-0.022-2.553-0.012-5.105-0.012-7.749c-10.102,0-20.107,0-30.267,0c0,2.973,0,5.912,0,8.815c-0.261,0.083-0.371,0.141-0.486,0.151   c-2.365,0.233-2.389,0.196-2.366-2.138c0.022-2.262,0.005-4.524,0.005-6.848c-0.499,0-0.842,0-1.347,0   c0,2.42-0.003,4.801,0.001,7.181c0.001,0.975-0.04,1.954,0.039,2.923c0.105,1.278-0.633,1.305-1.597,1.324   c-0.976,0.021-1.361-0.223-1.337-1.282c0.068-2.964,0.026-5.931,0.022-8.896c0-0.396-0.032-0.792-0.052-1.246   c-0.459-0.047-0.612-0.033-1.328-0.045c0-0.874,0.081-1.362,0.221-1.993c1.502-2.172,3.188-4.317,3.188-4.317   s2.382,0.023,4.44,0.023c12.104,0,24.21,0.013,36.315-0.023c0.443-0.002,1.118,0,1.118,0s0.521,0.683,0.713,1.16   c0.506,1.261,1.164,2.461,1.696,3.712C88.521,75.641,88.453,76.196,88.495,76.732z"></path><path fill-rule="evenodd" clip-rule="evenodd" d="M85.96,63.603c0,0.871,0,1.154,0,2.104c-13.95,0-27.873,0-41.871,0   c0-0.882,0-1.161,0-2.104C58.039,63.603,71.966,63.603,85.96,63.603z"></path><path fill-rule="evenodd" clip-rule="evenodd" d="M85.959,67.019c0,0.928,0.036,1.335,0.036,2.328   c-0.426,0.023-0.851,0.066-1.274,0.066c-13.108,0.004-26.199-0.11-39.309-0.061c-0.558,0.002-1.283,0.021-1.283,0.021   s-0.03-0.412-0.036-0.967c-0.006-0.626,0-1.47,0-1.47s0.8-0.002,1.287,0c13.108,0.047,26.217,0.026,39.325,0.026   C85.1,66.963,85.495,66.997,85.959,67.019z"></path><path fill-rule="evenodd" clip-rule="evenodd" d="M44.23,59.805c13.938,0,27.775,0,41.706,0c0,0.92-0.008,1.511-0.008,2.518   c-0.484,0-0.919,0-1.353,0c-12.833-0.001-25.665,0-38.498-0.002c-1.069,0-1.878,0.002-1.878,0.002S44.158,61.277,44.23,59.805z"></path><g><path fill-rule="evenodd" clip-rule="evenodd" d="M187.94,7c25.108,0.003,45.001,19.925,45.06,45.124    c0.058,24.447-20.361,44.686-45.073,44.673c-25.044-0.013-44.94-20.048-44.927-45.241C143.014,26.772,162.959,6.997,187.94,7z     M208.443,17.72l0.099,0.095c-0.575-0.439-1.097-0.984-1.731-1.304c-13.831-6.929-27.581-6.675-40.562,1.704    c-13.156,8.496-19.275,21.059-18.39,36.74c0.349,6.188,2.185,12.058,5.728,17.515c1.676-5.53,3.676-7.521,7.883-7.559    c8.797-0.079,17.597-0.084,26.395,0.005c4.64,0.047,7.48,2.999,7.543,7.632c0.062,4.492-0.005,8.986,0.023,13.479    c0.01,1.635,0.133,3.267,0.214,5.121c1.406-0.322,2.407-0.496,3.376-0.783c24.067-7.116,35.872-33.363,25.034-55.995    C220.646,27.25,215.647,21.393,208.443,17.72z M186.938,74.041c-0.173,0.002-1.509,0.002-1.682,0.003c0,5.853,0,11.705,0,17.559    c0.173-0.001,1.509,0,1.682-0.001C186.938,85.748,186.938,79.896,186.938,74.041z"></path><path fill-rule="evenodd" clip-rule="evenodd" fill="#000000" d="M185.772,74.04c0,5.853,0,11.707,0,17.559    c-0.173,0.002-0.343,0.003-0.516,0.004c0-5.854,0-11.706,0-17.559C185.43,74.043,185.6,74.041,185.772,74.04z"></path><path fill-rule="evenodd" clip-rule="evenodd" fill="#000000" d="M162.068,74.04c0,5.853,0.259,5.716,0.259,11.569    c-0.172,0.001-0.602,0-0.774,0.001c0-5.853,0-5.714,0-11.566C161.726,74.043,161.896,74.041,162.068,74.04z"></path><path fill-rule="evenodd" clip-rule="evenodd" fill="#000000" d="M163.018,74.041c0,5.854,0,5.715,0,11.568    c-0.173,0.001-0.776,0-0.949,0.001c0-5.853,0-5.714,0-11.566C162.241,74.043,162.845,74.043,163.018,74.041z"></path><path fill-rule="evenodd" clip-rule="evenodd" d="M174.791,63.873c-6.758,0.043-11.971-5.048-12.047-11.761    c-0.075-6.709,5.095-12,11.776-12.054c6.908-0.055,12.338,5.216,12.274,11.915C186.732,58.606,181.461,63.831,174.791,63.873z"></path><text transform="matrix(1 0 0 1 189.0215 55.752)" font-family="'MyriadPro-Bold'" font-size="22.9442">Z</text><text transform="matrix(1 0 0 1 198.9502 35.0879)" font-family="'MyriadPro-Bold'" font-size="15.8257">Z</text><text transform="matrix(1 0 0 1 209.5352 42.9932)" font-family="'MyriadPro-Bold'" font-size="11.281">Z</text></g><rect x="146.731" y="48.318" transform="matrix(0.7092 0.705 -0.705 0.7092 90.4906 -118.6119)" fill-rule="evenodd" clip-rule="evenodd" width="84.582" height="4.13"></rect><path fill-rule="evenodd" clip-rule="evenodd" d="M366.305,92.72c-20.999,0-59.274-0.079-80.271,0.087   c-3.889,0.031-5.129-1.082-5.027-5.032c0.283-10.918,0.293-21.845,0.293-32.768c0-3.29,0.905-3.935,2.467-3.911   c1.482,0.021,2.235,0.714,2.235,3.784c0,9.505,0.196,19.012,0.036,28.516c-0.054,3.138,0.563,4.483,4.162,4.444   c18.16-0.189,53.596-0.176,71.756-0.007c3.454,0.031,4.33-1.075,4.253-4.362c-0.221-9.361-0.105-18.729-0.167-28.092   c-0.014-2.077-0.11-4.453,2.701-4.123c0.848,0.1,1.922,0.275,2.011,4.035c0.223,10.92,0.219,21.845,0.247,32.768   C371.005,89.442,370.385,92.72,366.305,92.72z"></path><g><path fill-rule="evenodd" clip-rule="evenodd" d="M294.816,49.41c-1.086,3.121-2.683,3.055-3.937,2.938    c-2.718-0.254-1.813-2.544-1.258-4.315c2.03-6.485,4.179-12.938,6.045-19.47c1.256-4.393,2.288-4.324,7.981-4.271    c-1.041-2.144-2.495-4.575-3.061-6.821c-0.258-1.024,0.781-2.706,1.696-3.629c2.26-2.282,5.715-1.992,7.939,0.385    c2.538,2.712,1.823,5.427-3.125,10.044c8.179,0.004,7.639,0.317,9.365,6.526c1.664,5.985,3.955,11.807,5.78,17.76    c0.319,1.04,0.447,3.011-0.635,3.605c-1.428,0.784-3.923-0.793-4.394-1.853c-1.64-3.688-2.61-7.676-4.835-11.4    c0.77,5.994,1.538,11.986,2.311,17.98c1.012,7.853,2.077,15.699,3.013,23.561c0.271,2.279,0.362,4.82-2.754,5.309    c-3.303,0.519-4.513-1.577-4.938-4.452c-1.2-8.102-2.43-16.198-4.528-24.453c-0.71,3.863-1.471,7.717-2.118,11.59    c-0.722,4.325-1.278,8.678-2.03,12.996c-0.425,2.445-1.116,5.015-4.374,4.689c-3.45-0.345-3.284-3.147-2.982-5.531    c1.438-11.365,3.04-22.709,4.525-34.068c0.324-2.483,0.273-5.265,0.472-7.764"></path><path fill-rule="evenodd" clip-rule="evenodd" d="M322.244,48.556c0.319,1.04,0.447,3.011-0.635,3.605    c-1.428,0.784-3.413,0.391-4.394-1.853"></path><circle fill-rule="evenodd" clip-rule="evenodd" cx="305.5" cy="18.244" r="6.244"></circle></g><g><g><path d="M337.233,62.342c5.664,0,11.328,0,16.992,0c3.225,0,3.225-5,0-5c-5.664,0-11.328,0-16.992,0     C334.009,57.342,334.009,62.342,337.233,62.342L337.233,62.342z"></path></g></g><g><g><path d="M339.001,61.609c2.229-2.437,4.457-4.873,6.686-7.311c2.171-2.374-1.355-5.919-3.535-3.535     c-2.229,2.437-4.457,4.873-6.686,7.311C333.295,60.448,336.821,63.994,339.001,61.609L339.001,61.609z"></path></g></g><g><g><path d="M335.466,61.609c2.229,2.554,4.457,5.106,6.686,7.659c2.124,2.434,5.646-1.118,3.535-3.535     c-2.229-2.554-4.457-5.106-6.686-7.659C336.877,55.641,333.355,59.192,335.466,61.609L335.466,61.609z"></path></g></g><g><path fill-rule="evenodd" clip-rule="evenodd" d="M450.218,95.765c-4.039,0-7.874,0-11.932,0c0-0.612,0-1.186,0-1.759    c0-9.442,0-18.886,0-28.328c0-2.039-0.001-2.026-2.114-2.021c-5.19,0.009-10.382,0.008-15.573,0.006    c-0.434,0-0.865-0.038-1.599-0.072c3.448-6.005,6.793-11.83,10.272-17.89c-1.435,0-2.595,0-4.121,0    c2.562-4.465,4.968-8.662,7.503-13.086c-1.107,0-1.966,0-3.199,0c5.215-9.052,10.271-17.825,15.462-26.834    c5.189,9.001,10.234,17.754,15.388,26.692c-0.932,0.05-1.645,0.087-2.659,0.14c2.487,4.341,4.893,8.537,7.422,12.949    c-1.201,0.053-2.239,0.099-3.569,0.157c3.438,5.995,6.778,11.816,10.244,17.856c-0.803,0.037-1.322,0.081-1.841,0.082    c-5.884,0.006-11.768,0.006-17.649,0.004c-2.032,0-2.034-0.003-2.034,1.965c0,9.443,0,18.887,0,28.329    C450.218,94.493,450.218,95.031,450.218,95.765z"></path><path fill-rule="evenodd" clip-rule="evenodd" d="M457.3,95.85c1.941-7.938,3.803-15.7,5.762-23.437    c0.379-1.494,0.435-2.886-0.012-4.338c-0.206-0.67-0.324-1.368-0.482-2.053c0.149-0.043,0.299-0.085,0.448-0.127    c0.246,0.676,0.493,1.353,0.83,2.278c0.321-0.875,0.554-1.509,0.786-2.143c0.149,0.037,0.298,0.075,0.447,0.112    c-0.229,1.129-0.459,2.259-0.71,3.494c12.178,0,24.257,0,36.521,0c-0.242-1.233-0.47-2.4-0.698-3.566    c0.124-0.046,0.247-0.093,0.371-0.139c0.242,0.563,0.483,1.126,0.811,1.89c0.304-0.766,0.561-1.416,0.819-2.065    c0.177,0.052,0.354,0.104,0.531,0.157c-0.399,1.278-0.761,2.571-1.213,3.831c-0.221,0.612-0.748,1.127-0.9,1.746    c-1.926,7.749-3.818,15.507-5.687,23.271c-0.203,0.846-0.509,1.239-1.459,1.238c-11.71-0.031-23.421-0.018-35.131-0.022    C458.049,95.978,457.765,95.909,457.3,95.85z"></path><path fill-rule="evenodd" clip-rule="evenodd" d="M502.527,69.738c2.145,8.629,4.291,17.257,6.473,26.026    c-4.228,0-8.327,0-12.688,0c1.975-8.702,3.938-17.354,5.902-26.009C502.317,69.75,502.422,69.743,502.527,69.738z"></path></g></g></svg>