<?xml version="1.0" encoding="UTF-8"?>
<svg width="146px" height="188px" viewBox="0 0 146 188" version="1.1" xmlns="http://www.w3.org/2000/svg" xmlns:xlink="http://www.w3.org/1999/xlink">
    <!-- Generator: Sketch 43.1 (39012) - http://www.bohemiancoding.com/sketch -->
    <title>NW</title>
    <desc>Created with Sketch.</desc>
    <defs></defs>
    <g id="Symbols" stroke="none" stroke-width="1" fill="none" fill-rule="evenodd">
        <g id="NW" stroke-width="2" stroke="#FFFFFF" fill="#75568D">
            <polygon id="Fill-17" points="0 179.429224 4.60651299 179.547359 24.5144256 180.060002 24.5144256 188 25.0253003 187.487357 25.7910724 186.975799 27.5775138 185.183176 29.1090578 183.902111 30.1297272 183.389469 34.2124046 181.596845 35.2330739 181.341066 37.0205954 180.572644 37.53039 180.316865 39.3168314 180.316865 40.5934781 180.572644 41.6141475 180.828424 44.6772356 181.852625 47.995221 182.87791 48.5050157 183.133689 49.0158904 183.133689 49.5267651 183.133689 50.0365597 183.133689 51.0583092 182.87791 51.5681038 182.87791 52.0778984 182.365267 52.8447505 182.109488 53.3545452 181.596845 53.8654199 181.341066 54.3752145 181.085287 54.8860892 180.828424 55.3958839 180.572644 56.1616559 180.316865 57.1823253 180.316865 57.9491774 180.316865 58.458972 180.316865 59.224744 180.572644 59.7356187 180.828424 60.2454134 181.085287 62.5427295 182.365267 63.0536042 182.621047 63.5633988 182.87791 64.3291709 182.87791 64.8400456 182.87791 65.6058176 182.621047 66.1156122 182.365267 66.8813843 181.852625 69.9444724 178.011599 71.4749364 176.218976 72.2407084 175.706333 73.0064804 175.44947 73.5173552 175.44947 74.7940019 175.706333 75.3037965 175.706333 75.8146712 175.706333 76.3244659 175.706333 76.8353406 175.706333 77.3451352 175.44947 77.8560099 175.194775 78.621782 174.425269 79.1315766 173.91371 79.6424513 173.656847 80.152246 173.401068 80.6642007 173.145288 81.1739954 173.145288 81.6848701 173.145288 83.2153341 173.145288 85.7686276 172.889509 86.5333195 172.889509 87.2990916 172.632646 88.0648636 172.376866 90.1062023 171.608445 91.1268716 171.096886 93.9350624 170.071601 94.4459371 170.071601 94.9568119 169.815821 95.4666065 169.815821 97.5079452 169.558958 98.5296946 169.558958 99.550364 169.558958 100.571033 169.304263 101.591703 169.304263 103.634121 169.304263 104.909688 169.304263 105.420563 169.304263 105.930357 169.304263 106.441232 169.558958 107.461902 170.071601 108.993446 170.584243 110.014115 170.840023 113.588078 171.608445 115.118542 171.864224 116.139211 172.121087 117.15988 172.121087 118.946322 172.376866 119.713174 172.376866 120.988741 172.632646 121.754513 172.632646 123.030079 172.632646 125.072498 172.889509 126.858939 173.145288 128.900278 173.401068 130.942697 173.401068 132.218264 173.656847 132.729138 173.656847 134.260682 173.91371 134.771557 173.91371 136.047124 173.91371 136.557998 173.91371 137.067793 173.91371 136.302021 171.864224 136.047124 171.096886 135.792226 170.071601 135.792226 168.79162 135.537329 168.023198 135.537329 164.436868 135.537329 158.803219 135.537329 158.034797 135.537329 155.985311 135.537329 154.192688 135.537329 152.144285 135.537329 150.094799 135.537329 148.30326 135.537329 146.253773 135.537329 144.204287 135.792226 143.180086 136.047124 142.155884 136.812896 140.106398 137.32269 139.593755 138.34444 138.569554 138.855315 137.801132 139.365109 137.289574 143.448867 132.679042 146 128.838016 144.214639 127.556952 143.192889 126.020108 142.937992 125.25277 142.428197 124.995907 142.17222 124.483264 141.662425 123.971706 141.406448 122.947504 140.641756 121.922219 140.130881 121.410661 139.620007 120.642239 139.365109 120.129596 138.855315 119.616954 138.34444 119.105395 137.833565 118.592752 137.32269 118.338057 137.067793 117.82433 136.557998 117.312772 136.047124 116.800129 135.792226 116.28857 135.281352 115.519065 135.025374 115.007506 134.51558 114.751727 134.260682 114.240168 133.49491 113.470662 132.729138 112.70224 132.218264 112.190682 131.963366 111.678039 131.708469 111.16648 131.197594 110.398058 130.6878 109.885416 130.431822 109.373857 129.920948 108.861215 129.411153 108.604351 129.156256 108.092793 128.900278 107.58015 128.645381 107.068591 128.134506 106.555949 127.624711 106.043306 127.369814 105.275968 127.113837 104.506463 126.858939 103.994904 126.604042 103.482261 126.348065 102.970703 125.83827 102.202281 125.583373 101.689638 125.327395 100.921216 124.817601 100.409657 124.306726 99.6401517 124.050749 98.8728136 123.796931 98.3612549 123.286057 97.8475286 123.030079 97.0801905 122.776262 96.3117686 122.265387 95.5422629 122.00941 95.0307041 121.754513 94.5180616 121.499615 94.0065029 121.243638 93.238081 120.733843 92.9823016 120.222969 92.4696591 119.968071 91.9570165 119.202299 91.4454578 118.692505 91.1896784 117.670755 90.6770359 116.395188 89.6517508 115.885394 89.1401921 115.118542 88.8844127 114.608747 88.6275495 114.097872 88.372854 113.3321 87.8591276 112.566328 87.6033483 112.055454 87.6033483 111.545659 87.3475689 111.034784 87.0917896 110.269012 86.8349264 109.248343 86.579147 108.482571 86.3233677 107.971696 86.0675883 107.461902 85.8107251 106.696129 85.2991664 105.67546 84.7865238 104.654791 84.2749651 104.143916 84.0181019 103.889019 83.24968 103.123247 82.9939007 102.101497 82.4812581 101.080828 81.7128362 100.060159 81.2012775 99.550364 80.688635 99.0394893 80.4328556 98.2737172 79.6633499 97.7639226 79.4086543 97.2530479 79.1517912 96.7432532 78.6391486 95.9764011 78.3844531 95.2106291 78.1275899 94.4459371 77.6149474 93.4241877 77.1033886 92.6594958 76.8465255 92.1486211 76.5907461 91.8937237 76.0791874 91.1268716 75.8223242 90.617077 75.3107655 89.852385 75.0539023 89.0855329 74.2865642 88.5757383 74.029701 88.0648636 73.5170585 87.0441942 72.7486366 86.0235249 71.9802147 84.4919808 70.4444547 83.7262088 70.1886753 83.2153341 69.9318122 82.7055394 69.1633903 82.1946647 68.9076109 81.6848701 68.3960522 81.1739954 67.8834096 80.6642007 67.6265464 80.152246 67.1149877 79.6424513 66.6023452 79.1315766 66.0907865 78.621782 65.8339233 77.8560099 65.3223646 77.6011126 64.809722 76.5804433 64.0413001 76.0695686 63.2728782 75.5586939 64.0413001 74.2831272 63.0170988 64.8400456 55.5886592 65.0949429 54.5644579 65.0949429 53.796036 65.8607149 52.7718348 65.8607149 51.7476335 65.8607149 50.9792116 66.3705096 50.4676529 66.8813843 50.2118735 67.392259 50.4676529 68.1569509 50.7234322 68.923803 50.9792116 70.1993697 51.4918541 71.7309138 46.1139846 73.5173552 46.6255433 82.9615168 54.3097624 86.0235249 56.8697236 86.7892969 57.8939249 88.0648636 58.91921 88.8306356 59.4318525 90.3621797 60.7118331 91.6388264 61.7360344 92.1486211 62.2486769 93.1692904 63.0170988 94.4459371 64.0413001 94.9568119 64.5528588 95.4666065 64.809722 96.4872758 65.5770601 97.2530479 66.3465658 97.7639226 67.1149877 98.2737172 66.6023452 98.7845919 65.8339233 99.0394893 65.3223646 99.550364 64.809722 100.060159 63.7844369 100.571033 63.5286576 100.571033 62.7602357 100.571033 61.9928976 100.060159 61.9928976 98.7845919 60.7118331 98.0188199 60.4560538 97.5079452 59.9434112 96.9981506 59.6865481 96.4872758 58.91921 95.7225839 58.1507881 94.7008345 57.3823662 94.4459371 56.8697236 93.9350624 56.6139443 93.4241877 55.8455224 92.6594958 55.5886592 92.1486211 55.0771005 91.382849 54.8213211 88.0648636 52.260276 86.5333195 51.2360748 85.7686276 50.7234322 85.5126502 50.2118735 84.7468781 49.6981471 82.7055394 48.1623872 82.4495621 47.6497446 81.6848701 46.8813227 80.4082234 45.8571214 79.8984287 45.6002583 78.3668847 44.576057 77.6011126 43.8076351 77.3451352 43.2960764 76.0695686 42.2718751 75.5586939 41.7592326 75.0478191 41.5034532 74.7940019 40.9908107 74.0282299 40.7350313 73.7733325 40.2234726 73.2613778 39.9666094 72.7515831 39.9666094 72.2407084 39.7097462 71.7309138 39.4550507 71.2200391 39.4550507 69.9444724 39.4550507 68.6678256 39.4550507 67.9031337 39.7097462 67.392259 40.2234726 66.8813843 40.4792519 66.3705096 40.7350313 65.3498402 41.2476738 64.8400456 41.5034532 64.0742735 41.7592326 63.5633988 42.0160957 63.0536042 42.0160957 62.2867521 42.0160957 61.7769574 42.0160957 61.2660827 42.0160957 60.7562881 42.0160957 60.2454134 42.0160957 59.7356187 42.0160957 58.9698467 41.7592326 58.458972 41.5034532 57.6932 41.2476738 57.1823253 40.9908107 56.6725306 40.7350313 56.1616559 40.4792519 55.3958839 40.4792519 54.8860892 40.2234726 54.1203172 39.9666094 53.3545452 39.4550507 52.8447505 39.1981875 52.3338758 38.685545 51.8240812 38.1739862 51.3121264 37.6613437 50.8023318 37.4055643 50.2914571 37.149785 50.0365597 36.6371424 49.5267651 36.1255837 49.0158904 35.8687205 48.5050157 35.3571618 47.995221 35.1002986 47.4843463 34.5876561 46.9745517 34.0760974 46.463677 33.820318 45.9538823 33.5634548 45.697905 33.0518961 46.463677 31.2592729 44.6772356 30.2350717 44.6772356 29.4666498 44.1663609 28.9540072 43.6565663 28.697144 43.1456915 28.697144 42.8907942 28.1855853 42.6348168 27.6729428 42.1239421 27.6729428 41.6141475 27.929806 41.3592502 28.4424485 40.8494555 28.4424485 40.3375007 27.929806 39.5728088 27.4171634 38.5521394 26.6487415 38.296162 26.1371828 38.8070368 25.6234564 39.3168314 24.8561183 39.5728088 24.3445596 39.5728088 23.5750539 39.0630141 22.806632 38.5521394 22.5508526 38.0412647 22.2950733 37.0205954 21.5266514 36.7656981 21.0140088 36.2537433 20.7582295 35.7439486 20.2466707 35.2330739 19.9898076 34.7232793 19.7329444 34.2124046 19.4782488 33.4466325 18.9656063 32.9368379 18.7087431 31.9161686 19.2213857 31.4052938 18.9656063 30.8954992 18.9656063 30.3846245 18.4540476 29.6188525 18.1971844 29.1090578 17.941405 28.5981831 17.6845419 28.0883885 17.4287625 27.3215364 17.1729831 26.8117417 16.91612 26.300867 16.6603406 26.300867 15.8919187 26.5557643 15.38036 27.066639 14.8677174 27.3215364 14.3561587 27.5775138 13.586653 28.0883885 12.8182311 28.3422057 12.3066724 28.0883885 11.7940298 27.8324111 11.2824711 27.5775138 10.7698286 27.066639 10.5140492 26.300867 10.2582698 25.7910724 10.2582698 25.0253003 10.2582698 24.5144256 10.0014066 23.7486536 10.0014066 23.2377789 10.2582698 22.4720069 10.0014066 21.9622122 10.0014066 21.4513375 10.0014066 20.9415429 10.0014066 20.1757708 9.74454347 19.6648961 9.48984792 19.1540214 9.23298475 18.6442268 9.23298475 18.1344321 9.23298475 17.1126827 8.97720538 16.3469107 8.97720538 15.8371161 8.72034221 15.071344 8.46564665 14.3044919 8.20878348 13.7946973 8.20878348 13.0300053 7.95300412 12.5191306 7.69614094 12.0082559 7.18458221 11.2424839 6.92771904 9.9669172 6.16038095 8.69027046 5.39195905 7.41362372 4.62245333 6.64893176 4.11089461 6.13913712 3.59825207 5.62826241 3.3424727 5.1173877 2.82983016 4.60651299 2.31827144 3.84182103 2.06249207 3.33094632 1.8056289 2.56517429 1.29407017 1.79940226 1.037207 1.28852755 0.525648269 0.778732911 0.269868905 0.2678582 0.0130057304"></polygon>
        </g>
    </g>
</svg>