<?xml version="1.0" encoding="UTF-8"?>
<svg width="119px" height="240px" viewBox="0 0 119 240" version="1.1" xmlns="http://www.w3.org/2000/svg" xmlns:xlink="http://www.w3.org/1999/xlink">
    <!-- Generator: Sketch 43.1 (39012) - http://www.bohemiancoding.com/sketch -->
    <title>central NE</title>
    <desc>Created with Sketch.</desc>
    <defs></defs>
    <g id="Symbols" stroke="none" stroke-width="1" fill="none" fill-rule="evenodd">
        <g id="central-NE" stroke-width="3" stroke="#FFFFFF" fill="#75568D">
            <g id="Central-NE">
                <polygon id="Fill-5" points="28.02975 1.27709574 48.6695151 2.80917845 53.7658333 3.06416542 69.3103586 7.14935916 86.3829166 11.4895399 108.042808 18.638899 118.745508 22.2130384 119 79.4046703 118.745508 79.9157246 118.489937 80.4256986 117.725381 81.7027943 115.687285 85.0219467 114.92273 86.042975 114.412667 86.5540294 113.903682 86.8090164 113.393619 86.8090164 112.629063 87.3200708 111.355523 87.5750577 110.590967 88.0861121 110.080904 88.3410991 109.571919 88.851073 109.316348 89.3621274 108.807364 90.3831557 108.551793 91.1491971 108.2973 93.4473212 108.551793 93.9583755 108.042808 115.404292 107.788316 119.745553 107.788316 124.340721 107.788316 125.361749 107.532745 129.957997 107.532745 131.234013 107.532745 133.532137 107.278253 134.298178 107.278253 135.064219 106.003634 136.596302 105.494649 137.61733 105.494649 139.660468 105.494649 141.19147 105.494649 142.468566 105.240157 144.510622 105.240157 146.553759 105.240157 150.127899 104.984586 154.468079 104.730093 158.298286 104.730093 161.617439 104.730093 162.38348 104.475601 164.425537 104.475601 166.213687 104.475601 168.255743 104.475601 170.042813 104.22003 175.149035 103.965538 180.00027 103.711045 185.106492 103.455475 190.212714 103.455475 192.255851 103.455475 194.297908 103.455475 195.063949 103.200982 196.086058 103.200982 198.128115 103.200982 200.170171 103.200982 202.724363 102.94649 204.511433 102.94649 206.298502 102.94649 207.830585 102.94649 209.1066 102.691997 209.872642 102.691997 210.638683 102.691997 212.425753 102.691997 213.446781 102.691997 215.489918 102.691997 217.531975 102.436427 219.575112 102.436427 221.617168 102.436427 224.681334 102.181934 230.042543 102.181934 233.361695 102.181934 235.149845 101.927442 237.957943 101.927442 240 99.1237121 240 97.3401086 240 95.3020126 240 93.2628383 239.745013 90.97025 239.745013 88.9310757 239.745013 86.8929798 239.490026 86.1284242 239.490026 85.1093763 238.978972 84.5993131 238.723985 82.8157096 238.723985 81.0321061 238.723985 78.9929318 238.723985 76.9548358 238.468998 75.4257247 238.468998 74.4066768 238.468998 73.6421212 238.468998 72.6230732 238.468998 70.8394697 238.468998 69.0558662 238.21293 68.0357399 238.21293 67.0166919 238.21293 66.2521363 238.468998 64.4685328 238.978972 62.1748661 238.723985 59.626707 238.723985 56.8240555 238.723985 55.040452 238.723985 53.0023561 238.468998 51.7277374 238.468998 50.9631818 238.468998 49.9441338 238.468998 48.9250859 238.468998 46.8859116 238.468998 44.3377525 238.468998 42.0451642 238.21293 41.535101 238.21293 38.2223863 238.21293 35.4197349 237.957943 34.6551793 237.957943 33.1260682 237.957943 32.616005 237.957943 32.1070202 237.702956 31.596957 237.446889 31.0879722 237.446889 30.5779091 237.446889 30.0678459 237.446889 29.0487979 237.191902 28.5398131 237.191902 28.02975 237.446889 27.5196868 237.446889 27.010702 237.702956 26.2461465 237.957943 25.4815909 238.21293 24.9715277 238.21293 24.4625429 238.21293 23.6979874 237.957943 23.1879242 237.702956 22.6789394 237.446889 21.1498283 236.680848 20.6397651 236.680848 20.1307803 236.425861 19.6207172 236.425861 18.8561616 236.170874 17.8371136 235.915887 16.8180657 235.915887 15.7979393 235.915887 15.0344621 235.915887 14.524399 235.915887 14.0143358 236.170874 13.505351 236.170874 12.9952878 236.425861 12.486303 236.425861 11.7217475 236.680848 11.2116843 236.936915 10.4471288 236.936915 9.93814396 237.191902 9.4280808 237.191902 8.91801763 237.191902 8.40903283 237.446889 7.64447727 237.446889 7.13441411 237.446889 6.6254293 237.446889 5.86087374 237.446889 0 237.191902 0 235.149845 0.254492402 233.106708 0.254492402 231.319639 0.254492402 229.277582 0.254492402 227.234445 0.254492402 226.468403 0.508984803 225.95843 0.764555563 225.192388 1.01904796 224.426347 1.27354037 223.915292 1.78360353 223.404238 2.03809593 222.894264 2.29258833 222.38321 2.29258833 221.362181 2.54815909 219.320125 2.54815909 217.531975 2.54815909 213.702848 2.80265149 212.936807 2.80265149 210.89367 2.80265149 209.1066 2.80265149 207.319531 2.80265149 206.298502 2.80265149 205.277474 2.80265149 203.234337 3.05714389 201.702254 3.05714389 199.660197 3.05714389 197.873128 3.05714389 196.086058 3.05714389 192.766906 3.31271465 189.70274 3.31271465 184.340451 3.56720705 180.00027 3.56720705 177.192172 3.56720705 175.405102 3.56720705 173.361965 3.56720705 171.319909 3.82169946 167.234715 3.82169946 165.191578 3.82169946 164.425537 3.82169946 162.128493 4.07727021 157.532245 4.07727021 153.958105 4.33176262 152.171036 4.33176262 150.383966 4.33176262 148.085842 4.33176262 145.021677 4.58625502 143.745661 4.58625502 141.19147 4.58625502 139.4044 4.58625502 137.362344 4.58625502 135.319206 4.84074742 134.043191 4.84074742 130.469052 4.84074742 127.149899 5.09631818 124.085734 5.09631818 122.553651 5.09631818 120.511595 5.09631818 118.468458 5.09631818 117.447429 5.09631818 116.170333 5.35081058 112.08514 5.35081058 107.234985 5.60530298 105.191848 5.60530298 104.17082 5.60530298 102.127683 5.60530298 100.851667 10.9571919 0"></polygon>
            </g>
        </g>
    </g>
</svg>