<?xml version="1.0" encoding="UTF-8"?>
<svg width="192px" height="256px" viewBox="0 0 192 256" version="1.1" xmlns="http://www.w3.org/2000/svg" xmlns:xlink="http://www.w3.org/1999/xlink">
    <!-- Generator: Sketch 43.1 (39012) - http://www.bohemiancoding.com/sketch -->
    <title>SW</title>
    <desc>Created with Sketch.</desc>
    <defs></defs>
    <g id="Symbols" stroke="none" stroke-width="1" fill="none" fill-rule="evenodd">
        <g id="SW" stroke-width="3" stroke="#FFFFFF" fill="#75568D">
            <g id="Fill-23">
                <polygon points="86.9243504 0 87.1796825 0 87.6914286 0 87.9467607 0.255411255 88.2031747 0.255411255 89.2255851 0.767316017 90.7597415 1.27922078 91.7821518 1.53463203 95.3611288 2.30194805 96.8952852 2.55735931 97.9176955 2.81277056 98.9401058 2.81277056 100.729594 3.06926407 101.496673 3.06926407 102.775497 3.32467532 103.542575 3.32467532 104.820317 3.32467532 106.86622 3.58008658 108.655709 3.83658009 110.700529 4.09199134 112.746432 4.09199134 114.024174 4.3474026 114.53592 4.3474026 116.068995 4.6038961 116.580741 4.6038961 117.859565 4.6038961 118.370229 4.6038961 118.881975 4.6038961 119.137307 5.37012987 119.39264 6.9047619 119.39264 7.41666667 119.39264 7.67207792 119.39264 8.18398268 119.39264 8.9512987 119.39264 9.20670996 119.137307 9.71861472 118.625561 11.2532468 118.370229 11.508658 117.603151 13.5541126 117.603151 13.8106061 117.092487 15.3441558 116.325409 16.8787879 114.791252 20.715368 114.024174 22.5054113 113.257096 24.5508658 112.746432 25.5746753 112.490018 26.5974026 111.722939 28.3874459 111.722939 28.8993506 111.467607 29.9220779 111.467607 30.4339827 111.467607 31.2002165 111.467607 31.7121212 111.467607 32.224026 111.467607 32.7348485 111.722939 34.0140693 112.234686 35.2922078 113.001764 37.3387446 113.512428 38.3614719 114.024174 39.1287879 114.53592 39.8961039 115.046584 40.6634199 116.836073 42.4534632 118.881975 44.4989177 119.39264 45.0108225 121.18321 47.0573593 121.949206 47.8235931 122.460952 48.0800866 123.739777 49.6147186 125.529265 50.8928571 126.296343 51.4047619 126.807008 51.9155844 127.06234 52.1720779 127.829418 52.4274892 128.085832 52.4274892 128.341164 52.6829004 129.108242 52.9393939 129.87532 52.9393939 130.897731 53.1948052 131.920141 53.4502165 133.70963 53.70671 133.966044 53.70671 134.221376 53.70671 137.033275 54.2175325 137.545021 54.4729437 137.800353 54.4729437 138.055685 54.4729437 138.567431 54.4729437 138.822763 54.4729437 139.079177 54.4729437 139.589841 54.4729437 140.101587 54.4729437 140.612252 54.4729437 140.868666 54.4729437 141.37933 54.4729437 141.891076 54.2175325 142.658154 53.9621212 143.168818 53.4502165 143.680564 53.1948052 143.935896 52.9393939 145.214721 51.6601732 147.259541 49.8701299 153.906831 44.2435065 154.673909 43.732684 154.929242 43.4761905 154.929242 43.9880952 154.929242 44.2435065 155.185656 44.7554113 155.185656 45.0108225 155.185656 45.2662338 155.185656 45.5227273 155.185656 45.7781385 155.185656 46.0335498 155.440988 46.0335498 155.440988 46.2900433 155.69632 46.5454545 155.952734 47.3127706 156.208066 47.8235931 156.208066 48.0800866 156.463398 48.3354978 156.463398 48.5909091 156.71873 48.5909091 156.71873 48.8474026 156.975144 48.8474026 157.230476 49.1028139 157.485808 49.3582251 157.485808 49.6147186 157.997554 50.1255411 158.252887 50.3820346 158.252887 50.6374459 158.509301 51.1482684 158.764633 51.9155844 159.019965 52.4274892 159.019965 52.9393939 159.019965 53.1948052 159.019965 53.4502165 159.019965 53.9621212 159.276379 54.2175325 159.531711 54.7294372 160.042375 55.4967532 160.042375 55.7521645 160.298789 56.2640693 160.298789 56.5194805 160.554121 57.0313853 160.554121 57.5422078 160.554121 58.0541126 160.554121 58.3095238 160.554121 58.5649351 161.321199 60.0995671 161.576531 60.6114719 161.576531 60.8668831 161.832945 61.1222944 162.088278 60.8668831 162.34361 60.8668831 162.598942 60.8668831 162.855356 61.1222944 163.110688 61.1222944 163.110688 61.3787879 163.110688 61.6341991 163.110688 61.8896104 162.855356 61.8896104 163.110688 62.1461039 163.36602 62.6569264 163.622434 63.6807359 163.877766 63.6807359 163.877766 63.9361472 164.133098 63.9361472 164.389512 64.1915584 164.644844 64.4469697 164.644844 64.7034632 164.900176 64.9588745 164.900176 65.2142857 165.155508 65.7261905 165.155508 66.2380952 165.411922 67.0054113 165.667255 68.2835498 165.667255 68.7954545 165.667255 69.3062771 165.667255 69.8181818 165.667255 70.3300866 165.922587 71.0963203 165.922587 71.6082251 165.922587 72.6309524 165.922587 73.1428571 166.179001 73.3982684 166.434333 73.6547619 166.434333 73.9101732 166.689665 74.4209957 166.689665 75.1883117 166.689665 75.4448052 166.946079 75.9556277 166.946079 76.2121212 167.201411 76.9794372 167.201411 77.4902597 167.201411 78.0021645 167.201411 78.512987 167.201411 79.0248918 167.201411 79.280303 167.201411 79.5367965 167.201411 80.047619 167.456743 81.3268398 167.713157 82.3495671 167.713157 83.1168831 167.713157 83.6287879 167.713157 83.8841991 167.968489 84.3950216 167.968489 84.9069264 167.968489 85.1623377 168.479153 86.9534632 168.735567 87.719697 168.9909 87.9761905 168.9909 88.487013 169.502646 89.5108225 169.502646 89.7662338 169.502646 90.2781385 169.502646 90.788961 169.502646 91.0443723 169.502646 91.3008658 169.757978 91.5562771 170.01331 91.8116883 170.269724 92.0681818 170.525056 92.3235931 170.780388 92.3235931 171.03572 92.8354978 171.802798 93.6028139 173.081623 95.1363636 173.336955 95.3928571 173.592287 95.6482684 174.104033 96.1601732 174.359365 96.1601732 175.382857 96.9274892 176.148854 97.6937229 177.427678 98.461039 178.706502 99.228355 179.217166 99.7402597 179.472498 100.251082 179.728913 100.251082 179.728913 100.507576 179.984245 100.762987 179.984245 101.018398 179.984245 101.274892 179.984245 101.530303 179.984245 101.785714 179.984245 102.042208 179.984245 102.297619 180.239577 102.809524 180.495991 103.320346 180.495991 103.575758 180.495991 103.832251 180.495991 104.343074 180.495991 104.599567 180.495991 104.854978 180.495991 105.11039 180.495991 105.366883 180.495991 106.134199 180.495991 106.900433 180.239577 107.667749 180.239577 108.179654 180.239577 108.435065 180.239577 108.94697 180.239577 109.458874 180.239577 109.969697 180.239577 110.225108 179.984245 110.481602 179.984245 110.992424 179.984245 111.248918 179.984245 111.504329 179.728913 112.016234 179.728913 112.527056 179.728913 112.78355 179.472498 113.038961 179.217166 113.549784 179.217166 113.806277 178.961834 114.061688 178.961834 114.3171 178.706502 114.829004 178.450088 115.340909 178.450088 115.851732 177.939424 116.619048 177.68301 117.386364 177.427678 117.898268 177.172346 118.15368 176.915932 118.409091 176.915932 118.665584 176.6606 118.920996 176.6606 119.176407 176.405268 119.176407 176.405268 119.4329 176.148854 119.688312 176.148854 120.199134 175.893521 120.199134 175.893521 120.711039 175.893521 120.96645 175.638189 121.222944 175.638189 121.478355 175.382857 121.99026 175.126443 122.245671 175.126443 122.757576 175.126443 123.012987 175.126443 123.268398 174.871111 123.780303 174.871111 124.035714 174.871111 124.291126 174.615779 124.547619 174.615779 124.80303 174.359365 125.058442 174.104033 125.570346 174.104033 125.825758 173.848701 126.082251 173.848701 126.593074 173.592287 127.104978 173.592287 127.615801 173.336955 128.127706 173.081623 128.63961 172.826291 129.150433 172.826291 129.406926 172.569877 129.662338 172.314544 130.17316 172.059212 130.429654 171.802798 130.685065 171.547466 130.940476 171.547466 131.452381 171.292134 131.707792 171.292134 131.964286 171.03572 132.219697 170.780388 132.475108 170.525056 132.731602 170.525056 132.987013 170.269724 133.242424 170.01331 133.242424 169.757978 133.497835 169.502646 133.754329 169.246232 133.754329 169.246232 134.00974 168.9909 134.521645 168.479153 135.032468 167.456743 136.056277 166.946079 136.5671 166.179001 137.079004 165.922587 137.079004 165.667255 137.334416 165.411922 137.334416 165.155508 137.589827 164.900176 137.84632 164.644844 138.101732 164.389512 138.101732 164.133098 138.101732 163.877766 138.357143 163.622434 138.613636 163.36602 138.613636 162.855356 138.613636 162.598942 138.869048 162.088278 139.124459 161.576531 139.636364 161.321199 139.636364 161.065867 139.636364 161.065867 139.891775 160.809453 139.891775 160.554121 140.147186 160.298789 140.40368 160.042375 140.40368 159.787043 140.659091 159.787043 140.914502 159.531711 141.170996 159.531711 141.426407 159.276379 141.681818 159.276379 142.193723 159.019965 142.449134 159.019965 142.705628 159.019965 142.961039 158.764633 143.471861 158.509301 144.239177 158.252887 144.751082 157.997554 145.006494 157.742222 145.518398 157.485808 145.77381 156.975144 146.541126 156.975144 146.796537 156.71873 147.05303 156.71873 147.308442 156.463398 147.820346 156.463398 148.075758 156.463398 148.587662 156.463398 148.843074 156.463398 149.865801 156.463398 150.633117 156.463398 151.400433 156.463398 151.912338 156.463398 152.42316 156.463398 152.679654 156.208066 152.935065 156.208066 153.190476 156.208066 153.445887 156.463398 153.702381 156.463398 153.957792 156.463398 154.469697 156.71873 154.725108 156.71873 155.237013 156.71873 155.492424 156.71873 156.004329 156.463398 156.515152 156.208066 157.027056 156.208066 157.282468 156.208066 157.537879 156.208066 158.049784 156.463398 158.305195 156.463398 159.072511 156.71873 159.584416 156.71873 160.607143 156.71873 161.374459 156.71873 161.62987 156.71873 162.141775 156.975144 162.397186 156.975144 162.65368 156.975144 162.909091 157.230476 163.164502 157.230476 163.419913 157.230476 163.676407 157.230476 163.931818 157.230476 164.187229 157.230476 164.443723 157.230476 164.699134 157.485808 164.954545 157.485808 165.46645 157.485808 165.721861 157.485808 166.233766 157.485808 166.489177 157.742222 167.001082 157.997554 167.256494 157.997554 167.511905 158.252887 167.768398 158.764633 168.791126 159.019965 169.046537 159.276379 169.30303 159.276379 169.558442 159.531711 169.813853 159.787043 170.069264 159.787043 170.325758 160.042375 170.581169 160.298789 170.83658 160.554121 171.348485 160.809453 171.603896 161.065867 171.86039 161.321199 171.86039 161.321199 172.115801 161.576531 172.371212 161.832945 172.883117 162.088278 173.650433 162.088278 174.161255 162.34361 174.67316 162.598942 175.185065 162.598942 175.440476 162.855356 175.695887 163.110688 175.951299 163.36602 175.951299 163.36602 176.207792 163.622434 176.718615 163.877766 177.230519 163.877766 177.742424 164.133098 178.253247 164.389512 178.765152 164.389512 179.275974 164.389512 180.04329 164.644844 180.810606 164.644844 181.0671 164.644844 181.322511 164.644844 181.577922 164.644844 181.834416 164.644844 182.089827 164.644844 182.345238 164.900176 182.600649 165.155508 182.857143 165.155508 183.112554 165.411922 184.135281 165.667255 184.647186 165.667255 184.902597 165.411922 184.902597 165.667255 185.159091 165.922587 185.159091 165.922587 185.414502 165.922587 185.669913 162.598942 185.926407 166.689665 195.643939 166.689665 195.899351 167.201411 197.178571 167.456743 197.690476 167.713157 198.201299 167.968489 198.457792 167.968489 198.968615 168.223821 199.480519 168.479153 199.991342 168.735567 200.758658 168.9909 201.782468 169.502646 203.060606 170.01331 204.083333 170.525056 205.362554 171.03572 206.385281 171.292134 207.152597 171.547466 207.664502 171.802798 208.175325 172.059212 208.687229 172.059212 208.942641 172.314544 209.454545 172.569877 209.709957 172.826291 210.477273 173.592287 211.5 174.615779 213.546537 175.893521 215.33658 176.6606 216.871212 177.68301 218.149351 178.706502 219.428571 179.472498 220.195887 180.239577 220.963203 181.006655 221.474026 181.773733 221.985931 182.540811 222.496753 183.563222 222.753247 184.585632 223.264069 185.609124 223.520563 186.631534 224.031385 187.653945 224.54329 188.676355 224.798701 189.443433 225.310606 190.210511 226.077922 190.97759 226.845238 191.489336 227.612554 191.744668 228.635281 192 229.402597 192 230.169913 192 230.937229 191.744668 231.704545 191.744668 232.727273 191.489336 233.75 191.232922 234.772727 190.722258 235.795455 189.955179 237.074675 189.188101 238.097403 188.165691 239.12013 186.631534 240.143939 184.842046 241.166667 183.563222 241.933983 182.285479 242.701299 181.518401 243.212121 181.006655 243.979437 180.751323 244.491342 180.495991 245.258658 180.239577 245.769481 180.239577 246.536797 180.495991 247.304113 180.751323 248.327922 181.518401 249.606061 182.540811 251.652597 183.563222 253.953463 184.3303 255.743506 184.3303 256 176.148854 255.743506 160.298789 255.232684 140.101587 254.465368 136.010864 254.465368 120.159718 253.698052 80.0217285 252.418831 60.0798589 251.652597 40.6497354 250.885281 40.1390712 250.885281 36.8154263 250.628788 19.9418696 250.117965 0.51174611 249.350649 0 249.350649 0 247.560606 0.51174611 229.402597 1.02241031 209.454545 1.78948851 189.506494 2.30123462 169.558442 2.81298073 149.865801 3.32364493 129.917749 3.83539104 109.969697 4.09072314 90.2781385 4.60246925 70.3300866 5.36954745 50.6374459 5.62487955 30.6893939 6.13662566 18.6688312 6.64728986 18.1580087 7.41436807 17.6461039 9.20385658 15.8560606 10.738013 14.5779221 11.7604233 14.0660173 15.8511464 12.275974 16.8735567 12.0194805 18.6630453 11.2532468 19.1747914 10.9967532 20.9642799 10.9967532 22.2431042 11.2532468 23.2655145 11.508658 26.3327454 12.5313853 29.6563903 13.5541126 29.6563903 13.8106061 29.9128044 13.8106061 30.1681365 13.8106061 30.6798826 13.8106061 31.1905468 13.8106061 31.7022929 13.8106061 32.7247032 13.5541126 33.2364493 13.5541126 33.7471135 13.04329 34.5141917 12.7867965 34.7695238 12.5313853 35.0259378 12.275974 35.536602 12.0194805 35.793016 11.7640693 36.0483481 11.7640693 36.5590123 11.508658 37.0707584 11.2532468 37.8378366 10.9967532 38.0931687 10.9967532 38.8602469 10.9967532 39.115579 10.9967532 39.6273251 10.9967532 40.1390712 10.9967532 40.3944033 10.9967532 40.9061495 11.2532468 41.4168136 11.508658 41.9285598 11.7640693 44.2297944 13.04329 44.7404586 13.2987013 45.2522047 13.5541126 46.0192829 13.5541126 46.5299471 13.5541126 47.2970253 13.2987013 47.8087714 13.04329 48.0641035 12.7867965 48.5758496 12.5313853 48.5758496 12.275974 51.6430805 8.69480519 53.1772369 6.9047619 53.432569 6.64935065 53.9443152 6.39393939 54.1996473 6.13744589 54.7113934 6.13744589 55.2231395 6.13744589 56.5008819 6.39393939 57.012628 6.39393939 57.2679601 6.39393939 57.5232922 6.39393939 57.7797062 6.39393939 58.0350383 6.39393939 58.2903704 6.39393939 58.5457025 6.39393939 58.8021165 6.13744589 59.0574486 6.13744589 59.3127807 5.88203463 59.5691947 5.88203463 60.3362729 5.11471861 60.591605 4.85930736 60.8469371 4.6038961 61.1022692 4.3474026 61.3586832 4.3474026 61.6140153 4.09199134 61.8693474 4.09199134 62.3810935 3.83658009 62.8928396 3.83658009 63.4035038 3.83658009 64.9376602 3.83658009 67.494227 3.58008658 68.2613052 3.58008658 69.0283834 3.32467532 69.7954616 3.06926407 71.8402822 2.30194805 72.8626925 1.79004329 75.6756732 0.767316017 76.1863374 0.767316017 76.4427514 0.767316017 76.6980835 0.511904762 77.2098297 0.511904762 79.2546503 0.255411255 80.2770606 0.255411255 81.2994709 0.255411255 82.3229631 0 83.3453734 0 85.390194 0 86.6690183 0"></polygon>
            </g>
        </g>
    </g>
</svg>