<?xml version="1.0" encoding="UTF-8"?>
<svg width="81px" height="254px" viewBox="0 0 81 254" version="1.1" xmlns="http://www.w3.org/2000/svg" xmlns:xlink="http://www.w3.org/1999/xlink">
    <!-- Generator: Sketch 43.1 (39012) - http://www.bohemiancoding.com/sketch -->
    <title>Inner NE</title>
    <desc>Created with Sketch.</desc>
    <defs></defs>
    <g id="Symbols" stroke="none" stroke-width="1" fill="none" fill-rule="evenodd">
        <g id="Inner-NE" stroke-width="3" stroke="#FFFFFF" fill="#75568D">
            <g id="Fill-11">
                <polygon points="56.214917 15.0611502 58.5148983 15.0611502 81 16.8479198 75.6344583 117.171687 75.6344583 117.682655 75.6344583 118.958456 75.6344583 121.00125 75.6344583 122.022107 75.3792652 124.063821 75.3792652 128.914242 75.1229909 132.99875 75.1229909 134.019607 75.1229909 134.275631 75.1229909 135.296488 75.1229909 137.338202 75.1229909 139.380996 75.1229909 140.912821 74.8677978 143.975392 74.8677978 147.293987 74.8677978 150.868607 74.6126048 152.144408 74.6126048 154.187202 74.6126048 156.228916 74.6126048 158.015685 74.6126048 160.568368 74.3563304 161.845249 74.3563304 164.397931 74.3563304 164.90782 74.3563304 167.205558 74.3563304 168.992328 74.1011374 170.780177 74.1011374 174.353717 73.8459444 178.948113 73.8459444 181.245851 73.8459444 182.011764 73.8459444 184.054558 73.5907513 188.137986 73.5907513 190.18078 73.5907513 192.222493 73.5907513 194.010343 73.5907513 196.81797 73.334477 201.157422 73.334477 206.518811 73.0792839 209.581382 73.0792839 212.899977 73.0792839 214.686747 73.0792839 216.474597 73.0792839 218.51631 72.8240909 220.048136 72.8240909 221.579961 72.8240909 222.08985 72.8240909 223.111787 72.8240909 223.621675 72.8240909 224.132644 72.8240909 225.919413 72.8240909 227.706183 72.8240909 229.238009 72.8240909 229.748977 72.5678165 230.51381 72.5678165 234.343373 72.5678165 236.130143 72.3126235 238.172937 72.3126235 238.93885 72.3126235 239.193794 72.0574304 239.704763 71.8011561 239.959707 71.8011561 240.214651 71.545963 240.469595 71.29077 240.725619 71.29077 240.980564 71.035577 240.980564 71.035577 241.235508 70.7793026 242.001421 70.5241096 242.512389 70.5241096 242.767333 70.5241096 243.023358 70.2689165 243.278302 70.2689165 243.78819 70.2689165 244.044215 70.2689165 246.085928 70.2689165 248.128722 70.2689165 249.915492 70.0126422 251.957206 70.0126422 254 67.2022748 254 65.6689539 254 64.6471004 254 63.625247 253.743976 61.8367331 253.743976 59.2815587 253.743976 55.1930635 253.743976 51.1045683 253.489031 47.2712661 253.489031 43.1838522 253.234087 41.394257 253.234087 39.35055 253.234087 37.3068431 252.979143 35.2620548 252.979143 33.4735409 252.979143 31.4298339 252.979143 29.3850457 252.723119 28.1079991 252.723119 27.5965317 252.723119 25.5528248 252.723119 23.5080365 252.723119 21.4643296 252.723119 19.6758157 252.468175 17.6310274 252.468175 16.6091739 252.468175 15.5873204 252.468175 13.7988065 252.468175 11.4988252 252.21323 9.71031132 252.21323 7.66660437 252.21323 5.87700913 251.957206 5.11143002 251.957206 4.59996262 251.957206 4.34476958 251.957206 4.34476958 249.149579 4.34476958 248.894635 4.59996262 248.383667 4.59996262 245.57604 4.85515566 240.725619 5.11143002 240.469595 5.11143002 239.959707 5.11143002 236.386167 5.11143002 232.30166 5.36662306 230.51381 5.36662306 228.983064 5.11143002 226.685326 4.85515566 225.408445 4.85515566 224.642532 4.59996262 223.621675 4.08849522 222.600818 3.83330218 221.579961 3.32183478 220.559104 2.81144871 219.282223 2.29998131 218.51631 2.81144871 218.51631 2.81144871 217.495454 3.06664175 214.431803 3.06664175 212.899977 3.06664175 210.347295 3.32183478 207.794612 3.32183478 206.007843 3.32183478 204.986986 3.32183478 202.178279 3.57810915 199.625596 3.57810915 197.072914 3.57810915 194.520232 3.83330218 192.222493 3.83330218 190.18078 3.83330218 188.137986 3.83330218 186.096272 3.83330218 184.309502 4.08849522 182.266708 3.83330218 182.011764 4.08849522 178.693169 4.08849522 175.119629 4.08849522 171.54501 4.08849522 168.226415 4.34476958 164.652875 4.34476958 162.100193 4.34476958 161.845249 4.34476958 159.802455 4.59996262 157.760741 4.59996262 156.228916 4.59996262 155.463003 4.85515566 152.91032 4.85515566 152.655376 4.59996262 152.655376 4.59996262 152.399352 4.59996262 152.144408 4.34476958 151.889464 4.34476958 151.633439 4.34476958 150.102694 4.34476958 148.314844 4.34476958 146.784099 4.59996262 145.252273 4.59996262 142.443566 4.59996262 142.188622 4.59996262 141.933678 4.59996262 138.870027 4.85515566 135.551432 4.85515566 131.977893 5.11143002 128.404353 5.11143002 124.829734 5.11143002 122.277051 5.36662306 117.426631 5.36662306 117.171687 5.62181609 116.916743 5.62181609 115.129973 5.62181609 113.087179 5.62181609 109.768584 5.62181609 107.981814 5.87700913 106.195044 5.87700913 104.15225 5.87700913 102.110536 5.87700913 100.067742 5.87700913 98.2809728 6.13328349 96.4942031 6.13328349 94.1964649 3.57810915 91.6437825 4.34476958 86.2834735 4.59996262 83.2198226 5.36662306 80.1561716 6.38847653 74.5409185 7.41033 69.945442 7.66660437 69.1795293 7.66660437 68.1586724 7.66660437 67.1378155 7.41033 66.1169586 7.15513697 65.3510458 6.64366957 64.0741645 5.11143002 59.478688 3.32183478 54.6293477 2.55625567 53.3524663 2.29998131 52.3316094 1.53332087 51.3107525 0.766660437 50.2888154 0 49.5239829 19.6758157 0"></polygon>
            </g>
        </g>
    </g>
</svg>