<svg fill="#FFFFFF" xmlns:dc="http://purl.org/dc/elements/1.1/" xmlns:cc="http://creativecommons.org/ns#" xmlns:rdf="http://www.w3.org/1999/02/22-rdf-syntax-ns#" xmlns:svg="http://www.w3.org/2000/svg" xmlns="http://www.w3.org/2000/svg" xmlns:sodipodi="http://sodipodi.sourceforge.net/DTD/sodipodi-0.dtd" xmlns:inkscape="http://www.inkscape.org/namespaces/inkscape" viewBox="0 0 100 100" version="1.1" x="0px" y="0px"><g transform="translate(0,-952.36216)"><path style="color:#000000;font-style:normal;font-variant:normal;font-weight:normal;font-stretch:normal;font-size:medium;line-height:normal;font-family:sans-serif;font-variant-ligatures:normal;font-variant-position:normal;font-variant-caps:normal;font-variant-numeric:normal;font-variant-alternates:normal;font-feature-settings:normal;text-indent:0;text-align:start;text-decoration:none;text-decoration-line:none;text-decoration-style:solid;text-decoration-color:#000000;letter-spacing:normal;word-spacing:normal;text-transform:none;writing-mode:lr-tb;direction:ltr;text-orientation:mixed;dominant-baseline:auto;baseline-shift:baseline;text-anchor:start;white-space:normal;shape-padding:0;clip-rule:nonzero;display:inline;overflow:visible;visibility:visible;opacity:1;isolation:auto;mix-blend-mode:normal;color-interpolation:sRGB;color-interpolation-filters:linearRGB;solid-color:#000000;solid-opacity:1;fill:#FFFFFF;fill-opacity:1;fill-rule:evenodd;stroke:none;stroke-width:1.51765692;stroke-linecap:round;stroke-linejoin:round;stroke-miterlimit:4;stroke-dasharray:none;stroke-dashoffset:0;stroke-opacity:1;color-rendering:auto;image-rendering:auto;shape-rendering:auto;text-rendering:auto;enable-background:accumulate" d="M 38.914062 5 A 0.75890434 0.75890434 0 0 0 38.279297 5.2949219 L 35.318359 9.1367188 A 0.75890434 0.75890434 0 0 0 35.162109 9.6367188 L 35.388672 14.261719 L 32.412109 18.611328 A 0.75890434 0.75890434 0 0 0 32.287109 18.939453 L 31.886719 21.980469 A 0.75890434 0.75890434 0 0 0 32.103516 22.617188 L 33.621094 24.134766 L 33.349609 28.601562 L 30.908203 29.619141 A 0.75890434 0.75890434 0 0 0 30.445312 30.404297 L 31.166016 36.882812 A 0.75890434 0.75890434 0 0 0 31.830078 37.552734 L 36.660156 38.130859 L 37.5 41.771484 A 0.75890434 0.75890434 0 0 0 37.802734 42.220703 L 47.134766 48.775391 L 47.099609 49.289062 L 39.353516 57.974609 A 0.75890434 0.75890434 0 0 0 39.25 58.123047 L 36.882812 62.552734 L 31.896484 65.083984 A 0.75890434 0.75890434 0 0 0 31.494141 65.621094 L 30.292969 72.021484 A 0.75890434 0.75890434 0 0 0 30.357422 72.494141 L 32.197266 76.253906 A 0.75890434 0.75890434 0 0 0 32.410156 76.517578 L 37.291016 80.357422 A 0.75890434 0.75890434 0 0 0 37.390625 80.423828 L 44.591797 84.425781 A 0.75890434 0.75890434 0 0 0 44.890625 84.517578 L 50.529297 85.035156 L 51.578125 87.380859 L 50.814453 89.324219 A 0.75890434 0.75890434 0 0 0 50.771484 89.730469 L 51.572266 94.371094 A 0.75890434 0.75890434 0 0 0 52.851562 94.783203 L 57.171875 90.542969 A 0.75890434 0.75890434 0 0 0 57.394531 90.091797 L 58.330078 82.207031 L 63.574219 75.007812 A 0.75890434 0.75890434 0 0 0 63.65625 74.861328 L 68.296875 64.142578 A 0.75890434 0.75890434 0 0 0 68.347656 63.96875 L 69.708984 56.048828 A 0.75890434 0.75890434 0 0 0 69.650391 55.603516 L 68.837891 53.832031 L 68.759766 37.916016 A 0.75890434 0.75890434 0 0 0 68.671875 37.566406 L 66.351562 33.166016 A 0.75890434 0.75890434 0 0 0 65.289062 32.869141 L 63.541016 33.917969 L 60.732422 33.355469 L 64.005859 29.705078 A 0.75890434 0.75890434 0 0 0 64.197266 29.154297 L 63.802734 22.435547 L 64.589844 17.396484 A 0.75890434 0.75890434 0 0 0 64.599609 17.300781 L 64.679688 14.501953 A 0.75890434 0.75890434 0 0 0 64.259766 13.800781 L 59.619141 11.480469 A 0.75890434 0.75890434 0 0 0 59.443359 11.417969 L 46.488281 8.5566406 L 39.207031 5.0742188 A 0.75890434 0.75890434 0 0 0 38.914062 5.0019531 L 38.914062 5 z " transform="translate(0,952.36216)"></path></g></svg>