<svg fill="#FFFFFF" xmlns="http://www.w3.org/2000/svg" xmlns:xlink="http://www.w3.org/1999/xlink" version="1.1" x="0px" y="0px" viewBox="0 0 864 864" style="enable-background:new 0 0 864 864;" xml:space="preserve"><g><path d="M100.2,420.5c14.6,5.2,51.9,20.6,64.6,43.8c9.6,3.8,32.9,15.1,39.9,36.8l70.7,47.7l9,64.7c17.5,21.2,23.5,36.9,18.6,49.1   c-2.5,6.2-7.1,9.6-10.8,11.4l-6.5,31.3l25.4,24c21.5,3.4,35.5,11,41.7,22.4c0.1,0.3,0.2,0.5,0.4,0.8l86.4-2.9l76.6-3.6l81.4-4.8   l97.8-4.1c0-6.3,0.2-10.3,0.2-10.3c-32.7-44.9,0-142.9,0-142.9C667,539,752.8,322.6,752.8,322.6   c-81.7,136.1-102.1,122.5-102.1,122.5c-12.9-7.4,3.3-50.6,25-95.8l-37.4-32.1l-8.5-76.8c-23.7-2.5-38-9.1-43.7-20.3   c-1.5-2.9-2.3-6.1-2.4-9.3l-78.5-10.9l-25.5-14l-25.3-4.2l-67.5-15.3c-21.6-1-34-16.5-38.7-27.2c-25.9,2.7-48.6,0.4-48.6,0.4   c32.7-52.4,12.2-49.7,12.2-49.7c-60,34-99.3,46.2-124.2,49l-41.4,85.8l-6.6-0.5l-1.2,0c-4.5,0-20.1,0.9-33.4,12.5   c-12.3,10.7-19.9,27.8-22.6,50.6c8,2.2,18.7,7.1,24.5,17.6c6.1,11,5.1,24.7-2.9,40.8C99.5,365.7,94.2,402.5,100.2,420.5z"></path></g></svg>