<svg width="90px" height="60px" viewBox="0 0 90 60" version="1.1" xmlns="http://www.w3.org/2000/svg" xmlns:xlink="http://www.w3.org/1999/xlink">
    <!-- Generator: Sketch 49.3 (51167) - http://www.bohemiancoding.com/sketch -->
    <desc>Created with Sketch.</desc>
    <defs></defs>
    <g id="Page-1" stroke="none" stroke-width="1" fill="none" fill-rule="evenodd" stroke-linecap="round" stroke-linejoin="round">
        <g id="Desktop" transform="translate(-500.000000, -310.000000)" stroke="#000000" stroke-width="0.5">
            <path d="M502.833,333 C501.45,333.659 501.622,331.211 501.52,330.537 C501.639,330.427 501.74,330.488 501.858,330.354 C501.514,329.254 501.159,328.368 501.062,327.188 C501.37,327.26 501.829,327.076 502.141,327.15 C502.078,326.396 502.062,325.751 502.65,325.291 C501.913,323.633 502.63,323.294 503.463,322.204 C504.186,321.257 504.871,320.241 505.292,318.837 C505.758,317.284 505.335,311.477 506.513,311.007 C506.545,311.166 506.628,311.485 506.695,311.65 C508.317,311.399 508.966,312.561 508.188,313.807 C509.282,313.335 509.978,312.153 509.521,310.895 C511.867,310.905 514.893,312.357 517.166,313.032 C520.238,313.944 523.347,314.477 526.491,315.125 C528.102,315.457 529.608,316.356 531.203,316.633 C533.159,316.972 535.186,316.769 537.159,316.99 C539.326,317.234 541.116,317.672 543.346,317.666 C544.567,317.663 546.869,318.397 547.7,317.358 C548.158,317.67 548.322,317.955 548.193,318.641 C550.652,318.958 553.047,319.999 555.496,320.196 C554.256,321.406 552.978,321.391 552.351,323.307 C553.009,323.02 553.576,322.55 554.309,322.525 C554.31,322.72 554.361,322.946 554.359,323.141 C556.222,323.575 557.251,321.872 558.475,321.684 C558.469,322.231 558.364,322.819 558.189,323.308 C559.462,323.548 560.18,322.888 561.167,322.838 C562.271,322.782 563.469,323.505 564.491,323.866 C563.758,324.824 563.074,324.144 562.204,324.454 C561.527,324.695 560.938,325.148 560.367,325.644 C560.223,325.451 559.967,325.31 559.838,325.145 C559.188,325.649 558.722,326.706 558.522,327.485 C558.731,327.246 559.118,327.042 559.346,326.708 C559.332,328.521 558.517,330.662 559,332.5 C559.194,333.238 559.7,334.468 560.715,333.678 C561.235,333.274 561.068,331.263 561.141,330.696 C560.013,330.279 560.579,327.314 560.861,326.355 C560.926,326.433 561.36,326.649 561.495,326.858 C562.118,326.018 562.933,325.069 564.337,325.7 C566.27,326.57 564.825,327.867 564.863,329.145 C564.924,329.081 565.22,328.848 565.375,328.683 C565.58,328.692 565.874,328.833 566.141,328.85 C566.097,329.742 566.415,330.448 566.332,331.333 C566.251,332.202 565.612,332.798 565.987,333.645 C567.428,333.316 572.65,332.3 571.515,329.708 C573.18,328.523 575.419,328.765 577.031,327.666 C576.533,327.396 576.136,327.017 575.817,326.499 C577.724,324.811 579.765,322.991 582.477,322.188 C582.301,322.631 582.441,323.175 582.357,323.644 C583.9,323.034 584.313,321.744 584.495,320.162 C584.518,319.96 584.612,318.223 584.654,318.166 C585.283,317.323 585.964,318.043 586.808,317.516 C586.961,318.32 587.358,318.956 587.374,319.81 C587.852,319.707 588.319,319.845 588.798,319.552 C588.421,319.871 588.36,320.408 588.195,320.803 C589.613,321.067 589.34,322.415 588.702,323.165 C587.907,324.101 586.576,323.777 586.474,325.303 C584.771,325.42 584.671,328.717 585.527,329.47 C587.763,329.233 585.488,330.574 584.999,330.832 C584.087,331.313 583.072,331.813 582.165,332.503 C580.915,333.455 581.09,333.947 580.84,335.156 C580.627,336.187 580.241,337.98 578.862,336.848 C579.095,337.822 579.958,338.03 580.127,339.202 C580.274,340.218 580.014,341.277 579.464,342.106 C578.741,341.476 579.107,340.559 578.789,339.702 C578.541,339.035 577.958,338.485 577.631,337.848 C576.684,338.679 578.566,341.056 578.521,341.973 C578.656,342.015 578.865,341.928 578.976,342.014 C578.879,342.255 578.925,342.752 578.851,343.01 C578.993,343.084 579.175,343.115 579.309,343.193 C579.2,343.795 578.959,344.075 578.354,344.189 C578.337,344.4 578.352,344.598 578.355,344.805 C578.871,344.713 579.46,344.611 579.978,344.523 C579.708,345.361 579.259,346.507 578.371,345.681 C577.976,346.295 578.098,346.724 578.812,346.868 C577.682,347.741 576.78,348.726 576,349.664 C575.435,350.344 573.816,352.666 572.688,352.522 C572.663,352.801 572.695,352.939 572.767,353.175 C572.573,353.185 572.375,353.109 572.188,353.189 C572.167,353.996 571.521,354.059 571.355,354.655 C571.196,355.227 571.348,356.363 571.33,357.067 C571.299,358.225 571.696,358.796 571.987,359.664 C572.158,360.174 572.837,360.299 572.179,361.131 C572.333,361.19 572.48,361.152 572.639,361.188 C572.974,362.283 573.962,363.053 574.021,364.306 C574.178,364.346 574.312,364.306 574.468,364.347 C574.798,365.438 574.824,368.156 573.829,368.709 C572.593,369.397 570.888,367.082 570.976,366.022 C569.245,365.385 568.906,363.4 569.641,361.856 C569.474,361.795 569.195,361.8 569.022,361.805 C569,361.153 567.939,360.211 567.289,359.834 C565.864,359.008 566.046,359.755 564.543,360.143 C563.828,359.351 561.219,359.04 561.476,358.026 C560.868,358.283 560.204,358.848 559.522,358.974 C559.524,358.731 559.444,358.422 559.468,358.184 C559.183,358.415 559.027,358.367 558.801,358.8 C558.314,359.032 555.303,359.462 555.143,359.325 C555.717,359.538 556.352,359.748 556.968,359.857 C556.739,360.282 557.034,360.451 556.51,360.792 C556.89,360.972 557.017,361.262 557.314,361.462 C556.91,361.571 556.266,361.545 555.856,361.471 C555.823,361.311 555.848,361.174 555.803,361.017 C555.212,361.291 554.388,361.298 553.698,361.637 C553.469,361.213 553.139,361.146 552.969,360.692 C551.342,360.276 548.97,359.738 547.374,360.638 C547.323,360.364 547.158,360.254 547.177,359.88 C546.731,360.354 546.459,360.887 546.577,361.484 C545.482,362.18 543.859,362.201 543.477,363.634 C541.695,363.468 541.757,367.161 542.485,368.137 C541.597,368.199 538.728,367.203 538.291,366.532 C537.91,365.948 538.227,364.976 537.836,364.333 C537.264,363.394 536.748,363.39 535.677,363.132 C536.084,361.645 535.719,360.693 534.544,359.792 C533.555,359.034 531.858,358.537 531.47,360.303 C531.079,360.283 530.506,360.069 530.19,359.801 C530.196,358.88 529.257,358.441 528.819,357.663 C528.412,356.94 528.46,356.309 527.868,355.626 C526.382,353.91 524.962,354.21 523.165,353.479 C522.634,353.973 519.698,353.384 518.827,353.167 C517.267,352.779 516.176,351.605 514.824,350.825 C513.763,350.213 512.895,349.354 511.831,348.867 C510.438,348.229 508.941,348.779 507.51,348.292 C508.685,346.022 507.216,345.048 505.523,343.954 C505.775,343.492 505.88,342.892 505.805,342.343 C505.417,342.424 504.859,342.211 504.513,342.268 C504.557,342.068 504.596,341.885 504.648,341.687 C503.011,340.984 502.483,336.922 502.806,335.524 C502.267,335.321 502.064,334.801 502.189,334.184 C502.342,334.138 502.48,334.174 502.635,334.135 C502.717,333.808 502.966,333.224 502.964,333.006 C503,333.311 502.876,333.526 502.833,333.833" id="Shape"></path>
        </g>
    </g>
</svg>