<?xml version="1.0" encoding="utf-8"?>
<!-- Generator: Adobe Illustrator 19.2.1, SVG Export Plug-In . SVG Version: 6.00 Build 0)  -->
<svg version="1.1" id="Layer_1" xmlns="http://www.w3.org/2000/svg" xmlns:xlink="http://www.w3.org/1999/xlink" x="0px" y="0px"
	 viewBox="0 0 1654.9 560" style="enable-background:new 0 0 1654.9 560;" xml:space="preserve">
<style type="text/css">
	.st0{fill:none;stroke:#D7075F;stroke-width:2;stroke-miterlimit:10;}
	.st1{fill:#D7075F;}
	.st2{fill:#FFFFFF;}
	.st3{font-family:'RobotoCondensed-Bold';}
	.st4{font-size:18px;}
	.st5{font-family:'RobotoCondensed-Regular';}
	.st6{fill:none;stroke:#D7075F;stroke-miterlimit:10;}
	.st7{fill:#AAA4AB;}
	.st8{font-size:14px;}
</style>
<line class="st0" x1="59.2" y1="314.2" x2="1547.5" y2="314.2"/>
<circle class="st1" cx="63.8" cy="314.2" r="21.3"/>
<g>
	<g transform="translate(-240.000000, -404.000000)">
		<g transform="translate(240.000000, 404.000000)">
			<path class="st2" d="M70.9,318.4c-0.7-0.4-1.3-0.5-1.9-0.3c-0.4,0.1-0.8,0.4-1,0.8c-0.5,0.6-1.2,1.3-1.3,1.5
				c-1.2,0.8-2.2,0.7-3.2-0.3l-5.9-5.9c-1-1-1.1-2-0.3-3.2c0.1-0.2,0.8-0.8,1.5-1.3c0.4-0.2,0.7-0.6,0.8-1c0.2-0.6,0-1.2-0.3-1.9
				c-0.1-0.2-2.2-3.7-4.1-4.7c-1-0.5-2.2-0.3-3,0.4l-1.3,1.3c-2.5,2.5-3.1,5.5-1.6,8.7c0.5,1.1,1.3,2.1,2.2,3.1L62,326.1h0
				c0.8,0.8,1.6,1.5,2.5,1.9c1.5,0.8,2.9,1.2,4.2,1.2c1.9,0,3.6-0.8,5.2-2.4l1.3-1.3c0.8-0.8,1-2,0.4-3
				C74.6,320.6,71,318.5,70.9,318.4L70.9,318.4z"/>
			<path class="st2" d="M74.9,307.8h-9.2c-0.3,0-0.5-0.2-0.5-0.5c0-0.3,0.2-0.5,0.5-0.5h9.2c0.3,0,0.5,0.2,0.5,0.5
				C75.4,307.5,75.2,307.8,74.9,307.8 M73.9,310.8h-7.1c-0.3,0-0.5-0.2-0.5-0.5s0.2-0.5,0.5-0.5h7.1c0.3,0,0.5,0.2,0.5,0.5
				S74.1,310.8,73.9,310.8 M66.7,303.7h7.1c0.3,0,0.5,0.2,0.5,0.5c0,0.3-0.2,0.5-0.5,0.5h-7.1c-0.3,0-0.5-0.2-0.5-0.5
				C66.2,303.9,66.4,303.7,66.7,303.7 M70.3,298.6c-4.8,0-8.7,3.9-8.7,8.7c0,1.4,0.3,2.7,1,4l-0.9,4.1c0,0.2,0,0.4,0.1,0.5
				c0.1,0.1,0.2,0.1,0.4,0.1c0,0,0.1,0,0.1,0l3.8-1.1c1.3,0.7,2.8,1.1,4.2,1.1c4.8,0,8.7-3.9,8.7-8.7
				C79,302.5,75.1,298.6,70.3,298.6"/>
		</g>
	</g>
</g>
<text transform="matrix(1 0 0 1 154.8836 190.9996)"><tspan x="0" y="0" class="st1 st3 st4">Incident initiated</tspan><tspan x="0" y="21.6" class="st1 st3 st4">by the dispatcher</tspan></text>
<text transform="matrix(1 0 0 1 349.8838 365.0002)" class="st1 st3 st4">PF&amp;R gets the call</text>
<text transform="matrix(1 0 0 1 537.6718 190.9996)" class="st1 st3 st4">PF&amp;R are dispatched</text>
<text transform="matrix(1 0 0 1 763.8835 365.0001)"><tspan x="0" y="0" class="st1 st3 st4">Engine leaves the station</tspan><tspan x="0" y="21.6" class="st1 st3 st4">and is en route</tspan></text>
<text transform="matrix(1 0 0 1 972.8841 190.9993)" class="st1 st3 st4">Travel time</text>
<text transform="matrix(1 0 0 1 1199.8838 388.9999)"><tspan x="0" y="0" class="st1 st5 st4">PF&amp;R use travel </tspan><tspan x="0" y="21.6" class="st1 st5 st4">time to plan</tspan></text>
<text transform="matrix(1 0 0 1 1352.8833 190.9995)" class="st1 st5 st4">On scene </text>
<text transform="matrix(1 0 0 1 1526.4604 371.0001)"><tspan x="0" y="0" class="st1 st3 st4">Clear the</tspan><tspan x="20.9" y="21.6" class="st1 st3 st4">Scene</tspan></text>
<text transform="matrix(1 0 0 1 42.517 365)"><tspan x="0" y="0" class="st1 st3 st4">Call </tspan><tspan x="0" y="21.6" class="st1 st3 st4">Recieved</tspan></text>
<line class="st6" x1="154.9" y1="275" x2="154.9" y2="313.8"/>
<line class="st6" x1="349.9" y1="315.3" x2="349.9" y2="342.9"/>
<line class="st6" x1="537.9" y1="275" x2="537.9" y2="313.8"/>
<line class="st6" x1="763.9" y1="315.2" x2="763.9" y2="343"/>
<line class="st6" x1="972.9" y1="275" x2="972.9" y2="313.8"/>
<line class="st6" x1="1352.9" y1="275" x2="1352.9" y2="313.8"/>
<g>
	<path class="st1" d="M1569.5,291.9c-12.1,0-22,9.8-22,22s9.8,22,22,22s22-9.8,22-22S1581.6,291.9,1569.5,291.9z M1570.6,321.2
		l-5.2,5.2l-11.6-11.6l5.2-5.2l6.5,6.5l14.7-14.7l5.2,5.2L1570.6,321.2z"/>
</g>
<text transform="matrix(1 0 0 1 537.8837 212)"><tspan x="0" y="0" class="st7 st5 st8">Factors affecting dispatch time: </tspan><tspan x="0" y="16.8" class="st7 st5 st8">where people are—in training, </tspan><tspan x="0" y="33.6" class="st7 st5 st8">having dinner, sleeping; </tspan><tspan x="0" y="50.4" class="st7 st5 st8">whether it’s nighttime</tspan></text>
<text transform="matrix(1 0 0 1 763.8832 409)"><tspan x="0" y="0" class="st7 st5 st8">Sometimes calls are cancelled </tspan><tspan x="0" y="16.8" class="st7 st5 st8">while engines are en route:</tspan><tspan x="0" y="33.6" class="st7 st5 st8">example, when an ambulance </tspan><tspan x="0" y="50.4" class="st7 st5 st8">arrives first and relieves PF&amp;R</tspan></text>
<text transform="matrix(1 0 0 1 972.8837 212)"><tspan x="0" y="0" class="st7 st5 st8">Factors affecting travel time:</tspan><tspan x="0" y="16.8" class="st7 st5 st8">traffic, optimal driving routes</tspan></text>
<text transform="matrix(1 0 0 1 1352.8838 212)"><tspan x="0" y="0" class="st7 st5 st8">PF&amp;R is on scene within 5 minutes, </tspan><tspan x="0" y="16.8" class="st7 st5 st8">on average</tspan></text>
<line class="st6" x1="1199.9" y1="315.4" x2="1199.9" y2="354.2"/>
</svg>
